M48
;GenerationSoftware,Autodesk,EAGLE,9.6.2*%
;CreationDate,2020-11-12T22:03:37Z*%
FMAT,2
ICI,OFF
METRIC,TZ,000.000
T4C0.350
T3C0.813
T2C0.900
T1C1.016
%
G90
M71
T1
X13970Y8890
X30480Y19050
X30480Y16510
X33020Y19050
X33020Y16510
X35560Y19050
X35560Y16510
X13970Y11430
X62230Y38100
X50165Y10160
T2
X33020Y27940
X33020Y30480
X30480Y30480
X30480Y27940
X35560Y27940
X35560Y30480
T3
X39497Y5080
X44323Y5080
T4
X34290Y22860
X50165Y19685
X27940Y33020
X34290Y12700
X57150Y29845
X48895Y13970
X91440Y24130
X58420Y40640
X58420Y24130
X52070Y13970
X40005Y26670
X38100Y34290
X48895Y27940
X57150Y27940
X47625Y27305
X50800Y23495
X64135Y22225
X48895Y23495
X60325Y20955
X63500Y24130
X73025Y25400
X27940Y19050
X62865Y26035
X71120Y26035
X49530Y20955
X83820Y23495
X53975Y15240
M30