G04 EAGLE Gerber RS-274X export*
G75*
%MOMM*%
%FSLAX34Y34*%
%LPD*%
%INSoldermask Bottom*%
%IPPOS*%
%AMOC8*
5,1,8,0,0,1.08239X$1,22.5*%
G01*
%ADD10C,1.828800*%
%ADD11P,1.869504X8X22.500000*%
%ADD12C,1.727200*%
%ADD13P,1.869504X8X292.500000*%
%ADD14C,1.524000*%
%ADD15C,0.959600*%


D10*
X330200Y279400D03*
X330200Y304800D03*
X304800Y304800D03*
X304800Y279400D03*
X355600Y279400D03*
X355600Y304800D03*
D11*
X304800Y190500D03*
X304800Y165100D03*
X330200Y190500D03*
X330200Y165100D03*
X355600Y190500D03*
X355600Y165100D03*
D12*
X147320Y88900D02*
X132080Y88900D01*
X132080Y114300D02*
X147320Y114300D01*
D11*
X622300Y381000D03*
D13*
X501650Y101600D03*
D14*
X394970Y50800D03*
X443230Y50800D03*
D15*
X400050Y266700D03*
X381000Y342900D03*
X488950Y279400D03*
X571500Y279400D03*
X476250Y273050D03*
X571500Y298450D03*
X508000Y234950D03*
X641350Y222250D03*
X488950Y234950D03*
X603250Y209550D03*
X635000Y241300D03*
X730250Y254000D03*
X628650Y260350D03*
X711200Y260350D03*
X495300Y209550D03*
X838200Y234950D03*
X539750Y152400D03*
X279400Y190500D03*
X342900Y228600D03*
X501650Y196850D03*
X279400Y330200D03*
X342900Y127000D03*
X520700Y139700D03*
X488950Y139700D03*
X914400Y241300D03*
X584200Y406400D03*
X584200Y241300D03*
M02*
