G04 EAGLE Gerber RS-274X export*
G75*
%MOMM*%
%FSLAX34Y34*%
%LPD*%
%INTop Copper*%
%IPPOS*%
%AMOC8*
5,1,8,0,0,1.08239X$1,22.5*%
G01*
%ADD10R,5.100000X2.500000*%
%ADD11C,17.800000*%
%ADD12R,1.300000X1.500000*%
%ADD13R,1.500000X0.600000*%
%ADD14R,0.600000X1.500000*%
%ADD15C,1.625600*%
%ADD16P,1.649562X8X22.500000*%
%ADD17C,1.524000*%
%ADD18P,1.649562X8X292.500000*%
%ADD19R,1.200000X1.200000*%
%ADD20C,1.320800*%
%ADD21R,1.600000X1.300000*%
%ADD22R,1.300000X1.600000*%
%ADD23R,2.200000X1.200000*%
%ADD24C,0.254000*%
%ADD25C,0.609600*%
%ADD26C,0.756400*%

G36*
X966388Y10176D02*
X966388Y10176D01*
X966507Y10183D01*
X966545Y10196D01*
X966586Y10201D01*
X966696Y10244D01*
X966809Y10281D01*
X966844Y10303D01*
X966881Y10318D01*
X966977Y10387D01*
X967078Y10451D01*
X967106Y10481D01*
X967139Y10504D01*
X967215Y10596D01*
X967296Y10683D01*
X967316Y10718D01*
X967341Y10749D01*
X967392Y10857D01*
X967450Y10961D01*
X967460Y11001D01*
X967477Y11037D01*
X967499Y11154D01*
X967529Y11269D01*
X967533Y11329D01*
X967537Y11349D01*
X967535Y11370D01*
X967539Y11430D01*
X967539Y480570D01*
X967524Y480688D01*
X967517Y480807D01*
X967504Y480845D01*
X967499Y480886D01*
X967456Y480996D01*
X967419Y481109D01*
X967397Y481144D01*
X967382Y481181D01*
X967313Y481277D01*
X967249Y481378D01*
X967219Y481406D01*
X967196Y481439D01*
X967104Y481515D01*
X967017Y481596D01*
X966982Y481616D01*
X966951Y481641D01*
X966843Y481692D01*
X966739Y481750D01*
X966699Y481760D01*
X966663Y481777D01*
X966546Y481799D01*
X966431Y481829D01*
X966371Y481833D01*
X966351Y481837D01*
X966330Y481835D01*
X966270Y481839D01*
X11430Y481839D01*
X11312Y481824D01*
X11193Y481817D01*
X11155Y481804D01*
X11114Y481799D01*
X11004Y481756D01*
X10891Y481719D01*
X10856Y481697D01*
X10819Y481682D01*
X10723Y481613D01*
X10622Y481549D01*
X10594Y481519D01*
X10561Y481496D01*
X10485Y481404D01*
X10404Y481317D01*
X10384Y481282D01*
X10359Y481251D01*
X10308Y481143D01*
X10250Y481039D01*
X10240Y480999D01*
X10223Y480963D01*
X10201Y480846D01*
X10171Y480731D01*
X10167Y480671D01*
X10163Y480651D01*
X10165Y480630D01*
X10161Y480570D01*
X10161Y390857D01*
X10169Y390788D01*
X10168Y390718D01*
X10189Y390630D01*
X10201Y390541D01*
X10226Y390476D01*
X10243Y390408D01*
X10285Y390329D01*
X10318Y390246D01*
X10359Y390189D01*
X10391Y390127D01*
X10452Y390061D01*
X10504Y389988D01*
X10558Y389944D01*
X10605Y389892D01*
X10680Y389843D01*
X10749Y389785D01*
X10813Y389756D01*
X10871Y389717D01*
X10956Y389688D01*
X11037Y389650D01*
X11106Y389637D01*
X11172Y389614D01*
X11261Y389607D01*
X11349Y389590D01*
X11419Y389594D01*
X11489Y389589D01*
X11577Y389604D01*
X11667Y389610D01*
X11733Y389631D01*
X11802Y389643D01*
X11884Y389680D01*
X11969Y389708D01*
X12028Y389745D01*
X12092Y389774D01*
X12162Y389830D01*
X12238Y389878D01*
X12286Y389929D01*
X12340Y389972D01*
X12395Y390044D01*
X12456Y390110D01*
X12490Y390171D01*
X12532Y390227D01*
X12603Y390371D01*
X13020Y391379D01*
X34071Y412430D01*
X36685Y413513D01*
X108866Y413513D01*
X108984Y413528D01*
X109103Y413535D01*
X109141Y413548D01*
X109182Y413553D01*
X109292Y413596D01*
X109405Y413633D01*
X109440Y413655D01*
X109477Y413670D01*
X109573Y413739D01*
X109674Y413803D01*
X109702Y413833D01*
X109735Y413856D01*
X109811Y413948D01*
X109892Y414035D01*
X109912Y414070D01*
X109937Y414101D01*
X109988Y414209D01*
X110046Y414313D01*
X110056Y414353D01*
X110073Y414389D01*
X110095Y414506D01*
X110125Y414621D01*
X110129Y414681D01*
X110133Y414701D01*
X110131Y414722D01*
X110135Y414782D01*
X110135Y420784D01*
X112516Y423165D01*
X166884Y423165D01*
X169265Y420784D01*
X169265Y414982D01*
X169280Y414864D01*
X169287Y414745D01*
X169300Y414707D01*
X169305Y414666D01*
X169348Y414556D01*
X169385Y414443D01*
X169407Y414408D01*
X169422Y414371D01*
X169491Y414275D01*
X169555Y414174D01*
X169585Y414146D01*
X169608Y414113D01*
X169700Y414037D01*
X169787Y413956D01*
X169822Y413936D01*
X169853Y413911D01*
X169961Y413860D01*
X170065Y413802D01*
X170105Y413792D01*
X170141Y413775D01*
X170258Y413753D01*
X170373Y413723D01*
X170433Y413719D01*
X170453Y413715D01*
X170474Y413717D01*
X170534Y413713D01*
X263428Y413713D01*
X263526Y413725D01*
X263625Y413728D01*
X263684Y413745D01*
X263744Y413753D01*
X263836Y413789D01*
X263931Y413817D01*
X263983Y413847D01*
X264039Y413870D01*
X264119Y413928D01*
X264205Y413978D01*
X264280Y414044D01*
X264297Y414056D01*
X264304Y414066D01*
X264326Y414084D01*
X326171Y475930D01*
X328785Y477013D01*
X484015Y477013D01*
X486629Y475930D01*
X523274Y439284D01*
X523353Y439224D01*
X523425Y439156D01*
X523478Y439127D01*
X523526Y439090D01*
X523617Y439050D01*
X523703Y439002D01*
X523762Y438987D01*
X523818Y438963D01*
X523915Y438948D01*
X524011Y438923D01*
X524111Y438917D01*
X524132Y438913D01*
X524144Y438915D01*
X524172Y438913D01*
X542539Y438913D01*
X542637Y438925D01*
X542736Y438928D01*
X542794Y438945D01*
X542854Y438953D01*
X542946Y438989D01*
X543041Y439017D01*
X543093Y439047D01*
X543150Y439070D01*
X543230Y439128D01*
X543315Y439178D01*
X543391Y439244D01*
X543407Y439256D01*
X543415Y439266D01*
X543436Y439284D01*
X546016Y441865D01*
X571384Y441865D01*
X573765Y439484D01*
X573765Y424116D01*
X571384Y421735D01*
X546016Y421735D01*
X543436Y424316D01*
X543358Y424376D01*
X543286Y424444D01*
X543233Y424473D01*
X543185Y424510D01*
X543094Y424550D01*
X543007Y424598D01*
X542949Y424613D01*
X542893Y424637D01*
X542795Y424652D01*
X542699Y424677D01*
X542599Y424683D01*
X542579Y424687D01*
X542567Y424685D01*
X542539Y424687D01*
X519285Y424687D01*
X516671Y425770D01*
X514492Y427949D01*
X514492Y427950D01*
X480026Y462416D01*
X479947Y462476D01*
X479875Y462544D01*
X479822Y462573D01*
X479774Y462610D01*
X479683Y462650D01*
X479597Y462698D01*
X479538Y462713D01*
X479482Y462737D01*
X479384Y462752D01*
X479289Y462777D01*
X479189Y462783D01*
X479168Y462787D01*
X479156Y462785D01*
X479128Y462787D01*
X333672Y462787D01*
X333574Y462775D01*
X333475Y462772D01*
X333416Y462755D01*
X333356Y462747D01*
X333264Y462711D01*
X333169Y462683D01*
X333117Y462653D01*
X333061Y462630D01*
X332981Y462572D01*
X332895Y462522D01*
X332820Y462456D01*
X332803Y462444D01*
X332796Y462434D01*
X332774Y462416D01*
X277656Y407298D01*
X277583Y407203D01*
X277505Y407114D01*
X277486Y407078D01*
X277461Y407046D01*
X277414Y406937D01*
X277360Y406831D01*
X277351Y406792D01*
X277335Y406754D01*
X277316Y406637D01*
X277290Y406521D01*
X277292Y406480D01*
X277285Y406440D01*
X277296Y406322D01*
X277300Y406203D01*
X277311Y406164D01*
X277315Y406124D01*
X277355Y406011D01*
X277388Y405897D01*
X277409Y405863D01*
X277423Y405824D01*
X277490Y405726D01*
X277550Y405623D01*
X277590Y405578D01*
X277601Y405561D01*
X277617Y405548D01*
X277656Y405503D01*
X310830Y372329D01*
X311913Y369715D01*
X311913Y349504D01*
X311928Y349386D01*
X311935Y349267D01*
X311948Y349229D01*
X311953Y349188D01*
X311996Y349078D01*
X312033Y348965D01*
X312055Y348930D01*
X312070Y348893D01*
X312139Y348797D01*
X312203Y348696D01*
X312233Y348668D01*
X312256Y348635D01*
X312348Y348559D01*
X312435Y348478D01*
X312470Y348458D01*
X312501Y348433D01*
X312609Y348382D01*
X312713Y348324D01*
X312753Y348314D01*
X312789Y348297D01*
X312906Y348275D01*
X313021Y348245D01*
X313081Y348241D01*
X313101Y348237D01*
X313122Y348239D01*
X313182Y348235D01*
X374712Y348235D01*
X374810Y348247D01*
X374909Y348250D01*
X374967Y348267D01*
X375028Y348275D01*
X375120Y348311D01*
X375215Y348339D01*
X375267Y348369D01*
X375323Y348392D01*
X375403Y348450D01*
X375489Y348500D01*
X375564Y348566D01*
X375581Y348578D01*
X375588Y348588D01*
X375610Y348606D01*
X376555Y349552D01*
X379439Y350747D01*
X382561Y350747D01*
X385445Y349552D01*
X387652Y347345D01*
X388847Y344461D01*
X388847Y341339D01*
X387652Y338455D01*
X385445Y336248D01*
X382561Y335053D01*
X379439Y335053D01*
X376555Y336248D01*
X375610Y337194D01*
X375531Y337254D01*
X375459Y337322D01*
X375406Y337351D01*
X375358Y337388D01*
X375267Y337428D01*
X375181Y337476D01*
X375122Y337491D01*
X375066Y337515D01*
X374968Y337530D01*
X374873Y337555D01*
X374773Y337561D01*
X374752Y337565D01*
X374740Y337563D01*
X374712Y337565D01*
X313182Y337565D01*
X313064Y337550D01*
X312945Y337543D01*
X312907Y337530D01*
X312866Y337525D01*
X312756Y337482D01*
X312643Y337445D01*
X312608Y337423D01*
X312571Y337408D01*
X312475Y337339D01*
X312374Y337275D01*
X312346Y337245D01*
X312313Y337222D01*
X312237Y337130D01*
X312156Y337043D01*
X312136Y337008D01*
X312111Y336977D01*
X312060Y336869D01*
X312002Y336765D01*
X311992Y336725D01*
X311975Y336689D01*
X311953Y336572D01*
X311923Y336457D01*
X311919Y336397D01*
X311915Y336377D01*
X311917Y336356D01*
X311913Y336296D01*
X311913Y315456D01*
X311925Y315358D01*
X311928Y315259D01*
X311945Y315201D01*
X311953Y315141D01*
X311989Y315049D01*
X312017Y314953D01*
X312047Y314901D01*
X312070Y314845D01*
X312128Y314765D01*
X312178Y314679D01*
X312244Y314604D01*
X312256Y314588D01*
X312266Y314580D01*
X312284Y314559D01*
X315137Y311707D01*
X316327Y308832D01*
X316396Y308711D01*
X316461Y308588D01*
X316475Y308573D01*
X316485Y308555D01*
X316582Y308456D01*
X316675Y308353D01*
X316692Y308341D01*
X316706Y308327D01*
X316825Y308254D01*
X316941Y308178D01*
X316960Y308171D01*
X316977Y308161D01*
X317110Y308120D01*
X317242Y308075D01*
X317262Y308073D01*
X317281Y308067D01*
X317420Y308060D01*
X317559Y308049D01*
X317579Y308053D01*
X317599Y308052D01*
X317735Y308080D01*
X317872Y308104D01*
X317891Y308112D01*
X317910Y308116D01*
X318036Y308178D01*
X318162Y308234D01*
X318178Y308247D01*
X318196Y308256D01*
X318302Y308346D01*
X318410Y308433D01*
X318423Y308449D01*
X318438Y308462D01*
X318518Y308576D01*
X318602Y308687D01*
X318614Y308712D01*
X318621Y308722D01*
X318628Y308742D01*
X318673Y308832D01*
X319863Y311707D01*
X323293Y315137D01*
X327775Y316993D01*
X332625Y316993D01*
X337107Y315137D01*
X340537Y311707D01*
X342393Y307225D01*
X342393Y302375D01*
X340537Y297893D01*
X337107Y294463D01*
X334232Y293273D01*
X334111Y293204D01*
X333988Y293139D01*
X333973Y293125D01*
X333955Y293115D01*
X333856Y293018D01*
X333753Y292925D01*
X333741Y292908D01*
X333727Y292894D01*
X333654Y292775D01*
X333578Y292659D01*
X333571Y292640D01*
X333561Y292623D01*
X333520Y292490D01*
X333475Y292358D01*
X333473Y292338D01*
X333467Y292319D01*
X333460Y292180D01*
X333449Y292041D01*
X333453Y292021D01*
X333452Y292001D01*
X333480Y291865D01*
X333504Y291728D01*
X333512Y291709D01*
X333516Y291690D01*
X333578Y291564D01*
X333634Y291438D01*
X333647Y291422D01*
X333656Y291404D01*
X333746Y291298D01*
X333833Y291190D01*
X333849Y291177D01*
X333862Y291162D01*
X333976Y291082D01*
X334087Y290998D01*
X334112Y290986D01*
X334122Y290979D01*
X334142Y290972D01*
X334232Y290927D01*
X337107Y289737D01*
X340537Y286307D01*
X341727Y283432D01*
X341796Y283311D01*
X341861Y283188D01*
X341875Y283173D01*
X341885Y283155D01*
X341982Y283055D01*
X342075Y282953D01*
X342092Y282941D01*
X342106Y282927D01*
X342224Y282854D01*
X342341Y282778D01*
X342360Y282771D01*
X342377Y282761D01*
X342510Y282720D01*
X342642Y282675D01*
X342662Y282673D01*
X342681Y282667D01*
X342820Y282660D01*
X342959Y282649D01*
X342979Y282653D01*
X342999Y282652D01*
X343135Y282680D01*
X343272Y282704D01*
X343290Y282712D01*
X343310Y282716D01*
X343436Y282778D01*
X343562Y282834D01*
X343578Y282847D01*
X343596Y282856D01*
X343702Y282947D01*
X343810Y283033D01*
X343823Y283049D01*
X343838Y283062D01*
X343918Y283176D01*
X344002Y283287D01*
X344014Y283312D01*
X344021Y283322D01*
X344028Y283342D01*
X344073Y283432D01*
X345263Y286307D01*
X348693Y289737D01*
X353175Y291593D01*
X358025Y291593D01*
X358814Y291266D01*
X358842Y291258D01*
X358868Y291245D01*
X358995Y291217D01*
X359120Y291182D01*
X359150Y291182D01*
X359179Y291175D01*
X359309Y291179D01*
X359438Y291177D01*
X359467Y291184D01*
X359497Y291185D01*
X359621Y291221D01*
X359748Y291251D01*
X359774Y291265D01*
X359802Y291273D01*
X359914Y291339D01*
X360029Y291400D01*
X360051Y291420D01*
X360076Y291435D01*
X360197Y291541D01*
X361925Y293270D01*
X361999Y293364D01*
X362078Y293454D01*
X362096Y293489D01*
X362120Y293521D01*
X362168Y293631D01*
X362222Y293737D01*
X362231Y293776D01*
X362247Y293813D01*
X362265Y293931D01*
X362292Y294047D01*
X362290Y294087D01*
X362297Y294127D01*
X362285Y294246D01*
X362282Y294365D01*
X362271Y294404D01*
X362267Y294444D01*
X362226Y294556D01*
X362193Y294671D01*
X362173Y294705D01*
X362159Y294743D01*
X362092Y294842D01*
X362031Y294945D01*
X362003Y294973D01*
X361981Y295006D01*
X361891Y295085D01*
X361807Y295170D01*
X361772Y295190D01*
X361742Y295217D01*
X361636Y295271D01*
X361533Y295332D01*
X361495Y295343D01*
X361459Y295361D01*
X361342Y295387D01*
X361228Y295421D01*
X361188Y295422D01*
X361149Y295431D01*
X361029Y295427D01*
X360910Y295431D01*
X360871Y295422D01*
X360831Y295421D01*
X360716Y295388D01*
X360599Y295362D01*
X360545Y295338D01*
X360525Y295333D01*
X360508Y295322D01*
X360452Y295298D01*
X359695Y294913D01*
X358098Y294394D01*
X357849Y294355D01*
X357849Y302551D01*
X366045Y302551D01*
X366006Y302302D01*
X365487Y300705D01*
X364725Y299208D01*
X364444Y298822D01*
X364382Y298709D01*
X364314Y298599D01*
X364306Y298570D01*
X364291Y298544D01*
X364259Y298418D01*
X364221Y298295D01*
X364219Y298265D01*
X364212Y298236D01*
X364212Y298106D01*
X364206Y297977D01*
X364212Y297948D01*
X364212Y297918D01*
X364244Y297792D01*
X364270Y297666D01*
X364283Y297639D01*
X364291Y297610D01*
X364353Y297496D01*
X364410Y297380D01*
X364429Y297357D01*
X364444Y297331D01*
X364533Y297236D01*
X364616Y297138D01*
X364641Y297121D01*
X364661Y297099D01*
X364771Y297029D01*
X364876Y296955D01*
X364904Y296944D01*
X364930Y296928D01*
X365053Y296888D01*
X365174Y296842D01*
X365203Y296839D01*
X365232Y296830D01*
X365361Y296822D01*
X365490Y296807D01*
X365520Y296811D01*
X365550Y296810D01*
X365676Y296834D01*
X365804Y296852D01*
X365845Y296866D01*
X365862Y296869D01*
X365882Y296878D01*
X365957Y296904D01*
X367239Y297435D01*
X496361Y297435D01*
X498322Y296623D01*
X508523Y286422D01*
X509335Y284461D01*
X509335Y271234D01*
X509350Y271116D01*
X509357Y270997D01*
X509370Y270959D01*
X509375Y270918D01*
X509418Y270808D01*
X509455Y270695D01*
X509477Y270660D01*
X509492Y270623D01*
X509561Y270527D01*
X509625Y270426D01*
X509655Y270398D01*
X509678Y270365D01*
X509770Y270289D01*
X509857Y270208D01*
X509892Y270188D01*
X509923Y270163D01*
X510031Y270112D01*
X510135Y270054D01*
X510175Y270044D01*
X510211Y270027D01*
X510328Y270005D01*
X510443Y269975D01*
X510503Y269971D01*
X510523Y269967D01*
X510544Y269969D01*
X510604Y269965D01*
X540684Y269965D01*
X543065Y267584D01*
X543065Y252234D01*
X543080Y252116D01*
X543087Y251997D01*
X543100Y251959D01*
X543105Y251918D01*
X543148Y251808D01*
X543185Y251695D01*
X543207Y251660D01*
X543222Y251623D01*
X543291Y251527D01*
X543355Y251426D01*
X543385Y251398D01*
X543408Y251365D01*
X543500Y251289D01*
X543587Y251208D01*
X543622Y251188D01*
X543653Y251163D01*
X543761Y251112D01*
X543865Y251054D01*
X543905Y251044D01*
X543941Y251027D01*
X544058Y251005D01*
X544173Y250975D01*
X544233Y250971D01*
X544253Y250967D01*
X544274Y250969D01*
X544334Y250965D01*
X559684Y250965D01*
X562065Y248584D01*
X562065Y242504D01*
X562080Y242386D01*
X562087Y242267D01*
X562100Y242229D01*
X562105Y242188D01*
X562148Y242078D01*
X562185Y241965D01*
X562207Y241930D01*
X562222Y241893D01*
X562291Y241797D01*
X562355Y241696D01*
X562385Y241668D01*
X562408Y241635D01*
X562500Y241559D01*
X562587Y241478D01*
X562622Y241458D01*
X562653Y241433D01*
X562761Y241382D01*
X562865Y241324D01*
X562905Y241314D01*
X562941Y241297D01*
X563058Y241275D01*
X563173Y241245D01*
X563233Y241241D01*
X563253Y241237D01*
X563274Y241239D01*
X563334Y241235D01*
X575084Y241235D01*
X575202Y241250D01*
X575321Y241257D01*
X575359Y241270D01*
X575400Y241275D01*
X575510Y241318D01*
X575623Y241355D01*
X575658Y241377D01*
X575695Y241392D01*
X575791Y241461D01*
X575892Y241525D01*
X575920Y241555D01*
X575953Y241578D01*
X576029Y241670D01*
X576110Y241757D01*
X576130Y241792D01*
X576155Y241823D01*
X576206Y241931D01*
X576264Y242035D01*
X576274Y242075D01*
X576291Y242111D01*
X576313Y242228D01*
X576343Y242343D01*
X576347Y242403D01*
X576351Y242423D01*
X576349Y242444D01*
X576353Y242504D01*
X576353Y242861D01*
X577548Y245745D01*
X579755Y247952D01*
X582639Y249147D01*
X585761Y249147D01*
X588645Y247952D01*
X590852Y245745D01*
X592047Y242861D01*
X592047Y239739D01*
X590852Y236855D01*
X588645Y234648D01*
X585761Y233453D01*
X584423Y233453D01*
X584325Y233441D01*
X584226Y233438D01*
X584168Y233421D01*
X584108Y233413D01*
X584016Y233377D01*
X583921Y233349D01*
X583869Y233319D01*
X583812Y233296D01*
X583732Y233238D01*
X583647Y233188D01*
X583571Y233122D01*
X583555Y233110D01*
X583547Y233100D01*
X583526Y233082D01*
X581822Y231377D01*
X579861Y230565D01*
X563334Y230565D01*
X563216Y230550D01*
X563097Y230543D01*
X563059Y230530D01*
X563018Y230525D01*
X562908Y230482D01*
X562795Y230445D01*
X562760Y230423D01*
X562723Y230408D01*
X562627Y230339D01*
X562526Y230275D01*
X562498Y230245D01*
X562465Y230222D01*
X562389Y230130D01*
X562308Y230043D01*
X562288Y230008D01*
X562263Y229977D01*
X562212Y229869D01*
X562154Y229765D01*
X562144Y229725D01*
X562127Y229689D01*
X562105Y229572D01*
X562075Y229457D01*
X562071Y229397D01*
X562067Y229377D01*
X562069Y229356D01*
X562065Y229296D01*
X562065Y223216D01*
X560912Y222064D01*
X560852Y221986D01*
X560784Y221914D01*
X560755Y221861D01*
X560718Y221813D01*
X560678Y221722D01*
X560630Y221635D01*
X560615Y221577D01*
X560591Y221521D01*
X560576Y221423D01*
X560565Y221381D01*
X560518Y221367D01*
X560458Y221359D01*
X560366Y221323D01*
X560271Y221295D01*
X560219Y221265D01*
X560162Y221242D01*
X560082Y221184D01*
X559997Y221134D01*
X559921Y221068D01*
X559905Y221056D01*
X559897Y221046D01*
X559876Y221028D01*
X559646Y220797D01*
X559573Y220703D01*
X559494Y220614D01*
X559476Y220578D01*
X559451Y220546D01*
X559404Y220437D01*
X559350Y220331D01*
X559341Y220291D01*
X559325Y220254D01*
X559306Y220136D01*
X559280Y220021D01*
X559281Y219980D01*
X559275Y219940D01*
X559286Y219821D01*
X559290Y219703D01*
X559301Y219664D01*
X559305Y219624D01*
X559345Y219511D01*
X559378Y219397D01*
X559398Y219362D01*
X559412Y219324D01*
X559479Y219226D01*
X559540Y219123D01*
X559579Y219078D01*
X559591Y219061D01*
X559606Y219048D01*
X559646Y219002D01*
X559876Y218772D01*
X559954Y218712D01*
X560026Y218644D01*
X560079Y218615D01*
X560127Y218577D01*
X560218Y218538D01*
X560305Y218490D01*
X560363Y218475D01*
X560419Y218451D01*
X560517Y218436D01*
X560559Y218425D01*
X560573Y218378D01*
X560581Y218318D01*
X560617Y218226D01*
X560645Y218131D01*
X560675Y218079D01*
X560698Y218022D01*
X560756Y217942D01*
X560806Y217857D01*
X560872Y217781D01*
X560884Y217765D01*
X560894Y217757D01*
X560912Y217736D01*
X562065Y216584D01*
X562065Y183216D01*
X559684Y180835D01*
X544334Y180835D01*
X544216Y180820D01*
X544097Y180813D01*
X544059Y180800D01*
X544018Y180795D01*
X543908Y180752D01*
X543795Y180715D01*
X543760Y180693D01*
X543723Y180678D01*
X543627Y180609D01*
X543526Y180545D01*
X543498Y180515D01*
X543465Y180492D01*
X543389Y180400D01*
X543308Y180313D01*
X543288Y180278D01*
X543263Y180247D01*
X543212Y180139D01*
X543154Y180035D01*
X543144Y179995D01*
X543127Y179959D01*
X543105Y179842D01*
X543075Y179727D01*
X543071Y179667D01*
X543067Y179647D01*
X543069Y179626D01*
X543065Y179566D01*
X543065Y164216D01*
X541706Y162858D01*
X541646Y162780D01*
X541578Y162708D01*
X541549Y162655D01*
X541512Y162607D01*
X541472Y162516D01*
X541424Y162429D01*
X541409Y162371D01*
X541385Y162315D01*
X541370Y162217D01*
X541345Y162121D01*
X541339Y162021D01*
X541335Y162001D01*
X541337Y161989D01*
X541335Y161961D01*
X541335Y161085D01*
X541338Y161056D01*
X541336Y161026D01*
X541358Y160898D01*
X541375Y160769D01*
X541385Y160742D01*
X541390Y160713D01*
X541444Y160594D01*
X541492Y160474D01*
X541509Y160450D01*
X541521Y160423D01*
X541602Y160321D01*
X541678Y160216D01*
X541701Y160198D01*
X541720Y160174D01*
X541823Y160096D01*
X541923Y160014D01*
X541950Y160001D01*
X541974Y159983D01*
X542118Y159912D01*
X544195Y159052D01*
X546402Y156845D01*
X547597Y153961D01*
X547597Y150839D01*
X546402Y147955D01*
X544195Y145748D01*
X541311Y144553D01*
X538189Y144553D01*
X535305Y145748D01*
X535199Y145854D01*
X535160Y145884D01*
X535126Y145921D01*
X535035Y145981D01*
X534948Y146049D01*
X534902Y146069D01*
X534861Y146096D01*
X534757Y146132D01*
X534656Y146175D01*
X534607Y146183D01*
X534560Y146199D01*
X534450Y146208D01*
X534342Y146225D01*
X534292Y146220D01*
X534243Y146224D01*
X534135Y146206D01*
X534025Y146195D01*
X533979Y146178D01*
X533930Y146170D01*
X533829Y146125D01*
X533726Y146088D01*
X533685Y146060D01*
X533640Y146039D01*
X533554Y145971D01*
X533463Y145909D01*
X533430Y145872D01*
X533391Y145841D01*
X533325Y145753D01*
X533252Y145671D01*
X533230Y145626D01*
X533200Y145587D01*
X533129Y145442D01*
X532523Y143978D01*
X528918Y140374D01*
X528858Y140296D01*
X528790Y140224D01*
X528761Y140171D01*
X528724Y140123D01*
X528684Y140032D01*
X528636Y139945D01*
X528621Y139887D01*
X528597Y139831D01*
X528582Y139733D01*
X528557Y139637D01*
X528551Y139537D01*
X528547Y139517D01*
X528549Y139505D01*
X528547Y139477D01*
X528547Y138139D01*
X527352Y135255D01*
X525145Y133048D01*
X522261Y131853D01*
X519139Y131853D01*
X516255Y133048D01*
X514048Y135255D01*
X513047Y137671D01*
X513023Y137714D01*
X513006Y137761D01*
X512944Y137852D01*
X512890Y137947D01*
X512855Y137983D01*
X512827Y138024D01*
X512745Y138097D01*
X512668Y138175D01*
X512626Y138201D01*
X512589Y138234D01*
X512491Y138284D01*
X512397Y138342D01*
X512350Y138356D01*
X512306Y138379D01*
X512198Y138403D01*
X512093Y138435D01*
X512044Y138438D01*
X511995Y138449D01*
X511886Y138445D01*
X511776Y138451D01*
X511727Y138440D01*
X511677Y138439D01*
X511572Y138408D01*
X511464Y138386D01*
X511420Y138364D01*
X511372Y138351D01*
X511278Y138295D01*
X511179Y138246D01*
X511141Y138214D01*
X511098Y138189D01*
X510977Y138083D01*
X507130Y134236D01*
X507070Y134158D01*
X507002Y134086D01*
X506973Y134033D01*
X506936Y133985D01*
X506896Y133894D01*
X506848Y133807D01*
X506833Y133748D01*
X506809Y133693D01*
X506794Y133595D01*
X506769Y133499D01*
X506763Y133399D01*
X506759Y133379D01*
X506761Y133366D01*
X506759Y133338D01*
X506759Y113542D01*
X506771Y113444D01*
X506774Y113344D01*
X506791Y113286D01*
X506799Y113226D01*
X506835Y113134D01*
X506863Y113039D01*
X506893Y112987D01*
X506916Y112930D01*
X506974Y112850D01*
X507024Y112765D01*
X507090Y112690D01*
X507102Y112673D01*
X507112Y112665D01*
X507130Y112644D01*
X513335Y106440D01*
X513335Y96760D01*
X506490Y89915D01*
X496810Y89915D01*
X489965Y96760D01*
X489965Y106440D01*
X495718Y112192D01*
X495778Y112270D01*
X495846Y112343D01*
X495875Y112396D01*
X495912Y112443D01*
X495952Y112534D01*
X496000Y112621D01*
X496015Y112680D01*
X496039Y112735D01*
X496054Y112833D01*
X496079Y112929D01*
X496085Y113029D01*
X496089Y113049D01*
X496087Y113062D01*
X496089Y113090D01*
X496089Y132678D01*
X496072Y132816D01*
X496059Y132954D01*
X496052Y132973D01*
X496049Y132994D01*
X495998Y133123D01*
X495951Y133254D01*
X495940Y133270D01*
X495932Y133289D01*
X495851Y133402D01*
X495773Y133517D01*
X495757Y133530D01*
X495746Y133547D01*
X495638Y133635D01*
X495534Y133727D01*
X495516Y133737D01*
X495501Y133749D01*
X495375Y133809D01*
X495251Y133872D01*
X495231Y133876D01*
X495213Y133885D01*
X495076Y133911D01*
X494941Y133942D01*
X494920Y133941D01*
X494901Y133945D01*
X494762Y133936D01*
X494623Y133932D01*
X494603Y133926D01*
X494583Y133925D01*
X494451Y133882D01*
X494317Y133844D01*
X494300Y133833D01*
X494281Y133827D01*
X494163Y133753D01*
X494043Y133682D01*
X494022Y133663D01*
X494012Y133657D01*
X493998Y133642D01*
X493923Y133576D01*
X493395Y133048D01*
X490511Y131853D01*
X487389Y131853D01*
X487090Y131977D01*
X487042Y131990D01*
X486997Y132012D01*
X486889Y132032D01*
X486783Y132061D01*
X486733Y132062D01*
X486684Y132071D01*
X486575Y132065D01*
X486465Y132066D01*
X486417Y132055D01*
X486367Y132052D01*
X486263Y132018D01*
X486156Y131992D01*
X486112Y131969D01*
X486065Y131954D01*
X485972Y131895D01*
X485875Y131843D01*
X485838Y131810D01*
X485796Y131783D01*
X485721Y131703D01*
X485639Y131630D01*
X485612Y131588D01*
X485578Y131552D01*
X485525Y131456D01*
X485465Y131364D01*
X485448Y131317D01*
X485424Y131273D01*
X485397Y131167D01*
X485361Y131063D01*
X485357Y131013D01*
X485345Y130965D01*
X485335Y130805D01*
X485335Y87885D01*
X485347Y87787D01*
X485350Y87688D01*
X485367Y87630D01*
X485375Y87570D01*
X485411Y87478D01*
X485439Y87383D01*
X485469Y87331D01*
X485492Y87274D01*
X485550Y87194D01*
X485600Y87109D01*
X485666Y87033D01*
X485678Y87017D01*
X485688Y87009D01*
X485706Y86988D01*
X490788Y81906D01*
X490866Y81846D01*
X490938Y81778D01*
X490991Y81749D01*
X491039Y81712D01*
X491130Y81672D01*
X491217Y81624D01*
X491275Y81609D01*
X491331Y81585D01*
X491429Y81570D01*
X491525Y81545D01*
X491625Y81539D01*
X491645Y81535D01*
X491657Y81537D01*
X491685Y81535D01*
X537015Y81535D01*
X537113Y81547D01*
X537212Y81550D01*
X537270Y81567D01*
X537330Y81575D01*
X537422Y81611D01*
X537517Y81639D01*
X537569Y81669D01*
X537626Y81692D01*
X537706Y81750D01*
X537791Y81800D01*
X537867Y81866D01*
X537883Y81878D01*
X537891Y81888D01*
X537912Y81906D01*
X584844Y128838D01*
X584904Y128916D01*
X584972Y128988D01*
X585001Y129041D01*
X585038Y129089D01*
X585078Y129180D01*
X585126Y129267D01*
X585141Y129325D01*
X585165Y129381D01*
X585180Y129479D01*
X585205Y129575D01*
X585211Y129675D01*
X585215Y129695D01*
X585213Y129707D01*
X585215Y129735D01*
X585215Y223311D01*
X586027Y225272D01*
X620432Y259676D01*
X620492Y259754D01*
X620560Y259826D01*
X620589Y259879D01*
X620626Y259927D01*
X620666Y260018D01*
X620714Y260105D01*
X620729Y260163D01*
X620753Y260219D01*
X620768Y260317D01*
X620793Y260413D01*
X620799Y260513D01*
X620803Y260533D01*
X620801Y260545D01*
X620803Y260573D01*
X620803Y261911D01*
X621998Y264795D01*
X624205Y267002D01*
X627089Y268197D01*
X630211Y268197D01*
X633095Y267002D01*
X635302Y264795D01*
X636497Y261911D01*
X636497Y258789D01*
X635302Y255905D01*
X633095Y253698D01*
X630211Y252503D01*
X628873Y252503D01*
X628775Y252491D01*
X628676Y252488D01*
X628618Y252471D01*
X628558Y252463D01*
X628466Y252427D01*
X628371Y252399D01*
X628319Y252369D01*
X628262Y252346D01*
X628182Y252288D01*
X628097Y252238D01*
X628021Y252172D01*
X628005Y252160D01*
X627997Y252150D01*
X627976Y252132D01*
X596256Y220412D01*
X596196Y220334D01*
X596128Y220262D01*
X596099Y220209D01*
X596062Y220161D01*
X596022Y220070D01*
X595974Y219983D01*
X595959Y219925D01*
X595935Y219869D01*
X595920Y219771D01*
X595895Y219675D01*
X595889Y219575D01*
X595885Y219555D01*
X595887Y219543D01*
X595885Y219515D01*
X595885Y216346D01*
X595902Y216208D01*
X595915Y216070D01*
X595922Y216051D01*
X595925Y216030D01*
X595976Y215901D01*
X596023Y215770D01*
X596034Y215753D01*
X596042Y215735D01*
X596123Y215622D01*
X596201Y215507D01*
X596217Y215494D01*
X596228Y215477D01*
X596336Y215389D01*
X596440Y215297D01*
X596458Y215287D01*
X596473Y215275D01*
X596599Y215215D01*
X596723Y215152D01*
X596743Y215148D01*
X596761Y215139D01*
X596898Y215113D01*
X597033Y215082D01*
X597054Y215083D01*
X597073Y215079D01*
X597212Y215088D01*
X597351Y215092D01*
X597371Y215098D01*
X597391Y215099D01*
X597523Y215142D01*
X597657Y215180D01*
X597674Y215191D01*
X597693Y215197D01*
X597811Y215271D01*
X597931Y215342D01*
X597952Y215361D01*
X597962Y215367D01*
X597976Y215382D01*
X598051Y215448D01*
X598805Y216202D01*
X601689Y217397D01*
X603027Y217397D01*
X603125Y217409D01*
X603224Y217412D01*
X603282Y217429D01*
X603342Y217437D01*
X603434Y217473D01*
X603529Y217501D01*
X603581Y217531D01*
X603638Y217554D01*
X603718Y217612D01*
X603803Y217662D01*
X603879Y217728D01*
X603895Y217740D01*
X603903Y217750D01*
X603924Y217768D01*
X626782Y240626D01*
X626842Y240704D01*
X626910Y240776D01*
X626939Y240829D01*
X626976Y240877D01*
X627016Y240968D01*
X627064Y241055D01*
X627079Y241113D01*
X627103Y241169D01*
X627118Y241267D01*
X627143Y241363D01*
X627149Y241463D01*
X627153Y241483D01*
X627151Y241495D01*
X627153Y241523D01*
X627153Y242861D01*
X628348Y245745D01*
X630555Y247952D01*
X633439Y249147D01*
X636561Y249147D01*
X639445Y247952D01*
X641652Y245745D01*
X642847Y242861D01*
X642847Y239739D01*
X641652Y236855D01*
X639445Y234648D01*
X636561Y233453D01*
X635223Y233453D01*
X635125Y233441D01*
X635026Y233438D01*
X634968Y233421D01*
X634908Y233413D01*
X634816Y233377D01*
X634721Y233349D01*
X634669Y233319D01*
X634612Y233296D01*
X634532Y233238D01*
X634447Y233188D01*
X634371Y233122D01*
X634355Y233110D01*
X634347Y233100D01*
X634326Y233082D01*
X611468Y210224D01*
X611408Y210146D01*
X611340Y210074D01*
X611311Y210021D01*
X611274Y209973D01*
X611234Y209882D01*
X611186Y209795D01*
X611171Y209737D01*
X611147Y209681D01*
X611132Y209583D01*
X611107Y209487D01*
X611101Y209387D01*
X611097Y209367D01*
X611099Y209354D01*
X611097Y209327D01*
X611097Y207989D01*
X609902Y205105D01*
X607695Y202898D01*
X604811Y201703D01*
X601689Y201703D01*
X598805Y202898D01*
X598051Y203652D01*
X597942Y203737D01*
X597835Y203825D01*
X597816Y203834D01*
X597800Y203846D01*
X597672Y203902D01*
X597547Y203961D01*
X597527Y203965D01*
X597508Y203973D01*
X597370Y203995D01*
X597234Y204021D01*
X597214Y204020D01*
X597194Y204023D01*
X597055Y204010D01*
X596917Y204001D01*
X596898Y203995D01*
X596878Y203993D01*
X596746Y203946D01*
X596615Y203903D01*
X596597Y203892D01*
X596578Y203885D01*
X596463Y203807D01*
X596346Y203733D01*
X596332Y203718D01*
X596315Y203707D01*
X596223Y203603D01*
X596128Y203501D01*
X596118Y203483D01*
X596105Y203468D01*
X596042Y203345D01*
X595974Y203223D01*
X595969Y203203D01*
X595960Y203185D01*
X595930Y203049D01*
X595895Y202915D01*
X595893Y202887D01*
X595890Y202875D01*
X595891Y202854D01*
X595885Y202754D01*
X595885Y125939D01*
X595073Y123978D01*
X542772Y71677D01*
X540811Y70865D01*
X487889Y70865D01*
X485928Y71677D01*
X475477Y82128D01*
X474665Y84089D01*
X474665Y101466D01*
X474650Y101584D01*
X474643Y101703D01*
X474630Y101741D01*
X474625Y101782D01*
X474582Y101892D01*
X474545Y102005D01*
X474523Y102040D01*
X474508Y102077D01*
X474439Y102173D01*
X474375Y102274D01*
X474345Y102302D01*
X474322Y102335D01*
X474230Y102411D01*
X474143Y102492D01*
X474108Y102512D01*
X474077Y102537D01*
X473969Y102588D01*
X473865Y102646D01*
X473825Y102656D01*
X473789Y102673D01*
X473672Y102695D01*
X473557Y102725D01*
X473497Y102729D01*
X473477Y102733D01*
X473456Y102731D01*
X473396Y102735D01*
X473304Y102735D01*
X473186Y102720D01*
X473067Y102713D01*
X473029Y102700D01*
X472988Y102695D01*
X472878Y102652D01*
X472765Y102615D01*
X472730Y102593D01*
X472693Y102578D01*
X472597Y102509D01*
X472496Y102445D01*
X472468Y102415D01*
X472435Y102392D01*
X472359Y102300D01*
X472278Y102213D01*
X472258Y102178D01*
X472233Y102147D01*
X472182Y102039D01*
X472124Y101935D01*
X472114Y101895D01*
X472097Y101859D01*
X472075Y101742D01*
X472045Y101627D01*
X472041Y101567D01*
X472037Y101547D01*
X472039Y101526D01*
X472035Y101466D01*
X472035Y73209D01*
X471223Y71248D01*
X469543Y69569D01*
X454205Y54230D01*
X454187Y54207D01*
X454164Y54188D01*
X454090Y54082D01*
X454010Y53979D01*
X453998Y53952D01*
X453981Y53928D01*
X453935Y53807D01*
X453884Y53687D01*
X453879Y53658D01*
X453869Y53631D01*
X453854Y53502D01*
X453834Y53373D01*
X453837Y53344D01*
X453833Y53314D01*
X453851Y53186D01*
X453864Y53057D01*
X453874Y53029D01*
X453878Y53000D01*
X453899Y52938D01*
X453899Y48678D01*
X452275Y44757D01*
X449273Y41755D01*
X445352Y40131D01*
X441108Y40131D01*
X437187Y41755D01*
X434185Y44757D01*
X432561Y48678D01*
X432561Y52922D01*
X434185Y56843D01*
X437187Y59845D01*
X441108Y61469D01*
X445376Y61469D01*
X445459Y61450D01*
X445584Y61416D01*
X445614Y61415D01*
X445642Y61409D01*
X445772Y61413D01*
X445902Y61411D01*
X445931Y61418D01*
X445960Y61419D01*
X446085Y61455D01*
X446211Y61485D01*
X446237Y61499D01*
X446266Y61507D01*
X446377Y61573D01*
X446492Y61634D01*
X446514Y61654D01*
X446540Y61669D01*
X446660Y61775D01*
X460994Y76108D01*
X461054Y76186D01*
X461122Y76258D01*
X461151Y76311D01*
X461188Y76359D01*
X461228Y76450D01*
X461276Y76537D01*
X461291Y76595D01*
X461315Y76651D01*
X461330Y76749D01*
X461355Y76845D01*
X461361Y76945D01*
X461365Y76965D01*
X461363Y76977D01*
X461365Y77005D01*
X461365Y101466D01*
X461350Y101584D01*
X461343Y101703D01*
X461330Y101741D01*
X461325Y101782D01*
X461282Y101892D01*
X461245Y102005D01*
X461223Y102040D01*
X461208Y102077D01*
X461139Y102173D01*
X461075Y102274D01*
X461045Y102302D01*
X461022Y102335D01*
X460930Y102411D01*
X460843Y102492D01*
X460808Y102512D01*
X460777Y102537D01*
X460669Y102588D01*
X460565Y102646D01*
X460525Y102656D01*
X460489Y102673D01*
X460372Y102695D01*
X460257Y102725D01*
X460197Y102729D01*
X460177Y102733D01*
X460156Y102731D01*
X460096Y102735D01*
X458516Y102735D01*
X456908Y104343D01*
X456819Y104412D01*
X456736Y104488D01*
X456694Y104509D01*
X456657Y104538D01*
X456554Y104583D01*
X456454Y104635D01*
X456408Y104646D01*
X456365Y104665D01*
X456254Y104682D01*
X456145Y104708D01*
X456098Y104707D01*
X456051Y104715D01*
X455939Y104704D01*
X455827Y104702D01*
X455781Y104689D01*
X455734Y104685D01*
X455628Y104647D01*
X455520Y104617D01*
X455455Y104585D01*
X455435Y104577D01*
X455420Y104567D01*
X455376Y104545D01*
X455181Y104432D01*
X454534Y104259D01*
X450239Y104259D01*
X450239Y113030D01*
X450224Y113148D01*
X450217Y113267D01*
X450204Y113305D01*
X450199Y113345D01*
X450155Y113456D01*
X450119Y113569D01*
X450097Y113604D01*
X450082Y113641D01*
X450012Y113737D01*
X449949Y113838D01*
X449919Y113866D01*
X449895Y113898D01*
X449804Y113974D01*
X449717Y114056D01*
X449682Y114075D01*
X449650Y114101D01*
X449543Y114152D01*
X449439Y114209D01*
X449399Y114220D01*
X449363Y114237D01*
X449246Y114259D01*
X449131Y114289D01*
X449070Y114293D01*
X449050Y114297D01*
X449030Y114295D01*
X448970Y114299D01*
X447699Y114299D01*
X447699Y114301D01*
X448970Y114301D01*
X449088Y114316D01*
X449207Y114323D01*
X449245Y114336D01*
X449285Y114341D01*
X449396Y114385D01*
X449509Y114421D01*
X449544Y114443D01*
X449581Y114458D01*
X449677Y114528D01*
X449778Y114591D01*
X449806Y114621D01*
X449838Y114645D01*
X449914Y114736D01*
X449996Y114823D01*
X450015Y114858D01*
X450041Y114890D01*
X450092Y114997D01*
X450149Y115101D01*
X450160Y115141D01*
X450177Y115177D01*
X450199Y115294D01*
X450229Y115409D01*
X450233Y115470D01*
X450237Y115490D01*
X450235Y115510D01*
X450239Y115570D01*
X450239Y124341D01*
X454534Y124341D01*
X455181Y124168D01*
X455376Y124055D01*
X455480Y124011D01*
X455580Y123960D01*
X455626Y123950D01*
X455669Y123932D01*
X455780Y123915D01*
X455890Y123891D01*
X455937Y123892D01*
X455984Y123885D01*
X456095Y123897D01*
X456208Y123900D01*
X456253Y123913D01*
X456300Y123918D01*
X456405Y123957D01*
X456513Y123989D01*
X456554Y124012D01*
X456598Y124029D01*
X456691Y124093D01*
X456787Y124150D01*
X456842Y124198D01*
X456859Y124210D01*
X456871Y124224D01*
X456908Y124257D01*
X458516Y125865D01*
X460096Y125865D01*
X460214Y125880D01*
X460333Y125887D01*
X460371Y125900D01*
X460412Y125905D01*
X460522Y125948D01*
X460635Y125985D01*
X460670Y126007D01*
X460707Y126022D01*
X460803Y126091D01*
X460904Y126155D01*
X460932Y126185D01*
X460965Y126208D01*
X461041Y126300D01*
X461122Y126387D01*
X461142Y126422D01*
X461167Y126453D01*
X461218Y126561D01*
X461276Y126665D01*
X461286Y126705D01*
X461303Y126741D01*
X461325Y126858D01*
X461355Y126973D01*
X461359Y127033D01*
X461363Y127053D01*
X461361Y127074D01*
X461365Y127134D01*
X461365Y140165D01*
X461353Y140263D01*
X461350Y140362D01*
X461333Y140420D01*
X461325Y140480D01*
X461289Y140572D01*
X461261Y140667D01*
X461231Y140719D01*
X461208Y140776D01*
X461150Y140856D01*
X461100Y140941D01*
X461034Y141017D01*
X461022Y141033D01*
X461012Y141041D01*
X460994Y141062D01*
X439977Y162078D01*
X439165Y164039D01*
X439165Y178861D01*
X439977Y180822D01*
X447554Y188399D01*
X447639Y188508D01*
X447728Y188615D01*
X447737Y188634D01*
X447749Y188650D01*
X447804Y188778D01*
X447864Y188903D01*
X447867Y188923D01*
X447875Y188942D01*
X447897Y189080D01*
X447923Y189216D01*
X447922Y189236D01*
X447925Y189256D01*
X447912Y189395D01*
X447904Y189533D01*
X447897Y189552D01*
X447895Y189572D01*
X447848Y189704D01*
X447806Y189835D01*
X447795Y189853D01*
X447788Y189872D01*
X447710Y189987D01*
X447635Y190104D01*
X447621Y190118D01*
X447609Y190135D01*
X447505Y190227D01*
X447404Y190322D01*
X447386Y190332D01*
X447371Y190345D01*
X447247Y190409D01*
X447125Y190476D01*
X447106Y190481D01*
X447088Y190490D01*
X446952Y190520D01*
X446817Y190555D01*
X446789Y190557D01*
X446777Y190560D01*
X446757Y190559D01*
X446657Y190565D01*
X427235Y190565D01*
X427137Y190553D01*
X427038Y190550D01*
X426980Y190533D01*
X426920Y190525D01*
X426828Y190489D01*
X426733Y190461D01*
X426681Y190431D01*
X426624Y190408D01*
X426544Y190350D01*
X426459Y190300D01*
X426383Y190234D01*
X426367Y190222D01*
X426359Y190212D01*
X426338Y190194D01*
X424806Y188662D01*
X424746Y188584D01*
X424678Y188512D01*
X424649Y188459D01*
X424612Y188411D01*
X424572Y188320D01*
X424524Y188233D01*
X424509Y188175D01*
X424485Y188119D01*
X424470Y188021D01*
X424445Y187925D01*
X424439Y187825D01*
X424435Y187805D01*
X424437Y187793D01*
X424435Y187765D01*
X424435Y135439D01*
X423623Y133478D01*
X421943Y131799D01*
X416652Y126507D01*
X416567Y126398D01*
X416478Y126291D01*
X416469Y126272D01*
X416457Y126256D01*
X416402Y126128D01*
X416342Y126003D01*
X416339Y125983D01*
X416331Y125964D01*
X416309Y125826D01*
X416283Y125690D01*
X416284Y125670D01*
X416281Y125650D01*
X416294Y125511D01*
X416302Y125373D01*
X416309Y125354D01*
X416311Y125334D01*
X416358Y125202D01*
X416400Y125071D01*
X416411Y125053D01*
X416418Y125034D01*
X416496Y124919D01*
X416571Y124802D01*
X416585Y124788D01*
X416597Y124771D01*
X416701Y124679D01*
X416802Y124584D01*
X416820Y124574D01*
X416835Y124561D01*
X416959Y124497D01*
X417081Y124430D01*
X417100Y124425D01*
X417118Y124416D01*
X417254Y124386D01*
X417389Y124351D01*
X417417Y124349D01*
X417429Y124346D01*
X417449Y124347D01*
X417549Y124341D01*
X422734Y124341D01*
X423381Y124168D01*
X423960Y123833D01*
X424433Y123360D01*
X424768Y122781D01*
X424941Y122134D01*
X424941Y116839D01*
X417170Y116839D01*
X417052Y116824D01*
X416933Y116817D01*
X416895Y116804D01*
X416855Y116799D01*
X416744Y116755D01*
X416631Y116719D01*
X416596Y116697D01*
X416559Y116682D01*
X416463Y116612D01*
X416362Y116549D01*
X416334Y116519D01*
X416302Y116495D01*
X416226Y116404D01*
X416144Y116317D01*
X416125Y116282D01*
X416099Y116250D01*
X416048Y116143D01*
X415991Y116039D01*
X415980Y115999D01*
X415963Y115963D01*
X415941Y115846D01*
X415911Y115731D01*
X415907Y115670D01*
X415903Y115650D01*
X415905Y115630D01*
X415901Y115570D01*
X415901Y114299D01*
X414630Y114299D01*
X414512Y114284D01*
X414393Y114277D01*
X414355Y114264D01*
X414315Y114259D01*
X414204Y114215D01*
X414091Y114179D01*
X414056Y114157D01*
X414019Y114142D01*
X413923Y114072D01*
X413822Y114009D01*
X413794Y113979D01*
X413761Y113955D01*
X413686Y113864D01*
X413604Y113777D01*
X413584Y113742D01*
X413559Y113710D01*
X413508Y113603D01*
X413450Y113499D01*
X413440Y113459D01*
X413423Y113423D01*
X413401Y113306D01*
X413371Y113191D01*
X413367Y113130D01*
X413363Y113110D01*
X413365Y113090D01*
X413361Y113030D01*
X413361Y104259D01*
X409066Y104259D01*
X408419Y104432D01*
X408224Y104545D01*
X408120Y104589D01*
X408020Y104640D01*
X407974Y104650D01*
X407931Y104668D01*
X407820Y104685D01*
X407710Y104709D01*
X407663Y104708D01*
X407616Y104715D01*
X407505Y104703D01*
X407392Y104700D01*
X407347Y104687D01*
X407300Y104682D01*
X407195Y104643D01*
X407087Y104611D01*
X407046Y104588D01*
X407002Y104571D01*
X406909Y104507D01*
X406813Y104450D01*
X406758Y104402D01*
X406741Y104390D01*
X406729Y104376D01*
X406692Y104343D01*
X405084Y102735D01*
X401574Y102735D01*
X401456Y102720D01*
X401337Y102713D01*
X401299Y102700D01*
X401258Y102695D01*
X401148Y102652D01*
X401035Y102615D01*
X401000Y102593D01*
X400963Y102578D01*
X400867Y102509D01*
X400766Y102445D01*
X400738Y102415D01*
X400705Y102392D01*
X400629Y102300D01*
X400548Y102213D01*
X400528Y102178D01*
X400503Y102147D01*
X400452Y102039D01*
X400394Y101935D01*
X400384Y101895D01*
X400367Y101859D01*
X400345Y101742D01*
X400315Y101627D01*
X400311Y101567D01*
X400307Y101547D01*
X400309Y101526D01*
X400305Y101466D01*
X400305Y60986D01*
X400308Y60957D01*
X400306Y60927D01*
X400328Y60799D01*
X400345Y60671D01*
X400355Y60643D01*
X400360Y60614D01*
X400414Y60496D01*
X400462Y60375D01*
X400479Y60351D01*
X400491Y60324D01*
X400572Y60223D01*
X400648Y60118D01*
X400671Y60099D01*
X400690Y60076D01*
X400793Y59998D01*
X400893Y59915D01*
X400920Y59902D01*
X400944Y59884D01*
X401002Y59856D01*
X404015Y56843D01*
X405639Y52922D01*
X405639Y48678D01*
X404015Y44757D01*
X401013Y41755D01*
X397092Y40131D01*
X392848Y40131D01*
X388927Y41755D01*
X385925Y44757D01*
X384301Y48678D01*
X384301Y52922D01*
X385925Y56843D01*
X388943Y59861D01*
X389015Y59907D01*
X389128Y59971D01*
X389149Y59992D01*
X389174Y60007D01*
X389263Y60102D01*
X389356Y60192D01*
X389372Y60218D01*
X389392Y60239D01*
X389455Y60353D01*
X389523Y60463D01*
X389531Y60492D01*
X389546Y60518D01*
X389578Y60643D01*
X389616Y60767D01*
X389618Y60797D01*
X389625Y60825D01*
X389635Y60986D01*
X389635Y101466D01*
X389620Y101584D01*
X389613Y101703D01*
X389600Y101741D01*
X389595Y101782D01*
X389552Y101892D01*
X389515Y102005D01*
X389493Y102040D01*
X389478Y102077D01*
X389409Y102173D01*
X389345Y102274D01*
X389315Y102302D01*
X389292Y102335D01*
X389200Y102411D01*
X389113Y102492D01*
X389078Y102512D01*
X389047Y102537D01*
X388939Y102588D01*
X388835Y102646D01*
X388796Y102656D01*
X386335Y105116D01*
X386335Y123484D01*
X388716Y125865D01*
X400395Y125865D01*
X400493Y125877D01*
X400592Y125880D01*
X400650Y125897D01*
X400710Y125905D01*
X400802Y125941D01*
X400897Y125969D01*
X400949Y125999D01*
X401006Y126022D01*
X401086Y126080D01*
X401171Y126130D01*
X401247Y126196D01*
X401263Y126208D01*
X401271Y126218D01*
X401292Y126236D01*
X413394Y138338D01*
X413454Y138416D01*
X413522Y138488D01*
X413551Y138541D01*
X413588Y138589D01*
X413628Y138680D01*
X413676Y138767D01*
X413691Y138825D01*
X413715Y138881D01*
X413730Y138979D01*
X413755Y139075D01*
X413761Y139175D01*
X413765Y139195D01*
X413763Y139207D01*
X413765Y139235D01*
X413765Y191561D01*
X414577Y193522D01*
X421478Y200423D01*
X423439Y201235D01*
X452666Y201235D01*
X452784Y201250D01*
X452903Y201257D01*
X452941Y201270D01*
X452982Y201275D01*
X453092Y201318D01*
X453205Y201355D01*
X453240Y201377D01*
X453277Y201392D01*
X453373Y201461D01*
X453474Y201525D01*
X453502Y201555D01*
X453535Y201578D01*
X453611Y201670D01*
X453692Y201757D01*
X453712Y201792D01*
X453737Y201823D01*
X453788Y201931D01*
X453846Y202035D01*
X453856Y202075D01*
X453873Y202111D01*
X453895Y202228D01*
X453925Y202343D01*
X453929Y202403D01*
X453933Y202423D01*
X453931Y202444D01*
X453935Y202504D01*
X453935Y208584D01*
X455088Y209736D01*
X455148Y209814D01*
X455216Y209886D01*
X455245Y209939D01*
X455282Y209987D01*
X455322Y210078D01*
X455370Y210165D01*
X455385Y210223D01*
X455409Y210279D01*
X455424Y210377D01*
X455435Y210419D01*
X455482Y210433D01*
X455542Y210441D01*
X455634Y210477D01*
X455729Y210505D01*
X455781Y210535D01*
X455838Y210558D01*
X455918Y210616D01*
X456003Y210666D01*
X456079Y210732D01*
X456095Y210744D01*
X456103Y210754D01*
X456124Y210772D01*
X456354Y211003D01*
X456427Y211097D01*
X456506Y211186D01*
X456524Y211222D01*
X456549Y211254D01*
X456596Y211363D01*
X456650Y211469D01*
X456659Y211509D01*
X456675Y211546D01*
X456694Y211664D01*
X456720Y211779D01*
X456719Y211820D01*
X456725Y211860D01*
X456714Y211979D01*
X456710Y212097D01*
X456699Y212136D01*
X456695Y212176D01*
X456655Y212289D01*
X456622Y212403D01*
X456602Y212438D01*
X456588Y212476D01*
X456521Y212574D01*
X456460Y212677D01*
X456421Y212722D01*
X456409Y212739D01*
X456394Y212752D01*
X456354Y212798D01*
X456124Y213028D01*
X456046Y213088D01*
X455974Y213156D01*
X455921Y213185D01*
X455873Y213222D01*
X455782Y213262D01*
X455695Y213310D01*
X455637Y213325D01*
X455581Y213349D01*
X455483Y213364D01*
X455441Y213375D01*
X455427Y213422D01*
X455419Y213482D01*
X455383Y213574D01*
X455355Y213669D01*
X455325Y213721D01*
X455302Y213778D01*
X455244Y213858D01*
X455194Y213943D01*
X455128Y214019D01*
X455116Y214035D01*
X455106Y214043D01*
X455088Y214064D01*
X454958Y214194D01*
X454880Y214254D01*
X454808Y214322D01*
X454755Y214351D01*
X454707Y214388D01*
X454616Y214428D01*
X454529Y214476D01*
X454471Y214491D01*
X454415Y214515D01*
X454317Y214530D01*
X454221Y214555D01*
X454121Y214561D01*
X454101Y214565D01*
X454089Y214563D01*
X454061Y214565D01*
X420389Y214565D01*
X418428Y215377D01*
X407551Y226254D01*
X407442Y226339D01*
X407335Y226428D01*
X407316Y226437D01*
X407300Y226449D01*
X407172Y226504D01*
X407047Y226564D01*
X407027Y226567D01*
X407008Y226575D01*
X406870Y226597D01*
X406734Y226623D01*
X406714Y226622D01*
X406694Y226625D01*
X406555Y226612D01*
X406417Y226604D01*
X406398Y226597D01*
X406378Y226595D01*
X406246Y226548D01*
X406115Y226506D01*
X406097Y226495D01*
X406078Y226488D01*
X405963Y226410D01*
X405846Y226335D01*
X405832Y226321D01*
X405815Y226309D01*
X405723Y226205D01*
X405628Y226104D01*
X405618Y226086D01*
X405605Y226071D01*
X405541Y225947D01*
X405474Y225825D01*
X405469Y225806D01*
X405460Y225788D01*
X405430Y225652D01*
X405395Y225517D01*
X405393Y225489D01*
X405390Y225477D01*
X405391Y225457D01*
X405385Y225357D01*
X405385Y202139D01*
X404573Y200178D01*
X377672Y173277D01*
X375711Y172465D01*
X365668Y172465D01*
X365530Y172448D01*
X365392Y172435D01*
X365373Y172428D01*
X365353Y172425D01*
X365224Y172374D01*
X365093Y172327D01*
X365076Y172316D01*
X365057Y172308D01*
X364945Y172227D01*
X364830Y172149D01*
X364816Y172133D01*
X364800Y172122D01*
X364711Y172014D01*
X364619Y171910D01*
X364610Y171892D01*
X364597Y171877D01*
X364538Y171750D01*
X364475Y171627D01*
X364470Y171607D01*
X364461Y171589D01*
X364435Y171452D01*
X364405Y171317D01*
X364406Y171296D01*
X364402Y171277D01*
X364410Y171138D01*
X364415Y170999D01*
X364420Y170979D01*
X364421Y170959D01*
X364464Y170827D01*
X364503Y170693D01*
X364513Y170676D01*
X364519Y170657D01*
X364594Y170539D01*
X364665Y170419D01*
X364683Y170398D01*
X364690Y170388D01*
X364705Y170374D01*
X364771Y170299D01*
X365761Y169309D01*
X365761Y167639D01*
X356870Y167639D01*
X356752Y167624D01*
X356633Y167617D01*
X356595Y167604D01*
X356555Y167599D01*
X356444Y167556D01*
X356331Y167519D01*
X356297Y167497D01*
X356259Y167482D01*
X356163Y167412D01*
X356062Y167349D01*
X356034Y167319D01*
X356002Y167295D01*
X355926Y167204D01*
X355844Y167117D01*
X355825Y167082D01*
X355799Y167051D01*
X355748Y166943D01*
X355691Y166839D01*
X355680Y166799D01*
X355663Y166763D01*
X355641Y166646D01*
X355611Y166531D01*
X355607Y166470D01*
X355603Y166450D01*
X355605Y166430D01*
X355601Y166370D01*
X355601Y165099D01*
X355599Y165099D01*
X355599Y166370D01*
X355584Y166488D01*
X355577Y166607D01*
X355564Y166645D01*
X355559Y166685D01*
X355515Y166796D01*
X355479Y166909D01*
X355457Y166944D01*
X355442Y166981D01*
X355372Y167077D01*
X355309Y167178D01*
X355279Y167206D01*
X355255Y167239D01*
X355164Y167314D01*
X355077Y167396D01*
X355042Y167416D01*
X355010Y167441D01*
X354903Y167492D01*
X354798Y167550D01*
X354759Y167560D01*
X354723Y167577D01*
X354606Y167599D01*
X354491Y167629D01*
X354430Y167633D01*
X354410Y167637D01*
X354390Y167635D01*
X354330Y167639D01*
X345439Y167639D01*
X345439Y169309D01*
X346429Y170299D01*
X346514Y170408D01*
X346603Y170515D01*
X346612Y170534D01*
X346624Y170550D01*
X346679Y170677D01*
X346739Y170803D01*
X346742Y170823D01*
X346750Y170842D01*
X346772Y170980D01*
X346798Y171116D01*
X346797Y171136D01*
X346800Y171156D01*
X346787Y171295D01*
X346779Y171433D01*
X346772Y171452D01*
X346770Y171472D01*
X346723Y171604D01*
X346681Y171735D01*
X346670Y171753D01*
X346663Y171772D01*
X346585Y171887D01*
X346510Y172004D01*
X346496Y172018D01*
X346484Y172035D01*
X346380Y172127D01*
X346279Y172222D01*
X346261Y172232D01*
X346246Y172245D01*
X346122Y172309D01*
X346000Y172376D01*
X345981Y172381D01*
X345963Y172390D01*
X345827Y172420D01*
X345692Y172455D01*
X345664Y172457D01*
X345652Y172460D01*
X345632Y172459D01*
X345532Y172465D01*
X342424Y172465D01*
X342286Y172448D01*
X342147Y172435D01*
X342128Y172428D01*
X342108Y172425D01*
X341979Y172374D01*
X341848Y172327D01*
X341831Y172316D01*
X341812Y172308D01*
X341700Y172227D01*
X341585Y172149D01*
X341571Y172133D01*
X341555Y172122D01*
X341466Y172014D01*
X341374Y171910D01*
X341365Y171892D01*
X341352Y171877D01*
X341293Y171750D01*
X341230Y171627D01*
X341225Y171607D01*
X341217Y171589D01*
X341191Y171452D01*
X341160Y171317D01*
X341161Y171296D01*
X341157Y171277D01*
X341166Y171138D01*
X341170Y170999D01*
X341175Y170979D01*
X341177Y170959D01*
X341219Y170827D01*
X341258Y170693D01*
X341269Y170676D01*
X341275Y170657D01*
X341349Y170539D01*
X341420Y170419D01*
X341438Y170398D01*
X341445Y170388D01*
X341460Y170374D01*
X341526Y170299D01*
X341885Y169940D01*
X341885Y160260D01*
X335906Y154282D01*
X335846Y154204D01*
X335778Y154131D01*
X335749Y154078D01*
X335712Y154031D01*
X335672Y153940D01*
X335624Y153853D01*
X335609Y153794D01*
X335585Y153739D01*
X335570Y153641D01*
X335545Y153545D01*
X335539Y153445D01*
X335535Y153425D01*
X335537Y153412D01*
X335535Y153384D01*
X335535Y142435D01*
X335547Y142337D01*
X335550Y142238D01*
X335567Y142180D01*
X335575Y142120D01*
X335611Y142028D01*
X335639Y141933D01*
X335669Y141881D01*
X335692Y141824D01*
X335750Y141744D01*
X335800Y141659D01*
X335866Y141583D01*
X335878Y141567D01*
X335888Y141559D01*
X335906Y141538D01*
X342226Y135218D01*
X342304Y135158D01*
X342376Y135090D01*
X342429Y135061D01*
X342477Y135024D01*
X342568Y134984D01*
X342655Y134936D01*
X342713Y134921D01*
X342769Y134897D01*
X342867Y134882D01*
X342963Y134857D01*
X343063Y134851D01*
X343083Y134847D01*
X343095Y134849D01*
X343123Y134847D01*
X344461Y134847D01*
X347345Y133652D01*
X349552Y131445D01*
X350747Y128561D01*
X350747Y125439D01*
X349552Y122555D01*
X347345Y120348D01*
X344461Y119153D01*
X341339Y119153D01*
X338455Y120348D01*
X336248Y122555D01*
X335053Y125439D01*
X335053Y126777D01*
X335041Y126875D01*
X335038Y126974D01*
X335021Y127032D01*
X335013Y127092D01*
X334977Y127184D01*
X334949Y127279D01*
X334919Y127331D01*
X334896Y127388D01*
X334838Y127468D01*
X334788Y127553D01*
X334722Y127629D01*
X334710Y127645D01*
X334700Y127653D01*
X334682Y127674D01*
X331098Y131258D01*
X331003Y131331D01*
X330914Y131410D01*
X330878Y131428D01*
X330846Y131453D01*
X330737Y131500D01*
X330631Y131554D01*
X330592Y131563D01*
X330554Y131579D01*
X330437Y131598D01*
X330321Y131624D01*
X330280Y131623D01*
X330240Y131629D01*
X330122Y131618D01*
X330003Y131614D01*
X329964Y131603D01*
X329924Y131599D01*
X329811Y131559D01*
X329697Y131526D01*
X329663Y131505D01*
X329624Y131492D01*
X329526Y131425D01*
X329423Y131364D01*
X329378Y131325D01*
X329361Y131313D01*
X329348Y131298D01*
X329303Y131258D01*
X320522Y122477D01*
X318561Y121665D01*
X278339Y121665D01*
X276378Y122477D01*
X262177Y136678D01*
X261365Y138639D01*
X261365Y318561D01*
X262177Y320522D01*
X271182Y329526D01*
X271242Y329604D01*
X271310Y329676D01*
X271339Y329729D01*
X271376Y329777D01*
X271416Y329868D01*
X271464Y329955D01*
X271479Y330013D01*
X271503Y330069D01*
X271518Y330167D01*
X271543Y330263D01*
X271549Y330363D01*
X271553Y330383D01*
X271551Y330395D01*
X271553Y330423D01*
X271553Y331761D01*
X272748Y334645D01*
X274955Y336852D01*
X277839Y338047D01*
X280961Y338047D01*
X283845Y336852D01*
X286052Y334645D01*
X287247Y331761D01*
X287247Y328639D01*
X286052Y325755D01*
X283845Y323548D01*
X280961Y322353D01*
X279623Y322353D01*
X279525Y322341D01*
X279426Y322338D01*
X279368Y322321D01*
X279308Y322313D01*
X279216Y322277D01*
X279121Y322249D01*
X279069Y322219D01*
X279012Y322196D01*
X278932Y322138D01*
X278847Y322088D01*
X278771Y322022D01*
X278755Y322010D01*
X278747Y322000D01*
X278726Y321982D01*
X272406Y315662D01*
X272346Y315584D01*
X272278Y315512D01*
X272253Y315466D01*
X272249Y315461D01*
X272246Y315455D01*
X272212Y315411D01*
X272172Y315320D01*
X272124Y315233D01*
X272109Y315175D01*
X272085Y315119D01*
X272070Y315021D01*
X272045Y314925D01*
X272039Y314825D01*
X272035Y314805D01*
X272037Y314793D01*
X272035Y314765D01*
X272035Y197296D01*
X272052Y197158D01*
X272065Y197020D01*
X272072Y197001D01*
X272075Y196980D01*
X272126Y196851D01*
X272173Y196720D01*
X272184Y196703D01*
X272192Y196685D01*
X272273Y196572D01*
X272351Y196457D01*
X272367Y196444D01*
X272378Y196427D01*
X272486Y196339D01*
X272590Y196247D01*
X272608Y196237D01*
X272623Y196225D01*
X272749Y196165D01*
X272873Y196102D01*
X272893Y196098D01*
X272911Y196089D01*
X273048Y196063D01*
X273183Y196032D01*
X273204Y196033D01*
X273223Y196029D01*
X273362Y196038D01*
X273501Y196042D01*
X273521Y196048D01*
X273541Y196049D01*
X273673Y196092D01*
X273807Y196130D01*
X273824Y196141D01*
X273843Y196147D01*
X273961Y196221D01*
X274081Y196292D01*
X274102Y196311D01*
X274112Y196317D01*
X274126Y196332D01*
X274201Y196398D01*
X274955Y197152D01*
X277839Y198347D01*
X280961Y198347D01*
X283845Y197152D01*
X284790Y196206D01*
X284869Y196146D01*
X284941Y196078D01*
X284994Y196049D01*
X285042Y196012D01*
X285133Y195972D01*
X285219Y195924D01*
X285278Y195909D01*
X285334Y195885D01*
X285432Y195870D01*
X285527Y195845D01*
X285627Y195839D01*
X285648Y195835D01*
X285660Y195837D01*
X285688Y195835D01*
X293084Y195835D01*
X293183Y195847D01*
X293282Y195850D01*
X293340Y195867D01*
X293400Y195875D01*
X293492Y195911D01*
X293587Y195939D01*
X293639Y195969D01*
X293696Y195992D01*
X293776Y196050D01*
X293861Y196100D01*
X293936Y196166D01*
X293953Y196178D01*
X293961Y196188D01*
X293982Y196206D01*
X299094Y201318D01*
X299154Y201396D01*
X299222Y201469D01*
X299251Y201522D01*
X299288Y201569D01*
X299328Y201660D01*
X299376Y201747D01*
X299391Y201806D01*
X299415Y201861D01*
X299430Y201959D01*
X299455Y202055D01*
X299461Y202155D01*
X299465Y202175D01*
X299463Y202188D01*
X299465Y202216D01*
X299465Y267564D01*
X299462Y267594D01*
X299464Y267623D01*
X299442Y267751D01*
X299425Y267880D01*
X299415Y267907D01*
X299410Y267936D01*
X299356Y268055D01*
X299308Y268176D01*
X299291Y268199D01*
X299279Y268226D01*
X299198Y268328D01*
X299122Y268433D01*
X299099Y268452D01*
X299080Y268475D01*
X298977Y268553D01*
X298877Y268636D01*
X298850Y268648D01*
X298826Y268666D01*
X298682Y268737D01*
X297893Y269063D01*
X294463Y272493D01*
X292607Y276975D01*
X292607Y281825D01*
X294463Y286307D01*
X297893Y289737D01*
X300768Y290927D01*
X300889Y290996D01*
X301012Y291061D01*
X301027Y291075D01*
X301045Y291085D01*
X301144Y291182D01*
X301247Y291275D01*
X301259Y291292D01*
X301273Y291306D01*
X301346Y291425D01*
X301422Y291541D01*
X301429Y291560D01*
X301439Y291577D01*
X301480Y291710D01*
X301525Y291842D01*
X301527Y291862D01*
X301533Y291881D01*
X301540Y292020D01*
X301551Y292159D01*
X301547Y292179D01*
X301548Y292199D01*
X301520Y292335D01*
X301496Y292472D01*
X301488Y292491D01*
X301484Y292510D01*
X301422Y292636D01*
X301366Y292762D01*
X301353Y292778D01*
X301344Y292796D01*
X301254Y292902D01*
X301167Y293010D01*
X301151Y293023D01*
X301138Y293038D01*
X301024Y293118D01*
X300913Y293202D01*
X300888Y293214D01*
X300878Y293221D01*
X300858Y293228D01*
X300768Y293273D01*
X297893Y294463D01*
X294463Y297893D01*
X292607Y302375D01*
X292607Y307225D01*
X294463Y311707D01*
X297316Y314559D01*
X297376Y314637D01*
X297444Y314709D01*
X297473Y314762D01*
X297510Y314810D01*
X297550Y314901D01*
X297598Y314988D01*
X297613Y315046D01*
X297637Y315102D01*
X297652Y315200D01*
X297677Y315295D01*
X297683Y315395D01*
X297687Y315416D01*
X297685Y315428D01*
X297687Y315456D01*
X297687Y364828D01*
X297675Y364926D01*
X297672Y365025D01*
X297655Y365084D01*
X297647Y365144D01*
X297611Y365236D01*
X297583Y365331D01*
X297553Y365383D01*
X297530Y365439D01*
X297472Y365519D01*
X297422Y365605D01*
X297356Y365680D01*
X297344Y365697D01*
X297334Y365704D01*
X297316Y365726D01*
X263926Y399116D01*
X263847Y399176D01*
X263775Y399244D01*
X263722Y399273D01*
X263674Y399310D01*
X263583Y399350D01*
X263497Y399398D01*
X263438Y399413D01*
X263382Y399437D01*
X263284Y399452D01*
X263189Y399477D01*
X263089Y399483D01*
X263068Y399487D01*
X263056Y399485D01*
X263028Y399487D01*
X170534Y399487D01*
X170416Y399472D01*
X170297Y399465D01*
X170259Y399452D01*
X170218Y399447D01*
X170108Y399404D01*
X169995Y399367D01*
X169960Y399345D01*
X169923Y399330D01*
X169827Y399261D01*
X169726Y399197D01*
X169698Y399167D01*
X169665Y399144D01*
X169589Y399052D01*
X169508Y398965D01*
X169488Y398930D01*
X169463Y398899D01*
X169412Y398791D01*
X169354Y398687D01*
X169344Y398647D01*
X169327Y398611D01*
X169305Y398494D01*
X169275Y398379D01*
X169271Y398319D01*
X169267Y398299D01*
X169269Y398278D01*
X169265Y398218D01*
X169265Y392416D01*
X166884Y390035D01*
X112516Y390035D01*
X110135Y392416D01*
X110135Y398018D01*
X110120Y398136D01*
X110113Y398255D01*
X110100Y398293D01*
X110095Y398334D01*
X110052Y398444D01*
X110015Y398557D01*
X109993Y398592D01*
X109978Y398629D01*
X109909Y398725D01*
X109845Y398826D01*
X109815Y398854D01*
X109792Y398887D01*
X109700Y398963D01*
X109613Y399044D01*
X109578Y399064D01*
X109547Y399089D01*
X109439Y399140D01*
X109335Y399198D01*
X109295Y399208D01*
X109259Y399225D01*
X109142Y399247D01*
X109027Y399277D01*
X108967Y399281D01*
X108947Y399285D01*
X108926Y399283D01*
X108866Y399287D01*
X41572Y399287D01*
X41474Y399275D01*
X41375Y399272D01*
X41316Y399255D01*
X41256Y399247D01*
X41164Y399211D01*
X41069Y399183D01*
X41017Y399153D01*
X40961Y399130D01*
X40881Y399072D01*
X40795Y399022D01*
X40720Y398956D01*
X40703Y398944D01*
X40696Y398934D01*
X40674Y398916D01*
X26534Y384776D01*
X26474Y384697D01*
X26406Y384625D01*
X26377Y384572D01*
X26340Y384524D01*
X26300Y384433D01*
X26252Y384347D01*
X26237Y384288D01*
X26213Y384232D01*
X26198Y384134D01*
X26173Y384039D01*
X26167Y383939D01*
X26163Y383918D01*
X26165Y383906D01*
X26163Y383878D01*
X26163Y200322D01*
X26175Y200224D01*
X26178Y200125D01*
X26195Y200066D01*
X26203Y200006D01*
X26239Y199914D01*
X26267Y199819D01*
X26297Y199767D01*
X26320Y199711D01*
X26378Y199631D01*
X26428Y199545D01*
X26494Y199470D01*
X26506Y199453D01*
X26516Y199446D01*
X26534Y199424D01*
X40874Y185084D01*
X40953Y185024D01*
X41025Y184956D01*
X41078Y184927D01*
X41126Y184890D01*
X41217Y184850D01*
X41303Y184802D01*
X41362Y184787D01*
X41418Y184763D01*
X41516Y184748D01*
X41611Y184723D01*
X41711Y184717D01*
X41732Y184713D01*
X41744Y184715D01*
X41772Y184713D01*
X108866Y184713D01*
X108984Y184728D01*
X109103Y184735D01*
X109141Y184748D01*
X109182Y184753D01*
X109292Y184796D01*
X109405Y184833D01*
X109440Y184855D01*
X109477Y184870D01*
X109573Y184939D01*
X109674Y185003D01*
X109702Y185033D01*
X109735Y185056D01*
X109811Y185148D01*
X109892Y185235D01*
X109912Y185270D01*
X109937Y185301D01*
X109988Y185409D01*
X110046Y185513D01*
X110056Y185553D01*
X110073Y185589D01*
X110095Y185706D01*
X110125Y185821D01*
X110129Y185881D01*
X110133Y185901D01*
X110131Y185922D01*
X110135Y185982D01*
X110135Y191784D01*
X112516Y194165D01*
X166884Y194165D01*
X169265Y191784D01*
X169265Y163416D01*
X166884Y161035D01*
X148082Y161035D01*
X147964Y161020D01*
X147845Y161013D01*
X147807Y161000D01*
X147766Y160995D01*
X147656Y160952D01*
X147543Y160915D01*
X147508Y160893D01*
X147471Y160878D01*
X147375Y160809D01*
X147274Y160745D01*
X147246Y160715D01*
X147213Y160692D01*
X147137Y160600D01*
X147056Y160513D01*
X147036Y160478D01*
X147011Y160447D01*
X146960Y160339D01*
X146902Y160235D01*
X146892Y160195D01*
X146875Y160159D01*
X146853Y160042D01*
X146823Y159927D01*
X146819Y159867D01*
X146815Y159847D01*
X146817Y159826D01*
X146813Y159766D01*
X146813Y127254D01*
X146828Y127136D01*
X146835Y127017D01*
X146848Y126979D01*
X146853Y126938D01*
X146896Y126828D01*
X146933Y126715D01*
X146955Y126680D01*
X146970Y126643D01*
X147039Y126547D01*
X147103Y126446D01*
X147133Y126418D01*
X147156Y126385D01*
X147248Y126309D01*
X147335Y126228D01*
X147370Y126208D01*
X147401Y126183D01*
X147509Y126132D01*
X147613Y126074D01*
X147653Y126064D01*
X147689Y126047D01*
X147806Y126025D01*
X147921Y125995D01*
X147981Y125991D01*
X148001Y125987D01*
X148022Y125989D01*
X148082Y125985D01*
X149644Y125985D01*
X153939Y124206D01*
X157226Y120919D01*
X159005Y116624D01*
X159005Y111976D01*
X157226Y107681D01*
X153939Y104394D01*
X149644Y102615D01*
X129756Y102615D01*
X125461Y104394D01*
X122174Y107681D01*
X120395Y111976D01*
X120395Y116624D01*
X122174Y120919D01*
X125461Y124206D01*
X129756Y125985D01*
X131318Y125985D01*
X131436Y126000D01*
X131555Y126007D01*
X131593Y126020D01*
X131634Y126025D01*
X131744Y126068D01*
X131857Y126105D01*
X131892Y126127D01*
X131929Y126142D01*
X132025Y126211D01*
X132126Y126275D01*
X132154Y126305D01*
X132187Y126328D01*
X132263Y126420D01*
X132344Y126507D01*
X132364Y126542D01*
X132389Y126573D01*
X132440Y126681D01*
X132498Y126785D01*
X132508Y126825D01*
X132525Y126861D01*
X132547Y126978D01*
X132577Y127093D01*
X132581Y127153D01*
X132585Y127173D01*
X132583Y127194D01*
X132587Y127254D01*
X132587Y159766D01*
X132572Y159884D01*
X132565Y160003D01*
X132552Y160041D01*
X132547Y160082D01*
X132504Y160192D01*
X132467Y160305D01*
X132445Y160340D01*
X132430Y160377D01*
X132361Y160473D01*
X132297Y160574D01*
X132267Y160602D01*
X132244Y160635D01*
X132152Y160711D01*
X132065Y160792D01*
X132030Y160812D01*
X131999Y160837D01*
X131891Y160888D01*
X131787Y160946D01*
X131747Y160956D01*
X131711Y160973D01*
X131594Y160995D01*
X131479Y161025D01*
X131419Y161029D01*
X131399Y161033D01*
X131378Y161031D01*
X131318Y161035D01*
X112516Y161035D01*
X110135Y163416D01*
X110135Y169218D01*
X110120Y169336D01*
X110113Y169455D01*
X110100Y169493D01*
X110095Y169534D01*
X110052Y169644D01*
X110015Y169757D01*
X109993Y169792D01*
X109978Y169829D01*
X109909Y169925D01*
X109845Y170026D01*
X109815Y170054D01*
X109792Y170087D01*
X109700Y170163D01*
X109613Y170244D01*
X109578Y170264D01*
X109547Y170289D01*
X109439Y170340D01*
X109335Y170398D01*
X109295Y170408D01*
X109259Y170425D01*
X109142Y170447D01*
X109027Y170477D01*
X108967Y170481D01*
X108947Y170485D01*
X108926Y170483D01*
X108866Y170487D01*
X36885Y170487D01*
X34271Y171570D01*
X13020Y192821D01*
X12603Y193829D01*
X12568Y193890D01*
X12542Y193954D01*
X12490Y194027D01*
X12445Y194105D01*
X12397Y194155D01*
X12356Y194212D01*
X12286Y194269D01*
X12224Y194334D01*
X12164Y194370D01*
X12111Y194415D01*
X12029Y194453D01*
X11953Y194500D01*
X11886Y194520D01*
X11823Y194550D01*
X11735Y194567D01*
X11649Y194593D01*
X11579Y194597D01*
X11510Y194610D01*
X11421Y194604D01*
X11331Y194609D01*
X11263Y194594D01*
X11193Y194590D01*
X11108Y194563D01*
X11020Y194544D01*
X10957Y194514D01*
X10891Y194492D01*
X10815Y194444D01*
X10734Y194405D01*
X10681Y194359D01*
X10622Y194322D01*
X10560Y194257D01*
X10492Y194198D01*
X10452Y194141D01*
X10404Y194090D01*
X10361Y194012D01*
X10309Y193938D01*
X10284Y193873D01*
X10250Y193812D01*
X10228Y193725D01*
X10196Y193641D01*
X10188Y193571D01*
X10171Y193504D01*
X10161Y193343D01*
X10161Y11430D01*
X10176Y11312D01*
X10183Y11193D01*
X10196Y11155D01*
X10201Y11114D01*
X10244Y11004D01*
X10281Y10891D01*
X10303Y10856D01*
X10318Y10819D01*
X10387Y10723D01*
X10451Y10622D01*
X10481Y10594D01*
X10504Y10561D01*
X10596Y10485D01*
X10683Y10404D01*
X10718Y10384D01*
X10749Y10359D01*
X10857Y10308D01*
X10961Y10250D01*
X11001Y10240D01*
X11037Y10223D01*
X11154Y10201D01*
X11269Y10171D01*
X11329Y10167D01*
X11349Y10163D01*
X11370Y10165D01*
X11430Y10161D01*
X966270Y10161D01*
X966388Y10176D01*
G37*
%LPC*%
G36*
X142239Y294639D02*
X142239Y294639D01*
X142239Y383641D01*
X142697Y383641D01*
X148677Y383249D01*
X154620Y382466D01*
X160498Y381297D01*
X166287Y379746D01*
X171963Y377819D01*
X177500Y375526D01*
X182875Y372875D01*
X188066Y369878D01*
X193049Y366548D01*
X197804Y362900D01*
X202310Y358948D01*
X206548Y354710D01*
X210500Y350204D01*
X214148Y345449D01*
X217478Y340466D01*
X220475Y335275D01*
X223126Y329900D01*
X225419Y324363D01*
X227346Y318687D01*
X228897Y312898D01*
X230066Y307020D01*
X230849Y301077D01*
X231241Y295097D01*
X231241Y294639D01*
X142239Y294639D01*
G37*
%LPD*%
%LPC*%
G36*
X48159Y294639D02*
X48159Y294639D01*
X48159Y295097D01*
X48196Y295661D01*
X48196Y295662D01*
X48551Y301077D01*
X49334Y307020D01*
X50503Y312898D01*
X52054Y318687D01*
X53981Y324363D01*
X56274Y329900D01*
X58925Y335275D01*
X61922Y340466D01*
X65252Y345449D01*
X68900Y350204D01*
X72852Y354710D01*
X77090Y358948D01*
X81596Y362900D01*
X86351Y366548D01*
X91334Y369878D01*
X96525Y372875D01*
X101900Y375526D01*
X107437Y377819D01*
X113113Y379746D01*
X118902Y381297D01*
X124780Y382466D01*
X130723Y383249D01*
X136703Y383641D01*
X137161Y383641D01*
X137161Y294639D01*
X48159Y294639D01*
G37*
%LPD*%
%LPC*%
G36*
X142239Y200559D02*
X142239Y200559D01*
X142239Y289561D01*
X231241Y289561D01*
X231241Y289103D01*
X230932Y284399D01*
X230849Y283123D01*
X230066Y277180D01*
X228897Y271302D01*
X227346Y265513D01*
X225419Y259837D01*
X223126Y254300D01*
X220475Y248925D01*
X217478Y243734D01*
X214148Y238751D01*
X210500Y233996D01*
X206548Y229490D01*
X202310Y225252D01*
X197804Y221300D01*
X193049Y217652D01*
X188066Y214322D01*
X182875Y211325D01*
X177500Y208674D01*
X171963Y206381D01*
X166287Y204454D01*
X160498Y202903D01*
X154620Y201734D01*
X148677Y200951D01*
X142697Y200559D01*
X142239Y200559D01*
G37*
%LPD*%
%LPC*%
G36*
X136703Y200559D02*
X136703Y200559D01*
X130723Y200951D01*
X124780Y201734D01*
X118902Y202903D01*
X113113Y204454D01*
X107437Y206381D01*
X101900Y208674D01*
X96525Y211325D01*
X91334Y214322D01*
X86351Y217652D01*
X81596Y221300D01*
X77090Y225252D01*
X72852Y229490D01*
X68900Y233996D01*
X65252Y238751D01*
X61922Y243734D01*
X58925Y248925D01*
X56274Y254300D01*
X53981Y259837D01*
X52054Y265513D01*
X50503Y271302D01*
X49334Y277180D01*
X48551Y283123D01*
X48159Y289103D01*
X48159Y289561D01*
X137161Y289561D01*
X137161Y200559D01*
X136703Y200559D01*
G37*
%LPD*%
%LPC*%
G36*
X672039Y89915D02*
X672039Y89915D01*
X670078Y90727D01*
X643177Y117628D01*
X642365Y119589D01*
X642365Y213134D01*
X642350Y213252D01*
X642343Y213371D01*
X642330Y213409D01*
X642325Y213450D01*
X642282Y213560D01*
X642245Y213673D01*
X642223Y213708D01*
X642208Y213745D01*
X642139Y213841D01*
X642075Y213942D01*
X642045Y213970D01*
X642022Y214003D01*
X641930Y214079D01*
X641843Y214160D01*
X641808Y214180D01*
X641777Y214205D01*
X641669Y214256D01*
X641565Y214314D01*
X641525Y214324D01*
X641489Y214341D01*
X641372Y214363D01*
X641257Y214393D01*
X641197Y214397D01*
X641177Y214401D01*
X641156Y214399D01*
X641096Y214403D01*
X639789Y214403D01*
X636905Y215598D01*
X634698Y217805D01*
X633503Y220689D01*
X633503Y223811D01*
X634698Y226695D01*
X636905Y228902D01*
X639789Y230097D01*
X642911Y230097D01*
X645795Y228902D01*
X648002Y226695D01*
X649197Y223811D01*
X649197Y222473D01*
X649209Y222375D01*
X649212Y222276D01*
X649229Y222218D01*
X649237Y222158D01*
X649273Y222066D01*
X649301Y221971D01*
X649331Y221919D01*
X649354Y221862D01*
X649412Y221782D01*
X649462Y221697D01*
X649528Y221621D01*
X649540Y221605D01*
X649550Y221597D01*
X649568Y221576D01*
X652223Y218922D01*
X653035Y216961D01*
X653035Y123385D01*
X653047Y123287D01*
X653050Y123188D01*
X653067Y123130D01*
X653075Y123070D01*
X653111Y122978D01*
X653139Y122883D01*
X653169Y122831D01*
X653192Y122774D01*
X653250Y122694D01*
X653300Y122609D01*
X653366Y122533D01*
X653378Y122517D01*
X653388Y122509D01*
X653406Y122488D01*
X674938Y100956D01*
X675016Y100896D01*
X675088Y100828D01*
X675141Y100799D01*
X675189Y100762D01*
X675280Y100722D01*
X675367Y100674D01*
X675425Y100659D01*
X675481Y100635D01*
X675579Y100620D01*
X675675Y100595D01*
X675775Y100589D01*
X675795Y100585D01*
X675807Y100587D01*
X675835Y100585D01*
X892615Y100585D01*
X892713Y100597D01*
X892812Y100600D01*
X892870Y100617D01*
X892930Y100625D01*
X893022Y100661D01*
X893117Y100689D01*
X893169Y100719D01*
X893226Y100742D01*
X893306Y100800D01*
X893391Y100850D01*
X893467Y100916D01*
X893483Y100928D01*
X893491Y100938D01*
X893512Y100956D01*
X908694Y116138D01*
X908754Y116216D01*
X908822Y116288D01*
X908851Y116341D01*
X908888Y116389D01*
X908928Y116480D01*
X908976Y116567D01*
X908991Y116625D01*
X909015Y116681D01*
X909030Y116779D01*
X909055Y116875D01*
X909061Y116975D01*
X909065Y116995D01*
X909063Y117007D01*
X909065Y117035D01*
X909065Y118366D01*
X909050Y118484D01*
X909043Y118603D01*
X909030Y118641D01*
X909025Y118682D01*
X908982Y118792D01*
X908945Y118905D01*
X908923Y118940D01*
X908908Y118977D01*
X908839Y119073D01*
X908775Y119174D01*
X908745Y119202D01*
X908722Y119235D01*
X908630Y119311D01*
X908543Y119392D01*
X908508Y119412D01*
X908477Y119437D01*
X908369Y119488D01*
X908265Y119546D01*
X908225Y119556D01*
X908189Y119573D01*
X908072Y119595D01*
X907957Y119625D01*
X907897Y119629D01*
X907877Y119633D01*
X907856Y119631D01*
X907796Y119635D01*
X904716Y119635D01*
X902335Y122016D01*
X902335Y138384D01*
X902754Y138803D01*
X902827Y138897D01*
X902906Y138986D01*
X902924Y139022D01*
X902949Y139054D01*
X902996Y139163D01*
X903050Y139269D01*
X903059Y139308D01*
X903075Y139346D01*
X903094Y139463D01*
X903120Y139579D01*
X903119Y139620D01*
X903125Y139660D01*
X903114Y139778D01*
X903110Y139897D01*
X903099Y139936D01*
X903095Y139976D01*
X903055Y140088D01*
X903022Y140203D01*
X903002Y140238D01*
X902988Y140276D01*
X902921Y140374D01*
X902860Y140477D01*
X902821Y140522D01*
X902809Y140539D01*
X902794Y140552D01*
X902754Y140598D01*
X902335Y141016D01*
X902335Y157384D01*
X904716Y159765D01*
X907796Y159765D01*
X907914Y159780D01*
X908033Y159787D01*
X908071Y159800D01*
X908112Y159805D01*
X908222Y159848D01*
X908335Y159885D01*
X908370Y159907D01*
X908407Y159922D01*
X908503Y159991D01*
X908604Y160055D01*
X908632Y160085D01*
X908665Y160108D01*
X908741Y160200D01*
X908822Y160287D01*
X908842Y160322D01*
X908867Y160353D01*
X908918Y160461D01*
X908976Y160565D01*
X908986Y160605D01*
X909003Y160641D01*
X909025Y160758D01*
X909055Y160873D01*
X909059Y160933D01*
X909063Y160953D01*
X909061Y160974D01*
X909065Y161034D01*
X909065Y168666D01*
X909050Y168784D01*
X909043Y168903D01*
X909030Y168941D01*
X909025Y168982D01*
X908982Y169092D01*
X908945Y169205D01*
X908923Y169240D01*
X908908Y169277D01*
X908839Y169373D01*
X908775Y169474D01*
X908745Y169502D01*
X908722Y169535D01*
X908630Y169611D01*
X908543Y169692D01*
X908508Y169712D01*
X908477Y169737D01*
X908369Y169788D01*
X908265Y169846D01*
X908225Y169856D01*
X908189Y169873D01*
X908072Y169895D01*
X907957Y169925D01*
X907897Y169929D01*
X907877Y169933D01*
X907856Y169931D01*
X907796Y169935D01*
X906716Y169935D01*
X904335Y172316D01*
X904335Y187684D01*
X906716Y190065D01*
X907361Y190065D01*
X907513Y190084D01*
X907664Y190101D01*
X907670Y190104D01*
X907677Y190105D01*
X907818Y190161D01*
X907961Y190215D01*
X907966Y190219D01*
X907972Y190222D01*
X908096Y190311D01*
X908220Y190399D01*
X908224Y190404D01*
X908230Y190408D01*
X908327Y190526D01*
X908425Y190642D01*
X908428Y190648D01*
X908433Y190653D01*
X908497Y190790D01*
X908564Y190928D01*
X908565Y190935D01*
X908568Y190941D01*
X908596Y191089D01*
X908627Y191240D01*
X908627Y191247D01*
X908628Y191253D01*
X908618Y191405D01*
X908611Y191558D01*
X908609Y191564D01*
X908608Y191571D01*
X908561Y191716D01*
X908516Y191861D01*
X908512Y191867D01*
X908510Y191873D01*
X908428Y192002D01*
X908348Y192132D01*
X908344Y192136D01*
X908340Y192142D01*
X908229Y192247D01*
X908119Y192352D01*
X908113Y192355D01*
X908108Y192360D01*
X907974Y192434D01*
X907842Y192509D01*
X907834Y192511D01*
X907830Y192514D01*
X907819Y192516D01*
X907690Y192560D01*
X907419Y192632D01*
X906840Y192967D01*
X906367Y193440D01*
X906032Y194019D01*
X905859Y194666D01*
X905859Y198461D01*
X913130Y198461D01*
X913248Y198476D01*
X913367Y198483D01*
X913405Y198496D01*
X913445Y198501D01*
X913556Y198544D01*
X913669Y198581D01*
X913704Y198603D01*
X913741Y198618D01*
X913837Y198688D01*
X913938Y198751D01*
X913966Y198781D01*
X913998Y198805D01*
X914074Y198896D01*
X914156Y198983D01*
X914175Y199018D01*
X914201Y199049D01*
X914252Y199157D01*
X914309Y199261D01*
X914320Y199301D01*
X914337Y199337D01*
X914359Y199454D01*
X914389Y199569D01*
X914393Y199630D01*
X914397Y199650D01*
X914395Y199670D01*
X914399Y199730D01*
X914399Y201001D01*
X914401Y201001D01*
X914401Y199730D01*
X914416Y199612D01*
X914423Y199493D01*
X914436Y199455D01*
X914441Y199415D01*
X914485Y199304D01*
X914521Y199191D01*
X914543Y199156D01*
X914558Y199119D01*
X914628Y199023D01*
X914691Y198922D01*
X914721Y198894D01*
X914745Y198861D01*
X914836Y198786D01*
X914923Y198704D01*
X914958Y198684D01*
X914990Y198659D01*
X915097Y198608D01*
X915201Y198550D01*
X915241Y198540D01*
X915277Y198523D01*
X915394Y198501D01*
X915509Y198471D01*
X915570Y198467D01*
X915590Y198463D01*
X915610Y198465D01*
X915670Y198461D01*
X922941Y198461D01*
X922941Y194666D01*
X922768Y194019D01*
X922433Y193440D01*
X921960Y192967D01*
X921381Y192632D01*
X921110Y192560D01*
X920969Y192502D01*
X920828Y192446D01*
X920822Y192442D01*
X920816Y192440D01*
X920694Y192349D01*
X920570Y192260D01*
X920566Y192254D01*
X920561Y192250D01*
X920466Y192133D01*
X920367Y192015D01*
X920365Y192008D01*
X920360Y192003D01*
X920297Y191864D01*
X920232Y191727D01*
X920231Y191720D01*
X920228Y191714D01*
X920201Y191563D01*
X920172Y191414D01*
X920173Y191408D01*
X920171Y191401D01*
X920183Y191247D01*
X920192Y191097D01*
X920194Y191091D01*
X920194Y191084D01*
X920243Y190938D01*
X920290Y190795D01*
X920293Y190789D01*
X920296Y190782D01*
X920379Y190653D01*
X920460Y190526D01*
X920465Y190521D01*
X920469Y190516D01*
X920580Y190413D01*
X920692Y190308D01*
X920698Y190305D01*
X920703Y190300D01*
X920837Y190228D01*
X920970Y190154D01*
X920977Y190153D01*
X920983Y190150D01*
X921131Y190113D01*
X921278Y190075D01*
X921287Y190074D01*
X921291Y190073D01*
X921302Y190073D01*
X921439Y190065D01*
X922084Y190065D01*
X924465Y187684D01*
X924465Y172316D01*
X922084Y169935D01*
X921004Y169935D01*
X920886Y169920D01*
X920767Y169913D01*
X920729Y169900D01*
X920688Y169895D01*
X920578Y169852D01*
X920465Y169815D01*
X920430Y169793D01*
X920393Y169778D01*
X920297Y169709D01*
X920196Y169645D01*
X920168Y169615D01*
X920135Y169592D01*
X920059Y169500D01*
X919978Y169413D01*
X919958Y169378D01*
X919933Y169347D01*
X919882Y169239D01*
X919824Y169135D01*
X919814Y169095D01*
X919797Y169059D01*
X919775Y168942D01*
X919745Y168827D01*
X919741Y168767D01*
X919737Y168747D01*
X919739Y168726D01*
X919735Y168666D01*
X919735Y161034D01*
X919750Y160916D01*
X919757Y160797D01*
X919770Y160759D01*
X919775Y160718D01*
X919818Y160608D01*
X919855Y160495D01*
X919877Y160460D01*
X919892Y160423D01*
X919961Y160327D01*
X920025Y160226D01*
X920055Y160198D01*
X920078Y160165D01*
X920170Y160089D01*
X920257Y160008D01*
X920292Y159988D01*
X920323Y159963D01*
X920431Y159912D01*
X920535Y159854D01*
X920575Y159844D01*
X920611Y159827D01*
X920728Y159805D01*
X920843Y159775D01*
X920903Y159771D01*
X920923Y159767D01*
X920944Y159769D01*
X921004Y159765D01*
X924084Y159765D01*
X926465Y157384D01*
X926465Y141016D01*
X926046Y140598D01*
X925973Y140504D01*
X925894Y140414D01*
X925876Y140378D01*
X925851Y140346D01*
X925804Y140237D01*
X925750Y140131D01*
X925741Y140092D01*
X925725Y140054D01*
X925706Y139937D01*
X925680Y139821D01*
X925681Y139780D01*
X925675Y139740D01*
X925686Y139622D01*
X925690Y139503D01*
X925701Y139464D01*
X925705Y139424D01*
X925745Y139312D01*
X925778Y139197D01*
X925798Y139162D01*
X925812Y139124D01*
X925879Y139026D01*
X925939Y138923D01*
X925979Y138878D01*
X925991Y138861D01*
X926006Y138848D01*
X926046Y138803D01*
X926465Y138384D01*
X926465Y122016D01*
X924084Y119635D01*
X921004Y119635D01*
X920886Y119620D01*
X920767Y119613D01*
X920729Y119600D01*
X920688Y119595D01*
X920578Y119552D01*
X920465Y119515D01*
X920430Y119493D01*
X920393Y119478D01*
X920297Y119409D01*
X920196Y119345D01*
X920168Y119315D01*
X920135Y119292D01*
X920059Y119200D01*
X919978Y119113D01*
X919958Y119078D01*
X919933Y119047D01*
X919882Y118939D01*
X919824Y118835D01*
X919814Y118795D01*
X919797Y118759D01*
X919775Y118642D01*
X919745Y118527D01*
X919741Y118467D01*
X919737Y118447D01*
X919739Y118426D01*
X919735Y118366D01*
X919735Y113239D01*
X918923Y111278D01*
X898372Y90727D01*
X896411Y89915D01*
X672039Y89915D01*
G37*
%LPD*%
%LPC*%
G36*
X803116Y119635D02*
X803116Y119635D01*
X800735Y122016D01*
X800735Y123596D01*
X800720Y123714D01*
X800713Y123833D01*
X800700Y123871D01*
X800695Y123912D01*
X800652Y124022D01*
X800615Y124135D01*
X800593Y124170D01*
X800578Y124207D01*
X800509Y124303D01*
X800445Y124404D01*
X800415Y124432D01*
X800392Y124465D01*
X800300Y124541D01*
X800213Y124622D01*
X800178Y124642D01*
X800147Y124667D01*
X800039Y124718D01*
X799935Y124776D01*
X799895Y124786D01*
X799859Y124803D01*
X799742Y124825D01*
X799627Y124855D01*
X799567Y124859D01*
X799547Y124863D01*
X799526Y124861D01*
X799466Y124865D01*
X776789Y124865D01*
X774828Y125677D01*
X773149Y127356D01*
X773149Y127357D01*
X759157Y141349D01*
X757477Y143028D01*
X756665Y144989D01*
X756665Y175065D01*
X756653Y175163D01*
X756650Y175262D01*
X756633Y175320D01*
X756625Y175380D01*
X756589Y175472D01*
X756561Y175567D01*
X756531Y175619D01*
X756508Y175676D01*
X756450Y175756D01*
X756400Y175841D01*
X756334Y175917D01*
X756322Y175933D01*
X756312Y175941D01*
X756294Y175962D01*
X639512Y292744D01*
X639434Y292804D01*
X639362Y292872D01*
X639309Y292901D01*
X639261Y292938D01*
X639170Y292978D01*
X639083Y293026D01*
X639025Y293041D01*
X638969Y293065D01*
X638871Y293080D01*
X638775Y293105D01*
X638675Y293111D01*
X638655Y293115D01*
X638643Y293113D01*
X638615Y293115D01*
X577788Y293115D01*
X577690Y293103D01*
X577591Y293100D01*
X577532Y293083D01*
X577472Y293075D01*
X577380Y293039D01*
X577285Y293011D01*
X577233Y292981D01*
X577177Y292958D01*
X577097Y292900D01*
X577011Y292850D01*
X576936Y292784D01*
X576919Y292772D01*
X576912Y292762D01*
X576890Y292743D01*
X575945Y291798D01*
X573061Y290603D01*
X569939Y290603D01*
X567055Y291798D01*
X564848Y294005D01*
X563653Y296889D01*
X563653Y300011D01*
X564848Y302895D01*
X567055Y305102D01*
X569939Y306297D01*
X573061Y306297D01*
X575945Y305102D01*
X576890Y304157D01*
X576969Y304096D01*
X577041Y304028D01*
X577094Y303999D01*
X577142Y303962D01*
X577233Y303922D01*
X577319Y303874D01*
X577378Y303859D01*
X577434Y303835D01*
X577532Y303820D01*
X577627Y303795D01*
X577727Y303789D01*
X577748Y303785D01*
X577760Y303787D01*
X577788Y303785D01*
X642411Y303785D01*
X644372Y302973D01*
X766523Y180822D01*
X767335Y178861D01*
X767335Y148785D01*
X767347Y148687D01*
X767350Y148588D01*
X767367Y148530D01*
X767375Y148470D01*
X767411Y148378D01*
X767439Y148283D01*
X767469Y148231D01*
X767492Y148174D01*
X767550Y148094D01*
X767600Y148009D01*
X767666Y147933D01*
X767678Y147917D01*
X767688Y147909D01*
X767706Y147888D01*
X779688Y135906D01*
X779766Y135846D01*
X779838Y135778D01*
X779891Y135749D01*
X779939Y135712D01*
X780030Y135672D01*
X780117Y135624D01*
X780175Y135609D01*
X780231Y135585D01*
X780329Y135570D01*
X780425Y135545D01*
X780525Y135539D01*
X780545Y135535D01*
X780557Y135537D01*
X780585Y135535D01*
X799466Y135535D01*
X799584Y135550D01*
X799703Y135557D01*
X799741Y135570D01*
X799782Y135575D01*
X799892Y135618D01*
X800005Y135655D01*
X800040Y135677D01*
X800077Y135692D01*
X800173Y135761D01*
X800274Y135825D01*
X800302Y135855D01*
X800335Y135878D01*
X800411Y135970D01*
X800492Y136057D01*
X800512Y136092D01*
X800537Y136123D01*
X800588Y136231D01*
X800646Y136335D01*
X800656Y136375D01*
X800673Y136411D01*
X800695Y136528D01*
X800725Y136643D01*
X800729Y136703D01*
X800733Y136723D01*
X800731Y136744D01*
X800735Y136804D01*
X800735Y138384D01*
X801154Y138803D01*
X801227Y138897D01*
X801306Y138986D01*
X801324Y139022D01*
X801349Y139054D01*
X801396Y139163D01*
X801450Y139269D01*
X801459Y139308D01*
X801475Y139346D01*
X801494Y139463D01*
X801520Y139579D01*
X801519Y139620D01*
X801525Y139660D01*
X801514Y139778D01*
X801510Y139897D01*
X801499Y139936D01*
X801495Y139976D01*
X801455Y140088D01*
X801422Y140203D01*
X801402Y140238D01*
X801388Y140276D01*
X801321Y140374D01*
X801260Y140477D01*
X801221Y140522D01*
X801209Y140539D01*
X801194Y140552D01*
X801154Y140598D01*
X800735Y141016D01*
X800735Y157384D01*
X803116Y159765D01*
X806196Y159765D01*
X806314Y159780D01*
X806433Y159787D01*
X806471Y159800D01*
X806512Y159805D01*
X806622Y159848D01*
X806735Y159885D01*
X806770Y159907D01*
X806807Y159922D01*
X806903Y159991D01*
X807004Y160055D01*
X807032Y160085D01*
X807065Y160108D01*
X807141Y160200D01*
X807222Y160287D01*
X807242Y160322D01*
X807267Y160353D01*
X807318Y160461D01*
X807376Y160565D01*
X807386Y160605D01*
X807403Y160641D01*
X807425Y160758D01*
X807455Y160873D01*
X807459Y160933D01*
X807463Y160953D01*
X807461Y160974D01*
X807465Y161034D01*
X807465Y168666D01*
X807450Y168784D01*
X807443Y168903D01*
X807430Y168941D01*
X807425Y168982D01*
X807382Y169092D01*
X807345Y169205D01*
X807323Y169240D01*
X807308Y169277D01*
X807239Y169373D01*
X807175Y169474D01*
X807145Y169502D01*
X807122Y169535D01*
X807030Y169611D01*
X806943Y169692D01*
X806908Y169712D01*
X806877Y169737D01*
X806769Y169788D01*
X806665Y169846D01*
X806625Y169856D01*
X806589Y169873D01*
X806472Y169895D01*
X806357Y169925D01*
X806297Y169929D01*
X806277Y169933D01*
X806256Y169931D01*
X806196Y169935D01*
X805116Y169935D01*
X802735Y172316D01*
X802735Y187684D01*
X805116Y190065D01*
X805761Y190065D01*
X805913Y190084D01*
X806064Y190101D01*
X806070Y190104D01*
X806077Y190105D01*
X806218Y190161D01*
X806361Y190215D01*
X806366Y190219D01*
X806372Y190222D01*
X806496Y190311D01*
X806620Y190399D01*
X806624Y190404D01*
X806630Y190408D01*
X806727Y190526D01*
X806825Y190642D01*
X806828Y190648D01*
X806833Y190653D01*
X806897Y190790D01*
X806964Y190928D01*
X806965Y190935D01*
X806968Y190941D01*
X806996Y191089D01*
X807027Y191240D01*
X807027Y191247D01*
X807028Y191253D01*
X807018Y191405D01*
X807011Y191558D01*
X807009Y191564D01*
X807008Y191571D01*
X806961Y191716D01*
X806916Y191861D01*
X806912Y191867D01*
X806910Y191873D01*
X806828Y192002D01*
X806748Y192132D01*
X806744Y192136D01*
X806740Y192142D01*
X806629Y192247D01*
X806519Y192352D01*
X806513Y192355D01*
X806508Y192360D01*
X806374Y192434D01*
X806242Y192509D01*
X806234Y192511D01*
X806230Y192514D01*
X806219Y192516D01*
X806090Y192560D01*
X805819Y192632D01*
X805240Y192967D01*
X804767Y193440D01*
X804432Y194019D01*
X804259Y194666D01*
X804259Y198461D01*
X811530Y198461D01*
X811648Y198476D01*
X811767Y198483D01*
X811805Y198496D01*
X811845Y198501D01*
X811956Y198544D01*
X812069Y198581D01*
X812104Y198603D01*
X812141Y198618D01*
X812237Y198688D01*
X812338Y198751D01*
X812366Y198781D01*
X812398Y198805D01*
X812474Y198896D01*
X812556Y198983D01*
X812575Y199018D01*
X812601Y199049D01*
X812652Y199157D01*
X812709Y199261D01*
X812720Y199301D01*
X812737Y199337D01*
X812759Y199454D01*
X812789Y199569D01*
X812793Y199630D01*
X812797Y199650D01*
X812795Y199670D01*
X812799Y199730D01*
X812799Y201001D01*
X812801Y201001D01*
X812801Y199730D01*
X812816Y199612D01*
X812823Y199493D01*
X812836Y199455D01*
X812841Y199415D01*
X812885Y199304D01*
X812921Y199191D01*
X812943Y199156D01*
X812958Y199119D01*
X813028Y199023D01*
X813091Y198922D01*
X813121Y198894D01*
X813145Y198861D01*
X813236Y198786D01*
X813323Y198704D01*
X813358Y198684D01*
X813390Y198659D01*
X813497Y198608D01*
X813601Y198550D01*
X813641Y198540D01*
X813677Y198523D01*
X813794Y198501D01*
X813909Y198471D01*
X813970Y198467D01*
X813990Y198463D01*
X814010Y198465D01*
X814070Y198461D01*
X821341Y198461D01*
X821341Y194666D01*
X821168Y194019D01*
X820833Y193440D01*
X820360Y192967D01*
X819781Y192632D01*
X819510Y192560D01*
X819369Y192502D01*
X819228Y192446D01*
X819222Y192442D01*
X819216Y192440D01*
X819094Y192349D01*
X818970Y192260D01*
X818966Y192254D01*
X818961Y192250D01*
X818866Y192133D01*
X818767Y192015D01*
X818765Y192008D01*
X818760Y192003D01*
X818697Y191864D01*
X818632Y191727D01*
X818631Y191720D01*
X818628Y191714D01*
X818601Y191563D01*
X818572Y191414D01*
X818573Y191408D01*
X818571Y191401D01*
X818583Y191247D01*
X818592Y191097D01*
X818594Y191091D01*
X818594Y191084D01*
X818643Y190938D01*
X818690Y190795D01*
X818693Y190789D01*
X818696Y190782D01*
X818779Y190653D01*
X818860Y190526D01*
X818865Y190521D01*
X818869Y190516D01*
X818980Y190413D01*
X819092Y190308D01*
X819098Y190305D01*
X819103Y190300D01*
X819237Y190228D01*
X819370Y190154D01*
X819377Y190153D01*
X819383Y190150D01*
X819531Y190113D01*
X819678Y190075D01*
X819687Y190074D01*
X819691Y190073D01*
X819702Y190073D01*
X819839Y190065D01*
X820484Y190065D01*
X822865Y187684D01*
X822865Y172316D01*
X820484Y169935D01*
X819404Y169935D01*
X819286Y169920D01*
X819167Y169913D01*
X819129Y169900D01*
X819088Y169895D01*
X818978Y169852D01*
X818865Y169815D01*
X818830Y169793D01*
X818793Y169778D01*
X818697Y169709D01*
X818596Y169645D01*
X818568Y169615D01*
X818535Y169592D01*
X818459Y169500D01*
X818378Y169413D01*
X818358Y169378D01*
X818333Y169347D01*
X818282Y169239D01*
X818224Y169135D01*
X818214Y169095D01*
X818197Y169059D01*
X818175Y168942D01*
X818145Y168827D01*
X818141Y168767D01*
X818137Y168747D01*
X818139Y168726D01*
X818135Y168666D01*
X818135Y161034D01*
X818150Y160916D01*
X818157Y160797D01*
X818170Y160759D01*
X818175Y160718D01*
X818218Y160608D01*
X818255Y160495D01*
X818277Y160460D01*
X818292Y160423D01*
X818361Y160327D01*
X818425Y160226D01*
X818455Y160198D01*
X818478Y160165D01*
X818570Y160089D01*
X818657Y160008D01*
X818692Y159988D01*
X818723Y159963D01*
X818831Y159912D01*
X818935Y159854D01*
X818975Y159844D01*
X819011Y159827D01*
X819128Y159805D01*
X819243Y159775D01*
X819303Y159771D01*
X819323Y159767D01*
X819344Y159769D01*
X819404Y159765D01*
X822484Y159765D01*
X824865Y157384D01*
X824865Y141016D01*
X824446Y140598D01*
X824373Y140504D01*
X824294Y140414D01*
X824276Y140378D01*
X824251Y140346D01*
X824204Y140237D01*
X824150Y140131D01*
X824141Y140092D01*
X824125Y140054D01*
X824106Y139937D01*
X824080Y139821D01*
X824081Y139780D01*
X824075Y139740D01*
X824086Y139622D01*
X824090Y139503D01*
X824101Y139464D01*
X824105Y139424D01*
X824145Y139312D01*
X824178Y139197D01*
X824198Y139162D01*
X824212Y139124D01*
X824279Y139026D01*
X824339Y138923D01*
X824379Y138878D01*
X824391Y138861D01*
X824406Y138848D01*
X824446Y138803D01*
X824865Y138384D01*
X824865Y122016D01*
X822484Y119635D01*
X803116Y119635D01*
G37*
%LPD*%
%LPC*%
G36*
X701516Y119635D02*
X701516Y119635D01*
X699135Y122016D01*
X699135Y123596D01*
X699120Y123714D01*
X699113Y123833D01*
X699100Y123871D01*
X699095Y123912D01*
X699052Y124022D01*
X699015Y124135D01*
X698993Y124170D01*
X698978Y124207D01*
X698909Y124303D01*
X698845Y124404D01*
X698815Y124432D01*
X698792Y124465D01*
X698700Y124541D01*
X698613Y124622D01*
X698578Y124642D01*
X698547Y124667D01*
X698439Y124718D01*
X698335Y124776D01*
X698295Y124786D01*
X698259Y124803D01*
X698142Y124825D01*
X698027Y124855D01*
X697967Y124859D01*
X697947Y124863D01*
X697926Y124861D01*
X697866Y124865D01*
X681539Y124865D01*
X679578Y125677D01*
X662227Y143028D01*
X661415Y144989D01*
X661415Y244915D01*
X661403Y245013D01*
X661400Y245112D01*
X661383Y245170D01*
X661375Y245230D01*
X661339Y245322D01*
X661311Y245417D01*
X661281Y245469D01*
X661258Y245526D01*
X661200Y245606D01*
X661150Y245691D01*
X661084Y245767D01*
X661072Y245783D01*
X661062Y245791D01*
X661044Y245812D01*
X633162Y273694D01*
X633084Y273754D01*
X633012Y273822D01*
X632959Y273851D01*
X632911Y273888D01*
X632820Y273928D01*
X632733Y273976D01*
X632675Y273991D01*
X632619Y274015D01*
X632521Y274030D01*
X632425Y274055D01*
X632325Y274061D01*
X632305Y274065D01*
X632293Y274063D01*
X632265Y274065D01*
X577788Y274065D01*
X577690Y274053D01*
X577591Y274050D01*
X577533Y274033D01*
X577472Y274025D01*
X577380Y273989D01*
X577285Y273961D01*
X577233Y273931D01*
X577177Y273908D01*
X577097Y273850D01*
X577011Y273800D01*
X576936Y273734D01*
X576919Y273722D01*
X576912Y273712D01*
X576890Y273694D01*
X575945Y272748D01*
X573061Y271553D01*
X569939Y271553D01*
X567055Y272748D01*
X564848Y274955D01*
X563653Y277839D01*
X563653Y280961D01*
X564848Y283845D01*
X567055Y286052D01*
X569939Y287247D01*
X573061Y287247D01*
X575945Y286052D01*
X576890Y285106D01*
X576969Y285046D01*
X577041Y284978D01*
X577094Y284949D01*
X577142Y284912D01*
X577233Y284872D01*
X577319Y284824D01*
X577378Y284809D01*
X577434Y284785D01*
X577532Y284770D01*
X577627Y284745D01*
X577727Y284739D01*
X577748Y284735D01*
X577760Y284737D01*
X577788Y284735D01*
X636061Y284735D01*
X638022Y283923D01*
X671273Y250672D01*
X672085Y248711D01*
X672085Y148785D01*
X672097Y148687D01*
X672100Y148588D01*
X672117Y148530D01*
X672125Y148470D01*
X672161Y148378D01*
X672189Y148283D01*
X672219Y148231D01*
X672242Y148174D01*
X672300Y148094D01*
X672350Y148009D01*
X672416Y147933D01*
X672428Y147917D01*
X672438Y147909D01*
X672456Y147888D01*
X684438Y135906D01*
X684516Y135846D01*
X684588Y135778D01*
X684641Y135749D01*
X684689Y135712D01*
X684780Y135672D01*
X684867Y135624D01*
X684925Y135609D01*
X684981Y135585D01*
X685079Y135570D01*
X685175Y135545D01*
X685275Y135539D01*
X685295Y135535D01*
X685307Y135537D01*
X685335Y135535D01*
X697866Y135535D01*
X697984Y135550D01*
X698103Y135557D01*
X698141Y135570D01*
X698182Y135575D01*
X698292Y135618D01*
X698405Y135655D01*
X698440Y135677D01*
X698477Y135692D01*
X698573Y135761D01*
X698674Y135825D01*
X698702Y135855D01*
X698735Y135878D01*
X698811Y135970D01*
X698892Y136057D01*
X698912Y136092D01*
X698937Y136123D01*
X698988Y136231D01*
X699046Y136335D01*
X699056Y136375D01*
X699073Y136411D01*
X699095Y136528D01*
X699125Y136643D01*
X699129Y136703D01*
X699133Y136723D01*
X699131Y136744D01*
X699135Y136804D01*
X699135Y138384D01*
X699554Y138803D01*
X699627Y138897D01*
X699706Y138986D01*
X699724Y139022D01*
X699749Y139054D01*
X699796Y139163D01*
X699850Y139269D01*
X699859Y139308D01*
X699875Y139346D01*
X699894Y139463D01*
X699920Y139579D01*
X699919Y139620D01*
X699925Y139660D01*
X699914Y139778D01*
X699910Y139897D01*
X699899Y139936D01*
X699895Y139976D01*
X699855Y140088D01*
X699822Y140203D01*
X699802Y140238D01*
X699788Y140276D01*
X699721Y140374D01*
X699660Y140477D01*
X699621Y140522D01*
X699609Y140539D01*
X699594Y140552D01*
X699554Y140598D01*
X699135Y141016D01*
X699135Y157384D01*
X701516Y159765D01*
X704596Y159765D01*
X704714Y159780D01*
X704833Y159787D01*
X704871Y159800D01*
X704912Y159805D01*
X705022Y159848D01*
X705135Y159885D01*
X705170Y159907D01*
X705207Y159922D01*
X705303Y159991D01*
X705404Y160055D01*
X705432Y160085D01*
X705465Y160108D01*
X705541Y160200D01*
X705622Y160287D01*
X705642Y160322D01*
X705667Y160353D01*
X705718Y160461D01*
X705776Y160565D01*
X705786Y160605D01*
X705803Y160641D01*
X705825Y160758D01*
X705855Y160873D01*
X705859Y160933D01*
X705863Y160953D01*
X705861Y160974D01*
X705865Y161034D01*
X705865Y168666D01*
X705850Y168784D01*
X705843Y168903D01*
X705830Y168941D01*
X705825Y168982D01*
X705782Y169092D01*
X705745Y169205D01*
X705723Y169240D01*
X705708Y169277D01*
X705639Y169373D01*
X705575Y169474D01*
X705545Y169502D01*
X705522Y169535D01*
X705430Y169611D01*
X705343Y169692D01*
X705308Y169712D01*
X705277Y169737D01*
X705169Y169788D01*
X705065Y169846D01*
X705025Y169856D01*
X704989Y169873D01*
X704872Y169895D01*
X704757Y169925D01*
X704697Y169929D01*
X704677Y169933D01*
X704656Y169931D01*
X704596Y169935D01*
X703516Y169935D01*
X701135Y172316D01*
X701135Y187684D01*
X703516Y190065D01*
X704161Y190065D01*
X704313Y190084D01*
X704464Y190101D01*
X704470Y190104D01*
X704477Y190105D01*
X704619Y190161D01*
X704761Y190215D01*
X704766Y190219D01*
X704772Y190222D01*
X704896Y190311D01*
X705020Y190399D01*
X705024Y190404D01*
X705030Y190408D01*
X705127Y190525D01*
X705225Y190642D01*
X705228Y190648D01*
X705233Y190653D01*
X705297Y190790D01*
X705364Y190928D01*
X705365Y190935D01*
X705368Y190941D01*
X705396Y191089D01*
X705427Y191240D01*
X705427Y191247D01*
X705428Y191253D01*
X705418Y191405D01*
X705411Y191558D01*
X705409Y191564D01*
X705408Y191571D01*
X705362Y191714D01*
X705316Y191861D01*
X705312Y191867D01*
X705310Y191873D01*
X705229Y192001D01*
X705148Y192132D01*
X705144Y192136D01*
X705140Y192142D01*
X705029Y192247D01*
X704919Y192352D01*
X704913Y192355D01*
X704908Y192360D01*
X704775Y192434D01*
X704642Y192509D01*
X704634Y192511D01*
X704630Y192514D01*
X704619Y192516D01*
X704490Y192560D01*
X704219Y192632D01*
X703640Y192967D01*
X703167Y193440D01*
X702832Y194019D01*
X702659Y194666D01*
X702659Y198461D01*
X709930Y198461D01*
X710048Y198476D01*
X710167Y198483D01*
X710205Y198496D01*
X710245Y198501D01*
X710356Y198544D01*
X710469Y198581D01*
X710504Y198603D01*
X710541Y198618D01*
X710637Y198688D01*
X710738Y198751D01*
X710766Y198781D01*
X710798Y198805D01*
X710874Y198896D01*
X710956Y198983D01*
X710975Y199018D01*
X711001Y199049D01*
X711052Y199157D01*
X711109Y199261D01*
X711120Y199301D01*
X711137Y199337D01*
X711159Y199454D01*
X711189Y199569D01*
X711193Y199630D01*
X711197Y199650D01*
X711195Y199670D01*
X711199Y199730D01*
X711199Y201001D01*
X711201Y201001D01*
X711201Y199730D01*
X711216Y199612D01*
X711223Y199493D01*
X711236Y199455D01*
X711241Y199415D01*
X711285Y199304D01*
X711321Y199191D01*
X711343Y199156D01*
X711358Y199119D01*
X711428Y199023D01*
X711491Y198922D01*
X711521Y198894D01*
X711545Y198861D01*
X711636Y198786D01*
X711723Y198704D01*
X711758Y198684D01*
X711790Y198659D01*
X711897Y198608D01*
X712001Y198550D01*
X712041Y198540D01*
X712077Y198523D01*
X712194Y198501D01*
X712309Y198471D01*
X712370Y198467D01*
X712390Y198463D01*
X712410Y198465D01*
X712470Y198461D01*
X719741Y198461D01*
X719741Y194666D01*
X719568Y194019D01*
X719233Y193440D01*
X718760Y192967D01*
X718181Y192632D01*
X717910Y192560D01*
X717769Y192502D01*
X717628Y192446D01*
X717622Y192442D01*
X717616Y192440D01*
X717493Y192349D01*
X717370Y192260D01*
X717366Y192254D01*
X717361Y192250D01*
X717264Y192132D01*
X717167Y192015D01*
X717165Y192008D01*
X717160Y192003D01*
X717096Y191863D01*
X717032Y191727D01*
X717031Y191720D01*
X717028Y191714D01*
X717000Y191563D01*
X716972Y191414D01*
X716973Y191408D01*
X716971Y191401D01*
X716983Y191247D01*
X716992Y191097D01*
X716994Y191091D01*
X716994Y191084D01*
X717043Y190939D01*
X717090Y190795D01*
X717093Y190789D01*
X717096Y190782D01*
X717178Y190655D01*
X717260Y190526D01*
X717265Y190521D01*
X717269Y190516D01*
X717381Y190412D01*
X717492Y190308D01*
X717498Y190305D01*
X717503Y190300D01*
X717637Y190228D01*
X717770Y190154D01*
X717777Y190153D01*
X717783Y190150D01*
X717931Y190113D01*
X718078Y190075D01*
X718087Y190074D01*
X718091Y190073D01*
X718102Y190073D01*
X718239Y190065D01*
X718884Y190065D01*
X721265Y187684D01*
X721265Y172316D01*
X718884Y169935D01*
X717804Y169935D01*
X717686Y169920D01*
X717567Y169913D01*
X717529Y169900D01*
X717488Y169895D01*
X717378Y169852D01*
X717265Y169815D01*
X717230Y169793D01*
X717193Y169778D01*
X717097Y169709D01*
X716996Y169645D01*
X716968Y169615D01*
X716935Y169592D01*
X716859Y169500D01*
X716778Y169413D01*
X716758Y169378D01*
X716733Y169347D01*
X716682Y169239D01*
X716624Y169135D01*
X716614Y169095D01*
X716597Y169059D01*
X716575Y168942D01*
X716545Y168827D01*
X716541Y168767D01*
X716537Y168747D01*
X716539Y168726D01*
X716535Y168666D01*
X716535Y161034D01*
X716550Y160916D01*
X716557Y160797D01*
X716570Y160759D01*
X716575Y160718D01*
X716618Y160608D01*
X716655Y160495D01*
X716677Y160460D01*
X716692Y160423D01*
X716761Y160327D01*
X716825Y160226D01*
X716855Y160198D01*
X716878Y160165D01*
X716970Y160089D01*
X717057Y160008D01*
X717092Y159988D01*
X717123Y159963D01*
X717231Y159912D01*
X717335Y159854D01*
X717375Y159844D01*
X717411Y159827D01*
X717528Y159805D01*
X717643Y159775D01*
X717703Y159771D01*
X717723Y159767D01*
X717744Y159769D01*
X717804Y159765D01*
X720884Y159765D01*
X723265Y157384D01*
X723265Y141016D01*
X722846Y140598D01*
X722773Y140504D01*
X722694Y140414D01*
X722676Y140378D01*
X722651Y140346D01*
X722604Y140237D01*
X722550Y140131D01*
X722541Y140092D01*
X722525Y140054D01*
X722506Y139937D01*
X722480Y139821D01*
X722481Y139780D01*
X722475Y139740D01*
X722486Y139622D01*
X722490Y139503D01*
X722501Y139464D01*
X722505Y139424D01*
X722545Y139312D01*
X722578Y139197D01*
X722598Y139162D01*
X722612Y139124D01*
X722679Y139026D01*
X722739Y138923D01*
X722779Y138878D01*
X722791Y138861D01*
X722806Y138848D01*
X722846Y138803D01*
X723265Y138384D01*
X723265Y122016D01*
X720884Y119635D01*
X701516Y119635D01*
G37*
%LPD*%
%LPC*%
G36*
X836639Y227103D02*
X836639Y227103D01*
X833755Y228298D01*
X831548Y230505D01*
X830353Y233389D01*
X830353Y236511D01*
X831548Y239395D01*
X833755Y241602D01*
X836639Y242797D01*
X837977Y242797D01*
X838075Y242809D01*
X838174Y242812D01*
X838232Y242829D01*
X838292Y242837D01*
X838384Y242873D01*
X838479Y242901D01*
X838531Y242931D01*
X838588Y242954D01*
X838668Y243012D01*
X838753Y243062D01*
X838829Y243128D01*
X838845Y243140D01*
X838853Y243150D01*
X838874Y243168D01*
X857894Y262188D01*
X857954Y262266D01*
X858022Y262338D01*
X858051Y262391D01*
X858088Y262439D01*
X858128Y262530D01*
X858176Y262617D01*
X858191Y262675D01*
X858215Y262731D01*
X858230Y262829D01*
X858255Y262925D01*
X858261Y263025D01*
X858265Y263045D01*
X858263Y263057D01*
X858265Y263085D01*
X858265Y289365D01*
X858253Y289463D01*
X858250Y289562D01*
X858233Y289620D01*
X858225Y289680D01*
X858189Y289772D01*
X858161Y289867D01*
X858131Y289919D01*
X858108Y289976D01*
X858050Y290056D01*
X858000Y290141D01*
X857934Y290217D01*
X857922Y290233D01*
X857912Y290241D01*
X857894Y290262D01*
X849062Y299094D01*
X848984Y299154D01*
X848912Y299222D01*
X848859Y299251D01*
X848811Y299288D01*
X848720Y299328D01*
X848633Y299376D01*
X848575Y299391D01*
X848519Y299415D01*
X848421Y299430D01*
X848325Y299455D01*
X848225Y299461D01*
X848205Y299465D01*
X848193Y299463D01*
X848165Y299465D01*
X846834Y299465D01*
X846716Y299450D01*
X846597Y299443D01*
X846559Y299430D01*
X846518Y299425D01*
X846408Y299382D01*
X846295Y299345D01*
X846260Y299323D01*
X846223Y299308D01*
X846127Y299239D01*
X846026Y299175D01*
X845998Y299145D01*
X845965Y299122D01*
X845889Y299030D01*
X845808Y298943D01*
X845788Y298908D01*
X845763Y298877D01*
X845712Y298769D01*
X845654Y298665D01*
X845644Y298625D01*
X845627Y298589D01*
X845605Y298472D01*
X845575Y298357D01*
X845571Y298297D01*
X845567Y298277D01*
X845569Y298256D01*
X845565Y298196D01*
X845565Y295116D01*
X843184Y292735D01*
X826816Y292735D01*
X826397Y293154D01*
X826303Y293227D01*
X826214Y293306D01*
X826178Y293324D01*
X826146Y293349D01*
X826037Y293396D01*
X825931Y293450D01*
X825892Y293459D01*
X825854Y293475D01*
X825737Y293494D01*
X825621Y293520D01*
X825580Y293519D01*
X825540Y293525D01*
X825422Y293514D01*
X825303Y293510D01*
X825264Y293499D01*
X825224Y293495D01*
X825112Y293455D01*
X824997Y293422D01*
X824962Y293402D01*
X824924Y293388D01*
X824826Y293321D01*
X824723Y293260D01*
X824678Y293221D01*
X824661Y293209D01*
X824648Y293194D01*
X824602Y293154D01*
X824184Y292735D01*
X807816Y292735D01*
X805435Y295116D01*
X805435Y314484D01*
X807094Y316142D01*
X807154Y316220D01*
X807222Y316292D01*
X807251Y316345D01*
X807288Y316393D01*
X807328Y316484D01*
X807376Y316571D01*
X807391Y316629D01*
X807415Y316685D01*
X807430Y316783D01*
X807455Y316879D01*
X807461Y316979D01*
X807465Y316999D01*
X807463Y317011D01*
X807465Y317039D01*
X807465Y321066D01*
X807450Y321184D01*
X807443Y321303D01*
X807430Y321341D01*
X807425Y321382D01*
X807382Y321492D01*
X807345Y321605D01*
X807323Y321640D01*
X807308Y321677D01*
X807239Y321773D01*
X807175Y321874D01*
X807145Y321902D01*
X807122Y321935D01*
X807030Y322011D01*
X806943Y322092D01*
X806908Y322112D01*
X806877Y322137D01*
X806769Y322188D01*
X806665Y322246D01*
X806625Y322256D01*
X806589Y322273D01*
X806472Y322295D01*
X806357Y322325D01*
X806297Y322329D01*
X806277Y322333D01*
X806256Y322331D01*
X806196Y322335D01*
X805116Y322335D01*
X802735Y324716D01*
X802735Y340084D01*
X805116Y342465D01*
X805761Y342465D01*
X805912Y342484D01*
X806064Y342501D01*
X806070Y342504D01*
X806077Y342505D01*
X806218Y342561D01*
X806361Y342615D01*
X806366Y342619D01*
X806372Y342622D01*
X806496Y342711D01*
X806620Y342799D01*
X806624Y342804D01*
X806630Y342808D01*
X806727Y342926D01*
X806825Y343042D01*
X806828Y343048D01*
X806833Y343053D01*
X806897Y343191D01*
X806964Y343328D01*
X806965Y343335D01*
X806968Y343341D01*
X806997Y343490D01*
X807027Y343640D01*
X807027Y343647D01*
X807028Y343653D01*
X807019Y343804D01*
X807011Y343958D01*
X807009Y343964D01*
X807008Y343971D01*
X806962Y344114D01*
X806916Y344261D01*
X806912Y344267D01*
X806910Y344273D01*
X806829Y344401D01*
X806748Y344532D01*
X806744Y344536D01*
X806740Y344542D01*
X806628Y344647D01*
X806519Y344752D01*
X806513Y344755D01*
X806508Y344760D01*
X806374Y344834D01*
X806242Y344909D01*
X806234Y344911D01*
X806230Y344914D01*
X806219Y344916D01*
X806090Y344960D01*
X805819Y345032D01*
X805240Y345367D01*
X804767Y345840D01*
X804432Y346419D01*
X804259Y347066D01*
X804259Y350861D01*
X811530Y350861D01*
X811648Y350876D01*
X811767Y350883D01*
X811805Y350896D01*
X811845Y350901D01*
X811956Y350944D01*
X812069Y350981D01*
X812104Y351003D01*
X812141Y351018D01*
X812237Y351088D01*
X812338Y351151D01*
X812366Y351181D01*
X812398Y351205D01*
X812474Y351296D01*
X812556Y351383D01*
X812575Y351418D01*
X812601Y351449D01*
X812652Y351557D01*
X812709Y351661D01*
X812720Y351701D01*
X812737Y351737D01*
X812759Y351854D01*
X812789Y351969D01*
X812793Y352030D01*
X812797Y352050D01*
X812795Y352070D01*
X812799Y352130D01*
X812799Y353401D01*
X812801Y353401D01*
X812801Y352130D01*
X812816Y352012D01*
X812823Y351893D01*
X812836Y351855D01*
X812841Y351815D01*
X812885Y351704D01*
X812921Y351591D01*
X812943Y351556D01*
X812958Y351519D01*
X813028Y351423D01*
X813091Y351322D01*
X813121Y351294D01*
X813145Y351261D01*
X813236Y351186D01*
X813323Y351104D01*
X813358Y351084D01*
X813390Y351059D01*
X813497Y351008D01*
X813601Y350950D01*
X813641Y350940D01*
X813677Y350923D01*
X813794Y350901D01*
X813909Y350871D01*
X813970Y350867D01*
X813990Y350863D01*
X814010Y350865D01*
X814070Y350861D01*
X821341Y350861D01*
X821341Y347066D01*
X821168Y346419D01*
X820833Y345840D01*
X820360Y345367D01*
X819781Y345032D01*
X819510Y344960D01*
X819369Y344902D01*
X819228Y344846D01*
X819222Y344842D01*
X819216Y344840D01*
X819094Y344750D01*
X818970Y344660D01*
X818966Y344654D01*
X818961Y344650D01*
X818865Y344532D01*
X818767Y344415D01*
X818765Y344408D01*
X818760Y344403D01*
X818696Y344264D01*
X818632Y344127D01*
X818631Y344120D01*
X818628Y344114D01*
X818600Y343963D01*
X818572Y343814D01*
X818572Y343808D01*
X818571Y343801D01*
X818582Y343649D01*
X818592Y343497D01*
X818594Y343491D01*
X818594Y343484D01*
X818643Y343340D01*
X818690Y343195D01*
X818693Y343189D01*
X818696Y343182D01*
X818778Y343055D01*
X818860Y342926D01*
X818865Y342921D01*
X818869Y342916D01*
X818981Y342812D01*
X819092Y342708D01*
X819098Y342705D01*
X819102Y342700D01*
X819237Y342628D01*
X819370Y342554D01*
X819377Y342553D01*
X819383Y342550D01*
X819531Y342513D01*
X819678Y342475D01*
X819687Y342474D01*
X819691Y342473D01*
X819702Y342473D01*
X819839Y342465D01*
X820484Y342465D01*
X822865Y340084D01*
X822865Y324716D01*
X820484Y322335D01*
X819404Y322335D01*
X819286Y322320D01*
X819167Y322313D01*
X819129Y322300D01*
X819088Y322295D01*
X818978Y322252D01*
X818865Y322215D01*
X818830Y322193D01*
X818793Y322178D01*
X818697Y322109D01*
X818596Y322045D01*
X818568Y322015D01*
X818535Y321992D01*
X818459Y321900D01*
X818378Y321813D01*
X818358Y321778D01*
X818333Y321747D01*
X818282Y321639D01*
X818224Y321535D01*
X818214Y321495D01*
X818197Y321459D01*
X818175Y321342D01*
X818145Y321227D01*
X818141Y321167D01*
X818137Y321147D01*
X818139Y321126D01*
X818135Y321066D01*
X818135Y318134D01*
X818150Y318016D01*
X818157Y317897D01*
X818170Y317859D01*
X818175Y317818D01*
X818218Y317708D01*
X818255Y317595D01*
X818277Y317560D01*
X818292Y317523D01*
X818361Y317427D01*
X818425Y317326D01*
X818455Y317298D01*
X818478Y317265D01*
X818570Y317189D01*
X818657Y317108D01*
X818692Y317088D01*
X818723Y317063D01*
X818831Y317012D01*
X818935Y316954D01*
X818975Y316944D01*
X819011Y316927D01*
X819128Y316905D01*
X819243Y316875D01*
X819303Y316871D01*
X819323Y316867D01*
X819344Y316869D01*
X819404Y316865D01*
X824184Y316865D01*
X824602Y316446D01*
X824696Y316373D01*
X824786Y316294D01*
X824822Y316276D01*
X824854Y316251D01*
X824963Y316204D01*
X825069Y316150D01*
X825108Y316141D01*
X825146Y316125D01*
X825263Y316106D01*
X825379Y316080D01*
X825420Y316081D01*
X825460Y316075D01*
X825578Y316086D01*
X825697Y316090D01*
X825736Y316101D01*
X825776Y316105D01*
X825888Y316145D01*
X826003Y316178D01*
X826038Y316198D01*
X826076Y316212D01*
X826174Y316279D01*
X826277Y316339D01*
X826322Y316379D01*
X826339Y316391D01*
X826352Y316406D01*
X826397Y316446D01*
X826816Y316865D01*
X843184Y316865D01*
X845565Y314484D01*
X845565Y311404D01*
X845580Y311286D01*
X845587Y311167D01*
X845600Y311129D01*
X845605Y311088D01*
X845648Y310978D01*
X845685Y310865D01*
X845707Y310830D01*
X845722Y310793D01*
X845791Y310697D01*
X845855Y310596D01*
X845885Y310568D01*
X845908Y310535D01*
X846000Y310459D01*
X846087Y310378D01*
X846122Y310358D01*
X846153Y310333D01*
X846261Y310282D01*
X846365Y310224D01*
X846405Y310214D01*
X846441Y310197D01*
X846558Y310175D01*
X846673Y310145D01*
X846733Y310141D01*
X846753Y310137D01*
X846774Y310139D01*
X846834Y310135D01*
X851961Y310135D01*
X853922Y309323D01*
X868123Y295122D01*
X868935Y293161D01*
X868935Y259289D01*
X868123Y257328D01*
X866444Y255649D01*
X866443Y255649D01*
X846418Y235624D01*
X846358Y235546D01*
X846290Y235474D01*
X846261Y235421D01*
X846224Y235373D01*
X846184Y235282D01*
X846136Y235195D01*
X846121Y235137D01*
X846097Y235081D01*
X846082Y234983D01*
X846057Y234887D01*
X846051Y234787D01*
X846047Y234767D01*
X846049Y234755D01*
X846047Y234727D01*
X846047Y233389D01*
X844852Y230505D01*
X842645Y228298D01*
X839761Y227103D01*
X836639Y227103D01*
G37*
%LPD*%
%LPC*%
G36*
X912839Y233453D02*
X912839Y233453D01*
X909955Y234648D01*
X907748Y236855D01*
X906553Y239739D01*
X906553Y242861D01*
X907748Y245745D01*
X908694Y246690D01*
X908754Y246769D01*
X908822Y246841D01*
X908851Y246894D01*
X908888Y246942D01*
X908928Y247033D01*
X908976Y247119D01*
X908991Y247178D01*
X909015Y247234D01*
X909030Y247332D01*
X909055Y247427D01*
X909061Y247527D01*
X909065Y247548D01*
X909063Y247560D01*
X909065Y247588D01*
X909065Y270766D01*
X909050Y270884D01*
X909043Y271003D01*
X909030Y271041D01*
X909025Y271082D01*
X908982Y271192D01*
X908945Y271305D01*
X908923Y271340D01*
X908908Y271377D01*
X908839Y271473D01*
X908775Y271574D01*
X908745Y271602D01*
X908722Y271635D01*
X908630Y271711D01*
X908543Y271792D01*
X908508Y271812D01*
X908477Y271837D01*
X908369Y271888D01*
X908265Y271946D01*
X908225Y271956D01*
X908189Y271973D01*
X908072Y271995D01*
X907957Y272025D01*
X907897Y272029D01*
X907877Y272033D01*
X907856Y272031D01*
X907796Y272035D01*
X904716Y272035D01*
X902335Y274416D01*
X902335Y290784D01*
X902754Y291203D01*
X902827Y291297D01*
X902906Y291386D01*
X902924Y291422D01*
X902949Y291454D01*
X902996Y291563D01*
X903050Y291669D01*
X903059Y291708D01*
X903075Y291746D01*
X903094Y291863D01*
X903120Y291979D01*
X903119Y292020D01*
X903125Y292060D01*
X903114Y292178D01*
X903110Y292297D01*
X903099Y292336D01*
X903095Y292376D01*
X903055Y292488D01*
X903022Y292603D01*
X903002Y292638D01*
X902988Y292676D01*
X902921Y292774D01*
X902860Y292877D01*
X902821Y292922D01*
X902809Y292939D01*
X902794Y292952D01*
X902754Y292998D01*
X902335Y293416D01*
X902335Y309784D01*
X904716Y312165D01*
X907796Y312165D01*
X907914Y312180D01*
X908033Y312187D01*
X908071Y312200D01*
X908112Y312205D01*
X908222Y312248D01*
X908335Y312285D01*
X908370Y312307D01*
X908407Y312322D01*
X908503Y312391D01*
X908604Y312455D01*
X908632Y312485D01*
X908665Y312508D01*
X908741Y312600D01*
X908822Y312687D01*
X908842Y312722D01*
X908867Y312753D01*
X908918Y312861D01*
X908976Y312965D01*
X908986Y313005D01*
X909003Y313041D01*
X909025Y313158D01*
X909055Y313273D01*
X909059Y313333D01*
X909063Y313353D01*
X909061Y313374D01*
X909065Y313434D01*
X909065Y321066D01*
X909050Y321184D01*
X909043Y321303D01*
X909030Y321341D01*
X909025Y321382D01*
X908982Y321492D01*
X908945Y321605D01*
X908923Y321640D01*
X908908Y321677D01*
X908839Y321773D01*
X908775Y321874D01*
X908745Y321902D01*
X908722Y321935D01*
X908630Y322011D01*
X908543Y322092D01*
X908508Y322112D01*
X908477Y322137D01*
X908369Y322188D01*
X908265Y322246D01*
X908225Y322256D01*
X908189Y322273D01*
X908072Y322295D01*
X907957Y322325D01*
X907897Y322329D01*
X907877Y322333D01*
X907856Y322331D01*
X907796Y322335D01*
X906716Y322335D01*
X904335Y324716D01*
X904335Y340084D01*
X906716Y342465D01*
X907361Y342465D01*
X907513Y342484D01*
X907664Y342501D01*
X907670Y342504D01*
X907677Y342505D01*
X907819Y342561D01*
X907961Y342615D01*
X907966Y342619D01*
X907972Y342622D01*
X908096Y342711D01*
X908220Y342799D01*
X908224Y342804D01*
X908230Y342808D01*
X908327Y342926D01*
X908425Y343042D01*
X908428Y343048D01*
X908433Y343053D01*
X908497Y343190D01*
X908564Y343328D01*
X908565Y343335D01*
X908568Y343341D01*
X908596Y343489D01*
X908627Y343640D01*
X908627Y343647D01*
X908628Y343653D01*
X908618Y343805D01*
X908611Y343958D01*
X908609Y343964D01*
X908608Y343971D01*
X908562Y344114D01*
X908516Y344261D01*
X908512Y344267D01*
X908510Y344273D01*
X908429Y344401D01*
X908348Y344532D01*
X908344Y344536D01*
X908340Y344542D01*
X908229Y344647D01*
X908119Y344752D01*
X908113Y344755D01*
X908108Y344760D01*
X907975Y344834D01*
X907842Y344909D01*
X907834Y344911D01*
X907830Y344914D01*
X907819Y344916D01*
X907690Y344960D01*
X907419Y345032D01*
X906840Y345367D01*
X906367Y345840D01*
X906032Y346419D01*
X905859Y347066D01*
X905859Y350861D01*
X913130Y350861D01*
X913248Y350876D01*
X913367Y350883D01*
X913405Y350896D01*
X913445Y350901D01*
X913556Y350944D01*
X913669Y350981D01*
X913704Y351003D01*
X913741Y351018D01*
X913837Y351088D01*
X913938Y351151D01*
X913966Y351181D01*
X913998Y351205D01*
X914074Y351296D01*
X914156Y351383D01*
X914175Y351418D01*
X914201Y351449D01*
X914252Y351557D01*
X914309Y351661D01*
X914320Y351701D01*
X914337Y351737D01*
X914359Y351854D01*
X914389Y351969D01*
X914393Y352030D01*
X914397Y352050D01*
X914395Y352070D01*
X914399Y352130D01*
X914399Y353401D01*
X914401Y353401D01*
X914401Y352130D01*
X914416Y352012D01*
X914423Y351893D01*
X914436Y351855D01*
X914441Y351815D01*
X914485Y351704D01*
X914521Y351591D01*
X914543Y351556D01*
X914558Y351519D01*
X914628Y351423D01*
X914691Y351322D01*
X914721Y351294D01*
X914745Y351261D01*
X914836Y351186D01*
X914923Y351104D01*
X914958Y351084D01*
X914990Y351059D01*
X915097Y351008D01*
X915201Y350950D01*
X915241Y350940D01*
X915277Y350923D01*
X915394Y350901D01*
X915509Y350871D01*
X915570Y350867D01*
X915590Y350863D01*
X915610Y350865D01*
X915670Y350861D01*
X922941Y350861D01*
X922941Y347066D01*
X922768Y346419D01*
X922433Y345840D01*
X921960Y345367D01*
X921381Y345032D01*
X921110Y344960D01*
X920969Y344902D01*
X920828Y344846D01*
X920822Y344842D01*
X920816Y344840D01*
X920693Y344749D01*
X920570Y344660D01*
X920566Y344654D01*
X920561Y344650D01*
X920465Y344532D01*
X920367Y344415D01*
X920365Y344408D01*
X920360Y344403D01*
X920296Y344263D01*
X920232Y344127D01*
X920231Y344120D01*
X920228Y344114D01*
X920200Y343963D01*
X920172Y343814D01*
X920173Y343808D01*
X920171Y343801D01*
X920182Y343649D01*
X920192Y343497D01*
X920194Y343491D01*
X920194Y343484D01*
X920243Y343339D01*
X920290Y343195D01*
X920293Y343189D01*
X920296Y343182D01*
X920378Y343055D01*
X920460Y342926D01*
X920465Y342921D01*
X920469Y342916D01*
X920581Y342812D01*
X920692Y342708D01*
X920698Y342705D01*
X920703Y342700D01*
X920837Y342628D01*
X920970Y342554D01*
X920977Y342553D01*
X920983Y342550D01*
X921131Y342513D01*
X921278Y342475D01*
X921287Y342474D01*
X921291Y342473D01*
X921302Y342473D01*
X921439Y342465D01*
X922084Y342465D01*
X924465Y340084D01*
X924465Y324716D01*
X922084Y322335D01*
X921004Y322335D01*
X920886Y322320D01*
X920767Y322313D01*
X920729Y322300D01*
X920688Y322295D01*
X920578Y322252D01*
X920465Y322215D01*
X920430Y322193D01*
X920393Y322178D01*
X920297Y322109D01*
X920196Y322045D01*
X920168Y322015D01*
X920135Y321992D01*
X920059Y321900D01*
X919978Y321813D01*
X919958Y321778D01*
X919933Y321747D01*
X919882Y321639D01*
X919824Y321535D01*
X919814Y321495D01*
X919797Y321459D01*
X919775Y321342D01*
X919745Y321227D01*
X919741Y321167D01*
X919737Y321147D01*
X919739Y321126D01*
X919735Y321066D01*
X919735Y313434D01*
X919750Y313316D01*
X919757Y313197D01*
X919770Y313159D01*
X919775Y313118D01*
X919818Y313008D01*
X919855Y312895D01*
X919877Y312860D01*
X919892Y312823D01*
X919961Y312727D01*
X920025Y312626D01*
X920055Y312598D01*
X920078Y312565D01*
X920170Y312489D01*
X920257Y312408D01*
X920292Y312388D01*
X920323Y312363D01*
X920431Y312312D01*
X920535Y312254D01*
X920575Y312244D01*
X920611Y312227D01*
X920728Y312205D01*
X920843Y312175D01*
X920903Y312171D01*
X920923Y312167D01*
X920944Y312169D01*
X921004Y312165D01*
X924084Y312165D01*
X926465Y309784D01*
X926465Y293416D01*
X926046Y292998D01*
X925973Y292904D01*
X925894Y292814D01*
X925876Y292778D01*
X925851Y292746D01*
X925804Y292637D01*
X925750Y292531D01*
X925741Y292492D01*
X925725Y292454D01*
X925706Y292337D01*
X925680Y292221D01*
X925681Y292180D01*
X925675Y292140D01*
X925686Y292022D01*
X925690Y291903D01*
X925701Y291864D01*
X925705Y291824D01*
X925745Y291712D01*
X925778Y291597D01*
X925798Y291562D01*
X925812Y291524D01*
X925879Y291426D01*
X925939Y291323D01*
X925979Y291278D01*
X925991Y291261D01*
X926006Y291248D01*
X926046Y291203D01*
X926465Y290784D01*
X926465Y274416D01*
X924084Y272035D01*
X921004Y272035D01*
X920886Y272020D01*
X920767Y272013D01*
X920729Y272000D01*
X920688Y271995D01*
X920578Y271952D01*
X920465Y271915D01*
X920430Y271893D01*
X920393Y271878D01*
X920297Y271809D01*
X920196Y271745D01*
X920168Y271715D01*
X920135Y271692D01*
X920059Y271600D01*
X919978Y271513D01*
X919958Y271478D01*
X919933Y271447D01*
X919882Y271339D01*
X919824Y271235D01*
X919814Y271195D01*
X919797Y271159D01*
X919775Y271042D01*
X919745Y270927D01*
X919741Y270867D01*
X919737Y270847D01*
X919739Y270826D01*
X919735Y270766D01*
X919735Y247588D01*
X919747Y247490D01*
X919750Y247391D01*
X919767Y247333D01*
X919775Y247272D01*
X919811Y247180D01*
X919839Y247085D01*
X919869Y247033D01*
X919892Y246977D01*
X919950Y246897D01*
X920000Y246811D01*
X920066Y246736D01*
X920078Y246719D01*
X920088Y246712D01*
X920106Y246690D01*
X921052Y245745D01*
X922247Y242861D01*
X922247Y239739D01*
X921052Y236855D01*
X918845Y234648D01*
X915961Y233453D01*
X912839Y233453D01*
G37*
%LPD*%
%LPC*%
G36*
X757016Y241935D02*
X757016Y241935D01*
X754635Y244316D01*
X754635Y247396D01*
X754620Y247514D01*
X754613Y247633D01*
X754600Y247671D01*
X754595Y247712D01*
X754552Y247822D01*
X754515Y247935D01*
X754493Y247970D01*
X754478Y248007D01*
X754409Y248103D01*
X754345Y248204D01*
X754315Y248232D01*
X754292Y248265D01*
X754200Y248341D01*
X754113Y248422D01*
X754078Y248442D01*
X754047Y248467D01*
X753939Y248518D01*
X753835Y248576D01*
X753795Y248586D01*
X753759Y248603D01*
X753642Y248625D01*
X753527Y248655D01*
X753467Y248659D01*
X753447Y248663D01*
X753426Y248661D01*
X753366Y248665D01*
X736538Y248665D01*
X736440Y248653D01*
X736341Y248650D01*
X736283Y248633D01*
X736222Y248625D01*
X736130Y248589D01*
X736035Y248561D01*
X735983Y248531D01*
X735927Y248508D01*
X735847Y248450D01*
X735761Y248400D01*
X735686Y248334D01*
X735669Y248322D01*
X735662Y248312D01*
X735640Y248294D01*
X734695Y247348D01*
X731811Y246153D01*
X728689Y246153D01*
X725805Y247348D01*
X723598Y249555D01*
X722403Y252439D01*
X722403Y255561D01*
X723598Y258445D01*
X725805Y260652D01*
X728689Y261847D01*
X731811Y261847D01*
X734695Y260652D01*
X735640Y259706D01*
X735719Y259646D01*
X735791Y259578D01*
X735844Y259549D01*
X735892Y259512D01*
X735983Y259472D01*
X736069Y259424D01*
X736128Y259409D01*
X736184Y259385D01*
X736282Y259370D01*
X736377Y259345D01*
X736477Y259339D01*
X736498Y259335D01*
X736510Y259337D01*
X736538Y259335D01*
X753366Y259335D01*
X753484Y259350D01*
X753603Y259357D01*
X753641Y259370D01*
X753682Y259375D01*
X753792Y259418D01*
X753905Y259455D01*
X753940Y259477D01*
X753977Y259492D01*
X754073Y259561D01*
X754174Y259625D01*
X754202Y259655D01*
X754235Y259678D01*
X754311Y259770D01*
X754392Y259857D01*
X754412Y259892D01*
X754437Y259923D01*
X754488Y260031D01*
X754546Y260135D01*
X754556Y260175D01*
X754573Y260211D01*
X754595Y260328D01*
X754625Y260443D01*
X754629Y260503D01*
X754633Y260523D01*
X754631Y260544D01*
X754635Y260604D01*
X754635Y263684D01*
X757016Y266065D01*
X773384Y266065D01*
X773803Y265646D01*
X773883Y265584D01*
X773947Y265523D01*
X773963Y265515D01*
X773986Y265494D01*
X774022Y265476D01*
X774054Y265451D01*
X774163Y265404D01*
X774174Y265398D01*
X774226Y265370D01*
X774234Y265368D01*
X774269Y265350D01*
X774308Y265341D01*
X774346Y265325D01*
X774463Y265306D01*
X774579Y265280D01*
X774620Y265281D01*
X774660Y265275D01*
X774778Y265286D01*
X774897Y265290D01*
X774936Y265301D01*
X774976Y265305D01*
X775017Y265319D01*
X775021Y265320D01*
X775047Y265330D01*
X775088Y265345D01*
X775203Y265378D01*
X775238Y265398D01*
X775276Y265412D01*
X775305Y265432D01*
X775317Y265437D01*
X775380Y265482D01*
X775477Y265540D01*
X775522Y265579D01*
X775539Y265591D01*
X775552Y265606D01*
X775562Y265615D01*
X775574Y265624D01*
X775580Y265631D01*
X775598Y265646D01*
X776016Y266065D01*
X792384Y266065D01*
X794765Y263684D01*
X794765Y260604D01*
X794780Y260486D01*
X794787Y260367D01*
X794800Y260329D01*
X794805Y260288D01*
X794848Y260178D01*
X794885Y260065D01*
X794907Y260030D01*
X794922Y259993D01*
X794991Y259897D01*
X795055Y259796D01*
X795085Y259768D01*
X795108Y259735D01*
X795200Y259659D01*
X795287Y259578D01*
X795322Y259558D01*
X795353Y259533D01*
X795461Y259482D01*
X795565Y259424D01*
X795605Y259414D01*
X795641Y259397D01*
X795758Y259375D01*
X795873Y259345D01*
X795933Y259341D01*
X795953Y259337D01*
X795974Y259339D01*
X796034Y259335D01*
X801466Y259335D01*
X801584Y259350D01*
X801703Y259357D01*
X801741Y259370D01*
X801782Y259375D01*
X801892Y259418D01*
X802005Y259455D01*
X802040Y259477D01*
X802077Y259492D01*
X802173Y259561D01*
X802274Y259625D01*
X802302Y259655D01*
X802335Y259678D01*
X802411Y259770D01*
X802492Y259857D01*
X802512Y259892D01*
X802537Y259923D01*
X802588Y260031D01*
X802646Y260135D01*
X802656Y260175D01*
X802673Y260211D01*
X802695Y260328D01*
X802725Y260443D01*
X802729Y260503D01*
X802733Y260523D01*
X802731Y260544D01*
X802735Y260604D01*
X802735Y263884D01*
X805116Y266265D01*
X805761Y266265D01*
X805913Y266284D01*
X806064Y266301D01*
X806070Y266304D01*
X806077Y266305D01*
X806219Y266361D01*
X806361Y266415D01*
X806366Y266419D01*
X806372Y266422D01*
X806496Y266511D01*
X806620Y266599D01*
X806624Y266604D01*
X806630Y266608D01*
X806727Y266726D01*
X806825Y266842D01*
X806828Y266848D01*
X806833Y266853D01*
X806897Y266990D01*
X806964Y267128D01*
X806965Y267135D01*
X806968Y267141D01*
X806996Y267289D01*
X807027Y267440D01*
X807027Y267447D01*
X807028Y267453D01*
X807018Y267605D01*
X807011Y267758D01*
X807009Y267764D01*
X807008Y267771D01*
X806962Y267914D01*
X806916Y268061D01*
X806912Y268067D01*
X806910Y268073D01*
X806829Y268201D01*
X806748Y268332D01*
X806744Y268336D01*
X806740Y268342D01*
X806629Y268446D01*
X806519Y268552D01*
X806513Y268555D01*
X806508Y268560D01*
X806375Y268634D01*
X806242Y268709D01*
X806234Y268711D01*
X806230Y268714D01*
X806219Y268716D01*
X806090Y268760D01*
X805819Y268832D01*
X805240Y269167D01*
X804767Y269640D01*
X804432Y270219D01*
X804259Y270866D01*
X804259Y274661D01*
X811530Y274661D01*
X811648Y274676D01*
X811767Y274683D01*
X811805Y274696D01*
X811845Y274701D01*
X811956Y274744D01*
X812069Y274781D01*
X812104Y274803D01*
X812141Y274818D01*
X812237Y274888D01*
X812338Y274951D01*
X812366Y274981D01*
X812398Y275005D01*
X812474Y275096D01*
X812556Y275183D01*
X812575Y275218D01*
X812601Y275249D01*
X812652Y275357D01*
X812709Y275461D01*
X812720Y275501D01*
X812737Y275537D01*
X812759Y275654D01*
X812789Y275769D01*
X812793Y275830D01*
X812797Y275850D01*
X812795Y275870D01*
X812799Y275930D01*
X812799Y277201D01*
X812801Y277201D01*
X812801Y275930D01*
X812816Y275812D01*
X812823Y275693D01*
X812836Y275655D01*
X812841Y275615D01*
X812885Y275504D01*
X812921Y275391D01*
X812943Y275356D01*
X812958Y275319D01*
X813028Y275223D01*
X813091Y275122D01*
X813121Y275094D01*
X813145Y275061D01*
X813236Y274986D01*
X813323Y274904D01*
X813358Y274884D01*
X813390Y274859D01*
X813497Y274808D01*
X813601Y274750D01*
X813641Y274740D01*
X813677Y274723D01*
X813794Y274701D01*
X813909Y274671D01*
X813970Y274667D01*
X813990Y274663D01*
X814010Y274665D01*
X814070Y274661D01*
X821341Y274661D01*
X821341Y270866D01*
X821168Y270219D01*
X820833Y269640D01*
X820360Y269167D01*
X819781Y268832D01*
X819510Y268760D01*
X819369Y268702D01*
X819228Y268646D01*
X819222Y268642D01*
X819216Y268640D01*
X819093Y268548D01*
X818970Y268460D01*
X818966Y268454D01*
X818961Y268450D01*
X818864Y268332D01*
X818767Y268215D01*
X818765Y268208D01*
X818760Y268203D01*
X818695Y268062D01*
X818632Y267927D01*
X818631Y267920D01*
X818628Y267914D01*
X818600Y267763D01*
X818572Y267614D01*
X818573Y267608D01*
X818571Y267601D01*
X818582Y267449D01*
X818592Y267297D01*
X818594Y267291D01*
X818594Y267284D01*
X818643Y267139D01*
X818690Y266995D01*
X818693Y266989D01*
X818696Y266982D01*
X818779Y266853D01*
X818860Y266726D01*
X818865Y266721D01*
X818869Y266716D01*
X818981Y266612D01*
X819092Y266508D01*
X819098Y266505D01*
X819103Y266500D01*
X819237Y266428D01*
X819370Y266354D01*
X819377Y266353D01*
X819383Y266350D01*
X819531Y266313D01*
X819678Y266275D01*
X819687Y266274D01*
X819691Y266273D01*
X819702Y266273D01*
X819839Y266265D01*
X820484Y266265D01*
X822865Y263884D01*
X822865Y248516D01*
X820484Y246135D01*
X805116Y246135D01*
X802958Y248294D01*
X802880Y248354D01*
X802808Y248422D01*
X802755Y248451D01*
X802707Y248488D01*
X802616Y248528D01*
X802529Y248576D01*
X802471Y248591D01*
X802415Y248615D01*
X802317Y248630D01*
X802221Y248655D01*
X802121Y248661D01*
X802101Y248665D01*
X802089Y248663D01*
X802061Y248665D01*
X796034Y248665D01*
X795916Y248650D01*
X795797Y248643D01*
X795759Y248630D01*
X795718Y248625D01*
X795608Y248582D01*
X795495Y248545D01*
X795460Y248523D01*
X795423Y248508D01*
X795327Y248439D01*
X795226Y248375D01*
X795198Y248345D01*
X795165Y248322D01*
X795089Y248230D01*
X795008Y248143D01*
X794988Y248108D01*
X794963Y248077D01*
X794912Y247969D01*
X794854Y247865D01*
X794844Y247825D01*
X794827Y247789D01*
X794805Y247672D01*
X794775Y247557D01*
X794771Y247497D01*
X794767Y247477D01*
X794769Y247456D01*
X794765Y247396D01*
X794765Y244316D01*
X792384Y241935D01*
X776016Y241935D01*
X775598Y242354D01*
X775504Y242427D01*
X775414Y242506D01*
X775378Y242524D01*
X775346Y242549D01*
X775237Y242596D01*
X775131Y242650D01*
X775092Y242659D01*
X775054Y242675D01*
X774937Y242694D01*
X774821Y242720D01*
X774780Y242719D01*
X774740Y242725D01*
X774622Y242714D01*
X774503Y242710D01*
X774464Y242699D01*
X774424Y242695D01*
X774312Y242655D01*
X774197Y242622D01*
X774162Y242602D01*
X774124Y242588D01*
X774026Y242521D01*
X773923Y242461D01*
X773878Y242421D01*
X773861Y242409D01*
X773848Y242394D01*
X773803Y242354D01*
X773384Y241935D01*
X757016Y241935D01*
G37*
%LPD*%
%LPC*%
G36*
X709639Y252503D02*
X709639Y252503D01*
X706755Y253698D01*
X704548Y255905D01*
X703353Y258789D01*
X703353Y261911D01*
X704548Y264795D01*
X705494Y265740D01*
X705554Y265819D01*
X705622Y265891D01*
X705651Y265944D01*
X705688Y265992D01*
X705728Y266083D01*
X705776Y266169D01*
X705791Y266228D01*
X705815Y266284D01*
X705830Y266382D01*
X705855Y266477D01*
X705861Y266577D01*
X705865Y266598D01*
X705863Y266610D01*
X705865Y266638D01*
X705865Y270766D01*
X705850Y270884D01*
X705843Y271003D01*
X705830Y271041D01*
X705825Y271082D01*
X705782Y271192D01*
X705745Y271305D01*
X705723Y271340D01*
X705708Y271377D01*
X705639Y271473D01*
X705575Y271574D01*
X705545Y271602D01*
X705522Y271635D01*
X705430Y271711D01*
X705343Y271792D01*
X705308Y271812D01*
X705277Y271837D01*
X705169Y271888D01*
X705065Y271946D01*
X705025Y271956D01*
X704989Y271973D01*
X704872Y271995D01*
X704757Y272025D01*
X704697Y272029D01*
X704677Y272033D01*
X704656Y272031D01*
X704596Y272035D01*
X701516Y272035D01*
X699135Y274416D01*
X699135Y290784D01*
X699554Y291203D01*
X699627Y291297D01*
X699706Y291386D01*
X699724Y291422D01*
X699749Y291454D01*
X699796Y291563D01*
X699850Y291669D01*
X699859Y291708D01*
X699875Y291746D01*
X699894Y291863D01*
X699920Y291979D01*
X699919Y292020D01*
X699925Y292060D01*
X699914Y292178D01*
X699910Y292297D01*
X699899Y292336D01*
X699895Y292376D01*
X699855Y292488D01*
X699822Y292603D01*
X699802Y292638D01*
X699788Y292676D01*
X699721Y292774D01*
X699660Y292877D01*
X699621Y292922D01*
X699609Y292939D01*
X699594Y292952D01*
X699554Y292998D01*
X699135Y293416D01*
X699135Y309784D01*
X701516Y312165D01*
X704596Y312165D01*
X704714Y312180D01*
X704833Y312187D01*
X704871Y312200D01*
X704912Y312205D01*
X705022Y312248D01*
X705135Y312285D01*
X705170Y312307D01*
X705207Y312322D01*
X705303Y312391D01*
X705404Y312455D01*
X705432Y312485D01*
X705465Y312508D01*
X705541Y312600D01*
X705622Y312687D01*
X705642Y312722D01*
X705667Y312753D01*
X705718Y312861D01*
X705776Y312965D01*
X705786Y313005D01*
X705803Y313041D01*
X705825Y313158D01*
X705855Y313273D01*
X705859Y313333D01*
X705863Y313353D01*
X705861Y313374D01*
X705865Y313434D01*
X705865Y321066D01*
X705850Y321184D01*
X705843Y321303D01*
X705830Y321341D01*
X705825Y321382D01*
X705782Y321492D01*
X705745Y321605D01*
X705723Y321640D01*
X705708Y321677D01*
X705639Y321773D01*
X705575Y321874D01*
X705545Y321902D01*
X705522Y321935D01*
X705430Y322011D01*
X705343Y322092D01*
X705308Y322112D01*
X705277Y322137D01*
X705169Y322188D01*
X705065Y322246D01*
X705025Y322256D01*
X704989Y322273D01*
X704872Y322295D01*
X704757Y322325D01*
X704697Y322329D01*
X704677Y322333D01*
X704656Y322331D01*
X704596Y322335D01*
X703516Y322335D01*
X701135Y324716D01*
X701135Y340084D01*
X703516Y342465D01*
X704161Y342465D01*
X704312Y342484D01*
X704464Y342501D01*
X704470Y342504D01*
X704477Y342505D01*
X704618Y342561D01*
X704761Y342615D01*
X704766Y342619D01*
X704772Y342622D01*
X704896Y342711D01*
X705020Y342799D01*
X705024Y342804D01*
X705030Y342808D01*
X705127Y342926D01*
X705225Y343042D01*
X705228Y343048D01*
X705233Y343053D01*
X705297Y343191D01*
X705364Y343328D01*
X705365Y343335D01*
X705368Y343341D01*
X705397Y343490D01*
X705427Y343640D01*
X705427Y343647D01*
X705428Y343653D01*
X705419Y343804D01*
X705411Y343958D01*
X705409Y343964D01*
X705408Y343971D01*
X705362Y344114D01*
X705316Y344261D01*
X705312Y344267D01*
X705310Y344273D01*
X705229Y344401D01*
X705148Y344532D01*
X705144Y344536D01*
X705140Y344542D01*
X705028Y344647D01*
X704919Y344752D01*
X704913Y344755D01*
X704908Y344760D01*
X704774Y344834D01*
X704642Y344909D01*
X704634Y344911D01*
X704630Y344914D01*
X704619Y344916D01*
X704490Y344960D01*
X704219Y345032D01*
X703640Y345367D01*
X703167Y345840D01*
X702832Y346419D01*
X702659Y347066D01*
X702659Y350861D01*
X709930Y350861D01*
X710048Y350876D01*
X710167Y350883D01*
X710205Y350896D01*
X710245Y350901D01*
X710356Y350944D01*
X710469Y350981D01*
X710504Y351003D01*
X710541Y351018D01*
X710637Y351088D01*
X710738Y351151D01*
X710766Y351181D01*
X710798Y351205D01*
X710874Y351296D01*
X710956Y351383D01*
X710975Y351418D01*
X711001Y351449D01*
X711052Y351557D01*
X711109Y351661D01*
X711120Y351701D01*
X711137Y351737D01*
X711159Y351854D01*
X711189Y351969D01*
X711193Y352030D01*
X711197Y352050D01*
X711195Y352070D01*
X711199Y352130D01*
X711199Y353401D01*
X711201Y353401D01*
X711201Y352130D01*
X711216Y352012D01*
X711223Y351893D01*
X711236Y351855D01*
X711241Y351815D01*
X711285Y351704D01*
X711321Y351591D01*
X711343Y351556D01*
X711358Y351519D01*
X711428Y351423D01*
X711491Y351322D01*
X711521Y351294D01*
X711545Y351261D01*
X711636Y351186D01*
X711723Y351104D01*
X711758Y351084D01*
X711790Y351059D01*
X711897Y351008D01*
X712001Y350950D01*
X712041Y350940D01*
X712077Y350923D01*
X712194Y350901D01*
X712309Y350871D01*
X712370Y350867D01*
X712390Y350863D01*
X712410Y350865D01*
X712470Y350861D01*
X719741Y350861D01*
X719741Y347066D01*
X719568Y346419D01*
X719233Y345840D01*
X718760Y345367D01*
X718181Y345032D01*
X717910Y344960D01*
X717769Y344902D01*
X717628Y344846D01*
X717622Y344842D01*
X717616Y344840D01*
X717494Y344750D01*
X717370Y344660D01*
X717366Y344654D01*
X717361Y344650D01*
X717265Y344532D01*
X717167Y344415D01*
X717165Y344408D01*
X717160Y344403D01*
X717096Y344264D01*
X717032Y344127D01*
X717031Y344120D01*
X717028Y344114D01*
X717000Y343963D01*
X716972Y343814D01*
X716972Y343808D01*
X716971Y343801D01*
X716982Y343649D01*
X716992Y343497D01*
X716994Y343491D01*
X716994Y343484D01*
X717043Y343340D01*
X717090Y343195D01*
X717093Y343189D01*
X717096Y343182D01*
X717178Y343055D01*
X717260Y342926D01*
X717265Y342921D01*
X717269Y342916D01*
X717381Y342812D01*
X717492Y342708D01*
X717498Y342705D01*
X717502Y342700D01*
X717637Y342628D01*
X717770Y342554D01*
X717777Y342553D01*
X717783Y342550D01*
X717931Y342513D01*
X718078Y342475D01*
X718087Y342474D01*
X718091Y342473D01*
X718102Y342473D01*
X718239Y342465D01*
X718884Y342465D01*
X721265Y340084D01*
X721265Y324716D01*
X718884Y322335D01*
X717804Y322335D01*
X717686Y322320D01*
X717567Y322313D01*
X717529Y322300D01*
X717488Y322295D01*
X717378Y322252D01*
X717265Y322215D01*
X717230Y322193D01*
X717193Y322178D01*
X717097Y322109D01*
X716996Y322045D01*
X716968Y322015D01*
X716935Y321992D01*
X716859Y321900D01*
X716778Y321813D01*
X716758Y321778D01*
X716733Y321747D01*
X716682Y321639D01*
X716624Y321535D01*
X716614Y321495D01*
X716597Y321459D01*
X716575Y321342D01*
X716545Y321227D01*
X716541Y321167D01*
X716537Y321147D01*
X716539Y321126D01*
X716535Y321066D01*
X716535Y313434D01*
X716550Y313316D01*
X716557Y313197D01*
X716570Y313159D01*
X716575Y313118D01*
X716618Y313008D01*
X716655Y312895D01*
X716677Y312860D01*
X716692Y312823D01*
X716761Y312727D01*
X716825Y312626D01*
X716855Y312598D01*
X716878Y312565D01*
X716970Y312489D01*
X717057Y312408D01*
X717092Y312388D01*
X717123Y312363D01*
X717231Y312312D01*
X717335Y312254D01*
X717375Y312244D01*
X717411Y312227D01*
X717528Y312205D01*
X717643Y312175D01*
X717703Y312171D01*
X717723Y312167D01*
X717744Y312169D01*
X717804Y312165D01*
X720884Y312165D01*
X723265Y309784D01*
X723265Y293416D01*
X722846Y292998D01*
X722773Y292904D01*
X722694Y292814D01*
X722676Y292778D01*
X722651Y292746D01*
X722604Y292637D01*
X722550Y292531D01*
X722541Y292492D01*
X722525Y292454D01*
X722506Y292337D01*
X722480Y292221D01*
X722481Y292180D01*
X722475Y292140D01*
X722486Y292022D01*
X722490Y291903D01*
X722501Y291864D01*
X722505Y291824D01*
X722545Y291712D01*
X722578Y291597D01*
X722598Y291562D01*
X722612Y291524D01*
X722679Y291426D01*
X722739Y291323D01*
X722779Y291278D01*
X722791Y291261D01*
X722806Y291248D01*
X722846Y291203D01*
X723265Y290784D01*
X723265Y274416D01*
X720884Y272035D01*
X717804Y272035D01*
X717686Y272020D01*
X717567Y272013D01*
X717529Y272000D01*
X717488Y271995D01*
X717378Y271952D01*
X717265Y271915D01*
X717230Y271893D01*
X717193Y271878D01*
X717097Y271809D01*
X716996Y271745D01*
X716968Y271715D01*
X716935Y271692D01*
X716859Y271600D01*
X716778Y271513D01*
X716758Y271478D01*
X716733Y271447D01*
X716682Y271339D01*
X716624Y271235D01*
X716614Y271195D01*
X716597Y271159D01*
X716575Y271042D01*
X716545Y270927D01*
X716541Y270867D01*
X716537Y270847D01*
X716539Y270826D01*
X716535Y270766D01*
X716535Y266638D01*
X716547Y266540D01*
X716550Y266441D01*
X716567Y266383D01*
X716575Y266322D01*
X716611Y266230D01*
X716639Y266135D01*
X716669Y266083D01*
X716692Y266027D01*
X716750Y265947D01*
X716800Y265861D01*
X716866Y265786D01*
X716878Y265769D01*
X716888Y265762D01*
X716906Y265740D01*
X717852Y264795D01*
X719047Y261911D01*
X719047Y258789D01*
X717852Y255905D01*
X715645Y253698D01*
X712761Y252503D01*
X709639Y252503D01*
G37*
%LPD*%
%LPC*%
G36*
X617460Y369315D02*
X617460Y369315D01*
X611482Y375294D01*
X611404Y375354D01*
X611331Y375422D01*
X611278Y375451D01*
X611231Y375488D01*
X611140Y375528D01*
X611053Y375576D01*
X610994Y375591D01*
X610939Y375615D01*
X610841Y375630D01*
X610745Y375655D01*
X610645Y375661D01*
X610625Y375665D01*
X610612Y375663D01*
X610584Y375665D01*
X575034Y375665D01*
X574916Y375650D01*
X574797Y375643D01*
X574759Y375630D01*
X574718Y375625D01*
X574608Y375582D01*
X574495Y375545D01*
X574460Y375523D01*
X574423Y375508D01*
X574327Y375439D01*
X574226Y375375D01*
X574198Y375345D01*
X574165Y375322D01*
X574089Y375230D01*
X574008Y375143D01*
X573988Y375108D01*
X573963Y375077D01*
X573912Y374969D01*
X573854Y374865D01*
X573844Y374825D01*
X573827Y374789D01*
X573805Y374672D01*
X573775Y374557D01*
X573771Y374497D01*
X573767Y374477D01*
X573769Y374456D01*
X573765Y374396D01*
X573765Y373316D01*
X571384Y370935D01*
X546016Y370935D01*
X543635Y373316D01*
X543635Y388684D01*
X546016Y391065D01*
X571384Y391065D01*
X573765Y388684D01*
X573765Y387604D01*
X573780Y387486D01*
X573787Y387367D01*
X573800Y387329D01*
X573805Y387288D01*
X573848Y387178D01*
X573885Y387065D01*
X573907Y387030D01*
X573922Y386993D01*
X573991Y386897D01*
X574055Y386796D01*
X574085Y386768D01*
X574108Y386735D01*
X574200Y386659D01*
X574287Y386578D01*
X574322Y386558D01*
X574353Y386533D01*
X574461Y386482D01*
X574565Y386424D01*
X574605Y386414D01*
X574641Y386397D01*
X574758Y386375D01*
X574873Y386345D01*
X574933Y386341D01*
X574953Y386337D01*
X574974Y386339D01*
X575034Y386335D01*
X610584Y386335D01*
X610683Y386347D01*
X610782Y386350D01*
X610840Y386367D01*
X610900Y386375D01*
X610992Y386411D01*
X611087Y386439D01*
X611139Y386469D01*
X611196Y386492D01*
X611276Y386550D01*
X611361Y386600D01*
X611436Y386666D01*
X611453Y386678D01*
X611461Y386688D01*
X611482Y386706D01*
X617460Y392685D01*
X627140Y392685D01*
X633985Y385840D01*
X633985Y376160D01*
X627140Y369315D01*
X617460Y369315D01*
G37*
%LPD*%
%LPC*%
G36*
X546016Y396335D02*
X546016Y396335D01*
X543635Y398716D01*
X543635Y414084D01*
X546016Y416465D01*
X571384Y416465D01*
X573765Y414084D01*
X573765Y413004D01*
X573780Y412886D01*
X573787Y412767D01*
X573800Y412729D01*
X573805Y412688D01*
X573848Y412578D01*
X573885Y412465D01*
X573907Y412430D01*
X573922Y412393D01*
X573991Y412297D01*
X574055Y412196D01*
X574085Y412168D01*
X574108Y412135D01*
X574200Y412059D01*
X574287Y411978D01*
X574322Y411958D01*
X574353Y411933D01*
X574461Y411882D01*
X574565Y411824D01*
X574605Y411814D01*
X574641Y411797D01*
X574758Y411775D01*
X574873Y411745D01*
X574933Y411741D01*
X574953Y411737D01*
X574974Y411739D01*
X575034Y411735D01*
X577912Y411735D01*
X578010Y411747D01*
X578109Y411750D01*
X578167Y411767D01*
X578228Y411775D01*
X578320Y411811D01*
X578415Y411839D01*
X578467Y411869D01*
X578523Y411892D01*
X578603Y411950D01*
X578689Y412000D01*
X578764Y412066D01*
X578781Y412078D01*
X578788Y412088D01*
X578810Y412106D01*
X579755Y413052D01*
X582639Y414247D01*
X585761Y414247D01*
X588645Y413052D01*
X590852Y410845D01*
X592047Y407961D01*
X592047Y404839D01*
X590852Y401955D01*
X588645Y399748D01*
X585761Y398553D01*
X582639Y398553D01*
X579755Y399748D01*
X578810Y400694D01*
X578731Y400754D01*
X578659Y400822D01*
X578606Y400851D01*
X578558Y400888D01*
X578467Y400928D01*
X578381Y400976D01*
X578322Y400991D01*
X578266Y401015D01*
X578168Y401030D01*
X578073Y401055D01*
X577973Y401061D01*
X577952Y401065D01*
X577940Y401063D01*
X577912Y401065D01*
X575034Y401065D01*
X574916Y401050D01*
X574797Y401043D01*
X574759Y401030D01*
X574718Y401025D01*
X574608Y400982D01*
X574495Y400945D01*
X574460Y400923D01*
X574423Y400908D01*
X574327Y400839D01*
X574226Y400775D01*
X574198Y400745D01*
X574165Y400722D01*
X574089Y400630D01*
X574008Y400543D01*
X573988Y400508D01*
X573963Y400477D01*
X573912Y400369D01*
X573854Y400265D01*
X573844Y400225D01*
X573827Y400189D01*
X573805Y400072D01*
X573775Y399957D01*
X573771Y399897D01*
X573767Y399877D01*
X573769Y399856D01*
X573765Y399796D01*
X573765Y398716D01*
X571384Y396335D01*
X546016Y396335D01*
G37*
%LPD*%
%LPC*%
G36*
X436996Y421735D02*
X436996Y421735D01*
X434615Y424116D01*
X434615Y439484D01*
X436996Y441865D01*
X462364Y441865D01*
X464745Y439484D01*
X464745Y424116D01*
X462364Y421735D01*
X436996Y421735D01*
G37*
%LPD*%
%LPC*%
G36*
X436996Y396335D02*
X436996Y396335D01*
X434615Y398716D01*
X434615Y414084D01*
X436996Y416465D01*
X462364Y416465D01*
X464745Y414084D01*
X464745Y398716D01*
X462364Y396335D01*
X436996Y396335D01*
G37*
%LPD*%
%LPC*%
G36*
X436996Y370935D02*
X436996Y370935D01*
X434615Y373316D01*
X434615Y388684D01*
X436996Y391065D01*
X462364Y391065D01*
X464745Y388684D01*
X464745Y373316D01*
X462364Y370935D01*
X436996Y370935D01*
G37*
%LPD*%
%LPC*%
G36*
X546016Y345535D02*
X546016Y345535D01*
X543635Y347916D01*
X543635Y363284D01*
X546016Y365665D01*
X571384Y365665D01*
X573765Y363284D01*
X573765Y347916D01*
X571384Y345535D01*
X546016Y345535D01*
G37*
%LPD*%
%LPC*%
G36*
X142239Y91439D02*
X142239Y91439D01*
X142239Y99061D01*
X148120Y99061D01*
X149699Y98811D01*
X151220Y98316D01*
X152645Y97590D01*
X153939Y96650D01*
X155070Y95519D01*
X156010Y94225D01*
X156736Y92800D01*
X157179Y91439D01*
X142239Y91439D01*
G37*
%LPD*%
%LPC*%
G36*
X122221Y91439D02*
X122221Y91439D01*
X122664Y92800D01*
X123390Y94225D01*
X124330Y95519D01*
X125461Y96650D01*
X126755Y97590D01*
X128180Y98316D01*
X129701Y98811D01*
X131280Y99061D01*
X137161Y99061D01*
X137161Y91439D01*
X122221Y91439D01*
G37*
%LPD*%
%LPC*%
G36*
X142239Y78739D02*
X142239Y78739D01*
X142239Y86361D01*
X157179Y86361D01*
X156736Y85000D01*
X156010Y83575D01*
X155070Y82281D01*
X153939Y81150D01*
X152645Y80210D01*
X151220Y79484D01*
X149699Y78989D01*
X148120Y78739D01*
X142239Y78739D01*
G37*
%LPD*%
%LPC*%
G36*
X131280Y78739D02*
X131280Y78739D01*
X129701Y78989D01*
X128180Y79484D01*
X126755Y80210D01*
X125673Y80995D01*
X125673Y80996D01*
X125461Y81150D01*
X124330Y82281D01*
X123390Y83575D01*
X122664Y85000D01*
X122221Y86361D01*
X137161Y86361D01*
X137161Y78739D01*
X131280Y78739D01*
G37*
%LPD*%
%LPC*%
G36*
X452219Y358139D02*
X452219Y358139D01*
X452219Y364141D01*
X461014Y364141D01*
X461661Y363968D01*
X462240Y363633D01*
X462713Y363160D01*
X463048Y362581D01*
X463221Y361934D01*
X463221Y358139D01*
X452219Y358139D01*
G37*
%LPD*%
%LPC*%
G36*
X436139Y358139D02*
X436139Y358139D01*
X436139Y361934D01*
X436312Y362581D01*
X436647Y363160D01*
X437120Y363633D01*
X437699Y363968D01*
X438346Y364141D01*
X447141Y364141D01*
X447141Y358139D01*
X436139Y358139D01*
G37*
%LPD*%
%LPC*%
G36*
X452219Y347059D02*
X452219Y347059D01*
X452219Y353061D01*
X463221Y353061D01*
X463221Y349266D01*
X463048Y348619D01*
X462713Y348040D01*
X462240Y347567D01*
X461661Y347232D01*
X461014Y347059D01*
X452219Y347059D01*
G37*
%LPD*%
%LPC*%
G36*
X438346Y347059D02*
X438346Y347059D01*
X437699Y347232D01*
X437120Y347567D01*
X436647Y348040D01*
X436312Y348619D01*
X436139Y349266D01*
X436139Y353061D01*
X447141Y353061D01*
X447141Y347059D01*
X438346Y347059D01*
G37*
%LPD*%
%LPC*%
G36*
X418439Y104259D02*
X418439Y104259D01*
X418439Y111761D01*
X424941Y111761D01*
X424941Y106466D01*
X424768Y105819D01*
X424433Y105240D01*
X423960Y104767D01*
X423381Y104432D01*
X422734Y104259D01*
X418439Y104259D01*
G37*
%LPD*%
%LPC*%
G36*
X438659Y116839D02*
X438659Y116839D01*
X438659Y122134D01*
X438832Y122781D01*
X439167Y123360D01*
X439640Y123833D01*
X440219Y124168D01*
X440866Y124341D01*
X445161Y124341D01*
X445161Y116839D01*
X438659Y116839D01*
G37*
%LPD*%
%LPC*%
G36*
X440866Y104259D02*
X440866Y104259D01*
X440219Y104432D01*
X439640Y104767D01*
X439167Y105240D01*
X438832Y105819D01*
X438659Y106466D01*
X438659Y111761D01*
X445161Y111761D01*
X445161Y104259D01*
X440866Y104259D01*
G37*
%LPD*%
%LPC*%
G36*
X357849Y307049D02*
X357849Y307049D01*
X357849Y315245D01*
X358098Y315206D01*
X359695Y314687D01*
X361192Y313925D01*
X361426Y313755D01*
X362550Y312938D01*
X363738Y311750D01*
X364725Y310392D01*
X365487Y308895D01*
X366006Y307298D01*
X366045Y307049D01*
X357849Y307049D01*
G37*
%LPD*%
%LPC*%
G36*
X345155Y307049D02*
X345155Y307049D01*
X345194Y307298D01*
X345713Y308895D01*
X346475Y310392D01*
X347462Y311750D01*
X348650Y312938D01*
X350008Y313925D01*
X351505Y314687D01*
X353102Y315206D01*
X353351Y315245D01*
X353351Y307049D01*
X345155Y307049D01*
G37*
%LPD*%
%LPC*%
G36*
X353102Y294394D02*
X353102Y294394D01*
X351505Y294913D01*
X350008Y295675D01*
X348650Y296662D01*
X347462Y297850D01*
X346475Y299208D01*
X345713Y300705D01*
X345194Y302302D01*
X345155Y302551D01*
X353351Y302551D01*
X353351Y294355D01*
X353102Y294394D01*
G37*
%LPD*%
%LPC*%
G36*
X358139Y154939D02*
X358139Y154939D01*
X358139Y162561D01*
X365761Y162561D01*
X365761Y160891D01*
X359809Y154939D01*
X358139Y154939D01*
G37*
%LPD*%
%LPC*%
G36*
X351391Y154939D02*
X351391Y154939D01*
X345439Y160891D01*
X345439Y162561D01*
X353061Y162561D01*
X353061Y154939D01*
X351391Y154939D01*
G37*
%LPD*%
%LPC*%
G36*
X713739Y355939D02*
X713739Y355939D01*
X713739Y361941D01*
X717534Y361941D01*
X718181Y361768D01*
X718760Y361433D01*
X719233Y360960D01*
X719568Y360381D01*
X719741Y359734D01*
X719741Y355939D01*
X713739Y355939D01*
G37*
%LPD*%
%LPC*%
G36*
X815339Y355939D02*
X815339Y355939D01*
X815339Y361941D01*
X819134Y361941D01*
X819781Y361768D01*
X820360Y361433D01*
X820833Y360960D01*
X821168Y360381D01*
X821341Y359734D01*
X821341Y355939D01*
X815339Y355939D01*
G37*
%LPD*%
%LPC*%
G36*
X916939Y355939D02*
X916939Y355939D01*
X916939Y361941D01*
X920734Y361941D01*
X921381Y361768D01*
X921960Y361433D01*
X922433Y360960D01*
X922768Y360381D01*
X922941Y359734D01*
X922941Y355939D01*
X916939Y355939D01*
G37*
%LPD*%
%LPC*%
G36*
X815339Y279739D02*
X815339Y279739D01*
X815339Y285741D01*
X819134Y285741D01*
X819781Y285568D01*
X820360Y285233D01*
X820833Y284760D01*
X821168Y284181D01*
X821341Y283534D01*
X821341Y279739D01*
X815339Y279739D01*
G37*
%LPD*%
%LPC*%
G36*
X916939Y203539D02*
X916939Y203539D01*
X916939Y209541D01*
X920734Y209541D01*
X921381Y209368D01*
X921960Y209033D01*
X922433Y208560D01*
X922768Y207981D01*
X922941Y207334D01*
X922941Y203539D01*
X916939Y203539D01*
G37*
%LPD*%
%LPC*%
G36*
X713739Y203539D02*
X713739Y203539D01*
X713739Y209541D01*
X717534Y209541D01*
X718181Y209368D01*
X718760Y209033D01*
X719233Y208560D01*
X719568Y207981D01*
X719741Y207334D01*
X719741Y203539D01*
X713739Y203539D01*
G37*
%LPD*%
%LPC*%
G36*
X815339Y203539D02*
X815339Y203539D01*
X815339Y209541D01*
X819134Y209541D01*
X819781Y209368D01*
X820360Y209033D01*
X820833Y208560D01*
X821168Y207981D01*
X821341Y207334D01*
X821341Y203539D01*
X815339Y203539D01*
G37*
%LPD*%
%LPC*%
G36*
X905859Y355939D02*
X905859Y355939D01*
X905859Y359734D01*
X906032Y360381D01*
X906367Y360960D01*
X906840Y361433D01*
X907419Y361768D01*
X908066Y361941D01*
X911861Y361941D01*
X911861Y355939D01*
X905859Y355939D01*
G37*
%LPD*%
%LPC*%
G36*
X804259Y355939D02*
X804259Y355939D01*
X804259Y359734D01*
X804432Y360381D01*
X804767Y360960D01*
X805240Y361433D01*
X805819Y361768D01*
X806466Y361941D01*
X810261Y361941D01*
X810261Y355939D01*
X804259Y355939D01*
G37*
%LPD*%
%LPC*%
G36*
X804259Y279739D02*
X804259Y279739D01*
X804259Y283534D01*
X804432Y284181D01*
X804767Y284760D01*
X805240Y285233D01*
X805819Y285568D01*
X806466Y285741D01*
X810261Y285741D01*
X810261Y279739D01*
X804259Y279739D01*
G37*
%LPD*%
%LPC*%
G36*
X702659Y355939D02*
X702659Y355939D01*
X702659Y359734D01*
X702832Y360381D01*
X703167Y360960D01*
X703640Y361433D01*
X704219Y361768D01*
X704866Y361941D01*
X708661Y361941D01*
X708661Y355939D01*
X702659Y355939D01*
G37*
%LPD*%
%LPC*%
G36*
X804259Y203539D02*
X804259Y203539D01*
X804259Y207334D01*
X804432Y207981D01*
X804767Y208560D01*
X805240Y209033D01*
X805819Y209368D01*
X806466Y209541D01*
X810261Y209541D01*
X810261Y203539D01*
X804259Y203539D01*
G37*
%LPD*%
%LPC*%
G36*
X702659Y203539D02*
X702659Y203539D01*
X702659Y207334D01*
X702832Y207981D01*
X703167Y208560D01*
X703640Y209033D01*
X704219Y209368D01*
X704866Y209541D01*
X708661Y209541D01*
X708661Y203539D01*
X702659Y203539D01*
G37*
%LPD*%
%LPC*%
G36*
X905859Y203539D02*
X905859Y203539D01*
X905859Y207334D01*
X906032Y207981D01*
X906367Y208560D01*
X906840Y209033D01*
X907419Y209368D01*
X908066Y209541D01*
X911861Y209541D01*
X911861Y203539D01*
X905859Y203539D01*
G37*
%LPD*%
%LPC*%
G36*
X139699Y88899D02*
X139699Y88899D01*
X139699Y88901D01*
X139701Y88901D01*
X139701Y88899D01*
X139699Y88899D01*
G37*
%LPD*%
%LPC*%
G36*
X449679Y355599D02*
X449679Y355599D01*
X449679Y355601D01*
X449681Y355601D01*
X449681Y355599D01*
X449679Y355599D01*
G37*
%LPD*%
%LPC*%
G36*
X139699Y292099D02*
X139699Y292099D01*
X139699Y292101D01*
X139701Y292101D01*
X139701Y292099D01*
X139699Y292099D01*
G37*
%LPD*%
D10*
X139700Y177600D03*
X139700Y406600D03*
D11*
X139700Y292100D03*
D12*
X415900Y114300D03*
X396900Y114300D03*
X447700Y114300D03*
X466700Y114300D03*
D13*
X465500Y243900D03*
X465500Y235900D03*
X465500Y227900D03*
X465500Y219900D03*
X465500Y211900D03*
X465500Y203900D03*
X465500Y195900D03*
X465500Y187900D03*
D14*
X480000Y173400D03*
X488000Y173400D03*
X496000Y173400D03*
X504000Y173400D03*
X512000Y173400D03*
X520000Y173400D03*
X528000Y173400D03*
X536000Y173400D03*
D13*
X550500Y187900D03*
X550500Y195900D03*
X550500Y203900D03*
X550500Y211900D03*
X550500Y219900D03*
X550500Y227900D03*
X550500Y235900D03*
X550500Y243900D03*
D14*
X536000Y258400D03*
X528000Y258400D03*
X520000Y258400D03*
X512000Y258400D03*
X504000Y258400D03*
X496000Y258400D03*
X488000Y258400D03*
X480000Y258400D03*
D15*
X330200Y279400D03*
X330200Y304800D03*
X304800Y304800D03*
X304800Y279400D03*
X355600Y279400D03*
X355600Y304800D03*
D16*
X304800Y190500D03*
X304800Y165100D03*
X330200Y190500D03*
X330200Y165100D03*
X355600Y190500D03*
X355600Y165100D03*
D17*
X147320Y88900D02*
X132080Y88900D01*
X132080Y114300D02*
X147320Y114300D01*
D16*
X622300Y381000D03*
D18*
X501650Y101600D03*
D19*
X711200Y201000D03*
X711200Y180000D03*
X812800Y201000D03*
X812800Y180000D03*
X914400Y201000D03*
X914400Y180000D03*
X711200Y353400D03*
X711200Y332400D03*
X812800Y353400D03*
X812800Y332400D03*
X914400Y353400D03*
X914400Y332400D03*
X812800Y277200D03*
X812800Y256200D03*
D20*
X394970Y50800D03*
X443230Y50800D03*
D21*
X711200Y149200D03*
X711200Y130200D03*
X812800Y149200D03*
X812800Y130200D03*
X914400Y149200D03*
X914400Y130200D03*
X711200Y301600D03*
X711200Y282600D03*
D22*
X816000Y304800D03*
X835000Y304800D03*
D21*
X914400Y301600D03*
X914400Y282600D03*
D22*
X784200Y254000D03*
X765200Y254000D03*
D23*
X449680Y431800D03*
X449680Y406400D03*
X449680Y381000D03*
X449680Y355600D03*
X558700Y355600D03*
X558700Y381000D03*
X558700Y406400D03*
X558700Y431800D03*
D24*
X394970Y112370D02*
X394970Y50800D01*
X394970Y112370D02*
X396900Y114300D01*
X419100Y136500D01*
X419100Y190500D01*
X424500Y195900D01*
X465500Y195900D01*
X466700Y74270D02*
X443230Y50800D01*
X466700Y74270D02*
X466700Y114300D01*
X466700Y142900D01*
X444500Y165100D01*
X444500Y177800D01*
X454600Y187900D01*
X465500Y187900D01*
X550500Y219900D02*
X562800Y219900D01*
X465500Y211900D02*
X453200Y211900D01*
D25*
X139700Y177600D02*
X139700Y114300D01*
X139700Y406600D02*
X266500Y406600D01*
X266700Y406400D01*
X304800Y368300D01*
X304800Y342900D01*
X304800Y304800D01*
X520700Y431800D02*
X558700Y431800D01*
X482600Y469900D02*
X330200Y469900D01*
X266700Y406400D01*
X482600Y469900D02*
X520700Y431800D01*
D24*
X465500Y219900D02*
X421450Y219900D01*
X400050Y241300D01*
X400050Y266700D01*
D26*
X400050Y266700D03*
X381000Y342900D03*
D24*
X304800Y342900D01*
X465500Y219900D02*
X516700Y219900D01*
X524700Y211900D02*
X550500Y211900D01*
X524700Y211900D02*
X516700Y219900D01*
X534350Y195900D02*
X550500Y195900D01*
X524700Y205550D02*
X524700Y211900D01*
X524700Y205550D02*
X534350Y195900D01*
D25*
X139700Y406600D02*
X139500Y406400D01*
X38100Y406400D01*
X19050Y387350D01*
X19050Y196850D01*
X38300Y177600D01*
X139700Y177600D01*
D24*
X304800Y165100D02*
X317500Y177800D01*
X374650Y177800D01*
X400050Y203200D01*
X400050Y241300D01*
X488000Y258400D02*
X488000Y278450D01*
X488950Y279400D01*
D26*
X488950Y279400D03*
X571500Y279400D03*
D24*
X635000Y279400D01*
X666750Y247650D02*
X666750Y146050D01*
X682600Y130200D01*
X711200Y130200D01*
X666750Y247650D02*
X635000Y279400D01*
X480000Y269300D02*
X480000Y258400D01*
X480000Y269300D02*
X476250Y273050D01*
D26*
X476250Y273050D03*
X571500Y298450D03*
D24*
X762000Y146050D02*
X777850Y130200D01*
X812800Y130200D01*
X641350Y298450D02*
X571500Y298450D01*
X641350Y298450D02*
X762000Y177800D01*
X762000Y146050D01*
X499050Y243900D02*
X465500Y243900D01*
X499050Y243900D02*
X508000Y234950D01*
D26*
X508000Y234950D03*
X641350Y222250D03*
D24*
X647700Y215900D01*
X647700Y120650D01*
X673100Y95250D01*
X895350Y95250D01*
X914400Y114300D01*
X914400Y130200D01*
X466450Y234950D02*
X465500Y235900D01*
X466450Y234950D02*
X488950Y234950D01*
D26*
X488950Y234950D03*
X603250Y209550D03*
D24*
X635000Y241300D01*
D26*
X635000Y241300D03*
X730250Y254000D03*
D24*
X765200Y254000D01*
X480000Y173400D02*
X480000Y85150D01*
X488950Y76200D01*
X539750Y76200D01*
X590550Y127000D02*
X590550Y222250D01*
X628650Y260350D01*
D26*
X628650Y260350D03*
X711200Y260350D03*
D24*
X711200Y282600D01*
X590550Y127000D02*
X539750Y76200D01*
X488000Y173400D02*
X488000Y202250D01*
X495300Y209550D01*
D26*
X495300Y209550D03*
X838200Y234950D03*
D24*
X863600Y260350D01*
X863600Y292100D01*
X850900Y304800D01*
X835000Y304800D01*
X711200Y180000D02*
X711200Y149200D01*
X812800Y149200D02*
X812800Y180000D01*
X914400Y180000D02*
X914400Y149200D01*
X711200Y301600D02*
X711200Y332400D01*
X812800Y308000D02*
X816000Y304800D01*
X812800Y308000D02*
X812800Y332400D01*
X914400Y332400D02*
X914400Y301600D01*
X810600Y254000D02*
X784200Y254000D01*
X810600Y254000D02*
X812800Y256200D01*
X304800Y279400D02*
X304800Y190500D01*
X536000Y173400D02*
X536000Y156150D01*
X539750Y152400D01*
D26*
X539750Y152400D03*
X279400Y190500D03*
D24*
X304800Y190500D01*
X330200Y228600D02*
X330200Y279400D01*
X330200Y228600D02*
X330200Y190500D01*
X330200Y228600D02*
X342900Y228600D01*
D26*
X342900Y228600D03*
X501650Y196850D03*
D24*
X514350Y196850D01*
X523300Y187900D02*
X550500Y187900D01*
X523300Y187900D02*
X514350Y196850D01*
X330200Y165100D02*
X330200Y139700D01*
X317500Y127000D01*
X279400Y127000D01*
X266700Y139700D01*
X266700Y317500D01*
X279400Y330200D01*
D26*
X279400Y330200D03*
D24*
X330200Y139700D02*
X342900Y127000D01*
D26*
X342900Y127000D03*
X520700Y139700D03*
D24*
X528000Y147000D02*
X528000Y173400D01*
X528000Y147000D02*
X520700Y139700D01*
X355600Y190500D02*
X355600Y279400D01*
X368300Y292100D01*
X495300Y292100D01*
X504000Y283400D01*
X504000Y258400D01*
X496000Y173400D02*
X496000Y146750D01*
D26*
X488950Y139700D03*
X914400Y241300D03*
D24*
X914400Y282600D01*
X496000Y146750D02*
X488950Y139700D01*
X520000Y154650D02*
X520000Y173400D01*
X520000Y154650D02*
X501424Y136074D01*
X501650Y107498D02*
X501650Y101600D01*
X501650Y107498D02*
X501424Y107724D01*
X501424Y136074D01*
X558700Y406400D02*
X584200Y406400D01*
D26*
X584200Y406400D03*
X584200Y241300D03*
D24*
X578800Y235900D01*
X550500Y235900D01*
X558700Y381000D02*
X622300Y381000D01*
M02*
