G04 EAGLE Gerber RS-274X export*
G75*
%MOMM*%
%FSLAX34Y34*%
%LPD*%
%INSilkscreen Bottom*%
%IPPOS*%
%AMOC8*
5,1,8,0,0,1.08239X$1,22.5*%
G01*
%ADD10C,0.152400*%


D10*
X987880Y452882D02*
X987880Y469138D01*
X987880Y463719D02*
X983364Y463719D01*
X983260Y463717D01*
X983157Y463711D01*
X983053Y463701D01*
X982950Y463687D01*
X982848Y463669D01*
X982747Y463648D01*
X982646Y463622D01*
X982547Y463593D01*
X982448Y463560D01*
X982351Y463523D01*
X982256Y463482D01*
X982162Y463438D01*
X982070Y463390D01*
X981980Y463339D01*
X981891Y463284D01*
X981805Y463226D01*
X981722Y463164D01*
X981640Y463100D01*
X981562Y463032D01*
X981486Y462962D01*
X981412Y462889D01*
X981342Y462812D01*
X981274Y462734D01*
X981210Y462652D01*
X981148Y462569D01*
X981090Y462483D01*
X981035Y462394D01*
X980984Y462304D01*
X980936Y462212D01*
X980892Y462118D01*
X980851Y462023D01*
X980814Y461926D01*
X980781Y461827D01*
X980752Y461728D01*
X980726Y461627D01*
X980705Y461526D01*
X980687Y461424D01*
X980673Y461321D01*
X980663Y461217D01*
X980657Y461114D01*
X980655Y461010D01*
X980655Y452882D01*
X975109Y463719D02*
X969691Y463719D01*
X973303Y469138D02*
X973303Y455591D01*
X973301Y455490D01*
X973295Y455389D01*
X973286Y455288D01*
X973273Y455187D01*
X973256Y455087D01*
X973235Y454988D01*
X973211Y454890D01*
X973183Y454793D01*
X973151Y454696D01*
X973116Y454601D01*
X973077Y454508D01*
X973035Y454416D01*
X972989Y454325D01*
X972940Y454237D01*
X972888Y454150D01*
X972832Y454065D01*
X972774Y453982D01*
X972712Y453902D01*
X972647Y453824D01*
X972580Y453748D01*
X972510Y453675D01*
X972437Y453605D01*
X972361Y453538D01*
X972283Y453473D01*
X972203Y453411D01*
X972120Y453353D01*
X972035Y453297D01*
X971949Y453245D01*
X971860Y453196D01*
X971769Y453150D01*
X971677Y453108D01*
X971584Y453069D01*
X971489Y453034D01*
X971392Y453002D01*
X971295Y452974D01*
X971197Y452950D01*
X971098Y452929D01*
X970998Y452912D01*
X970897Y452899D01*
X970796Y452890D01*
X970695Y452884D01*
X970594Y452882D01*
X969691Y452882D01*
X965209Y463719D02*
X959791Y463719D01*
X963403Y469138D02*
X963403Y455591D01*
X963401Y455490D01*
X963395Y455389D01*
X963386Y455288D01*
X963373Y455187D01*
X963356Y455087D01*
X963335Y454988D01*
X963311Y454890D01*
X963283Y454793D01*
X963251Y454696D01*
X963216Y454601D01*
X963177Y454508D01*
X963135Y454416D01*
X963089Y454325D01*
X963040Y454237D01*
X962988Y454150D01*
X962932Y454065D01*
X962874Y453982D01*
X962812Y453902D01*
X962747Y453824D01*
X962680Y453748D01*
X962610Y453675D01*
X962537Y453605D01*
X962461Y453538D01*
X962383Y453473D01*
X962303Y453411D01*
X962220Y453353D01*
X962135Y453297D01*
X962049Y453245D01*
X961960Y453196D01*
X961869Y453150D01*
X961777Y453108D01*
X961684Y453069D01*
X961589Y453034D01*
X961492Y453002D01*
X961395Y452974D01*
X961297Y452950D01*
X961198Y452929D01*
X961098Y452912D01*
X960997Y452899D01*
X960896Y452890D01*
X960795Y452884D01*
X960694Y452882D01*
X959791Y452882D01*
X953418Y447463D02*
X953418Y463719D01*
X948903Y463719D01*
X948799Y463717D01*
X948696Y463711D01*
X948592Y463701D01*
X948489Y463687D01*
X948387Y463669D01*
X948286Y463648D01*
X948185Y463622D01*
X948086Y463593D01*
X947987Y463560D01*
X947890Y463523D01*
X947795Y463482D01*
X947701Y463438D01*
X947609Y463390D01*
X947519Y463339D01*
X947430Y463284D01*
X947344Y463226D01*
X947261Y463164D01*
X947179Y463100D01*
X947101Y463032D01*
X947025Y462962D01*
X946951Y462889D01*
X946881Y462812D01*
X946813Y462734D01*
X946749Y462652D01*
X946687Y462569D01*
X946629Y462483D01*
X946574Y462394D01*
X946523Y462304D01*
X946475Y462212D01*
X946431Y462118D01*
X946390Y462023D01*
X946353Y461926D01*
X946320Y461827D01*
X946291Y461728D01*
X946265Y461627D01*
X946244Y461526D01*
X946226Y461424D01*
X946212Y461321D01*
X946202Y461217D01*
X946196Y461114D01*
X946194Y461010D01*
X946193Y461010D02*
X946193Y455591D01*
X946194Y455591D02*
X946196Y455490D01*
X946202Y455389D01*
X946211Y455288D01*
X946224Y455187D01*
X946241Y455087D01*
X946262Y454988D01*
X946286Y454890D01*
X946314Y454793D01*
X946346Y454696D01*
X946381Y454601D01*
X946420Y454508D01*
X946462Y454416D01*
X946508Y454325D01*
X946557Y454236D01*
X946609Y454150D01*
X946665Y454065D01*
X946723Y453982D01*
X946785Y453902D01*
X946850Y453824D01*
X946917Y453748D01*
X946987Y453675D01*
X947060Y453605D01*
X947136Y453538D01*
X947214Y453473D01*
X947294Y453411D01*
X947377Y453353D01*
X947462Y453297D01*
X947549Y453245D01*
X947637Y453196D01*
X947728Y453150D01*
X947820Y453108D01*
X947913Y453069D01*
X948008Y453034D01*
X948105Y453002D01*
X948202Y452974D01*
X948300Y452950D01*
X948399Y452929D01*
X948499Y452912D01*
X948600Y452899D01*
X948701Y452890D01*
X948802Y452884D01*
X948903Y452882D01*
X953418Y452882D01*
X938590Y459204D02*
X934074Y457398D01*
X938590Y459204D02*
X938678Y459241D01*
X938764Y459282D01*
X938849Y459326D01*
X938932Y459374D01*
X939012Y459425D01*
X939091Y459479D01*
X939167Y459537D01*
X939241Y459597D01*
X939313Y459661D01*
X939381Y459727D01*
X939447Y459797D01*
X939510Y459868D01*
X939571Y459943D01*
X939628Y460019D01*
X939681Y460098D01*
X939732Y460179D01*
X939779Y460262D01*
X939823Y460347D01*
X939863Y460434D01*
X939900Y460522D01*
X939933Y460612D01*
X939963Y460703D01*
X939988Y460795D01*
X940010Y460888D01*
X940028Y460982D01*
X940043Y461076D01*
X940053Y461171D01*
X940059Y461267D01*
X940062Y461362D01*
X940061Y461458D01*
X940055Y461553D01*
X940046Y461649D01*
X940033Y461743D01*
X940017Y461837D01*
X939996Y461931D01*
X939971Y462023D01*
X939943Y462114D01*
X939911Y462204D01*
X939876Y462293D01*
X939837Y462380D01*
X939794Y462466D01*
X939748Y462550D01*
X939698Y462631D01*
X939646Y462711D01*
X939590Y462789D01*
X939530Y462864D01*
X939468Y462936D01*
X939403Y463006D01*
X939335Y463074D01*
X939265Y463138D01*
X939192Y463200D01*
X939116Y463258D01*
X939038Y463314D01*
X938958Y463366D01*
X938876Y463415D01*
X938792Y463460D01*
X938706Y463502D01*
X938619Y463541D01*
X938530Y463576D01*
X938439Y463607D01*
X938348Y463634D01*
X938255Y463658D01*
X938162Y463678D01*
X938068Y463694D01*
X937973Y463706D01*
X937878Y463715D01*
X937782Y463719D01*
X937687Y463720D01*
X937440Y463713D01*
X937194Y463701D01*
X936948Y463683D01*
X936702Y463658D01*
X936458Y463628D01*
X936214Y463592D01*
X935971Y463551D01*
X935729Y463503D01*
X935488Y463449D01*
X935249Y463390D01*
X935011Y463325D01*
X934775Y463254D01*
X934540Y463178D01*
X934307Y463096D01*
X934077Y463008D01*
X933849Y462915D01*
X933622Y462817D01*
X934074Y457397D02*
X933986Y457360D01*
X933900Y457319D01*
X933815Y457275D01*
X933732Y457227D01*
X933652Y457176D01*
X933573Y457122D01*
X933497Y457064D01*
X933423Y457004D01*
X933351Y456940D01*
X933283Y456874D01*
X933217Y456804D01*
X933154Y456733D01*
X933093Y456658D01*
X933036Y456582D01*
X932983Y456503D01*
X932932Y456422D01*
X932885Y456339D01*
X932841Y456254D01*
X932801Y456167D01*
X932764Y456079D01*
X932731Y455989D01*
X932701Y455898D01*
X932676Y455806D01*
X932654Y455713D01*
X932636Y455619D01*
X932621Y455525D01*
X932611Y455430D01*
X932605Y455334D01*
X932602Y455239D01*
X932603Y455143D01*
X932609Y455048D01*
X932618Y454952D01*
X932631Y454858D01*
X932647Y454764D01*
X932668Y454670D01*
X932693Y454578D01*
X932721Y454487D01*
X932753Y454397D01*
X932788Y454308D01*
X932827Y454221D01*
X932870Y454135D01*
X932916Y454051D01*
X932966Y453970D01*
X933018Y453890D01*
X933074Y453812D01*
X933134Y453737D01*
X933196Y453665D01*
X933261Y453595D01*
X933329Y453527D01*
X933399Y453463D01*
X933472Y453401D01*
X933548Y453343D01*
X933626Y453287D01*
X933706Y453235D01*
X933788Y453186D01*
X933872Y453141D01*
X933958Y453099D01*
X934045Y453060D01*
X934134Y453025D01*
X934225Y452994D01*
X934316Y452967D01*
X934409Y452943D01*
X934502Y452923D01*
X934596Y452907D01*
X934691Y452895D01*
X934786Y452886D01*
X934882Y452882D01*
X934977Y452881D01*
X934978Y452882D02*
X935340Y452891D01*
X935702Y452909D01*
X936063Y452936D01*
X936423Y452971D01*
X936783Y453014D01*
X937142Y453066D01*
X937499Y453127D01*
X937854Y453196D01*
X938208Y453273D01*
X938560Y453359D01*
X938910Y453453D01*
X939258Y453556D01*
X939603Y453666D01*
X939945Y453785D01*
X926363Y454237D02*
X926363Y455140D01*
X925460Y455140D01*
X925460Y454237D01*
X926363Y454237D01*
X926363Y461462D02*
X926363Y462365D01*
X925460Y462365D01*
X925460Y461462D01*
X926363Y461462D01*
X919624Y451076D02*
X912399Y470944D01*
X899894Y470944D02*
X907119Y451076D01*
X891457Y452882D02*
X886941Y452882D01*
X891457Y452882D02*
X891558Y452884D01*
X891659Y452890D01*
X891760Y452899D01*
X891861Y452912D01*
X891961Y452929D01*
X892060Y452950D01*
X892158Y452974D01*
X892255Y453002D01*
X892352Y453034D01*
X892447Y453069D01*
X892540Y453108D01*
X892632Y453150D01*
X892723Y453196D01*
X892812Y453245D01*
X892898Y453297D01*
X892983Y453353D01*
X893066Y453411D01*
X893146Y453473D01*
X893224Y453538D01*
X893300Y453605D01*
X893373Y453675D01*
X893443Y453748D01*
X893510Y453824D01*
X893575Y453902D01*
X893637Y453982D01*
X893695Y454065D01*
X893751Y454150D01*
X893803Y454237D01*
X893852Y454325D01*
X893898Y454416D01*
X893940Y454508D01*
X893979Y454601D01*
X894014Y454696D01*
X894046Y454793D01*
X894074Y454890D01*
X894098Y454988D01*
X894119Y455087D01*
X894136Y455187D01*
X894149Y455288D01*
X894158Y455389D01*
X894164Y455490D01*
X894166Y455591D01*
X894166Y461010D01*
X894164Y461111D01*
X894158Y461212D01*
X894149Y461313D01*
X894136Y461414D01*
X894119Y461514D01*
X894098Y461613D01*
X894074Y461711D01*
X894046Y461808D01*
X894014Y461905D01*
X893979Y462000D01*
X893940Y462093D01*
X893898Y462185D01*
X893852Y462276D01*
X893803Y462365D01*
X893751Y462451D01*
X893695Y462536D01*
X893637Y462619D01*
X893575Y462699D01*
X893510Y462777D01*
X893443Y462853D01*
X893373Y462926D01*
X893300Y462996D01*
X893224Y463063D01*
X893146Y463128D01*
X893066Y463190D01*
X892983Y463248D01*
X892898Y463304D01*
X892812Y463356D01*
X892723Y463405D01*
X892632Y463451D01*
X892540Y463493D01*
X892447Y463532D01*
X892352Y463567D01*
X892255Y463599D01*
X892158Y463627D01*
X892060Y463651D01*
X891961Y463672D01*
X891861Y463689D01*
X891760Y463702D01*
X891659Y463711D01*
X891558Y463717D01*
X891457Y463719D01*
X886941Y463719D01*
X886941Y450173D01*
X886942Y450173D02*
X886944Y450072D01*
X886950Y449971D01*
X886959Y449870D01*
X886972Y449769D01*
X886989Y449669D01*
X887010Y449570D01*
X887034Y449472D01*
X887062Y449375D01*
X887094Y449278D01*
X887129Y449183D01*
X887168Y449090D01*
X887210Y448998D01*
X887256Y448907D01*
X887305Y448819D01*
X887357Y448732D01*
X887413Y448647D01*
X887471Y448564D01*
X887533Y448484D01*
X887598Y448406D01*
X887665Y448330D01*
X887735Y448257D01*
X887808Y448187D01*
X887884Y448120D01*
X887962Y448055D01*
X888042Y447993D01*
X888125Y447935D01*
X888210Y447879D01*
X888297Y447827D01*
X888385Y447778D01*
X888476Y447732D01*
X888568Y447690D01*
X888661Y447651D01*
X888756Y447616D01*
X888853Y447584D01*
X888950Y447556D01*
X889048Y447532D01*
X889147Y447511D01*
X889247Y447494D01*
X889348Y447481D01*
X889449Y447472D01*
X889550Y447466D01*
X889651Y447464D01*
X889651Y447463D02*
X893263Y447463D01*
X880060Y452882D02*
X880060Y463719D01*
X880511Y468235D02*
X880511Y469138D01*
X879608Y469138D01*
X879608Y468235D01*
X880511Y468235D01*
X875070Y463719D02*
X869651Y463719D01*
X873263Y469138D02*
X873263Y455591D01*
X873261Y455490D01*
X873255Y455389D01*
X873246Y455288D01*
X873233Y455187D01*
X873216Y455087D01*
X873195Y454988D01*
X873171Y454890D01*
X873143Y454793D01*
X873111Y454696D01*
X873076Y454601D01*
X873037Y454508D01*
X872995Y454416D01*
X872949Y454325D01*
X872900Y454237D01*
X872848Y454150D01*
X872792Y454065D01*
X872734Y453982D01*
X872672Y453902D01*
X872607Y453824D01*
X872540Y453748D01*
X872470Y453675D01*
X872397Y453605D01*
X872321Y453538D01*
X872243Y453473D01*
X872163Y453411D01*
X872080Y453353D01*
X871995Y453297D01*
X871909Y453245D01*
X871820Y453196D01*
X871729Y453150D01*
X871637Y453108D01*
X871544Y453069D01*
X871449Y453034D01*
X871352Y453002D01*
X871255Y452974D01*
X871157Y452950D01*
X871058Y452929D01*
X870958Y452912D01*
X870857Y452899D01*
X870756Y452890D01*
X870655Y452884D01*
X870554Y452882D01*
X869651Y452882D01*
X863352Y452882D02*
X863352Y469138D01*
X863352Y463719D02*
X858836Y463719D01*
X858732Y463717D01*
X858629Y463711D01*
X858525Y463701D01*
X858422Y463687D01*
X858320Y463669D01*
X858219Y463648D01*
X858118Y463622D01*
X858019Y463593D01*
X857920Y463560D01*
X857823Y463523D01*
X857728Y463482D01*
X857634Y463438D01*
X857542Y463390D01*
X857452Y463339D01*
X857363Y463284D01*
X857277Y463226D01*
X857194Y463164D01*
X857112Y463100D01*
X857034Y463032D01*
X856958Y462962D01*
X856884Y462889D01*
X856814Y462812D01*
X856746Y462734D01*
X856682Y462652D01*
X856620Y462569D01*
X856562Y462483D01*
X856507Y462394D01*
X856456Y462304D01*
X856408Y462212D01*
X856364Y462118D01*
X856323Y462023D01*
X856286Y461926D01*
X856253Y461827D01*
X856224Y461728D01*
X856198Y461627D01*
X856177Y461526D01*
X856159Y461424D01*
X856145Y461321D01*
X856135Y461217D01*
X856129Y461114D01*
X856127Y461010D01*
X856127Y452882D01*
X848762Y455591D02*
X848762Y463719D01*
X848762Y455591D02*
X848760Y455490D01*
X848754Y455389D01*
X848745Y455288D01*
X848732Y455187D01*
X848715Y455087D01*
X848694Y454988D01*
X848670Y454890D01*
X848642Y454793D01*
X848610Y454696D01*
X848575Y454601D01*
X848536Y454508D01*
X848494Y454416D01*
X848448Y454325D01*
X848399Y454237D01*
X848347Y454150D01*
X848291Y454065D01*
X848233Y453982D01*
X848171Y453902D01*
X848106Y453824D01*
X848039Y453748D01*
X847969Y453675D01*
X847896Y453605D01*
X847820Y453538D01*
X847742Y453473D01*
X847662Y453411D01*
X847579Y453353D01*
X847494Y453297D01*
X847408Y453245D01*
X847319Y453196D01*
X847228Y453150D01*
X847136Y453108D01*
X847043Y453069D01*
X846948Y453034D01*
X846851Y453002D01*
X846754Y452974D01*
X846656Y452950D01*
X846557Y452929D01*
X846457Y452912D01*
X846356Y452899D01*
X846255Y452890D01*
X846154Y452884D01*
X846053Y452882D01*
X841538Y452882D01*
X841538Y463719D01*
X834100Y469138D02*
X834100Y452882D01*
X829584Y452882D01*
X829480Y452884D01*
X829377Y452890D01*
X829273Y452900D01*
X829170Y452914D01*
X829068Y452932D01*
X828967Y452953D01*
X828866Y452979D01*
X828767Y453008D01*
X828668Y453041D01*
X828571Y453078D01*
X828476Y453119D01*
X828382Y453163D01*
X828290Y453211D01*
X828200Y453262D01*
X828111Y453317D01*
X828025Y453375D01*
X827942Y453437D01*
X827860Y453501D01*
X827782Y453569D01*
X827706Y453639D01*
X827632Y453712D01*
X827562Y453789D01*
X827494Y453867D01*
X827430Y453949D01*
X827368Y454032D01*
X827310Y454118D01*
X827255Y454207D01*
X827204Y454297D01*
X827156Y454389D01*
X827112Y454483D01*
X827071Y454578D01*
X827034Y454675D01*
X827001Y454774D01*
X826972Y454873D01*
X826946Y454974D01*
X826925Y455075D01*
X826907Y455177D01*
X826893Y455280D01*
X826883Y455384D01*
X826877Y455487D01*
X826875Y455591D01*
X826875Y461010D01*
X826877Y461111D01*
X826883Y461212D01*
X826892Y461313D01*
X826905Y461414D01*
X826922Y461514D01*
X826943Y461613D01*
X826967Y461711D01*
X826995Y461808D01*
X827027Y461905D01*
X827062Y462000D01*
X827101Y462093D01*
X827143Y462185D01*
X827189Y462276D01*
X827238Y462365D01*
X827290Y462451D01*
X827346Y462536D01*
X827404Y462619D01*
X827466Y462699D01*
X827531Y462777D01*
X827598Y462853D01*
X827668Y462926D01*
X827741Y462996D01*
X827817Y463063D01*
X827895Y463128D01*
X827975Y463190D01*
X828058Y463248D01*
X828143Y463304D01*
X828230Y463356D01*
X828318Y463405D01*
X828409Y463451D01*
X828501Y463493D01*
X828594Y463532D01*
X828689Y463567D01*
X828786Y463599D01*
X828883Y463627D01*
X828981Y463651D01*
X829080Y463672D01*
X829180Y463689D01*
X829281Y463702D01*
X829382Y463711D01*
X829483Y463717D01*
X829584Y463719D01*
X834100Y463719D01*
X821113Y453785D02*
X821113Y452882D01*
X821113Y453785D02*
X820210Y453785D01*
X820210Y452882D01*
X821113Y452882D01*
X811647Y452882D02*
X808034Y452882D01*
X811647Y452882D02*
X811748Y452884D01*
X811849Y452890D01*
X811950Y452899D01*
X812051Y452912D01*
X812151Y452929D01*
X812250Y452950D01*
X812348Y452974D01*
X812445Y453002D01*
X812542Y453034D01*
X812637Y453069D01*
X812730Y453108D01*
X812822Y453150D01*
X812913Y453196D01*
X813002Y453245D01*
X813088Y453297D01*
X813173Y453353D01*
X813256Y453411D01*
X813336Y453473D01*
X813414Y453538D01*
X813490Y453605D01*
X813563Y453675D01*
X813633Y453748D01*
X813700Y453824D01*
X813765Y453902D01*
X813827Y453982D01*
X813885Y454065D01*
X813941Y454150D01*
X813993Y454237D01*
X814042Y454325D01*
X814088Y454416D01*
X814130Y454508D01*
X814169Y454601D01*
X814204Y454696D01*
X814236Y454793D01*
X814264Y454890D01*
X814288Y454988D01*
X814309Y455087D01*
X814326Y455187D01*
X814339Y455288D01*
X814348Y455389D01*
X814354Y455490D01*
X814356Y455591D01*
X814356Y461010D01*
X814354Y461111D01*
X814348Y461212D01*
X814339Y461313D01*
X814326Y461414D01*
X814309Y461514D01*
X814288Y461613D01*
X814264Y461711D01*
X814236Y461808D01*
X814204Y461905D01*
X814169Y462000D01*
X814130Y462093D01*
X814088Y462185D01*
X814042Y462276D01*
X813993Y462365D01*
X813941Y462451D01*
X813885Y462536D01*
X813827Y462619D01*
X813765Y462699D01*
X813700Y462777D01*
X813633Y462853D01*
X813563Y462926D01*
X813490Y462996D01*
X813414Y463063D01*
X813336Y463128D01*
X813256Y463190D01*
X813173Y463248D01*
X813088Y463304D01*
X813002Y463356D01*
X812913Y463405D01*
X812822Y463451D01*
X812730Y463493D01*
X812637Y463532D01*
X812542Y463567D01*
X812445Y463599D01*
X812348Y463627D01*
X812250Y463651D01*
X812151Y463672D01*
X812051Y463689D01*
X811950Y463702D01*
X811849Y463711D01*
X811748Y463717D01*
X811647Y463719D01*
X808034Y463719D01*
X802390Y460107D02*
X802390Y456494D01*
X802389Y460107D02*
X802387Y460226D01*
X802381Y460346D01*
X802371Y460465D01*
X802357Y460583D01*
X802340Y460702D01*
X802318Y460819D01*
X802293Y460936D01*
X802263Y461051D01*
X802230Y461166D01*
X802193Y461280D01*
X802153Y461392D01*
X802108Y461503D01*
X802060Y461612D01*
X802009Y461720D01*
X801954Y461826D01*
X801895Y461930D01*
X801833Y462032D01*
X801768Y462132D01*
X801699Y462230D01*
X801627Y462326D01*
X801552Y462419D01*
X801475Y462509D01*
X801394Y462597D01*
X801310Y462682D01*
X801223Y462764D01*
X801134Y462844D01*
X801042Y462920D01*
X800948Y462994D01*
X800851Y463064D01*
X800753Y463131D01*
X800652Y463195D01*
X800548Y463255D01*
X800443Y463312D01*
X800336Y463365D01*
X800228Y463415D01*
X800118Y463461D01*
X800006Y463503D01*
X799893Y463542D01*
X799779Y463577D01*
X799664Y463608D01*
X799547Y463636D01*
X799430Y463659D01*
X799313Y463679D01*
X799194Y463695D01*
X799075Y463707D01*
X798956Y463715D01*
X798837Y463719D01*
X798717Y463719D01*
X798598Y463715D01*
X798479Y463707D01*
X798360Y463695D01*
X798241Y463679D01*
X798124Y463659D01*
X798007Y463636D01*
X797890Y463608D01*
X797775Y463577D01*
X797661Y463542D01*
X797548Y463503D01*
X797436Y463461D01*
X797326Y463415D01*
X797218Y463365D01*
X797111Y463312D01*
X797006Y463255D01*
X796902Y463195D01*
X796801Y463131D01*
X796703Y463064D01*
X796606Y462994D01*
X796512Y462920D01*
X796420Y462844D01*
X796331Y462764D01*
X796244Y462682D01*
X796160Y462597D01*
X796079Y462509D01*
X796002Y462419D01*
X795927Y462326D01*
X795855Y462230D01*
X795786Y462132D01*
X795721Y462032D01*
X795659Y461930D01*
X795600Y461826D01*
X795545Y461720D01*
X795494Y461612D01*
X795446Y461503D01*
X795401Y461392D01*
X795361Y461280D01*
X795324Y461166D01*
X795291Y461051D01*
X795261Y460936D01*
X795236Y460819D01*
X795214Y460702D01*
X795197Y460583D01*
X795183Y460465D01*
X795173Y460346D01*
X795167Y460226D01*
X795165Y460107D01*
X795165Y456494D01*
X795167Y456375D01*
X795173Y456255D01*
X795183Y456136D01*
X795197Y456018D01*
X795214Y455899D01*
X795236Y455782D01*
X795261Y455665D01*
X795291Y455550D01*
X795324Y455435D01*
X795361Y455321D01*
X795401Y455209D01*
X795446Y455098D01*
X795494Y454989D01*
X795545Y454881D01*
X795600Y454775D01*
X795659Y454671D01*
X795721Y454569D01*
X795786Y454469D01*
X795855Y454371D01*
X795927Y454275D01*
X796002Y454182D01*
X796079Y454092D01*
X796160Y454004D01*
X796244Y453919D01*
X796331Y453837D01*
X796420Y453757D01*
X796512Y453681D01*
X796606Y453607D01*
X796703Y453537D01*
X796801Y453470D01*
X796902Y453406D01*
X797006Y453346D01*
X797111Y453289D01*
X797218Y453236D01*
X797326Y453186D01*
X797436Y453140D01*
X797548Y453098D01*
X797661Y453059D01*
X797775Y453024D01*
X797890Y452993D01*
X798007Y452965D01*
X798124Y452942D01*
X798241Y452922D01*
X798360Y452906D01*
X798479Y452894D01*
X798598Y452886D01*
X798717Y452882D01*
X798837Y452882D01*
X798956Y452886D01*
X799075Y452894D01*
X799194Y452906D01*
X799313Y452922D01*
X799430Y452942D01*
X799547Y452965D01*
X799664Y452993D01*
X799779Y453024D01*
X799893Y453059D01*
X800006Y453098D01*
X800118Y453140D01*
X800228Y453186D01*
X800336Y453236D01*
X800443Y453289D01*
X800548Y453346D01*
X800652Y453406D01*
X800753Y453470D01*
X800851Y453537D01*
X800948Y453607D01*
X801042Y453681D01*
X801134Y453757D01*
X801223Y453837D01*
X801310Y453919D01*
X801394Y454004D01*
X801475Y454092D01*
X801552Y454182D01*
X801627Y454275D01*
X801699Y454371D01*
X801768Y454469D01*
X801833Y454569D01*
X801895Y454671D01*
X801954Y454775D01*
X802009Y454881D01*
X802060Y454989D01*
X802108Y455098D01*
X802153Y455209D01*
X802193Y455321D01*
X802230Y455435D01*
X802263Y455550D01*
X802293Y455665D01*
X802318Y455782D01*
X802340Y455899D01*
X802357Y456018D01*
X802371Y456136D01*
X802381Y456255D01*
X802387Y456375D01*
X802389Y456494D01*
X788044Y452882D02*
X788044Y463719D01*
X779916Y463719D01*
X779815Y463717D01*
X779714Y463711D01*
X779613Y463702D01*
X779512Y463689D01*
X779412Y463672D01*
X779313Y463651D01*
X779215Y463627D01*
X779118Y463599D01*
X779021Y463567D01*
X778926Y463532D01*
X778833Y463493D01*
X778741Y463451D01*
X778650Y463405D01*
X778562Y463356D01*
X778475Y463304D01*
X778390Y463248D01*
X778307Y463190D01*
X778227Y463128D01*
X778149Y463063D01*
X778073Y462996D01*
X778000Y462926D01*
X777930Y462853D01*
X777863Y462777D01*
X777798Y462699D01*
X777736Y462619D01*
X777678Y462536D01*
X777622Y462451D01*
X777570Y462365D01*
X777521Y462276D01*
X777475Y462185D01*
X777433Y462093D01*
X777394Y462000D01*
X777359Y461905D01*
X777327Y461808D01*
X777299Y461711D01*
X777275Y461613D01*
X777254Y461514D01*
X777237Y461414D01*
X777224Y461313D01*
X777215Y461212D01*
X777209Y461111D01*
X777207Y461010D01*
X777206Y461010D02*
X777206Y452882D01*
X782625Y452882D02*
X782625Y463719D01*
X770606Y451076D02*
X763381Y470944D01*
X756605Y464622D02*
X756605Y457398D01*
X756605Y464622D02*
X756603Y464755D01*
X756597Y464887D01*
X756587Y465019D01*
X756574Y465151D01*
X756556Y465283D01*
X756535Y465413D01*
X756510Y465544D01*
X756481Y465673D01*
X756448Y465801D01*
X756412Y465929D01*
X756372Y466055D01*
X756328Y466180D01*
X756280Y466304D01*
X756229Y466426D01*
X756174Y466547D01*
X756116Y466666D01*
X756054Y466784D01*
X755989Y466899D01*
X755920Y467013D01*
X755849Y467124D01*
X755773Y467233D01*
X755695Y467340D01*
X755614Y467445D01*
X755529Y467547D01*
X755442Y467647D01*
X755352Y467744D01*
X755259Y467839D01*
X755163Y467930D01*
X755065Y468019D01*
X754964Y468105D01*
X754860Y468188D01*
X754754Y468268D01*
X754646Y468344D01*
X754536Y468418D01*
X754423Y468488D01*
X754309Y468555D01*
X754192Y468618D01*
X754074Y468678D01*
X753954Y468735D01*
X753832Y468788D01*
X753709Y468837D01*
X753585Y468883D01*
X753459Y468925D01*
X753332Y468963D01*
X753204Y468998D01*
X753075Y469029D01*
X752946Y469056D01*
X752815Y469079D01*
X752684Y469099D01*
X752552Y469114D01*
X752420Y469126D01*
X752288Y469134D01*
X752155Y469138D01*
X752023Y469138D01*
X751890Y469134D01*
X751758Y469126D01*
X751626Y469114D01*
X751494Y469099D01*
X751363Y469079D01*
X751232Y469056D01*
X751103Y469029D01*
X750974Y468998D01*
X750846Y468963D01*
X750719Y468925D01*
X750593Y468883D01*
X750469Y468837D01*
X750346Y468788D01*
X750224Y468735D01*
X750104Y468678D01*
X749986Y468618D01*
X749869Y468555D01*
X749755Y468488D01*
X749642Y468418D01*
X749532Y468344D01*
X749424Y468268D01*
X749318Y468188D01*
X749214Y468105D01*
X749113Y468019D01*
X749015Y467930D01*
X748919Y467839D01*
X748826Y467744D01*
X748736Y467647D01*
X748649Y467547D01*
X748564Y467445D01*
X748483Y467340D01*
X748405Y467233D01*
X748329Y467124D01*
X748258Y467013D01*
X748189Y466899D01*
X748124Y466784D01*
X748062Y466666D01*
X748004Y466547D01*
X747949Y466426D01*
X747898Y466304D01*
X747850Y466180D01*
X747806Y466055D01*
X747766Y465929D01*
X747730Y465801D01*
X747697Y465673D01*
X747668Y465544D01*
X747643Y465413D01*
X747622Y465283D01*
X747604Y465151D01*
X747591Y465019D01*
X747581Y464887D01*
X747575Y464755D01*
X747573Y464622D01*
X747574Y464622D02*
X747574Y457398D01*
X747573Y457398D02*
X747575Y457265D01*
X747581Y457133D01*
X747591Y457001D01*
X747604Y456869D01*
X747622Y456737D01*
X747643Y456607D01*
X747668Y456476D01*
X747697Y456347D01*
X747730Y456219D01*
X747766Y456091D01*
X747806Y455965D01*
X747850Y455840D01*
X747898Y455716D01*
X747949Y455594D01*
X748004Y455473D01*
X748062Y455354D01*
X748124Y455236D01*
X748189Y455121D01*
X748258Y455007D01*
X748329Y454896D01*
X748405Y454787D01*
X748483Y454680D01*
X748564Y454575D01*
X748649Y454473D01*
X748736Y454373D01*
X748826Y454276D01*
X748919Y454181D01*
X749015Y454090D01*
X749113Y454001D01*
X749214Y453915D01*
X749318Y453832D01*
X749424Y453752D01*
X749532Y453676D01*
X749642Y453602D01*
X749755Y453532D01*
X749869Y453465D01*
X749986Y453402D01*
X750104Y453342D01*
X750224Y453285D01*
X750346Y453232D01*
X750469Y453183D01*
X750593Y453137D01*
X750719Y453095D01*
X750846Y453057D01*
X750974Y453022D01*
X751103Y452991D01*
X751232Y452964D01*
X751363Y452941D01*
X751494Y452921D01*
X751626Y452906D01*
X751758Y452894D01*
X751890Y452886D01*
X752023Y452882D01*
X752155Y452882D01*
X752288Y452886D01*
X752420Y452894D01*
X752552Y452906D01*
X752684Y452921D01*
X752815Y452941D01*
X752946Y452964D01*
X753075Y452991D01*
X753204Y453022D01*
X753332Y453057D01*
X753459Y453095D01*
X753585Y453137D01*
X753709Y453183D01*
X753832Y453232D01*
X753954Y453285D01*
X754074Y453342D01*
X754192Y453402D01*
X754309Y453465D01*
X754423Y453532D01*
X754536Y453602D01*
X754646Y453676D01*
X754754Y453752D01*
X754860Y453832D01*
X754964Y453915D01*
X755065Y454001D01*
X755163Y454090D01*
X755259Y454181D01*
X755352Y454276D01*
X755442Y454373D01*
X755529Y454473D01*
X755614Y454575D01*
X755695Y454680D01*
X755773Y454787D01*
X755849Y454896D01*
X755920Y455007D01*
X755989Y455121D01*
X756054Y455236D01*
X756116Y455354D01*
X756174Y455473D01*
X756229Y455594D01*
X756280Y455716D01*
X756328Y455840D01*
X756372Y455965D01*
X756412Y456091D01*
X756448Y456219D01*
X756481Y456347D01*
X756510Y456476D01*
X756535Y456607D01*
X756556Y456737D01*
X756574Y456869D01*
X756587Y457001D01*
X756597Y457133D01*
X756603Y457265D01*
X756605Y457398D01*
X749380Y456494D02*
X745768Y452882D01*
X740907Y455591D02*
X740907Y463719D01*
X740907Y455591D02*
X740905Y455490D01*
X740899Y455389D01*
X740890Y455288D01*
X740877Y455187D01*
X740860Y455087D01*
X740839Y454988D01*
X740815Y454890D01*
X740787Y454793D01*
X740755Y454696D01*
X740720Y454601D01*
X740681Y454508D01*
X740639Y454416D01*
X740593Y454325D01*
X740544Y454237D01*
X740492Y454150D01*
X740436Y454065D01*
X740378Y453982D01*
X740316Y453902D01*
X740251Y453824D01*
X740184Y453748D01*
X740114Y453675D01*
X740041Y453605D01*
X739965Y453538D01*
X739887Y453473D01*
X739807Y453411D01*
X739724Y453353D01*
X739639Y453297D01*
X739553Y453245D01*
X739464Y453196D01*
X739373Y453150D01*
X739281Y453108D01*
X739188Y453069D01*
X739093Y453034D01*
X738996Y453002D01*
X738899Y452974D01*
X738801Y452950D01*
X738702Y452929D01*
X738602Y452912D01*
X738501Y452899D01*
X738400Y452890D01*
X738299Y452884D01*
X738198Y452882D01*
X733682Y452882D01*
X733682Y463719D01*
X726874Y463719D02*
X726874Y452882D01*
X727325Y468235D02*
X727325Y469138D01*
X726422Y469138D01*
X726422Y468235D01*
X727325Y468235D01*
X720065Y463719D02*
X720065Y452882D01*
X720065Y463719D02*
X715550Y463719D01*
X715446Y463717D01*
X715343Y463711D01*
X715239Y463701D01*
X715136Y463687D01*
X715034Y463669D01*
X714933Y463648D01*
X714832Y463622D01*
X714733Y463593D01*
X714634Y463560D01*
X714537Y463523D01*
X714442Y463482D01*
X714348Y463438D01*
X714256Y463390D01*
X714166Y463339D01*
X714077Y463284D01*
X713991Y463226D01*
X713908Y463164D01*
X713826Y463100D01*
X713748Y463032D01*
X713672Y462962D01*
X713598Y462889D01*
X713528Y462812D01*
X713460Y462734D01*
X713396Y462652D01*
X713334Y462569D01*
X713276Y462483D01*
X713221Y462394D01*
X713170Y462304D01*
X713122Y462212D01*
X713078Y462118D01*
X713037Y462023D01*
X713000Y461926D01*
X712967Y461827D01*
X712938Y461728D01*
X712912Y461627D01*
X712891Y461526D01*
X712873Y461424D01*
X712859Y461321D01*
X712849Y461217D01*
X712843Y461114D01*
X712841Y461010D01*
X712840Y461010D02*
X712840Y452882D01*
X707295Y463719D02*
X701876Y463719D01*
X705488Y469138D02*
X705488Y455591D01*
X705486Y455490D01*
X705480Y455389D01*
X705471Y455288D01*
X705458Y455187D01*
X705441Y455087D01*
X705420Y454988D01*
X705396Y454890D01*
X705368Y454793D01*
X705336Y454696D01*
X705301Y454601D01*
X705262Y454508D01*
X705220Y454416D01*
X705174Y454325D01*
X705125Y454237D01*
X705073Y454150D01*
X705017Y454065D01*
X704959Y453982D01*
X704897Y453902D01*
X704832Y453824D01*
X704765Y453748D01*
X704695Y453675D01*
X704622Y453605D01*
X704546Y453538D01*
X704468Y453473D01*
X704388Y453411D01*
X704305Y453353D01*
X704220Y453297D01*
X704134Y453245D01*
X704045Y453196D01*
X703954Y453150D01*
X703862Y453108D01*
X703769Y453069D01*
X703674Y453034D01*
X703577Y453002D01*
X703480Y452974D01*
X703382Y452950D01*
X703283Y452929D01*
X703183Y452912D01*
X703082Y452899D01*
X702981Y452890D01*
X702880Y452884D01*
X702779Y452882D01*
X701876Y452882D01*
X696132Y452882D02*
X696132Y463719D01*
X696584Y468235D02*
X696584Y469138D01*
X695681Y469138D01*
X695681Y468235D01*
X696584Y468235D01*
X689324Y463719D02*
X689324Y452882D01*
X689324Y463719D02*
X684808Y463719D01*
X684704Y463717D01*
X684601Y463711D01*
X684497Y463701D01*
X684394Y463687D01*
X684292Y463669D01*
X684191Y463648D01*
X684090Y463622D01*
X683991Y463593D01*
X683892Y463560D01*
X683795Y463523D01*
X683700Y463482D01*
X683606Y463438D01*
X683514Y463390D01*
X683424Y463339D01*
X683335Y463284D01*
X683249Y463226D01*
X683166Y463164D01*
X683084Y463100D01*
X683006Y463032D01*
X682930Y462962D01*
X682856Y462889D01*
X682786Y462812D01*
X682718Y462734D01*
X682654Y462652D01*
X682592Y462569D01*
X682534Y462483D01*
X682479Y462394D01*
X682428Y462304D01*
X682380Y462212D01*
X682336Y462118D01*
X682295Y462023D01*
X682258Y461926D01*
X682225Y461827D01*
X682196Y461728D01*
X682170Y461627D01*
X682149Y461526D01*
X682131Y461424D01*
X682117Y461321D01*
X682107Y461217D01*
X682101Y461114D01*
X682099Y461010D01*
X682099Y452882D01*
X671544Y452882D02*
X667932Y452882D01*
X671544Y452882D02*
X671662Y452884D01*
X671780Y452890D01*
X671898Y452899D01*
X672015Y452913D01*
X672132Y452930D01*
X672249Y452951D01*
X672364Y452976D01*
X672479Y453005D01*
X672593Y453038D01*
X672705Y453074D01*
X672816Y453114D01*
X672926Y453157D01*
X673035Y453204D01*
X673142Y453254D01*
X673247Y453309D01*
X673350Y453366D01*
X673451Y453427D01*
X673551Y453491D01*
X673648Y453558D01*
X673743Y453628D01*
X673835Y453702D01*
X673926Y453778D01*
X674013Y453858D01*
X674098Y453940D01*
X674180Y454025D01*
X674260Y454112D01*
X674336Y454203D01*
X674410Y454295D01*
X674480Y454390D01*
X674547Y454487D01*
X674611Y454587D01*
X674672Y454688D01*
X674729Y454791D01*
X674784Y454896D01*
X674834Y455003D01*
X674881Y455112D01*
X674924Y455222D01*
X674964Y455333D01*
X675000Y455445D01*
X675033Y455559D01*
X675062Y455674D01*
X675087Y455789D01*
X675108Y455906D01*
X675125Y456023D01*
X675139Y456140D01*
X675148Y456258D01*
X675154Y456376D01*
X675156Y456494D01*
X675156Y465526D01*
X675154Y465644D01*
X675148Y465762D01*
X675139Y465880D01*
X675125Y465997D01*
X675108Y466114D01*
X675087Y466231D01*
X675062Y466346D01*
X675033Y466461D01*
X675000Y466575D01*
X674964Y466687D01*
X674924Y466798D01*
X674881Y466908D01*
X674834Y467017D01*
X674784Y467124D01*
X674729Y467229D01*
X674672Y467332D01*
X674611Y467433D01*
X674547Y467533D01*
X674480Y467630D01*
X674410Y467725D01*
X674336Y467817D01*
X674260Y467908D01*
X674180Y467995D01*
X674098Y468080D01*
X674013Y468162D01*
X673926Y468242D01*
X673835Y468318D01*
X673743Y468392D01*
X673648Y468462D01*
X673551Y468529D01*
X673451Y468593D01*
X673350Y468654D01*
X673247Y468711D01*
X673142Y468766D01*
X673035Y468816D01*
X672926Y468863D01*
X672816Y468906D01*
X672705Y468946D01*
X672593Y468982D01*
X672479Y469015D01*
X672364Y469044D01*
X672249Y469069D01*
X672132Y469090D01*
X672015Y469107D01*
X671898Y469121D01*
X671780Y469130D01*
X671662Y469136D01*
X671544Y469138D01*
X667932Y469138D01*
X659142Y459204D02*
X655078Y459204D01*
X659142Y459204D02*
X659254Y459202D01*
X659365Y459196D01*
X659476Y459186D01*
X659587Y459173D01*
X659697Y459155D01*
X659806Y459133D01*
X659915Y459108D01*
X660023Y459079D01*
X660129Y459046D01*
X660235Y459009D01*
X660339Y458969D01*
X660441Y458925D01*
X660542Y458877D01*
X660641Y458826D01*
X660739Y458771D01*
X660834Y458713D01*
X660927Y458652D01*
X661018Y458587D01*
X661107Y458519D01*
X661193Y458448D01*
X661276Y458375D01*
X661357Y458298D01*
X661436Y458218D01*
X661511Y458136D01*
X661583Y458051D01*
X661653Y457964D01*
X661719Y457874D01*
X661782Y457782D01*
X661842Y457687D01*
X661898Y457591D01*
X661951Y457493D01*
X662000Y457393D01*
X662046Y457291D01*
X662088Y457188D01*
X662127Y457083D01*
X662162Y456977D01*
X662193Y456870D01*
X662220Y456762D01*
X662244Y456653D01*
X662263Y456543D01*
X662279Y456433D01*
X662291Y456322D01*
X662299Y456210D01*
X662303Y456099D01*
X662303Y455987D01*
X662299Y455876D01*
X662291Y455764D01*
X662279Y455653D01*
X662263Y455543D01*
X662244Y455433D01*
X662220Y455324D01*
X662193Y455216D01*
X662162Y455109D01*
X662127Y455003D01*
X662088Y454898D01*
X662046Y454795D01*
X662000Y454693D01*
X661951Y454593D01*
X661898Y454495D01*
X661842Y454399D01*
X661782Y454304D01*
X661719Y454212D01*
X661653Y454122D01*
X661583Y454035D01*
X661511Y453950D01*
X661436Y453868D01*
X661357Y453788D01*
X661276Y453711D01*
X661193Y453638D01*
X661107Y453567D01*
X661018Y453499D01*
X660927Y453434D01*
X660834Y453373D01*
X660739Y453315D01*
X660641Y453260D01*
X660542Y453209D01*
X660441Y453161D01*
X660339Y453117D01*
X660235Y453077D01*
X660129Y453040D01*
X660023Y453007D01*
X659915Y452978D01*
X659806Y452953D01*
X659697Y452931D01*
X659587Y452913D01*
X659476Y452900D01*
X659365Y452890D01*
X659254Y452884D01*
X659142Y452882D01*
X655078Y452882D01*
X655078Y461010D01*
X655079Y461010D02*
X655081Y461111D01*
X655087Y461212D01*
X655096Y461313D01*
X655109Y461414D01*
X655126Y461514D01*
X655147Y461613D01*
X655171Y461711D01*
X655199Y461808D01*
X655231Y461905D01*
X655266Y462000D01*
X655305Y462093D01*
X655347Y462185D01*
X655393Y462276D01*
X655442Y462365D01*
X655494Y462451D01*
X655550Y462536D01*
X655608Y462619D01*
X655670Y462699D01*
X655735Y462777D01*
X655802Y462853D01*
X655872Y462926D01*
X655945Y462996D01*
X656021Y463063D01*
X656099Y463128D01*
X656179Y463190D01*
X656262Y463248D01*
X656347Y463304D01*
X656434Y463356D01*
X656522Y463405D01*
X656613Y463451D01*
X656705Y463493D01*
X656798Y463532D01*
X656893Y463567D01*
X656990Y463599D01*
X657087Y463627D01*
X657185Y463651D01*
X657284Y463672D01*
X657384Y463689D01*
X657485Y463702D01*
X657586Y463711D01*
X657687Y463717D01*
X657788Y463719D01*
X661400Y463719D01*
X647556Y463719D02*
X647556Y452882D01*
X647556Y463719D02*
X642137Y463719D01*
X642137Y461913D01*
X637741Y463719D02*
X634129Y452882D01*
X630516Y463719D01*
X621627Y459204D02*
X617563Y459204D01*
X621627Y459204D02*
X621739Y459202D01*
X621850Y459196D01*
X621961Y459186D01*
X622072Y459173D01*
X622182Y459155D01*
X622291Y459133D01*
X622400Y459108D01*
X622508Y459079D01*
X622614Y459046D01*
X622720Y459009D01*
X622824Y458969D01*
X622926Y458925D01*
X623027Y458877D01*
X623126Y458826D01*
X623224Y458771D01*
X623319Y458713D01*
X623412Y458652D01*
X623503Y458587D01*
X623592Y458519D01*
X623678Y458448D01*
X623761Y458375D01*
X623842Y458298D01*
X623921Y458218D01*
X623996Y458136D01*
X624068Y458051D01*
X624138Y457964D01*
X624204Y457874D01*
X624267Y457782D01*
X624327Y457687D01*
X624383Y457591D01*
X624436Y457493D01*
X624485Y457393D01*
X624531Y457291D01*
X624573Y457188D01*
X624612Y457083D01*
X624647Y456977D01*
X624678Y456870D01*
X624705Y456762D01*
X624729Y456653D01*
X624748Y456543D01*
X624764Y456433D01*
X624776Y456322D01*
X624784Y456210D01*
X624788Y456099D01*
X624788Y455987D01*
X624784Y455876D01*
X624776Y455764D01*
X624764Y455653D01*
X624748Y455543D01*
X624729Y455433D01*
X624705Y455324D01*
X624678Y455216D01*
X624647Y455109D01*
X624612Y455003D01*
X624573Y454898D01*
X624531Y454795D01*
X624485Y454693D01*
X624436Y454593D01*
X624383Y454495D01*
X624327Y454399D01*
X624267Y454304D01*
X624204Y454212D01*
X624138Y454122D01*
X624068Y454035D01*
X623996Y453950D01*
X623921Y453868D01*
X623842Y453788D01*
X623761Y453711D01*
X623678Y453638D01*
X623592Y453567D01*
X623503Y453499D01*
X623412Y453434D01*
X623319Y453373D01*
X623224Y453315D01*
X623126Y453260D01*
X623027Y453209D01*
X622926Y453161D01*
X622824Y453117D01*
X622720Y453077D01*
X622614Y453040D01*
X622508Y453007D01*
X622400Y452978D01*
X622291Y452953D01*
X622182Y452931D01*
X622072Y452913D01*
X621961Y452900D01*
X621850Y452890D01*
X621739Y452884D01*
X621627Y452882D01*
X617563Y452882D01*
X617563Y461010D01*
X617564Y461010D02*
X617566Y461111D01*
X617572Y461212D01*
X617581Y461313D01*
X617594Y461414D01*
X617611Y461514D01*
X617632Y461613D01*
X617656Y461711D01*
X617684Y461808D01*
X617716Y461905D01*
X617751Y462000D01*
X617790Y462093D01*
X617832Y462185D01*
X617878Y462276D01*
X617927Y462365D01*
X617979Y462451D01*
X618035Y462536D01*
X618093Y462619D01*
X618155Y462699D01*
X618220Y462777D01*
X618287Y462853D01*
X618357Y462926D01*
X618430Y462996D01*
X618506Y463063D01*
X618584Y463128D01*
X618664Y463190D01*
X618747Y463248D01*
X618832Y463304D01*
X618919Y463356D01*
X619007Y463405D01*
X619098Y463451D01*
X619190Y463493D01*
X619283Y463532D01*
X619378Y463567D01*
X619475Y463599D01*
X619572Y463627D01*
X619670Y463651D01*
X619769Y463672D01*
X619869Y463689D01*
X619970Y463702D01*
X620071Y463711D01*
X620172Y463717D01*
X620273Y463719D01*
X623885Y463719D01*
X610410Y469138D02*
X610410Y455591D01*
X610408Y455490D01*
X610402Y455389D01*
X610393Y455288D01*
X610380Y455187D01*
X610363Y455087D01*
X610342Y454988D01*
X610318Y454890D01*
X610290Y454793D01*
X610258Y454696D01*
X610223Y454601D01*
X610184Y454508D01*
X610142Y454416D01*
X610096Y454325D01*
X610047Y454237D01*
X609995Y454150D01*
X609939Y454065D01*
X609881Y453982D01*
X609819Y453902D01*
X609754Y453824D01*
X609687Y453748D01*
X609617Y453675D01*
X609544Y453605D01*
X609468Y453538D01*
X609390Y453473D01*
X609310Y453411D01*
X609227Y453353D01*
X609142Y453297D01*
X609056Y453245D01*
X608967Y453196D01*
X608876Y453150D01*
X608784Y453108D01*
X608691Y453069D01*
X608596Y453034D01*
X608499Y453002D01*
X608402Y452974D01*
X608304Y452950D01*
X608205Y452929D01*
X608105Y452912D01*
X608004Y452899D01*
X607903Y452890D01*
X607802Y452884D01*
X607701Y452882D01*
X601789Y452882D02*
X601789Y469138D01*
X601789Y463719D02*
X597274Y463719D01*
X597170Y463717D01*
X597067Y463711D01*
X596963Y463701D01*
X596860Y463687D01*
X596758Y463669D01*
X596657Y463648D01*
X596556Y463622D01*
X596457Y463593D01*
X596358Y463560D01*
X596261Y463523D01*
X596166Y463482D01*
X596072Y463438D01*
X595980Y463390D01*
X595890Y463339D01*
X595801Y463284D01*
X595715Y463226D01*
X595632Y463164D01*
X595550Y463100D01*
X595472Y463032D01*
X595396Y462962D01*
X595322Y462889D01*
X595252Y462812D01*
X595184Y462734D01*
X595120Y462652D01*
X595058Y462569D01*
X595000Y462483D01*
X594945Y462394D01*
X594894Y462304D01*
X594846Y462212D01*
X594802Y462118D01*
X594761Y462023D01*
X594724Y461926D01*
X594691Y461827D01*
X594662Y461728D01*
X594636Y461627D01*
X594615Y461526D01*
X594597Y461424D01*
X594583Y461321D01*
X594573Y461217D01*
X594567Y461114D01*
X594565Y461010D01*
X594564Y461010D02*
X594564Y452882D01*
X587721Y456494D02*
X587721Y460107D01*
X587719Y460226D01*
X587713Y460346D01*
X587703Y460465D01*
X587689Y460583D01*
X587672Y460702D01*
X587650Y460819D01*
X587625Y460936D01*
X587595Y461051D01*
X587562Y461166D01*
X587525Y461280D01*
X587485Y461392D01*
X587440Y461503D01*
X587392Y461612D01*
X587341Y461720D01*
X587286Y461826D01*
X587227Y461930D01*
X587165Y462032D01*
X587100Y462132D01*
X587031Y462230D01*
X586959Y462326D01*
X586884Y462419D01*
X586807Y462509D01*
X586726Y462597D01*
X586642Y462682D01*
X586555Y462764D01*
X586466Y462844D01*
X586374Y462920D01*
X586280Y462994D01*
X586183Y463064D01*
X586085Y463131D01*
X585984Y463195D01*
X585880Y463255D01*
X585775Y463312D01*
X585668Y463365D01*
X585560Y463415D01*
X585450Y463461D01*
X585338Y463503D01*
X585225Y463542D01*
X585111Y463577D01*
X584996Y463608D01*
X584879Y463636D01*
X584762Y463659D01*
X584645Y463679D01*
X584526Y463695D01*
X584407Y463707D01*
X584288Y463715D01*
X584169Y463719D01*
X584049Y463719D01*
X583930Y463715D01*
X583811Y463707D01*
X583692Y463695D01*
X583573Y463679D01*
X583456Y463659D01*
X583339Y463636D01*
X583222Y463608D01*
X583107Y463577D01*
X582993Y463542D01*
X582880Y463503D01*
X582768Y463461D01*
X582658Y463415D01*
X582550Y463365D01*
X582443Y463312D01*
X582338Y463255D01*
X582234Y463195D01*
X582133Y463131D01*
X582035Y463064D01*
X581938Y462994D01*
X581844Y462920D01*
X581752Y462844D01*
X581663Y462764D01*
X581576Y462682D01*
X581492Y462597D01*
X581411Y462509D01*
X581334Y462419D01*
X581259Y462326D01*
X581187Y462230D01*
X581118Y462132D01*
X581053Y462032D01*
X580991Y461930D01*
X580932Y461826D01*
X580877Y461720D01*
X580826Y461612D01*
X580778Y461503D01*
X580733Y461392D01*
X580693Y461280D01*
X580656Y461166D01*
X580623Y461051D01*
X580593Y460936D01*
X580568Y460819D01*
X580546Y460702D01*
X580529Y460583D01*
X580515Y460465D01*
X580505Y460346D01*
X580499Y460226D01*
X580497Y460107D01*
X580496Y460107D02*
X580496Y456494D01*
X580497Y456494D02*
X580499Y456375D01*
X580505Y456255D01*
X580515Y456136D01*
X580529Y456018D01*
X580546Y455899D01*
X580568Y455782D01*
X580593Y455665D01*
X580623Y455550D01*
X580656Y455435D01*
X580693Y455321D01*
X580733Y455209D01*
X580778Y455098D01*
X580826Y454989D01*
X580877Y454881D01*
X580932Y454775D01*
X580991Y454671D01*
X581053Y454569D01*
X581118Y454469D01*
X581187Y454371D01*
X581259Y454275D01*
X581334Y454182D01*
X581411Y454092D01*
X581492Y454004D01*
X581576Y453919D01*
X581663Y453837D01*
X581752Y453757D01*
X581844Y453681D01*
X581938Y453607D01*
X582035Y453537D01*
X582133Y453470D01*
X582234Y453406D01*
X582338Y453346D01*
X582443Y453289D01*
X582550Y453236D01*
X582658Y453186D01*
X582768Y453140D01*
X582880Y453098D01*
X582993Y453059D01*
X583107Y453024D01*
X583222Y452993D01*
X583339Y452965D01*
X583456Y452942D01*
X583573Y452922D01*
X583692Y452906D01*
X583811Y452894D01*
X583930Y452886D01*
X584049Y452882D01*
X584169Y452882D01*
X584288Y452886D01*
X584407Y452894D01*
X584526Y452906D01*
X584645Y452922D01*
X584762Y452942D01*
X584879Y452965D01*
X584996Y452993D01*
X585111Y453024D01*
X585225Y453059D01*
X585338Y453098D01*
X585450Y453140D01*
X585560Y453186D01*
X585668Y453236D01*
X585775Y453289D01*
X585880Y453346D01*
X585984Y453406D01*
X586085Y453470D01*
X586183Y453537D01*
X586280Y453607D01*
X586374Y453681D01*
X586466Y453757D01*
X586555Y453837D01*
X586642Y453919D01*
X586726Y454004D01*
X586807Y454092D01*
X586884Y454182D01*
X586959Y454275D01*
X587031Y454371D01*
X587100Y454469D01*
X587165Y454569D01*
X587227Y454671D01*
X587286Y454775D01*
X587341Y454881D01*
X587392Y454989D01*
X587440Y455098D01*
X587485Y455209D01*
X587525Y455321D01*
X587562Y455435D01*
X587595Y455550D01*
X587625Y455665D01*
X587650Y455782D01*
X587672Y455899D01*
X587689Y456018D01*
X587703Y456136D01*
X587713Y456255D01*
X587719Y456375D01*
X587721Y456494D01*
X574695Y451076D02*
X567470Y470944D01*
X561009Y469138D02*
X561009Y452882D01*
X561009Y469138D02*
X556494Y469138D01*
X556363Y469136D01*
X556231Y469130D01*
X556100Y469121D01*
X555970Y469107D01*
X555839Y469090D01*
X555710Y469069D01*
X555581Y469045D01*
X555453Y469016D01*
X555325Y468984D01*
X555199Y468948D01*
X555074Y468909D01*
X554949Y468866D01*
X554827Y468819D01*
X554705Y468769D01*
X554585Y468715D01*
X554467Y468658D01*
X554351Y468597D01*
X554236Y468533D01*
X554123Y468466D01*
X554012Y468395D01*
X553904Y468321D01*
X553797Y468244D01*
X553693Y468164D01*
X553591Y468081D01*
X553492Y467996D01*
X553395Y467907D01*
X553301Y467815D01*
X553209Y467721D01*
X553120Y467624D01*
X553035Y467525D01*
X552952Y467423D01*
X552872Y467319D01*
X552795Y467212D01*
X552721Y467104D01*
X552650Y466993D01*
X552583Y466880D01*
X552519Y466765D01*
X552458Y466649D01*
X552401Y466531D01*
X552347Y466411D01*
X552297Y466289D01*
X552250Y466167D01*
X552207Y466042D01*
X552168Y465917D01*
X552132Y465791D01*
X552100Y465663D01*
X552071Y465535D01*
X552047Y465406D01*
X552026Y465277D01*
X552009Y465146D01*
X551995Y465016D01*
X551986Y464885D01*
X551980Y464753D01*
X551978Y464622D01*
X551978Y457398D01*
X551980Y457267D01*
X551986Y457135D01*
X551995Y457004D01*
X552009Y456874D01*
X552026Y456743D01*
X552047Y456614D01*
X552071Y456485D01*
X552100Y456357D01*
X552132Y456229D01*
X552168Y456103D01*
X552207Y455978D01*
X552250Y455853D01*
X552297Y455731D01*
X552347Y455609D01*
X552401Y455489D01*
X552458Y455371D01*
X552519Y455255D01*
X552583Y455140D01*
X552650Y455027D01*
X552721Y454916D01*
X552795Y454808D01*
X552872Y454701D01*
X552952Y454597D01*
X553035Y454495D01*
X553120Y454396D01*
X553209Y454299D01*
X553301Y454205D01*
X553395Y454113D01*
X553492Y454024D01*
X553591Y453939D01*
X553693Y453856D01*
X553797Y453776D01*
X553904Y453699D01*
X554012Y453625D01*
X554123Y453554D01*
X554236Y453487D01*
X554351Y453423D01*
X554467Y453362D01*
X554585Y453305D01*
X554705Y453251D01*
X554827Y453201D01*
X554949Y453154D01*
X555074Y453111D01*
X555199Y453072D01*
X555325Y453036D01*
X555453Y453004D01*
X555581Y452975D01*
X555710Y452951D01*
X555839Y452930D01*
X555970Y452913D01*
X556100Y452899D01*
X556231Y452890D01*
X556363Y452884D01*
X556494Y452882D01*
X561009Y452882D01*
X542287Y452882D02*
X537771Y452882D01*
X542287Y452882D02*
X542388Y452884D01*
X542489Y452890D01*
X542590Y452899D01*
X542691Y452912D01*
X542791Y452929D01*
X542890Y452950D01*
X542988Y452974D01*
X543085Y453002D01*
X543182Y453034D01*
X543277Y453069D01*
X543370Y453108D01*
X543462Y453150D01*
X543553Y453196D01*
X543642Y453245D01*
X543728Y453297D01*
X543813Y453353D01*
X543896Y453411D01*
X543976Y453473D01*
X544054Y453538D01*
X544130Y453605D01*
X544203Y453675D01*
X544273Y453748D01*
X544340Y453824D01*
X544405Y453902D01*
X544467Y453982D01*
X544525Y454065D01*
X544581Y454150D01*
X544633Y454237D01*
X544682Y454325D01*
X544728Y454416D01*
X544770Y454508D01*
X544809Y454601D01*
X544844Y454696D01*
X544876Y454793D01*
X544904Y454890D01*
X544928Y454988D01*
X544949Y455087D01*
X544966Y455187D01*
X544979Y455288D01*
X544988Y455389D01*
X544994Y455490D01*
X544996Y455591D01*
X544996Y460107D01*
X544995Y460107D02*
X544993Y460226D01*
X544987Y460346D01*
X544977Y460465D01*
X544963Y460583D01*
X544946Y460702D01*
X544924Y460819D01*
X544899Y460936D01*
X544869Y461051D01*
X544836Y461166D01*
X544799Y461280D01*
X544759Y461392D01*
X544714Y461503D01*
X544666Y461612D01*
X544615Y461720D01*
X544560Y461826D01*
X544501Y461930D01*
X544439Y462032D01*
X544374Y462132D01*
X544305Y462230D01*
X544233Y462326D01*
X544158Y462419D01*
X544081Y462509D01*
X544000Y462597D01*
X543916Y462682D01*
X543829Y462764D01*
X543740Y462844D01*
X543648Y462920D01*
X543554Y462994D01*
X543457Y463064D01*
X543359Y463131D01*
X543258Y463195D01*
X543154Y463255D01*
X543049Y463312D01*
X542942Y463365D01*
X542834Y463415D01*
X542724Y463461D01*
X542612Y463503D01*
X542499Y463542D01*
X542385Y463577D01*
X542270Y463608D01*
X542153Y463636D01*
X542036Y463659D01*
X541919Y463679D01*
X541800Y463695D01*
X541681Y463707D01*
X541562Y463715D01*
X541443Y463719D01*
X541323Y463719D01*
X541204Y463715D01*
X541085Y463707D01*
X540966Y463695D01*
X540847Y463679D01*
X540730Y463659D01*
X540613Y463636D01*
X540496Y463608D01*
X540381Y463577D01*
X540267Y463542D01*
X540154Y463503D01*
X540042Y463461D01*
X539932Y463415D01*
X539824Y463365D01*
X539717Y463312D01*
X539612Y463255D01*
X539508Y463195D01*
X539407Y463131D01*
X539309Y463064D01*
X539212Y462994D01*
X539118Y462920D01*
X539026Y462844D01*
X538937Y462764D01*
X538850Y462682D01*
X538766Y462597D01*
X538685Y462509D01*
X538608Y462419D01*
X538533Y462326D01*
X538461Y462230D01*
X538392Y462132D01*
X538327Y462032D01*
X538265Y461930D01*
X538206Y461826D01*
X538151Y461720D01*
X538100Y461612D01*
X538052Y461503D01*
X538007Y461392D01*
X537967Y461280D01*
X537930Y461166D01*
X537897Y461051D01*
X537867Y460936D01*
X537842Y460819D01*
X537820Y460702D01*
X537803Y460583D01*
X537789Y460465D01*
X537779Y460346D01*
X537773Y460226D01*
X537771Y460107D01*
X537771Y458301D01*
X544996Y458301D01*
X530094Y459204D02*
X525579Y457398D01*
X530094Y459204D02*
X530182Y459241D01*
X530268Y459282D01*
X530353Y459326D01*
X530436Y459374D01*
X530516Y459425D01*
X530595Y459479D01*
X530671Y459537D01*
X530745Y459597D01*
X530817Y459661D01*
X530885Y459727D01*
X530951Y459797D01*
X531014Y459868D01*
X531075Y459943D01*
X531132Y460019D01*
X531185Y460098D01*
X531236Y460179D01*
X531283Y460262D01*
X531327Y460347D01*
X531367Y460434D01*
X531404Y460522D01*
X531437Y460612D01*
X531467Y460703D01*
X531492Y460795D01*
X531514Y460888D01*
X531532Y460982D01*
X531547Y461076D01*
X531557Y461171D01*
X531563Y461267D01*
X531566Y461362D01*
X531565Y461458D01*
X531559Y461553D01*
X531550Y461649D01*
X531537Y461743D01*
X531521Y461837D01*
X531500Y461931D01*
X531475Y462023D01*
X531447Y462114D01*
X531415Y462204D01*
X531380Y462293D01*
X531341Y462380D01*
X531298Y462466D01*
X531252Y462550D01*
X531202Y462631D01*
X531150Y462711D01*
X531094Y462789D01*
X531034Y462864D01*
X530972Y462936D01*
X530907Y463006D01*
X530839Y463074D01*
X530769Y463138D01*
X530696Y463200D01*
X530620Y463258D01*
X530542Y463314D01*
X530462Y463366D01*
X530380Y463415D01*
X530296Y463460D01*
X530210Y463502D01*
X530123Y463541D01*
X530034Y463576D01*
X529943Y463607D01*
X529852Y463634D01*
X529759Y463658D01*
X529666Y463678D01*
X529572Y463694D01*
X529477Y463706D01*
X529382Y463715D01*
X529286Y463719D01*
X529191Y463720D01*
X528944Y463713D01*
X528698Y463701D01*
X528452Y463683D01*
X528206Y463658D01*
X527962Y463628D01*
X527718Y463592D01*
X527475Y463551D01*
X527233Y463503D01*
X526992Y463449D01*
X526753Y463390D01*
X526515Y463325D01*
X526279Y463254D01*
X526044Y463178D01*
X525811Y463096D01*
X525581Y463008D01*
X525353Y462915D01*
X525126Y462817D01*
X525578Y457397D02*
X525490Y457360D01*
X525404Y457319D01*
X525319Y457275D01*
X525236Y457227D01*
X525156Y457176D01*
X525077Y457122D01*
X525001Y457064D01*
X524927Y457004D01*
X524855Y456940D01*
X524787Y456874D01*
X524721Y456804D01*
X524658Y456733D01*
X524597Y456658D01*
X524540Y456582D01*
X524487Y456503D01*
X524436Y456422D01*
X524389Y456339D01*
X524345Y456254D01*
X524305Y456167D01*
X524268Y456079D01*
X524235Y455989D01*
X524205Y455898D01*
X524180Y455806D01*
X524158Y455713D01*
X524140Y455619D01*
X524125Y455525D01*
X524115Y455430D01*
X524109Y455334D01*
X524106Y455239D01*
X524107Y455143D01*
X524113Y455048D01*
X524122Y454952D01*
X524135Y454858D01*
X524151Y454764D01*
X524172Y454670D01*
X524197Y454578D01*
X524225Y454487D01*
X524257Y454397D01*
X524292Y454308D01*
X524331Y454221D01*
X524374Y454135D01*
X524420Y454051D01*
X524470Y453970D01*
X524522Y453890D01*
X524578Y453812D01*
X524638Y453737D01*
X524700Y453665D01*
X524765Y453595D01*
X524833Y453527D01*
X524903Y453463D01*
X524976Y453401D01*
X525052Y453343D01*
X525130Y453287D01*
X525210Y453235D01*
X525292Y453186D01*
X525376Y453141D01*
X525462Y453099D01*
X525549Y453060D01*
X525638Y453025D01*
X525729Y452994D01*
X525820Y452967D01*
X525913Y452943D01*
X526006Y452923D01*
X526100Y452907D01*
X526195Y452895D01*
X526290Y452886D01*
X526386Y452882D01*
X526481Y452881D01*
X526482Y452882D02*
X526844Y452891D01*
X527206Y452909D01*
X527567Y452936D01*
X527927Y452971D01*
X528287Y453014D01*
X528646Y453066D01*
X529003Y453127D01*
X529358Y453196D01*
X529712Y453273D01*
X530064Y453359D01*
X530414Y453453D01*
X530762Y453556D01*
X531107Y453666D01*
X531449Y453785D01*
X517937Y452882D02*
X517937Y463719D01*
X518388Y468235D02*
X518388Y469138D01*
X517485Y469138D01*
X517485Y468235D01*
X518388Y468235D01*
X509013Y452882D02*
X504498Y452882D01*
X509013Y452882D02*
X509114Y452884D01*
X509215Y452890D01*
X509316Y452899D01*
X509417Y452912D01*
X509517Y452929D01*
X509616Y452950D01*
X509714Y452974D01*
X509811Y453002D01*
X509908Y453034D01*
X510003Y453069D01*
X510096Y453108D01*
X510188Y453150D01*
X510279Y453196D01*
X510368Y453245D01*
X510454Y453297D01*
X510539Y453353D01*
X510622Y453411D01*
X510702Y453473D01*
X510780Y453538D01*
X510856Y453605D01*
X510929Y453675D01*
X510999Y453748D01*
X511066Y453824D01*
X511131Y453902D01*
X511193Y453982D01*
X511251Y454065D01*
X511307Y454150D01*
X511359Y454237D01*
X511408Y454325D01*
X511454Y454416D01*
X511496Y454508D01*
X511535Y454601D01*
X511570Y454696D01*
X511602Y454793D01*
X511630Y454890D01*
X511654Y454988D01*
X511675Y455087D01*
X511692Y455187D01*
X511705Y455288D01*
X511714Y455389D01*
X511720Y455490D01*
X511722Y455591D01*
X511723Y455591D02*
X511723Y461010D01*
X511722Y461010D02*
X511720Y461111D01*
X511714Y461212D01*
X511705Y461313D01*
X511692Y461414D01*
X511675Y461514D01*
X511654Y461613D01*
X511630Y461711D01*
X511602Y461808D01*
X511570Y461905D01*
X511535Y462000D01*
X511496Y462093D01*
X511454Y462185D01*
X511408Y462276D01*
X511359Y462365D01*
X511307Y462451D01*
X511251Y462536D01*
X511193Y462619D01*
X511131Y462699D01*
X511066Y462777D01*
X510999Y462853D01*
X510929Y462926D01*
X510856Y462996D01*
X510780Y463063D01*
X510702Y463128D01*
X510622Y463190D01*
X510539Y463248D01*
X510454Y463304D01*
X510368Y463356D01*
X510279Y463405D01*
X510188Y463451D01*
X510096Y463493D01*
X510003Y463532D01*
X509908Y463567D01*
X509811Y463599D01*
X509714Y463627D01*
X509616Y463651D01*
X509517Y463672D01*
X509417Y463689D01*
X509316Y463702D01*
X509215Y463711D01*
X509114Y463717D01*
X509013Y463719D01*
X504498Y463719D01*
X504498Y450173D01*
X504500Y450072D01*
X504506Y449971D01*
X504515Y449870D01*
X504528Y449769D01*
X504545Y449669D01*
X504566Y449570D01*
X504590Y449472D01*
X504618Y449375D01*
X504650Y449278D01*
X504685Y449183D01*
X504724Y449090D01*
X504766Y448998D01*
X504812Y448907D01*
X504861Y448819D01*
X504913Y448732D01*
X504969Y448647D01*
X505027Y448564D01*
X505089Y448484D01*
X505154Y448406D01*
X505221Y448330D01*
X505291Y448257D01*
X505364Y448187D01*
X505440Y448120D01*
X505518Y448055D01*
X505598Y447993D01*
X505681Y447935D01*
X505766Y447879D01*
X505853Y447827D01*
X505941Y447778D01*
X506032Y447732D01*
X506124Y447690D01*
X506217Y447651D01*
X506312Y447616D01*
X506409Y447584D01*
X506506Y447556D01*
X506604Y447532D01*
X506703Y447511D01*
X506803Y447494D01*
X506904Y447481D01*
X507005Y447472D01*
X507106Y447466D01*
X507207Y447464D01*
X507207Y447463D02*
X510819Y447463D01*
X497060Y452882D02*
X497060Y463719D01*
X492545Y463719D01*
X492441Y463717D01*
X492338Y463711D01*
X492234Y463701D01*
X492131Y463687D01*
X492029Y463669D01*
X491928Y463648D01*
X491827Y463622D01*
X491728Y463593D01*
X491629Y463560D01*
X491532Y463523D01*
X491437Y463482D01*
X491343Y463438D01*
X491251Y463390D01*
X491161Y463339D01*
X491072Y463284D01*
X490986Y463226D01*
X490903Y463164D01*
X490821Y463100D01*
X490743Y463032D01*
X490667Y462962D01*
X490593Y462889D01*
X490523Y462812D01*
X490455Y462734D01*
X490391Y462652D01*
X490329Y462569D01*
X490271Y462483D01*
X490216Y462394D01*
X490165Y462304D01*
X490117Y462212D01*
X490073Y462118D01*
X490032Y462023D01*
X489995Y461926D01*
X489962Y461827D01*
X489933Y461728D01*
X489907Y461627D01*
X489886Y461526D01*
X489868Y461424D01*
X489854Y461321D01*
X489844Y461217D01*
X489838Y461114D01*
X489836Y461010D01*
X489835Y461010D02*
X489835Y452882D01*
X483513Y451076D02*
X476288Y451076D01*
X469616Y452882D02*
X469616Y469138D01*
X465101Y469138D01*
X464968Y469136D01*
X464836Y469130D01*
X464704Y469120D01*
X464572Y469107D01*
X464440Y469089D01*
X464310Y469068D01*
X464179Y469043D01*
X464050Y469014D01*
X463922Y468981D01*
X463794Y468945D01*
X463668Y468905D01*
X463543Y468861D01*
X463419Y468813D01*
X463297Y468762D01*
X463176Y468707D01*
X463057Y468649D01*
X462939Y468587D01*
X462824Y468522D01*
X462710Y468453D01*
X462599Y468382D01*
X462490Y468306D01*
X462383Y468228D01*
X462278Y468147D01*
X462176Y468062D01*
X462076Y467975D01*
X461979Y467885D01*
X461884Y467792D01*
X461793Y467696D01*
X461704Y467598D01*
X461618Y467497D01*
X461535Y467393D01*
X461455Y467287D01*
X461379Y467179D01*
X461305Y467069D01*
X461235Y466956D01*
X461168Y466842D01*
X461105Y466725D01*
X461045Y466607D01*
X460988Y466487D01*
X460935Y466365D01*
X460886Y466242D01*
X460840Y466118D01*
X460798Y465992D01*
X460760Y465865D01*
X460725Y465737D01*
X460694Y465608D01*
X460667Y465479D01*
X460644Y465348D01*
X460624Y465217D01*
X460609Y465085D01*
X460597Y464953D01*
X460589Y464821D01*
X460585Y464688D01*
X460585Y464556D01*
X460589Y464423D01*
X460597Y464291D01*
X460609Y464159D01*
X460624Y464027D01*
X460644Y463896D01*
X460667Y463765D01*
X460694Y463636D01*
X460725Y463507D01*
X460760Y463379D01*
X460798Y463252D01*
X460840Y463126D01*
X460886Y463002D01*
X460935Y462879D01*
X460988Y462757D01*
X461045Y462637D01*
X461105Y462519D01*
X461168Y462402D01*
X461235Y462288D01*
X461305Y462175D01*
X461379Y462065D01*
X461455Y461957D01*
X461535Y461851D01*
X461618Y461747D01*
X461704Y461646D01*
X461793Y461548D01*
X461884Y461452D01*
X461979Y461359D01*
X462076Y461269D01*
X462176Y461182D01*
X462278Y461097D01*
X462383Y461016D01*
X462490Y460938D01*
X462599Y460862D01*
X462710Y460791D01*
X462824Y460722D01*
X462939Y460657D01*
X463057Y460595D01*
X463176Y460537D01*
X463297Y460482D01*
X463419Y460431D01*
X463543Y460383D01*
X463668Y460339D01*
X463794Y460299D01*
X463922Y460263D01*
X464050Y460230D01*
X464179Y460201D01*
X464310Y460176D01*
X464440Y460155D01*
X464572Y460137D01*
X464704Y460124D01*
X464836Y460114D01*
X464968Y460108D01*
X465101Y460106D01*
X465101Y460107D02*
X469616Y460107D01*
X454250Y463719D02*
X454250Y452882D01*
X454250Y463719D02*
X448831Y463719D01*
X448831Y461913D01*
X443914Y460107D02*
X443914Y456494D01*
X443914Y460107D02*
X443912Y460226D01*
X443906Y460346D01*
X443896Y460465D01*
X443882Y460583D01*
X443865Y460702D01*
X443843Y460819D01*
X443818Y460936D01*
X443788Y461051D01*
X443755Y461166D01*
X443718Y461280D01*
X443678Y461392D01*
X443633Y461503D01*
X443585Y461612D01*
X443534Y461720D01*
X443479Y461826D01*
X443420Y461930D01*
X443358Y462032D01*
X443293Y462132D01*
X443224Y462230D01*
X443152Y462326D01*
X443077Y462419D01*
X443000Y462509D01*
X442919Y462597D01*
X442835Y462682D01*
X442748Y462764D01*
X442659Y462844D01*
X442567Y462920D01*
X442473Y462994D01*
X442376Y463064D01*
X442278Y463131D01*
X442177Y463195D01*
X442073Y463255D01*
X441968Y463312D01*
X441861Y463365D01*
X441753Y463415D01*
X441643Y463461D01*
X441531Y463503D01*
X441418Y463542D01*
X441304Y463577D01*
X441189Y463608D01*
X441072Y463636D01*
X440955Y463659D01*
X440838Y463679D01*
X440719Y463695D01*
X440600Y463707D01*
X440481Y463715D01*
X440362Y463719D01*
X440242Y463719D01*
X440123Y463715D01*
X440004Y463707D01*
X439885Y463695D01*
X439766Y463679D01*
X439649Y463659D01*
X439532Y463636D01*
X439415Y463608D01*
X439300Y463577D01*
X439186Y463542D01*
X439073Y463503D01*
X438961Y463461D01*
X438851Y463415D01*
X438743Y463365D01*
X438636Y463312D01*
X438531Y463255D01*
X438427Y463195D01*
X438326Y463131D01*
X438228Y463064D01*
X438131Y462994D01*
X438037Y462920D01*
X437945Y462844D01*
X437856Y462764D01*
X437769Y462682D01*
X437685Y462597D01*
X437604Y462509D01*
X437527Y462419D01*
X437452Y462326D01*
X437380Y462230D01*
X437311Y462132D01*
X437246Y462032D01*
X437184Y461930D01*
X437125Y461826D01*
X437070Y461720D01*
X437019Y461612D01*
X436971Y461503D01*
X436926Y461392D01*
X436886Y461280D01*
X436849Y461166D01*
X436816Y461051D01*
X436786Y460936D01*
X436761Y460819D01*
X436739Y460702D01*
X436722Y460583D01*
X436708Y460465D01*
X436698Y460346D01*
X436692Y460226D01*
X436690Y460107D01*
X436689Y460107D02*
X436689Y456494D01*
X436690Y456494D02*
X436692Y456375D01*
X436698Y456255D01*
X436708Y456136D01*
X436722Y456018D01*
X436739Y455899D01*
X436761Y455782D01*
X436786Y455665D01*
X436816Y455550D01*
X436849Y455435D01*
X436886Y455321D01*
X436926Y455209D01*
X436971Y455098D01*
X437019Y454989D01*
X437070Y454881D01*
X437125Y454775D01*
X437184Y454671D01*
X437246Y454569D01*
X437311Y454469D01*
X437380Y454371D01*
X437452Y454275D01*
X437527Y454182D01*
X437604Y454092D01*
X437685Y454004D01*
X437769Y453919D01*
X437856Y453837D01*
X437945Y453757D01*
X438037Y453681D01*
X438131Y453607D01*
X438228Y453537D01*
X438326Y453470D01*
X438427Y453406D01*
X438531Y453346D01*
X438636Y453289D01*
X438743Y453236D01*
X438851Y453186D01*
X438961Y453140D01*
X439073Y453098D01*
X439186Y453059D01*
X439300Y453024D01*
X439415Y452993D01*
X439532Y452965D01*
X439649Y452942D01*
X439766Y452922D01*
X439885Y452906D01*
X440004Y452894D01*
X440123Y452886D01*
X440242Y452882D01*
X440362Y452882D01*
X440481Y452886D01*
X440600Y452894D01*
X440719Y452906D01*
X440838Y452922D01*
X440955Y452942D01*
X441072Y452965D01*
X441189Y452993D01*
X441304Y453024D01*
X441418Y453059D01*
X441531Y453098D01*
X441643Y453140D01*
X441753Y453186D01*
X441861Y453236D01*
X441968Y453289D01*
X442073Y453346D01*
X442177Y453406D01*
X442278Y453470D01*
X442376Y453537D01*
X442473Y453607D01*
X442567Y453681D01*
X442659Y453757D01*
X442748Y453837D01*
X442835Y453919D01*
X442919Y454004D01*
X443000Y454092D01*
X443077Y454182D01*
X443152Y454275D01*
X443224Y454371D01*
X443293Y454469D01*
X443358Y454569D01*
X443420Y454671D01*
X443479Y454775D01*
X443534Y454881D01*
X443585Y454989D01*
X443633Y455098D01*
X443678Y455209D01*
X443718Y455321D01*
X443755Y455435D01*
X443788Y455550D01*
X443818Y455665D01*
X443843Y455782D01*
X443865Y455899D01*
X443882Y456018D01*
X443896Y456136D01*
X443906Y456255D01*
X443912Y456375D01*
X443914Y456494D01*
X430645Y450173D02*
X430645Y463719D01*
X430645Y450173D02*
X430647Y450072D01*
X430653Y449971D01*
X430662Y449870D01*
X430675Y449769D01*
X430692Y449669D01*
X430713Y449570D01*
X430737Y449472D01*
X430765Y449375D01*
X430797Y449278D01*
X430832Y449183D01*
X430871Y449090D01*
X430913Y448998D01*
X430959Y448907D01*
X431008Y448819D01*
X431060Y448732D01*
X431116Y448647D01*
X431174Y448564D01*
X431236Y448484D01*
X431301Y448406D01*
X431368Y448330D01*
X431438Y448257D01*
X431511Y448187D01*
X431587Y448120D01*
X431665Y448055D01*
X431745Y447993D01*
X431828Y447935D01*
X431913Y447879D01*
X432000Y447827D01*
X432088Y447778D01*
X432179Y447732D01*
X432271Y447690D01*
X432364Y447651D01*
X432459Y447616D01*
X432556Y447584D01*
X432653Y447556D01*
X432751Y447532D01*
X432850Y447511D01*
X432950Y447494D01*
X433051Y447481D01*
X433152Y447472D01*
X433253Y447466D01*
X433354Y447464D01*
X433354Y447463D02*
X434257Y447463D01*
X431097Y468235D02*
X431097Y469138D01*
X430193Y469138D01*
X430193Y468235D01*
X431097Y468235D01*
X421405Y452882D02*
X416890Y452882D01*
X421405Y452882D02*
X421506Y452884D01*
X421607Y452890D01*
X421708Y452899D01*
X421809Y452912D01*
X421909Y452929D01*
X422008Y452950D01*
X422106Y452974D01*
X422203Y453002D01*
X422300Y453034D01*
X422395Y453069D01*
X422488Y453108D01*
X422580Y453150D01*
X422671Y453196D01*
X422760Y453245D01*
X422846Y453297D01*
X422931Y453353D01*
X423014Y453411D01*
X423094Y453473D01*
X423172Y453538D01*
X423248Y453605D01*
X423321Y453675D01*
X423391Y453748D01*
X423458Y453824D01*
X423523Y453902D01*
X423585Y453982D01*
X423643Y454065D01*
X423699Y454150D01*
X423751Y454237D01*
X423800Y454325D01*
X423846Y454416D01*
X423888Y454508D01*
X423927Y454601D01*
X423962Y454696D01*
X423994Y454793D01*
X424022Y454890D01*
X424046Y454988D01*
X424067Y455087D01*
X424084Y455187D01*
X424097Y455288D01*
X424106Y455389D01*
X424112Y455490D01*
X424114Y455591D01*
X424114Y460107D01*
X424112Y460226D01*
X424106Y460346D01*
X424096Y460465D01*
X424082Y460583D01*
X424065Y460702D01*
X424043Y460819D01*
X424018Y460936D01*
X423988Y461051D01*
X423955Y461166D01*
X423918Y461280D01*
X423878Y461392D01*
X423833Y461503D01*
X423785Y461612D01*
X423734Y461720D01*
X423679Y461826D01*
X423620Y461930D01*
X423558Y462032D01*
X423493Y462132D01*
X423424Y462230D01*
X423352Y462326D01*
X423277Y462419D01*
X423200Y462509D01*
X423119Y462597D01*
X423035Y462682D01*
X422948Y462764D01*
X422859Y462844D01*
X422767Y462920D01*
X422673Y462994D01*
X422576Y463064D01*
X422478Y463131D01*
X422377Y463195D01*
X422273Y463255D01*
X422168Y463312D01*
X422061Y463365D01*
X421953Y463415D01*
X421843Y463461D01*
X421731Y463503D01*
X421618Y463542D01*
X421504Y463577D01*
X421389Y463608D01*
X421272Y463636D01*
X421155Y463659D01*
X421038Y463679D01*
X420919Y463695D01*
X420800Y463707D01*
X420681Y463715D01*
X420562Y463719D01*
X420442Y463719D01*
X420323Y463715D01*
X420204Y463707D01*
X420085Y463695D01*
X419966Y463679D01*
X419849Y463659D01*
X419732Y463636D01*
X419615Y463608D01*
X419500Y463577D01*
X419386Y463542D01*
X419273Y463503D01*
X419161Y463461D01*
X419051Y463415D01*
X418943Y463365D01*
X418836Y463312D01*
X418731Y463255D01*
X418627Y463195D01*
X418526Y463131D01*
X418428Y463064D01*
X418331Y462994D01*
X418237Y462920D01*
X418145Y462844D01*
X418056Y462764D01*
X417969Y462682D01*
X417885Y462597D01*
X417804Y462509D01*
X417727Y462419D01*
X417652Y462326D01*
X417580Y462230D01*
X417511Y462132D01*
X417446Y462032D01*
X417384Y461930D01*
X417325Y461826D01*
X417270Y461720D01*
X417219Y461612D01*
X417171Y461503D01*
X417126Y461392D01*
X417086Y461280D01*
X417049Y461166D01*
X417016Y461051D01*
X416986Y460936D01*
X416961Y460819D01*
X416939Y460702D01*
X416922Y460583D01*
X416908Y460465D01*
X416898Y460346D01*
X416892Y460226D01*
X416890Y460107D01*
X416890Y458301D01*
X424114Y458301D01*
X407840Y452882D02*
X404228Y452882D01*
X407840Y452882D02*
X407941Y452884D01*
X408042Y452890D01*
X408143Y452899D01*
X408244Y452912D01*
X408344Y452929D01*
X408443Y452950D01*
X408541Y452974D01*
X408638Y453002D01*
X408735Y453034D01*
X408830Y453069D01*
X408923Y453108D01*
X409015Y453150D01*
X409106Y453196D01*
X409195Y453245D01*
X409281Y453297D01*
X409366Y453353D01*
X409449Y453411D01*
X409529Y453473D01*
X409607Y453538D01*
X409683Y453605D01*
X409756Y453675D01*
X409826Y453748D01*
X409893Y453824D01*
X409958Y453902D01*
X410020Y453982D01*
X410078Y454065D01*
X410134Y454150D01*
X410186Y454237D01*
X410235Y454325D01*
X410281Y454416D01*
X410323Y454508D01*
X410362Y454601D01*
X410397Y454696D01*
X410429Y454793D01*
X410457Y454890D01*
X410481Y454988D01*
X410502Y455087D01*
X410519Y455187D01*
X410532Y455288D01*
X410541Y455389D01*
X410547Y455490D01*
X410549Y455591D01*
X410550Y455591D02*
X410550Y461010D01*
X410549Y461010D02*
X410547Y461111D01*
X410541Y461212D01*
X410532Y461313D01*
X410519Y461414D01*
X410502Y461514D01*
X410481Y461613D01*
X410457Y461711D01*
X410429Y461808D01*
X410397Y461905D01*
X410362Y462000D01*
X410323Y462093D01*
X410281Y462185D01*
X410235Y462276D01*
X410186Y462365D01*
X410134Y462451D01*
X410078Y462536D01*
X410020Y462619D01*
X409958Y462699D01*
X409893Y462777D01*
X409826Y462853D01*
X409756Y462926D01*
X409683Y462996D01*
X409607Y463063D01*
X409529Y463128D01*
X409449Y463190D01*
X409366Y463248D01*
X409281Y463304D01*
X409195Y463356D01*
X409106Y463405D01*
X409015Y463451D01*
X408923Y463493D01*
X408830Y463532D01*
X408735Y463567D01*
X408638Y463599D01*
X408541Y463627D01*
X408443Y463651D01*
X408344Y463672D01*
X408244Y463689D01*
X408143Y463702D01*
X408042Y463711D01*
X407941Y463717D01*
X407840Y463719D01*
X404228Y463719D01*
X399881Y463719D02*
X394462Y463719D01*
X398074Y469138D02*
X398074Y455591D01*
X398072Y455490D01*
X398066Y455389D01*
X398057Y455288D01*
X398044Y455187D01*
X398027Y455087D01*
X398006Y454988D01*
X397982Y454890D01*
X397954Y454793D01*
X397922Y454696D01*
X397887Y454601D01*
X397848Y454508D01*
X397806Y454416D01*
X397760Y454325D01*
X397711Y454237D01*
X397659Y454150D01*
X397603Y454065D01*
X397545Y453982D01*
X397483Y453902D01*
X397418Y453824D01*
X397351Y453748D01*
X397281Y453675D01*
X397208Y453605D01*
X397132Y453538D01*
X397054Y453473D01*
X396974Y453411D01*
X396891Y453353D01*
X396806Y453297D01*
X396720Y453245D01*
X396631Y453196D01*
X396540Y453150D01*
X396448Y453108D01*
X396355Y453069D01*
X396260Y453034D01*
X396163Y453002D01*
X396066Y452974D01*
X395968Y452950D01*
X395869Y452929D01*
X395769Y452912D01*
X395668Y452899D01*
X395567Y452890D01*
X395466Y452884D01*
X395365Y452882D01*
X394462Y452882D01*
X946220Y414782D02*
X951639Y431038D01*
X940801Y431038D02*
X946220Y414782D01*
X932534Y414782D02*
X928018Y414782D01*
X932534Y414782D02*
X932635Y414784D01*
X932736Y414790D01*
X932837Y414799D01*
X932938Y414812D01*
X933038Y414829D01*
X933137Y414850D01*
X933235Y414874D01*
X933332Y414902D01*
X933429Y414934D01*
X933524Y414969D01*
X933617Y415008D01*
X933709Y415050D01*
X933800Y415096D01*
X933889Y415145D01*
X933975Y415197D01*
X934060Y415253D01*
X934143Y415311D01*
X934223Y415373D01*
X934301Y415438D01*
X934377Y415505D01*
X934450Y415575D01*
X934520Y415648D01*
X934587Y415724D01*
X934652Y415802D01*
X934714Y415882D01*
X934772Y415965D01*
X934828Y416050D01*
X934880Y416137D01*
X934929Y416225D01*
X934975Y416316D01*
X935017Y416408D01*
X935056Y416501D01*
X935091Y416596D01*
X935123Y416693D01*
X935151Y416790D01*
X935175Y416888D01*
X935196Y416987D01*
X935213Y417087D01*
X935226Y417188D01*
X935235Y417289D01*
X935241Y417390D01*
X935243Y417491D01*
X935243Y422007D01*
X935241Y422126D01*
X935235Y422246D01*
X935225Y422365D01*
X935211Y422483D01*
X935194Y422602D01*
X935172Y422719D01*
X935147Y422836D01*
X935117Y422951D01*
X935084Y423066D01*
X935047Y423180D01*
X935007Y423292D01*
X934962Y423403D01*
X934914Y423512D01*
X934863Y423620D01*
X934808Y423726D01*
X934749Y423830D01*
X934687Y423932D01*
X934622Y424032D01*
X934553Y424130D01*
X934481Y424226D01*
X934406Y424319D01*
X934329Y424409D01*
X934248Y424497D01*
X934164Y424582D01*
X934077Y424664D01*
X933988Y424744D01*
X933896Y424820D01*
X933802Y424894D01*
X933705Y424964D01*
X933607Y425031D01*
X933506Y425095D01*
X933402Y425155D01*
X933297Y425212D01*
X933190Y425265D01*
X933082Y425315D01*
X932972Y425361D01*
X932860Y425403D01*
X932747Y425442D01*
X932633Y425477D01*
X932518Y425508D01*
X932401Y425536D01*
X932284Y425559D01*
X932167Y425579D01*
X932048Y425595D01*
X931929Y425607D01*
X931810Y425615D01*
X931691Y425619D01*
X931571Y425619D01*
X931452Y425615D01*
X931333Y425607D01*
X931214Y425595D01*
X931095Y425579D01*
X930978Y425559D01*
X930861Y425536D01*
X930744Y425508D01*
X930629Y425477D01*
X930515Y425442D01*
X930402Y425403D01*
X930290Y425361D01*
X930180Y425315D01*
X930072Y425265D01*
X929965Y425212D01*
X929860Y425155D01*
X929756Y425095D01*
X929655Y425031D01*
X929557Y424964D01*
X929460Y424894D01*
X929366Y424820D01*
X929274Y424744D01*
X929185Y424664D01*
X929098Y424582D01*
X929014Y424497D01*
X928933Y424409D01*
X928856Y424319D01*
X928781Y424226D01*
X928709Y424130D01*
X928640Y424032D01*
X928575Y423932D01*
X928513Y423830D01*
X928454Y423726D01*
X928399Y423620D01*
X928348Y423512D01*
X928300Y423403D01*
X928255Y423292D01*
X928215Y423180D01*
X928178Y423066D01*
X928145Y422951D01*
X928115Y422836D01*
X928090Y422719D01*
X928068Y422602D01*
X928051Y422483D01*
X928037Y422365D01*
X928027Y422246D01*
X928021Y422126D01*
X928019Y422007D01*
X928018Y422007D02*
X928018Y420201D01*
X935243Y420201D01*
X921090Y414782D02*
X921090Y425619D01*
X915672Y425619D01*
X915672Y423813D01*
X909400Y421104D02*
X904884Y419298D01*
X909400Y421104D02*
X909488Y421141D01*
X909574Y421182D01*
X909659Y421226D01*
X909742Y421274D01*
X909822Y421325D01*
X909901Y421379D01*
X909977Y421437D01*
X910051Y421497D01*
X910123Y421561D01*
X910191Y421627D01*
X910257Y421697D01*
X910320Y421768D01*
X910381Y421843D01*
X910438Y421919D01*
X910491Y421998D01*
X910542Y422079D01*
X910589Y422162D01*
X910633Y422247D01*
X910673Y422334D01*
X910710Y422422D01*
X910743Y422512D01*
X910773Y422603D01*
X910798Y422695D01*
X910820Y422788D01*
X910838Y422882D01*
X910853Y422976D01*
X910863Y423071D01*
X910869Y423167D01*
X910872Y423262D01*
X910871Y423358D01*
X910865Y423453D01*
X910856Y423549D01*
X910843Y423643D01*
X910827Y423737D01*
X910806Y423831D01*
X910781Y423923D01*
X910753Y424014D01*
X910721Y424104D01*
X910686Y424193D01*
X910647Y424280D01*
X910604Y424366D01*
X910558Y424450D01*
X910508Y424531D01*
X910456Y424611D01*
X910400Y424689D01*
X910340Y424764D01*
X910278Y424836D01*
X910213Y424906D01*
X910145Y424974D01*
X910075Y425038D01*
X910002Y425100D01*
X909926Y425158D01*
X909848Y425214D01*
X909768Y425266D01*
X909686Y425315D01*
X909602Y425360D01*
X909516Y425402D01*
X909429Y425441D01*
X909340Y425476D01*
X909249Y425507D01*
X909158Y425534D01*
X909065Y425558D01*
X908972Y425578D01*
X908878Y425594D01*
X908783Y425606D01*
X908688Y425615D01*
X908592Y425619D01*
X908497Y425620D01*
X908250Y425613D01*
X908004Y425601D01*
X907758Y425583D01*
X907512Y425558D01*
X907268Y425528D01*
X907024Y425492D01*
X906781Y425451D01*
X906539Y425403D01*
X906298Y425349D01*
X906059Y425290D01*
X905821Y425225D01*
X905585Y425154D01*
X905350Y425078D01*
X905117Y424996D01*
X904887Y424908D01*
X904659Y424815D01*
X904432Y424717D01*
X904884Y419297D02*
X904796Y419260D01*
X904710Y419219D01*
X904625Y419175D01*
X904542Y419127D01*
X904462Y419076D01*
X904383Y419022D01*
X904307Y418964D01*
X904233Y418904D01*
X904161Y418840D01*
X904093Y418774D01*
X904027Y418704D01*
X903964Y418633D01*
X903903Y418558D01*
X903846Y418482D01*
X903793Y418403D01*
X903742Y418322D01*
X903695Y418239D01*
X903651Y418154D01*
X903611Y418067D01*
X903574Y417979D01*
X903541Y417889D01*
X903511Y417798D01*
X903486Y417706D01*
X903464Y417613D01*
X903446Y417519D01*
X903431Y417425D01*
X903421Y417330D01*
X903415Y417234D01*
X903412Y417139D01*
X903413Y417043D01*
X903419Y416948D01*
X903428Y416852D01*
X903441Y416758D01*
X903457Y416664D01*
X903478Y416570D01*
X903503Y416478D01*
X903531Y416387D01*
X903563Y416297D01*
X903598Y416208D01*
X903637Y416121D01*
X903680Y416035D01*
X903726Y415951D01*
X903776Y415870D01*
X903828Y415790D01*
X903884Y415712D01*
X903944Y415637D01*
X904006Y415565D01*
X904071Y415495D01*
X904139Y415427D01*
X904209Y415363D01*
X904282Y415301D01*
X904358Y415243D01*
X904436Y415187D01*
X904516Y415135D01*
X904598Y415086D01*
X904682Y415041D01*
X904768Y414999D01*
X904855Y414960D01*
X904944Y414925D01*
X905035Y414894D01*
X905126Y414867D01*
X905219Y414843D01*
X905312Y414823D01*
X905406Y414807D01*
X905501Y414795D01*
X905596Y414786D01*
X905692Y414782D01*
X905787Y414781D01*
X905788Y414782D02*
X906150Y414791D01*
X906512Y414809D01*
X906873Y414836D01*
X907233Y414871D01*
X907593Y414914D01*
X907952Y414966D01*
X908309Y415027D01*
X908664Y415096D01*
X909018Y415173D01*
X909370Y415259D01*
X909720Y415353D01*
X910068Y415456D01*
X910413Y415566D01*
X910755Y415685D01*
X897242Y414782D02*
X897242Y425619D01*
X897694Y430135D02*
X897694Y431038D01*
X896791Y431038D01*
X896791Y430135D01*
X897694Y430135D01*
X890955Y422007D02*
X890955Y418394D01*
X890954Y422007D02*
X890952Y422126D01*
X890946Y422246D01*
X890936Y422365D01*
X890922Y422483D01*
X890905Y422602D01*
X890883Y422719D01*
X890858Y422836D01*
X890828Y422951D01*
X890795Y423066D01*
X890758Y423180D01*
X890718Y423292D01*
X890673Y423403D01*
X890625Y423512D01*
X890574Y423620D01*
X890519Y423726D01*
X890460Y423830D01*
X890398Y423932D01*
X890333Y424032D01*
X890264Y424130D01*
X890192Y424226D01*
X890117Y424319D01*
X890040Y424409D01*
X889959Y424497D01*
X889875Y424582D01*
X889788Y424664D01*
X889699Y424744D01*
X889607Y424820D01*
X889513Y424894D01*
X889416Y424964D01*
X889318Y425031D01*
X889217Y425095D01*
X889113Y425155D01*
X889008Y425212D01*
X888901Y425265D01*
X888793Y425315D01*
X888683Y425361D01*
X888571Y425403D01*
X888458Y425442D01*
X888344Y425477D01*
X888229Y425508D01*
X888112Y425536D01*
X887995Y425559D01*
X887878Y425579D01*
X887759Y425595D01*
X887640Y425607D01*
X887521Y425615D01*
X887402Y425619D01*
X887282Y425619D01*
X887163Y425615D01*
X887044Y425607D01*
X886925Y425595D01*
X886806Y425579D01*
X886689Y425559D01*
X886572Y425536D01*
X886455Y425508D01*
X886340Y425477D01*
X886226Y425442D01*
X886113Y425403D01*
X886001Y425361D01*
X885891Y425315D01*
X885783Y425265D01*
X885676Y425212D01*
X885571Y425155D01*
X885467Y425095D01*
X885366Y425031D01*
X885268Y424964D01*
X885171Y424894D01*
X885077Y424820D01*
X884985Y424744D01*
X884896Y424664D01*
X884809Y424582D01*
X884725Y424497D01*
X884644Y424409D01*
X884567Y424319D01*
X884492Y424226D01*
X884420Y424130D01*
X884351Y424032D01*
X884286Y423932D01*
X884224Y423830D01*
X884165Y423726D01*
X884110Y423620D01*
X884059Y423512D01*
X884011Y423403D01*
X883966Y423292D01*
X883926Y423180D01*
X883889Y423066D01*
X883856Y422951D01*
X883826Y422836D01*
X883801Y422719D01*
X883779Y422602D01*
X883762Y422483D01*
X883748Y422365D01*
X883738Y422246D01*
X883732Y422126D01*
X883730Y422007D01*
X883730Y418394D01*
X883732Y418275D01*
X883738Y418155D01*
X883748Y418036D01*
X883762Y417918D01*
X883779Y417799D01*
X883801Y417682D01*
X883826Y417565D01*
X883856Y417450D01*
X883889Y417335D01*
X883926Y417221D01*
X883966Y417109D01*
X884011Y416998D01*
X884059Y416889D01*
X884110Y416781D01*
X884165Y416675D01*
X884224Y416571D01*
X884286Y416469D01*
X884351Y416369D01*
X884420Y416271D01*
X884492Y416175D01*
X884567Y416082D01*
X884644Y415992D01*
X884725Y415904D01*
X884809Y415819D01*
X884896Y415737D01*
X884985Y415657D01*
X885077Y415581D01*
X885171Y415507D01*
X885268Y415437D01*
X885366Y415370D01*
X885467Y415306D01*
X885571Y415246D01*
X885676Y415189D01*
X885783Y415136D01*
X885891Y415086D01*
X886001Y415040D01*
X886113Y414998D01*
X886226Y414959D01*
X886340Y414924D01*
X886455Y414893D01*
X886572Y414865D01*
X886689Y414842D01*
X886806Y414822D01*
X886925Y414806D01*
X887044Y414794D01*
X887163Y414786D01*
X887282Y414782D01*
X887402Y414782D01*
X887521Y414786D01*
X887640Y414794D01*
X887759Y414806D01*
X887878Y414822D01*
X887995Y414842D01*
X888112Y414865D01*
X888229Y414893D01*
X888344Y414924D01*
X888458Y414959D01*
X888571Y414998D01*
X888683Y415040D01*
X888793Y415086D01*
X888901Y415136D01*
X889008Y415189D01*
X889113Y415246D01*
X889217Y415306D01*
X889318Y415370D01*
X889416Y415437D01*
X889513Y415507D01*
X889607Y415581D01*
X889699Y415657D01*
X889788Y415737D01*
X889875Y415819D01*
X889959Y415904D01*
X890040Y415992D01*
X890117Y416082D01*
X890192Y416175D01*
X890264Y416271D01*
X890333Y416369D01*
X890398Y416469D01*
X890460Y416571D01*
X890519Y416675D01*
X890574Y416781D01*
X890625Y416889D01*
X890673Y416998D01*
X890718Y417109D01*
X890758Y417221D01*
X890795Y417335D01*
X890828Y417450D01*
X890858Y417565D01*
X890883Y417682D01*
X890905Y417799D01*
X890922Y417918D01*
X890936Y418036D01*
X890946Y418155D01*
X890952Y418275D01*
X890954Y418394D01*
X876887Y414782D02*
X876887Y425619D01*
X872371Y425619D01*
X872267Y425617D01*
X872164Y425611D01*
X872060Y425601D01*
X871957Y425587D01*
X871855Y425569D01*
X871754Y425548D01*
X871653Y425522D01*
X871554Y425493D01*
X871455Y425460D01*
X871358Y425423D01*
X871263Y425382D01*
X871169Y425338D01*
X871077Y425290D01*
X870987Y425239D01*
X870898Y425184D01*
X870812Y425126D01*
X870729Y425064D01*
X870647Y425000D01*
X870569Y424932D01*
X870493Y424862D01*
X870419Y424789D01*
X870349Y424712D01*
X870281Y424634D01*
X870217Y424552D01*
X870155Y424469D01*
X870097Y424383D01*
X870042Y424294D01*
X869991Y424204D01*
X869943Y424112D01*
X869899Y424018D01*
X869858Y423923D01*
X869821Y423826D01*
X869788Y423727D01*
X869759Y423628D01*
X869733Y423527D01*
X869712Y423426D01*
X869694Y423324D01*
X869680Y423221D01*
X869670Y423117D01*
X869664Y423014D01*
X869662Y422910D01*
X869662Y414782D01*
X854343Y427426D02*
X849828Y431038D01*
X849828Y414782D01*
X854343Y414782D02*
X845312Y414782D01*
X298450Y203200D02*
X292100Y196850D01*
X311150Y203200D02*
X317500Y196850D01*
X323850Y203200D01*
X336550Y203200D02*
X342900Y196850D01*
X292100Y196850D02*
X292100Y158750D01*
X298450Y152400D01*
X311150Y152400D01*
X317500Y158750D01*
X323850Y152400D01*
X336550Y152400D01*
X342900Y158750D01*
X317500Y158750D02*
X317500Y196850D01*
X342900Y196850D02*
X342900Y158750D01*
X336550Y203200D02*
X323850Y203200D01*
X311150Y203200D02*
X298450Y203200D01*
X342900Y196850D02*
X349250Y203200D01*
X361950Y203200D02*
X368300Y196850D01*
X342900Y158750D02*
X349250Y152400D01*
X361950Y152400D01*
X368300Y158750D01*
X368300Y196850D01*
X361950Y203200D02*
X349250Y203200D01*
M02*
