G04 EAGLE Gerber RS-274X export*
G75*
%MOMM*%
%FSLAX34Y34*%
%LPD*%
%INSilkscreen Top*%
%IPPOS*%
%AMOC8*
5,1,8,0,0,1.08239X$1,22.5*%
G01*
%ADD10C,0.152400*%
%ADD11C,0.150000*%
%ADD12C,0.500000*%
%ADD13C,0.076200*%
%ADD14C,0.200000*%
%ADD15C,0.400000*%
%ADD16C,0.127000*%
%ADD17C,0.101600*%
%ADD18R,0.200000X0.200000*%
%ADD19C,0.406400*%


D10*
X731012Y462478D02*
X731012Y469702D01*
X731014Y469835D01*
X731020Y469967D01*
X731030Y470099D01*
X731043Y470231D01*
X731061Y470363D01*
X731082Y470493D01*
X731107Y470624D01*
X731136Y470753D01*
X731169Y470881D01*
X731205Y471009D01*
X731245Y471135D01*
X731289Y471260D01*
X731337Y471384D01*
X731388Y471506D01*
X731443Y471627D01*
X731501Y471746D01*
X731563Y471864D01*
X731628Y471979D01*
X731697Y472093D01*
X731768Y472204D01*
X731844Y472313D01*
X731922Y472420D01*
X732003Y472525D01*
X732088Y472627D01*
X732175Y472727D01*
X732265Y472824D01*
X732358Y472919D01*
X732454Y473010D01*
X732552Y473099D01*
X732653Y473185D01*
X732757Y473268D01*
X732863Y473348D01*
X732971Y473424D01*
X733081Y473498D01*
X733194Y473568D01*
X733308Y473635D01*
X733425Y473698D01*
X733543Y473758D01*
X733663Y473815D01*
X733785Y473868D01*
X733908Y473917D01*
X734032Y473963D01*
X734158Y474005D01*
X734285Y474043D01*
X734413Y474078D01*
X734542Y474109D01*
X734671Y474136D01*
X734802Y474159D01*
X734933Y474179D01*
X735065Y474194D01*
X735197Y474206D01*
X735329Y474214D01*
X735462Y474218D01*
X735594Y474218D01*
X735727Y474214D01*
X735859Y474206D01*
X735991Y474194D01*
X736123Y474179D01*
X736254Y474159D01*
X736385Y474136D01*
X736514Y474109D01*
X736643Y474078D01*
X736771Y474043D01*
X736898Y474005D01*
X737024Y473963D01*
X737148Y473917D01*
X737271Y473868D01*
X737393Y473815D01*
X737513Y473758D01*
X737631Y473698D01*
X737748Y473635D01*
X737862Y473568D01*
X737975Y473498D01*
X738085Y473424D01*
X738193Y473348D01*
X738299Y473268D01*
X738403Y473185D01*
X738504Y473099D01*
X738602Y473010D01*
X738698Y472919D01*
X738791Y472824D01*
X738881Y472727D01*
X738968Y472627D01*
X739053Y472525D01*
X739134Y472420D01*
X739212Y472313D01*
X739288Y472204D01*
X739359Y472093D01*
X739428Y471979D01*
X739493Y471864D01*
X739555Y471746D01*
X739613Y471627D01*
X739668Y471506D01*
X739719Y471384D01*
X739767Y471260D01*
X739811Y471135D01*
X739851Y471009D01*
X739887Y470881D01*
X739920Y470753D01*
X739949Y470624D01*
X739974Y470493D01*
X739995Y470363D01*
X740013Y470231D01*
X740026Y470099D01*
X740036Y469967D01*
X740042Y469835D01*
X740044Y469702D01*
X740043Y469702D02*
X740043Y462478D01*
X740044Y462478D02*
X740042Y462345D01*
X740036Y462213D01*
X740026Y462081D01*
X740013Y461949D01*
X739995Y461817D01*
X739974Y461687D01*
X739949Y461556D01*
X739920Y461427D01*
X739887Y461299D01*
X739851Y461171D01*
X739811Y461045D01*
X739767Y460920D01*
X739719Y460796D01*
X739668Y460674D01*
X739613Y460553D01*
X739555Y460434D01*
X739493Y460316D01*
X739428Y460201D01*
X739359Y460087D01*
X739288Y459976D01*
X739212Y459867D01*
X739134Y459760D01*
X739053Y459655D01*
X738968Y459553D01*
X738881Y459453D01*
X738791Y459356D01*
X738698Y459261D01*
X738602Y459170D01*
X738504Y459081D01*
X738403Y458995D01*
X738299Y458912D01*
X738193Y458832D01*
X738085Y458756D01*
X737975Y458682D01*
X737862Y458612D01*
X737748Y458545D01*
X737631Y458482D01*
X737513Y458422D01*
X737393Y458365D01*
X737271Y458312D01*
X737148Y458263D01*
X737024Y458217D01*
X736898Y458175D01*
X736771Y458137D01*
X736643Y458102D01*
X736514Y458071D01*
X736385Y458044D01*
X736254Y458021D01*
X736123Y458001D01*
X735991Y457986D01*
X735859Y457974D01*
X735727Y457966D01*
X735594Y457962D01*
X735462Y457962D01*
X735329Y457966D01*
X735197Y457974D01*
X735065Y457986D01*
X734933Y458001D01*
X734802Y458021D01*
X734671Y458044D01*
X734542Y458071D01*
X734413Y458102D01*
X734285Y458137D01*
X734158Y458175D01*
X734032Y458217D01*
X733908Y458263D01*
X733785Y458312D01*
X733663Y458365D01*
X733543Y458422D01*
X733425Y458482D01*
X733308Y458545D01*
X733194Y458612D01*
X733081Y458682D01*
X732971Y458756D01*
X732863Y458832D01*
X732757Y458912D01*
X732653Y458995D01*
X732552Y459081D01*
X732454Y459170D01*
X732358Y459261D01*
X732265Y459356D01*
X732175Y459453D01*
X732088Y459553D01*
X732003Y459655D01*
X731922Y459760D01*
X731844Y459867D01*
X731768Y459976D01*
X731697Y460087D01*
X731628Y460201D01*
X731563Y460316D01*
X731501Y460434D01*
X731443Y460553D01*
X731388Y460674D01*
X731337Y460796D01*
X731289Y460920D01*
X731245Y461045D01*
X731205Y461171D01*
X731169Y461299D01*
X731136Y461427D01*
X731107Y461556D01*
X731082Y461687D01*
X731061Y461817D01*
X731043Y461949D01*
X731030Y462081D01*
X731020Y462213D01*
X731014Y462345D01*
X731012Y462478D01*
X738237Y461574D02*
X741849Y457962D01*
X746710Y460671D02*
X746710Y468799D01*
X746710Y460671D02*
X746712Y460570D01*
X746718Y460469D01*
X746727Y460368D01*
X746740Y460267D01*
X746757Y460167D01*
X746778Y460068D01*
X746802Y459970D01*
X746830Y459873D01*
X746862Y459776D01*
X746897Y459681D01*
X746936Y459588D01*
X746978Y459496D01*
X747024Y459405D01*
X747073Y459317D01*
X747125Y459230D01*
X747181Y459145D01*
X747239Y459062D01*
X747301Y458982D01*
X747366Y458904D01*
X747433Y458828D01*
X747503Y458755D01*
X747576Y458685D01*
X747652Y458618D01*
X747730Y458553D01*
X747810Y458491D01*
X747893Y458433D01*
X747978Y458377D01*
X748065Y458325D01*
X748153Y458276D01*
X748244Y458230D01*
X748336Y458188D01*
X748429Y458149D01*
X748524Y458114D01*
X748621Y458082D01*
X748718Y458054D01*
X748816Y458030D01*
X748915Y458009D01*
X749015Y457992D01*
X749116Y457979D01*
X749217Y457970D01*
X749318Y457964D01*
X749419Y457962D01*
X753935Y457962D01*
X753935Y468799D01*
X760743Y468799D02*
X760743Y457962D01*
X760292Y473315D02*
X760292Y474218D01*
X761195Y474218D01*
X761195Y473315D01*
X760292Y473315D01*
X767552Y468799D02*
X767552Y457962D01*
X767552Y468799D02*
X772067Y468799D01*
X772171Y468797D01*
X772274Y468791D01*
X772378Y468781D01*
X772481Y468767D01*
X772583Y468749D01*
X772684Y468728D01*
X772785Y468702D01*
X772884Y468673D01*
X772983Y468640D01*
X773080Y468603D01*
X773175Y468562D01*
X773269Y468518D01*
X773361Y468470D01*
X773451Y468419D01*
X773540Y468364D01*
X773626Y468306D01*
X773709Y468244D01*
X773791Y468180D01*
X773869Y468112D01*
X773945Y468042D01*
X774019Y467969D01*
X774089Y467892D01*
X774157Y467814D01*
X774221Y467732D01*
X774283Y467649D01*
X774341Y467563D01*
X774396Y467474D01*
X774447Y467384D01*
X774495Y467292D01*
X774539Y467198D01*
X774580Y467103D01*
X774617Y467006D01*
X774650Y466907D01*
X774679Y466808D01*
X774705Y466707D01*
X774726Y466606D01*
X774744Y466504D01*
X774758Y466401D01*
X774768Y466297D01*
X774774Y466194D01*
X774776Y466090D01*
X774777Y466090D02*
X774777Y457962D01*
X780322Y468799D02*
X785741Y468799D01*
X782129Y474218D02*
X782129Y460671D01*
X782131Y460570D01*
X782137Y460469D01*
X782146Y460368D01*
X782159Y460267D01*
X782176Y460167D01*
X782197Y460068D01*
X782221Y459970D01*
X782249Y459873D01*
X782281Y459776D01*
X782316Y459681D01*
X782355Y459588D01*
X782397Y459496D01*
X782443Y459405D01*
X782492Y459317D01*
X782544Y459230D01*
X782600Y459145D01*
X782658Y459062D01*
X782720Y458982D01*
X782785Y458904D01*
X782852Y458828D01*
X782922Y458755D01*
X782995Y458685D01*
X783071Y458618D01*
X783149Y458553D01*
X783229Y458491D01*
X783312Y458433D01*
X783397Y458377D01*
X783484Y458325D01*
X783572Y458276D01*
X783663Y458230D01*
X783755Y458188D01*
X783848Y458149D01*
X783943Y458114D01*
X784040Y458082D01*
X784137Y458054D01*
X784235Y458030D01*
X784334Y458009D01*
X784434Y457992D01*
X784535Y457979D01*
X784636Y457970D01*
X784737Y457964D01*
X784838Y457962D01*
X785741Y457962D01*
X791485Y457962D02*
X791485Y468799D01*
X791033Y473315D02*
X791033Y474218D01*
X791936Y474218D01*
X791936Y473315D01*
X791033Y473315D01*
X798293Y468799D02*
X798293Y457962D01*
X798293Y468799D02*
X802809Y468799D01*
X802913Y468797D01*
X803016Y468791D01*
X803120Y468781D01*
X803223Y468767D01*
X803325Y468749D01*
X803426Y468728D01*
X803527Y468702D01*
X803626Y468673D01*
X803725Y468640D01*
X803822Y468603D01*
X803917Y468562D01*
X804011Y468518D01*
X804103Y468470D01*
X804193Y468419D01*
X804282Y468364D01*
X804368Y468306D01*
X804451Y468244D01*
X804533Y468180D01*
X804611Y468112D01*
X804687Y468042D01*
X804761Y467969D01*
X804831Y467892D01*
X804899Y467814D01*
X804963Y467732D01*
X805025Y467649D01*
X805083Y467563D01*
X805138Y467474D01*
X805189Y467384D01*
X805237Y467292D01*
X805281Y467198D01*
X805322Y467103D01*
X805359Y467006D01*
X805392Y466907D01*
X805421Y466808D01*
X805447Y466707D01*
X805468Y466606D01*
X805486Y466504D01*
X805500Y466401D01*
X805510Y466297D01*
X805516Y466194D01*
X805518Y466090D01*
X805518Y457962D01*
X824410Y457962D02*
X828022Y457962D01*
X824410Y457962D02*
X824292Y457964D01*
X824174Y457970D01*
X824056Y457979D01*
X823939Y457993D01*
X823822Y458010D01*
X823705Y458031D01*
X823590Y458056D01*
X823475Y458085D01*
X823361Y458118D01*
X823249Y458154D01*
X823138Y458194D01*
X823028Y458237D01*
X822919Y458284D01*
X822812Y458334D01*
X822707Y458389D01*
X822604Y458446D01*
X822503Y458507D01*
X822403Y458571D01*
X822306Y458638D01*
X822211Y458708D01*
X822119Y458782D01*
X822028Y458858D01*
X821941Y458938D01*
X821856Y459020D01*
X821774Y459105D01*
X821694Y459192D01*
X821618Y459283D01*
X821544Y459375D01*
X821474Y459470D01*
X821407Y459567D01*
X821343Y459667D01*
X821282Y459768D01*
X821225Y459871D01*
X821170Y459976D01*
X821120Y460083D01*
X821073Y460192D01*
X821030Y460302D01*
X820990Y460413D01*
X820954Y460525D01*
X820921Y460639D01*
X820892Y460754D01*
X820867Y460869D01*
X820846Y460986D01*
X820829Y461103D01*
X820815Y461220D01*
X820806Y461338D01*
X820800Y461456D01*
X820798Y461574D01*
X820797Y461574D02*
X820797Y470606D01*
X820798Y470606D02*
X820800Y470724D01*
X820806Y470842D01*
X820815Y470960D01*
X820829Y471077D01*
X820846Y471194D01*
X820867Y471311D01*
X820892Y471426D01*
X820921Y471541D01*
X820954Y471655D01*
X820990Y471767D01*
X821030Y471878D01*
X821073Y471988D01*
X821120Y472097D01*
X821170Y472204D01*
X821224Y472309D01*
X821282Y472412D01*
X821343Y472513D01*
X821407Y472613D01*
X821474Y472710D01*
X821544Y472805D01*
X821618Y472897D01*
X821694Y472988D01*
X821774Y473075D01*
X821856Y473160D01*
X821941Y473242D01*
X822028Y473322D01*
X822119Y473398D01*
X822211Y473472D01*
X822306Y473542D01*
X822403Y473609D01*
X822503Y473673D01*
X822604Y473734D01*
X822707Y473791D01*
X822812Y473845D01*
X822919Y473896D01*
X823028Y473943D01*
X823138Y473986D01*
X823249Y474026D01*
X823361Y474062D01*
X823475Y474095D01*
X823590Y474124D01*
X823705Y474149D01*
X823822Y474170D01*
X823939Y474187D01*
X824056Y474201D01*
X824174Y474210D01*
X824292Y474216D01*
X824410Y474218D01*
X828022Y474218D01*
X836811Y464284D02*
X840875Y464284D01*
X836811Y464284D02*
X836699Y464282D01*
X836588Y464276D01*
X836477Y464266D01*
X836366Y464253D01*
X836256Y464235D01*
X836147Y464213D01*
X836038Y464188D01*
X835930Y464159D01*
X835824Y464126D01*
X835718Y464089D01*
X835614Y464049D01*
X835512Y464005D01*
X835411Y463957D01*
X835312Y463906D01*
X835214Y463851D01*
X835119Y463793D01*
X835026Y463732D01*
X834935Y463667D01*
X834846Y463599D01*
X834760Y463528D01*
X834677Y463455D01*
X834596Y463378D01*
X834517Y463298D01*
X834442Y463216D01*
X834370Y463131D01*
X834300Y463044D01*
X834234Y462954D01*
X834171Y462862D01*
X834111Y462767D01*
X834055Y462671D01*
X834002Y462573D01*
X833953Y462473D01*
X833907Y462371D01*
X833865Y462268D01*
X833826Y462163D01*
X833791Y462057D01*
X833760Y461950D01*
X833733Y461842D01*
X833709Y461733D01*
X833690Y461623D01*
X833674Y461513D01*
X833662Y461402D01*
X833654Y461290D01*
X833650Y461179D01*
X833650Y461067D01*
X833654Y460956D01*
X833662Y460844D01*
X833674Y460733D01*
X833690Y460623D01*
X833709Y460513D01*
X833733Y460404D01*
X833760Y460296D01*
X833791Y460189D01*
X833826Y460083D01*
X833865Y459978D01*
X833907Y459875D01*
X833953Y459773D01*
X834002Y459673D01*
X834055Y459575D01*
X834111Y459479D01*
X834171Y459384D01*
X834234Y459292D01*
X834300Y459202D01*
X834370Y459115D01*
X834442Y459030D01*
X834517Y458948D01*
X834596Y458868D01*
X834677Y458791D01*
X834760Y458718D01*
X834846Y458647D01*
X834935Y458579D01*
X835026Y458514D01*
X835119Y458453D01*
X835214Y458395D01*
X835312Y458340D01*
X835411Y458289D01*
X835512Y458241D01*
X835614Y458197D01*
X835718Y458157D01*
X835824Y458120D01*
X835930Y458087D01*
X836038Y458058D01*
X836147Y458033D01*
X836256Y458011D01*
X836366Y457993D01*
X836477Y457980D01*
X836588Y457970D01*
X836699Y457964D01*
X836811Y457962D01*
X840875Y457962D01*
X840875Y466090D01*
X840873Y466191D01*
X840867Y466292D01*
X840858Y466393D01*
X840845Y466494D01*
X840828Y466594D01*
X840807Y466693D01*
X840783Y466791D01*
X840755Y466888D01*
X840723Y466985D01*
X840688Y467080D01*
X840649Y467173D01*
X840607Y467265D01*
X840561Y467356D01*
X840512Y467445D01*
X840460Y467531D01*
X840404Y467616D01*
X840346Y467699D01*
X840284Y467779D01*
X840219Y467857D01*
X840152Y467933D01*
X840082Y468006D01*
X840009Y468076D01*
X839933Y468143D01*
X839855Y468208D01*
X839775Y468270D01*
X839692Y468328D01*
X839607Y468384D01*
X839521Y468436D01*
X839432Y468485D01*
X839341Y468531D01*
X839249Y468573D01*
X839156Y468612D01*
X839061Y468647D01*
X838964Y468679D01*
X838867Y468707D01*
X838769Y468731D01*
X838670Y468752D01*
X838570Y468769D01*
X838469Y468782D01*
X838368Y468791D01*
X838267Y468797D01*
X838166Y468799D01*
X834554Y468799D01*
X848398Y468799D02*
X848398Y457962D01*
X848398Y468799D02*
X853816Y468799D01*
X853816Y466993D01*
X858213Y468799D02*
X861825Y457962D01*
X865437Y468799D01*
X874326Y464284D02*
X878390Y464284D01*
X874326Y464284D02*
X874214Y464282D01*
X874103Y464276D01*
X873992Y464266D01*
X873881Y464253D01*
X873771Y464235D01*
X873662Y464213D01*
X873553Y464188D01*
X873445Y464159D01*
X873339Y464126D01*
X873233Y464089D01*
X873129Y464049D01*
X873027Y464005D01*
X872926Y463957D01*
X872827Y463906D01*
X872729Y463851D01*
X872634Y463793D01*
X872541Y463732D01*
X872450Y463667D01*
X872361Y463599D01*
X872275Y463528D01*
X872192Y463455D01*
X872111Y463378D01*
X872032Y463298D01*
X871957Y463216D01*
X871885Y463131D01*
X871815Y463044D01*
X871749Y462954D01*
X871686Y462862D01*
X871626Y462767D01*
X871570Y462671D01*
X871517Y462573D01*
X871468Y462473D01*
X871422Y462371D01*
X871380Y462268D01*
X871341Y462163D01*
X871306Y462057D01*
X871275Y461950D01*
X871248Y461842D01*
X871224Y461733D01*
X871205Y461623D01*
X871189Y461513D01*
X871177Y461402D01*
X871169Y461290D01*
X871165Y461179D01*
X871165Y461067D01*
X871169Y460956D01*
X871177Y460844D01*
X871189Y460733D01*
X871205Y460623D01*
X871224Y460513D01*
X871248Y460404D01*
X871275Y460296D01*
X871306Y460189D01*
X871341Y460083D01*
X871380Y459978D01*
X871422Y459875D01*
X871468Y459773D01*
X871517Y459673D01*
X871570Y459575D01*
X871626Y459479D01*
X871686Y459384D01*
X871749Y459292D01*
X871815Y459202D01*
X871885Y459115D01*
X871957Y459030D01*
X872032Y458948D01*
X872111Y458868D01*
X872192Y458791D01*
X872275Y458718D01*
X872361Y458647D01*
X872450Y458579D01*
X872541Y458514D01*
X872634Y458453D01*
X872729Y458395D01*
X872827Y458340D01*
X872926Y458289D01*
X873027Y458241D01*
X873129Y458197D01*
X873233Y458157D01*
X873339Y458120D01*
X873445Y458087D01*
X873553Y458058D01*
X873662Y458033D01*
X873771Y458011D01*
X873881Y457993D01*
X873992Y457980D01*
X874103Y457970D01*
X874214Y457964D01*
X874326Y457962D01*
X878390Y457962D01*
X878390Y466090D01*
X878388Y466191D01*
X878382Y466292D01*
X878373Y466393D01*
X878360Y466494D01*
X878343Y466594D01*
X878322Y466693D01*
X878298Y466791D01*
X878270Y466888D01*
X878238Y466985D01*
X878203Y467080D01*
X878164Y467173D01*
X878122Y467265D01*
X878076Y467356D01*
X878027Y467445D01*
X877975Y467531D01*
X877919Y467616D01*
X877861Y467699D01*
X877799Y467779D01*
X877734Y467857D01*
X877667Y467933D01*
X877597Y468006D01*
X877524Y468076D01*
X877448Y468143D01*
X877370Y468208D01*
X877290Y468270D01*
X877207Y468328D01*
X877122Y468384D01*
X877036Y468436D01*
X876947Y468485D01*
X876856Y468531D01*
X876764Y468573D01*
X876671Y468612D01*
X876576Y468647D01*
X876479Y468679D01*
X876382Y468707D01*
X876284Y468731D01*
X876185Y468752D01*
X876085Y468769D01*
X875984Y468782D01*
X875883Y468791D01*
X875782Y468797D01*
X875681Y468799D01*
X872068Y468799D01*
X885544Y474218D02*
X885544Y460671D01*
X885546Y460570D01*
X885552Y460469D01*
X885561Y460368D01*
X885574Y460267D01*
X885591Y460167D01*
X885612Y460068D01*
X885636Y459970D01*
X885664Y459873D01*
X885696Y459776D01*
X885731Y459681D01*
X885770Y459588D01*
X885812Y459496D01*
X885858Y459405D01*
X885907Y459317D01*
X885959Y459230D01*
X886015Y459145D01*
X886073Y459062D01*
X886135Y458982D01*
X886200Y458904D01*
X886267Y458828D01*
X886337Y458755D01*
X886410Y458685D01*
X886486Y458618D01*
X886564Y458553D01*
X886644Y458491D01*
X886727Y458433D01*
X886812Y458377D01*
X886899Y458325D01*
X886987Y458276D01*
X887078Y458230D01*
X887170Y458188D01*
X887263Y458149D01*
X887358Y458114D01*
X887455Y458082D01*
X887552Y458054D01*
X887650Y458030D01*
X887749Y458009D01*
X887849Y457992D01*
X887950Y457979D01*
X888051Y457970D01*
X888152Y457964D01*
X888253Y457962D01*
X894164Y457962D02*
X894164Y474218D01*
X894164Y468799D02*
X898680Y468799D01*
X898784Y468797D01*
X898887Y468791D01*
X898991Y468781D01*
X899094Y468767D01*
X899196Y468749D01*
X899297Y468728D01*
X899398Y468702D01*
X899497Y468673D01*
X899596Y468640D01*
X899693Y468603D01*
X899788Y468562D01*
X899882Y468518D01*
X899974Y468470D01*
X900064Y468419D01*
X900153Y468364D01*
X900239Y468306D01*
X900322Y468244D01*
X900404Y468180D01*
X900482Y468112D01*
X900558Y468042D01*
X900632Y467969D01*
X900702Y467892D01*
X900770Y467814D01*
X900834Y467732D01*
X900896Y467649D01*
X900954Y467563D01*
X901009Y467474D01*
X901060Y467384D01*
X901108Y467292D01*
X901152Y467198D01*
X901193Y467103D01*
X901230Y467006D01*
X901263Y466907D01*
X901292Y466808D01*
X901318Y466707D01*
X901339Y466606D01*
X901357Y466504D01*
X901371Y466401D01*
X901381Y466297D01*
X901387Y466194D01*
X901389Y466090D01*
X901389Y457962D01*
X908232Y461574D02*
X908232Y465187D01*
X908233Y465187D02*
X908235Y465306D01*
X908241Y465426D01*
X908251Y465545D01*
X908265Y465663D01*
X908282Y465782D01*
X908304Y465899D01*
X908329Y466016D01*
X908359Y466131D01*
X908392Y466246D01*
X908429Y466360D01*
X908469Y466472D01*
X908514Y466583D01*
X908562Y466692D01*
X908613Y466800D01*
X908668Y466906D01*
X908727Y467010D01*
X908789Y467112D01*
X908854Y467212D01*
X908923Y467310D01*
X908995Y467406D01*
X909070Y467499D01*
X909147Y467589D01*
X909228Y467677D01*
X909312Y467762D01*
X909399Y467844D01*
X909488Y467924D01*
X909580Y468000D01*
X909674Y468074D01*
X909771Y468144D01*
X909869Y468211D01*
X909970Y468275D01*
X910074Y468335D01*
X910179Y468392D01*
X910286Y468445D01*
X910394Y468495D01*
X910504Y468541D01*
X910616Y468583D01*
X910729Y468622D01*
X910843Y468657D01*
X910958Y468688D01*
X911075Y468716D01*
X911192Y468739D01*
X911309Y468759D01*
X911428Y468775D01*
X911547Y468787D01*
X911666Y468795D01*
X911785Y468799D01*
X911905Y468799D01*
X912024Y468795D01*
X912143Y468787D01*
X912262Y468775D01*
X912381Y468759D01*
X912498Y468739D01*
X912615Y468716D01*
X912732Y468688D01*
X912847Y468657D01*
X912961Y468622D01*
X913074Y468583D01*
X913186Y468541D01*
X913296Y468495D01*
X913404Y468445D01*
X913511Y468392D01*
X913616Y468335D01*
X913720Y468275D01*
X913821Y468211D01*
X913919Y468144D01*
X914016Y468074D01*
X914110Y468000D01*
X914202Y467924D01*
X914291Y467844D01*
X914378Y467762D01*
X914462Y467677D01*
X914543Y467589D01*
X914620Y467499D01*
X914695Y467406D01*
X914767Y467310D01*
X914836Y467212D01*
X914901Y467112D01*
X914963Y467010D01*
X915022Y466906D01*
X915077Y466800D01*
X915128Y466692D01*
X915176Y466583D01*
X915221Y466472D01*
X915261Y466360D01*
X915298Y466246D01*
X915331Y466131D01*
X915361Y466016D01*
X915386Y465899D01*
X915408Y465782D01*
X915425Y465663D01*
X915439Y465545D01*
X915449Y465426D01*
X915455Y465306D01*
X915457Y465187D01*
X915457Y461574D01*
X915455Y461455D01*
X915449Y461335D01*
X915439Y461216D01*
X915425Y461098D01*
X915408Y460979D01*
X915386Y460862D01*
X915361Y460745D01*
X915331Y460630D01*
X915298Y460515D01*
X915261Y460401D01*
X915221Y460289D01*
X915176Y460178D01*
X915128Y460069D01*
X915077Y459961D01*
X915022Y459855D01*
X914963Y459751D01*
X914901Y459649D01*
X914836Y459549D01*
X914767Y459451D01*
X914695Y459355D01*
X914620Y459262D01*
X914543Y459172D01*
X914462Y459084D01*
X914378Y458999D01*
X914291Y458917D01*
X914202Y458837D01*
X914110Y458761D01*
X914016Y458687D01*
X913919Y458617D01*
X913821Y458550D01*
X913720Y458486D01*
X913616Y458426D01*
X913511Y458369D01*
X913404Y458316D01*
X913296Y458266D01*
X913186Y458220D01*
X913074Y458178D01*
X912961Y458139D01*
X912847Y458104D01*
X912732Y458073D01*
X912615Y458045D01*
X912498Y458022D01*
X912381Y458002D01*
X912262Y457986D01*
X912143Y457974D01*
X912024Y457966D01*
X911905Y457962D01*
X911785Y457962D01*
X911666Y457966D01*
X911547Y457974D01*
X911428Y457986D01*
X911309Y458002D01*
X911192Y458022D01*
X911075Y458045D01*
X910958Y458073D01*
X910843Y458104D01*
X910729Y458139D01*
X910616Y458178D01*
X910504Y458220D01*
X910394Y458266D01*
X910286Y458316D01*
X910179Y458369D01*
X910074Y458426D01*
X909970Y458486D01*
X909869Y458550D01*
X909771Y458617D01*
X909674Y458687D01*
X909580Y458761D01*
X909488Y458837D01*
X909399Y458917D01*
X909312Y458999D01*
X909228Y459084D01*
X909147Y459172D01*
X909070Y459262D01*
X908995Y459355D01*
X908923Y459451D01*
X908854Y459549D01*
X908789Y459649D01*
X908727Y459751D01*
X908668Y459855D01*
X908613Y459961D01*
X908562Y460069D01*
X908514Y460178D01*
X908469Y460289D01*
X908429Y460401D01*
X908392Y460515D01*
X908359Y460630D01*
X908329Y460745D01*
X908304Y460862D01*
X908282Y460979D01*
X908265Y461098D01*
X908251Y461216D01*
X908241Y461335D01*
X908235Y461455D01*
X908233Y461574D01*
X743712Y442468D02*
X743712Y426212D01*
X743712Y442468D02*
X748228Y442468D01*
X748359Y442466D01*
X748491Y442460D01*
X748622Y442451D01*
X748752Y442437D01*
X748883Y442420D01*
X749012Y442399D01*
X749141Y442375D01*
X749269Y442346D01*
X749397Y442314D01*
X749523Y442278D01*
X749648Y442239D01*
X749773Y442196D01*
X749895Y442149D01*
X750017Y442099D01*
X750137Y442045D01*
X750255Y441988D01*
X750371Y441927D01*
X750486Y441863D01*
X750599Y441796D01*
X750710Y441725D01*
X750818Y441651D01*
X750925Y441574D01*
X751029Y441494D01*
X751131Y441411D01*
X751230Y441326D01*
X751327Y441237D01*
X751421Y441145D01*
X751513Y441051D01*
X751602Y440954D01*
X751687Y440855D01*
X751770Y440753D01*
X751850Y440649D01*
X751927Y440542D01*
X752001Y440434D01*
X752072Y440323D01*
X752139Y440210D01*
X752203Y440095D01*
X752264Y439979D01*
X752321Y439861D01*
X752375Y439741D01*
X752425Y439619D01*
X752472Y439497D01*
X752515Y439372D01*
X752554Y439247D01*
X752590Y439121D01*
X752622Y438993D01*
X752651Y438865D01*
X752675Y438736D01*
X752696Y438607D01*
X752713Y438476D01*
X752727Y438346D01*
X752736Y438215D01*
X752742Y438083D01*
X752744Y437952D01*
X752743Y437952D02*
X752743Y430728D01*
X752744Y430728D02*
X752742Y430597D01*
X752736Y430465D01*
X752727Y430334D01*
X752713Y430204D01*
X752696Y430073D01*
X752675Y429944D01*
X752651Y429815D01*
X752622Y429687D01*
X752590Y429559D01*
X752554Y429433D01*
X752515Y429308D01*
X752472Y429183D01*
X752425Y429061D01*
X752375Y428939D01*
X752321Y428819D01*
X752264Y428701D01*
X752203Y428585D01*
X752139Y428470D01*
X752072Y428357D01*
X752001Y428246D01*
X751927Y428138D01*
X751850Y428031D01*
X751770Y427927D01*
X751687Y427825D01*
X751602Y427726D01*
X751513Y427629D01*
X751421Y427535D01*
X751327Y427443D01*
X751230Y427354D01*
X751131Y427269D01*
X751029Y427186D01*
X750925Y427106D01*
X750818Y427029D01*
X750710Y426955D01*
X750599Y426884D01*
X750486Y426817D01*
X750371Y426753D01*
X750255Y426692D01*
X750137Y426635D01*
X750017Y426581D01*
X749895Y426531D01*
X749773Y426484D01*
X749648Y426441D01*
X749523Y426402D01*
X749397Y426366D01*
X749269Y426334D01*
X749141Y426305D01*
X749012Y426281D01*
X748882Y426260D01*
X748752Y426243D01*
X748622Y426229D01*
X748491Y426220D01*
X748359Y426214D01*
X748228Y426212D01*
X743712Y426212D01*
X759690Y426212D02*
X759690Y437049D01*
X759239Y441565D02*
X759239Y442468D01*
X760142Y442468D01*
X760142Y441565D01*
X759239Y441565D01*
X768705Y426212D02*
X772317Y426212D01*
X768705Y426212D02*
X768604Y426214D01*
X768503Y426220D01*
X768402Y426229D01*
X768301Y426242D01*
X768201Y426259D01*
X768102Y426280D01*
X768004Y426304D01*
X767907Y426332D01*
X767810Y426364D01*
X767715Y426399D01*
X767622Y426438D01*
X767530Y426480D01*
X767439Y426526D01*
X767351Y426575D01*
X767264Y426627D01*
X767179Y426683D01*
X767096Y426741D01*
X767016Y426803D01*
X766938Y426868D01*
X766862Y426935D01*
X766789Y427005D01*
X766719Y427078D01*
X766652Y427154D01*
X766587Y427232D01*
X766525Y427312D01*
X766467Y427395D01*
X766411Y427480D01*
X766359Y427567D01*
X766310Y427655D01*
X766264Y427746D01*
X766222Y427838D01*
X766183Y427931D01*
X766148Y428026D01*
X766116Y428123D01*
X766088Y428220D01*
X766064Y428318D01*
X766043Y428417D01*
X766026Y428517D01*
X766013Y428618D01*
X766004Y428719D01*
X765998Y428820D01*
X765996Y428921D01*
X765995Y428921D02*
X765995Y434340D01*
X765996Y434340D02*
X765998Y434441D01*
X766004Y434542D01*
X766013Y434643D01*
X766026Y434744D01*
X766043Y434844D01*
X766064Y434943D01*
X766088Y435041D01*
X766116Y435138D01*
X766148Y435235D01*
X766183Y435330D01*
X766222Y435423D01*
X766264Y435515D01*
X766310Y435606D01*
X766359Y435695D01*
X766411Y435781D01*
X766467Y435866D01*
X766525Y435949D01*
X766587Y436029D01*
X766652Y436107D01*
X766719Y436183D01*
X766789Y436256D01*
X766862Y436326D01*
X766938Y436393D01*
X767016Y436458D01*
X767096Y436520D01*
X767179Y436578D01*
X767264Y436634D01*
X767351Y436686D01*
X767439Y436735D01*
X767530Y436781D01*
X767622Y436823D01*
X767715Y436862D01*
X767810Y436897D01*
X767907Y436929D01*
X768004Y436957D01*
X768102Y436981D01*
X768201Y437002D01*
X768301Y437019D01*
X768402Y437032D01*
X768503Y437041D01*
X768604Y437047D01*
X768705Y437049D01*
X772317Y437049D01*
X780671Y426212D02*
X785187Y426212D01*
X780671Y426212D02*
X780570Y426214D01*
X780469Y426220D01*
X780368Y426229D01*
X780267Y426242D01*
X780167Y426259D01*
X780068Y426280D01*
X779970Y426304D01*
X779873Y426332D01*
X779776Y426364D01*
X779681Y426399D01*
X779588Y426438D01*
X779496Y426480D01*
X779405Y426526D01*
X779317Y426575D01*
X779230Y426627D01*
X779145Y426683D01*
X779062Y426741D01*
X778982Y426803D01*
X778904Y426868D01*
X778828Y426935D01*
X778755Y427005D01*
X778685Y427078D01*
X778618Y427154D01*
X778553Y427232D01*
X778491Y427312D01*
X778433Y427395D01*
X778377Y427480D01*
X778325Y427567D01*
X778276Y427655D01*
X778230Y427746D01*
X778188Y427838D01*
X778149Y427931D01*
X778114Y428026D01*
X778082Y428123D01*
X778054Y428220D01*
X778030Y428318D01*
X778009Y428417D01*
X777992Y428517D01*
X777979Y428618D01*
X777970Y428719D01*
X777964Y428820D01*
X777962Y428921D01*
X777962Y433437D01*
X777964Y433556D01*
X777970Y433676D01*
X777980Y433795D01*
X777994Y433913D01*
X778011Y434032D01*
X778033Y434149D01*
X778058Y434266D01*
X778088Y434381D01*
X778121Y434496D01*
X778158Y434610D01*
X778198Y434722D01*
X778243Y434833D01*
X778291Y434942D01*
X778342Y435050D01*
X778397Y435156D01*
X778456Y435260D01*
X778518Y435362D01*
X778583Y435462D01*
X778652Y435560D01*
X778724Y435656D01*
X778799Y435749D01*
X778876Y435839D01*
X778957Y435927D01*
X779041Y436012D01*
X779128Y436094D01*
X779217Y436174D01*
X779309Y436250D01*
X779403Y436324D01*
X779500Y436394D01*
X779598Y436461D01*
X779699Y436525D01*
X779803Y436585D01*
X779908Y436642D01*
X780015Y436695D01*
X780123Y436745D01*
X780233Y436791D01*
X780345Y436833D01*
X780458Y436872D01*
X780572Y436907D01*
X780687Y436938D01*
X780804Y436966D01*
X780921Y436989D01*
X781038Y437009D01*
X781157Y437025D01*
X781276Y437037D01*
X781395Y437045D01*
X781514Y437049D01*
X781634Y437049D01*
X781753Y437045D01*
X781872Y437037D01*
X781991Y437025D01*
X782110Y437009D01*
X782227Y436989D01*
X782344Y436966D01*
X782461Y436938D01*
X782576Y436907D01*
X782690Y436872D01*
X782803Y436833D01*
X782915Y436791D01*
X783025Y436745D01*
X783133Y436695D01*
X783240Y436642D01*
X783345Y436585D01*
X783449Y436525D01*
X783550Y436461D01*
X783648Y436394D01*
X783745Y436324D01*
X783839Y436250D01*
X783931Y436174D01*
X784020Y436094D01*
X784107Y436012D01*
X784191Y435927D01*
X784272Y435839D01*
X784349Y435749D01*
X784424Y435656D01*
X784496Y435560D01*
X784565Y435462D01*
X784630Y435362D01*
X784692Y435260D01*
X784751Y435156D01*
X784806Y435050D01*
X784857Y434942D01*
X784905Y434833D01*
X784950Y434722D01*
X784990Y434610D01*
X785027Y434496D01*
X785060Y434381D01*
X785090Y434266D01*
X785115Y434149D01*
X785137Y434032D01*
X785154Y433913D01*
X785168Y433795D01*
X785178Y433676D01*
X785184Y433556D01*
X785186Y433437D01*
X785187Y433437D02*
X785187Y431631D01*
X777962Y431631D01*
X804882Y426212D02*
X805000Y426214D01*
X805118Y426220D01*
X805236Y426229D01*
X805353Y426243D01*
X805470Y426260D01*
X805587Y426281D01*
X805702Y426306D01*
X805817Y426335D01*
X805931Y426368D01*
X806043Y426404D01*
X806154Y426444D01*
X806264Y426487D01*
X806373Y426534D01*
X806480Y426584D01*
X806585Y426639D01*
X806688Y426696D01*
X806789Y426757D01*
X806889Y426821D01*
X806986Y426888D01*
X807081Y426958D01*
X807173Y427032D01*
X807264Y427108D01*
X807351Y427188D01*
X807436Y427270D01*
X807518Y427355D01*
X807598Y427442D01*
X807674Y427533D01*
X807748Y427625D01*
X807818Y427720D01*
X807885Y427817D01*
X807949Y427917D01*
X808010Y428018D01*
X808067Y428121D01*
X808122Y428226D01*
X808172Y428333D01*
X808219Y428442D01*
X808262Y428552D01*
X808302Y428663D01*
X808338Y428775D01*
X808371Y428889D01*
X808400Y429004D01*
X808425Y429119D01*
X808446Y429236D01*
X808463Y429353D01*
X808477Y429470D01*
X808486Y429588D01*
X808492Y429706D01*
X808494Y429824D01*
X804882Y426212D02*
X804699Y426214D01*
X804517Y426221D01*
X804335Y426232D01*
X804153Y426247D01*
X803971Y426267D01*
X803790Y426290D01*
X803610Y426319D01*
X803430Y426351D01*
X803251Y426388D01*
X803074Y426429D01*
X802897Y426475D01*
X802721Y426524D01*
X802547Y426578D01*
X802373Y426636D01*
X802202Y426698D01*
X802032Y426764D01*
X801863Y426835D01*
X801696Y426909D01*
X801531Y426987D01*
X801368Y427069D01*
X801207Y427155D01*
X801048Y427245D01*
X800891Y427339D01*
X800737Y427436D01*
X800585Y427537D01*
X800435Y427642D01*
X800288Y427750D01*
X800144Y427861D01*
X800002Y427976D01*
X799863Y428095D01*
X799727Y428217D01*
X799594Y428342D01*
X799464Y428470D01*
X799915Y438856D02*
X799917Y438974D01*
X799923Y439092D01*
X799932Y439210D01*
X799946Y439327D01*
X799963Y439444D01*
X799984Y439561D01*
X800009Y439676D01*
X800038Y439791D01*
X800071Y439905D01*
X800107Y440017D01*
X800147Y440128D01*
X800190Y440238D01*
X800237Y440347D01*
X800287Y440454D01*
X800342Y440559D01*
X800399Y440662D01*
X800460Y440763D01*
X800524Y440863D01*
X800591Y440960D01*
X800661Y441055D01*
X800735Y441147D01*
X800811Y441238D01*
X800891Y441325D01*
X800973Y441410D01*
X801058Y441492D01*
X801145Y441572D01*
X801236Y441648D01*
X801328Y441722D01*
X801423Y441792D01*
X801520Y441859D01*
X801620Y441923D01*
X801721Y441984D01*
X801824Y442042D01*
X801929Y442096D01*
X802036Y442146D01*
X802145Y442193D01*
X802255Y442237D01*
X802366Y442276D01*
X802479Y442312D01*
X802592Y442345D01*
X802707Y442374D01*
X802822Y442399D01*
X802939Y442420D01*
X803056Y442437D01*
X803173Y442451D01*
X803291Y442460D01*
X803409Y442466D01*
X803527Y442468D01*
X803688Y442466D01*
X803850Y442460D01*
X804011Y442451D01*
X804172Y442437D01*
X804332Y442420D01*
X804492Y442399D01*
X804652Y442374D01*
X804811Y442345D01*
X804969Y442313D01*
X805126Y442277D01*
X805282Y442237D01*
X805438Y442193D01*
X805592Y442145D01*
X805745Y442094D01*
X805897Y442040D01*
X806048Y441981D01*
X806197Y441920D01*
X806344Y441854D01*
X806490Y441785D01*
X806635Y441713D01*
X806777Y441637D01*
X806918Y441558D01*
X807057Y441476D01*
X807193Y441390D01*
X807328Y441301D01*
X807461Y441209D01*
X807591Y441113D01*
X801721Y435695D02*
X801620Y435757D01*
X801520Y435822D01*
X801423Y435891D01*
X801328Y435963D01*
X801235Y436037D01*
X801145Y436115D01*
X801057Y436196D01*
X800972Y436279D01*
X800890Y436365D01*
X800811Y436454D01*
X800734Y436545D01*
X800661Y436639D01*
X800590Y436735D01*
X800523Y436833D01*
X800459Y436933D01*
X800398Y437036D01*
X800341Y437140D01*
X800287Y437246D01*
X800237Y437354D01*
X800190Y437463D01*
X800146Y437574D01*
X800106Y437686D01*
X800070Y437800D01*
X800038Y437914D01*
X800009Y438030D01*
X799984Y438146D01*
X799963Y438263D01*
X799946Y438381D01*
X799932Y438499D01*
X799923Y438618D01*
X799917Y438737D01*
X799915Y438856D01*
X806689Y432985D02*
X806790Y432923D01*
X806890Y432858D01*
X806987Y432789D01*
X807082Y432717D01*
X807175Y432643D01*
X807265Y432565D01*
X807353Y432484D01*
X807438Y432401D01*
X807520Y432315D01*
X807599Y432226D01*
X807676Y432135D01*
X807749Y432041D01*
X807820Y431945D01*
X807887Y431847D01*
X807951Y431747D01*
X808012Y431644D01*
X808069Y431540D01*
X808123Y431434D01*
X808173Y431326D01*
X808220Y431217D01*
X808264Y431106D01*
X808304Y430994D01*
X808340Y430880D01*
X808372Y430766D01*
X808401Y430650D01*
X808426Y430534D01*
X808447Y430417D01*
X808464Y430299D01*
X808478Y430181D01*
X808487Y430062D01*
X808493Y429943D01*
X808495Y429824D01*
X806688Y432985D02*
X801721Y435695D01*
X814400Y437049D02*
X814400Y426212D01*
X813948Y441565D02*
X813948Y442468D01*
X814851Y442468D01*
X814851Y441565D01*
X813948Y441565D01*
X821486Y437049D02*
X821486Y426212D01*
X821486Y437049D02*
X829614Y437049D01*
X829715Y437047D01*
X829816Y437041D01*
X829917Y437032D01*
X830018Y437019D01*
X830118Y437002D01*
X830217Y436981D01*
X830315Y436957D01*
X830412Y436929D01*
X830509Y436897D01*
X830604Y436862D01*
X830697Y436823D01*
X830789Y436781D01*
X830880Y436735D01*
X830969Y436686D01*
X831055Y436634D01*
X831140Y436578D01*
X831223Y436520D01*
X831303Y436458D01*
X831381Y436393D01*
X831457Y436326D01*
X831530Y436256D01*
X831600Y436183D01*
X831667Y436107D01*
X831732Y436029D01*
X831794Y435949D01*
X831852Y435866D01*
X831908Y435781D01*
X831960Y435695D01*
X832009Y435606D01*
X832055Y435515D01*
X832097Y435423D01*
X832136Y435330D01*
X832171Y435235D01*
X832203Y435138D01*
X832231Y435041D01*
X832255Y434943D01*
X832276Y434844D01*
X832293Y434744D01*
X832306Y434643D01*
X832315Y434542D01*
X832321Y434441D01*
X832323Y434340D01*
X832323Y426212D01*
X826905Y426212D02*
X826905Y437049D01*
X839966Y437049D02*
X839966Y428921D01*
X839968Y428820D01*
X839974Y428719D01*
X839983Y428618D01*
X839996Y428517D01*
X840013Y428417D01*
X840034Y428318D01*
X840058Y428220D01*
X840086Y428123D01*
X840118Y428026D01*
X840153Y427931D01*
X840192Y427838D01*
X840234Y427746D01*
X840280Y427655D01*
X840329Y427567D01*
X840381Y427480D01*
X840437Y427395D01*
X840495Y427312D01*
X840557Y427232D01*
X840622Y427154D01*
X840689Y427078D01*
X840759Y427005D01*
X840832Y426935D01*
X840908Y426868D01*
X840986Y426803D01*
X841066Y426741D01*
X841149Y426683D01*
X841234Y426627D01*
X841321Y426575D01*
X841409Y426526D01*
X841500Y426480D01*
X841592Y426438D01*
X841685Y426399D01*
X841780Y426364D01*
X841877Y426332D01*
X841974Y426304D01*
X842072Y426280D01*
X842171Y426259D01*
X842271Y426242D01*
X842372Y426229D01*
X842473Y426220D01*
X842574Y426214D01*
X842675Y426212D01*
X847190Y426212D01*
X847190Y437049D01*
X854271Y442468D02*
X854271Y428921D01*
X854273Y428820D01*
X854279Y428719D01*
X854288Y428618D01*
X854301Y428517D01*
X854318Y428417D01*
X854339Y428318D01*
X854363Y428220D01*
X854391Y428123D01*
X854423Y428026D01*
X854458Y427931D01*
X854497Y427838D01*
X854539Y427746D01*
X854585Y427655D01*
X854634Y427567D01*
X854686Y427480D01*
X854742Y427395D01*
X854800Y427312D01*
X854862Y427232D01*
X854927Y427154D01*
X854994Y427078D01*
X855064Y427005D01*
X855137Y426935D01*
X855213Y426868D01*
X855291Y426803D01*
X855371Y426741D01*
X855454Y426683D01*
X855539Y426627D01*
X855626Y426575D01*
X855714Y426526D01*
X855805Y426480D01*
X855897Y426438D01*
X855990Y426399D01*
X856085Y426364D01*
X856182Y426332D01*
X856279Y426304D01*
X856377Y426280D01*
X856476Y426259D01*
X856576Y426242D01*
X856677Y426229D01*
X856778Y426220D01*
X856879Y426214D01*
X856980Y426212D01*
X865458Y432534D02*
X869522Y432534D01*
X865458Y432534D02*
X865346Y432532D01*
X865235Y432526D01*
X865124Y432516D01*
X865013Y432503D01*
X864903Y432485D01*
X864794Y432463D01*
X864685Y432438D01*
X864577Y432409D01*
X864471Y432376D01*
X864365Y432339D01*
X864261Y432299D01*
X864159Y432255D01*
X864058Y432207D01*
X863959Y432156D01*
X863861Y432101D01*
X863766Y432043D01*
X863673Y431982D01*
X863582Y431917D01*
X863493Y431849D01*
X863407Y431778D01*
X863324Y431705D01*
X863243Y431628D01*
X863164Y431548D01*
X863089Y431466D01*
X863017Y431381D01*
X862947Y431294D01*
X862881Y431204D01*
X862818Y431112D01*
X862758Y431017D01*
X862702Y430921D01*
X862649Y430823D01*
X862600Y430723D01*
X862554Y430621D01*
X862512Y430518D01*
X862473Y430413D01*
X862438Y430307D01*
X862407Y430200D01*
X862380Y430092D01*
X862356Y429983D01*
X862337Y429873D01*
X862321Y429763D01*
X862309Y429652D01*
X862301Y429540D01*
X862297Y429429D01*
X862297Y429317D01*
X862301Y429206D01*
X862309Y429094D01*
X862321Y428983D01*
X862337Y428873D01*
X862356Y428763D01*
X862380Y428654D01*
X862407Y428546D01*
X862438Y428439D01*
X862473Y428333D01*
X862512Y428228D01*
X862554Y428125D01*
X862600Y428023D01*
X862649Y427923D01*
X862702Y427825D01*
X862758Y427729D01*
X862818Y427634D01*
X862881Y427542D01*
X862947Y427452D01*
X863017Y427365D01*
X863089Y427280D01*
X863164Y427198D01*
X863243Y427118D01*
X863324Y427041D01*
X863407Y426968D01*
X863493Y426897D01*
X863582Y426829D01*
X863673Y426764D01*
X863766Y426703D01*
X863861Y426645D01*
X863959Y426590D01*
X864058Y426539D01*
X864159Y426491D01*
X864261Y426447D01*
X864365Y426407D01*
X864471Y426370D01*
X864577Y426337D01*
X864685Y426308D01*
X864794Y426283D01*
X864903Y426261D01*
X865013Y426243D01*
X865124Y426230D01*
X865235Y426220D01*
X865346Y426214D01*
X865458Y426212D01*
X869522Y426212D01*
X869522Y434340D01*
X869520Y434441D01*
X869514Y434542D01*
X869505Y434643D01*
X869492Y434744D01*
X869475Y434844D01*
X869454Y434943D01*
X869430Y435041D01*
X869402Y435138D01*
X869370Y435235D01*
X869335Y435330D01*
X869296Y435423D01*
X869254Y435515D01*
X869208Y435606D01*
X869159Y435695D01*
X869107Y435781D01*
X869051Y435866D01*
X868993Y435949D01*
X868931Y436029D01*
X868866Y436107D01*
X868799Y436183D01*
X868729Y436256D01*
X868656Y436326D01*
X868580Y436393D01*
X868502Y436458D01*
X868422Y436520D01*
X868339Y436578D01*
X868254Y436634D01*
X868168Y436686D01*
X868079Y436735D01*
X867988Y436781D01*
X867896Y436823D01*
X867803Y436862D01*
X867708Y436897D01*
X867611Y436929D01*
X867514Y436957D01*
X867416Y436981D01*
X867317Y437002D01*
X867217Y437019D01*
X867116Y437032D01*
X867015Y437041D01*
X866914Y437047D01*
X866813Y437049D01*
X863200Y437049D01*
X875141Y437049D02*
X880560Y437049D01*
X876947Y442468D02*
X876947Y428921D01*
X876948Y428921D02*
X876950Y428820D01*
X876956Y428719D01*
X876965Y428618D01*
X876978Y428517D01*
X876995Y428417D01*
X877016Y428318D01*
X877040Y428220D01*
X877068Y428123D01*
X877100Y428026D01*
X877135Y427931D01*
X877174Y427838D01*
X877216Y427746D01*
X877262Y427655D01*
X877311Y427567D01*
X877363Y427480D01*
X877419Y427395D01*
X877477Y427312D01*
X877539Y427232D01*
X877604Y427154D01*
X877671Y427078D01*
X877741Y427005D01*
X877814Y426935D01*
X877890Y426868D01*
X877968Y426803D01*
X878048Y426741D01*
X878131Y426683D01*
X878216Y426627D01*
X878303Y426575D01*
X878391Y426526D01*
X878482Y426480D01*
X878574Y426438D01*
X878667Y426399D01*
X878762Y426364D01*
X878859Y426332D01*
X878956Y426304D01*
X879054Y426280D01*
X879153Y426259D01*
X879253Y426242D01*
X879354Y426229D01*
X879455Y426220D01*
X879556Y426214D01*
X879657Y426212D01*
X880560Y426212D01*
X886338Y429824D02*
X886338Y433437D01*
X886339Y433437D02*
X886341Y433556D01*
X886347Y433676D01*
X886357Y433795D01*
X886371Y433913D01*
X886388Y434032D01*
X886410Y434149D01*
X886435Y434266D01*
X886465Y434381D01*
X886498Y434496D01*
X886535Y434610D01*
X886575Y434722D01*
X886620Y434833D01*
X886668Y434942D01*
X886719Y435050D01*
X886774Y435156D01*
X886833Y435260D01*
X886895Y435362D01*
X886960Y435462D01*
X887029Y435560D01*
X887101Y435656D01*
X887176Y435749D01*
X887253Y435839D01*
X887334Y435927D01*
X887418Y436012D01*
X887505Y436094D01*
X887594Y436174D01*
X887686Y436250D01*
X887780Y436324D01*
X887877Y436394D01*
X887975Y436461D01*
X888076Y436525D01*
X888180Y436585D01*
X888285Y436642D01*
X888392Y436695D01*
X888500Y436745D01*
X888610Y436791D01*
X888722Y436833D01*
X888835Y436872D01*
X888949Y436907D01*
X889064Y436938D01*
X889181Y436966D01*
X889298Y436989D01*
X889415Y437009D01*
X889534Y437025D01*
X889653Y437037D01*
X889772Y437045D01*
X889891Y437049D01*
X890011Y437049D01*
X890130Y437045D01*
X890249Y437037D01*
X890368Y437025D01*
X890487Y437009D01*
X890604Y436989D01*
X890721Y436966D01*
X890838Y436938D01*
X890953Y436907D01*
X891067Y436872D01*
X891180Y436833D01*
X891292Y436791D01*
X891402Y436745D01*
X891510Y436695D01*
X891617Y436642D01*
X891722Y436585D01*
X891826Y436525D01*
X891927Y436461D01*
X892025Y436394D01*
X892122Y436324D01*
X892216Y436250D01*
X892308Y436174D01*
X892397Y436094D01*
X892484Y436012D01*
X892568Y435927D01*
X892649Y435839D01*
X892726Y435749D01*
X892801Y435656D01*
X892873Y435560D01*
X892942Y435462D01*
X893007Y435362D01*
X893069Y435260D01*
X893128Y435156D01*
X893183Y435050D01*
X893234Y434942D01*
X893282Y434833D01*
X893327Y434722D01*
X893367Y434610D01*
X893404Y434496D01*
X893437Y434381D01*
X893467Y434266D01*
X893492Y434149D01*
X893514Y434032D01*
X893531Y433913D01*
X893545Y433795D01*
X893555Y433676D01*
X893561Y433556D01*
X893563Y433437D01*
X893563Y429824D01*
X893561Y429705D01*
X893555Y429585D01*
X893545Y429466D01*
X893531Y429348D01*
X893514Y429229D01*
X893492Y429112D01*
X893467Y428995D01*
X893437Y428880D01*
X893404Y428765D01*
X893367Y428651D01*
X893327Y428539D01*
X893282Y428428D01*
X893234Y428319D01*
X893183Y428211D01*
X893128Y428105D01*
X893069Y428001D01*
X893007Y427899D01*
X892942Y427799D01*
X892873Y427701D01*
X892801Y427605D01*
X892726Y427512D01*
X892649Y427422D01*
X892568Y427334D01*
X892484Y427249D01*
X892397Y427167D01*
X892308Y427087D01*
X892216Y427011D01*
X892122Y426937D01*
X892025Y426867D01*
X891927Y426800D01*
X891826Y426736D01*
X891722Y426676D01*
X891617Y426619D01*
X891510Y426566D01*
X891402Y426516D01*
X891292Y426470D01*
X891180Y426428D01*
X891067Y426389D01*
X890953Y426354D01*
X890838Y426323D01*
X890721Y426295D01*
X890604Y426272D01*
X890487Y426252D01*
X890368Y426236D01*
X890249Y426224D01*
X890130Y426216D01*
X890011Y426212D01*
X889891Y426212D01*
X889772Y426216D01*
X889653Y426224D01*
X889534Y426236D01*
X889415Y426252D01*
X889298Y426272D01*
X889181Y426295D01*
X889064Y426323D01*
X888949Y426354D01*
X888835Y426389D01*
X888722Y426428D01*
X888610Y426470D01*
X888500Y426516D01*
X888392Y426566D01*
X888285Y426619D01*
X888180Y426676D01*
X888076Y426736D01*
X887975Y426800D01*
X887877Y426867D01*
X887780Y426937D01*
X887686Y427011D01*
X887594Y427087D01*
X887505Y427167D01*
X887418Y427249D01*
X887334Y427334D01*
X887253Y427422D01*
X887176Y427512D01*
X887101Y427605D01*
X887029Y427701D01*
X886960Y427799D01*
X886895Y427899D01*
X886833Y428001D01*
X886774Y428105D01*
X886719Y428211D01*
X886668Y428319D01*
X886620Y428428D01*
X886575Y428539D01*
X886535Y428651D01*
X886498Y428765D01*
X886465Y428880D01*
X886435Y428995D01*
X886410Y429112D01*
X886388Y429229D01*
X886371Y429348D01*
X886357Y429466D01*
X886347Y429585D01*
X886341Y429705D01*
X886339Y429824D01*
X900491Y426212D02*
X900491Y437049D01*
X905910Y437049D01*
X905910Y435243D01*
X767278Y410718D02*
X762762Y407106D01*
X767278Y410718D02*
X767278Y394462D01*
X771793Y394462D02*
X762762Y394462D01*
X778393Y407106D02*
X782909Y410718D01*
X782909Y394462D01*
X787424Y394462D02*
X778393Y394462D01*
X793364Y392656D02*
X800589Y412524D01*
X806529Y407106D02*
X811045Y410718D01*
X811045Y394462D01*
X815560Y394462D02*
X806529Y394462D01*
X827128Y410718D02*
X827253Y410716D01*
X827378Y410710D01*
X827503Y410701D01*
X827627Y410687D01*
X827751Y410670D01*
X827875Y410649D01*
X827997Y410624D01*
X828119Y410595D01*
X828240Y410563D01*
X828360Y410527D01*
X828479Y410487D01*
X828596Y410444D01*
X828712Y410397D01*
X828827Y410346D01*
X828939Y410292D01*
X829051Y410234D01*
X829160Y410174D01*
X829267Y410109D01*
X829373Y410042D01*
X829476Y409971D01*
X829577Y409897D01*
X829676Y409820D01*
X829772Y409740D01*
X829866Y409657D01*
X829957Y409572D01*
X830046Y409483D01*
X830131Y409392D01*
X830214Y409298D01*
X830294Y409202D01*
X830371Y409103D01*
X830445Y409002D01*
X830516Y408899D01*
X830583Y408793D01*
X830648Y408686D01*
X830708Y408577D01*
X830766Y408465D01*
X830820Y408353D01*
X830871Y408238D01*
X830918Y408122D01*
X830961Y408005D01*
X831001Y407886D01*
X831037Y407766D01*
X831069Y407645D01*
X831098Y407523D01*
X831123Y407401D01*
X831144Y407277D01*
X831161Y407153D01*
X831175Y407029D01*
X831184Y406904D01*
X831190Y406779D01*
X831192Y406654D01*
X827128Y410718D02*
X826985Y410716D01*
X826843Y410710D01*
X826700Y410700D01*
X826558Y410687D01*
X826417Y410669D01*
X826275Y410648D01*
X826135Y410623D01*
X825995Y410594D01*
X825856Y410561D01*
X825718Y410524D01*
X825581Y410484D01*
X825446Y410440D01*
X825311Y410392D01*
X825178Y410340D01*
X825046Y410285D01*
X824916Y410226D01*
X824788Y410164D01*
X824661Y410098D01*
X824536Y410029D01*
X824413Y409957D01*
X824293Y409881D01*
X824174Y409802D01*
X824057Y409719D01*
X823943Y409634D01*
X823831Y409545D01*
X823722Y409454D01*
X823615Y409359D01*
X823510Y409262D01*
X823409Y409161D01*
X823310Y409058D01*
X823214Y408953D01*
X823121Y408844D01*
X823031Y408733D01*
X822944Y408620D01*
X822860Y408505D01*
X822780Y408387D01*
X822702Y408267D01*
X822628Y408145D01*
X822558Y408021D01*
X822490Y407895D01*
X822427Y407767D01*
X822366Y407638D01*
X822309Y407507D01*
X822256Y407375D01*
X822207Y407241D01*
X822161Y407106D01*
X829837Y403493D02*
X829931Y403585D01*
X830021Y403679D01*
X830109Y403776D01*
X830194Y403876D01*
X830276Y403978D01*
X830355Y404083D01*
X830430Y404190D01*
X830502Y404299D01*
X830571Y404410D01*
X830637Y404524D01*
X830699Y404639D01*
X830758Y404756D01*
X830813Y404875D01*
X830864Y404995D01*
X830912Y405117D01*
X830957Y405240D01*
X830997Y405364D01*
X831034Y405490D01*
X831067Y405617D01*
X831096Y405744D01*
X831122Y405873D01*
X831143Y406002D01*
X831161Y406132D01*
X831174Y406262D01*
X831184Y406392D01*
X831190Y406523D01*
X831192Y406654D01*
X829837Y403493D02*
X822161Y394462D01*
X831192Y394462D01*
X837132Y392656D02*
X844357Y412524D01*
X855264Y410718D02*
X855389Y410716D01*
X855514Y410710D01*
X855639Y410701D01*
X855763Y410687D01*
X855887Y410670D01*
X856011Y410649D01*
X856133Y410624D01*
X856255Y410595D01*
X856376Y410563D01*
X856496Y410527D01*
X856615Y410487D01*
X856732Y410444D01*
X856848Y410397D01*
X856963Y410346D01*
X857075Y410292D01*
X857187Y410234D01*
X857296Y410174D01*
X857403Y410109D01*
X857509Y410042D01*
X857612Y409971D01*
X857713Y409897D01*
X857812Y409820D01*
X857908Y409740D01*
X858002Y409657D01*
X858093Y409572D01*
X858182Y409483D01*
X858267Y409392D01*
X858350Y409298D01*
X858430Y409202D01*
X858507Y409103D01*
X858581Y409002D01*
X858652Y408899D01*
X858719Y408793D01*
X858784Y408686D01*
X858844Y408577D01*
X858902Y408465D01*
X858956Y408353D01*
X859007Y408238D01*
X859054Y408122D01*
X859097Y408005D01*
X859137Y407886D01*
X859173Y407766D01*
X859205Y407645D01*
X859234Y407523D01*
X859259Y407401D01*
X859280Y407277D01*
X859297Y407153D01*
X859311Y407029D01*
X859320Y406904D01*
X859326Y406779D01*
X859328Y406654D01*
X855264Y410718D02*
X855121Y410716D01*
X854979Y410710D01*
X854836Y410700D01*
X854694Y410687D01*
X854553Y410669D01*
X854411Y410648D01*
X854271Y410623D01*
X854131Y410594D01*
X853992Y410561D01*
X853854Y410524D01*
X853717Y410484D01*
X853582Y410440D01*
X853447Y410392D01*
X853314Y410340D01*
X853182Y410285D01*
X853052Y410226D01*
X852924Y410164D01*
X852797Y410098D01*
X852672Y410029D01*
X852549Y409957D01*
X852429Y409881D01*
X852310Y409802D01*
X852193Y409719D01*
X852079Y409634D01*
X851967Y409545D01*
X851858Y409454D01*
X851751Y409359D01*
X851646Y409262D01*
X851545Y409161D01*
X851446Y409058D01*
X851350Y408953D01*
X851257Y408844D01*
X851167Y408733D01*
X851080Y408620D01*
X850996Y408505D01*
X850916Y408387D01*
X850838Y408267D01*
X850764Y408145D01*
X850694Y408021D01*
X850626Y407895D01*
X850563Y407767D01*
X850502Y407638D01*
X850445Y407507D01*
X850392Y407375D01*
X850343Y407241D01*
X850297Y407106D01*
X857973Y403493D02*
X858067Y403585D01*
X858157Y403679D01*
X858245Y403776D01*
X858330Y403876D01*
X858412Y403978D01*
X858491Y404083D01*
X858566Y404190D01*
X858638Y404299D01*
X858707Y404410D01*
X858773Y404524D01*
X858835Y404639D01*
X858894Y404756D01*
X858949Y404875D01*
X859000Y404995D01*
X859048Y405117D01*
X859093Y405240D01*
X859133Y405364D01*
X859170Y405490D01*
X859203Y405617D01*
X859232Y405744D01*
X859258Y405873D01*
X859279Y406002D01*
X859297Y406132D01*
X859310Y406262D01*
X859320Y406392D01*
X859326Y406523D01*
X859328Y406654D01*
X857973Y403493D02*
X850297Y394462D01*
X859328Y394462D01*
X865928Y402590D02*
X865932Y402910D01*
X865943Y403229D01*
X865962Y403549D01*
X865989Y403867D01*
X866023Y404185D01*
X866065Y404502D01*
X866115Y404818D01*
X866172Y405133D01*
X866236Y405446D01*
X866308Y405758D01*
X866387Y406068D01*
X866474Y406375D01*
X866568Y406681D01*
X866669Y406984D01*
X866778Y407285D01*
X866893Y407583D01*
X867016Y407879D01*
X867146Y408171D01*
X867283Y408460D01*
X867283Y408461D02*
X867322Y408569D01*
X867365Y408676D01*
X867411Y408781D01*
X867462Y408885D01*
X867515Y408987D01*
X867572Y409087D01*
X867633Y409185D01*
X867697Y409280D01*
X867764Y409374D01*
X867835Y409465D01*
X867908Y409554D01*
X867985Y409640D01*
X868064Y409723D01*
X868146Y409804D01*
X868231Y409882D01*
X868319Y409956D01*
X868409Y410028D01*
X868501Y410096D01*
X868596Y410162D01*
X868693Y410224D01*
X868792Y410282D01*
X868894Y410338D01*
X868996Y410389D01*
X869101Y410437D01*
X869207Y410482D01*
X869315Y410523D01*
X869424Y410560D01*
X869534Y410593D01*
X869646Y410622D01*
X869758Y410648D01*
X869871Y410670D01*
X869985Y410687D01*
X870099Y410701D01*
X870214Y410711D01*
X870329Y410717D01*
X870444Y410719D01*
X870444Y410718D02*
X870559Y410716D01*
X870674Y410710D01*
X870789Y410700D01*
X870903Y410686D01*
X871017Y410669D01*
X871130Y410647D01*
X871242Y410621D01*
X871354Y410592D01*
X871464Y410559D01*
X871573Y410522D01*
X871681Y410481D01*
X871787Y410436D01*
X871892Y410388D01*
X871994Y410337D01*
X872095Y410281D01*
X872195Y410223D01*
X872292Y410161D01*
X872386Y410096D01*
X872479Y410027D01*
X872569Y409955D01*
X872657Y409881D01*
X872742Y409803D01*
X872824Y409722D01*
X872903Y409639D01*
X872980Y409553D01*
X873053Y409464D01*
X873124Y409373D01*
X873191Y409279D01*
X873255Y409184D01*
X873316Y409086D01*
X873373Y408986D01*
X873426Y408884D01*
X873477Y408780D01*
X873523Y408675D01*
X873566Y408568D01*
X873605Y408460D01*
X873604Y408460D02*
X873741Y408171D01*
X873871Y407879D01*
X873994Y407583D01*
X874109Y407285D01*
X874218Y406984D01*
X874319Y406681D01*
X874413Y406375D01*
X874500Y406068D01*
X874579Y405758D01*
X874651Y405446D01*
X874715Y405133D01*
X874772Y404818D01*
X874822Y404502D01*
X874864Y404185D01*
X874898Y403867D01*
X874925Y403549D01*
X874944Y403229D01*
X874955Y402910D01*
X874959Y402590D01*
X865928Y402590D02*
X865932Y402270D01*
X865943Y401951D01*
X865962Y401631D01*
X865989Y401313D01*
X866023Y400995D01*
X866065Y400678D01*
X866115Y400362D01*
X866172Y400047D01*
X866236Y399734D01*
X866308Y399422D01*
X866387Y399112D01*
X866474Y398805D01*
X866568Y398499D01*
X866669Y398196D01*
X866778Y397895D01*
X866893Y397597D01*
X867016Y397301D01*
X867146Y397009D01*
X867283Y396720D01*
X867322Y396612D01*
X867365Y396505D01*
X867411Y396400D01*
X867462Y396296D01*
X867515Y396194D01*
X867572Y396094D01*
X867633Y395996D01*
X867697Y395901D01*
X867764Y395807D01*
X867835Y395716D01*
X867908Y395627D01*
X867985Y395541D01*
X868064Y395458D01*
X868146Y395377D01*
X868231Y395299D01*
X868319Y395225D01*
X868409Y395153D01*
X868502Y395084D01*
X868596Y395019D01*
X868693Y394957D01*
X868793Y394899D01*
X868894Y394843D01*
X868996Y394792D01*
X869101Y394744D01*
X869207Y394699D01*
X869315Y394658D01*
X869424Y394621D01*
X869534Y394588D01*
X869646Y394559D01*
X869758Y394533D01*
X869871Y394511D01*
X869985Y394494D01*
X870099Y394480D01*
X870214Y394470D01*
X870329Y394464D01*
X870444Y394462D01*
X873604Y396720D02*
X873741Y397009D01*
X873871Y397301D01*
X873994Y397597D01*
X874109Y397895D01*
X874218Y398196D01*
X874319Y398499D01*
X874413Y398805D01*
X874500Y399112D01*
X874579Y399422D01*
X874651Y399734D01*
X874715Y400047D01*
X874772Y400362D01*
X874822Y400678D01*
X874864Y400995D01*
X874898Y401313D01*
X874925Y401631D01*
X874944Y401951D01*
X874955Y402270D01*
X874959Y402590D01*
X873605Y396720D02*
X873566Y396612D01*
X873523Y396505D01*
X873477Y396400D01*
X873426Y396296D01*
X873373Y396194D01*
X873316Y396094D01*
X873255Y395996D01*
X873191Y395901D01*
X873124Y395807D01*
X873053Y395716D01*
X872980Y395627D01*
X872903Y395541D01*
X872824Y395458D01*
X872742Y395377D01*
X872657Y395299D01*
X872569Y395225D01*
X872479Y395153D01*
X872386Y395084D01*
X872292Y395019D01*
X872195Y394957D01*
X872095Y394899D01*
X871994Y394843D01*
X871891Y394792D01*
X871787Y394744D01*
X871681Y394699D01*
X871573Y394658D01*
X871464Y394621D01*
X871354Y394588D01*
X871242Y394559D01*
X871130Y394533D01*
X871017Y394511D01*
X870903Y394494D01*
X870789Y394480D01*
X870674Y394470D01*
X870559Y394464D01*
X870444Y394462D01*
X866831Y398074D02*
X874056Y407106D01*
X886526Y410718D02*
X886651Y410716D01*
X886776Y410710D01*
X886901Y410701D01*
X887025Y410687D01*
X887149Y410670D01*
X887273Y410649D01*
X887395Y410624D01*
X887517Y410595D01*
X887638Y410563D01*
X887758Y410527D01*
X887877Y410487D01*
X887994Y410444D01*
X888110Y410397D01*
X888225Y410346D01*
X888337Y410292D01*
X888449Y410234D01*
X888558Y410174D01*
X888665Y410109D01*
X888771Y410042D01*
X888874Y409971D01*
X888975Y409897D01*
X889074Y409820D01*
X889170Y409740D01*
X889264Y409657D01*
X889355Y409572D01*
X889444Y409483D01*
X889529Y409392D01*
X889612Y409298D01*
X889692Y409202D01*
X889769Y409103D01*
X889843Y409002D01*
X889914Y408899D01*
X889981Y408793D01*
X890046Y408686D01*
X890106Y408577D01*
X890164Y408465D01*
X890218Y408353D01*
X890269Y408238D01*
X890316Y408122D01*
X890359Y408005D01*
X890399Y407886D01*
X890435Y407766D01*
X890467Y407645D01*
X890496Y407523D01*
X890521Y407401D01*
X890542Y407277D01*
X890559Y407153D01*
X890573Y407029D01*
X890582Y406904D01*
X890588Y406779D01*
X890590Y406654D01*
X886526Y410718D02*
X886383Y410716D01*
X886241Y410710D01*
X886098Y410700D01*
X885956Y410687D01*
X885815Y410669D01*
X885673Y410648D01*
X885533Y410623D01*
X885393Y410594D01*
X885254Y410561D01*
X885116Y410524D01*
X884979Y410484D01*
X884844Y410440D01*
X884709Y410392D01*
X884576Y410340D01*
X884444Y410285D01*
X884314Y410226D01*
X884186Y410164D01*
X884059Y410098D01*
X883934Y410029D01*
X883811Y409957D01*
X883691Y409881D01*
X883572Y409802D01*
X883455Y409719D01*
X883341Y409634D01*
X883229Y409545D01*
X883120Y409454D01*
X883013Y409359D01*
X882908Y409262D01*
X882807Y409161D01*
X882708Y409058D01*
X882612Y408953D01*
X882519Y408844D01*
X882429Y408733D01*
X882342Y408620D01*
X882258Y408505D01*
X882178Y408387D01*
X882100Y408267D01*
X882026Y408145D01*
X881956Y408021D01*
X881888Y407895D01*
X881825Y407767D01*
X881764Y407638D01*
X881707Y407507D01*
X881654Y407375D01*
X881605Y407241D01*
X881559Y407106D01*
X889235Y403493D02*
X889329Y403585D01*
X889419Y403679D01*
X889507Y403776D01*
X889592Y403876D01*
X889674Y403978D01*
X889753Y404083D01*
X889828Y404190D01*
X889900Y404299D01*
X889969Y404410D01*
X890035Y404524D01*
X890097Y404639D01*
X890156Y404756D01*
X890211Y404875D01*
X890262Y404995D01*
X890310Y405117D01*
X890355Y405240D01*
X890395Y405364D01*
X890432Y405490D01*
X890465Y405617D01*
X890494Y405744D01*
X890520Y405873D01*
X890541Y406002D01*
X890559Y406132D01*
X890572Y406262D01*
X890582Y406392D01*
X890588Y406523D01*
X890590Y406654D01*
X889236Y403493D02*
X881559Y394462D01*
X890590Y394462D01*
X897191Y402590D02*
X897195Y402910D01*
X897206Y403229D01*
X897225Y403549D01*
X897252Y403867D01*
X897286Y404185D01*
X897328Y404502D01*
X897378Y404818D01*
X897435Y405133D01*
X897499Y405446D01*
X897571Y405758D01*
X897650Y406068D01*
X897737Y406375D01*
X897831Y406681D01*
X897932Y406984D01*
X898041Y407285D01*
X898156Y407583D01*
X898279Y407879D01*
X898409Y408171D01*
X898546Y408460D01*
X898545Y408461D02*
X898584Y408569D01*
X898627Y408676D01*
X898673Y408781D01*
X898724Y408885D01*
X898777Y408987D01*
X898834Y409087D01*
X898895Y409185D01*
X898959Y409280D01*
X899026Y409374D01*
X899097Y409465D01*
X899170Y409554D01*
X899247Y409640D01*
X899326Y409723D01*
X899408Y409804D01*
X899493Y409882D01*
X899581Y409956D01*
X899671Y410028D01*
X899763Y410096D01*
X899858Y410162D01*
X899955Y410224D01*
X900054Y410282D01*
X900156Y410338D01*
X900258Y410389D01*
X900363Y410437D01*
X900469Y410482D01*
X900577Y410523D01*
X900686Y410560D01*
X900796Y410593D01*
X900908Y410622D01*
X901020Y410648D01*
X901133Y410670D01*
X901247Y410687D01*
X901361Y410701D01*
X901476Y410711D01*
X901591Y410717D01*
X901706Y410719D01*
X901706Y410718D02*
X901821Y410716D01*
X901936Y410710D01*
X902051Y410700D01*
X902165Y410686D01*
X902279Y410669D01*
X902392Y410647D01*
X902504Y410621D01*
X902616Y410592D01*
X902726Y410559D01*
X902835Y410522D01*
X902943Y410481D01*
X903049Y410436D01*
X903154Y410388D01*
X903256Y410337D01*
X903357Y410281D01*
X903457Y410223D01*
X903554Y410161D01*
X903648Y410096D01*
X903741Y410027D01*
X903831Y409955D01*
X903919Y409881D01*
X904004Y409803D01*
X904086Y409722D01*
X904165Y409639D01*
X904242Y409553D01*
X904315Y409464D01*
X904386Y409373D01*
X904453Y409279D01*
X904517Y409184D01*
X904578Y409086D01*
X904635Y408986D01*
X904688Y408884D01*
X904739Y408780D01*
X904785Y408675D01*
X904828Y408568D01*
X904867Y408460D01*
X904866Y408460D02*
X905003Y408171D01*
X905133Y407879D01*
X905256Y407583D01*
X905371Y407285D01*
X905480Y406984D01*
X905581Y406681D01*
X905675Y406375D01*
X905762Y406068D01*
X905841Y405758D01*
X905913Y405446D01*
X905977Y405133D01*
X906034Y404818D01*
X906084Y404502D01*
X906126Y404185D01*
X906160Y403867D01*
X906187Y403549D01*
X906206Y403229D01*
X906217Y402910D01*
X906221Y402590D01*
X897191Y402590D02*
X897195Y402270D01*
X897206Y401951D01*
X897225Y401631D01*
X897252Y401313D01*
X897286Y400995D01*
X897328Y400678D01*
X897378Y400362D01*
X897435Y400047D01*
X897499Y399734D01*
X897571Y399422D01*
X897650Y399112D01*
X897737Y398805D01*
X897831Y398499D01*
X897932Y398196D01*
X898041Y397895D01*
X898156Y397597D01*
X898279Y397301D01*
X898409Y397009D01*
X898546Y396720D01*
X898545Y396720D02*
X898584Y396612D01*
X898627Y396505D01*
X898673Y396400D01*
X898724Y396296D01*
X898777Y396194D01*
X898834Y396094D01*
X898895Y395996D01*
X898959Y395901D01*
X899026Y395807D01*
X899097Y395716D01*
X899170Y395627D01*
X899247Y395541D01*
X899326Y395458D01*
X899408Y395377D01*
X899493Y395299D01*
X899581Y395225D01*
X899671Y395153D01*
X899764Y395084D01*
X899858Y395019D01*
X899955Y394957D01*
X900055Y394899D01*
X900156Y394843D01*
X900258Y394792D01*
X900363Y394744D01*
X900469Y394699D01*
X900577Y394658D01*
X900686Y394621D01*
X900796Y394588D01*
X900908Y394559D01*
X901020Y394533D01*
X901133Y394511D01*
X901247Y394494D01*
X901361Y394480D01*
X901476Y394470D01*
X901591Y394464D01*
X901706Y394462D01*
X904866Y396720D02*
X905003Y397009D01*
X905133Y397301D01*
X905256Y397597D01*
X905371Y397895D01*
X905480Y398196D01*
X905581Y398499D01*
X905675Y398805D01*
X905762Y399112D01*
X905841Y399422D01*
X905913Y399734D01*
X905977Y400047D01*
X906034Y400362D01*
X906084Y400678D01*
X906126Y400995D01*
X906160Y401313D01*
X906187Y401631D01*
X906206Y401951D01*
X906217Y402270D01*
X906221Y402590D01*
X904867Y396720D02*
X904828Y396612D01*
X904785Y396505D01*
X904739Y396400D01*
X904688Y396296D01*
X904635Y396194D01*
X904578Y396094D01*
X904517Y395996D01*
X904453Y395901D01*
X904386Y395807D01*
X904315Y395716D01*
X904242Y395627D01*
X904165Y395541D01*
X904086Y395458D01*
X904004Y395377D01*
X903919Y395299D01*
X903831Y395225D01*
X903741Y395153D01*
X903648Y395084D01*
X903554Y395019D01*
X903457Y394957D01*
X903357Y394899D01*
X903256Y394843D01*
X903153Y394792D01*
X903049Y394744D01*
X902943Y394699D01*
X902835Y394658D01*
X902726Y394621D01*
X902616Y394588D01*
X902504Y394559D01*
X902392Y394533D01*
X902279Y394511D01*
X902165Y394494D01*
X902051Y394480D01*
X901936Y394470D01*
X901821Y394464D01*
X901706Y394462D01*
X898094Y398074D02*
X905318Y407106D01*
D11*
X217200Y186600D02*
X174700Y186600D01*
X104700Y186600D02*
X62200Y186600D01*
X62200Y397600D02*
X104700Y397600D01*
X174700Y397600D02*
X217200Y397600D01*
X62200Y237100D02*
X62200Y186600D01*
X62200Y347100D02*
X62200Y397600D01*
X217200Y237100D02*
X217200Y186600D01*
X217200Y347100D02*
X217200Y397600D01*
D12*
X40950Y292100D03*
D13*
X29837Y144497D02*
X29837Y141931D01*
X29837Y144497D02*
X29839Y144596D01*
X29845Y144696D01*
X29854Y144795D01*
X29868Y144893D01*
X29885Y144991D01*
X29906Y145089D01*
X29931Y145185D01*
X29960Y145280D01*
X29992Y145375D01*
X30028Y145467D01*
X30067Y145559D01*
X30110Y145649D01*
X30156Y145737D01*
X30206Y145823D01*
X30259Y145907D01*
X30315Y145989D01*
X30375Y146069D01*
X30437Y146146D01*
X30503Y146221D01*
X30571Y146294D01*
X30642Y146363D01*
X30716Y146430D01*
X30792Y146494D01*
X30871Y146555D01*
X30952Y146613D01*
X31035Y146668D01*
X31120Y146719D01*
X31207Y146767D01*
X31296Y146812D01*
X31387Y146853D01*
X31479Y146891D01*
X31572Y146925D01*
X31667Y146955D01*
X31763Y146982D01*
X31860Y147005D01*
X31957Y147024D01*
X32056Y147039D01*
X32155Y147051D01*
X32254Y147059D01*
X32353Y147063D01*
X32453Y147063D01*
X32552Y147059D01*
X32651Y147051D01*
X32750Y147039D01*
X32849Y147024D01*
X32946Y147005D01*
X33043Y146982D01*
X33139Y146955D01*
X33234Y146925D01*
X33327Y146891D01*
X33419Y146853D01*
X33510Y146812D01*
X33599Y146767D01*
X33686Y146719D01*
X33771Y146668D01*
X33854Y146613D01*
X33935Y146555D01*
X34014Y146494D01*
X34090Y146430D01*
X34164Y146363D01*
X34235Y146294D01*
X34303Y146221D01*
X34369Y146146D01*
X34431Y146069D01*
X34491Y145989D01*
X34547Y145907D01*
X34600Y145823D01*
X34650Y145737D01*
X34696Y145649D01*
X34739Y145559D01*
X34778Y145467D01*
X34814Y145375D01*
X34846Y145280D01*
X34875Y145185D01*
X34900Y145089D01*
X34921Y144991D01*
X34938Y144893D01*
X34952Y144795D01*
X34961Y144696D01*
X34967Y144596D01*
X34969Y144497D01*
X34969Y141931D01*
X25731Y141931D01*
X25731Y144497D01*
X25733Y144587D01*
X25739Y144676D01*
X25749Y144765D01*
X25762Y144853D01*
X25780Y144941D01*
X25801Y145028D01*
X25826Y145114D01*
X25855Y145199D01*
X25887Y145283D01*
X25923Y145365D01*
X25963Y145445D01*
X26006Y145524D01*
X26053Y145600D01*
X26102Y145675D01*
X26155Y145747D01*
X26211Y145817D01*
X26270Y145884D01*
X26332Y145949D01*
X26397Y146011D01*
X26464Y146070D01*
X26534Y146126D01*
X26606Y146179D01*
X26681Y146228D01*
X26758Y146275D01*
X26836Y146318D01*
X26916Y146358D01*
X26998Y146394D01*
X27082Y146426D01*
X27167Y146455D01*
X27253Y146480D01*
X27340Y146501D01*
X27428Y146519D01*
X27516Y146532D01*
X27605Y146542D01*
X27694Y146548D01*
X27784Y146550D01*
X27874Y146548D01*
X27963Y146542D01*
X28052Y146532D01*
X28140Y146519D01*
X28228Y146501D01*
X28315Y146480D01*
X28401Y146455D01*
X28486Y146426D01*
X28570Y146394D01*
X28652Y146358D01*
X28732Y146318D01*
X28811Y146275D01*
X28887Y146228D01*
X28962Y146179D01*
X29034Y146126D01*
X29104Y146070D01*
X29171Y146011D01*
X29236Y145949D01*
X29298Y145884D01*
X29357Y145817D01*
X29413Y145747D01*
X29466Y145675D01*
X29515Y145600D01*
X29562Y145524D01*
X29605Y145445D01*
X29645Y145365D01*
X29681Y145283D01*
X29713Y145199D01*
X29742Y145114D01*
X29767Y145028D01*
X29788Y144941D01*
X29806Y144853D01*
X29819Y144765D01*
X29829Y144676D01*
X29835Y144587D01*
X29837Y144497D01*
X25731Y152467D02*
X34969Y152467D01*
X25731Y149901D02*
X25731Y155033D01*
X27784Y158301D02*
X25731Y160867D01*
X34969Y160867D01*
X34969Y158301D02*
X34969Y163433D01*
D14*
X476500Y247400D02*
X539500Y247400D01*
X539500Y184400D01*
X476500Y184400D01*
X476500Y247400D01*
D15*
X460000Y255900D02*
X460002Y255989D01*
X460008Y256078D01*
X460018Y256167D01*
X460032Y256255D01*
X460049Y256342D01*
X460071Y256428D01*
X460097Y256514D01*
X460126Y256598D01*
X460159Y256681D01*
X460195Y256762D01*
X460236Y256842D01*
X460279Y256919D01*
X460326Y256995D01*
X460377Y257068D01*
X460430Y257139D01*
X460487Y257208D01*
X460547Y257274D01*
X460610Y257338D01*
X460675Y257398D01*
X460743Y257456D01*
X460814Y257510D01*
X460887Y257561D01*
X460962Y257609D01*
X461039Y257654D01*
X461118Y257695D01*
X461199Y257732D01*
X461281Y257766D01*
X461365Y257797D01*
X461450Y257823D01*
X461536Y257846D01*
X461623Y257864D01*
X461711Y257879D01*
X461800Y257890D01*
X461889Y257897D01*
X461978Y257900D01*
X462067Y257899D01*
X462156Y257894D01*
X462244Y257885D01*
X462333Y257872D01*
X462420Y257855D01*
X462507Y257835D01*
X462593Y257810D01*
X462677Y257782D01*
X462760Y257750D01*
X462842Y257714D01*
X462922Y257675D01*
X463000Y257632D01*
X463076Y257586D01*
X463150Y257536D01*
X463222Y257483D01*
X463291Y257427D01*
X463358Y257368D01*
X463422Y257306D01*
X463483Y257242D01*
X463542Y257174D01*
X463597Y257104D01*
X463649Y257032D01*
X463698Y256957D01*
X463743Y256881D01*
X463785Y256802D01*
X463823Y256722D01*
X463858Y256640D01*
X463889Y256556D01*
X463917Y256471D01*
X463940Y256385D01*
X463960Y256298D01*
X463976Y256211D01*
X463988Y256122D01*
X463996Y256034D01*
X464000Y255945D01*
X464000Y255855D01*
X463996Y255766D01*
X463988Y255678D01*
X463976Y255589D01*
X463960Y255502D01*
X463940Y255415D01*
X463917Y255329D01*
X463889Y255244D01*
X463858Y255160D01*
X463823Y255078D01*
X463785Y254998D01*
X463743Y254919D01*
X463698Y254843D01*
X463649Y254768D01*
X463597Y254696D01*
X463542Y254626D01*
X463483Y254558D01*
X463422Y254494D01*
X463358Y254432D01*
X463291Y254373D01*
X463222Y254317D01*
X463150Y254264D01*
X463076Y254214D01*
X463000Y254168D01*
X462922Y254125D01*
X462842Y254086D01*
X462760Y254050D01*
X462677Y254018D01*
X462593Y253990D01*
X462507Y253965D01*
X462420Y253945D01*
X462333Y253928D01*
X462244Y253915D01*
X462156Y253906D01*
X462067Y253901D01*
X461978Y253900D01*
X461889Y253903D01*
X461800Y253910D01*
X461711Y253921D01*
X461623Y253936D01*
X461536Y253954D01*
X461450Y253977D01*
X461365Y254003D01*
X461281Y254034D01*
X461199Y254068D01*
X461118Y254105D01*
X461039Y254146D01*
X460962Y254191D01*
X460887Y254239D01*
X460814Y254290D01*
X460743Y254344D01*
X460675Y254402D01*
X460610Y254462D01*
X460547Y254526D01*
X460487Y254592D01*
X460430Y254661D01*
X460377Y254732D01*
X460326Y254805D01*
X460279Y254881D01*
X460236Y254958D01*
X460195Y255038D01*
X460159Y255119D01*
X460126Y255202D01*
X460097Y255286D01*
X460071Y255372D01*
X460049Y255458D01*
X460032Y255545D01*
X460018Y255633D01*
X460008Y255722D01*
X460002Y255811D01*
X460000Y255900D01*
D16*
X299720Y266700D02*
X292100Y274320D01*
X292100Y309880D01*
X299720Y317500D01*
X312420Y317500D01*
X317500Y312420D01*
X322580Y317500D01*
X337820Y317500D01*
X342900Y312420D01*
X347980Y317500D01*
X360680Y317500D01*
X368300Y309880D01*
X368300Y274320D01*
X360680Y266700D01*
X347980Y266700D01*
X342900Y271780D01*
X337820Y266700D01*
X322580Y266700D01*
X317500Y271780D01*
X312420Y266700D01*
X299720Y266700D01*
D13*
X286949Y262001D02*
X284861Y264612D01*
X294259Y264612D01*
X294259Y267222D02*
X294259Y262001D01*
D17*
X338385Y325628D02*
X338385Y337312D01*
X337086Y325628D02*
X339683Y325628D01*
X339683Y337312D02*
X337086Y337312D01*
X347797Y325628D02*
X347896Y325630D01*
X347996Y325636D01*
X348095Y325645D01*
X348193Y325658D01*
X348291Y325675D01*
X348389Y325696D01*
X348485Y325721D01*
X348580Y325749D01*
X348674Y325781D01*
X348767Y325816D01*
X348859Y325855D01*
X348949Y325898D01*
X349037Y325943D01*
X349124Y325993D01*
X349208Y326045D01*
X349291Y326101D01*
X349371Y326159D01*
X349449Y326221D01*
X349524Y326286D01*
X349597Y326354D01*
X349667Y326424D01*
X349735Y326497D01*
X349800Y326572D01*
X349862Y326650D01*
X349920Y326730D01*
X349976Y326813D01*
X350028Y326897D01*
X350078Y326984D01*
X350123Y327072D01*
X350166Y327162D01*
X350205Y327254D01*
X350240Y327347D01*
X350272Y327441D01*
X350300Y327536D01*
X350325Y327632D01*
X350346Y327730D01*
X350363Y327828D01*
X350376Y327926D01*
X350385Y328025D01*
X350391Y328125D01*
X350393Y328224D01*
X347797Y325628D02*
X347653Y325630D01*
X347508Y325636D01*
X347364Y325645D01*
X347221Y325658D01*
X347077Y325675D01*
X346934Y325696D01*
X346792Y325721D01*
X346651Y325749D01*
X346510Y325781D01*
X346370Y325817D01*
X346231Y325856D01*
X346093Y325899D01*
X345957Y325946D01*
X345821Y325996D01*
X345687Y326050D01*
X345555Y326107D01*
X345424Y326168D01*
X345295Y326232D01*
X345167Y326300D01*
X345041Y326370D01*
X344917Y326445D01*
X344796Y326522D01*
X344676Y326603D01*
X344558Y326686D01*
X344443Y326773D01*
X344330Y326863D01*
X344219Y326956D01*
X344111Y327051D01*
X344005Y327150D01*
X343902Y327251D01*
X344227Y334716D02*
X344229Y334815D01*
X344235Y334915D01*
X344244Y335014D01*
X344257Y335112D01*
X344274Y335210D01*
X344295Y335308D01*
X344320Y335404D01*
X344348Y335499D01*
X344380Y335593D01*
X344415Y335686D01*
X344454Y335778D01*
X344497Y335868D01*
X344542Y335956D01*
X344592Y336043D01*
X344644Y336127D01*
X344700Y336210D01*
X344758Y336290D01*
X344820Y336368D01*
X344885Y336443D01*
X344953Y336516D01*
X345023Y336586D01*
X345096Y336654D01*
X345171Y336719D01*
X345249Y336781D01*
X345329Y336839D01*
X345412Y336895D01*
X345496Y336947D01*
X345583Y336997D01*
X345671Y337042D01*
X345761Y337085D01*
X345853Y337124D01*
X345946Y337159D01*
X346040Y337191D01*
X346135Y337219D01*
X346232Y337244D01*
X346329Y337265D01*
X346427Y337282D01*
X346525Y337295D01*
X346624Y337304D01*
X346724Y337310D01*
X346823Y337312D01*
X346959Y337310D01*
X347095Y337304D01*
X347231Y337295D01*
X347367Y337282D01*
X347502Y337264D01*
X347636Y337244D01*
X347770Y337219D01*
X347904Y337191D01*
X348036Y337158D01*
X348167Y337123D01*
X348298Y337083D01*
X348427Y337040D01*
X348555Y336994D01*
X348681Y336943D01*
X348807Y336890D01*
X348930Y336832D01*
X349052Y336772D01*
X349172Y336708D01*
X349291Y336640D01*
X349407Y336570D01*
X349521Y336496D01*
X349634Y336419D01*
X349744Y336338D01*
X345524Y332444D02*
X345438Y332497D01*
X345354Y332554D01*
X345272Y332613D01*
X345192Y332676D01*
X345115Y332742D01*
X345040Y332810D01*
X344968Y332882D01*
X344899Y332956D01*
X344833Y333033D01*
X344770Y333112D01*
X344710Y333194D01*
X344653Y333278D01*
X344599Y333364D01*
X344549Y333452D01*
X344502Y333542D01*
X344458Y333633D01*
X344419Y333727D01*
X344382Y333821D01*
X344350Y333917D01*
X344321Y334015D01*
X344296Y334113D01*
X344275Y334212D01*
X344257Y334312D01*
X344244Y334412D01*
X344234Y334513D01*
X344228Y334615D01*
X344226Y334716D01*
X349095Y330496D02*
X349181Y330443D01*
X349265Y330386D01*
X349347Y330327D01*
X349427Y330264D01*
X349504Y330198D01*
X349579Y330130D01*
X349651Y330058D01*
X349720Y329984D01*
X349786Y329907D01*
X349849Y329828D01*
X349909Y329746D01*
X349966Y329662D01*
X350020Y329576D01*
X350070Y329488D01*
X350117Y329398D01*
X350161Y329307D01*
X350200Y329213D01*
X350237Y329119D01*
X350269Y329023D01*
X350298Y328925D01*
X350323Y328827D01*
X350344Y328728D01*
X350362Y328628D01*
X350375Y328528D01*
X350385Y328427D01*
X350391Y328325D01*
X350393Y328224D01*
X349095Y330496D02*
X345525Y332444D01*
X355501Y337312D02*
X355501Y325628D01*
X355501Y337312D02*
X358747Y337312D01*
X358860Y337310D01*
X358973Y337304D01*
X359086Y337294D01*
X359199Y337280D01*
X359311Y337263D01*
X359422Y337241D01*
X359532Y337216D01*
X359642Y337186D01*
X359750Y337153D01*
X359857Y337116D01*
X359963Y337076D01*
X360067Y337031D01*
X360170Y336983D01*
X360271Y336932D01*
X360370Y336877D01*
X360467Y336819D01*
X360562Y336757D01*
X360655Y336692D01*
X360745Y336624D01*
X360833Y336553D01*
X360919Y336478D01*
X361002Y336401D01*
X361082Y336321D01*
X361159Y336238D01*
X361234Y336152D01*
X361305Y336064D01*
X361373Y335974D01*
X361438Y335881D01*
X361500Y335786D01*
X361558Y335689D01*
X361613Y335590D01*
X361664Y335489D01*
X361712Y335386D01*
X361757Y335282D01*
X361797Y335176D01*
X361834Y335069D01*
X361867Y334961D01*
X361897Y334851D01*
X361922Y334741D01*
X361944Y334630D01*
X361961Y334518D01*
X361975Y334405D01*
X361985Y334292D01*
X361991Y334179D01*
X361993Y334066D01*
X361991Y333953D01*
X361985Y333840D01*
X361975Y333727D01*
X361961Y333614D01*
X361944Y333502D01*
X361922Y333391D01*
X361897Y333281D01*
X361867Y333171D01*
X361834Y333063D01*
X361797Y332956D01*
X361757Y332850D01*
X361712Y332746D01*
X361664Y332643D01*
X361613Y332542D01*
X361558Y332443D01*
X361500Y332346D01*
X361438Y332251D01*
X361373Y332158D01*
X361305Y332068D01*
X361234Y331980D01*
X361159Y331894D01*
X361082Y331811D01*
X361002Y331731D01*
X360919Y331654D01*
X360833Y331579D01*
X360745Y331508D01*
X360655Y331440D01*
X360562Y331375D01*
X360467Y331313D01*
X360370Y331255D01*
X360271Y331200D01*
X360170Y331149D01*
X360067Y331101D01*
X359963Y331056D01*
X359857Y331016D01*
X359750Y330979D01*
X359642Y330946D01*
X359532Y330916D01*
X359422Y330891D01*
X359311Y330869D01*
X359199Y330852D01*
X359086Y330838D01*
X358973Y330828D01*
X358860Y330822D01*
X358747Y330820D01*
X358747Y330821D02*
X355501Y330821D01*
X366381Y334716D02*
X369626Y337312D01*
X369626Y325628D01*
X366381Y325628D02*
X372872Y325628D01*
D16*
X376226Y170815D02*
X376226Y161925D01*
X376224Y161825D01*
X376218Y161726D01*
X376208Y161626D01*
X376195Y161528D01*
X376177Y161429D01*
X376156Y161332D01*
X376131Y161236D01*
X376102Y161140D01*
X376069Y161046D01*
X376033Y160953D01*
X375993Y160862D01*
X375949Y160772D01*
X375902Y160684D01*
X375852Y160598D01*
X375798Y160514D01*
X375741Y160432D01*
X375681Y160353D01*
X375617Y160275D01*
X375551Y160201D01*
X375482Y160129D01*
X375410Y160060D01*
X375336Y159994D01*
X375258Y159930D01*
X375179Y159870D01*
X375097Y159813D01*
X375013Y159759D01*
X374927Y159709D01*
X374839Y159662D01*
X374749Y159618D01*
X374658Y159578D01*
X374565Y159542D01*
X374471Y159509D01*
X374375Y159480D01*
X374279Y159455D01*
X374182Y159434D01*
X374083Y159416D01*
X373985Y159403D01*
X373885Y159393D01*
X373786Y159387D01*
X373686Y159385D01*
X372416Y159385D01*
X382207Y159385D02*
X382207Y170815D01*
X385382Y170815D01*
X385493Y170813D01*
X385603Y170807D01*
X385714Y170798D01*
X385824Y170784D01*
X385933Y170767D01*
X386042Y170746D01*
X386150Y170721D01*
X386257Y170692D01*
X386363Y170660D01*
X386468Y170624D01*
X386571Y170584D01*
X386673Y170541D01*
X386774Y170494D01*
X386873Y170443D01*
X386970Y170390D01*
X387064Y170333D01*
X387157Y170272D01*
X387248Y170209D01*
X387337Y170142D01*
X387423Y170072D01*
X387506Y169999D01*
X387588Y169924D01*
X387666Y169846D01*
X387741Y169764D01*
X387814Y169681D01*
X387884Y169595D01*
X387951Y169506D01*
X388014Y169415D01*
X388075Y169322D01*
X388132Y169227D01*
X388185Y169131D01*
X388236Y169032D01*
X388283Y168931D01*
X388326Y168829D01*
X388366Y168726D01*
X388402Y168621D01*
X388434Y168515D01*
X388463Y168408D01*
X388488Y168300D01*
X388509Y168191D01*
X388526Y168082D01*
X388540Y167972D01*
X388549Y167861D01*
X388555Y167751D01*
X388557Y167640D01*
X388555Y167529D01*
X388549Y167419D01*
X388540Y167308D01*
X388526Y167198D01*
X388509Y167089D01*
X388488Y166980D01*
X388463Y166872D01*
X388434Y166765D01*
X388402Y166659D01*
X388366Y166554D01*
X388326Y166451D01*
X388283Y166349D01*
X388236Y166248D01*
X388185Y166149D01*
X388132Y166052D01*
X388075Y165958D01*
X388014Y165865D01*
X387951Y165774D01*
X387884Y165685D01*
X387814Y165599D01*
X387741Y165516D01*
X387666Y165434D01*
X387588Y165356D01*
X387506Y165281D01*
X387423Y165208D01*
X387337Y165138D01*
X387248Y165071D01*
X387157Y165008D01*
X387064Y164947D01*
X386970Y164890D01*
X386873Y164837D01*
X386774Y164786D01*
X386673Y164739D01*
X386571Y164696D01*
X386468Y164656D01*
X386363Y164620D01*
X386257Y164588D01*
X386150Y164559D01*
X386042Y164534D01*
X385933Y164513D01*
X385824Y164496D01*
X385714Y164482D01*
X385603Y164473D01*
X385493Y164467D01*
X385382Y164465D01*
X382207Y164465D01*
X393065Y168275D02*
X396240Y170815D01*
X396240Y159385D01*
X393065Y159385D02*
X399415Y159385D01*
D10*
X127000Y95250D02*
X127000Y82550D01*
X127000Y95250D02*
X133350Y101600D01*
X146050Y101600D01*
X152400Y95250D01*
X146050Y76200D02*
X133350Y76200D01*
X127000Y82550D01*
X146050Y76200D02*
X152400Y82550D01*
X152400Y95250D01*
X133350Y101600D02*
X127000Y107950D01*
X127000Y120650D01*
X133350Y127000D01*
X146050Y127000D01*
X152400Y120650D01*
X152400Y107950D01*
X146050Y101600D01*
D16*
X118237Y79883D02*
X109347Y79883D01*
X118237Y79883D02*
X118337Y79881D01*
X118436Y79875D01*
X118536Y79865D01*
X118634Y79852D01*
X118733Y79834D01*
X118830Y79813D01*
X118926Y79788D01*
X119022Y79759D01*
X119116Y79726D01*
X119209Y79690D01*
X119300Y79650D01*
X119390Y79606D01*
X119478Y79559D01*
X119564Y79509D01*
X119648Y79455D01*
X119730Y79398D01*
X119809Y79338D01*
X119887Y79274D01*
X119961Y79208D01*
X120033Y79139D01*
X120102Y79067D01*
X120168Y78993D01*
X120232Y78915D01*
X120292Y78836D01*
X120349Y78754D01*
X120403Y78670D01*
X120453Y78584D01*
X120500Y78496D01*
X120544Y78406D01*
X120584Y78315D01*
X120620Y78222D01*
X120653Y78128D01*
X120682Y78032D01*
X120707Y77936D01*
X120728Y77839D01*
X120746Y77740D01*
X120759Y77642D01*
X120769Y77542D01*
X120775Y77443D01*
X120777Y77343D01*
X120777Y76073D01*
X120777Y85863D02*
X109347Y85863D01*
X109347Y89038D01*
X109349Y89149D01*
X109355Y89259D01*
X109364Y89370D01*
X109378Y89480D01*
X109395Y89589D01*
X109416Y89698D01*
X109441Y89806D01*
X109470Y89913D01*
X109502Y90019D01*
X109538Y90124D01*
X109578Y90227D01*
X109621Y90329D01*
X109668Y90430D01*
X109719Y90529D01*
X109772Y90625D01*
X109829Y90720D01*
X109890Y90813D01*
X109953Y90904D01*
X110020Y90993D01*
X110090Y91079D01*
X110163Y91162D01*
X110238Y91244D01*
X110316Y91322D01*
X110398Y91397D01*
X110481Y91470D01*
X110567Y91540D01*
X110656Y91607D01*
X110747Y91670D01*
X110840Y91731D01*
X110935Y91788D01*
X111031Y91841D01*
X111130Y91892D01*
X111231Y91939D01*
X111333Y91982D01*
X111436Y92022D01*
X111541Y92058D01*
X111647Y92090D01*
X111754Y92119D01*
X111862Y92144D01*
X111971Y92165D01*
X112080Y92182D01*
X112190Y92196D01*
X112301Y92205D01*
X112411Y92211D01*
X112522Y92213D01*
X112633Y92211D01*
X112743Y92205D01*
X112854Y92196D01*
X112964Y92182D01*
X113073Y92165D01*
X113182Y92144D01*
X113290Y92119D01*
X113397Y92090D01*
X113503Y92058D01*
X113608Y92022D01*
X113711Y91982D01*
X113813Y91939D01*
X113914Y91892D01*
X114013Y91841D01*
X114110Y91788D01*
X114204Y91731D01*
X114297Y91670D01*
X114388Y91607D01*
X114477Y91540D01*
X114563Y91470D01*
X114646Y91397D01*
X114728Y91322D01*
X114806Y91244D01*
X114881Y91162D01*
X114954Y91079D01*
X115024Y90993D01*
X115091Y90904D01*
X115154Y90813D01*
X115215Y90720D01*
X115272Y90626D01*
X115325Y90529D01*
X115376Y90430D01*
X115423Y90329D01*
X115466Y90227D01*
X115506Y90124D01*
X115542Y90019D01*
X115574Y89913D01*
X115603Y89806D01*
X115628Y89698D01*
X115649Y89589D01*
X115666Y89480D01*
X115680Y89370D01*
X115689Y89259D01*
X115695Y89149D01*
X115697Y89038D01*
X115697Y85863D01*
X109347Y100214D02*
X109349Y100318D01*
X109355Y100423D01*
X109364Y100527D01*
X109377Y100630D01*
X109395Y100733D01*
X109415Y100835D01*
X109440Y100937D01*
X109468Y101037D01*
X109500Y101137D01*
X109536Y101235D01*
X109575Y101332D01*
X109617Y101427D01*
X109663Y101521D01*
X109713Y101613D01*
X109765Y101703D01*
X109821Y101791D01*
X109881Y101877D01*
X109943Y101961D01*
X110008Y102042D01*
X110076Y102121D01*
X110148Y102198D01*
X110221Y102271D01*
X110298Y102343D01*
X110377Y102411D01*
X110458Y102476D01*
X110542Y102538D01*
X110628Y102598D01*
X110716Y102654D01*
X110806Y102706D01*
X110898Y102756D01*
X110992Y102802D01*
X111087Y102844D01*
X111184Y102883D01*
X111282Y102919D01*
X111382Y102951D01*
X111482Y102979D01*
X111584Y103004D01*
X111686Y103024D01*
X111789Y103042D01*
X111892Y103055D01*
X111996Y103064D01*
X112101Y103070D01*
X112205Y103072D01*
X109347Y100214D02*
X109349Y100096D01*
X109355Y99977D01*
X109364Y99859D01*
X109377Y99742D01*
X109395Y99625D01*
X109415Y99508D01*
X109440Y99392D01*
X109468Y99277D01*
X109501Y99164D01*
X109536Y99051D01*
X109576Y98939D01*
X109618Y98829D01*
X109665Y98720D01*
X109715Y98612D01*
X109768Y98507D01*
X109825Y98403D01*
X109885Y98301D01*
X109948Y98201D01*
X110015Y98103D01*
X110084Y98007D01*
X110157Y97914D01*
X110233Y97823D01*
X110311Y97734D01*
X110393Y97648D01*
X110477Y97565D01*
X110563Y97484D01*
X110653Y97407D01*
X110744Y97332D01*
X110838Y97260D01*
X110935Y97191D01*
X111033Y97126D01*
X111134Y97063D01*
X111237Y97004D01*
X111341Y96948D01*
X111447Y96896D01*
X111555Y96847D01*
X111664Y96802D01*
X111775Y96760D01*
X111887Y96722D01*
X114427Y102120D02*
X114352Y102196D01*
X114273Y102271D01*
X114192Y102342D01*
X114108Y102411D01*
X114022Y102476D01*
X113934Y102538D01*
X113844Y102598D01*
X113752Y102654D01*
X113657Y102707D01*
X113561Y102756D01*
X113463Y102802D01*
X113364Y102845D01*
X113263Y102884D01*
X113161Y102919D01*
X113058Y102951D01*
X112954Y102979D01*
X112849Y103004D01*
X112742Y103025D01*
X112636Y103042D01*
X112529Y103055D01*
X112421Y103064D01*
X112313Y103070D01*
X112205Y103072D01*
X114427Y102119D02*
X120777Y96722D01*
X120777Y103072D01*
D10*
X615950Y393700D02*
X628650Y393700D01*
X635000Y387350D01*
X635000Y374650D01*
X628650Y368300D01*
X609600Y374650D02*
X609600Y387350D01*
X615950Y393700D01*
X609600Y374650D02*
X615950Y368300D01*
X628650Y368300D01*
D16*
X613283Y402463D02*
X613283Y411353D01*
X613283Y402463D02*
X613281Y402363D01*
X613275Y402264D01*
X613265Y402164D01*
X613252Y402066D01*
X613234Y401967D01*
X613213Y401870D01*
X613188Y401774D01*
X613159Y401678D01*
X613126Y401584D01*
X613090Y401491D01*
X613050Y401400D01*
X613006Y401310D01*
X612959Y401222D01*
X612909Y401136D01*
X612855Y401052D01*
X612798Y400970D01*
X612738Y400891D01*
X612674Y400813D01*
X612608Y400739D01*
X612539Y400667D01*
X612467Y400598D01*
X612393Y400532D01*
X612315Y400468D01*
X612236Y400408D01*
X612154Y400351D01*
X612070Y400297D01*
X611984Y400247D01*
X611896Y400200D01*
X611806Y400156D01*
X611715Y400116D01*
X611622Y400080D01*
X611528Y400047D01*
X611432Y400018D01*
X611336Y399993D01*
X611239Y399972D01*
X611140Y399954D01*
X611042Y399941D01*
X610942Y399931D01*
X610843Y399925D01*
X610743Y399923D01*
X609473Y399923D01*
X619263Y399923D02*
X619263Y411353D01*
X622438Y411353D01*
X622549Y411351D01*
X622659Y411345D01*
X622770Y411336D01*
X622880Y411322D01*
X622989Y411305D01*
X623098Y411284D01*
X623206Y411259D01*
X623313Y411230D01*
X623419Y411198D01*
X623524Y411162D01*
X623627Y411122D01*
X623729Y411079D01*
X623830Y411032D01*
X623929Y410981D01*
X624026Y410928D01*
X624120Y410871D01*
X624213Y410810D01*
X624304Y410747D01*
X624393Y410680D01*
X624479Y410610D01*
X624562Y410537D01*
X624644Y410462D01*
X624722Y410384D01*
X624797Y410302D01*
X624870Y410219D01*
X624940Y410133D01*
X625007Y410044D01*
X625070Y409953D01*
X625131Y409860D01*
X625188Y409765D01*
X625241Y409669D01*
X625292Y409570D01*
X625339Y409469D01*
X625382Y409367D01*
X625422Y409264D01*
X625458Y409159D01*
X625490Y409053D01*
X625519Y408946D01*
X625544Y408838D01*
X625565Y408729D01*
X625582Y408620D01*
X625596Y408510D01*
X625605Y408399D01*
X625611Y408289D01*
X625613Y408178D01*
X625611Y408067D01*
X625605Y407957D01*
X625596Y407846D01*
X625582Y407736D01*
X625565Y407627D01*
X625544Y407518D01*
X625519Y407410D01*
X625490Y407303D01*
X625458Y407197D01*
X625422Y407092D01*
X625382Y406989D01*
X625339Y406887D01*
X625292Y406786D01*
X625241Y406687D01*
X625188Y406590D01*
X625131Y406496D01*
X625070Y406403D01*
X625007Y406312D01*
X624940Y406223D01*
X624870Y406137D01*
X624797Y406054D01*
X624722Y405972D01*
X624644Y405894D01*
X624562Y405819D01*
X624479Y405746D01*
X624393Y405676D01*
X624304Y405609D01*
X624213Y405546D01*
X624120Y405485D01*
X624026Y405428D01*
X623929Y405375D01*
X623830Y405324D01*
X623729Y405277D01*
X623627Y405234D01*
X623524Y405194D01*
X623419Y405158D01*
X623313Y405126D01*
X623206Y405097D01*
X623098Y405072D01*
X622989Y405051D01*
X622880Y405034D01*
X622770Y405020D01*
X622659Y405011D01*
X622549Y405005D01*
X622438Y405003D01*
X619263Y405003D01*
X630122Y399923D02*
X633297Y399923D01*
X633408Y399925D01*
X633518Y399931D01*
X633629Y399940D01*
X633739Y399954D01*
X633848Y399971D01*
X633957Y399992D01*
X634065Y400017D01*
X634172Y400046D01*
X634278Y400078D01*
X634383Y400114D01*
X634486Y400154D01*
X634588Y400197D01*
X634689Y400244D01*
X634788Y400295D01*
X634885Y400348D01*
X634979Y400405D01*
X635072Y400466D01*
X635163Y400529D01*
X635252Y400596D01*
X635338Y400666D01*
X635421Y400739D01*
X635503Y400814D01*
X635581Y400892D01*
X635656Y400974D01*
X635729Y401057D01*
X635799Y401143D01*
X635866Y401232D01*
X635929Y401323D01*
X635990Y401416D01*
X636047Y401510D01*
X636100Y401607D01*
X636151Y401706D01*
X636198Y401807D01*
X636241Y401909D01*
X636281Y402012D01*
X636317Y402117D01*
X636349Y402223D01*
X636378Y402330D01*
X636403Y402438D01*
X636424Y402547D01*
X636441Y402656D01*
X636455Y402766D01*
X636464Y402877D01*
X636470Y402987D01*
X636472Y403098D01*
X636470Y403209D01*
X636464Y403319D01*
X636455Y403430D01*
X636441Y403540D01*
X636424Y403649D01*
X636403Y403758D01*
X636378Y403866D01*
X636349Y403973D01*
X636317Y404079D01*
X636281Y404184D01*
X636241Y404287D01*
X636198Y404389D01*
X636151Y404490D01*
X636100Y404589D01*
X636047Y404685D01*
X635990Y404780D01*
X635929Y404873D01*
X635866Y404964D01*
X635799Y405053D01*
X635729Y405139D01*
X635656Y405222D01*
X635581Y405304D01*
X635503Y405382D01*
X635421Y405457D01*
X635338Y405530D01*
X635252Y405600D01*
X635163Y405667D01*
X635072Y405730D01*
X634979Y405791D01*
X634885Y405848D01*
X634788Y405901D01*
X634689Y405952D01*
X634588Y405999D01*
X634486Y406042D01*
X634383Y406082D01*
X634278Y406118D01*
X634172Y406150D01*
X634065Y406179D01*
X633957Y406204D01*
X633848Y406225D01*
X633739Y406242D01*
X633629Y406256D01*
X633518Y406265D01*
X633408Y406271D01*
X633297Y406273D01*
X633932Y411353D02*
X630122Y411353D01*
X633932Y411353D02*
X634032Y411351D01*
X634131Y411345D01*
X634231Y411335D01*
X634329Y411322D01*
X634428Y411304D01*
X634525Y411283D01*
X634621Y411258D01*
X634717Y411229D01*
X634811Y411196D01*
X634904Y411160D01*
X634995Y411120D01*
X635085Y411076D01*
X635173Y411029D01*
X635259Y410979D01*
X635343Y410925D01*
X635425Y410868D01*
X635504Y410808D01*
X635582Y410744D01*
X635656Y410678D01*
X635728Y410609D01*
X635797Y410537D01*
X635863Y410463D01*
X635927Y410385D01*
X635987Y410306D01*
X636044Y410224D01*
X636098Y410140D01*
X636148Y410054D01*
X636195Y409966D01*
X636239Y409876D01*
X636279Y409785D01*
X636315Y409692D01*
X636348Y409598D01*
X636377Y409502D01*
X636402Y409406D01*
X636423Y409309D01*
X636441Y409210D01*
X636454Y409112D01*
X636464Y409012D01*
X636470Y408913D01*
X636472Y408813D01*
X636470Y408713D01*
X636464Y408614D01*
X636454Y408514D01*
X636441Y408416D01*
X636423Y408317D01*
X636402Y408220D01*
X636377Y408124D01*
X636348Y408028D01*
X636315Y407934D01*
X636279Y407841D01*
X636239Y407750D01*
X636195Y407660D01*
X636148Y407572D01*
X636098Y407486D01*
X636044Y407402D01*
X635987Y407320D01*
X635927Y407241D01*
X635863Y407163D01*
X635797Y407089D01*
X635728Y407017D01*
X635656Y406948D01*
X635582Y406882D01*
X635504Y406818D01*
X635425Y406758D01*
X635343Y406701D01*
X635259Y406647D01*
X635173Y406597D01*
X635085Y406550D01*
X634995Y406506D01*
X634904Y406466D01*
X634811Y406430D01*
X634717Y406397D01*
X634621Y406368D01*
X634525Y406343D01*
X634428Y406322D01*
X634329Y406304D01*
X634231Y406291D01*
X634131Y406281D01*
X634032Y406275D01*
X633932Y406273D01*
X631392Y406273D01*
D10*
X514350Y107950D02*
X514350Y95250D01*
X508000Y88900D01*
X495300Y88900D01*
X488950Y95250D01*
X495300Y114300D02*
X508000Y114300D01*
X514350Y107950D01*
X495300Y114300D02*
X488950Y107950D01*
X488950Y95250D01*
D16*
X520573Y91238D02*
X529463Y91238D01*
X529563Y91236D01*
X529662Y91230D01*
X529762Y91220D01*
X529860Y91207D01*
X529959Y91189D01*
X530056Y91168D01*
X530152Y91143D01*
X530248Y91114D01*
X530342Y91081D01*
X530435Y91045D01*
X530526Y91005D01*
X530616Y90961D01*
X530704Y90914D01*
X530790Y90864D01*
X530874Y90810D01*
X530956Y90753D01*
X531035Y90693D01*
X531113Y90629D01*
X531187Y90563D01*
X531259Y90494D01*
X531328Y90422D01*
X531394Y90348D01*
X531458Y90270D01*
X531518Y90191D01*
X531575Y90109D01*
X531629Y90025D01*
X531679Y89939D01*
X531726Y89851D01*
X531770Y89761D01*
X531810Y89670D01*
X531846Y89577D01*
X531879Y89483D01*
X531908Y89387D01*
X531933Y89291D01*
X531954Y89194D01*
X531972Y89095D01*
X531985Y88997D01*
X531995Y88897D01*
X532001Y88798D01*
X532003Y88698D01*
X532003Y87428D01*
X532003Y97219D02*
X520573Y97219D01*
X520573Y100394D01*
X520575Y100505D01*
X520581Y100615D01*
X520590Y100726D01*
X520604Y100836D01*
X520621Y100945D01*
X520642Y101054D01*
X520667Y101162D01*
X520696Y101269D01*
X520728Y101375D01*
X520764Y101480D01*
X520804Y101583D01*
X520847Y101685D01*
X520894Y101786D01*
X520945Y101885D01*
X520998Y101981D01*
X521055Y102076D01*
X521116Y102169D01*
X521179Y102260D01*
X521246Y102349D01*
X521316Y102435D01*
X521389Y102518D01*
X521464Y102600D01*
X521542Y102678D01*
X521624Y102753D01*
X521707Y102826D01*
X521793Y102896D01*
X521882Y102963D01*
X521973Y103026D01*
X522066Y103087D01*
X522161Y103144D01*
X522257Y103197D01*
X522356Y103248D01*
X522457Y103295D01*
X522559Y103338D01*
X522662Y103378D01*
X522767Y103414D01*
X522873Y103446D01*
X522980Y103475D01*
X523088Y103500D01*
X523197Y103521D01*
X523306Y103538D01*
X523416Y103552D01*
X523527Y103561D01*
X523637Y103567D01*
X523748Y103569D01*
X523859Y103567D01*
X523969Y103561D01*
X524080Y103552D01*
X524190Y103538D01*
X524299Y103521D01*
X524408Y103500D01*
X524516Y103475D01*
X524623Y103446D01*
X524729Y103414D01*
X524834Y103378D01*
X524937Y103338D01*
X525039Y103295D01*
X525140Y103248D01*
X525239Y103197D01*
X525336Y103144D01*
X525430Y103087D01*
X525523Y103026D01*
X525614Y102963D01*
X525703Y102896D01*
X525789Y102826D01*
X525872Y102753D01*
X525954Y102678D01*
X526032Y102600D01*
X526107Y102518D01*
X526180Y102435D01*
X526250Y102349D01*
X526317Y102260D01*
X526380Y102169D01*
X526441Y102076D01*
X526498Y101982D01*
X526551Y101885D01*
X526602Y101786D01*
X526649Y101685D01*
X526692Y101583D01*
X526732Y101480D01*
X526768Y101375D01*
X526800Y101269D01*
X526829Y101162D01*
X526854Y101054D01*
X526875Y100945D01*
X526892Y100836D01*
X526906Y100726D01*
X526915Y100615D01*
X526921Y100505D01*
X526923Y100394D01*
X526923Y97219D01*
X529463Y108077D02*
X520573Y110617D01*
X529463Y108077D02*
X529463Y114427D01*
X526923Y112522D02*
X532003Y112522D01*
D18*
X711200Y191500D03*
X812800Y191500D03*
X914400Y191500D03*
X711200Y343900D03*
X812800Y343900D03*
X914400Y343900D03*
X812800Y267700D03*
D19*
X449580Y29210D02*
X388620Y29210D01*
X388620Y72390D02*
X449580Y72390D01*
D10*
X449580Y34290D02*
X388620Y34290D01*
X388620Y67310D02*
X449580Y67310D01*
X421640Y58420D02*
X416560Y58420D01*
X421640Y58420D02*
X421640Y43180D01*
X416560Y43180D01*
X416560Y58420D01*
X425450Y58420D02*
X425450Y50800D01*
X425450Y43180D01*
X412750Y50800D02*
X412750Y58420D01*
X412750Y50800D02*
X412750Y43180D01*
X425450Y50800D02*
X431800Y50800D01*
X412750Y50800D02*
X406400Y50800D01*
D19*
X388620Y72390D02*
X388094Y72384D01*
X387569Y72364D01*
X387044Y72332D01*
X386520Y72288D01*
X385998Y72230D01*
X385476Y72160D01*
X384957Y72077D01*
X384440Y71982D01*
X383926Y71873D01*
X383414Y71753D01*
X382905Y71620D01*
X382400Y71475D01*
X381898Y71317D01*
X381401Y71147D01*
X380907Y70965D01*
X380419Y70772D01*
X379935Y70566D01*
X379456Y70349D01*
X378983Y70120D01*
X378515Y69879D01*
X378053Y69628D01*
X377598Y69365D01*
X377149Y69091D01*
X376707Y68806D01*
X376272Y68511D01*
X375845Y68205D01*
X375425Y67888D01*
X375013Y67562D01*
X374608Y67226D01*
X374213Y66880D01*
X373825Y66524D01*
X373447Y66159D01*
X373077Y65785D01*
X372717Y65402D01*
X372366Y65011D01*
X372025Y64611D01*
X371694Y64202D01*
X371372Y63786D01*
X371061Y63362D01*
X370760Y62931D01*
X370470Y62493D01*
X370191Y62047D01*
X369923Y61595D01*
X369665Y61136D01*
X369419Y60672D01*
X369184Y60201D01*
X368961Y59725D01*
X368750Y59244D01*
X368550Y58758D01*
X368362Y58267D01*
X368186Y57771D01*
X368023Y57271D01*
X367871Y56768D01*
X367732Y56261D01*
X367605Y55751D01*
X367491Y55237D01*
X367389Y54722D01*
X367300Y54203D01*
X367223Y53683D01*
X367160Y53161D01*
X367108Y52638D01*
X367070Y52114D01*
X367044Y51589D01*
X367032Y51063D01*
X367032Y50537D01*
X367044Y50011D01*
X367070Y49486D01*
X367108Y48962D01*
X367160Y48439D01*
X367223Y47917D01*
X367300Y47397D01*
X367389Y46878D01*
X367491Y46363D01*
X367605Y45849D01*
X367732Y45339D01*
X367871Y44832D01*
X368023Y44329D01*
X368186Y43829D01*
X368362Y43333D01*
X368550Y42842D01*
X368750Y42356D01*
X368961Y41875D01*
X369184Y41399D01*
X369419Y40928D01*
X369665Y40464D01*
X369923Y40005D01*
X370191Y39553D01*
X370470Y39107D01*
X370760Y38669D01*
X371061Y38238D01*
X371372Y37814D01*
X371694Y37398D01*
X372025Y36989D01*
X372366Y36589D01*
X372717Y36198D01*
X373077Y35815D01*
X373447Y35441D01*
X373825Y35076D01*
X374213Y34720D01*
X374608Y34374D01*
X375013Y34038D01*
X375425Y33712D01*
X375845Y33395D01*
X376272Y33089D01*
X376707Y32794D01*
X377149Y32509D01*
X377598Y32235D01*
X378053Y31972D01*
X378515Y31721D01*
X378983Y31480D01*
X379456Y31251D01*
X379935Y31034D01*
X380419Y30828D01*
X380907Y30635D01*
X381401Y30453D01*
X381898Y30283D01*
X382400Y30125D01*
X382905Y29980D01*
X383414Y29847D01*
X383926Y29727D01*
X384440Y29618D01*
X384957Y29523D01*
X385476Y29440D01*
X385998Y29370D01*
X386520Y29312D01*
X387044Y29268D01*
X387569Y29236D01*
X388094Y29216D01*
X388620Y29210D01*
X449580Y29210D02*
X450106Y29216D01*
X450631Y29236D01*
X451156Y29268D01*
X451680Y29312D01*
X452202Y29370D01*
X452724Y29440D01*
X453243Y29523D01*
X453760Y29618D01*
X454274Y29727D01*
X454786Y29847D01*
X455295Y29980D01*
X455800Y30125D01*
X456302Y30283D01*
X456799Y30453D01*
X457293Y30635D01*
X457781Y30828D01*
X458265Y31034D01*
X458744Y31251D01*
X459217Y31480D01*
X459685Y31721D01*
X460147Y31972D01*
X460602Y32235D01*
X461051Y32509D01*
X461493Y32794D01*
X461928Y33089D01*
X462355Y33395D01*
X462775Y33712D01*
X463187Y34038D01*
X463592Y34374D01*
X463987Y34720D01*
X464375Y35076D01*
X464753Y35441D01*
X465123Y35815D01*
X465483Y36198D01*
X465834Y36589D01*
X466175Y36989D01*
X466506Y37398D01*
X466828Y37814D01*
X467139Y38238D01*
X467440Y38669D01*
X467730Y39107D01*
X468009Y39553D01*
X468277Y40005D01*
X468535Y40464D01*
X468781Y40928D01*
X469016Y41399D01*
X469239Y41875D01*
X469450Y42356D01*
X469650Y42842D01*
X469838Y43333D01*
X470014Y43829D01*
X470177Y44329D01*
X470329Y44832D01*
X470468Y45339D01*
X470595Y45849D01*
X470709Y46363D01*
X470811Y46878D01*
X470900Y47397D01*
X470977Y47917D01*
X471040Y48439D01*
X471092Y48962D01*
X471130Y49486D01*
X471156Y50011D01*
X471168Y50537D01*
X471168Y51063D01*
X471156Y51589D01*
X471130Y52114D01*
X471092Y52638D01*
X471040Y53161D01*
X470977Y53683D01*
X470900Y54203D01*
X470811Y54722D01*
X470709Y55237D01*
X470595Y55751D01*
X470468Y56261D01*
X470329Y56768D01*
X470177Y57271D01*
X470014Y57771D01*
X469838Y58267D01*
X469650Y58758D01*
X469450Y59244D01*
X469239Y59725D01*
X469016Y60201D01*
X468781Y60672D01*
X468535Y61136D01*
X468277Y61595D01*
X468009Y62047D01*
X467730Y62493D01*
X467440Y62931D01*
X467139Y63362D01*
X466828Y63786D01*
X466506Y64202D01*
X466175Y64611D01*
X465834Y65011D01*
X465483Y65402D01*
X465123Y65785D01*
X464753Y66159D01*
X464375Y66524D01*
X463987Y66880D01*
X463592Y67226D01*
X463187Y67562D01*
X462775Y67888D01*
X462355Y68205D01*
X461928Y68511D01*
X461493Y68806D01*
X461051Y69091D01*
X460602Y69365D01*
X460147Y69628D01*
X459685Y69879D01*
X459217Y70120D01*
X458744Y70349D01*
X458265Y70566D01*
X457781Y70772D01*
X457293Y70965D01*
X456799Y71147D01*
X456302Y71317D01*
X455800Y71475D01*
X455295Y71620D01*
X454786Y71753D01*
X454274Y71873D01*
X453760Y71982D01*
X453243Y72077D01*
X452724Y72160D01*
X452202Y72230D01*
X451680Y72288D01*
X451156Y72332D01*
X450631Y72364D01*
X450106Y72384D01*
X449580Y72390D01*
D10*
X388620Y67310D02*
X388218Y67305D01*
X387816Y67290D01*
X387415Y67266D01*
X387014Y67232D01*
X386615Y67188D01*
X386216Y67134D01*
X385819Y67071D01*
X385424Y66998D01*
X385030Y66915D01*
X384639Y66823D01*
X384250Y66721D01*
X383863Y66610D01*
X383480Y66489D01*
X383099Y66360D01*
X382722Y66221D01*
X382348Y66072D01*
X381978Y65915D01*
X381612Y65749D01*
X381250Y65574D01*
X380893Y65390D01*
X380540Y65198D01*
X380192Y64997D01*
X379848Y64787D01*
X379510Y64569D01*
X379178Y64343D01*
X378851Y64109D01*
X378530Y63868D01*
X378214Y63618D01*
X377905Y63361D01*
X377603Y63096D01*
X377306Y62824D01*
X377017Y62545D01*
X376734Y62259D01*
X376459Y61966D01*
X376191Y61667D01*
X375930Y61361D01*
X375676Y61049D01*
X375430Y60731D01*
X375193Y60406D01*
X374963Y60077D01*
X374741Y59741D01*
X374527Y59401D01*
X374322Y59055D01*
X374125Y58704D01*
X373937Y58349D01*
X373757Y57989D01*
X373587Y57625D01*
X373425Y57257D01*
X373272Y56885D01*
X373129Y56510D01*
X372994Y56131D01*
X372869Y55749D01*
X372753Y55364D01*
X372647Y54976D01*
X372550Y54586D01*
X372462Y54193D01*
X372385Y53799D01*
X372316Y53403D01*
X372258Y53005D01*
X372209Y52606D01*
X372170Y52206D01*
X372141Y51805D01*
X372121Y51403D01*
X372111Y51001D01*
X372111Y50599D01*
X372121Y50197D01*
X372141Y49795D01*
X372170Y49394D01*
X372209Y48994D01*
X372258Y48595D01*
X372316Y48197D01*
X372385Y47801D01*
X372462Y47407D01*
X372550Y47014D01*
X372647Y46624D01*
X372753Y46236D01*
X372869Y45851D01*
X372994Y45469D01*
X373129Y45090D01*
X373272Y44715D01*
X373425Y44343D01*
X373587Y43975D01*
X373757Y43611D01*
X373937Y43251D01*
X374125Y42896D01*
X374322Y42545D01*
X374527Y42199D01*
X374741Y41859D01*
X374963Y41523D01*
X375193Y41194D01*
X375430Y40869D01*
X375676Y40551D01*
X375930Y40239D01*
X376191Y39933D01*
X376459Y39634D01*
X376734Y39341D01*
X377017Y39055D01*
X377306Y38776D01*
X377603Y38504D01*
X377905Y38239D01*
X378214Y37982D01*
X378530Y37732D01*
X378851Y37491D01*
X379178Y37257D01*
X379510Y37031D01*
X379848Y36813D01*
X380192Y36603D01*
X380540Y36402D01*
X380893Y36210D01*
X381250Y36026D01*
X381612Y35851D01*
X381978Y35685D01*
X382348Y35528D01*
X382722Y35379D01*
X383099Y35240D01*
X383480Y35111D01*
X383863Y34990D01*
X384250Y34879D01*
X384639Y34777D01*
X385030Y34685D01*
X385424Y34602D01*
X385819Y34529D01*
X386216Y34466D01*
X386615Y34412D01*
X387014Y34368D01*
X387415Y34334D01*
X387816Y34310D01*
X388218Y34295D01*
X388620Y34290D01*
X449580Y34290D02*
X449982Y34295D01*
X450384Y34310D01*
X450785Y34334D01*
X451186Y34368D01*
X451585Y34412D01*
X451984Y34466D01*
X452381Y34529D01*
X452776Y34602D01*
X453170Y34685D01*
X453561Y34777D01*
X453950Y34879D01*
X454337Y34990D01*
X454720Y35111D01*
X455101Y35240D01*
X455478Y35379D01*
X455852Y35528D01*
X456222Y35685D01*
X456588Y35851D01*
X456950Y36026D01*
X457307Y36210D01*
X457660Y36402D01*
X458008Y36603D01*
X458352Y36813D01*
X458690Y37031D01*
X459022Y37257D01*
X459349Y37491D01*
X459670Y37732D01*
X459986Y37982D01*
X460295Y38239D01*
X460597Y38504D01*
X460894Y38776D01*
X461183Y39055D01*
X461466Y39341D01*
X461741Y39634D01*
X462009Y39933D01*
X462270Y40239D01*
X462524Y40551D01*
X462770Y40869D01*
X463007Y41194D01*
X463237Y41523D01*
X463459Y41859D01*
X463673Y42199D01*
X463878Y42545D01*
X464075Y42896D01*
X464263Y43251D01*
X464443Y43611D01*
X464613Y43975D01*
X464775Y44343D01*
X464928Y44715D01*
X465071Y45090D01*
X465206Y45469D01*
X465331Y45851D01*
X465447Y46236D01*
X465553Y46624D01*
X465650Y47014D01*
X465738Y47407D01*
X465815Y47801D01*
X465884Y48197D01*
X465942Y48595D01*
X465991Y48994D01*
X466030Y49394D01*
X466059Y49795D01*
X466079Y50197D01*
X466089Y50599D01*
X466089Y51001D01*
X466079Y51403D01*
X466059Y51805D01*
X466030Y52206D01*
X465991Y52606D01*
X465942Y53005D01*
X465884Y53403D01*
X465815Y53799D01*
X465738Y54193D01*
X465650Y54586D01*
X465553Y54976D01*
X465447Y55364D01*
X465331Y55749D01*
X465206Y56131D01*
X465071Y56510D01*
X464928Y56885D01*
X464775Y57257D01*
X464613Y57625D01*
X464443Y57989D01*
X464263Y58349D01*
X464075Y58704D01*
X463878Y59055D01*
X463673Y59401D01*
X463459Y59741D01*
X463237Y60077D01*
X463007Y60406D01*
X462770Y60731D01*
X462524Y61049D01*
X462270Y61361D01*
X462009Y61667D01*
X461741Y61966D01*
X461466Y62259D01*
X461183Y62545D01*
X460894Y62824D01*
X460597Y63096D01*
X460295Y63361D01*
X459986Y63618D01*
X459670Y63868D01*
X459349Y64109D01*
X459022Y64343D01*
X458690Y64569D01*
X458352Y64787D01*
X458008Y64997D01*
X457660Y65198D01*
X457307Y65390D01*
X456950Y65574D01*
X456588Y65749D01*
X456222Y65915D01*
X455852Y66072D01*
X455478Y66221D01*
X455101Y66360D01*
X454720Y66489D01*
X454337Y66610D01*
X453950Y66721D01*
X453561Y66823D01*
X453170Y66915D01*
X452776Y66998D01*
X452381Y67071D01*
X451984Y67134D01*
X451585Y67188D01*
X451186Y67232D01*
X450785Y67266D01*
X450384Y67290D01*
X449982Y67305D01*
X449580Y67310D01*
D17*
X473004Y424801D02*
X470408Y428046D01*
X482092Y428046D01*
X482092Y424801D02*
X482092Y431292D01*
M02*
