G04 EAGLE Gerber RS-274X export*
G75*
%MOMM*%
%FSLAX34Y34*%
%LPD*%
%INSilkscreen Top*%
%IPPOS*%
%AMOC8*
5,1,8,0,0,1.08239X$1,22.5*%
G01*
%ADD10C,0.150000*%
%ADD11C,0.500000*%
%ADD12C,0.076200*%
%ADD13C,0.101600*%
%ADD14C,0.200000*%
%ADD15C,0.400000*%
%ADD16C,0.127000*%
%ADD17C,0.152400*%
%ADD18R,0.200000X0.200000*%
%ADD19C,0.406400*%


D10*
X217200Y186600D02*
X174700Y186600D01*
X104700Y186600D02*
X62200Y186600D01*
X62200Y397600D02*
X104700Y397600D01*
X174700Y397600D02*
X217200Y397600D01*
X62200Y237100D02*
X62200Y186600D01*
X62200Y347100D02*
X62200Y397600D01*
X217200Y237100D02*
X217200Y186600D01*
X217200Y347100D02*
X217200Y397600D01*
D11*
X40950Y292100D03*
D12*
X36187Y163547D02*
X36187Y160981D01*
X36187Y163547D02*
X36189Y163646D01*
X36195Y163746D01*
X36204Y163845D01*
X36218Y163943D01*
X36235Y164041D01*
X36256Y164139D01*
X36281Y164235D01*
X36310Y164330D01*
X36342Y164425D01*
X36378Y164517D01*
X36417Y164609D01*
X36460Y164699D01*
X36506Y164787D01*
X36556Y164873D01*
X36609Y164957D01*
X36665Y165039D01*
X36725Y165119D01*
X36787Y165196D01*
X36853Y165271D01*
X36921Y165344D01*
X36992Y165413D01*
X37066Y165480D01*
X37142Y165544D01*
X37221Y165605D01*
X37302Y165663D01*
X37385Y165718D01*
X37470Y165769D01*
X37557Y165817D01*
X37646Y165862D01*
X37737Y165903D01*
X37829Y165941D01*
X37922Y165975D01*
X38017Y166005D01*
X38113Y166032D01*
X38210Y166055D01*
X38307Y166074D01*
X38406Y166089D01*
X38505Y166101D01*
X38604Y166109D01*
X38703Y166113D01*
X38803Y166113D01*
X38902Y166109D01*
X39001Y166101D01*
X39100Y166089D01*
X39199Y166074D01*
X39296Y166055D01*
X39393Y166032D01*
X39489Y166005D01*
X39584Y165975D01*
X39677Y165941D01*
X39769Y165903D01*
X39860Y165862D01*
X39949Y165817D01*
X40036Y165769D01*
X40121Y165718D01*
X40204Y165663D01*
X40285Y165605D01*
X40364Y165544D01*
X40440Y165480D01*
X40514Y165413D01*
X40585Y165344D01*
X40653Y165271D01*
X40719Y165196D01*
X40781Y165119D01*
X40841Y165039D01*
X40897Y164957D01*
X40950Y164873D01*
X41000Y164787D01*
X41046Y164699D01*
X41089Y164609D01*
X41128Y164517D01*
X41164Y164425D01*
X41196Y164330D01*
X41225Y164235D01*
X41250Y164139D01*
X41271Y164041D01*
X41288Y163943D01*
X41302Y163845D01*
X41311Y163746D01*
X41317Y163646D01*
X41319Y163547D01*
X41319Y160981D01*
X32081Y160981D01*
X32081Y163547D01*
X32083Y163637D01*
X32089Y163726D01*
X32099Y163815D01*
X32112Y163903D01*
X32130Y163991D01*
X32151Y164078D01*
X32176Y164164D01*
X32205Y164249D01*
X32237Y164333D01*
X32273Y164415D01*
X32313Y164495D01*
X32356Y164574D01*
X32403Y164650D01*
X32452Y164725D01*
X32505Y164797D01*
X32561Y164867D01*
X32620Y164934D01*
X32682Y164999D01*
X32747Y165061D01*
X32814Y165120D01*
X32884Y165176D01*
X32956Y165229D01*
X33031Y165278D01*
X33108Y165325D01*
X33186Y165368D01*
X33266Y165408D01*
X33348Y165444D01*
X33432Y165476D01*
X33517Y165505D01*
X33603Y165530D01*
X33690Y165551D01*
X33778Y165569D01*
X33866Y165582D01*
X33955Y165592D01*
X34044Y165598D01*
X34134Y165600D01*
X34224Y165598D01*
X34313Y165592D01*
X34402Y165582D01*
X34490Y165569D01*
X34578Y165551D01*
X34665Y165530D01*
X34751Y165505D01*
X34836Y165476D01*
X34920Y165444D01*
X35002Y165408D01*
X35082Y165368D01*
X35161Y165325D01*
X35237Y165278D01*
X35312Y165229D01*
X35384Y165176D01*
X35454Y165120D01*
X35521Y165061D01*
X35586Y164999D01*
X35648Y164934D01*
X35707Y164867D01*
X35763Y164797D01*
X35816Y164725D01*
X35865Y164650D01*
X35912Y164574D01*
X35955Y164495D01*
X35995Y164415D01*
X36031Y164333D01*
X36063Y164249D01*
X36092Y164164D01*
X36117Y164078D01*
X36138Y163991D01*
X36156Y163903D01*
X36169Y163815D01*
X36179Y163726D01*
X36185Y163637D01*
X36187Y163547D01*
X32081Y171517D02*
X41319Y171517D01*
X32081Y168951D02*
X32081Y174083D01*
X34134Y177351D02*
X32081Y179917D01*
X41319Y179917D01*
X41319Y177351D02*
X41319Y182483D01*
D13*
X405139Y89408D02*
X407736Y89408D01*
X405139Y89408D02*
X405040Y89410D01*
X404940Y89416D01*
X404841Y89425D01*
X404743Y89438D01*
X404645Y89455D01*
X404547Y89476D01*
X404451Y89501D01*
X404356Y89529D01*
X404262Y89561D01*
X404169Y89596D01*
X404077Y89635D01*
X403987Y89678D01*
X403899Y89723D01*
X403812Y89773D01*
X403728Y89825D01*
X403645Y89881D01*
X403565Y89939D01*
X403487Y90001D01*
X403412Y90066D01*
X403339Y90134D01*
X403269Y90204D01*
X403201Y90277D01*
X403136Y90352D01*
X403074Y90430D01*
X403016Y90510D01*
X402960Y90593D01*
X402908Y90677D01*
X402858Y90764D01*
X402813Y90852D01*
X402770Y90942D01*
X402731Y91034D01*
X402696Y91127D01*
X402664Y91221D01*
X402636Y91316D01*
X402611Y91412D01*
X402590Y91510D01*
X402573Y91608D01*
X402560Y91706D01*
X402551Y91805D01*
X402545Y91905D01*
X402543Y92004D01*
X402543Y98496D01*
X402545Y98595D01*
X402551Y98695D01*
X402560Y98794D01*
X402573Y98892D01*
X402590Y98990D01*
X402611Y99088D01*
X402636Y99184D01*
X402664Y99279D01*
X402696Y99373D01*
X402731Y99466D01*
X402770Y99558D01*
X402813Y99648D01*
X402858Y99736D01*
X402908Y99823D01*
X402960Y99907D01*
X403016Y99990D01*
X403074Y100070D01*
X403136Y100148D01*
X403201Y100223D01*
X403269Y100296D01*
X403339Y100366D01*
X403412Y100434D01*
X403487Y100499D01*
X403565Y100561D01*
X403645Y100619D01*
X403728Y100675D01*
X403812Y100727D01*
X403899Y100777D01*
X403987Y100822D01*
X404077Y100865D01*
X404169Y100904D01*
X404261Y100939D01*
X404356Y100971D01*
X404451Y100999D01*
X404547Y101024D01*
X404645Y101045D01*
X404743Y101062D01*
X404841Y101075D01*
X404940Y101084D01*
X405040Y101090D01*
X405139Y101092D01*
X407736Y101092D01*
X412101Y98496D02*
X415346Y101092D01*
X415346Y89408D01*
X412101Y89408D02*
X418592Y89408D01*
X447604Y127508D02*
X450201Y127508D01*
X447604Y127508D02*
X447505Y127510D01*
X447405Y127516D01*
X447306Y127525D01*
X447208Y127538D01*
X447110Y127555D01*
X447012Y127576D01*
X446916Y127601D01*
X446821Y127629D01*
X446727Y127661D01*
X446634Y127696D01*
X446542Y127735D01*
X446452Y127778D01*
X446364Y127823D01*
X446277Y127873D01*
X446193Y127925D01*
X446110Y127981D01*
X446030Y128039D01*
X445952Y128101D01*
X445877Y128166D01*
X445804Y128234D01*
X445734Y128304D01*
X445666Y128377D01*
X445601Y128452D01*
X445539Y128530D01*
X445481Y128610D01*
X445425Y128693D01*
X445373Y128777D01*
X445323Y128864D01*
X445278Y128952D01*
X445235Y129042D01*
X445196Y129134D01*
X445161Y129227D01*
X445129Y129321D01*
X445101Y129416D01*
X445076Y129512D01*
X445055Y129610D01*
X445038Y129708D01*
X445025Y129806D01*
X445016Y129905D01*
X445010Y130005D01*
X445008Y130104D01*
X445008Y136596D01*
X445010Y136695D01*
X445016Y136795D01*
X445025Y136894D01*
X445038Y136992D01*
X445055Y137090D01*
X445076Y137188D01*
X445101Y137284D01*
X445129Y137379D01*
X445161Y137473D01*
X445196Y137566D01*
X445235Y137658D01*
X445278Y137748D01*
X445323Y137836D01*
X445373Y137923D01*
X445425Y138007D01*
X445481Y138090D01*
X445539Y138170D01*
X445601Y138248D01*
X445666Y138323D01*
X445734Y138396D01*
X445804Y138466D01*
X445877Y138534D01*
X445952Y138599D01*
X446030Y138661D01*
X446110Y138719D01*
X446193Y138775D01*
X446277Y138827D01*
X446364Y138877D01*
X446452Y138922D01*
X446542Y138965D01*
X446634Y139004D01*
X446726Y139039D01*
X446821Y139071D01*
X446916Y139099D01*
X447012Y139124D01*
X447110Y139145D01*
X447208Y139162D01*
X447306Y139175D01*
X447405Y139184D01*
X447505Y139190D01*
X447604Y139192D01*
X450201Y139192D01*
X458136Y139192D02*
X458243Y139190D01*
X458349Y139184D01*
X458455Y139174D01*
X458561Y139161D01*
X458667Y139143D01*
X458771Y139122D01*
X458875Y139097D01*
X458978Y139068D01*
X459079Y139036D01*
X459179Y138999D01*
X459278Y138959D01*
X459376Y138916D01*
X459472Y138869D01*
X459566Y138818D01*
X459658Y138764D01*
X459748Y138707D01*
X459836Y138647D01*
X459921Y138583D01*
X460004Y138516D01*
X460085Y138446D01*
X460163Y138374D01*
X460239Y138298D01*
X460311Y138220D01*
X460381Y138139D01*
X460448Y138056D01*
X460512Y137971D01*
X460572Y137883D01*
X460629Y137793D01*
X460683Y137701D01*
X460734Y137607D01*
X460781Y137511D01*
X460824Y137413D01*
X460864Y137314D01*
X460901Y137214D01*
X460933Y137113D01*
X460962Y137010D01*
X460987Y136906D01*
X461008Y136802D01*
X461026Y136696D01*
X461039Y136590D01*
X461049Y136484D01*
X461055Y136378D01*
X461057Y136271D01*
X458136Y139192D02*
X458015Y139190D01*
X457894Y139184D01*
X457774Y139174D01*
X457653Y139161D01*
X457534Y139143D01*
X457414Y139122D01*
X457296Y139097D01*
X457179Y139068D01*
X457062Y139035D01*
X456947Y138999D01*
X456833Y138958D01*
X456720Y138915D01*
X456608Y138867D01*
X456499Y138816D01*
X456391Y138761D01*
X456284Y138703D01*
X456180Y138642D01*
X456078Y138577D01*
X455978Y138509D01*
X455880Y138438D01*
X455784Y138364D01*
X455691Y138287D01*
X455601Y138206D01*
X455513Y138123D01*
X455428Y138037D01*
X455345Y137948D01*
X455266Y137857D01*
X455189Y137763D01*
X455116Y137667D01*
X455046Y137569D01*
X454979Y137468D01*
X454915Y137365D01*
X454855Y137260D01*
X454798Y137153D01*
X454744Y137045D01*
X454694Y136935D01*
X454648Y136823D01*
X454605Y136710D01*
X454566Y136595D01*
X460084Y133999D02*
X460163Y134076D01*
X460239Y134157D01*
X460312Y134240D01*
X460382Y134325D01*
X460449Y134413D01*
X460513Y134503D01*
X460573Y134595D01*
X460630Y134690D01*
X460684Y134786D01*
X460735Y134884D01*
X460782Y134984D01*
X460826Y135086D01*
X460866Y135189D01*
X460902Y135293D01*
X460934Y135399D01*
X460963Y135505D01*
X460988Y135613D01*
X461010Y135721D01*
X461027Y135831D01*
X461041Y135940D01*
X461050Y136050D01*
X461056Y136161D01*
X461058Y136271D01*
X460084Y133999D02*
X454566Y127508D01*
X461057Y127508D01*
D14*
X476500Y247400D02*
X539500Y247400D01*
X539500Y184400D01*
X476500Y184400D01*
X476500Y247400D01*
D15*
X460000Y255900D02*
X460002Y255989D01*
X460008Y256078D01*
X460018Y256167D01*
X460032Y256255D01*
X460049Y256342D01*
X460071Y256428D01*
X460097Y256514D01*
X460126Y256598D01*
X460159Y256681D01*
X460195Y256762D01*
X460236Y256842D01*
X460279Y256919D01*
X460326Y256995D01*
X460377Y257068D01*
X460430Y257139D01*
X460487Y257208D01*
X460547Y257274D01*
X460610Y257338D01*
X460675Y257398D01*
X460743Y257456D01*
X460814Y257510D01*
X460887Y257561D01*
X460962Y257609D01*
X461039Y257654D01*
X461118Y257695D01*
X461199Y257732D01*
X461281Y257766D01*
X461365Y257797D01*
X461450Y257823D01*
X461536Y257846D01*
X461623Y257864D01*
X461711Y257879D01*
X461800Y257890D01*
X461889Y257897D01*
X461978Y257900D01*
X462067Y257899D01*
X462156Y257894D01*
X462244Y257885D01*
X462333Y257872D01*
X462420Y257855D01*
X462507Y257835D01*
X462593Y257810D01*
X462677Y257782D01*
X462760Y257750D01*
X462842Y257714D01*
X462922Y257675D01*
X463000Y257632D01*
X463076Y257586D01*
X463150Y257536D01*
X463222Y257483D01*
X463291Y257427D01*
X463358Y257368D01*
X463422Y257306D01*
X463483Y257242D01*
X463542Y257174D01*
X463597Y257104D01*
X463649Y257032D01*
X463698Y256957D01*
X463743Y256881D01*
X463785Y256802D01*
X463823Y256722D01*
X463858Y256640D01*
X463889Y256556D01*
X463917Y256471D01*
X463940Y256385D01*
X463960Y256298D01*
X463976Y256211D01*
X463988Y256122D01*
X463996Y256034D01*
X464000Y255945D01*
X464000Y255855D01*
X463996Y255766D01*
X463988Y255678D01*
X463976Y255589D01*
X463960Y255502D01*
X463940Y255415D01*
X463917Y255329D01*
X463889Y255244D01*
X463858Y255160D01*
X463823Y255078D01*
X463785Y254998D01*
X463743Y254919D01*
X463698Y254843D01*
X463649Y254768D01*
X463597Y254696D01*
X463542Y254626D01*
X463483Y254558D01*
X463422Y254494D01*
X463358Y254432D01*
X463291Y254373D01*
X463222Y254317D01*
X463150Y254264D01*
X463076Y254214D01*
X463000Y254168D01*
X462922Y254125D01*
X462842Y254086D01*
X462760Y254050D01*
X462677Y254018D01*
X462593Y253990D01*
X462507Y253965D01*
X462420Y253945D01*
X462333Y253928D01*
X462244Y253915D01*
X462156Y253906D01*
X462067Y253901D01*
X461978Y253900D01*
X461889Y253903D01*
X461800Y253910D01*
X461711Y253921D01*
X461623Y253936D01*
X461536Y253954D01*
X461450Y253977D01*
X461365Y254003D01*
X461281Y254034D01*
X461199Y254068D01*
X461118Y254105D01*
X461039Y254146D01*
X460962Y254191D01*
X460887Y254239D01*
X460814Y254290D01*
X460743Y254344D01*
X460675Y254402D01*
X460610Y254462D01*
X460547Y254526D01*
X460487Y254592D01*
X460430Y254661D01*
X460377Y254732D01*
X460326Y254805D01*
X460279Y254881D01*
X460236Y254958D01*
X460195Y255038D01*
X460159Y255119D01*
X460126Y255202D01*
X460097Y255286D01*
X460071Y255372D01*
X460049Y255458D01*
X460032Y255545D01*
X460018Y255633D01*
X460008Y255722D01*
X460002Y255811D01*
X460000Y255900D01*
D16*
X299720Y266700D02*
X292100Y274320D01*
X292100Y309880D01*
X299720Y317500D01*
X312420Y317500D01*
X317500Y312420D01*
X322580Y317500D01*
X337820Y317500D01*
X342900Y312420D01*
X347980Y317500D01*
X360680Y317500D01*
X368300Y309880D01*
X368300Y274320D01*
X360680Y266700D01*
X347980Y266700D01*
X342900Y271780D01*
X337820Y266700D01*
X322580Y266700D01*
X317500Y271780D01*
X312420Y266700D01*
X299720Y266700D01*
D12*
X286949Y262001D02*
X284861Y264612D01*
X294259Y264612D01*
X294259Y267222D02*
X294259Y262001D01*
D13*
X325685Y261112D02*
X325685Y249428D01*
X326983Y249428D02*
X324386Y249428D01*
X324386Y261112D02*
X326983Y261112D01*
X337693Y252024D02*
X337691Y251925D01*
X337685Y251825D01*
X337676Y251726D01*
X337663Y251628D01*
X337646Y251530D01*
X337625Y251432D01*
X337600Y251336D01*
X337572Y251241D01*
X337540Y251147D01*
X337505Y251054D01*
X337466Y250962D01*
X337423Y250872D01*
X337378Y250784D01*
X337328Y250697D01*
X337276Y250613D01*
X337220Y250530D01*
X337162Y250450D01*
X337100Y250372D01*
X337035Y250297D01*
X336967Y250224D01*
X336897Y250154D01*
X336824Y250086D01*
X336749Y250021D01*
X336671Y249959D01*
X336591Y249901D01*
X336508Y249845D01*
X336424Y249793D01*
X336337Y249743D01*
X336249Y249698D01*
X336159Y249655D01*
X336067Y249616D01*
X335974Y249581D01*
X335880Y249549D01*
X335785Y249521D01*
X335689Y249496D01*
X335591Y249475D01*
X335493Y249458D01*
X335395Y249445D01*
X335296Y249436D01*
X335196Y249430D01*
X335097Y249428D01*
X334953Y249430D01*
X334808Y249436D01*
X334664Y249445D01*
X334521Y249458D01*
X334377Y249475D01*
X334234Y249496D01*
X334092Y249521D01*
X333951Y249549D01*
X333810Y249581D01*
X333670Y249617D01*
X333531Y249656D01*
X333393Y249699D01*
X333257Y249746D01*
X333121Y249796D01*
X332987Y249850D01*
X332855Y249907D01*
X332724Y249968D01*
X332595Y250032D01*
X332467Y250100D01*
X332341Y250170D01*
X332217Y250245D01*
X332096Y250322D01*
X331976Y250403D01*
X331858Y250486D01*
X331743Y250573D01*
X331630Y250663D01*
X331519Y250756D01*
X331411Y250851D01*
X331305Y250950D01*
X331202Y251051D01*
X331527Y258516D02*
X331529Y258615D01*
X331535Y258715D01*
X331544Y258814D01*
X331557Y258912D01*
X331574Y259010D01*
X331595Y259108D01*
X331620Y259204D01*
X331648Y259299D01*
X331680Y259393D01*
X331715Y259486D01*
X331754Y259578D01*
X331797Y259668D01*
X331842Y259756D01*
X331892Y259843D01*
X331944Y259927D01*
X332000Y260010D01*
X332058Y260090D01*
X332120Y260168D01*
X332185Y260243D01*
X332253Y260316D01*
X332323Y260386D01*
X332396Y260454D01*
X332471Y260519D01*
X332549Y260581D01*
X332629Y260639D01*
X332712Y260695D01*
X332796Y260747D01*
X332883Y260797D01*
X332971Y260842D01*
X333061Y260885D01*
X333153Y260924D01*
X333246Y260959D01*
X333340Y260991D01*
X333435Y261019D01*
X333532Y261044D01*
X333629Y261065D01*
X333727Y261082D01*
X333825Y261095D01*
X333924Y261104D01*
X334024Y261110D01*
X334123Y261112D01*
X334259Y261110D01*
X334395Y261104D01*
X334531Y261095D01*
X334667Y261082D01*
X334802Y261064D01*
X334936Y261044D01*
X335070Y261019D01*
X335204Y260991D01*
X335336Y260958D01*
X335467Y260923D01*
X335598Y260883D01*
X335727Y260840D01*
X335855Y260794D01*
X335981Y260743D01*
X336107Y260690D01*
X336230Y260632D01*
X336352Y260572D01*
X336472Y260508D01*
X336591Y260440D01*
X336707Y260370D01*
X336821Y260296D01*
X336934Y260219D01*
X337044Y260138D01*
X332824Y256244D02*
X332738Y256297D01*
X332654Y256354D01*
X332572Y256413D01*
X332492Y256476D01*
X332415Y256542D01*
X332340Y256610D01*
X332268Y256682D01*
X332199Y256756D01*
X332133Y256833D01*
X332070Y256912D01*
X332010Y256994D01*
X331953Y257078D01*
X331899Y257164D01*
X331849Y257252D01*
X331802Y257342D01*
X331758Y257433D01*
X331719Y257527D01*
X331682Y257621D01*
X331650Y257717D01*
X331621Y257815D01*
X331596Y257913D01*
X331575Y258012D01*
X331557Y258112D01*
X331544Y258212D01*
X331534Y258313D01*
X331528Y258415D01*
X331526Y258516D01*
X336395Y254296D02*
X336481Y254243D01*
X336565Y254186D01*
X336647Y254127D01*
X336727Y254064D01*
X336804Y253998D01*
X336879Y253930D01*
X336951Y253858D01*
X337020Y253784D01*
X337086Y253707D01*
X337149Y253628D01*
X337209Y253546D01*
X337266Y253462D01*
X337320Y253376D01*
X337370Y253288D01*
X337417Y253198D01*
X337461Y253107D01*
X337500Y253013D01*
X337537Y252919D01*
X337569Y252823D01*
X337598Y252725D01*
X337623Y252627D01*
X337644Y252528D01*
X337662Y252428D01*
X337675Y252328D01*
X337685Y252227D01*
X337691Y252125D01*
X337693Y252024D01*
X336395Y254296D02*
X332825Y256244D01*
X342801Y261112D02*
X342801Y249428D01*
X342801Y261112D02*
X346047Y261112D01*
X346160Y261110D01*
X346273Y261104D01*
X346386Y261094D01*
X346499Y261080D01*
X346611Y261063D01*
X346722Y261041D01*
X346832Y261016D01*
X346942Y260986D01*
X347050Y260953D01*
X347157Y260916D01*
X347263Y260876D01*
X347367Y260831D01*
X347470Y260783D01*
X347571Y260732D01*
X347670Y260677D01*
X347767Y260619D01*
X347862Y260557D01*
X347955Y260492D01*
X348045Y260424D01*
X348133Y260353D01*
X348219Y260278D01*
X348302Y260201D01*
X348382Y260121D01*
X348459Y260038D01*
X348534Y259952D01*
X348605Y259864D01*
X348673Y259774D01*
X348738Y259681D01*
X348800Y259586D01*
X348858Y259489D01*
X348913Y259390D01*
X348964Y259289D01*
X349012Y259186D01*
X349057Y259082D01*
X349097Y258976D01*
X349134Y258869D01*
X349167Y258761D01*
X349197Y258651D01*
X349222Y258541D01*
X349244Y258430D01*
X349261Y258318D01*
X349275Y258205D01*
X349285Y258092D01*
X349291Y257979D01*
X349293Y257866D01*
X349291Y257753D01*
X349285Y257640D01*
X349275Y257527D01*
X349261Y257414D01*
X349244Y257302D01*
X349222Y257191D01*
X349197Y257081D01*
X349167Y256971D01*
X349134Y256863D01*
X349097Y256756D01*
X349057Y256650D01*
X349012Y256546D01*
X348964Y256443D01*
X348913Y256342D01*
X348858Y256243D01*
X348800Y256146D01*
X348738Y256051D01*
X348673Y255958D01*
X348605Y255868D01*
X348534Y255780D01*
X348459Y255694D01*
X348382Y255611D01*
X348302Y255531D01*
X348219Y255454D01*
X348133Y255379D01*
X348045Y255308D01*
X347955Y255240D01*
X347862Y255175D01*
X347767Y255113D01*
X347670Y255055D01*
X347571Y255000D01*
X347470Y254949D01*
X347367Y254901D01*
X347263Y254856D01*
X347157Y254816D01*
X347050Y254779D01*
X346942Y254746D01*
X346832Y254716D01*
X346722Y254691D01*
X346611Y254669D01*
X346499Y254652D01*
X346386Y254638D01*
X346273Y254628D01*
X346160Y254622D01*
X346047Y254620D01*
X346047Y254621D02*
X342801Y254621D01*
X353681Y258516D02*
X356926Y261112D01*
X356926Y249428D01*
X353681Y249428D02*
X360172Y249428D01*
D16*
X268276Y145415D02*
X268276Y136525D01*
X268274Y136425D01*
X268268Y136326D01*
X268258Y136226D01*
X268245Y136128D01*
X268227Y136029D01*
X268206Y135932D01*
X268181Y135836D01*
X268152Y135740D01*
X268119Y135646D01*
X268083Y135553D01*
X268043Y135462D01*
X267999Y135372D01*
X267952Y135284D01*
X267902Y135198D01*
X267848Y135114D01*
X267791Y135032D01*
X267731Y134953D01*
X267667Y134875D01*
X267601Y134801D01*
X267532Y134729D01*
X267460Y134660D01*
X267386Y134594D01*
X267308Y134530D01*
X267229Y134470D01*
X267147Y134413D01*
X267063Y134359D01*
X266977Y134309D01*
X266889Y134262D01*
X266799Y134218D01*
X266708Y134178D01*
X266615Y134142D01*
X266521Y134109D01*
X266425Y134080D01*
X266329Y134055D01*
X266232Y134034D01*
X266133Y134016D01*
X266035Y134003D01*
X265935Y133993D01*
X265836Y133987D01*
X265736Y133985D01*
X264466Y133985D01*
X274257Y133985D02*
X274257Y145415D01*
X277432Y145415D01*
X277543Y145413D01*
X277653Y145407D01*
X277764Y145398D01*
X277874Y145384D01*
X277983Y145367D01*
X278092Y145346D01*
X278200Y145321D01*
X278307Y145292D01*
X278413Y145260D01*
X278518Y145224D01*
X278621Y145184D01*
X278723Y145141D01*
X278824Y145094D01*
X278923Y145043D01*
X279020Y144990D01*
X279114Y144933D01*
X279207Y144872D01*
X279298Y144809D01*
X279387Y144742D01*
X279473Y144672D01*
X279556Y144599D01*
X279638Y144524D01*
X279716Y144446D01*
X279791Y144364D01*
X279864Y144281D01*
X279934Y144195D01*
X280001Y144106D01*
X280064Y144015D01*
X280125Y143922D01*
X280182Y143827D01*
X280235Y143731D01*
X280286Y143632D01*
X280333Y143531D01*
X280376Y143429D01*
X280416Y143326D01*
X280452Y143221D01*
X280484Y143115D01*
X280513Y143008D01*
X280538Y142900D01*
X280559Y142791D01*
X280576Y142682D01*
X280590Y142572D01*
X280599Y142461D01*
X280605Y142351D01*
X280607Y142240D01*
X280605Y142129D01*
X280599Y142019D01*
X280590Y141908D01*
X280576Y141798D01*
X280559Y141689D01*
X280538Y141580D01*
X280513Y141472D01*
X280484Y141365D01*
X280452Y141259D01*
X280416Y141154D01*
X280376Y141051D01*
X280333Y140949D01*
X280286Y140848D01*
X280235Y140749D01*
X280182Y140652D01*
X280125Y140558D01*
X280064Y140465D01*
X280001Y140374D01*
X279934Y140285D01*
X279864Y140199D01*
X279791Y140116D01*
X279716Y140034D01*
X279638Y139956D01*
X279556Y139881D01*
X279473Y139808D01*
X279387Y139738D01*
X279298Y139671D01*
X279207Y139608D01*
X279114Y139547D01*
X279020Y139490D01*
X278923Y139437D01*
X278824Y139386D01*
X278723Y139339D01*
X278621Y139296D01*
X278518Y139256D01*
X278413Y139220D01*
X278307Y139188D01*
X278200Y139159D01*
X278092Y139134D01*
X277983Y139113D01*
X277874Y139096D01*
X277764Y139082D01*
X277653Y139073D01*
X277543Y139067D01*
X277432Y139065D01*
X274257Y139065D01*
X285115Y142875D02*
X288290Y145415D01*
X288290Y133985D01*
X285115Y133985D02*
X291465Y133985D01*
D17*
X127000Y95250D02*
X127000Y82550D01*
X127000Y95250D02*
X133350Y101600D01*
X146050Y101600D01*
X152400Y95250D01*
X146050Y76200D02*
X133350Y76200D01*
X127000Y82550D01*
X146050Y76200D02*
X152400Y82550D01*
X152400Y95250D01*
X133350Y101600D02*
X127000Y107950D01*
X127000Y120650D01*
X133350Y127000D01*
X146050Y127000D01*
X152400Y120650D01*
X152400Y107950D01*
X146050Y101600D01*
D16*
X118237Y79883D02*
X109347Y79883D01*
X118237Y79883D02*
X118337Y79881D01*
X118436Y79875D01*
X118536Y79865D01*
X118634Y79852D01*
X118733Y79834D01*
X118830Y79813D01*
X118926Y79788D01*
X119022Y79759D01*
X119116Y79726D01*
X119209Y79690D01*
X119300Y79650D01*
X119390Y79606D01*
X119478Y79559D01*
X119564Y79509D01*
X119648Y79455D01*
X119730Y79398D01*
X119809Y79338D01*
X119887Y79274D01*
X119961Y79208D01*
X120033Y79139D01*
X120102Y79067D01*
X120168Y78993D01*
X120232Y78915D01*
X120292Y78836D01*
X120349Y78754D01*
X120403Y78670D01*
X120453Y78584D01*
X120500Y78496D01*
X120544Y78406D01*
X120584Y78315D01*
X120620Y78222D01*
X120653Y78128D01*
X120682Y78032D01*
X120707Y77936D01*
X120728Y77839D01*
X120746Y77740D01*
X120759Y77642D01*
X120769Y77542D01*
X120775Y77443D01*
X120777Y77343D01*
X120777Y76073D01*
X120777Y85863D02*
X109347Y85863D01*
X109347Y89038D01*
X109349Y89149D01*
X109355Y89259D01*
X109364Y89370D01*
X109378Y89480D01*
X109395Y89589D01*
X109416Y89698D01*
X109441Y89806D01*
X109470Y89913D01*
X109502Y90019D01*
X109538Y90124D01*
X109578Y90227D01*
X109621Y90329D01*
X109668Y90430D01*
X109719Y90529D01*
X109772Y90625D01*
X109829Y90720D01*
X109890Y90813D01*
X109953Y90904D01*
X110020Y90993D01*
X110090Y91079D01*
X110163Y91162D01*
X110238Y91244D01*
X110316Y91322D01*
X110398Y91397D01*
X110481Y91470D01*
X110567Y91540D01*
X110656Y91607D01*
X110747Y91670D01*
X110840Y91731D01*
X110935Y91788D01*
X111031Y91841D01*
X111130Y91892D01*
X111231Y91939D01*
X111333Y91982D01*
X111436Y92022D01*
X111541Y92058D01*
X111647Y92090D01*
X111754Y92119D01*
X111862Y92144D01*
X111971Y92165D01*
X112080Y92182D01*
X112190Y92196D01*
X112301Y92205D01*
X112411Y92211D01*
X112522Y92213D01*
X112633Y92211D01*
X112743Y92205D01*
X112854Y92196D01*
X112964Y92182D01*
X113073Y92165D01*
X113182Y92144D01*
X113290Y92119D01*
X113397Y92090D01*
X113503Y92058D01*
X113608Y92022D01*
X113711Y91982D01*
X113813Y91939D01*
X113914Y91892D01*
X114013Y91841D01*
X114110Y91788D01*
X114204Y91731D01*
X114297Y91670D01*
X114388Y91607D01*
X114477Y91540D01*
X114563Y91470D01*
X114646Y91397D01*
X114728Y91322D01*
X114806Y91244D01*
X114881Y91162D01*
X114954Y91079D01*
X115024Y90993D01*
X115091Y90904D01*
X115154Y90813D01*
X115215Y90720D01*
X115272Y90626D01*
X115325Y90529D01*
X115376Y90430D01*
X115423Y90329D01*
X115466Y90227D01*
X115506Y90124D01*
X115542Y90019D01*
X115574Y89913D01*
X115603Y89806D01*
X115628Y89698D01*
X115649Y89589D01*
X115666Y89480D01*
X115680Y89370D01*
X115689Y89259D01*
X115695Y89149D01*
X115697Y89038D01*
X115697Y85863D01*
X109347Y100214D02*
X109349Y100318D01*
X109355Y100423D01*
X109364Y100527D01*
X109377Y100630D01*
X109395Y100733D01*
X109415Y100835D01*
X109440Y100937D01*
X109468Y101037D01*
X109500Y101137D01*
X109536Y101235D01*
X109575Y101332D01*
X109617Y101427D01*
X109663Y101521D01*
X109713Y101613D01*
X109765Y101703D01*
X109821Y101791D01*
X109881Y101877D01*
X109943Y101961D01*
X110008Y102042D01*
X110076Y102121D01*
X110148Y102198D01*
X110221Y102271D01*
X110298Y102343D01*
X110377Y102411D01*
X110458Y102476D01*
X110542Y102538D01*
X110628Y102598D01*
X110716Y102654D01*
X110806Y102706D01*
X110898Y102756D01*
X110992Y102802D01*
X111087Y102844D01*
X111184Y102883D01*
X111282Y102919D01*
X111382Y102951D01*
X111482Y102979D01*
X111584Y103004D01*
X111686Y103024D01*
X111789Y103042D01*
X111892Y103055D01*
X111996Y103064D01*
X112101Y103070D01*
X112205Y103072D01*
X109347Y100214D02*
X109349Y100096D01*
X109355Y99977D01*
X109364Y99859D01*
X109377Y99742D01*
X109395Y99625D01*
X109415Y99508D01*
X109440Y99392D01*
X109468Y99277D01*
X109501Y99164D01*
X109536Y99051D01*
X109576Y98939D01*
X109618Y98829D01*
X109665Y98720D01*
X109715Y98612D01*
X109768Y98507D01*
X109825Y98403D01*
X109885Y98301D01*
X109948Y98201D01*
X110015Y98103D01*
X110084Y98007D01*
X110157Y97914D01*
X110233Y97823D01*
X110311Y97734D01*
X110393Y97648D01*
X110477Y97565D01*
X110563Y97484D01*
X110653Y97407D01*
X110744Y97332D01*
X110838Y97260D01*
X110935Y97191D01*
X111033Y97126D01*
X111134Y97063D01*
X111237Y97004D01*
X111341Y96948D01*
X111447Y96896D01*
X111555Y96847D01*
X111664Y96802D01*
X111775Y96760D01*
X111887Y96722D01*
X114427Y102120D02*
X114352Y102196D01*
X114273Y102271D01*
X114192Y102342D01*
X114108Y102411D01*
X114022Y102476D01*
X113934Y102538D01*
X113844Y102598D01*
X113752Y102654D01*
X113657Y102707D01*
X113561Y102756D01*
X113463Y102802D01*
X113364Y102845D01*
X113263Y102884D01*
X113161Y102919D01*
X113058Y102951D01*
X112954Y102979D01*
X112849Y103004D01*
X112742Y103025D01*
X112636Y103042D01*
X112529Y103055D01*
X112421Y103064D01*
X112313Y103070D01*
X112205Y103072D01*
X114427Y102119D02*
X120777Y96722D01*
X120777Y103072D01*
D17*
X615950Y393700D02*
X628650Y393700D01*
X635000Y387350D01*
X635000Y374650D01*
X628650Y368300D01*
X609600Y374650D02*
X609600Y387350D01*
X615950Y393700D01*
X609600Y374650D02*
X615950Y368300D01*
X628650Y368300D01*
D16*
X613283Y402463D02*
X613283Y411353D01*
X613283Y402463D02*
X613281Y402363D01*
X613275Y402264D01*
X613265Y402164D01*
X613252Y402066D01*
X613234Y401967D01*
X613213Y401870D01*
X613188Y401774D01*
X613159Y401678D01*
X613126Y401584D01*
X613090Y401491D01*
X613050Y401400D01*
X613006Y401310D01*
X612959Y401222D01*
X612909Y401136D01*
X612855Y401052D01*
X612798Y400970D01*
X612738Y400891D01*
X612674Y400813D01*
X612608Y400739D01*
X612539Y400667D01*
X612467Y400598D01*
X612393Y400532D01*
X612315Y400468D01*
X612236Y400408D01*
X612154Y400351D01*
X612070Y400297D01*
X611984Y400247D01*
X611896Y400200D01*
X611806Y400156D01*
X611715Y400116D01*
X611622Y400080D01*
X611528Y400047D01*
X611432Y400018D01*
X611336Y399993D01*
X611239Y399972D01*
X611140Y399954D01*
X611042Y399941D01*
X610942Y399931D01*
X610843Y399925D01*
X610743Y399923D01*
X609473Y399923D01*
X619263Y399923D02*
X619263Y411353D01*
X622438Y411353D01*
X622549Y411351D01*
X622659Y411345D01*
X622770Y411336D01*
X622880Y411322D01*
X622989Y411305D01*
X623098Y411284D01*
X623206Y411259D01*
X623313Y411230D01*
X623419Y411198D01*
X623524Y411162D01*
X623627Y411122D01*
X623729Y411079D01*
X623830Y411032D01*
X623929Y410981D01*
X624026Y410928D01*
X624120Y410871D01*
X624213Y410810D01*
X624304Y410747D01*
X624393Y410680D01*
X624479Y410610D01*
X624562Y410537D01*
X624644Y410462D01*
X624722Y410384D01*
X624797Y410302D01*
X624870Y410219D01*
X624940Y410133D01*
X625007Y410044D01*
X625070Y409953D01*
X625131Y409860D01*
X625188Y409765D01*
X625241Y409669D01*
X625292Y409570D01*
X625339Y409469D01*
X625382Y409367D01*
X625422Y409264D01*
X625458Y409159D01*
X625490Y409053D01*
X625519Y408946D01*
X625544Y408838D01*
X625565Y408729D01*
X625582Y408620D01*
X625596Y408510D01*
X625605Y408399D01*
X625611Y408289D01*
X625613Y408178D01*
X625611Y408067D01*
X625605Y407957D01*
X625596Y407846D01*
X625582Y407736D01*
X625565Y407627D01*
X625544Y407518D01*
X625519Y407410D01*
X625490Y407303D01*
X625458Y407197D01*
X625422Y407092D01*
X625382Y406989D01*
X625339Y406887D01*
X625292Y406786D01*
X625241Y406687D01*
X625188Y406590D01*
X625131Y406496D01*
X625070Y406403D01*
X625007Y406312D01*
X624940Y406223D01*
X624870Y406137D01*
X624797Y406054D01*
X624722Y405972D01*
X624644Y405894D01*
X624562Y405819D01*
X624479Y405746D01*
X624393Y405676D01*
X624304Y405609D01*
X624213Y405546D01*
X624120Y405485D01*
X624026Y405428D01*
X623929Y405375D01*
X623830Y405324D01*
X623729Y405277D01*
X623627Y405234D01*
X623524Y405194D01*
X623419Y405158D01*
X623313Y405126D01*
X623206Y405097D01*
X623098Y405072D01*
X622989Y405051D01*
X622880Y405034D01*
X622770Y405020D01*
X622659Y405011D01*
X622549Y405005D01*
X622438Y405003D01*
X619263Y405003D01*
X630122Y399923D02*
X633297Y399923D01*
X633408Y399925D01*
X633518Y399931D01*
X633629Y399940D01*
X633739Y399954D01*
X633848Y399971D01*
X633957Y399992D01*
X634065Y400017D01*
X634172Y400046D01*
X634278Y400078D01*
X634383Y400114D01*
X634486Y400154D01*
X634588Y400197D01*
X634689Y400244D01*
X634788Y400295D01*
X634885Y400348D01*
X634979Y400405D01*
X635072Y400466D01*
X635163Y400529D01*
X635252Y400596D01*
X635338Y400666D01*
X635421Y400739D01*
X635503Y400814D01*
X635581Y400892D01*
X635656Y400974D01*
X635729Y401057D01*
X635799Y401143D01*
X635866Y401232D01*
X635929Y401323D01*
X635990Y401416D01*
X636047Y401510D01*
X636100Y401607D01*
X636151Y401706D01*
X636198Y401807D01*
X636241Y401909D01*
X636281Y402012D01*
X636317Y402117D01*
X636349Y402223D01*
X636378Y402330D01*
X636403Y402438D01*
X636424Y402547D01*
X636441Y402656D01*
X636455Y402766D01*
X636464Y402877D01*
X636470Y402987D01*
X636472Y403098D01*
X636470Y403209D01*
X636464Y403319D01*
X636455Y403430D01*
X636441Y403540D01*
X636424Y403649D01*
X636403Y403758D01*
X636378Y403866D01*
X636349Y403973D01*
X636317Y404079D01*
X636281Y404184D01*
X636241Y404287D01*
X636198Y404389D01*
X636151Y404490D01*
X636100Y404589D01*
X636047Y404685D01*
X635990Y404780D01*
X635929Y404873D01*
X635866Y404964D01*
X635799Y405053D01*
X635729Y405139D01*
X635656Y405222D01*
X635581Y405304D01*
X635503Y405382D01*
X635421Y405457D01*
X635338Y405530D01*
X635252Y405600D01*
X635163Y405667D01*
X635072Y405730D01*
X634979Y405791D01*
X634885Y405848D01*
X634788Y405901D01*
X634689Y405952D01*
X634588Y405999D01*
X634486Y406042D01*
X634383Y406082D01*
X634278Y406118D01*
X634172Y406150D01*
X634065Y406179D01*
X633957Y406204D01*
X633848Y406225D01*
X633739Y406242D01*
X633629Y406256D01*
X633518Y406265D01*
X633408Y406271D01*
X633297Y406273D01*
X633932Y411353D02*
X630122Y411353D01*
X633932Y411353D02*
X634032Y411351D01*
X634131Y411345D01*
X634231Y411335D01*
X634329Y411322D01*
X634428Y411304D01*
X634525Y411283D01*
X634621Y411258D01*
X634717Y411229D01*
X634811Y411196D01*
X634904Y411160D01*
X634995Y411120D01*
X635085Y411076D01*
X635173Y411029D01*
X635259Y410979D01*
X635343Y410925D01*
X635425Y410868D01*
X635504Y410808D01*
X635582Y410744D01*
X635656Y410678D01*
X635728Y410609D01*
X635797Y410537D01*
X635863Y410463D01*
X635927Y410385D01*
X635987Y410306D01*
X636044Y410224D01*
X636098Y410140D01*
X636148Y410054D01*
X636195Y409966D01*
X636239Y409876D01*
X636279Y409785D01*
X636315Y409692D01*
X636348Y409598D01*
X636377Y409502D01*
X636402Y409406D01*
X636423Y409309D01*
X636441Y409210D01*
X636454Y409112D01*
X636464Y409012D01*
X636470Y408913D01*
X636472Y408813D01*
X636470Y408713D01*
X636464Y408614D01*
X636454Y408514D01*
X636441Y408416D01*
X636423Y408317D01*
X636402Y408220D01*
X636377Y408124D01*
X636348Y408028D01*
X636315Y407934D01*
X636279Y407841D01*
X636239Y407750D01*
X636195Y407660D01*
X636148Y407572D01*
X636098Y407486D01*
X636044Y407402D01*
X635987Y407320D01*
X635927Y407241D01*
X635863Y407163D01*
X635797Y407089D01*
X635728Y407017D01*
X635656Y406948D01*
X635582Y406882D01*
X635504Y406818D01*
X635425Y406758D01*
X635343Y406701D01*
X635259Y406647D01*
X635173Y406597D01*
X635085Y406550D01*
X634995Y406506D01*
X634904Y406466D01*
X634811Y406430D01*
X634717Y406397D01*
X634621Y406368D01*
X634525Y406343D01*
X634428Y406322D01*
X634329Y406304D01*
X634231Y406291D01*
X634131Y406281D01*
X634032Y406275D01*
X633932Y406273D01*
X631392Y406273D01*
D17*
X514350Y107950D02*
X514350Y95250D01*
X508000Y88900D01*
X495300Y88900D01*
X488950Y95250D01*
X495300Y114300D02*
X508000Y114300D01*
X514350Y107950D01*
X495300Y114300D02*
X488950Y107950D01*
X488950Y95250D01*
D16*
X520573Y91238D02*
X529463Y91238D01*
X529563Y91236D01*
X529662Y91230D01*
X529762Y91220D01*
X529860Y91207D01*
X529959Y91189D01*
X530056Y91168D01*
X530152Y91143D01*
X530248Y91114D01*
X530342Y91081D01*
X530435Y91045D01*
X530526Y91005D01*
X530616Y90961D01*
X530704Y90914D01*
X530790Y90864D01*
X530874Y90810D01*
X530956Y90753D01*
X531035Y90693D01*
X531113Y90629D01*
X531187Y90563D01*
X531259Y90494D01*
X531328Y90422D01*
X531394Y90348D01*
X531458Y90270D01*
X531518Y90191D01*
X531575Y90109D01*
X531629Y90025D01*
X531679Y89939D01*
X531726Y89851D01*
X531770Y89761D01*
X531810Y89670D01*
X531846Y89577D01*
X531879Y89483D01*
X531908Y89387D01*
X531933Y89291D01*
X531954Y89194D01*
X531972Y89095D01*
X531985Y88997D01*
X531995Y88897D01*
X532001Y88798D01*
X532003Y88698D01*
X532003Y87428D01*
X532003Y97219D02*
X520573Y97219D01*
X520573Y100394D01*
X520575Y100505D01*
X520581Y100615D01*
X520590Y100726D01*
X520604Y100836D01*
X520621Y100945D01*
X520642Y101054D01*
X520667Y101162D01*
X520696Y101269D01*
X520728Y101375D01*
X520764Y101480D01*
X520804Y101583D01*
X520847Y101685D01*
X520894Y101786D01*
X520945Y101885D01*
X520998Y101981D01*
X521055Y102076D01*
X521116Y102169D01*
X521179Y102260D01*
X521246Y102349D01*
X521316Y102435D01*
X521389Y102518D01*
X521464Y102600D01*
X521542Y102678D01*
X521624Y102753D01*
X521707Y102826D01*
X521793Y102896D01*
X521882Y102963D01*
X521973Y103026D01*
X522066Y103087D01*
X522161Y103144D01*
X522257Y103197D01*
X522356Y103248D01*
X522457Y103295D01*
X522559Y103338D01*
X522662Y103378D01*
X522767Y103414D01*
X522873Y103446D01*
X522980Y103475D01*
X523088Y103500D01*
X523197Y103521D01*
X523306Y103538D01*
X523416Y103552D01*
X523527Y103561D01*
X523637Y103567D01*
X523748Y103569D01*
X523859Y103567D01*
X523969Y103561D01*
X524080Y103552D01*
X524190Y103538D01*
X524299Y103521D01*
X524408Y103500D01*
X524516Y103475D01*
X524623Y103446D01*
X524729Y103414D01*
X524834Y103378D01*
X524937Y103338D01*
X525039Y103295D01*
X525140Y103248D01*
X525239Y103197D01*
X525336Y103144D01*
X525430Y103087D01*
X525523Y103026D01*
X525614Y102963D01*
X525703Y102896D01*
X525789Y102826D01*
X525872Y102753D01*
X525954Y102678D01*
X526032Y102600D01*
X526107Y102518D01*
X526180Y102435D01*
X526250Y102349D01*
X526317Y102260D01*
X526380Y102169D01*
X526441Y102076D01*
X526498Y101982D01*
X526551Y101885D01*
X526602Y101786D01*
X526649Y101685D01*
X526692Y101583D01*
X526732Y101480D01*
X526768Y101375D01*
X526800Y101269D01*
X526829Y101162D01*
X526854Y101054D01*
X526875Y100945D01*
X526892Y100836D01*
X526906Y100726D01*
X526915Y100615D01*
X526921Y100505D01*
X526923Y100394D01*
X526923Y97219D01*
X529463Y108077D02*
X520573Y110617D01*
X529463Y108077D02*
X529463Y114427D01*
X526923Y112522D02*
X532003Y112522D01*
D18*
X711200Y191500D03*
D13*
X697992Y178308D02*
X686308Y178308D01*
X697992Y178308D02*
X697992Y183501D01*
X697992Y188214D02*
X697992Y193407D01*
X697992Y188214D02*
X686308Y188214D01*
X686308Y193407D01*
X691501Y192109D02*
X691501Y188214D01*
X686308Y198097D02*
X697992Y198097D01*
X686308Y198097D02*
X686308Y201343D01*
X686310Y201456D01*
X686316Y201569D01*
X686326Y201682D01*
X686340Y201795D01*
X686357Y201907D01*
X686379Y202018D01*
X686404Y202128D01*
X686434Y202238D01*
X686467Y202346D01*
X686504Y202453D01*
X686544Y202559D01*
X686589Y202663D01*
X686637Y202766D01*
X686688Y202867D01*
X686743Y202966D01*
X686801Y203063D01*
X686863Y203158D01*
X686928Y203251D01*
X686996Y203341D01*
X687067Y203429D01*
X687142Y203515D01*
X687219Y203598D01*
X687299Y203678D01*
X687382Y203755D01*
X687468Y203830D01*
X687556Y203901D01*
X687646Y203969D01*
X687739Y204034D01*
X687834Y204096D01*
X687931Y204154D01*
X688030Y204209D01*
X688131Y204260D01*
X688234Y204308D01*
X688338Y204353D01*
X688444Y204393D01*
X688551Y204430D01*
X688659Y204463D01*
X688769Y204493D01*
X688879Y204518D01*
X688990Y204540D01*
X689102Y204557D01*
X689215Y204571D01*
X689328Y204581D01*
X689441Y204587D01*
X689554Y204589D01*
X694746Y204589D01*
X694859Y204587D01*
X694972Y204581D01*
X695085Y204571D01*
X695198Y204557D01*
X695310Y204540D01*
X695421Y204518D01*
X695531Y204493D01*
X695641Y204463D01*
X695749Y204430D01*
X695856Y204393D01*
X695962Y204353D01*
X696066Y204308D01*
X696169Y204260D01*
X696270Y204209D01*
X696369Y204154D01*
X696466Y204096D01*
X696561Y204034D01*
X696654Y203969D01*
X696744Y203901D01*
X696832Y203830D01*
X696918Y203755D01*
X697001Y203678D01*
X697081Y203598D01*
X697158Y203515D01*
X697233Y203429D01*
X697304Y203341D01*
X697372Y203251D01*
X697437Y203158D01*
X697499Y203063D01*
X697557Y202966D01*
X697612Y202867D01*
X697663Y202766D01*
X697711Y202663D01*
X697756Y202559D01*
X697796Y202453D01*
X697833Y202346D01*
X697866Y202238D01*
X697896Y202128D01*
X697921Y202018D01*
X697943Y201907D01*
X697960Y201795D01*
X697974Y201682D01*
X697984Y201569D01*
X697990Y201456D01*
X697992Y201343D01*
X697992Y198097D01*
X688904Y209908D02*
X686308Y213154D01*
X697992Y213154D01*
X697992Y216399D02*
X697992Y209908D01*
D18*
X812800Y191500D03*
D13*
X799592Y178308D02*
X787908Y178308D01*
X799592Y178308D02*
X799592Y183501D01*
X799592Y188214D02*
X799592Y193407D01*
X799592Y188214D02*
X787908Y188214D01*
X787908Y193407D01*
X793101Y192109D02*
X793101Y188214D01*
X787908Y198097D02*
X799592Y198097D01*
X787908Y198097D02*
X787908Y201343D01*
X787910Y201456D01*
X787916Y201569D01*
X787926Y201682D01*
X787940Y201795D01*
X787957Y201907D01*
X787979Y202018D01*
X788004Y202128D01*
X788034Y202238D01*
X788067Y202346D01*
X788104Y202453D01*
X788144Y202559D01*
X788189Y202663D01*
X788237Y202766D01*
X788288Y202867D01*
X788343Y202966D01*
X788401Y203063D01*
X788463Y203158D01*
X788528Y203251D01*
X788596Y203341D01*
X788667Y203429D01*
X788742Y203515D01*
X788819Y203598D01*
X788899Y203678D01*
X788982Y203755D01*
X789068Y203830D01*
X789156Y203901D01*
X789246Y203969D01*
X789339Y204034D01*
X789434Y204096D01*
X789531Y204154D01*
X789630Y204209D01*
X789731Y204260D01*
X789834Y204308D01*
X789938Y204353D01*
X790044Y204393D01*
X790151Y204430D01*
X790259Y204463D01*
X790369Y204493D01*
X790479Y204518D01*
X790590Y204540D01*
X790702Y204557D01*
X790815Y204571D01*
X790928Y204581D01*
X791041Y204587D01*
X791154Y204589D01*
X796346Y204589D01*
X796459Y204587D01*
X796572Y204581D01*
X796685Y204571D01*
X796798Y204557D01*
X796910Y204540D01*
X797021Y204518D01*
X797131Y204493D01*
X797241Y204463D01*
X797349Y204430D01*
X797456Y204393D01*
X797562Y204353D01*
X797666Y204308D01*
X797769Y204260D01*
X797870Y204209D01*
X797969Y204154D01*
X798066Y204096D01*
X798161Y204034D01*
X798254Y203969D01*
X798344Y203901D01*
X798432Y203830D01*
X798518Y203755D01*
X798601Y203678D01*
X798681Y203598D01*
X798758Y203515D01*
X798833Y203429D01*
X798904Y203341D01*
X798972Y203251D01*
X799037Y203158D01*
X799099Y203063D01*
X799157Y202966D01*
X799212Y202867D01*
X799263Y202766D01*
X799311Y202663D01*
X799356Y202559D01*
X799396Y202453D01*
X799433Y202346D01*
X799466Y202238D01*
X799496Y202128D01*
X799521Y202018D01*
X799543Y201907D01*
X799560Y201795D01*
X799574Y201682D01*
X799584Y201569D01*
X799590Y201456D01*
X799592Y201343D01*
X799592Y198097D01*
X787908Y213478D02*
X787910Y213585D01*
X787916Y213691D01*
X787926Y213797D01*
X787939Y213903D01*
X787957Y214009D01*
X787978Y214113D01*
X788003Y214217D01*
X788032Y214320D01*
X788064Y214421D01*
X788101Y214521D01*
X788141Y214620D01*
X788184Y214718D01*
X788231Y214814D01*
X788282Y214908D01*
X788336Y215000D01*
X788393Y215090D01*
X788453Y215178D01*
X788517Y215263D01*
X788584Y215346D01*
X788654Y215427D01*
X788726Y215505D01*
X788802Y215581D01*
X788880Y215653D01*
X788961Y215723D01*
X789044Y215790D01*
X789129Y215854D01*
X789217Y215914D01*
X789307Y215971D01*
X789399Y216025D01*
X789493Y216076D01*
X789589Y216123D01*
X789687Y216166D01*
X789786Y216206D01*
X789886Y216243D01*
X789987Y216275D01*
X790090Y216304D01*
X790194Y216329D01*
X790298Y216350D01*
X790404Y216368D01*
X790510Y216381D01*
X790616Y216391D01*
X790722Y216397D01*
X790829Y216399D01*
X787908Y213478D02*
X787910Y213357D01*
X787916Y213236D01*
X787926Y213116D01*
X787939Y212995D01*
X787957Y212876D01*
X787978Y212756D01*
X788003Y212638D01*
X788032Y212521D01*
X788065Y212404D01*
X788101Y212289D01*
X788142Y212175D01*
X788185Y212062D01*
X788233Y211950D01*
X788284Y211841D01*
X788339Y211733D01*
X788397Y211626D01*
X788458Y211522D01*
X788523Y211420D01*
X788591Y211320D01*
X788662Y211222D01*
X788736Y211126D01*
X788813Y211033D01*
X788894Y210943D01*
X788977Y210855D01*
X789063Y210770D01*
X789152Y210687D01*
X789243Y210608D01*
X789337Y210531D01*
X789433Y210458D01*
X789531Y210388D01*
X789632Y210321D01*
X789735Y210257D01*
X789840Y210197D01*
X789947Y210139D01*
X790055Y210086D01*
X790165Y210036D01*
X790277Y209990D01*
X790390Y209947D01*
X790505Y209908D01*
X793101Y215425D02*
X793023Y215504D01*
X792943Y215580D01*
X792860Y215653D01*
X792774Y215723D01*
X792687Y215790D01*
X792596Y215854D01*
X792504Y215914D01*
X792410Y215972D01*
X792313Y216026D01*
X792215Y216076D01*
X792115Y216123D01*
X792014Y216167D01*
X791911Y216207D01*
X791806Y216243D01*
X791701Y216275D01*
X791594Y216304D01*
X791487Y216329D01*
X791378Y216351D01*
X791269Y216368D01*
X791160Y216382D01*
X791050Y216391D01*
X790939Y216397D01*
X790829Y216399D01*
X793101Y215426D02*
X799592Y209908D01*
X799592Y216399D01*
D18*
X914400Y191500D03*
D13*
X901192Y178308D02*
X889508Y178308D01*
X901192Y178308D02*
X901192Y183501D01*
X901192Y188214D02*
X901192Y193407D01*
X901192Y188214D02*
X889508Y188214D01*
X889508Y193407D01*
X894701Y192109D02*
X894701Y188214D01*
X889508Y198097D02*
X901192Y198097D01*
X889508Y198097D02*
X889508Y201343D01*
X889510Y201456D01*
X889516Y201569D01*
X889526Y201682D01*
X889540Y201795D01*
X889557Y201907D01*
X889579Y202018D01*
X889604Y202128D01*
X889634Y202238D01*
X889667Y202346D01*
X889704Y202453D01*
X889744Y202559D01*
X889789Y202663D01*
X889837Y202766D01*
X889888Y202867D01*
X889943Y202966D01*
X890001Y203063D01*
X890063Y203158D01*
X890128Y203251D01*
X890196Y203341D01*
X890267Y203429D01*
X890342Y203515D01*
X890419Y203598D01*
X890499Y203678D01*
X890582Y203755D01*
X890668Y203830D01*
X890756Y203901D01*
X890846Y203969D01*
X890939Y204034D01*
X891034Y204096D01*
X891131Y204154D01*
X891230Y204209D01*
X891331Y204260D01*
X891434Y204308D01*
X891538Y204353D01*
X891644Y204393D01*
X891751Y204430D01*
X891859Y204463D01*
X891969Y204493D01*
X892079Y204518D01*
X892190Y204540D01*
X892302Y204557D01*
X892415Y204571D01*
X892528Y204581D01*
X892641Y204587D01*
X892754Y204589D01*
X897946Y204589D01*
X898059Y204587D01*
X898172Y204581D01*
X898285Y204571D01*
X898398Y204557D01*
X898510Y204540D01*
X898621Y204518D01*
X898731Y204493D01*
X898841Y204463D01*
X898949Y204430D01*
X899056Y204393D01*
X899162Y204353D01*
X899266Y204308D01*
X899369Y204260D01*
X899470Y204209D01*
X899569Y204154D01*
X899666Y204096D01*
X899761Y204034D01*
X899854Y203969D01*
X899944Y203901D01*
X900032Y203830D01*
X900118Y203755D01*
X900201Y203678D01*
X900281Y203598D01*
X900358Y203515D01*
X900433Y203429D01*
X900504Y203341D01*
X900572Y203251D01*
X900637Y203158D01*
X900699Y203063D01*
X900757Y202966D01*
X900812Y202867D01*
X900863Y202766D01*
X900911Y202663D01*
X900956Y202559D01*
X900996Y202453D01*
X901033Y202346D01*
X901066Y202238D01*
X901096Y202128D01*
X901121Y202018D01*
X901143Y201907D01*
X901160Y201795D01*
X901174Y201682D01*
X901184Y201569D01*
X901190Y201456D01*
X901192Y201343D01*
X901192Y198097D01*
X901192Y209908D02*
X901192Y213154D01*
X901190Y213267D01*
X901184Y213380D01*
X901174Y213493D01*
X901160Y213606D01*
X901143Y213718D01*
X901121Y213829D01*
X901096Y213939D01*
X901066Y214049D01*
X901033Y214157D01*
X900996Y214264D01*
X900956Y214370D01*
X900911Y214474D01*
X900863Y214577D01*
X900812Y214678D01*
X900757Y214777D01*
X900699Y214874D01*
X900637Y214969D01*
X900572Y215062D01*
X900504Y215152D01*
X900433Y215240D01*
X900358Y215326D01*
X900281Y215409D01*
X900201Y215489D01*
X900118Y215566D01*
X900032Y215641D01*
X899944Y215712D01*
X899854Y215780D01*
X899761Y215845D01*
X899666Y215907D01*
X899569Y215965D01*
X899470Y216020D01*
X899369Y216071D01*
X899266Y216119D01*
X899162Y216164D01*
X899056Y216204D01*
X898949Y216241D01*
X898841Y216274D01*
X898731Y216304D01*
X898621Y216329D01*
X898510Y216351D01*
X898398Y216368D01*
X898285Y216382D01*
X898172Y216392D01*
X898059Y216398D01*
X897946Y216400D01*
X897833Y216398D01*
X897720Y216392D01*
X897607Y216382D01*
X897494Y216368D01*
X897382Y216351D01*
X897271Y216329D01*
X897161Y216304D01*
X897051Y216274D01*
X896943Y216241D01*
X896836Y216204D01*
X896730Y216164D01*
X896626Y216119D01*
X896523Y216071D01*
X896422Y216020D01*
X896323Y215965D01*
X896226Y215907D01*
X896131Y215845D01*
X896038Y215780D01*
X895948Y215712D01*
X895860Y215641D01*
X895774Y215566D01*
X895691Y215489D01*
X895611Y215409D01*
X895534Y215326D01*
X895459Y215240D01*
X895388Y215152D01*
X895320Y215062D01*
X895255Y214969D01*
X895193Y214874D01*
X895135Y214777D01*
X895080Y214678D01*
X895029Y214577D01*
X894981Y214474D01*
X894936Y214370D01*
X894896Y214264D01*
X894859Y214157D01*
X894826Y214049D01*
X894796Y213939D01*
X894771Y213829D01*
X894749Y213718D01*
X894732Y213606D01*
X894718Y213493D01*
X894708Y213380D01*
X894702Y213267D01*
X894700Y213154D01*
X889508Y213803D02*
X889508Y209908D01*
X889508Y213803D02*
X889510Y213904D01*
X889516Y214004D01*
X889526Y214104D01*
X889539Y214204D01*
X889557Y214303D01*
X889578Y214402D01*
X889603Y214499D01*
X889632Y214596D01*
X889665Y214691D01*
X889701Y214785D01*
X889741Y214877D01*
X889784Y214968D01*
X889831Y215057D01*
X889881Y215144D01*
X889935Y215230D01*
X889992Y215313D01*
X890052Y215393D01*
X890115Y215472D01*
X890182Y215548D01*
X890251Y215621D01*
X890323Y215691D01*
X890397Y215759D01*
X890474Y215824D01*
X890554Y215885D01*
X890636Y215944D01*
X890720Y215999D01*
X890806Y216051D01*
X890894Y216100D01*
X890984Y216145D01*
X891076Y216187D01*
X891169Y216225D01*
X891264Y216259D01*
X891359Y216290D01*
X891456Y216317D01*
X891554Y216340D01*
X891653Y216360D01*
X891753Y216375D01*
X891853Y216387D01*
X891953Y216395D01*
X892054Y216399D01*
X892154Y216399D01*
X892255Y216395D01*
X892355Y216387D01*
X892455Y216375D01*
X892555Y216360D01*
X892654Y216340D01*
X892752Y216317D01*
X892849Y216290D01*
X892944Y216259D01*
X893039Y216225D01*
X893132Y216187D01*
X893224Y216145D01*
X893314Y216100D01*
X893402Y216051D01*
X893488Y215999D01*
X893572Y215944D01*
X893654Y215885D01*
X893734Y215824D01*
X893811Y215759D01*
X893885Y215691D01*
X893957Y215621D01*
X894026Y215548D01*
X894093Y215472D01*
X894156Y215393D01*
X894216Y215313D01*
X894273Y215230D01*
X894327Y215144D01*
X894377Y215057D01*
X894424Y214968D01*
X894467Y214877D01*
X894507Y214785D01*
X894543Y214691D01*
X894576Y214596D01*
X894605Y214499D01*
X894630Y214402D01*
X894651Y214303D01*
X894669Y214204D01*
X894682Y214104D01*
X894692Y214004D01*
X894698Y213904D01*
X894700Y213803D01*
X894701Y213803D02*
X894701Y211207D01*
D18*
X711200Y343900D03*
D13*
X697992Y330708D02*
X686308Y330708D01*
X697992Y330708D02*
X697992Y335901D01*
X697992Y340614D02*
X697992Y345807D01*
X697992Y340614D02*
X686308Y340614D01*
X686308Y345807D01*
X691501Y344509D02*
X691501Y340614D01*
X686308Y350497D02*
X697992Y350497D01*
X686308Y350497D02*
X686308Y353743D01*
X686310Y353856D01*
X686316Y353969D01*
X686326Y354082D01*
X686340Y354195D01*
X686357Y354307D01*
X686379Y354418D01*
X686404Y354528D01*
X686434Y354638D01*
X686467Y354746D01*
X686504Y354853D01*
X686544Y354959D01*
X686589Y355063D01*
X686637Y355166D01*
X686688Y355267D01*
X686743Y355366D01*
X686801Y355463D01*
X686863Y355558D01*
X686928Y355651D01*
X686996Y355741D01*
X687067Y355829D01*
X687142Y355915D01*
X687219Y355998D01*
X687299Y356078D01*
X687382Y356155D01*
X687468Y356230D01*
X687556Y356301D01*
X687646Y356369D01*
X687739Y356434D01*
X687834Y356496D01*
X687931Y356554D01*
X688030Y356609D01*
X688131Y356660D01*
X688234Y356708D01*
X688338Y356753D01*
X688444Y356793D01*
X688551Y356830D01*
X688659Y356863D01*
X688769Y356893D01*
X688879Y356918D01*
X688990Y356940D01*
X689102Y356957D01*
X689215Y356971D01*
X689328Y356981D01*
X689441Y356987D01*
X689554Y356989D01*
X694746Y356989D01*
X694859Y356987D01*
X694972Y356981D01*
X695085Y356971D01*
X695198Y356957D01*
X695310Y356940D01*
X695421Y356918D01*
X695531Y356893D01*
X695641Y356863D01*
X695749Y356830D01*
X695856Y356793D01*
X695962Y356753D01*
X696066Y356708D01*
X696169Y356660D01*
X696270Y356609D01*
X696369Y356554D01*
X696466Y356496D01*
X696561Y356434D01*
X696654Y356369D01*
X696744Y356301D01*
X696832Y356230D01*
X696918Y356155D01*
X697001Y356078D01*
X697081Y355998D01*
X697158Y355915D01*
X697233Y355829D01*
X697304Y355741D01*
X697372Y355651D01*
X697437Y355558D01*
X697499Y355463D01*
X697557Y355366D01*
X697612Y355267D01*
X697663Y355166D01*
X697711Y355063D01*
X697756Y354959D01*
X697796Y354853D01*
X697833Y354746D01*
X697866Y354638D01*
X697896Y354528D01*
X697921Y354418D01*
X697943Y354307D01*
X697960Y354195D01*
X697974Y354082D01*
X697984Y353969D01*
X697990Y353856D01*
X697992Y353743D01*
X697992Y350497D01*
X695396Y362308D02*
X686308Y364905D01*
X695396Y362308D02*
X695396Y368799D01*
X692799Y366852D02*
X697992Y366852D01*
D18*
X812800Y343900D03*
D13*
X799592Y330708D02*
X787908Y330708D01*
X799592Y330708D02*
X799592Y335901D01*
X799592Y340614D02*
X799592Y345807D01*
X799592Y340614D02*
X787908Y340614D01*
X787908Y345807D01*
X793101Y344509D02*
X793101Y340614D01*
X787908Y350497D02*
X799592Y350497D01*
X787908Y350497D02*
X787908Y353743D01*
X787910Y353856D01*
X787916Y353969D01*
X787926Y354082D01*
X787940Y354195D01*
X787957Y354307D01*
X787979Y354418D01*
X788004Y354528D01*
X788034Y354638D01*
X788067Y354746D01*
X788104Y354853D01*
X788144Y354959D01*
X788189Y355063D01*
X788237Y355166D01*
X788288Y355267D01*
X788343Y355366D01*
X788401Y355463D01*
X788463Y355558D01*
X788528Y355651D01*
X788596Y355741D01*
X788667Y355829D01*
X788742Y355915D01*
X788819Y355998D01*
X788899Y356078D01*
X788982Y356155D01*
X789068Y356230D01*
X789156Y356301D01*
X789246Y356369D01*
X789339Y356434D01*
X789434Y356496D01*
X789531Y356554D01*
X789630Y356609D01*
X789731Y356660D01*
X789834Y356708D01*
X789938Y356753D01*
X790044Y356793D01*
X790151Y356830D01*
X790259Y356863D01*
X790369Y356893D01*
X790479Y356918D01*
X790590Y356940D01*
X790702Y356957D01*
X790815Y356971D01*
X790928Y356981D01*
X791041Y356987D01*
X791154Y356989D01*
X796346Y356989D01*
X796459Y356987D01*
X796572Y356981D01*
X796685Y356971D01*
X796798Y356957D01*
X796910Y356940D01*
X797021Y356918D01*
X797131Y356893D01*
X797241Y356863D01*
X797349Y356830D01*
X797456Y356793D01*
X797562Y356753D01*
X797666Y356708D01*
X797769Y356660D01*
X797870Y356609D01*
X797969Y356554D01*
X798066Y356496D01*
X798161Y356434D01*
X798254Y356369D01*
X798344Y356301D01*
X798432Y356230D01*
X798518Y356155D01*
X798601Y356078D01*
X798681Y355998D01*
X798758Y355915D01*
X798833Y355829D01*
X798904Y355741D01*
X798972Y355651D01*
X799037Y355558D01*
X799099Y355463D01*
X799157Y355366D01*
X799212Y355267D01*
X799263Y355166D01*
X799311Y355063D01*
X799356Y354959D01*
X799396Y354853D01*
X799433Y354746D01*
X799466Y354638D01*
X799496Y354528D01*
X799521Y354418D01*
X799543Y354307D01*
X799560Y354195D01*
X799574Y354082D01*
X799584Y353969D01*
X799590Y353856D01*
X799592Y353743D01*
X799592Y350497D01*
X799592Y362308D02*
X799592Y366203D01*
X799590Y366302D01*
X799584Y366402D01*
X799575Y366501D01*
X799562Y366599D01*
X799545Y366697D01*
X799524Y366795D01*
X799499Y366891D01*
X799471Y366986D01*
X799439Y367080D01*
X799404Y367173D01*
X799365Y367265D01*
X799322Y367355D01*
X799277Y367443D01*
X799227Y367530D01*
X799175Y367614D01*
X799119Y367697D01*
X799061Y367777D01*
X798999Y367855D01*
X798934Y367930D01*
X798866Y368003D01*
X798796Y368073D01*
X798723Y368141D01*
X798648Y368206D01*
X798570Y368268D01*
X798490Y368326D01*
X798407Y368382D01*
X798323Y368434D01*
X798236Y368484D01*
X798148Y368529D01*
X798058Y368572D01*
X797966Y368611D01*
X797873Y368646D01*
X797779Y368678D01*
X797684Y368706D01*
X797588Y368731D01*
X797490Y368752D01*
X797392Y368769D01*
X797294Y368782D01*
X797195Y368791D01*
X797095Y368797D01*
X796996Y368799D01*
X795697Y368799D01*
X795598Y368797D01*
X795498Y368791D01*
X795399Y368782D01*
X795301Y368769D01*
X795203Y368752D01*
X795105Y368731D01*
X795009Y368706D01*
X794914Y368678D01*
X794820Y368646D01*
X794727Y368611D01*
X794635Y368572D01*
X794545Y368529D01*
X794457Y368484D01*
X794370Y368434D01*
X794286Y368382D01*
X794203Y368326D01*
X794123Y368268D01*
X794045Y368206D01*
X793970Y368141D01*
X793897Y368073D01*
X793827Y368003D01*
X793759Y367930D01*
X793694Y367855D01*
X793632Y367777D01*
X793574Y367697D01*
X793518Y367614D01*
X793466Y367530D01*
X793416Y367443D01*
X793371Y367355D01*
X793328Y367265D01*
X793289Y367173D01*
X793254Y367080D01*
X793222Y366986D01*
X793194Y366891D01*
X793169Y366795D01*
X793148Y366697D01*
X793131Y366599D01*
X793118Y366501D01*
X793109Y366402D01*
X793103Y366302D01*
X793101Y366203D01*
X793101Y362308D01*
X787908Y362308D01*
X787908Y368799D01*
D18*
X914400Y343900D03*
D13*
X901192Y330708D02*
X889508Y330708D01*
X901192Y330708D02*
X901192Y335901D01*
X901192Y340614D02*
X901192Y345807D01*
X901192Y340614D02*
X889508Y340614D01*
X889508Y345807D01*
X894701Y344509D02*
X894701Y340614D01*
X889508Y350497D02*
X901192Y350497D01*
X889508Y350497D02*
X889508Y353743D01*
X889510Y353856D01*
X889516Y353969D01*
X889526Y354082D01*
X889540Y354195D01*
X889557Y354307D01*
X889579Y354418D01*
X889604Y354528D01*
X889634Y354638D01*
X889667Y354746D01*
X889704Y354853D01*
X889744Y354959D01*
X889789Y355063D01*
X889837Y355166D01*
X889888Y355267D01*
X889943Y355366D01*
X890001Y355463D01*
X890063Y355558D01*
X890128Y355651D01*
X890196Y355741D01*
X890267Y355829D01*
X890342Y355915D01*
X890419Y355998D01*
X890499Y356078D01*
X890582Y356155D01*
X890668Y356230D01*
X890756Y356301D01*
X890846Y356369D01*
X890939Y356434D01*
X891034Y356496D01*
X891131Y356554D01*
X891230Y356609D01*
X891331Y356660D01*
X891434Y356708D01*
X891538Y356753D01*
X891644Y356793D01*
X891751Y356830D01*
X891859Y356863D01*
X891969Y356893D01*
X892079Y356918D01*
X892190Y356940D01*
X892302Y356957D01*
X892415Y356971D01*
X892528Y356981D01*
X892641Y356987D01*
X892754Y356989D01*
X897946Y356989D01*
X898059Y356987D01*
X898172Y356981D01*
X898285Y356971D01*
X898398Y356957D01*
X898510Y356940D01*
X898621Y356918D01*
X898731Y356893D01*
X898841Y356863D01*
X898949Y356830D01*
X899056Y356793D01*
X899162Y356753D01*
X899266Y356708D01*
X899369Y356660D01*
X899470Y356609D01*
X899569Y356554D01*
X899666Y356496D01*
X899761Y356434D01*
X899854Y356369D01*
X899944Y356301D01*
X900032Y356230D01*
X900118Y356155D01*
X900201Y356078D01*
X900281Y355998D01*
X900358Y355915D01*
X900433Y355829D01*
X900504Y355741D01*
X900572Y355651D01*
X900637Y355558D01*
X900699Y355463D01*
X900757Y355366D01*
X900812Y355267D01*
X900863Y355166D01*
X900911Y355063D01*
X900956Y354959D01*
X900996Y354853D01*
X901033Y354746D01*
X901066Y354638D01*
X901096Y354528D01*
X901121Y354418D01*
X901143Y354307D01*
X901160Y354195D01*
X901174Y354082D01*
X901184Y353969D01*
X901190Y353856D01*
X901192Y353743D01*
X901192Y350497D01*
X894701Y362308D02*
X894701Y366203D01*
X894703Y366302D01*
X894709Y366402D01*
X894718Y366501D01*
X894731Y366599D01*
X894748Y366697D01*
X894769Y366795D01*
X894794Y366891D01*
X894822Y366986D01*
X894854Y367080D01*
X894889Y367173D01*
X894928Y367265D01*
X894971Y367355D01*
X895016Y367443D01*
X895066Y367530D01*
X895118Y367614D01*
X895174Y367697D01*
X895232Y367777D01*
X895294Y367855D01*
X895359Y367930D01*
X895427Y368003D01*
X895497Y368073D01*
X895570Y368141D01*
X895645Y368206D01*
X895723Y368268D01*
X895803Y368326D01*
X895886Y368382D01*
X895970Y368434D01*
X896057Y368484D01*
X896145Y368529D01*
X896235Y368572D01*
X896327Y368611D01*
X896420Y368646D01*
X896514Y368678D01*
X896609Y368706D01*
X896705Y368731D01*
X896803Y368752D01*
X896901Y368769D01*
X896999Y368782D01*
X897098Y368791D01*
X897198Y368797D01*
X897297Y368799D01*
X897946Y368799D01*
X897946Y368800D02*
X898059Y368798D01*
X898172Y368792D01*
X898285Y368782D01*
X898398Y368768D01*
X898510Y368751D01*
X898621Y368729D01*
X898731Y368704D01*
X898841Y368674D01*
X898949Y368641D01*
X899056Y368604D01*
X899162Y368564D01*
X899266Y368519D01*
X899369Y368471D01*
X899470Y368420D01*
X899569Y368365D01*
X899666Y368307D01*
X899761Y368245D01*
X899854Y368180D01*
X899944Y368112D01*
X900032Y368041D01*
X900118Y367966D01*
X900201Y367889D01*
X900281Y367809D01*
X900358Y367726D01*
X900433Y367640D01*
X900504Y367552D01*
X900572Y367462D01*
X900637Y367369D01*
X900699Y367274D01*
X900757Y367177D01*
X900812Y367078D01*
X900863Y366977D01*
X900911Y366874D01*
X900956Y366770D01*
X900996Y366664D01*
X901033Y366557D01*
X901066Y366449D01*
X901096Y366339D01*
X901121Y366229D01*
X901143Y366118D01*
X901160Y366006D01*
X901174Y365893D01*
X901184Y365780D01*
X901190Y365667D01*
X901192Y365554D01*
X901190Y365441D01*
X901184Y365328D01*
X901174Y365215D01*
X901160Y365102D01*
X901143Y364990D01*
X901121Y364879D01*
X901096Y364769D01*
X901066Y364659D01*
X901033Y364551D01*
X900996Y364444D01*
X900956Y364338D01*
X900911Y364234D01*
X900863Y364131D01*
X900812Y364030D01*
X900757Y363931D01*
X900699Y363834D01*
X900637Y363739D01*
X900572Y363646D01*
X900504Y363556D01*
X900433Y363468D01*
X900358Y363382D01*
X900281Y363299D01*
X900201Y363219D01*
X900118Y363142D01*
X900032Y363067D01*
X899944Y362996D01*
X899854Y362928D01*
X899761Y362863D01*
X899666Y362801D01*
X899569Y362743D01*
X899470Y362688D01*
X899369Y362637D01*
X899266Y362589D01*
X899162Y362544D01*
X899056Y362504D01*
X898949Y362467D01*
X898841Y362434D01*
X898731Y362404D01*
X898621Y362379D01*
X898510Y362357D01*
X898398Y362340D01*
X898285Y362326D01*
X898172Y362316D01*
X898059Y362310D01*
X897946Y362308D01*
X894701Y362308D01*
X894558Y362310D01*
X894415Y362316D01*
X894272Y362326D01*
X894130Y362340D01*
X893988Y362357D01*
X893846Y362379D01*
X893705Y362404D01*
X893565Y362434D01*
X893426Y362467D01*
X893288Y362504D01*
X893151Y362545D01*
X893015Y362589D01*
X892880Y362638D01*
X892747Y362690D01*
X892615Y362745D01*
X892485Y362805D01*
X892356Y362868D01*
X892229Y362934D01*
X892105Y363004D01*
X891982Y363077D01*
X891861Y363154D01*
X891742Y363233D01*
X891626Y363317D01*
X891511Y363403D01*
X891400Y363492D01*
X891291Y363585D01*
X891184Y363680D01*
X891080Y363779D01*
X890979Y363880D01*
X890880Y363984D01*
X890785Y364090D01*
X890692Y364200D01*
X890603Y364311D01*
X890517Y364425D01*
X890434Y364542D01*
X890354Y364661D01*
X890277Y364782D01*
X890204Y364904D01*
X890134Y365029D01*
X890068Y365156D01*
X890005Y365285D01*
X889945Y365415D01*
X889890Y365547D01*
X889838Y365680D01*
X889789Y365815D01*
X889745Y365951D01*
X889704Y366088D01*
X889667Y366226D01*
X889634Y366365D01*
X889604Y366505D01*
X889579Y366646D01*
X889557Y366788D01*
X889540Y366930D01*
X889526Y367072D01*
X889516Y367215D01*
X889510Y367358D01*
X889508Y367501D01*
D18*
X812800Y267700D03*
D13*
X799592Y254508D02*
X787908Y254508D01*
X799592Y254508D02*
X799592Y259701D01*
X799592Y264414D02*
X799592Y269607D01*
X799592Y264414D02*
X787908Y264414D01*
X787908Y269607D01*
X793101Y268309D02*
X793101Y264414D01*
X787908Y274297D02*
X799592Y274297D01*
X787908Y274297D02*
X787908Y277543D01*
X787910Y277656D01*
X787916Y277769D01*
X787926Y277882D01*
X787940Y277995D01*
X787957Y278107D01*
X787979Y278218D01*
X788004Y278328D01*
X788034Y278438D01*
X788067Y278546D01*
X788104Y278653D01*
X788144Y278759D01*
X788189Y278863D01*
X788237Y278966D01*
X788288Y279067D01*
X788343Y279166D01*
X788401Y279263D01*
X788463Y279358D01*
X788528Y279451D01*
X788596Y279541D01*
X788667Y279629D01*
X788742Y279715D01*
X788819Y279798D01*
X788899Y279878D01*
X788982Y279955D01*
X789068Y280030D01*
X789156Y280101D01*
X789246Y280169D01*
X789339Y280234D01*
X789434Y280296D01*
X789531Y280354D01*
X789630Y280409D01*
X789731Y280460D01*
X789834Y280508D01*
X789938Y280553D01*
X790044Y280593D01*
X790151Y280630D01*
X790259Y280663D01*
X790369Y280693D01*
X790479Y280718D01*
X790590Y280740D01*
X790702Y280757D01*
X790815Y280771D01*
X790928Y280781D01*
X791041Y280787D01*
X791154Y280789D01*
X796346Y280789D01*
X796459Y280787D01*
X796572Y280781D01*
X796685Y280771D01*
X796798Y280757D01*
X796910Y280740D01*
X797021Y280718D01*
X797131Y280693D01*
X797241Y280663D01*
X797349Y280630D01*
X797456Y280593D01*
X797562Y280553D01*
X797666Y280508D01*
X797769Y280460D01*
X797870Y280409D01*
X797969Y280354D01*
X798066Y280296D01*
X798161Y280234D01*
X798254Y280169D01*
X798344Y280101D01*
X798432Y280030D01*
X798518Y279955D01*
X798601Y279878D01*
X798681Y279798D01*
X798758Y279715D01*
X798833Y279629D01*
X798904Y279541D01*
X798972Y279451D01*
X799037Y279358D01*
X799099Y279263D01*
X799157Y279166D01*
X799212Y279067D01*
X799263Y278966D01*
X799311Y278863D01*
X799356Y278759D01*
X799396Y278653D01*
X799433Y278546D01*
X799466Y278438D01*
X799496Y278328D01*
X799521Y278218D01*
X799543Y278107D01*
X799560Y277995D01*
X799574Y277882D01*
X799584Y277769D01*
X799590Y277656D01*
X799592Y277543D01*
X799592Y274297D01*
X789206Y286108D02*
X787908Y286108D01*
X787908Y292599D01*
X799592Y289354D01*
D19*
X449580Y29210D02*
X388620Y29210D01*
X388620Y72390D02*
X449580Y72390D01*
D17*
X449580Y34290D02*
X388620Y34290D01*
X388620Y67310D02*
X449580Y67310D01*
X421640Y58420D02*
X416560Y58420D01*
X421640Y58420D02*
X421640Y43180D01*
X416560Y43180D01*
X416560Y58420D01*
X425450Y58420D02*
X425450Y50800D01*
X425450Y43180D01*
X412750Y50800D02*
X412750Y58420D01*
X412750Y50800D02*
X412750Y43180D01*
X425450Y50800D02*
X431800Y50800D01*
X412750Y50800D02*
X406400Y50800D01*
D19*
X388620Y72390D02*
X388094Y72384D01*
X387569Y72364D01*
X387044Y72332D01*
X386520Y72288D01*
X385998Y72230D01*
X385476Y72160D01*
X384957Y72077D01*
X384440Y71982D01*
X383926Y71873D01*
X383414Y71753D01*
X382905Y71620D01*
X382400Y71475D01*
X381898Y71317D01*
X381401Y71147D01*
X380907Y70965D01*
X380419Y70772D01*
X379935Y70566D01*
X379456Y70349D01*
X378983Y70120D01*
X378515Y69879D01*
X378053Y69628D01*
X377598Y69365D01*
X377149Y69091D01*
X376707Y68806D01*
X376272Y68511D01*
X375845Y68205D01*
X375425Y67888D01*
X375013Y67562D01*
X374608Y67226D01*
X374213Y66880D01*
X373825Y66524D01*
X373447Y66159D01*
X373077Y65785D01*
X372717Y65402D01*
X372366Y65011D01*
X372025Y64611D01*
X371694Y64202D01*
X371372Y63786D01*
X371061Y63362D01*
X370760Y62931D01*
X370470Y62493D01*
X370191Y62047D01*
X369923Y61595D01*
X369665Y61136D01*
X369419Y60672D01*
X369184Y60201D01*
X368961Y59725D01*
X368750Y59244D01*
X368550Y58758D01*
X368362Y58267D01*
X368186Y57771D01*
X368023Y57271D01*
X367871Y56768D01*
X367732Y56261D01*
X367605Y55751D01*
X367491Y55237D01*
X367389Y54722D01*
X367300Y54203D01*
X367223Y53683D01*
X367160Y53161D01*
X367108Y52638D01*
X367070Y52114D01*
X367044Y51589D01*
X367032Y51063D01*
X367032Y50537D01*
X367044Y50011D01*
X367070Y49486D01*
X367108Y48962D01*
X367160Y48439D01*
X367223Y47917D01*
X367300Y47397D01*
X367389Y46878D01*
X367491Y46363D01*
X367605Y45849D01*
X367732Y45339D01*
X367871Y44832D01*
X368023Y44329D01*
X368186Y43829D01*
X368362Y43333D01*
X368550Y42842D01*
X368750Y42356D01*
X368961Y41875D01*
X369184Y41399D01*
X369419Y40928D01*
X369665Y40464D01*
X369923Y40005D01*
X370191Y39553D01*
X370470Y39107D01*
X370760Y38669D01*
X371061Y38238D01*
X371372Y37814D01*
X371694Y37398D01*
X372025Y36989D01*
X372366Y36589D01*
X372717Y36198D01*
X373077Y35815D01*
X373447Y35441D01*
X373825Y35076D01*
X374213Y34720D01*
X374608Y34374D01*
X375013Y34038D01*
X375425Y33712D01*
X375845Y33395D01*
X376272Y33089D01*
X376707Y32794D01*
X377149Y32509D01*
X377598Y32235D01*
X378053Y31972D01*
X378515Y31721D01*
X378983Y31480D01*
X379456Y31251D01*
X379935Y31034D01*
X380419Y30828D01*
X380907Y30635D01*
X381401Y30453D01*
X381898Y30283D01*
X382400Y30125D01*
X382905Y29980D01*
X383414Y29847D01*
X383926Y29727D01*
X384440Y29618D01*
X384957Y29523D01*
X385476Y29440D01*
X385998Y29370D01*
X386520Y29312D01*
X387044Y29268D01*
X387569Y29236D01*
X388094Y29216D01*
X388620Y29210D01*
X449580Y29210D02*
X450106Y29216D01*
X450631Y29236D01*
X451156Y29268D01*
X451680Y29312D01*
X452202Y29370D01*
X452724Y29440D01*
X453243Y29523D01*
X453760Y29618D01*
X454274Y29727D01*
X454786Y29847D01*
X455295Y29980D01*
X455800Y30125D01*
X456302Y30283D01*
X456799Y30453D01*
X457293Y30635D01*
X457781Y30828D01*
X458265Y31034D01*
X458744Y31251D01*
X459217Y31480D01*
X459685Y31721D01*
X460147Y31972D01*
X460602Y32235D01*
X461051Y32509D01*
X461493Y32794D01*
X461928Y33089D01*
X462355Y33395D01*
X462775Y33712D01*
X463187Y34038D01*
X463592Y34374D01*
X463987Y34720D01*
X464375Y35076D01*
X464753Y35441D01*
X465123Y35815D01*
X465483Y36198D01*
X465834Y36589D01*
X466175Y36989D01*
X466506Y37398D01*
X466828Y37814D01*
X467139Y38238D01*
X467440Y38669D01*
X467730Y39107D01*
X468009Y39553D01*
X468277Y40005D01*
X468535Y40464D01*
X468781Y40928D01*
X469016Y41399D01*
X469239Y41875D01*
X469450Y42356D01*
X469650Y42842D01*
X469838Y43333D01*
X470014Y43829D01*
X470177Y44329D01*
X470329Y44832D01*
X470468Y45339D01*
X470595Y45849D01*
X470709Y46363D01*
X470811Y46878D01*
X470900Y47397D01*
X470977Y47917D01*
X471040Y48439D01*
X471092Y48962D01*
X471130Y49486D01*
X471156Y50011D01*
X471168Y50537D01*
X471168Y51063D01*
X471156Y51589D01*
X471130Y52114D01*
X471092Y52638D01*
X471040Y53161D01*
X470977Y53683D01*
X470900Y54203D01*
X470811Y54722D01*
X470709Y55237D01*
X470595Y55751D01*
X470468Y56261D01*
X470329Y56768D01*
X470177Y57271D01*
X470014Y57771D01*
X469838Y58267D01*
X469650Y58758D01*
X469450Y59244D01*
X469239Y59725D01*
X469016Y60201D01*
X468781Y60672D01*
X468535Y61136D01*
X468277Y61595D01*
X468009Y62047D01*
X467730Y62493D01*
X467440Y62931D01*
X467139Y63362D01*
X466828Y63786D01*
X466506Y64202D01*
X466175Y64611D01*
X465834Y65011D01*
X465483Y65402D01*
X465123Y65785D01*
X464753Y66159D01*
X464375Y66524D01*
X463987Y66880D01*
X463592Y67226D01*
X463187Y67562D01*
X462775Y67888D01*
X462355Y68205D01*
X461928Y68511D01*
X461493Y68806D01*
X461051Y69091D01*
X460602Y69365D01*
X460147Y69628D01*
X459685Y69879D01*
X459217Y70120D01*
X458744Y70349D01*
X458265Y70566D01*
X457781Y70772D01*
X457293Y70965D01*
X456799Y71147D01*
X456302Y71317D01*
X455800Y71475D01*
X455295Y71620D01*
X454786Y71753D01*
X454274Y71873D01*
X453760Y71982D01*
X453243Y72077D01*
X452724Y72160D01*
X452202Y72230D01*
X451680Y72288D01*
X451156Y72332D01*
X450631Y72364D01*
X450106Y72384D01*
X449580Y72390D01*
D17*
X388620Y67310D02*
X388218Y67305D01*
X387816Y67290D01*
X387415Y67266D01*
X387014Y67232D01*
X386615Y67188D01*
X386216Y67134D01*
X385819Y67071D01*
X385424Y66998D01*
X385030Y66915D01*
X384639Y66823D01*
X384250Y66721D01*
X383863Y66610D01*
X383480Y66489D01*
X383099Y66360D01*
X382722Y66221D01*
X382348Y66072D01*
X381978Y65915D01*
X381612Y65749D01*
X381250Y65574D01*
X380893Y65390D01*
X380540Y65198D01*
X380192Y64997D01*
X379848Y64787D01*
X379510Y64569D01*
X379178Y64343D01*
X378851Y64109D01*
X378530Y63868D01*
X378214Y63618D01*
X377905Y63361D01*
X377603Y63096D01*
X377306Y62824D01*
X377017Y62545D01*
X376734Y62259D01*
X376459Y61966D01*
X376191Y61667D01*
X375930Y61361D01*
X375676Y61049D01*
X375430Y60731D01*
X375193Y60406D01*
X374963Y60077D01*
X374741Y59741D01*
X374527Y59401D01*
X374322Y59055D01*
X374125Y58704D01*
X373937Y58349D01*
X373757Y57989D01*
X373587Y57625D01*
X373425Y57257D01*
X373272Y56885D01*
X373129Y56510D01*
X372994Y56131D01*
X372869Y55749D01*
X372753Y55364D01*
X372647Y54976D01*
X372550Y54586D01*
X372462Y54193D01*
X372385Y53799D01*
X372316Y53403D01*
X372258Y53005D01*
X372209Y52606D01*
X372170Y52206D01*
X372141Y51805D01*
X372121Y51403D01*
X372111Y51001D01*
X372111Y50599D01*
X372121Y50197D01*
X372141Y49795D01*
X372170Y49394D01*
X372209Y48994D01*
X372258Y48595D01*
X372316Y48197D01*
X372385Y47801D01*
X372462Y47407D01*
X372550Y47014D01*
X372647Y46624D01*
X372753Y46236D01*
X372869Y45851D01*
X372994Y45469D01*
X373129Y45090D01*
X373272Y44715D01*
X373425Y44343D01*
X373587Y43975D01*
X373757Y43611D01*
X373937Y43251D01*
X374125Y42896D01*
X374322Y42545D01*
X374527Y42199D01*
X374741Y41859D01*
X374963Y41523D01*
X375193Y41194D01*
X375430Y40869D01*
X375676Y40551D01*
X375930Y40239D01*
X376191Y39933D01*
X376459Y39634D01*
X376734Y39341D01*
X377017Y39055D01*
X377306Y38776D01*
X377603Y38504D01*
X377905Y38239D01*
X378214Y37982D01*
X378530Y37732D01*
X378851Y37491D01*
X379178Y37257D01*
X379510Y37031D01*
X379848Y36813D01*
X380192Y36603D01*
X380540Y36402D01*
X380893Y36210D01*
X381250Y36026D01*
X381612Y35851D01*
X381978Y35685D01*
X382348Y35528D01*
X382722Y35379D01*
X383099Y35240D01*
X383480Y35111D01*
X383863Y34990D01*
X384250Y34879D01*
X384639Y34777D01*
X385030Y34685D01*
X385424Y34602D01*
X385819Y34529D01*
X386216Y34466D01*
X386615Y34412D01*
X387014Y34368D01*
X387415Y34334D01*
X387816Y34310D01*
X388218Y34295D01*
X388620Y34290D01*
X449580Y34290D02*
X449982Y34295D01*
X450384Y34310D01*
X450785Y34334D01*
X451186Y34368D01*
X451585Y34412D01*
X451984Y34466D01*
X452381Y34529D01*
X452776Y34602D01*
X453170Y34685D01*
X453561Y34777D01*
X453950Y34879D01*
X454337Y34990D01*
X454720Y35111D01*
X455101Y35240D01*
X455478Y35379D01*
X455852Y35528D01*
X456222Y35685D01*
X456588Y35851D01*
X456950Y36026D01*
X457307Y36210D01*
X457660Y36402D01*
X458008Y36603D01*
X458352Y36813D01*
X458690Y37031D01*
X459022Y37257D01*
X459349Y37491D01*
X459670Y37732D01*
X459986Y37982D01*
X460295Y38239D01*
X460597Y38504D01*
X460894Y38776D01*
X461183Y39055D01*
X461466Y39341D01*
X461741Y39634D01*
X462009Y39933D01*
X462270Y40239D01*
X462524Y40551D01*
X462770Y40869D01*
X463007Y41194D01*
X463237Y41523D01*
X463459Y41859D01*
X463673Y42199D01*
X463878Y42545D01*
X464075Y42896D01*
X464263Y43251D01*
X464443Y43611D01*
X464613Y43975D01*
X464775Y44343D01*
X464928Y44715D01*
X465071Y45090D01*
X465206Y45469D01*
X465331Y45851D01*
X465447Y46236D01*
X465553Y46624D01*
X465650Y47014D01*
X465738Y47407D01*
X465815Y47801D01*
X465884Y48197D01*
X465942Y48595D01*
X465991Y48994D01*
X466030Y49394D01*
X466059Y49795D01*
X466079Y50197D01*
X466089Y50599D01*
X466089Y51001D01*
X466079Y51403D01*
X466059Y51805D01*
X466030Y52206D01*
X465991Y52606D01*
X465942Y53005D01*
X465884Y53403D01*
X465815Y53799D01*
X465738Y54193D01*
X465650Y54586D01*
X465553Y54976D01*
X465447Y55364D01*
X465331Y55749D01*
X465206Y56131D01*
X465071Y56510D01*
X464928Y56885D01*
X464775Y57257D01*
X464613Y57625D01*
X464443Y57989D01*
X464263Y58349D01*
X464075Y58704D01*
X463878Y59055D01*
X463673Y59401D01*
X463459Y59741D01*
X463237Y60077D01*
X463007Y60406D01*
X462770Y60731D01*
X462524Y61049D01*
X462270Y61361D01*
X462009Y61667D01*
X461741Y61966D01*
X461466Y62259D01*
X461183Y62545D01*
X460894Y62824D01*
X460597Y63096D01*
X460295Y63361D01*
X459986Y63618D01*
X459670Y63868D01*
X459349Y64109D01*
X459022Y64343D01*
X458690Y64569D01*
X458352Y64787D01*
X458008Y64997D01*
X457660Y65198D01*
X457307Y65390D01*
X456950Y65574D01*
X456588Y65749D01*
X456222Y65915D01*
X455852Y66072D01*
X455478Y66221D01*
X455101Y66360D01*
X454720Y66489D01*
X454337Y66610D01*
X453950Y66721D01*
X453561Y66823D01*
X453170Y66915D01*
X452776Y66998D01*
X452381Y67071D01*
X451984Y67134D01*
X451585Y67188D01*
X451186Y67232D01*
X450785Y67266D01*
X450384Y67290D01*
X449982Y67305D01*
X449580Y67310D01*
D16*
X368935Y81280D02*
X368935Y86360D01*
X368937Y86471D01*
X368943Y86581D01*
X368952Y86692D01*
X368966Y86802D01*
X368983Y86911D01*
X369004Y87020D01*
X369029Y87128D01*
X369058Y87235D01*
X369090Y87341D01*
X369126Y87446D01*
X369166Y87549D01*
X369209Y87651D01*
X369256Y87752D01*
X369307Y87851D01*
X369360Y87947D01*
X369417Y88042D01*
X369478Y88135D01*
X369541Y88226D01*
X369608Y88315D01*
X369678Y88401D01*
X369751Y88484D01*
X369826Y88566D01*
X369904Y88644D01*
X369986Y88719D01*
X370069Y88792D01*
X370155Y88862D01*
X370244Y88929D01*
X370335Y88992D01*
X370428Y89053D01*
X370523Y89110D01*
X370619Y89163D01*
X370718Y89214D01*
X370819Y89261D01*
X370921Y89304D01*
X371024Y89344D01*
X371129Y89380D01*
X371235Y89412D01*
X371342Y89441D01*
X371450Y89466D01*
X371559Y89487D01*
X371668Y89504D01*
X371778Y89518D01*
X371889Y89527D01*
X371999Y89533D01*
X372110Y89535D01*
X372221Y89533D01*
X372331Y89527D01*
X372442Y89518D01*
X372552Y89504D01*
X372661Y89487D01*
X372770Y89466D01*
X372878Y89441D01*
X372985Y89412D01*
X373091Y89380D01*
X373196Y89344D01*
X373299Y89304D01*
X373401Y89261D01*
X373502Y89214D01*
X373601Y89163D01*
X373698Y89110D01*
X373792Y89053D01*
X373885Y88992D01*
X373976Y88929D01*
X374065Y88862D01*
X374151Y88792D01*
X374234Y88719D01*
X374316Y88644D01*
X374394Y88566D01*
X374469Y88484D01*
X374542Y88401D01*
X374612Y88315D01*
X374679Y88226D01*
X374742Y88135D01*
X374803Y88042D01*
X374860Y87948D01*
X374913Y87851D01*
X374964Y87752D01*
X375011Y87651D01*
X375054Y87549D01*
X375094Y87446D01*
X375130Y87341D01*
X375162Y87235D01*
X375191Y87128D01*
X375216Y87020D01*
X375237Y86911D01*
X375254Y86802D01*
X375268Y86692D01*
X375277Y86581D01*
X375283Y86471D01*
X375285Y86360D01*
X375285Y81280D01*
X375283Y81169D01*
X375277Y81059D01*
X375268Y80948D01*
X375254Y80838D01*
X375237Y80729D01*
X375216Y80620D01*
X375191Y80512D01*
X375162Y80405D01*
X375130Y80299D01*
X375094Y80194D01*
X375054Y80091D01*
X375011Y79989D01*
X374964Y79888D01*
X374913Y79789D01*
X374860Y79692D01*
X374803Y79598D01*
X374742Y79505D01*
X374679Y79414D01*
X374612Y79325D01*
X374542Y79239D01*
X374469Y79156D01*
X374394Y79074D01*
X374316Y78996D01*
X374234Y78921D01*
X374151Y78848D01*
X374065Y78778D01*
X373976Y78711D01*
X373885Y78648D01*
X373792Y78587D01*
X373697Y78530D01*
X373601Y78477D01*
X373502Y78426D01*
X373401Y78379D01*
X373299Y78336D01*
X373196Y78296D01*
X373091Y78260D01*
X372985Y78228D01*
X372878Y78199D01*
X372770Y78174D01*
X372661Y78153D01*
X372552Y78136D01*
X372442Y78122D01*
X372331Y78113D01*
X372221Y78107D01*
X372110Y78105D01*
X371999Y78107D01*
X371889Y78113D01*
X371778Y78122D01*
X371668Y78136D01*
X371559Y78153D01*
X371450Y78174D01*
X371342Y78199D01*
X371235Y78228D01*
X371129Y78260D01*
X371024Y78296D01*
X370921Y78336D01*
X370819Y78379D01*
X370718Y78426D01*
X370619Y78477D01*
X370523Y78530D01*
X370428Y78587D01*
X370335Y78648D01*
X370244Y78711D01*
X370155Y78778D01*
X370069Y78848D01*
X369986Y78921D01*
X369904Y78996D01*
X369826Y79074D01*
X369751Y79156D01*
X369678Y79239D01*
X369608Y79325D01*
X369541Y79414D01*
X369478Y79505D01*
X369417Y79598D01*
X369360Y79693D01*
X369307Y79789D01*
X369256Y79888D01*
X369209Y79989D01*
X369166Y80091D01*
X369126Y80194D01*
X369090Y80299D01*
X369058Y80405D01*
X369029Y80512D01*
X369004Y80620D01*
X368983Y80729D01*
X368966Y80838D01*
X368952Y80948D01*
X368943Y81059D01*
X368937Y81169D01*
X368935Y81280D01*
X374015Y80645D02*
X376555Y78105D01*
X379996Y86995D02*
X383171Y89535D01*
X383171Y78105D01*
X379996Y78105D02*
X386346Y78105D01*
D13*
X724408Y134045D02*
X736092Y134045D01*
X724408Y134045D02*
X724408Y137290D01*
X724410Y137403D01*
X724416Y137516D01*
X724426Y137629D01*
X724440Y137742D01*
X724457Y137854D01*
X724479Y137965D01*
X724504Y138075D01*
X724534Y138185D01*
X724567Y138293D01*
X724604Y138400D01*
X724644Y138506D01*
X724689Y138610D01*
X724737Y138713D01*
X724788Y138814D01*
X724843Y138913D01*
X724901Y139010D01*
X724963Y139105D01*
X725028Y139198D01*
X725096Y139288D01*
X725167Y139376D01*
X725242Y139462D01*
X725319Y139545D01*
X725399Y139625D01*
X725482Y139702D01*
X725568Y139777D01*
X725656Y139848D01*
X725746Y139916D01*
X725839Y139981D01*
X725934Y140043D01*
X726031Y140101D01*
X726130Y140156D01*
X726231Y140207D01*
X726334Y140255D01*
X726438Y140300D01*
X726544Y140340D01*
X726651Y140377D01*
X726759Y140410D01*
X726869Y140440D01*
X726979Y140465D01*
X727090Y140487D01*
X727202Y140504D01*
X727315Y140518D01*
X727428Y140528D01*
X727541Y140534D01*
X727654Y140536D01*
X727767Y140534D01*
X727880Y140528D01*
X727993Y140518D01*
X728106Y140504D01*
X728218Y140487D01*
X728329Y140465D01*
X728439Y140440D01*
X728549Y140410D01*
X728657Y140377D01*
X728764Y140340D01*
X728870Y140300D01*
X728974Y140255D01*
X729077Y140207D01*
X729178Y140156D01*
X729277Y140101D01*
X729374Y140043D01*
X729469Y139981D01*
X729562Y139916D01*
X729652Y139848D01*
X729740Y139777D01*
X729826Y139702D01*
X729909Y139625D01*
X729989Y139545D01*
X730066Y139462D01*
X730141Y139376D01*
X730212Y139288D01*
X730280Y139198D01*
X730345Y139105D01*
X730407Y139010D01*
X730465Y138913D01*
X730520Y138814D01*
X730571Y138713D01*
X730619Y138610D01*
X730664Y138506D01*
X730704Y138400D01*
X730741Y138293D01*
X730774Y138185D01*
X730804Y138075D01*
X730829Y137965D01*
X730851Y137854D01*
X730868Y137742D01*
X730882Y137629D01*
X730892Y137516D01*
X730898Y137403D01*
X730900Y137290D01*
X730899Y137290D02*
X730899Y134045D01*
X730899Y137939D02*
X736092Y140536D01*
X727004Y145401D02*
X724408Y148646D01*
X736092Y148646D01*
X736092Y145401D02*
X736092Y151892D01*
X826008Y134045D02*
X837692Y134045D01*
X826008Y134045D02*
X826008Y137290D01*
X826010Y137403D01*
X826016Y137516D01*
X826026Y137629D01*
X826040Y137742D01*
X826057Y137854D01*
X826079Y137965D01*
X826104Y138075D01*
X826134Y138185D01*
X826167Y138293D01*
X826204Y138400D01*
X826244Y138506D01*
X826289Y138610D01*
X826337Y138713D01*
X826388Y138814D01*
X826443Y138913D01*
X826501Y139010D01*
X826563Y139105D01*
X826628Y139198D01*
X826696Y139288D01*
X826767Y139376D01*
X826842Y139462D01*
X826919Y139545D01*
X826999Y139625D01*
X827082Y139702D01*
X827168Y139777D01*
X827256Y139848D01*
X827346Y139916D01*
X827439Y139981D01*
X827534Y140043D01*
X827631Y140101D01*
X827730Y140156D01*
X827831Y140207D01*
X827934Y140255D01*
X828038Y140300D01*
X828144Y140340D01*
X828251Y140377D01*
X828359Y140410D01*
X828469Y140440D01*
X828579Y140465D01*
X828690Y140487D01*
X828802Y140504D01*
X828915Y140518D01*
X829028Y140528D01*
X829141Y140534D01*
X829254Y140536D01*
X829367Y140534D01*
X829480Y140528D01*
X829593Y140518D01*
X829706Y140504D01*
X829818Y140487D01*
X829929Y140465D01*
X830039Y140440D01*
X830149Y140410D01*
X830257Y140377D01*
X830364Y140340D01*
X830470Y140300D01*
X830574Y140255D01*
X830677Y140207D01*
X830778Y140156D01*
X830877Y140101D01*
X830974Y140043D01*
X831069Y139981D01*
X831162Y139916D01*
X831252Y139848D01*
X831340Y139777D01*
X831426Y139702D01*
X831509Y139625D01*
X831589Y139545D01*
X831666Y139462D01*
X831741Y139376D01*
X831812Y139288D01*
X831880Y139198D01*
X831945Y139105D01*
X832007Y139010D01*
X832065Y138913D01*
X832120Y138814D01*
X832171Y138713D01*
X832219Y138610D01*
X832264Y138506D01*
X832304Y138400D01*
X832341Y138293D01*
X832374Y138185D01*
X832404Y138075D01*
X832429Y137965D01*
X832451Y137854D01*
X832468Y137742D01*
X832482Y137629D01*
X832492Y137516D01*
X832498Y137403D01*
X832500Y137290D01*
X832499Y137290D02*
X832499Y134045D01*
X832499Y137939D02*
X837692Y140536D01*
X828929Y151892D02*
X828822Y151890D01*
X828716Y151884D01*
X828610Y151874D01*
X828504Y151861D01*
X828398Y151843D01*
X828294Y151822D01*
X828190Y151797D01*
X828087Y151768D01*
X827986Y151736D01*
X827886Y151699D01*
X827787Y151659D01*
X827689Y151616D01*
X827593Y151569D01*
X827499Y151518D01*
X827407Y151464D01*
X827317Y151407D01*
X827229Y151347D01*
X827144Y151283D01*
X827061Y151216D01*
X826980Y151146D01*
X826902Y151074D01*
X826826Y150998D01*
X826754Y150920D01*
X826684Y150839D01*
X826617Y150756D01*
X826553Y150671D01*
X826493Y150583D01*
X826436Y150493D01*
X826382Y150401D01*
X826331Y150307D01*
X826284Y150211D01*
X826241Y150113D01*
X826201Y150014D01*
X826164Y149914D01*
X826132Y149813D01*
X826103Y149710D01*
X826078Y149606D01*
X826057Y149502D01*
X826039Y149396D01*
X826026Y149290D01*
X826016Y149184D01*
X826010Y149078D01*
X826008Y148971D01*
X826010Y148850D01*
X826016Y148729D01*
X826026Y148609D01*
X826039Y148488D01*
X826057Y148369D01*
X826078Y148249D01*
X826103Y148131D01*
X826132Y148014D01*
X826165Y147897D01*
X826201Y147782D01*
X826242Y147668D01*
X826285Y147555D01*
X826333Y147443D01*
X826384Y147334D01*
X826439Y147226D01*
X826497Y147119D01*
X826558Y147015D01*
X826623Y146913D01*
X826691Y146813D01*
X826762Y146715D01*
X826836Y146619D01*
X826913Y146526D01*
X826994Y146436D01*
X827077Y146348D01*
X827163Y146263D01*
X827252Y146180D01*
X827343Y146101D01*
X827437Y146024D01*
X827533Y145951D01*
X827631Y145881D01*
X827732Y145814D01*
X827835Y145750D01*
X827940Y145690D01*
X828047Y145632D01*
X828155Y145579D01*
X828265Y145529D01*
X828377Y145483D01*
X828490Y145440D01*
X828605Y145401D01*
X831201Y150918D02*
X831123Y150997D01*
X831043Y151073D01*
X830960Y151146D01*
X830874Y151216D01*
X830787Y151283D01*
X830696Y151347D01*
X830604Y151407D01*
X830510Y151465D01*
X830413Y151519D01*
X830315Y151569D01*
X830215Y151616D01*
X830114Y151660D01*
X830011Y151700D01*
X829906Y151736D01*
X829801Y151768D01*
X829694Y151797D01*
X829587Y151822D01*
X829478Y151844D01*
X829369Y151861D01*
X829260Y151875D01*
X829150Y151884D01*
X829039Y151890D01*
X828929Y151892D01*
X831201Y150918D02*
X837692Y145401D01*
X837692Y151892D01*
X927608Y134045D02*
X939292Y134045D01*
X927608Y134045D02*
X927608Y137290D01*
X927610Y137403D01*
X927616Y137516D01*
X927626Y137629D01*
X927640Y137742D01*
X927657Y137854D01*
X927679Y137965D01*
X927704Y138075D01*
X927734Y138185D01*
X927767Y138293D01*
X927804Y138400D01*
X927844Y138506D01*
X927889Y138610D01*
X927937Y138713D01*
X927988Y138814D01*
X928043Y138913D01*
X928101Y139010D01*
X928163Y139105D01*
X928228Y139198D01*
X928296Y139288D01*
X928367Y139376D01*
X928442Y139462D01*
X928519Y139545D01*
X928599Y139625D01*
X928682Y139702D01*
X928768Y139777D01*
X928856Y139848D01*
X928946Y139916D01*
X929039Y139981D01*
X929134Y140043D01*
X929231Y140101D01*
X929330Y140156D01*
X929431Y140207D01*
X929534Y140255D01*
X929638Y140300D01*
X929744Y140340D01*
X929851Y140377D01*
X929959Y140410D01*
X930069Y140440D01*
X930179Y140465D01*
X930290Y140487D01*
X930402Y140504D01*
X930515Y140518D01*
X930628Y140528D01*
X930741Y140534D01*
X930854Y140536D01*
X930967Y140534D01*
X931080Y140528D01*
X931193Y140518D01*
X931306Y140504D01*
X931418Y140487D01*
X931529Y140465D01*
X931639Y140440D01*
X931749Y140410D01*
X931857Y140377D01*
X931964Y140340D01*
X932070Y140300D01*
X932174Y140255D01*
X932277Y140207D01*
X932378Y140156D01*
X932477Y140101D01*
X932574Y140043D01*
X932669Y139981D01*
X932762Y139916D01*
X932852Y139848D01*
X932940Y139777D01*
X933026Y139702D01*
X933109Y139625D01*
X933189Y139545D01*
X933266Y139462D01*
X933341Y139376D01*
X933412Y139288D01*
X933480Y139198D01*
X933545Y139105D01*
X933607Y139010D01*
X933665Y138913D01*
X933720Y138814D01*
X933771Y138713D01*
X933819Y138610D01*
X933864Y138506D01*
X933904Y138400D01*
X933941Y138293D01*
X933974Y138185D01*
X934004Y138075D01*
X934029Y137965D01*
X934051Y137854D01*
X934068Y137742D01*
X934082Y137629D01*
X934092Y137516D01*
X934098Y137403D01*
X934100Y137290D01*
X934099Y137290D02*
X934099Y134045D01*
X934099Y137939D02*
X939292Y140536D01*
X939292Y145401D02*
X939292Y148646D01*
X939290Y148759D01*
X939284Y148872D01*
X939274Y148985D01*
X939260Y149098D01*
X939243Y149210D01*
X939221Y149321D01*
X939196Y149431D01*
X939166Y149541D01*
X939133Y149649D01*
X939096Y149756D01*
X939056Y149862D01*
X939011Y149966D01*
X938963Y150069D01*
X938912Y150170D01*
X938857Y150269D01*
X938799Y150366D01*
X938737Y150461D01*
X938672Y150554D01*
X938604Y150644D01*
X938533Y150732D01*
X938458Y150818D01*
X938381Y150901D01*
X938301Y150981D01*
X938218Y151058D01*
X938132Y151133D01*
X938044Y151204D01*
X937954Y151272D01*
X937861Y151337D01*
X937766Y151399D01*
X937669Y151457D01*
X937570Y151512D01*
X937469Y151563D01*
X937366Y151611D01*
X937262Y151656D01*
X937156Y151696D01*
X937049Y151733D01*
X936941Y151766D01*
X936831Y151796D01*
X936721Y151821D01*
X936610Y151843D01*
X936498Y151860D01*
X936385Y151874D01*
X936272Y151884D01*
X936159Y151890D01*
X936046Y151892D01*
X935933Y151890D01*
X935820Y151884D01*
X935707Y151874D01*
X935594Y151860D01*
X935482Y151843D01*
X935371Y151821D01*
X935261Y151796D01*
X935151Y151766D01*
X935043Y151733D01*
X934936Y151696D01*
X934830Y151656D01*
X934726Y151611D01*
X934623Y151563D01*
X934522Y151512D01*
X934423Y151457D01*
X934326Y151399D01*
X934231Y151337D01*
X934138Y151272D01*
X934048Y151204D01*
X933960Y151133D01*
X933874Y151058D01*
X933791Y150981D01*
X933711Y150901D01*
X933634Y150818D01*
X933559Y150732D01*
X933488Y150644D01*
X933420Y150554D01*
X933355Y150461D01*
X933293Y150366D01*
X933235Y150269D01*
X933180Y150170D01*
X933129Y150069D01*
X933081Y149966D01*
X933036Y149862D01*
X932996Y149756D01*
X932959Y149649D01*
X932926Y149541D01*
X932896Y149431D01*
X932871Y149321D01*
X932849Y149210D01*
X932832Y149098D01*
X932818Y148985D01*
X932808Y148872D01*
X932802Y148759D01*
X932800Y148646D01*
X927608Y149296D02*
X927608Y145401D01*
X927608Y149296D02*
X927610Y149397D01*
X927616Y149497D01*
X927626Y149597D01*
X927639Y149697D01*
X927657Y149796D01*
X927678Y149895D01*
X927703Y149992D01*
X927732Y150089D01*
X927765Y150184D01*
X927801Y150278D01*
X927841Y150370D01*
X927884Y150461D01*
X927931Y150550D01*
X927981Y150637D01*
X928035Y150723D01*
X928092Y150806D01*
X928152Y150886D01*
X928215Y150965D01*
X928282Y151041D01*
X928351Y151114D01*
X928423Y151184D01*
X928497Y151252D01*
X928574Y151317D01*
X928654Y151378D01*
X928736Y151437D01*
X928820Y151492D01*
X928906Y151544D01*
X928994Y151593D01*
X929084Y151638D01*
X929176Y151680D01*
X929269Y151718D01*
X929364Y151752D01*
X929459Y151783D01*
X929556Y151810D01*
X929654Y151833D01*
X929753Y151853D01*
X929853Y151868D01*
X929953Y151880D01*
X930053Y151888D01*
X930154Y151892D01*
X930254Y151892D01*
X930355Y151888D01*
X930455Y151880D01*
X930555Y151868D01*
X930655Y151853D01*
X930754Y151833D01*
X930852Y151810D01*
X930949Y151783D01*
X931044Y151752D01*
X931139Y151718D01*
X931232Y151680D01*
X931324Y151638D01*
X931414Y151593D01*
X931502Y151544D01*
X931588Y151492D01*
X931672Y151437D01*
X931754Y151378D01*
X931834Y151317D01*
X931911Y151252D01*
X931985Y151184D01*
X932057Y151114D01*
X932126Y151041D01*
X932193Y150965D01*
X932256Y150886D01*
X932316Y150806D01*
X932373Y150723D01*
X932427Y150637D01*
X932477Y150550D01*
X932524Y150461D01*
X932567Y150370D01*
X932607Y150278D01*
X932643Y150184D01*
X932676Y150089D01*
X932705Y149992D01*
X932730Y149895D01*
X932751Y149796D01*
X932769Y149697D01*
X932782Y149597D01*
X932792Y149497D01*
X932798Y149397D01*
X932800Y149296D01*
X932801Y149296D02*
X932801Y146699D01*
X736092Y286445D02*
X724408Y286445D01*
X724408Y289690D01*
X724410Y289803D01*
X724416Y289916D01*
X724426Y290029D01*
X724440Y290142D01*
X724457Y290254D01*
X724479Y290365D01*
X724504Y290475D01*
X724534Y290585D01*
X724567Y290693D01*
X724604Y290800D01*
X724644Y290906D01*
X724689Y291010D01*
X724737Y291113D01*
X724788Y291214D01*
X724843Y291313D01*
X724901Y291410D01*
X724963Y291505D01*
X725028Y291598D01*
X725096Y291688D01*
X725167Y291776D01*
X725242Y291862D01*
X725319Y291945D01*
X725399Y292025D01*
X725482Y292102D01*
X725568Y292177D01*
X725656Y292248D01*
X725746Y292316D01*
X725839Y292381D01*
X725934Y292443D01*
X726031Y292501D01*
X726130Y292556D01*
X726231Y292607D01*
X726334Y292655D01*
X726438Y292700D01*
X726544Y292740D01*
X726651Y292777D01*
X726759Y292810D01*
X726869Y292840D01*
X726979Y292865D01*
X727090Y292887D01*
X727202Y292904D01*
X727315Y292918D01*
X727428Y292928D01*
X727541Y292934D01*
X727654Y292936D01*
X727767Y292934D01*
X727880Y292928D01*
X727993Y292918D01*
X728106Y292904D01*
X728218Y292887D01*
X728329Y292865D01*
X728439Y292840D01*
X728549Y292810D01*
X728657Y292777D01*
X728764Y292740D01*
X728870Y292700D01*
X728974Y292655D01*
X729077Y292607D01*
X729178Y292556D01*
X729277Y292501D01*
X729374Y292443D01*
X729469Y292381D01*
X729562Y292316D01*
X729652Y292248D01*
X729740Y292177D01*
X729826Y292102D01*
X729909Y292025D01*
X729989Y291945D01*
X730066Y291862D01*
X730141Y291776D01*
X730212Y291688D01*
X730280Y291598D01*
X730345Y291505D01*
X730407Y291410D01*
X730465Y291313D01*
X730520Y291214D01*
X730571Y291113D01*
X730619Y291010D01*
X730664Y290906D01*
X730704Y290800D01*
X730741Y290693D01*
X730774Y290585D01*
X730804Y290475D01*
X730829Y290365D01*
X730851Y290254D01*
X730868Y290142D01*
X730882Y290029D01*
X730892Y289916D01*
X730898Y289803D01*
X730900Y289690D01*
X730899Y289690D02*
X730899Y286445D01*
X730899Y290339D02*
X736092Y292936D01*
X733496Y297801D02*
X724408Y300397D01*
X733496Y297801D02*
X733496Y304292D01*
X730899Y302345D02*
X736092Y302345D01*
X813308Y318008D02*
X813308Y329692D01*
X816554Y329692D01*
X816667Y329690D01*
X816780Y329684D01*
X816893Y329674D01*
X817006Y329660D01*
X817118Y329643D01*
X817229Y329621D01*
X817339Y329596D01*
X817449Y329566D01*
X817557Y329533D01*
X817664Y329496D01*
X817770Y329456D01*
X817874Y329411D01*
X817977Y329363D01*
X818078Y329312D01*
X818177Y329257D01*
X818274Y329199D01*
X818369Y329137D01*
X818462Y329072D01*
X818552Y329004D01*
X818640Y328933D01*
X818726Y328858D01*
X818809Y328781D01*
X818889Y328701D01*
X818966Y328618D01*
X819041Y328532D01*
X819112Y328444D01*
X819180Y328354D01*
X819245Y328261D01*
X819307Y328166D01*
X819365Y328069D01*
X819420Y327970D01*
X819471Y327869D01*
X819519Y327766D01*
X819564Y327662D01*
X819604Y327556D01*
X819641Y327449D01*
X819674Y327341D01*
X819704Y327231D01*
X819729Y327121D01*
X819751Y327010D01*
X819768Y326898D01*
X819782Y326785D01*
X819792Y326672D01*
X819798Y326559D01*
X819800Y326446D01*
X819798Y326333D01*
X819792Y326220D01*
X819782Y326107D01*
X819768Y325994D01*
X819751Y325882D01*
X819729Y325771D01*
X819704Y325661D01*
X819674Y325551D01*
X819641Y325443D01*
X819604Y325336D01*
X819564Y325230D01*
X819519Y325126D01*
X819471Y325023D01*
X819420Y324922D01*
X819365Y324823D01*
X819307Y324726D01*
X819245Y324631D01*
X819180Y324538D01*
X819112Y324448D01*
X819041Y324360D01*
X818966Y324274D01*
X818889Y324191D01*
X818809Y324111D01*
X818726Y324034D01*
X818640Y323959D01*
X818552Y323888D01*
X818462Y323820D01*
X818369Y323755D01*
X818274Y323693D01*
X818177Y323635D01*
X818078Y323580D01*
X817977Y323529D01*
X817874Y323481D01*
X817770Y323436D01*
X817664Y323396D01*
X817557Y323359D01*
X817449Y323326D01*
X817339Y323296D01*
X817229Y323271D01*
X817118Y323249D01*
X817006Y323232D01*
X816893Y323218D01*
X816780Y323208D01*
X816667Y323202D01*
X816554Y323200D01*
X816554Y323201D02*
X813308Y323201D01*
X817203Y323201D02*
X819799Y318008D01*
X824664Y318008D02*
X828559Y318008D01*
X828658Y318010D01*
X828758Y318016D01*
X828857Y318025D01*
X828955Y318038D01*
X829053Y318055D01*
X829151Y318076D01*
X829247Y318101D01*
X829342Y318129D01*
X829436Y318161D01*
X829529Y318196D01*
X829621Y318235D01*
X829711Y318278D01*
X829799Y318323D01*
X829886Y318373D01*
X829970Y318425D01*
X830053Y318481D01*
X830133Y318539D01*
X830211Y318601D01*
X830286Y318666D01*
X830359Y318734D01*
X830429Y318804D01*
X830497Y318877D01*
X830562Y318952D01*
X830624Y319030D01*
X830682Y319110D01*
X830738Y319193D01*
X830790Y319277D01*
X830840Y319364D01*
X830885Y319452D01*
X830928Y319542D01*
X830967Y319634D01*
X831002Y319727D01*
X831034Y319821D01*
X831062Y319916D01*
X831087Y320012D01*
X831108Y320110D01*
X831125Y320208D01*
X831138Y320306D01*
X831147Y320405D01*
X831153Y320505D01*
X831155Y320604D01*
X831155Y321903D01*
X831153Y322002D01*
X831147Y322102D01*
X831138Y322201D01*
X831125Y322299D01*
X831108Y322397D01*
X831087Y322495D01*
X831062Y322591D01*
X831034Y322686D01*
X831002Y322780D01*
X830967Y322873D01*
X830928Y322965D01*
X830885Y323055D01*
X830840Y323143D01*
X830790Y323230D01*
X830738Y323314D01*
X830682Y323397D01*
X830624Y323477D01*
X830562Y323555D01*
X830497Y323630D01*
X830429Y323703D01*
X830359Y323773D01*
X830286Y323841D01*
X830211Y323906D01*
X830133Y323968D01*
X830053Y324026D01*
X829970Y324082D01*
X829886Y324134D01*
X829799Y324184D01*
X829711Y324229D01*
X829621Y324272D01*
X829529Y324311D01*
X829436Y324346D01*
X829342Y324378D01*
X829247Y324406D01*
X829151Y324431D01*
X829053Y324452D01*
X828955Y324469D01*
X828857Y324482D01*
X828758Y324491D01*
X828658Y324497D01*
X828559Y324499D01*
X824664Y324499D01*
X824664Y329692D01*
X831155Y329692D01*
X927608Y286445D02*
X939292Y286445D01*
X927608Y286445D02*
X927608Y289690D01*
X927610Y289803D01*
X927616Y289916D01*
X927626Y290029D01*
X927640Y290142D01*
X927657Y290254D01*
X927679Y290365D01*
X927704Y290475D01*
X927734Y290585D01*
X927767Y290693D01*
X927804Y290800D01*
X927844Y290906D01*
X927889Y291010D01*
X927937Y291113D01*
X927988Y291214D01*
X928043Y291313D01*
X928101Y291410D01*
X928163Y291505D01*
X928228Y291598D01*
X928296Y291688D01*
X928367Y291776D01*
X928442Y291862D01*
X928519Y291945D01*
X928599Y292025D01*
X928682Y292102D01*
X928768Y292177D01*
X928856Y292248D01*
X928946Y292316D01*
X929039Y292381D01*
X929134Y292443D01*
X929231Y292501D01*
X929330Y292556D01*
X929431Y292607D01*
X929534Y292655D01*
X929638Y292700D01*
X929744Y292740D01*
X929851Y292777D01*
X929959Y292810D01*
X930069Y292840D01*
X930179Y292865D01*
X930290Y292887D01*
X930402Y292904D01*
X930515Y292918D01*
X930628Y292928D01*
X930741Y292934D01*
X930854Y292936D01*
X930967Y292934D01*
X931080Y292928D01*
X931193Y292918D01*
X931306Y292904D01*
X931418Y292887D01*
X931529Y292865D01*
X931639Y292840D01*
X931749Y292810D01*
X931857Y292777D01*
X931964Y292740D01*
X932070Y292700D01*
X932174Y292655D01*
X932277Y292607D01*
X932378Y292556D01*
X932477Y292501D01*
X932574Y292443D01*
X932669Y292381D01*
X932762Y292316D01*
X932852Y292248D01*
X932940Y292177D01*
X933026Y292102D01*
X933109Y292025D01*
X933189Y291945D01*
X933266Y291862D01*
X933341Y291776D01*
X933412Y291688D01*
X933480Y291598D01*
X933545Y291505D01*
X933607Y291410D01*
X933665Y291313D01*
X933720Y291214D01*
X933771Y291113D01*
X933819Y291010D01*
X933864Y290906D01*
X933904Y290800D01*
X933941Y290693D01*
X933974Y290585D01*
X934004Y290475D01*
X934029Y290365D01*
X934051Y290254D01*
X934068Y290142D01*
X934082Y290029D01*
X934092Y289916D01*
X934098Y289803D01*
X934100Y289690D01*
X934099Y289690D02*
X934099Y286445D01*
X934099Y290339D02*
X939292Y292936D01*
X932801Y297801D02*
X932801Y301696D01*
X932803Y301795D01*
X932809Y301895D01*
X932818Y301994D01*
X932831Y302092D01*
X932848Y302190D01*
X932869Y302288D01*
X932894Y302384D01*
X932922Y302479D01*
X932954Y302573D01*
X932989Y302666D01*
X933028Y302758D01*
X933071Y302848D01*
X933116Y302936D01*
X933166Y303023D01*
X933218Y303107D01*
X933274Y303190D01*
X933332Y303270D01*
X933394Y303348D01*
X933459Y303423D01*
X933527Y303496D01*
X933597Y303566D01*
X933670Y303634D01*
X933745Y303699D01*
X933823Y303761D01*
X933903Y303819D01*
X933986Y303875D01*
X934070Y303927D01*
X934157Y303977D01*
X934245Y304022D01*
X934335Y304065D01*
X934427Y304104D01*
X934520Y304139D01*
X934614Y304171D01*
X934709Y304199D01*
X934805Y304224D01*
X934903Y304245D01*
X935001Y304262D01*
X935099Y304275D01*
X935198Y304284D01*
X935298Y304290D01*
X935397Y304292D01*
X936046Y304292D01*
X936159Y304290D01*
X936272Y304284D01*
X936385Y304274D01*
X936498Y304260D01*
X936610Y304243D01*
X936721Y304221D01*
X936831Y304196D01*
X936941Y304166D01*
X937049Y304133D01*
X937156Y304096D01*
X937262Y304056D01*
X937366Y304011D01*
X937469Y303963D01*
X937570Y303912D01*
X937669Y303857D01*
X937766Y303799D01*
X937861Y303737D01*
X937954Y303672D01*
X938044Y303604D01*
X938132Y303533D01*
X938218Y303458D01*
X938301Y303381D01*
X938381Y303301D01*
X938458Y303218D01*
X938533Y303132D01*
X938604Y303044D01*
X938672Y302954D01*
X938737Y302861D01*
X938799Y302766D01*
X938857Y302669D01*
X938912Y302570D01*
X938963Y302469D01*
X939011Y302366D01*
X939056Y302262D01*
X939096Y302156D01*
X939133Y302049D01*
X939166Y301941D01*
X939196Y301831D01*
X939221Y301721D01*
X939243Y301610D01*
X939260Y301498D01*
X939274Y301385D01*
X939284Y301272D01*
X939290Y301159D01*
X939292Y301046D01*
X939290Y300933D01*
X939284Y300820D01*
X939274Y300707D01*
X939260Y300594D01*
X939243Y300482D01*
X939221Y300371D01*
X939196Y300261D01*
X939166Y300151D01*
X939133Y300043D01*
X939096Y299936D01*
X939056Y299830D01*
X939011Y299726D01*
X938963Y299623D01*
X938912Y299522D01*
X938857Y299423D01*
X938799Y299326D01*
X938737Y299231D01*
X938672Y299138D01*
X938604Y299048D01*
X938533Y298960D01*
X938458Y298874D01*
X938381Y298791D01*
X938301Y298711D01*
X938218Y298634D01*
X938132Y298559D01*
X938044Y298488D01*
X937954Y298420D01*
X937861Y298355D01*
X937766Y298293D01*
X937669Y298235D01*
X937570Y298180D01*
X937469Y298129D01*
X937366Y298081D01*
X937262Y298036D01*
X937156Y297996D01*
X937049Y297959D01*
X936941Y297926D01*
X936831Y297896D01*
X936721Y297871D01*
X936610Y297849D01*
X936498Y297832D01*
X936385Y297818D01*
X936272Y297808D01*
X936159Y297802D01*
X936046Y297800D01*
X936046Y297801D02*
X932801Y297801D01*
X932658Y297803D01*
X932515Y297809D01*
X932372Y297819D01*
X932230Y297833D01*
X932088Y297850D01*
X931946Y297872D01*
X931805Y297897D01*
X931665Y297927D01*
X931526Y297960D01*
X931388Y297997D01*
X931251Y298038D01*
X931115Y298082D01*
X930980Y298131D01*
X930847Y298183D01*
X930715Y298238D01*
X930585Y298298D01*
X930456Y298361D01*
X930329Y298427D01*
X930205Y298497D01*
X930082Y298570D01*
X929961Y298647D01*
X929842Y298726D01*
X929726Y298810D01*
X929611Y298896D01*
X929500Y298985D01*
X929391Y299078D01*
X929284Y299173D01*
X929180Y299272D01*
X929079Y299373D01*
X928980Y299477D01*
X928885Y299583D01*
X928792Y299693D01*
X928703Y299804D01*
X928617Y299918D01*
X928534Y300035D01*
X928454Y300154D01*
X928377Y300275D01*
X928304Y300397D01*
X928234Y300522D01*
X928168Y300649D01*
X928105Y300778D01*
X928045Y300908D01*
X927990Y301040D01*
X927938Y301173D01*
X927889Y301308D01*
X927845Y301444D01*
X927804Y301581D01*
X927767Y301719D01*
X927734Y301858D01*
X927704Y301998D01*
X927679Y302139D01*
X927657Y302281D01*
X927640Y302423D01*
X927626Y302565D01*
X927616Y302708D01*
X927610Y302851D01*
X927608Y302994D01*
X769045Y240792D02*
X769045Y229108D01*
X769045Y240792D02*
X772290Y240792D01*
X772403Y240790D01*
X772516Y240784D01*
X772629Y240774D01*
X772742Y240760D01*
X772854Y240743D01*
X772965Y240721D01*
X773075Y240696D01*
X773185Y240666D01*
X773293Y240633D01*
X773400Y240596D01*
X773506Y240556D01*
X773610Y240511D01*
X773713Y240463D01*
X773814Y240412D01*
X773913Y240357D01*
X774010Y240299D01*
X774105Y240237D01*
X774198Y240172D01*
X774288Y240104D01*
X774376Y240033D01*
X774462Y239958D01*
X774545Y239881D01*
X774625Y239801D01*
X774702Y239718D01*
X774777Y239632D01*
X774848Y239544D01*
X774916Y239454D01*
X774981Y239361D01*
X775043Y239266D01*
X775101Y239169D01*
X775156Y239070D01*
X775207Y238969D01*
X775255Y238866D01*
X775300Y238762D01*
X775340Y238656D01*
X775377Y238549D01*
X775410Y238441D01*
X775440Y238331D01*
X775465Y238221D01*
X775487Y238110D01*
X775504Y237998D01*
X775518Y237885D01*
X775528Y237772D01*
X775534Y237659D01*
X775536Y237546D01*
X775534Y237433D01*
X775528Y237320D01*
X775518Y237207D01*
X775504Y237094D01*
X775487Y236982D01*
X775465Y236871D01*
X775440Y236761D01*
X775410Y236651D01*
X775377Y236543D01*
X775340Y236436D01*
X775300Y236330D01*
X775255Y236226D01*
X775207Y236123D01*
X775156Y236022D01*
X775101Y235923D01*
X775043Y235826D01*
X774981Y235731D01*
X774916Y235638D01*
X774848Y235548D01*
X774777Y235460D01*
X774702Y235374D01*
X774625Y235291D01*
X774545Y235211D01*
X774462Y235134D01*
X774376Y235059D01*
X774288Y234988D01*
X774198Y234920D01*
X774105Y234855D01*
X774010Y234793D01*
X773913Y234735D01*
X773814Y234680D01*
X773713Y234629D01*
X773610Y234581D01*
X773506Y234536D01*
X773400Y234496D01*
X773293Y234459D01*
X773185Y234426D01*
X773075Y234396D01*
X772965Y234371D01*
X772854Y234349D01*
X772742Y234332D01*
X772629Y234318D01*
X772516Y234308D01*
X772403Y234302D01*
X772290Y234300D01*
X772290Y234301D02*
X769045Y234301D01*
X772939Y234301D02*
X775536Y229108D01*
X780401Y239494D02*
X780401Y240792D01*
X786892Y240792D01*
X783646Y229108D01*
X473004Y424801D02*
X470408Y428046D01*
X482092Y428046D01*
X482092Y424801D02*
X482092Y431292D01*
X456837Y463964D02*
X456837Y472402D01*
X456837Y463964D02*
X456839Y463851D01*
X456845Y463738D01*
X456855Y463625D01*
X456869Y463512D01*
X456886Y463400D01*
X456908Y463289D01*
X456933Y463179D01*
X456963Y463069D01*
X456996Y462961D01*
X457033Y462854D01*
X457073Y462748D01*
X457118Y462644D01*
X457166Y462541D01*
X457217Y462440D01*
X457272Y462341D01*
X457330Y462244D01*
X457392Y462149D01*
X457457Y462056D01*
X457525Y461966D01*
X457596Y461878D01*
X457671Y461792D01*
X457748Y461709D01*
X457828Y461629D01*
X457911Y461552D01*
X457997Y461477D01*
X458085Y461406D01*
X458175Y461338D01*
X458268Y461273D01*
X458363Y461211D01*
X458460Y461153D01*
X458559Y461098D01*
X458660Y461047D01*
X458763Y460999D01*
X458867Y460954D01*
X458973Y460914D01*
X459080Y460877D01*
X459188Y460844D01*
X459298Y460814D01*
X459408Y460789D01*
X459519Y460767D01*
X459631Y460750D01*
X459744Y460736D01*
X459857Y460726D01*
X459970Y460720D01*
X460083Y460718D01*
X460196Y460720D01*
X460309Y460726D01*
X460422Y460736D01*
X460535Y460750D01*
X460647Y460767D01*
X460758Y460789D01*
X460868Y460814D01*
X460978Y460844D01*
X461086Y460877D01*
X461193Y460914D01*
X461299Y460954D01*
X461403Y460999D01*
X461506Y461047D01*
X461607Y461098D01*
X461706Y461153D01*
X461803Y461211D01*
X461898Y461273D01*
X461991Y461338D01*
X462081Y461406D01*
X462169Y461477D01*
X462255Y461552D01*
X462338Y461629D01*
X462418Y461709D01*
X462495Y461792D01*
X462570Y461878D01*
X462641Y461966D01*
X462709Y462056D01*
X462774Y462149D01*
X462836Y462244D01*
X462894Y462341D01*
X462949Y462440D01*
X463000Y462541D01*
X463048Y462644D01*
X463093Y462748D01*
X463133Y462854D01*
X463170Y462961D01*
X463203Y463069D01*
X463233Y463179D01*
X463258Y463289D01*
X463280Y463400D01*
X463297Y463512D01*
X463311Y463625D01*
X463321Y463738D01*
X463327Y463851D01*
X463329Y463964D01*
X463328Y463964D02*
X463328Y472402D01*
X471132Y472402D02*
X471132Y460718D01*
X471132Y466560D02*
X469509Y467534D01*
X469508Y467533D02*
X469435Y467580D01*
X469364Y467629D01*
X469294Y467682D01*
X469228Y467738D01*
X469164Y467797D01*
X469102Y467858D01*
X469044Y467922D01*
X468988Y467989D01*
X468936Y468058D01*
X468886Y468130D01*
X468840Y468204D01*
X468797Y468279D01*
X468758Y468357D01*
X468722Y468436D01*
X468690Y468517D01*
X468661Y468599D01*
X468636Y468682D01*
X468615Y468766D01*
X468598Y468851D01*
X468584Y468937D01*
X468575Y469023D01*
X468569Y469110D01*
X468567Y469197D01*
X468569Y469284D01*
X468575Y469371D01*
X468585Y469457D01*
X468598Y469543D01*
X468616Y469628D01*
X468637Y469712D01*
X468662Y469795D01*
X468691Y469878D01*
X468723Y469958D01*
X468759Y470037D01*
X468798Y470115D01*
X468841Y470190D01*
X468888Y470264D01*
X468937Y470335D01*
X468990Y470405D01*
X469045Y470471D01*
X469104Y470535D01*
X469165Y470597D01*
X469230Y470656D01*
X469296Y470711D01*
X469365Y470764D01*
X469437Y470814D01*
X469510Y470860D01*
X469586Y470903D01*
X469663Y470942D01*
X469742Y470978D01*
X469823Y471011D01*
X469905Y471039D01*
X469988Y471065D01*
X470072Y471086D01*
X470158Y471103D01*
X470158Y471104D02*
X470298Y471128D01*
X470440Y471148D01*
X470581Y471164D01*
X470723Y471175D01*
X470866Y471183D01*
X471008Y471187D01*
X471151Y471188D01*
X471294Y471184D01*
X471436Y471176D01*
X471578Y471164D01*
X471720Y471148D01*
X471861Y471129D01*
X472002Y471105D01*
X472142Y471078D01*
X472281Y471046D01*
X472419Y471011D01*
X472557Y470972D01*
X472693Y470929D01*
X472827Y470883D01*
X472961Y470832D01*
X473093Y470779D01*
X473223Y470721D01*
X473352Y470660D01*
X473479Y470595D01*
X473605Y470527D01*
X473728Y470455D01*
X471132Y466560D02*
X472754Y465586D01*
X472755Y465587D02*
X472828Y465540D01*
X472899Y465491D01*
X472969Y465438D01*
X473035Y465382D01*
X473099Y465323D01*
X473161Y465262D01*
X473219Y465198D01*
X473275Y465131D01*
X473327Y465062D01*
X473377Y464990D01*
X473423Y464916D01*
X473466Y464841D01*
X473505Y464763D01*
X473541Y464684D01*
X473573Y464603D01*
X473602Y464521D01*
X473627Y464438D01*
X473648Y464354D01*
X473665Y464269D01*
X473679Y464183D01*
X473688Y464097D01*
X473694Y464010D01*
X473696Y463923D01*
X473694Y463836D01*
X473688Y463749D01*
X473678Y463663D01*
X473665Y463577D01*
X473647Y463492D01*
X473626Y463408D01*
X473601Y463325D01*
X473572Y463242D01*
X473540Y463162D01*
X473504Y463083D01*
X473465Y463005D01*
X473422Y462930D01*
X473375Y462856D01*
X473326Y462785D01*
X473273Y462715D01*
X473218Y462649D01*
X473159Y462585D01*
X473098Y462523D01*
X473033Y462464D01*
X472967Y462409D01*
X472898Y462356D01*
X472826Y462306D01*
X472753Y462260D01*
X472677Y462217D01*
X472600Y462178D01*
X472521Y462142D01*
X472440Y462109D01*
X472358Y462081D01*
X472275Y462055D01*
X472191Y462034D01*
X472106Y462017D01*
X472105Y462016D02*
X471965Y461992D01*
X471823Y461972D01*
X471682Y461956D01*
X471540Y461945D01*
X471397Y461937D01*
X471255Y461933D01*
X471112Y461932D01*
X470969Y461936D01*
X470827Y461944D01*
X470685Y461956D01*
X470543Y461972D01*
X470402Y461991D01*
X470261Y462015D01*
X470121Y462042D01*
X469982Y462074D01*
X469844Y462109D01*
X469706Y462148D01*
X469570Y462191D01*
X469436Y462237D01*
X469302Y462288D01*
X469170Y462341D01*
X469040Y462399D01*
X468911Y462460D01*
X468784Y462525D01*
X468658Y462593D01*
X468535Y462665D01*
X478554Y469806D02*
X481800Y472402D01*
X481800Y460718D01*
X485045Y460718D02*
X478554Y460718D01*
M02*
