G04 EAGLE Gerber RS-274X export*
G75*
%MOMM*%
%FSLAX34Y34*%
%LPD*%
%INSolderpaste Top*%
%IPPOS*%
%AMOC8*
5,1,8,0,0,1.08239X$1,22.5*%
G01*
%ADD10R,5.100000X2.500000*%
%ADD11C,17.800000*%
%ADD12R,1.300000X1.500000*%
%ADD13R,1.500000X0.600000*%
%ADD14R,0.600000X1.500000*%
%ADD15R,1.200000X1.200000*%
%ADD16R,1.600000X1.300000*%
%ADD17R,1.300000X1.600000*%
%ADD18R,2.200000X1.200000*%


D10*
X139700Y177600D03*
X139700Y406600D03*
D11*
X139700Y292100D03*
D12*
X415900Y114300D03*
X396900Y114300D03*
X447700Y114300D03*
X466700Y114300D03*
D13*
X465500Y243900D03*
X465500Y235900D03*
X465500Y227900D03*
X465500Y219900D03*
X465500Y211900D03*
X465500Y203900D03*
X465500Y195900D03*
X465500Y187900D03*
D14*
X480000Y173400D03*
X488000Y173400D03*
X496000Y173400D03*
X504000Y173400D03*
X512000Y173400D03*
X520000Y173400D03*
X528000Y173400D03*
X536000Y173400D03*
D13*
X550500Y187900D03*
X550500Y195900D03*
X550500Y203900D03*
X550500Y211900D03*
X550500Y219900D03*
X550500Y227900D03*
X550500Y235900D03*
X550500Y243900D03*
D14*
X536000Y258400D03*
X528000Y258400D03*
X520000Y258400D03*
X512000Y258400D03*
X504000Y258400D03*
X496000Y258400D03*
X488000Y258400D03*
X480000Y258400D03*
D15*
X711200Y201000D03*
X711200Y180000D03*
X812800Y201000D03*
X812800Y180000D03*
X914400Y201000D03*
X914400Y180000D03*
X711200Y353400D03*
X711200Y332400D03*
X812800Y353400D03*
X812800Y332400D03*
X914400Y353400D03*
X914400Y332400D03*
X812800Y277200D03*
X812800Y256200D03*
D16*
X711200Y149200D03*
X711200Y130200D03*
X812800Y149200D03*
X812800Y130200D03*
X914400Y149200D03*
X914400Y130200D03*
X711200Y301600D03*
X711200Y282600D03*
D17*
X816000Y304800D03*
X835000Y304800D03*
D16*
X914400Y301600D03*
X914400Y282600D03*
D17*
X784200Y254000D03*
X765200Y254000D03*
D18*
X449680Y431800D03*
X449680Y406400D03*
X449680Y381000D03*
X449680Y355600D03*
X558700Y355600D03*
X558700Y381000D03*
X558700Y406400D03*
X558700Y431800D03*
M02*
