M48
;GenerationSoftware,Autodesk,EAGLE,9.6.2*%
;CreationDate,2020-11-26T21:58:39Z*%
FMAT,2
ICI,OFF
METRIC,TZ,000.000
T2C0.381
T1C1.016
%
G90
M71
T1
X30810Y4648
X30810Y7188
X28270Y4648
X28270Y7188
X25730Y4648
X25730Y7188
X6020Y21133
X6020Y23673
X9373Y32817
T2
X34950Y34849
X28016Y18974
X22327Y23292
X26721Y24003
X29032Y23317
X50876Y19050
X19406Y18948
X54559Y4445
X46228Y11938
X23724Y18161
X24359Y15240
X35560Y25121
X25933Y14173
X42621Y14986
X27000Y8534
X30048Y10820
X22936Y5994
X25095Y23114
X27102Y9703
X32207Y9677
M30