G04 EAGLE Gerber RS-274X export*
G75*
%MOMM*%
%FSLAX34Y34*%
%LPD*%
%INSilkscreen Top*%
%IPPOS*%
%AMOC8*
5,1,8,0,0,1.08239X$1,22.5*%
G01*
%ADD10C,0.076200*%
%ADD11C,0.127000*%
%ADD12C,0.152400*%
%ADD13R,0.200000X0.200000*%
%ADD14C,0.101600*%
%ADD15C,0.508000*%
%ADD16C,0.200000*%


D10*
X430657Y89098D02*
X430657Y93274D01*
X430659Y93375D01*
X430665Y93476D01*
X430675Y93577D01*
X430688Y93677D01*
X430706Y93777D01*
X430727Y93876D01*
X430753Y93974D01*
X430782Y94071D01*
X430814Y94167D01*
X430851Y94261D01*
X430891Y94354D01*
X430935Y94446D01*
X430982Y94535D01*
X431033Y94623D01*
X431087Y94709D01*
X431144Y94792D01*
X431204Y94874D01*
X431268Y94952D01*
X431334Y95029D01*
X431404Y95102D01*
X431476Y95173D01*
X431551Y95241D01*
X431629Y95306D01*
X431709Y95368D01*
X431791Y95427D01*
X431876Y95483D01*
X431963Y95535D01*
X432051Y95584D01*
X432142Y95630D01*
X432234Y95671D01*
X432328Y95710D01*
X432423Y95744D01*
X432519Y95775D01*
X432617Y95802D01*
X432715Y95826D01*
X432815Y95845D01*
X432915Y95861D01*
X433015Y95873D01*
X433116Y95881D01*
X433217Y95885D01*
X433319Y95885D01*
X433420Y95881D01*
X433521Y95873D01*
X433621Y95861D01*
X433721Y95845D01*
X433821Y95826D01*
X433919Y95802D01*
X434017Y95775D01*
X434113Y95744D01*
X434208Y95710D01*
X434302Y95671D01*
X434394Y95630D01*
X434485Y95584D01*
X434574Y95535D01*
X434660Y95483D01*
X434745Y95427D01*
X434827Y95368D01*
X434907Y95306D01*
X434985Y95241D01*
X435060Y95173D01*
X435132Y95102D01*
X435202Y95029D01*
X435268Y94952D01*
X435332Y94874D01*
X435392Y94792D01*
X435449Y94709D01*
X435503Y94623D01*
X435554Y94535D01*
X435601Y94446D01*
X435645Y94354D01*
X435685Y94261D01*
X435722Y94167D01*
X435754Y94071D01*
X435783Y93974D01*
X435809Y93876D01*
X435830Y93777D01*
X435848Y93677D01*
X435861Y93577D01*
X435871Y93476D01*
X435877Y93375D01*
X435879Y93274D01*
X435878Y93274D02*
X435878Y89098D01*
X435879Y89098D02*
X435877Y88997D01*
X435871Y88896D01*
X435861Y88795D01*
X435848Y88695D01*
X435830Y88595D01*
X435809Y88496D01*
X435783Y88398D01*
X435754Y88301D01*
X435722Y88205D01*
X435685Y88111D01*
X435645Y88018D01*
X435601Y87926D01*
X435554Y87837D01*
X435503Y87749D01*
X435449Y87663D01*
X435392Y87580D01*
X435332Y87498D01*
X435268Y87420D01*
X435202Y87343D01*
X435132Y87270D01*
X435060Y87199D01*
X434985Y87131D01*
X434907Y87066D01*
X434827Y87004D01*
X434745Y86945D01*
X434660Y86889D01*
X434573Y86837D01*
X434485Y86788D01*
X434394Y86742D01*
X434302Y86701D01*
X434208Y86662D01*
X434113Y86628D01*
X434017Y86597D01*
X433919Y86570D01*
X433821Y86546D01*
X433721Y86527D01*
X433621Y86511D01*
X433521Y86499D01*
X433420Y86491D01*
X433319Y86487D01*
X433217Y86487D01*
X433116Y86491D01*
X433015Y86499D01*
X432915Y86511D01*
X432815Y86527D01*
X432715Y86546D01*
X432617Y86570D01*
X432519Y86597D01*
X432423Y86628D01*
X432328Y86662D01*
X432234Y86701D01*
X432142Y86742D01*
X432051Y86788D01*
X431963Y86837D01*
X431876Y86889D01*
X431791Y86945D01*
X431709Y87004D01*
X431629Y87066D01*
X431551Y87131D01*
X431476Y87199D01*
X431404Y87270D01*
X431334Y87343D01*
X431268Y87420D01*
X431204Y87498D01*
X431144Y87580D01*
X431087Y87663D01*
X431033Y87749D01*
X430982Y87837D01*
X430935Y87926D01*
X430891Y88018D01*
X430851Y88111D01*
X430814Y88205D01*
X430782Y88301D01*
X430753Y88398D01*
X430727Y88496D01*
X430706Y88595D01*
X430688Y88695D01*
X430675Y88795D01*
X430665Y88896D01*
X430659Y88997D01*
X430657Y89098D01*
X434834Y88575D02*
X436922Y86487D01*
X439806Y88053D02*
X439806Y92752D01*
X439806Y88053D02*
X439808Y87976D01*
X439814Y87900D01*
X439823Y87823D01*
X439836Y87747D01*
X439853Y87672D01*
X439873Y87598D01*
X439898Y87525D01*
X439925Y87454D01*
X439956Y87383D01*
X439991Y87315D01*
X440029Y87248D01*
X440070Y87183D01*
X440114Y87120D01*
X440161Y87060D01*
X440212Y87001D01*
X440265Y86946D01*
X440320Y86893D01*
X440379Y86842D01*
X440439Y86795D01*
X440502Y86751D01*
X440567Y86710D01*
X440634Y86672D01*
X440702Y86637D01*
X440773Y86606D01*
X440844Y86579D01*
X440917Y86554D01*
X440991Y86534D01*
X441066Y86517D01*
X441142Y86504D01*
X441219Y86495D01*
X441295Y86489D01*
X441372Y86487D01*
X443983Y86487D01*
X443983Y92752D01*
X447991Y92752D02*
X447991Y86487D01*
X447729Y95363D02*
X447729Y95885D01*
X448252Y95885D01*
X448252Y95363D01*
X447729Y95363D01*
X451998Y92752D02*
X451998Y86487D01*
X451998Y92752D02*
X454609Y92752D01*
X454686Y92750D01*
X454762Y92744D01*
X454839Y92735D01*
X454915Y92722D01*
X454990Y92705D01*
X455064Y92685D01*
X455137Y92660D01*
X455208Y92633D01*
X455279Y92602D01*
X455347Y92567D01*
X455414Y92529D01*
X455479Y92488D01*
X455542Y92444D01*
X455602Y92397D01*
X455661Y92346D01*
X455716Y92293D01*
X455769Y92238D01*
X455820Y92179D01*
X455867Y92119D01*
X455911Y92056D01*
X455952Y91991D01*
X455990Y91924D01*
X456025Y91856D01*
X456056Y91785D01*
X456083Y91714D01*
X456108Y91641D01*
X456128Y91567D01*
X456145Y91492D01*
X456158Y91416D01*
X456167Y91340D01*
X456173Y91263D01*
X456175Y91186D01*
X456175Y86487D01*
X459459Y92752D02*
X462592Y92752D01*
X460503Y95885D02*
X460503Y88053D01*
X460505Y87976D01*
X460511Y87900D01*
X460520Y87823D01*
X460533Y87747D01*
X460550Y87672D01*
X460570Y87598D01*
X460595Y87525D01*
X460622Y87454D01*
X460653Y87383D01*
X460688Y87315D01*
X460726Y87248D01*
X460767Y87183D01*
X460811Y87120D01*
X460858Y87060D01*
X460909Y87001D01*
X460962Y86946D01*
X461017Y86893D01*
X461076Y86842D01*
X461136Y86795D01*
X461199Y86751D01*
X461264Y86710D01*
X461331Y86672D01*
X461399Y86637D01*
X461470Y86606D01*
X461541Y86579D01*
X461614Y86554D01*
X461688Y86534D01*
X461763Y86517D01*
X461839Y86504D01*
X461916Y86495D01*
X461992Y86489D01*
X462069Y86487D01*
X462592Y86487D01*
X465974Y86487D02*
X465974Y92752D01*
X465713Y95363D02*
X465713Y95885D01*
X466235Y95885D01*
X466235Y95363D01*
X465713Y95363D01*
X469981Y92752D02*
X469981Y86487D01*
X469981Y92752D02*
X472592Y92752D01*
X472669Y92750D01*
X472745Y92744D01*
X472822Y92735D01*
X472898Y92722D01*
X472973Y92705D01*
X473047Y92685D01*
X473120Y92660D01*
X473191Y92633D01*
X473262Y92602D01*
X473330Y92567D01*
X473397Y92529D01*
X473462Y92488D01*
X473525Y92444D01*
X473585Y92397D01*
X473644Y92346D01*
X473699Y92293D01*
X473752Y92238D01*
X473803Y92179D01*
X473850Y92119D01*
X473894Y92056D01*
X473935Y91991D01*
X473973Y91924D01*
X474008Y91856D01*
X474039Y91785D01*
X474066Y91714D01*
X474091Y91641D01*
X474111Y91567D01*
X474128Y91492D01*
X474141Y91416D01*
X474150Y91340D01*
X474156Y91263D01*
X474158Y91186D01*
X474158Y86487D01*
X485238Y86487D02*
X487326Y86487D01*
X485238Y86487D02*
X485149Y86489D01*
X485061Y86495D01*
X484973Y86504D01*
X484885Y86517D01*
X484798Y86534D01*
X484712Y86554D01*
X484627Y86579D01*
X484542Y86606D01*
X484459Y86638D01*
X484378Y86672D01*
X484298Y86711D01*
X484220Y86752D01*
X484143Y86797D01*
X484069Y86845D01*
X483996Y86896D01*
X483926Y86950D01*
X483859Y87008D01*
X483793Y87068D01*
X483731Y87130D01*
X483671Y87196D01*
X483613Y87263D01*
X483559Y87333D01*
X483508Y87406D01*
X483460Y87480D01*
X483415Y87557D01*
X483374Y87635D01*
X483335Y87715D01*
X483301Y87796D01*
X483269Y87879D01*
X483242Y87964D01*
X483217Y88049D01*
X483197Y88135D01*
X483180Y88222D01*
X483167Y88310D01*
X483158Y88398D01*
X483152Y88486D01*
X483150Y88575D01*
X483149Y88575D02*
X483149Y93797D01*
X483150Y93797D02*
X483152Y93888D01*
X483158Y93979D01*
X483168Y94070D01*
X483182Y94160D01*
X483199Y94249D01*
X483221Y94337D01*
X483247Y94425D01*
X483276Y94511D01*
X483309Y94596D01*
X483346Y94679D01*
X483386Y94761D01*
X483430Y94841D01*
X483477Y94919D01*
X483528Y94995D01*
X483581Y95068D01*
X483638Y95139D01*
X483699Y95208D01*
X483762Y95273D01*
X483827Y95336D01*
X483896Y95396D01*
X483967Y95454D01*
X484040Y95507D01*
X484116Y95558D01*
X484194Y95605D01*
X484274Y95649D01*
X484356Y95689D01*
X484439Y95726D01*
X484524Y95759D01*
X484610Y95788D01*
X484698Y95814D01*
X484786Y95836D01*
X484875Y95853D01*
X484965Y95867D01*
X485056Y95877D01*
X485147Y95883D01*
X485238Y95885D01*
X487326Y95885D01*
X492489Y90142D02*
X494839Y90142D01*
X492489Y90141D02*
X492405Y90139D01*
X492320Y90133D01*
X492237Y90123D01*
X492153Y90110D01*
X492071Y90092D01*
X491989Y90071D01*
X491908Y90046D01*
X491829Y90018D01*
X491751Y89985D01*
X491675Y89949D01*
X491600Y89910D01*
X491527Y89867D01*
X491456Y89821D01*
X491388Y89772D01*
X491322Y89720D01*
X491258Y89664D01*
X491197Y89606D01*
X491139Y89545D01*
X491083Y89481D01*
X491031Y89415D01*
X490982Y89347D01*
X490936Y89276D01*
X490893Y89203D01*
X490854Y89128D01*
X490818Y89052D01*
X490785Y88974D01*
X490757Y88895D01*
X490732Y88814D01*
X490711Y88732D01*
X490693Y88650D01*
X490680Y88566D01*
X490670Y88483D01*
X490664Y88398D01*
X490662Y88314D01*
X490664Y88230D01*
X490670Y88145D01*
X490680Y88062D01*
X490693Y87978D01*
X490711Y87896D01*
X490732Y87814D01*
X490757Y87733D01*
X490785Y87654D01*
X490818Y87576D01*
X490854Y87500D01*
X490893Y87425D01*
X490936Y87352D01*
X490982Y87281D01*
X491031Y87213D01*
X491083Y87147D01*
X491139Y87083D01*
X491197Y87022D01*
X491258Y86964D01*
X491322Y86908D01*
X491388Y86856D01*
X491456Y86807D01*
X491527Y86761D01*
X491600Y86718D01*
X491675Y86679D01*
X491751Y86643D01*
X491829Y86610D01*
X491908Y86582D01*
X491989Y86557D01*
X492071Y86536D01*
X492153Y86518D01*
X492237Y86505D01*
X492320Y86495D01*
X492405Y86489D01*
X492489Y86487D01*
X494839Y86487D01*
X494839Y91186D01*
X494838Y91186D02*
X494836Y91263D01*
X494830Y91339D01*
X494821Y91416D01*
X494808Y91492D01*
X494791Y91567D01*
X494771Y91641D01*
X494746Y91714D01*
X494719Y91785D01*
X494688Y91856D01*
X494653Y91924D01*
X494615Y91991D01*
X494574Y92056D01*
X494530Y92119D01*
X494483Y92179D01*
X494432Y92238D01*
X494379Y92293D01*
X494324Y92346D01*
X494265Y92397D01*
X494205Y92444D01*
X494142Y92488D01*
X494077Y92529D01*
X494010Y92567D01*
X493942Y92602D01*
X493871Y92633D01*
X493800Y92660D01*
X493727Y92685D01*
X493653Y92705D01*
X493578Y92722D01*
X493502Y92735D01*
X493425Y92744D01*
X493349Y92750D01*
X493272Y92752D01*
X491184Y92752D01*
X499293Y92752D02*
X499293Y86487D01*
X499293Y92752D02*
X502426Y92752D01*
X502426Y91708D01*
X505033Y92752D02*
X507121Y86487D01*
X509210Y92752D01*
X514435Y90142D02*
X516784Y90142D01*
X514435Y90141D02*
X514351Y90139D01*
X514266Y90133D01*
X514183Y90123D01*
X514099Y90110D01*
X514017Y90092D01*
X513935Y90071D01*
X513854Y90046D01*
X513775Y90018D01*
X513697Y89985D01*
X513621Y89949D01*
X513546Y89910D01*
X513473Y89867D01*
X513402Y89821D01*
X513334Y89772D01*
X513268Y89720D01*
X513204Y89664D01*
X513143Y89606D01*
X513085Y89545D01*
X513029Y89481D01*
X512977Y89415D01*
X512928Y89347D01*
X512882Y89276D01*
X512839Y89203D01*
X512800Y89128D01*
X512764Y89052D01*
X512731Y88974D01*
X512703Y88895D01*
X512678Y88814D01*
X512657Y88732D01*
X512639Y88650D01*
X512626Y88566D01*
X512616Y88483D01*
X512610Y88398D01*
X512608Y88314D01*
X512610Y88230D01*
X512616Y88145D01*
X512626Y88062D01*
X512639Y87978D01*
X512657Y87896D01*
X512678Y87814D01*
X512703Y87733D01*
X512731Y87654D01*
X512764Y87576D01*
X512800Y87500D01*
X512839Y87425D01*
X512882Y87352D01*
X512928Y87281D01*
X512977Y87213D01*
X513029Y87147D01*
X513085Y87083D01*
X513143Y87022D01*
X513204Y86964D01*
X513268Y86908D01*
X513334Y86856D01*
X513402Y86807D01*
X513473Y86761D01*
X513546Y86718D01*
X513621Y86679D01*
X513697Y86643D01*
X513775Y86610D01*
X513854Y86582D01*
X513935Y86557D01*
X514017Y86536D01*
X514099Y86518D01*
X514183Y86505D01*
X514266Y86495D01*
X514351Y86489D01*
X514435Y86487D01*
X516784Y86487D01*
X516784Y91186D01*
X516782Y91263D01*
X516776Y91339D01*
X516767Y91416D01*
X516754Y91492D01*
X516737Y91567D01*
X516717Y91641D01*
X516692Y91714D01*
X516665Y91785D01*
X516634Y91856D01*
X516599Y91924D01*
X516561Y91991D01*
X516520Y92056D01*
X516476Y92119D01*
X516429Y92179D01*
X516378Y92238D01*
X516325Y92293D01*
X516270Y92346D01*
X516211Y92397D01*
X516151Y92444D01*
X516088Y92488D01*
X516023Y92529D01*
X515956Y92567D01*
X515888Y92602D01*
X515817Y92633D01*
X515746Y92660D01*
X515673Y92685D01*
X515599Y92705D01*
X515524Y92722D01*
X515448Y92735D01*
X515371Y92744D01*
X515295Y92750D01*
X515218Y92752D01*
X513129Y92752D01*
X521008Y95885D02*
X521008Y88053D01*
X521010Y87976D01*
X521016Y87900D01*
X521025Y87823D01*
X521038Y87747D01*
X521055Y87672D01*
X521075Y87598D01*
X521100Y87525D01*
X521127Y87454D01*
X521158Y87383D01*
X521193Y87315D01*
X521231Y87248D01*
X521272Y87183D01*
X521316Y87120D01*
X521363Y87060D01*
X521414Y87001D01*
X521467Y86946D01*
X521522Y86893D01*
X521581Y86842D01*
X521641Y86795D01*
X521704Y86751D01*
X521769Y86710D01*
X521836Y86672D01*
X521904Y86637D01*
X521975Y86606D01*
X522046Y86579D01*
X522119Y86554D01*
X522193Y86534D01*
X522268Y86517D01*
X522344Y86504D01*
X522421Y86495D01*
X522497Y86489D01*
X522574Y86487D01*
X526064Y86487D02*
X526064Y95885D01*
X526064Y92752D02*
X528675Y92752D01*
X528752Y92750D01*
X528828Y92744D01*
X528905Y92735D01*
X528981Y92722D01*
X529056Y92705D01*
X529130Y92685D01*
X529203Y92660D01*
X529274Y92633D01*
X529345Y92602D01*
X529413Y92567D01*
X529480Y92529D01*
X529545Y92488D01*
X529608Y92444D01*
X529668Y92397D01*
X529727Y92346D01*
X529782Y92293D01*
X529835Y92238D01*
X529886Y92179D01*
X529933Y92119D01*
X529977Y92056D01*
X530018Y91991D01*
X530056Y91924D01*
X530091Y91856D01*
X530122Y91785D01*
X530149Y91714D01*
X530174Y91641D01*
X530194Y91567D01*
X530211Y91492D01*
X530224Y91416D01*
X530233Y91340D01*
X530239Y91263D01*
X530241Y91186D01*
X530241Y86487D01*
X534294Y88575D02*
X534294Y90664D01*
X534296Y90754D01*
X534302Y90843D01*
X534311Y90933D01*
X534325Y91022D01*
X534342Y91110D01*
X534363Y91197D01*
X534388Y91284D01*
X534417Y91369D01*
X534449Y91453D01*
X534484Y91535D01*
X534524Y91616D01*
X534566Y91695D01*
X534612Y91772D01*
X534662Y91847D01*
X534714Y91920D01*
X534770Y91991D01*
X534828Y92059D01*
X534890Y92124D01*
X534954Y92187D01*
X535021Y92247D01*
X535090Y92304D01*
X535162Y92358D01*
X535236Y92409D01*
X535312Y92457D01*
X535390Y92501D01*
X535470Y92542D01*
X535552Y92580D01*
X535635Y92614D01*
X535720Y92644D01*
X535806Y92671D01*
X535892Y92694D01*
X535980Y92713D01*
X536069Y92728D01*
X536158Y92740D01*
X536247Y92748D01*
X536337Y92752D01*
X536427Y92752D01*
X536517Y92748D01*
X536606Y92740D01*
X536695Y92728D01*
X536784Y92713D01*
X536872Y92694D01*
X536958Y92671D01*
X537044Y92644D01*
X537129Y92614D01*
X537212Y92580D01*
X537294Y92542D01*
X537374Y92501D01*
X537452Y92457D01*
X537528Y92409D01*
X537602Y92358D01*
X537674Y92304D01*
X537743Y92247D01*
X537810Y92187D01*
X537874Y92124D01*
X537936Y92059D01*
X537994Y91991D01*
X538050Y91920D01*
X538102Y91847D01*
X538152Y91772D01*
X538198Y91695D01*
X538240Y91616D01*
X538280Y91535D01*
X538315Y91453D01*
X538347Y91369D01*
X538376Y91284D01*
X538401Y91197D01*
X538422Y91110D01*
X538439Y91022D01*
X538453Y90933D01*
X538462Y90843D01*
X538468Y90754D01*
X538470Y90664D01*
X538470Y88575D01*
X538468Y88485D01*
X538462Y88396D01*
X538453Y88306D01*
X538439Y88217D01*
X538422Y88129D01*
X538401Y88042D01*
X538376Y87955D01*
X538347Y87870D01*
X538315Y87786D01*
X538280Y87704D01*
X538240Y87623D01*
X538198Y87544D01*
X538152Y87467D01*
X538102Y87392D01*
X538050Y87319D01*
X537994Y87248D01*
X537936Y87180D01*
X537874Y87115D01*
X537810Y87052D01*
X537743Y86992D01*
X537674Y86935D01*
X537602Y86881D01*
X537528Y86830D01*
X537452Y86782D01*
X537374Y86738D01*
X537294Y86697D01*
X537212Y86659D01*
X537129Y86625D01*
X537044Y86595D01*
X536958Y86568D01*
X536872Y86545D01*
X536784Y86526D01*
X536695Y86511D01*
X536606Y86499D01*
X536517Y86491D01*
X536427Y86487D01*
X536337Y86487D01*
X536247Y86491D01*
X536158Y86499D01*
X536069Y86511D01*
X535980Y86526D01*
X535892Y86545D01*
X535806Y86568D01*
X535720Y86595D01*
X535635Y86625D01*
X535552Y86659D01*
X535470Y86697D01*
X535390Y86738D01*
X535312Y86782D01*
X535236Y86830D01*
X535162Y86881D01*
X535090Y86935D01*
X535021Y86992D01*
X534954Y87052D01*
X534890Y87115D01*
X534828Y87180D01*
X534770Y87248D01*
X534714Y87319D01*
X534662Y87392D01*
X534612Y87467D01*
X534566Y87544D01*
X534524Y87623D01*
X534484Y87704D01*
X534449Y87786D01*
X534417Y87870D01*
X534388Y87955D01*
X534363Y88042D01*
X534342Y88129D01*
X534325Y88217D01*
X534311Y88306D01*
X534302Y88396D01*
X534296Y88485D01*
X534294Y88575D01*
X438785Y78105D02*
X438785Y68707D01*
X438785Y78105D02*
X441396Y78105D01*
X441496Y78103D01*
X441596Y78097D01*
X441695Y78088D01*
X441795Y78074D01*
X441893Y78057D01*
X441991Y78036D01*
X442088Y78012D01*
X442184Y77983D01*
X442279Y77951D01*
X442372Y77916D01*
X442464Y77877D01*
X442555Y77834D01*
X442643Y77788D01*
X442730Y77738D01*
X442815Y77686D01*
X442898Y77630D01*
X442979Y77571D01*
X443057Y77508D01*
X443133Y77443D01*
X443207Y77375D01*
X443277Y77305D01*
X443345Y77231D01*
X443410Y77155D01*
X443473Y77077D01*
X443532Y76996D01*
X443588Y76913D01*
X443640Y76828D01*
X443690Y76741D01*
X443736Y76653D01*
X443779Y76562D01*
X443818Y76470D01*
X443853Y76377D01*
X443885Y76282D01*
X443914Y76186D01*
X443938Y76089D01*
X443959Y75991D01*
X443976Y75893D01*
X443990Y75793D01*
X443999Y75694D01*
X444005Y75594D01*
X444007Y75494D01*
X444006Y75494D02*
X444006Y71318D01*
X444007Y71318D02*
X444005Y71218D01*
X443999Y71118D01*
X443990Y71019D01*
X443976Y70919D01*
X443959Y70821D01*
X443938Y70723D01*
X443914Y70626D01*
X443885Y70530D01*
X443853Y70435D01*
X443818Y70342D01*
X443779Y70250D01*
X443736Y70159D01*
X443690Y70071D01*
X443640Y69984D01*
X443588Y69899D01*
X443532Y69816D01*
X443473Y69735D01*
X443410Y69657D01*
X443345Y69581D01*
X443277Y69507D01*
X443207Y69437D01*
X443133Y69369D01*
X443057Y69304D01*
X442979Y69241D01*
X442898Y69182D01*
X442815Y69126D01*
X442730Y69074D01*
X442643Y69024D01*
X442555Y68978D01*
X442464Y68935D01*
X442372Y68896D01*
X442279Y68861D01*
X442184Y68829D01*
X442088Y68800D01*
X441991Y68776D01*
X441893Y68755D01*
X441795Y68738D01*
X441695Y68724D01*
X441596Y68715D01*
X441496Y68709D01*
X441396Y68707D01*
X438785Y68707D01*
X448101Y68707D02*
X448101Y74972D01*
X447840Y77583D02*
X447840Y78105D01*
X448362Y78105D01*
X448362Y77583D01*
X447840Y77583D01*
X453381Y68707D02*
X455469Y68707D01*
X453381Y68707D02*
X453304Y68709D01*
X453228Y68715D01*
X453151Y68724D01*
X453075Y68737D01*
X453000Y68754D01*
X452926Y68774D01*
X452853Y68799D01*
X452782Y68826D01*
X452711Y68857D01*
X452643Y68892D01*
X452576Y68930D01*
X452511Y68971D01*
X452448Y69015D01*
X452388Y69062D01*
X452329Y69113D01*
X452274Y69166D01*
X452221Y69221D01*
X452170Y69280D01*
X452123Y69340D01*
X452079Y69403D01*
X452038Y69468D01*
X452000Y69535D01*
X451965Y69603D01*
X451934Y69674D01*
X451907Y69745D01*
X451882Y69818D01*
X451862Y69892D01*
X451845Y69967D01*
X451832Y70043D01*
X451823Y70120D01*
X451817Y70196D01*
X451815Y70273D01*
X451814Y70273D02*
X451814Y73406D01*
X451815Y73406D02*
X451817Y73483D01*
X451823Y73559D01*
X451832Y73636D01*
X451845Y73712D01*
X451862Y73787D01*
X451882Y73861D01*
X451907Y73934D01*
X451934Y74005D01*
X451965Y74076D01*
X452000Y74144D01*
X452038Y74211D01*
X452079Y74276D01*
X452123Y74339D01*
X452170Y74399D01*
X452221Y74458D01*
X452274Y74513D01*
X452329Y74566D01*
X452388Y74617D01*
X452448Y74664D01*
X452511Y74708D01*
X452576Y74749D01*
X452643Y74787D01*
X452711Y74822D01*
X452782Y74853D01*
X452853Y74880D01*
X452926Y74905D01*
X453000Y74925D01*
X453075Y74942D01*
X453151Y74955D01*
X453228Y74964D01*
X453304Y74970D01*
X453381Y74972D01*
X455469Y74972D01*
X460381Y68707D02*
X462991Y68707D01*
X460381Y68707D02*
X460304Y68709D01*
X460228Y68715D01*
X460151Y68724D01*
X460075Y68737D01*
X460000Y68754D01*
X459926Y68774D01*
X459853Y68799D01*
X459782Y68826D01*
X459711Y68857D01*
X459643Y68892D01*
X459576Y68930D01*
X459511Y68971D01*
X459448Y69015D01*
X459388Y69062D01*
X459329Y69113D01*
X459274Y69166D01*
X459221Y69221D01*
X459170Y69280D01*
X459123Y69340D01*
X459079Y69403D01*
X459038Y69468D01*
X459000Y69535D01*
X458965Y69603D01*
X458934Y69674D01*
X458907Y69745D01*
X458882Y69818D01*
X458862Y69892D01*
X458845Y69967D01*
X458832Y70043D01*
X458823Y70120D01*
X458817Y70196D01*
X458815Y70273D01*
X458814Y70273D02*
X458814Y72884D01*
X458815Y72884D02*
X458817Y72974D01*
X458823Y73063D01*
X458832Y73153D01*
X458846Y73242D01*
X458863Y73330D01*
X458884Y73417D01*
X458909Y73504D01*
X458938Y73589D01*
X458970Y73673D01*
X459005Y73755D01*
X459045Y73836D01*
X459087Y73915D01*
X459133Y73992D01*
X459183Y74067D01*
X459235Y74140D01*
X459291Y74211D01*
X459349Y74279D01*
X459411Y74344D01*
X459475Y74407D01*
X459542Y74467D01*
X459611Y74524D01*
X459683Y74578D01*
X459757Y74629D01*
X459833Y74677D01*
X459911Y74721D01*
X459991Y74762D01*
X460073Y74800D01*
X460156Y74834D01*
X460241Y74864D01*
X460327Y74891D01*
X460413Y74914D01*
X460501Y74933D01*
X460590Y74948D01*
X460679Y74960D01*
X460768Y74968D01*
X460858Y74972D01*
X460948Y74972D01*
X461038Y74968D01*
X461127Y74960D01*
X461216Y74948D01*
X461305Y74933D01*
X461393Y74914D01*
X461479Y74891D01*
X461565Y74864D01*
X461650Y74834D01*
X461733Y74800D01*
X461815Y74762D01*
X461895Y74721D01*
X461973Y74677D01*
X462049Y74629D01*
X462123Y74578D01*
X462195Y74524D01*
X462264Y74467D01*
X462331Y74407D01*
X462395Y74344D01*
X462457Y74279D01*
X462515Y74211D01*
X462571Y74140D01*
X462623Y74067D01*
X462673Y73992D01*
X462719Y73915D01*
X462761Y73836D01*
X462801Y73755D01*
X462836Y73673D01*
X462868Y73589D01*
X462897Y73504D01*
X462922Y73417D01*
X462943Y73330D01*
X462960Y73242D01*
X462974Y73153D01*
X462983Y73063D01*
X462989Y72974D01*
X462991Y72884D01*
X462991Y71840D01*
X458814Y71840D01*
X474531Y68707D02*
X474620Y68709D01*
X474708Y68715D01*
X474796Y68724D01*
X474884Y68737D01*
X474971Y68754D01*
X475057Y68774D01*
X475142Y68799D01*
X475227Y68826D01*
X475310Y68858D01*
X475391Y68892D01*
X475471Y68931D01*
X475549Y68972D01*
X475626Y69017D01*
X475700Y69065D01*
X475773Y69116D01*
X475843Y69170D01*
X475910Y69228D01*
X475976Y69288D01*
X476038Y69350D01*
X476098Y69416D01*
X476156Y69483D01*
X476210Y69553D01*
X476261Y69626D01*
X476309Y69700D01*
X476354Y69777D01*
X476395Y69855D01*
X476434Y69935D01*
X476468Y70016D01*
X476500Y70099D01*
X476527Y70184D01*
X476552Y70269D01*
X476572Y70355D01*
X476589Y70442D01*
X476602Y70530D01*
X476611Y70618D01*
X476617Y70706D01*
X476619Y70795D01*
X474531Y68707D02*
X474402Y68709D01*
X474273Y68715D01*
X474144Y68724D01*
X474016Y68737D01*
X473888Y68754D01*
X473761Y68775D01*
X473634Y68799D01*
X473508Y68827D01*
X473383Y68859D01*
X473259Y68894D01*
X473136Y68933D01*
X473014Y68976D01*
X472894Y69022D01*
X472775Y69072D01*
X472657Y69125D01*
X472541Y69181D01*
X472427Y69241D01*
X472314Y69304D01*
X472204Y69371D01*
X472095Y69440D01*
X471989Y69513D01*
X471884Y69589D01*
X471782Y69668D01*
X471683Y69750D01*
X471585Y69834D01*
X471490Y69922D01*
X471398Y70012D01*
X471660Y76017D02*
X471662Y76106D01*
X471668Y76194D01*
X471677Y76282D01*
X471690Y76370D01*
X471707Y76457D01*
X471727Y76543D01*
X471752Y76628D01*
X471779Y76713D01*
X471811Y76796D01*
X471845Y76877D01*
X471884Y76957D01*
X471925Y77035D01*
X471970Y77112D01*
X472018Y77186D01*
X472069Y77259D01*
X472123Y77329D01*
X472181Y77396D01*
X472241Y77462D01*
X472303Y77524D01*
X472369Y77584D01*
X472436Y77642D01*
X472506Y77696D01*
X472579Y77747D01*
X472653Y77795D01*
X472730Y77840D01*
X472808Y77881D01*
X472888Y77920D01*
X472969Y77954D01*
X473052Y77986D01*
X473137Y78013D01*
X473222Y78038D01*
X473308Y78058D01*
X473395Y78075D01*
X473483Y78088D01*
X473571Y78097D01*
X473659Y78103D01*
X473748Y78105D01*
X473868Y78103D01*
X473988Y78098D01*
X474108Y78088D01*
X474227Y78076D01*
X474346Y78059D01*
X474464Y78039D01*
X474582Y78015D01*
X474698Y77988D01*
X474814Y77957D01*
X474929Y77923D01*
X475043Y77885D01*
X475156Y77843D01*
X475267Y77798D01*
X475377Y77750D01*
X475485Y77699D01*
X475592Y77644D01*
X475697Y77586D01*
X475800Y77524D01*
X475901Y77460D01*
X476001Y77392D01*
X476098Y77322D01*
X472704Y74190D02*
X472626Y74238D01*
X472550Y74290D01*
X472477Y74344D01*
X472406Y74402D01*
X472337Y74463D01*
X472271Y74527D01*
X472208Y74594D01*
X472148Y74663D01*
X472091Y74735D01*
X472037Y74809D01*
X471987Y74886D01*
X471939Y74965D01*
X471896Y75045D01*
X471855Y75128D01*
X471819Y75212D01*
X471786Y75297D01*
X471757Y75384D01*
X471731Y75473D01*
X471709Y75562D01*
X471692Y75652D01*
X471678Y75742D01*
X471668Y75834D01*
X471662Y75925D01*
X471660Y76017D01*
X475575Y72622D02*
X475653Y72574D01*
X475729Y72522D01*
X475802Y72468D01*
X475873Y72410D01*
X475942Y72349D01*
X476008Y72285D01*
X476071Y72218D01*
X476131Y72149D01*
X476188Y72077D01*
X476242Y72003D01*
X476292Y71926D01*
X476340Y71847D01*
X476383Y71767D01*
X476424Y71684D01*
X476460Y71600D01*
X476493Y71515D01*
X476522Y71428D01*
X476548Y71339D01*
X476570Y71250D01*
X476587Y71160D01*
X476601Y71070D01*
X476611Y70978D01*
X476617Y70887D01*
X476619Y70795D01*
X475575Y72623D02*
X472704Y74189D01*
X480105Y74972D02*
X480105Y68707D01*
X479844Y77583D02*
X479844Y78105D01*
X480366Y78105D01*
X480366Y77583D01*
X479844Y77583D01*
X484287Y74972D02*
X484287Y68707D01*
X484287Y74972D02*
X488986Y74972D01*
X489063Y74970D01*
X489139Y74964D01*
X489216Y74955D01*
X489292Y74942D01*
X489367Y74925D01*
X489441Y74905D01*
X489514Y74880D01*
X489585Y74853D01*
X489656Y74822D01*
X489724Y74787D01*
X489791Y74749D01*
X489856Y74708D01*
X489919Y74664D01*
X489979Y74617D01*
X490038Y74566D01*
X490093Y74513D01*
X490146Y74458D01*
X490197Y74399D01*
X490244Y74339D01*
X490288Y74276D01*
X490329Y74211D01*
X490367Y74144D01*
X490402Y74076D01*
X490433Y74005D01*
X490460Y73934D01*
X490485Y73861D01*
X490505Y73787D01*
X490522Y73712D01*
X490535Y73636D01*
X490544Y73559D01*
X490550Y73483D01*
X490552Y73406D01*
X490553Y73406D02*
X490553Y68707D01*
X487420Y68707D02*
X487420Y74972D01*
X495085Y74972D02*
X495085Y70273D01*
X495086Y70273D02*
X495088Y70196D01*
X495094Y70120D01*
X495103Y70043D01*
X495116Y69967D01*
X495133Y69892D01*
X495153Y69818D01*
X495178Y69745D01*
X495205Y69674D01*
X495236Y69603D01*
X495271Y69535D01*
X495309Y69468D01*
X495350Y69403D01*
X495394Y69340D01*
X495441Y69280D01*
X495492Y69221D01*
X495545Y69166D01*
X495600Y69113D01*
X495659Y69062D01*
X495719Y69015D01*
X495782Y68971D01*
X495847Y68930D01*
X495914Y68892D01*
X495982Y68857D01*
X496053Y68826D01*
X496124Y68799D01*
X496197Y68774D01*
X496271Y68754D01*
X496346Y68737D01*
X496422Y68724D01*
X496499Y68715D01*
X496575Y68709D01*
X496652Y68707D01*
X499262Y68707D01*
X499262Y74972D01*
X503440Y78105D02*
X503440Y70273D01*
X503441Y70273D02*
X503443Y70196D01*
X503449Y70120D01*
X503458Y70043D01*
X503471Y69967D01*
X503488Y69892D01*
X503508Y69818D01*
X503533Y69745D01*
X503560Y69674D01*
X503591Y69603D01*
X503626Y69535D01*
X503664Y69468D01*
X503705Y69403D01*
X503749Y69340D01*
X503796Y69280D01*
X503847Y69221D01*
X503900Y69166D01*
X503955Y69113D01*
X504014Y69062D01*
X504074Y69015D01*
X504137Y68971D01*
X504202Y68930D01*
X504269Y68892D01*
X504337Y68857D01*
X504408Y68826D01*
X504479Y68799D01*
X504552Y68774D01*
X504626Y68754D01*
X504701Y68737D01*
X504777Y68724D01*
X504854Y68715D01*
X504930Y68709D01*
X505007Y68707D01*
X509973Y72362D02*
X512323Y72362D01*
X509973Y72361D02*
X509889Y72359D01*
X509804Y72353D01*
X509721Y72343D01*
X509637Y72330D01*
X509555Y72312D01*
X509473Y72291D01*
X509392Y72266D01*
X509313Y72238D01*
X509235Y72205D01*
X509159Y72169D01*
X509084Y72130D01*
X509011Y72087D01*
X508940Y72041D01*
X508872Y71992D01*
X508806Y71940D01*
X508742Y71884D01*
X508681Y71826D01*
X508623Y71765D01*
X508567Y71701D01*
X508515Y71635D01*
X508466Y71567D01*
X508420Y71496D01*
X508377Y71423D01*
X508338Y71348D01*
X508302Y71272D01*
X508269Y71194D01*
X508241Y71115D01*
X508216Y71034D01*
X508195Y70952D01*
X508177Y70870D01*
X508164Y70786D01*
X508154Y70703D01*
X508148Y70618D01*
X508146Y70534D01*
X508148Y70450D01*
X508154Y70365D01*
X508164Y70282D01*
X508177Y70198D01*
X508195Y70116D01*
X508216Y70034D01*
X508241Y69953D01*
X508269Y69874D01*
X508302Y69796D01*
X508338Y69720D01*
X508377Y69645D01*
X508420Y69572D01*
X508466Y69501D01*
X508515Y69433D01*
X508567Y69367D01*
X508623Y69303D01*
X508681Y69242D01*
X508742Y69184D01*
X508806Y69128D01*
X508872Y69076D01*
X508940Y69027D01*
X509011Y68981D01*
X509084Y68938D01*
X509159Y68899D01*
X509235Y68863D01*
X509313Y68830D01*
X509392Y68802D01*
X509473Y68777D01*
X509555Y68756D01*
X509637Y68738D01*
X509721Y68725D01*
X509804Y68715D01*
X509889Y68709D01*
X509973Y68707D01*
X512323Y68707D01*
X512323Y73406D01*
X512322Y73406D02*
X512320Y73483D01*
X512314Y73559D01*
X512305Y73636D01*
X512292Y73712D01*
X512275Y73787D01*
X512255Y73861D01*
X512230Y73934D01*
X512203Y74005D01*
X512172Y74076D01*
X512137Y74144D01*
X512099Y74211D01*
X512058Y74276D01*
X512014Y74339D01*
X511967Y74399D01*
X511916Y74458D01*
X511863Y74513D01*
X511808Y74566D01*
X511749Y74617D01*
X511689Y74664D01*
X511626Y74708D01*
X511561Y74749D01*
X511494Y74787D01*
X511426Y74822D01*
X511355Y74853D01*
X511284Y74880D01*
X511211Y74905D01*
X511137Y74925D01*
X511062Y74942D01*
X510986Y74955D01*
X510909Y74964D01*
X510833Y74970D01*
X510756Y74972D01*
X508668Y74972D01*
X515652Y74972D02*
X518785Y74972D01*
X516697Y78105D02*
X516697Y70273D01*
X516699Y70196D01*
X516705Y70120D01*
X516714Y70043D01*
X516727Y69967D01*
X516744Y69892D01*
X516764Y69818D01*
X516789Y69745D01*
X516816Y69674D01*
X516847Y69603D01*
X516882Y69535D01*
X516920Y69468D01*
X516961Y69403D01*
X517005Y69340D01*
X517052Y69280D01*
X517103Y69221D01*
X517156Y69166D01*
X517211Y69113D01*
X517270Y69062D01*
X517330Y69015D01*
X517393Y68971D01*
X517458Y68930D01*
X517525Y68892D01*
X517593Y68857D01*
X517664Y68826D01*
X517735Y68799D01*
X517808Y68774D01*
X517882Y68754D01*
X517957Y68737D01*
X518033Y68724D01*
X518110Y68715D01*
X518186Y68709D01*
X518263Y68707D01*
X518785Y68707D01*
X522212Y70795D02*
X522212Y72884D01*
X522213Y72884D02*
X522215Y72974D01*
X522221Y73063D01*
X522230Y73153D01*
X522244Y73242D01*
X522261Y73330D01*
X522282Y73417D01*
X522307Y73504D01*
X522336Y73589D01*
X522368Y73673D01*
X522403Y73755D01*
X522443Y73836D01*
X522485Y73915D01*
X522531Y73992D01*
X522581Y74067D01*
X522633Y74140D01*
X522689Y74211D01*
X522747Y74279D01*
X522809Y74344D01*
X522873Y74407D01*
X522940Y74467D01*
X523009Y74524D01*
X523081Y74578D01*
X523155Y74629D01*
X523231Y74677D01*
X523309Y74721D01*
X523389Y74762D01*
X523471Y74800D01*
X523554Y74834D01*
X523639Y74864D01*
X523725Y74891D01*
X523811Y74914D01*
X523899Y74933D01*
X523988Y74948D01*
X524077Y74960D01*
X524166Y74968D01*
X524256Y74972D01*
X524346Y74972D01*
X524436Y74968D01*
X524525Y74960D01*
X524614Y74948D01*
X524703Y74933D01*
X524791Y74914D01*
X524877Y74891D01*
X524963Y74864D01*
X525048Y74834D01*
X525131Y74800D01*
X525213Y74762D01*
X525293Y74721D01*
X525371Y74677D01*
X525447Y74629D01*
X525521Y74578D01*
X525593Y74524D01*
X525662Y74467D01*
X525729Y74407D01*
X525793Y74344D01*
X525855Y74279D01*
X525913Y74211D01*
X525969Y74140D01*
X526021Y74067D01*
X526071Y73992D01*
X526117Y73915D01*
X526159Y73836D01*
X526199Y73755D01*
X526234Y73673D01*
X526266Y73589D01*
X526295Y73504D01*
X526320Y73417D01*
X526341Y73330D01*
X526358Y73242D01*
X526372Y73153D01*
X526381Y73063D01*
X526387Y72974D01*
X526389Y72884D01*
X526389Y70795D01*
X526387Y70705D01*
X526381Y70616D01*
X526372Y70526D01*
X526358Y70437D01*
X526341Y70349D01*
X526320Y70262D01*
X526295Y70175D01*
X526266Y70090D01*
X526234Y70006D01*
X526199Y69924D01*
X526159Y69843D01*
X526117Y69764D01*
X526071Y69687D01*
X526021Y69612D01*
X525969Y69539D01*
X525913Y69468D01*
X525855Y69400D01*
X525793Y69335D01*
X525729Y69272D01*
X525662Y69212D01*
X525593Y69155D01*
X525521Y69101D01*
X525447Y69050D01*
X525371Y69002D01*
X525293Y68958D01*
X525213Y68917D01*
X525131Y68879D01*
X525048Y68845D01*
X524963Y68815D01*
X524877Y68788D01*
X524791Y68765D01*
X524703Y68746D01*
X524614Y68731D01*
X524525Y68719D01*
X524436Y68711D01*
X524346Y68707D01*
X524256Y68707D01*
X524166Y68711D01*
X524077Y68719D01*
X523988Y68731D01*
X523899Y68746D01*
X523811Y68765D01*
X523725Y68788D01*
X523639Y68815D01*
X523554Y68845D01*
X523471Y68879D01*
X523389Y68917D01*
X523309Y68958D01*
X523231Y69002D01*
X523155Y69050D01*
X523081Y69101D01*
X523009Y69155D01*
X522940Y69212D01*
X522873Y69272D01*
X522809Y69335D01*
X522747Y69400D01*
X522689Y69468D01*
X522633Y69539D01*
X522581Y69612D01*
X522531Y69687D01*
X522485Y69764D01*
X522443Y69843D01*
X522403Y69924D01*
X522368Y70006D01*
X522336Y70090D01*
X522307Y70175D01*
X522282Y70262D01*
X522261Y70349D01*
X522244Y70437D01*
X522230Y70526D01*
X522221Y70616D01*
X522215Y70705D01*
X522213Y70795D01*
X530493Y68707D02*
X530493Y74972D01*
X533626Y74972D01*
X533626Y73928D01*
X452318Y61087D02*
X449707Y58999D01*
X452318Y61087D02*
X452318Y51689D01*
X454928Y51689D02*
X449707Y51689D01*
X458851Y58999D02*
X461462Y61087D01*
X461462Y51689D01*
X464072Y51689D02*
X458851Y51689D01*
X467603Y50645D02*
X471780Y62131D01*
X478182Y61088D02*
X478277Y61086D01*
X478371Y61080D01*
X478465Y61071D01*
X478559Y61058D01*
X478652Y61041D01*
X478744Y61020D01*
X478836Y60995D01*
X478926Y60967D01*
X479015Y60935D01*
X479103Y60900D01*
X479189Y60861D01*
X479274Y60819D01*
X479357Y60773D01*
X479438Y60724D01*
X479517Y60672D01*
X479594Y60617D01*
X479668Y60558D01*
X479740Y60497D01*
X479810Y60433D01*
X479877Y60366D01*
X479941Y60296D01*
X480002Y60224D01*
X480061Y60150D01*
X480116Y60073D01*
X480168Y59994D01*
X480217Y59913D01*
X480263Y59830D01*
X480305Y59745D01*
X480344Y59659D01*
X480379Y59571D01*
X480411Y59482D01*
X480439Y59392D01*
X480464Y59300D01*
X480485Y59208D01*
X480502Y59115D01*
X480515Y59021D01*
X480524Y58927D01*
X480530Y58833D01*
X480532Y58738D01*
X478182Y61087D02*
X478074Y61085D01*
X477965Y61079D01*
X477857Y61069D01*
X477750Y61056D01*
X477643Y61038D01*
X477536Y61017D01*
X477431Y60992D01*
X477326Y60963D01*
X477223Y60931D01*
X477121Y60894D01*
X477020Y60854D01*
X476921Y60811D01*
X476823Y60764D01*
X476727Y60713D01*
X476633Y60659D01*
X476541Y60602D01*
X476451Y60541D01*
X476363Y60477D01*
X476278Y60411D01*
X476195Y60341D01*
X476115Y60268D01*
X476037Y60192D01*
X475962Y60114D01*
X475890Y60033D01*
X475821Y59949D01*
X475755Y59863D01*
X475692Y59775D01*
X475633Y59684D01*
X475576Y59592D01*
X475523Y59497D01*
X475474Y59401D01*
X475428Y59302D01*
X475385Y59203D01*
X475346Y59101D01*
X475311Y58999D01*
X479749Y56910D02*
X479818Y56979D01*
X479884Y57050D01*
X479948Y57123D01*
X480009Y57199D01*
X480067Y57278D01*
X480121Y57358D01*
X480173Y57441D01*
X480221Y57525D01*
X480267Y57611D01*
X480308Y57699D01*
X480347Y57789D01*
X480382Y57880D01*
X480413Y57972D01*
X480441Y58065D01*
X480465Y58159D01*
X480485Y58254D01*
X480502Y58350D01*
X480515Y58447D01*
X480524Y58544D01*
X480530Y58641D01*
X480532Y58738D01*
X479748Y56910D02*
X475310Y51689D01*
X480531Y51689D01*
X484454Y53777D02*
X486542Y61087D01*
X484454Y53777D02*
X489675Y53777D01*
X488109Y55866D02*
X488109Y51689D01*
X493206Y50645D02*
X497383Y62131D01*
X503785Y61088D02*
X503880Y61086D01*
X503974Y61080D01*
X504068Y61071D01*
X504162Y61058D01*
X504255Y61041D01*
X504347Y61020D01*
X504439Y60995D01*
X504529Y60967D01*
X504618Y60935D01*
X504706Y60900D01*
X504792Y60861D01*
X504877Y60819D01*
X504960Y60773D01*
X505041Y60724D01*
X505120Y60672D01*
X505197Y60617D01*
X505271Y60558D01*
X505343Y60497D01*
X505413Y60433D01*
X505480Y60366D01*
X505544Y60296D01*
X505605Y60224D01*
X505664Y60150D01*
X505719Y60073D01*
X505771Y59994D01*
X505820Y59913D01*
X505866Y59830D01*
X505908Y59745D01*
X505947Y59659D01*
X505982Y59571D01*
X506014Y59482D01*
X506042Y59392D01*
X506067Y59300D01*
X506088Y59208D01*
X506105Y59115D01*
X506118Y59021D01*
X506127Y58927D01*
X506133Y58833D01*
X506135Y58738D01*
X503785Y61087D02*
X503677Y61085D01*
X503568Y61079D01*
X503460Y61069D01*
X503353Y61056D01*
X503246Y61038D01*
X503139Y61017D01*
X503034Y60992D01*
X502929Y60963D01*
X502826Y60931D01*
X502724Y60894D01*
X502623Y60854D01*
X502524Y60811D01*
X502426Y60764D01*
X502330Y60713D01*
X502236Y60659D01*
X502144Y60602D01*
X502054Y60541D01*
X501966Y60477D01*
X501881Y60411D01*
X501798Y60341D01*
X501718Y60268D01*
X501640Y60192D01*
X501565Y60114D01*
X501493Y60033D01*
X501424Y59949D01*
X501358Y59863D01*
X501295Y59775D01*
X501236Y59684D01*
X501179Y59592D01*
X501126Y59497D01*
X501077Y59401D01*
X501031Y59302D01*
X500988Y59203D01*
X500949Y59101D01*
X500914Y58999D01*
X505352Y56910D02*
X505421Y56979D01*
X505487Y57050D01*
X505551Y57123D01*
X505612Y57199D01*
X505670Y57278D01*
X505724Y57358D01*
X505776Y57441D01*
X505824Y57525D01*
X505870Y57611D01*
X505911Y57699D01*
X505950Y57789D01*
X505985Y57880D01*
X506016Y57972D01*
X506044Y58065D01*
X506068Y58159D01*
X506088Y58254D01*
X506105Y58350D01*
X506118Y58447D01*
X506127Y58544D01*
X506133Y58641D01*
X506135Y58738D01*
X505351Y56910D02*
X500913Y51689D01*
X506134Y51689D01*
X510057Y56388D02*
X510059Y56573D01*
X510066Y56758D01*
X510077Y56942D01*
X510092Y57126D01*
X510112Y57310D01*
X510136Y57494D01*
X510165Y57676D01*
X510198Y57858D01*
X510235Y58039D01*
X510277Y58219D01*
X510323Y58399D01*
X510373Y58577D01*
X510427Y58753D01*
X510486Y58929D01*
X510548Y59103D01*
X510615Y59275D01*
X510686Y59446D01*
X510761Y59615D01*
X510840Y59782D01*
X510870Y59862D01*
X510903Y59941D01*
X510940Y60018D01*
X510980Y60094D01*
X511023Y60168D01*
X511069Y60240D01*
X511119Y60309D01*
X511171Y60377D01*
X511227Y60442D01*
X511285Y60505D01*
X511347Y60564D01*
X511410Y60622D01*
X511477Y60676D01*
X511545Y60727D01*
X511616Y60775D01*
X511689Y60820D01*
X511763Y60862D01*
X511840Y60900D01*
X511918Y60935D01*
X511997Y60967D01*
X512078Y60995D01*
X512160Y61019D01*
X512244Y61040D01*
X512327Y61057D01*
X512412Y61070D01*
X512497Y61079D01*
X512582Y61085D01*
X512668Y61087D01*
X512754Y61085D01*
X512839Y61079D01*
X512924Y61070D01*
X513009Y61057D01*
X513092Y61040D01*
X513176Y61019D01*
X513258Y60995D01*
X513339Y60967D01*
X513418Y60935D01*
X513496Y60900D01*
X513573Y60862D01*
X513647Y60820D01*
X513720Y60775D01*
X513791Y60727D01*
X513859Y60676D01*
X513926Y60622D01*
X513989Y60564D01*
X514051Y60505D01*
X514109Y60442D01*
X514165Y60377D01*
X514217Y60309D01*
X514267Y60240D01*
X514313Y60168D01*
X514356Y60094D01*
X514396Y60018D01*
X514433Y59941D01*
X514466Y59862D01*
X514496Y59782D01*
X514575Y59615D01*
X514650Y59446D01*
X514721Y59275D01*
X514788Y59103D01*
X514850Y58929D01*
X514909Y58753D01*
X514963Y58577D01*
X515013Y58399D01*
X515059Y58219D01*
X515101Y58039D01*
X515138Y57858D01*
X515171Y57676D01*
X515200Y57494D01*
X515224Y57310D01*
X515244Y57126D01*
X515259Y56942D01*
X515270Y56758D01*
X515277Y56573D01*
X515279Y56388D01*
X510057Y56388D02*
X510059Y56203D01*
X510066Y56018D01*
X510077Y55834D01*
X510092Y55650D01*
X510112Y55466D01*
X510136Y55282D01*
X510165Y55100D01*
X510198Y54918D01*
X510235Y54737D01*
X510277Y54557D01*
X510323Y54377D01*
X510373Y54199D01*
X510427Y54023D01*
X510486Y53847D01*
X510548Y53673D01*
X510615Y53501D01*
X510686Y53330D01*
X510761Y53161D01*
X510840Y52994D01*
X510870Y52914D01*
X510903Y52835D01*
X510940Y52758D01*
X510980Y52682D01*
X511023Y52608D01*
X511069Y52536D01*
X511119Y52467D01*
X511172Y52399D01*
X511227Y52334D01*
X511286Y52271D01*
X511347Y52212D01*
X511410Y52154D01*
X511477Y52100D01*
X511545Y52049D01*
X511616Y52001D01*
X511689Y51956D01*
X511763Y51914D01*
X511840Y51876D01*
X511918Y51841D01*
X511997Y51809D01*
X512078Y51781D01*
X512160Y51757D01*
X512244Y51736D01*
X512327Y51719D01*
X512412Y51706D01*
X512497Y51697D01*
X512582Y51691D01*
X512668Y51689D01*
X514495Y52994D02*
X514574Y53161D01*
X514649Y53330D01*
X514720Y53501D01*
X514787Y53673D01*
X514849Y53847D01*
X514908Y54023D01*
X514962Y54199D01*
X515012Y54377D01*
X515058Y54557D01*
X515100Y54737D01*
X515137Y54918D01*
X515170Y55100D01*
X515199Y55282D01*
X515223Y55466D01*
X515243Y55650D01*
X515258Y55834D01*
X515269Y56018D01*
X515276Y56203D01*
X515278Y56388D01*
X514496Y52994D02*
X514466Y52914D01*
X514433Y52835D01*
X514396Y52758D01*
X514356Y52682D01*
X514313Y52608D01*
X514267Y52536D01*
X514217Y52467D01*
X514165Y52399D01*
X514109Y52334D01*
X514051Y52271D01*
X513989Y52212D01*
X513926Y52154D01*
X513859Y52100D01*
X513791Y52049D01*
X513720Y52001D01*
X513647Y51956D01*
X513573Y51914D01*
X513496Y51876D01*
X513418Y51841D01*
X513339Y51809D01*
X513258Y51781D01*
X513176Y51757D01*
X513092Y51736D01*
X513009Y51719D01*
X512924Y51706D01*
X512839Y51697D01*
X512754Y51691D01*
X512668Y51689D01*
X510579Y53777D02*
X514756Y58999D01*
X522073Y61088D02*
X522168Y61086D01*
X522262Y61080D01*
X522356Y61071D01*
X522450Y61058D01*
X522543Y61041D01*
X522635Y61020D01*
X522727Y60995D01*
X522817Y60967D01*
X522906Y60935D01*
X522994Y60900D01*
X523080Y60861D01*
X523165Y60819D01*
X523248Y60773D01*
X523329Y60724D01*
X523408Y60672D01*
X523485Y60617D01*
X523559Y60558D01*
X523631Y60497D01*
X523701Y60433D01*
X523768Y60366D01*
X523832Y60296D01*
X523893Y60224D01*
X523952Y60150D01*
X524007Y60073D01*
X524059Y59994D01*
X524108Y59913D01*
X524154Y59830D01*
X524196Y59745D01*
X524235Y59659D01*
X524270Y59571D01*
X524302Y59482D01*
X524330Y59392D01*
X524355Y59300D01*
X524376Y59208D01*
X524393Y59115D01*
X524406Y59021D01*
X524415Y58927D01*
X524421Y58833D01*
X524423Y58738D01*
X522073Y61087D02*
X521965Y61085D01*
X521856Y61079D01*
X521748Y61069D01*
X521641Y61056D01*
X521534Y61038D01*
X521427Y61017D01*
X521322Y60992D01*
X521217Y60963D01*
X521114Y60931D01*
X521012Y60894D01*
X520911Y60854D01*
X520812Y60811D01*
X520714Y60764D01*
X520618Y60713D01*
X520524Y60659D01*
X520432Y60602D01*
X520342Y60541D01*
X520254Y60477D01*
X520169Y60411D01*
X520086Y60341D01*
X520006Y60268D01*
X519928Y60192D01*
X519853Y60114D01*
X519781Y60033D01*
X519712Y59949D01*
X519646Y59863D01*
X519583Y59775D01*
X519524Y59684D01*
X519467Y59592D01*
X519414Y59497D01*
X519365Y59401D01*
X519319Y59302D01*
X519276Y59203D01*
X519237Y59101D01*
X519202Y58999D01*
X523640Y56910D02*
X523709Y56979D01*
X523775Y57050D01*
X523839Y57123D01*
X523900Y57199D01*
X523958Y57278D01*
X524012Y57358D01*
X524064Y57441D01*
X524112Y57525D01*
X524158Y57611D01*
X524199Y57699D01*
X524238Y57789D01*
X524273Y57880D01*
X524304Y57972D01*
X524332Y58065D01*
X524356Y58159D01*
X524376Y58254D01*
X524393Y58350D01*
X524406Y58447D01*
X524415Y58544D01*
X524421Y58641D01*
X524423Y58738D01*
X523639Y56910D02*
X519201Y51689D01*
X524422Y51689D01*
X528345Y56388D02*
X528347Y56573D01*
X528354Y56758D01*
X528365Y56942D01*
X528380Y57126D01*
X528400Y57310D01*
X528424Y57494D01*
X528453Y57676D01*
X528486Y57858D01*
X528523Y58039D01*
X528565Y58219D01*
X528611Y58399D01*
X528661Y58577D01*
X528715Y58753D01*
X528774Y58929D01*
X528836Y59103D01*
X528903Y59275D01*
X528974Y59446D01*
X529049Y59615D01*
X529128Y59782D01*
X529158Y59862D01*
X529191Y59941D01*
X529228Y60018D01*
X529268Y60094D01*
X529311Y60168D01*
X529357Y60240D01*
X529407Y60309D01*
X529459Y60377D01*
X529515Y60442D01*
X529573Y60505D01*
X529635Y60564D01*
X529698Y60622D01*
X529765Y60676D01*
X529833Y60727D01*
X529904Y60775D01*
X529977Y60820D01*
X530051Y60862D01*
X530128Y60900D01*
X530206Y60935D01*
X530285Y60967D01*
X530366Y60995D01*
X530448Y61019D01*
X530532Y61040D01*
X530615Y61057D01*
X530700Y61070D01*
X530785Y61079D01*
X530870Y61085D01*
X530956Y61087D01*
X531042Y61085D01*
X531127Y61079D01*
X531212Y61070D01*
X531297Y61057D01*
X531380Y61040D01*
X531464Y61019D01*
X531546Y60995D01*
X531627Y60967D01*
X531706Y60935D01*
X531784Y60900D01*
X531861Y60862D01*
X531935Y60820D01*
X532008Y60775D01*
X532079Y60727D01*
X532147Y60676D01*
X532214Y60622D01*
X532277Y60564D01*
X532339Y60505D01*
X532397Y60442D01*
X532453Y60377D01*
X532505Y60309D01*
X532555Y60240D01*
X532601Y60168D01*
X532644Y60094D01*
X532684Y60018D01*
X532721Y59941D01*
X532754Y59862D01*
X532784Y59782D01*
X532783Y59782D02*
X532862Y59615D01*
X532937Y59446D01*
X533008Y59275D01*
X533075Y59103D01*
X533137Y58929D01*
X533196Y58753D01*
X533250Y58577D01*
X533300Y58399D01*
X533346Y58219D01*
X533388Y58039D01*
X533425Y57858D01*
X533458Y57676D01*
X533487Y57494D01*
X533511Y57310D01*
X533531Y57126D01*
X533546Y56942D01*
X533557Y56758D01*
X533564Y56573D01*
X533566Y56388D01*
X528345Y56388D02*
X528347Y56203D01*
X528354Y56018D01*
X528365Y55834D01*
X528380Y55650D01*
X528400Y55466D01*
X528424Y55282D01*
X528453Y55100D01*
X528486Y54918D01*
X528523Y54737D01*
X528565Y54557D01*
X528611Y54377D01*
X528661Y54199D01*
X528715Y54023D01*
X528774Y53847D01*
X528836Y53673D01*
X528903Y53501D01*
X528974Y53330D01*
X529049Y53161D01*
X529128Y52994D01*
X529158Y52914D01*
X529191Y52835D01*
X529228Y52758D01*
X529268Y52682D01*
X529311Y52608D01*
X529357Y52536D01*
X529407Y52467D01*
X529460Y52399D01*
X529515Y52334D01*
X529574Y52271D01*
X529635Y52212D01*
X529698Y52154D01*
X529765Y52100D01*
X529833Y52049D01*
X529904Y52001D01*
X529977Y51956D01*
X530051Y51914D01*
X530128Y51876D01*
X530206Y51841D01*
X530285Y51809D01*
X530366Y51781D01*
X530448Y51757D01*
X530532Y51736D01*
X530615Y51719D01*
X530700Y51706D01*
X530785Y51697D01*
X530870Y51691D01*
X530956Y51689D01*
X532783Y52994D02*
X532862Y53161D01*
X532937Y53330D01*
X533008Y53501D01*
X533075Y53673D01*
X533137Y53847D01*
X533196Y54023D01*
X533250Y54199D01*
X533300Y54377D01*
X533346Y54557D01*
X533388Y54737D01*
X533425Y54918D01*
X533458Y55100D01*
X533487Y55282D01*
X533511Y55466D01*
X533531Y55650D01*
X533546Y55834D01*
X533557Y56018D01*
X533564Y56203D01*
X533566Y56388D01*
X532784Y52994D02*
X532754Y52914D01*
X532721Y52835D01*
X532684Y52758D01*
X532644Y52682D01*
X532601Y52608D01*
X532555Y52536D01*
X532505Y52467D01*
X532453Y52399D01*
X532397Y52334D01*
X532339Y52271D01*
X532277Y52212D01*
X532214Y52154D01*
X532147Y52100D01*
X532079Y52049D01*
X532008Y52001D01*
X531935Y51956D01*
X531861Y51914D01*
X531784Y51876D01*
X531706Y51841D01*
X531627Y51809D01*
X531546Y51781D01*
X531464Y51757D01*
X531380Y51736D01*
X531297Y51719D01*
X531212Y51706D01*
X531127Y51697D01*
X531042Y51691D01*
X530956Y51689D01*
X528867Y53777D02*
X533044Y58999D01*
X279612Y347091D02*
X276479Y356489D01*
X282744Y356489D02*
X279612Y347091D01*
X287624Y347091D02*
X290234Y347091D01*
X287624Y347091D02*
X287547Y347093D01*
X287471Y347099D01*
X287394Y347108D01*
X287318Y347121D01*
X287243Y347138D01*
X287169Y347158D01*
X287096Y347183D01*
X287025Y347210D01*
X286954Y347241D01*
X286886Y347276D01*
X286819Y347314D01*
X286754Y347355D01*
X286691Y347399D01*
X286631Y347446D01*
X286572Y347497D01*
X286517Y347550D01*
X286464Y347605D01*
X286413Y347664D01*
X286366Y347724D01*
X286322Y347787D01*
X286281Y347852D01*
X286243Y347919D01*
X286208Y347987D01*
X286177Y348058D01*
X286150Y348129D01*
X286125Y348202D01*
X286105Y348276D01*
X286088Y348351D01*
X286075Y348427D01*
X286066Y348504D01*
X286060Y348580D01*
X286058Y348657D01*
X286058Y351268D01*
X286060Y351358D01*
X286066Y351447D01*
X286075Y351537D01*
X286089Y351626D01*
X286106Y351714D01*
X286127Y351801D01*
X286152Y351888D01*
X286181Y351973D01*
X286213Y352057D01*
X286248Y352139D01*
X286288Y352220D01*
X286330Y352299D01*
X286376Y352376D01*
X286426Y352451D01*
X286478Y352524D01*
X286534Y352595D01*
X286592Y352663D01*
X286654Y352728D01*
X286718Y352791D01*
X286785Y352851D01*
X286854Y352908D01*
X286926Y352962D01*
X287000Y353013D01*
X287076Y353061D01*
X287154Y353105D01*
X287234Y353146D01*
X287316Y353184D01*
X287399Y353218D01*
X287484Y353248D01*
X287570Y353275D01*
X287656Y353298D01*
X287744Y353317D01*
X287833Y353332D01*
X287922Y353344D01*
X288011Y353352D01*
X288101Y353356D01*
X288191Y353356D01*
X288281Y353352D01*
X288370Y353344D01*
X288459Y353332D01*
X288548Y353317D01*
X288636Y353298D01*
X288722Y353275D01*
X288808Y353248D01*
X288893Y353218D01*
X288976Y353184D01*
X289058Y353146D01*
X289138Y353105D01*
X289216Y353061D01*
X289292Y353013D01*
X289366Y352962D01*
X289438Y352908D01*
X289507Y352851D01*
X289574Y352791D01*
X289638Y352728D01*
X289700Y352663D01*
X289758Y352595D01*
X289814Y352524D01*
X289866Y352451D01*
X289916Y352376D01*
X289962Y352299D01*
X290004Y352220D01*
X290044Y352139D01*
X290079Y352057D01*
X290111Y351973D01*
X290140Y351888D01*
X290165Y351801D01*
X290186Y351714D01*
X290203Y351626D01*
X290217Y351537D01*
X290226Y351447D01*
X290232Y351358D01*
X290234Y351268D01*
X290234Y350224D01*
X286058Y350224D01*
X294339Y347091D02*
X294339Y353356D01*
X297471Y353356D01*
X297471Y352312D01*
X301166Y350746D02*
X303777Y349702D01*
X301166Y350746D02*
X301100Y350774D01*
X301035Y350807D01*
X300972Y350842D01*
X300911Y350881D01*
X300852Y350923D01*
X300796Y350968D01*
X300742Y351016D01*
X300691Y351067D01*
X300642Y351120D01*
X300597Y351177D01*
X300554Y351235D01*
X300515Y351295D01*
X300478Y351358D01*
X300446Y351423D01*
X300417Y351489D01*
X300391Y351556D01*
X300369Y351625D01*
X300351Y351695D01*
X300336Y351766D01*
X300325Y351837D01*
X300318Y351909D01*
X300315Y351981D01*
X300316Y352053D01*
X300321Y352126D01*
X300329Y352197D01*
X300341Y352269D01*
X300357Y352339D01*
X300377Y352408D01*
X300401Y352477D01*
X300428Y352544D01*
X300458Y352609D01*
X300492Y352673D01*
X300530Y352735D01*
X300570Y352795D01*
X300614Y352852D01*
X300661Y352907D01*
X300711Y352960D01*
X300763Y353009D01*
X300818Y353056D01*
X300875Y353100D01*
X300935Y353141D01*
X300997Y353178D01*
X301061Y353213D01*
X301126Y353243D01*
X301193Y353271D01*
X301261Y353294D01*
X301331Y353314D01*
X301401Y353330D01*
X301472Y353343D01*
X301544Y353351D01*
X301616Y353356D01*
X301688Y353357D01*
X301689Y353356D02*
X301840Y353352D01*
X301991Y353344D01*
X302142Y353333D01*
X302293Y353317D01*
X302443Y353297D01*
X302593Y353274D01*
X302742Y353247D01*
X302890Y353216D01*
X303038Y353181D01*
X303184Y353143D01*
X303330Y353100D01*
X303474Y353054D01*
X303617Y353005D01*
X303759Y352952D01*
X303899Y352895D01*
X304038Y352834D01*
X303777Y349702D02*
X303843Y349674D01*
X303908Y349641D01*
X303971Y349606D01*
X304032Y349567D01*
X304091Y349525D01*
X304147Y349480D01*
X304201Y349432D01*
X304252Y349381D01*
X304301Y349328D01*
X304346Y349271D01*
X304389Y349213D01*
X304428Y349153D01*
X304465Y349090D01*
X304497Y349025D01*
X304526Y348959D01*
X304552Y348892D01*
X304574Y348823D01*
X304592Y348753D01*
X304607Y348682D01*
X304618Y348611D01*
X304625Y348539D01*
X304628Y348467D01*
X304627Y348395D01*
X304622Y348322D01*
X304614Y348251D01*
X304602Y348179D01*
X304586Y348109D01*
X304566Y348040D01*
X304542Y347971D01*
X304515Y347904D01*
X304485Y347839D01*
X304451Y347775D01*
X304413Y347713D01*
X304373Y347653D01*
X304329Y347596D01*
X304282Y347541D01*
X304232Y347488D01*
X304180Y347439D01*
X304125Y347392D01*
X304068Y347348D01*
X304008Y347307D01*
X303946Y347270D01*
X303882Y347235D01*
X303817Y347205D01*
X303750Y347177D01*
X303682Y347154D01*
X303612Y347134D01*
X303542Y347118D01*
X303471Y347105D01*
X303399Y347097D01*
X303327Y347092D01*
X303255Y347091D01*
X303045Y347096D01*
X302836Y347107D01*
X302627Y347122D01*
X302419Y347142D01*
X302211Y347168D01*
X302004Y347198D01*
X301797Y347233D01*
X301592Y347273D01*
X301387Y347317D01*
X301184Y347367D01*
X300981Y347421D01*
X300780Y347481D01*
X300581Y347544D01*
X300383Y347613D01*
X308263Y347091D02*
X308263Y353356D01*
X308002Y355967D02*
X308002Y356489D01*
X308524Y356489D01*
X308524Y355967D01*
X308002Y355967D01*
X311965Y351268D02*
X311965Y349179D01*
X311966Y351268D02*
X311968Y351358D01*
X311974Y351447D01*
X311983Y351537D01*
X311997Y351626D01*
X312014Y351714D01*
X312035Y351801D01*
X312060Y351888D01*
X312089Y351973D01*
X312121Y352057D01*
X312156Y352139D01*
X312196Y352220D01*
X312238Y352299D01*
X312284Y352376D01*
X312334Y352451D01*
X312386Y352524D01*
X312442Y352595D01*
X312500Y352663D01*
X312562Y352728D01*
X312626Y352791D01*
X312693Y352851D01*
X312762Y352908D01*
X312834Y352962D01*
X312908Y353013D01*
X312984Y353061D01*
X313062Y353105D01*
X313142Y353146D01*
X313224Y353184D01*
X313307Y353218D01*
X313392Y353248D01*
X313478Y353275D01*
X313564Y353298D01*
X313652Y353317D01*
X313741Y353332D01*
X313830Y353344D01*
X313919Y353352D01*
X314009Y353356D01*
X314099Y353356D01*
X314189Y353352D01*
X314278Y353344D01*
X314367Y353332D01*
X314456Y353317D01*
X314544Y353298D01*
X314630Y353275D01*
X314716Y353248D01*
X314801Y353218D01*
X314884Y353184D01*
X314966Y353146D01*
X315046Y353105D01*
X315124Y353061D01*
X315200Y353013D01*
X315274Y352962D01*
X315346Y352908D01*
X315415Y352851D01*
X315482Y352791D01*
X315546Y352728D01*
X315608Y352663D01*
X315666Y352595D01*
X315722Y352524D01*
X315774Y352451D01*
X315824Y352376D01*
X315870Y352299D01*
X315912Y352220D01*
X315952Y352139D01*
X315987Y352057D01*
X316019Y351973D01*
X316048Y351888D01*
X316073Y351801D01*
X316094Y351714D01*
X316111Y351626D01*
X316125Y351537D01*
X316134Y351447D01*
X316140Y351358D01*
X316142Y351268D01*
X316142Y349179D01*
X316140Y349089D01*
X316134Y349000D01*
X316125Y348910D01*
X316111Y348821D01*
X316094Y348733D01*
X316073Y348646D01*
X316048Y348559D01*
X316019Y348474D01*
X315987Y348390D01*
X315952Y348308D01*
X315912Y348227D01*
X315870Y348148D01*
X315824Y348071D01*
X315774Y347996D01*
X315722Y347923D01*
X315666Y347852D01*
X315608Y347784D01*
X315546Y347719D01*
X315482Y347656D01*
X315415Y347596D01*
X315346Y347539D01*
X315274Y347485D01*
X315200Y347434D01*
X315124Y347386D01*
X315046Y347342D01*
X314966Y347301D01*
X314884Y347263D01*
X314801Y347229D01*
X314716Y347199D01*
X314630Y347172D01*
X314544Y347149D01*
X314456Y347130D01*
X314367Y347115D01*
X314278Y347103D01*
X314189Y347095D01*
X314099Y347091D01*
X314009Y347091D01*
X313919Y347095D01*
X313830Y347103D01*
X313741Y347115D01*
X313652Y347130D01*
X313564Y347149D01*
X313478Y347172D01*
X313392Y347199D01*
X313307Y347229D01*
X313224Y347263D01*
X313142Y347301D01*
X313062Y347342D01*
X312984Y347386D01*
X312908Y347434D01*
X312834Y347485D01*
X312762Y347539D01*
X312693Y347596D01*
X312626Y347656D01*
X312562Y347719D01*
X312500Y347784D01*
X312442Y347852D01*
X312386Y347923D01*
X312334Y347996D01*
X312284Y348071D01*
X312238Y348148D01*
X312196Y348227D01*
X312156Y348308D01*
X312121Y348390D01*
X312089Y348474D01*
X312060Y348559D01*
X312035Y348646D01*
X312014Y348733D01*
X311997Y348821D01*
X311983Y348910D01*
X311974Y349000D01*
X311968Y349089D01*
X311966Y349179D01*
X320195Y347091D02*
X320195Y353356D01*
X322806Y353356D01*
X322883Y353354D01*
X322959Y353348D01*
X323036Y353339D01*
X323112Y353326D01*
X323187Y353309D01*
X323261Y353289D01*
X323334Y353264D01*
X323405Y353237D01*
X323476Y353206D01*
X323544Y353171D01*
X323611Y353133D01*
X323676Y353092D01*
X323739Y353048D01*
X323799Y353001D01*
X323858Y352950D01*
X323913Y352897D01*
X323966Y352842D01*
X324017Y352783D01*
X324064Y352723D01*
X324108Y352660D01*
X324149Y352595D01*
X324187Y352528D01*
X324222Y352460D01*
X324253Y352389D01*
X324280Y352318D01*
X324305Y352245D01*
X324325Y352171D01*
X324342Y352096D01*
X324355Y352020D01*
X324364Y351944D01*
X324370Y351867D01*
X324372Y351790D01*
X324372Y347091D01*
X333389Y354401D02*
X335999Y356489D01*
X335999Y347091D01*
X333389Y347091D02*
X338610Y347091D01*
X275971Y363855D02*
X275971Y373253D01*
X275971Y370120D02*
X278582Y370120D01*
X278659Y370118D01*
X278735Y370112D01*
X278812Y370103D01*
X278888Y370090D01*
X278963Y370073D01*
X279037Y370053D01*
X279110Y370028D01*
X279181Y370001D01*
X279252Y369970D01*
X279320Y369935D01*
X279387Y369897D01*
X279452Y369856D01*
X279515Y369812D01*
X279575Y369765D01*
X279634Y369714D01*
X279689Y369661D01*
X279742Y369606D01*
X279793Y369547D01*
X279840Y369487D01*
X279884Y369424D01*
X279925Y369359D01*
X279963Y369292D01*
X279998Y369224D01*
X280029Y369153D01*
X280056Y369082D01*
X280081Y369009D01*
X280101Y368935D01*
X280118Y368860D01*
X280131Y368784D01*
X280140Y368708D01*
X280146Y368631D01*
X280148Y368554D01*
X280148Y363855D01*
X283432Y370120D02*
X286565Y370120D01*
X284476Y373253D02*
X284476Y365421D01*
X284478Y365344D01*
X284484Y365268D01*
X284493Y365191D01*
X284506Y365115D01*
X284523Y365040D01*
X284543Y364966D01*
X284568Y364893D01*
X284595Y364822D01*
X284626Y364751D01*
X284661Y364683D01*
X284699Y364616D01*
X284740Y364551D01*
X284784Y364488D01*
X284831Y364428D01*
X284882Y364369D01*
X284935Y364314D01*
X284990Y364261D01*
X285049Y364210D01*
X285109Y364163D01*
X285172Y364119D01*
X285237Y364078D01*
X285304Y364040D01*
X285372Y364005D01*
X285443Y363974D01*
X285514Y363947D01*
X285587Y363922D01*
X285661Y363902D01*
X285736Y363885D01*
X285812Y363872D01*
X285889Y363863D01*
X285965Y363857D01*
X286042Y363855D01*
X286565Y363855D01*
X289223Y370120D02*
X292356Y370120D01*
X290267Y373253D02*
X290267Y365421D01*
X290268Y365421D02*
X290270Y365344D01*
X290276Y365268D01*
X290285Y365191D01*
X290298Y365115D01*
X290315Y365040D01*
X290335Y364966D01*
X290360Y364893D01*
X290387Y364822D01*
X290418Y364751D01*
X290453Y364683D01*
X290491Y364616D01*
X290532Y364551D01*
X290576Y364488D01*
X290623Y364428D01*
X290674Y364369D01*
X290727Y364314D01*
X290782Y364261D01*
X290841Y364210D01*
X290901Y364163D01*
X290964Y364119D01*
X291029Y364078D01*
X291096Y364040D01*
X291164Y364005D01*
X291235Y363974D01*
X291306Y363947D01*
X291379Y363922D01*
X291453Y363902D01*
X291528Y363885D01*
X291604Y363872D01*
X291681Y363863D01*
X291757Y363857D01*
X291834Y363855D01*
X292356Y363855D01*
X296133Y360722D02*
X296133Y370120D01*
X298744Y370120D01*
X298821Y370118D01*
X298897Y370112D01*
X298974Y370103D01*
X299050Y370090D01*
X299125Y370073D01*
X299199Y370053D01*
X299272Y370028D01*
X299343Y370001D01*
X299414Y369970D01*
X299482Y369935D01*
X299549Y369897D01*
X299614Y369856D01*
X299677Y369812D01*
X299737Y369765D01*
X299796Y369714D01*
X299851Y369661D01*
X299904Y369606D01*
X299955Y369547D01*
X300002Y369487D01*
X300046Y369424D01*
X300087Y369359D01*
X300125Y369292D01*
X300160Y369224D01*
X300191Y369153D01*
X300218Y369082D01*
X300243Y369009D01*
X300263Y368935D01*
X300280Y368860D01*
X300293Y368784D01*
X300302Y368708D01*
X300308Y368631D01*
X300310Y368554D01*
X300310Y365421D01*
X300308Y365344D01*
X300302Y365268D01*
X300293Y365191D01*
X300280Y365115D01*
X300263Y365040D01*
X300243Y364966D01*
X300218Y364893D01*
X300191Y364822D01*
X300160Y364751D01*
X300125Y364683D01*
X300087Y364616D01*
X300046Y364551D01*
X300002Y364488D01*
X299955Y364428D01*
X299904Y364369D01*
X299851Y364314D01*
X299796Y364261D01*
X299737Y364210D01*
X299677Y364163D01*
X299614Y364119D01*
X299549Y364078D01*
X299482Y364040D01*
X299414Y364005D01*
X299343Y363974D01*
X299272Y363947D01*
X299199Y363922D01*
X299125Y363902D01*
X299050Y363885D01*
X298974Y363872D01*
X298897Y363863D01*
X298821Y363857D01*
X298744Y363855D01*
X296133Y363855D01*
X304796Y367510D02*
X307406Y366466D01*
X304795Y367510D02*
X304729Y367538D01*
X304664Y367571D01*
X304601Y367606D01*
X304540Y367645D01*
X304481Y367687D01*
X304425Y367732D01*
X304371Y367780D01*
X304320Y367831D01*
X304271Y367884D01*
X304226Y367941D01*
X304183Y367999D01*
X304144Y368059D01*
X304107Y368122D01*
X304075Y368187D01*
X304046Y368253D01*
X304020Y368320D01*
X303998Y368389D01*
X303980Y368459D01*
X303965Y368530D01*
X303954Y368601D01*
X303947Y368673D01*
X303944Y368745D01*
X303945Y368817D01*
X303950Y368890D01*
X303958Y368961D01*
X303970Y369033D01*
X303986Y369103D01*
X304006Y369172D01*
X304030Y369241D01*
X304057Y369308D01*
X304087Y369373D01*
X304121Y369437D01*
X304159Y369499D01*
X304199Y369559D01*
X304243Y369616D01*
X304290Y369671D01*
X304340Y369724D01*
X304392Y369773D01*
X304447Y369820D01*
X304504Y369864D01*
X304564Y369905D01*
X304626Y369942D01*
X304690Y369977D01*
X304755Y370007D01*
X304822Y370035D01*
X304890Y370058D01*
X304960Y370078D01*
X305030Y370094D01*
X305101Y370107D01*
X305173Y370115D01*
X305245Y370120D01*
X305317Y370121D01*
X305318Y370120D02*
X305469Y370116D01*
X305620Y370108D01*
X305771Y370097D01*
X305922Y370081D01*
X306072Y370061D01*
X306222Y370038D01*
X306371Y370011D01*
X306519Y369980D01*
X306667Y369945D01*
X306813Y369907D01*
X306959Y369864D01*
X307103Y369818D01*
X307246Y369769D01*
X307388Y369716D01*
X307528Y369659D01*
X307667Y369598D01*
X307406Y366466D02*
X307472Y366438D01*
X307537Y366405D01*
X307600Y366370D01*
X307661Y366331D01*
X307720Y366289D01*
X307776Y366244D01*
X307830Y366196D01*
X307881Y366145D01*
X307930Y366092D01*
X307975Y366035D01*
X308018Y365977D01*
X308057Y365917D01*
X308094Y365854D01*
X308126Y365789D01*
X308155Y365723D01*
X308181Y365656D01*
X308203Y365587D01*
X308221Y365517D01*
X308236Y365446D01*
X308247Y365375D01*
X308254Y365303D01*
X308257Y365231D01*
X308256Y365159D01*
X308251Y365086D01*
X308243Y365015D01*
X308231Y364943D01*
X308215Y364873D01*
X308195Y364804D01*
X308171Y364735D01*
X308144Y364668D01*
X308114Y364603D01*
X308080Y364539D01*
X308042Y364477D01*
X308002Y364417D01*
X307958Y364360D01*
X307911Y364305D01*
X307861Y364252D01*
X307809Y364203D01*
X307754Y364156D01*
X307697Y364112D01*
X307637Y364071D01*
X307575Y364034D01*
X307511Y363999D01*
X307446Y363969D01*
X307379Y363941D01*
X307311Y363918D01*
X307241Y363898D01*
X307171Y363882D01*
X307100Y363869D01*
X307028Y363861D01*
X306956Y363856D01*
X306884Y363855D01*
X306674Y363860D01*
X306465Y363871D01*
X306256Y363886D01*
X306048Y363906D01*
X305840Y363932D01*
X305633Y363962D01*
X305426Y363997D01*
X305221Y364037D01*
X305016Y364081D01*
X304813Y364131D01*
X304610Y364185D01*
X304409Y364245D01*
X304210Y364308D01*
X304012Y364377D01*
X311936Y364638D02*
X311936Y365160D01*
X312458Y365160D01*
X312458Y364638D01*
X311936Y364638D01*
X311936Y368815D02*
X311936Y369337D01*
X312458Y369337D01*
X312458Y368815D01*
X311936Y368815D01*
X315900Y362811D02*
X320076Y374297D01*
X327392Y374297D02*
X323215Y362811D01*
X332355Y363855D02*
X334966Y363855D01*
X332355Y363855D02*
X332278Y363857D01*
X332202Y363863D01*
X332125Y363872D01*
X332049Y363885D01*
X331974Y363902D01*
X331900Y363922D01*
X331827Y363947D01*
X331756Y363974D01*
X331685Y364005D01*
X331617Y364040D01*
X331550Y364078D01*
X331485Y364119D01*
X331422Y364163D01*
X331362Y364210D01*
X331303Y364261D01*
X331248Y364314D01*
X331195Y364369D01*
X331144Y364428D01*
X331097Y364488D01*
X331053Y364551D01*
X331012Y364616D01*
X330974Y364683D01*
X330939Y364751D01*
X330908Y364822D01*
X330881Y364893D01*
X330856Y364966D01*
X330836Y365040D01*
X330819Y365115D01*
X330806Y365191D01*
X330797Y365268D01*
X330791Y365344D01*
X330789Y365421D01*
X330789Y368554D01*
X330791Y368631D01*
X330797Y368707D01*
X330806Y368784D01*
X330819Y368860D01*
X330836Y368935D01*
X330856Y369009D01*
X330881Y369082D01*
X330908Y369153D01*
X330939Y369224D01*
X330974Y369292D01*
X331012Y369359D01*
X331053Y369424D01*
X331097Y369487D01*
X331144Y369547D01*
X331195Y369606D01*
X331248Y369661D01*
X331303Y369714D01*
X331362Y369765D01*
X331422Y369812D01*
X331485Y369856D01*
X331550Y369897D01*
X331617Y369935D01*
X331685Y369970D01*
X331756Y370001D01*
X331827Y370028D01*
X331900Y370053D01*
X331974Y370073D01*
X332049Y370090D01*
X332125Y370103D01*
X332202Y370112D01*
X332278Y370118D01*
X332355Y370120D01*
X334966Y370120D01*
X334966Y362289D01*
X334965Y362289D02*
X334963Y362212D01*
X334957Y362136D01*
X334948Y362059D01*
X334935Y361983D01*
X334918Y361908D01*
X334898Y361834D01*
X334873Y361761D01*
X334846Y361690D01*
X334815Y361619D01*
X334780Y361551D01*
X334742Y361484D01*
X334701Y361419D01*
X334657Y361356D01*
X334610Y361296D01*
X334559Y361237D01*
X334506Y361182D01*
X334451Y361129D01*
X334392Y361078D01*
X334332Y361031D01*
X334269Y360987D01*
X334204Y360946D01*
X334137Y360908D01*
X334069Y360873D01*
X333998Y360842D01*
X333927Y360815D01*
X333854Y360790D01*
X333780Y360770D01*
X333705Y360753D01*
X333629Y360740D01*
X333553Y360731D01*
X333476Y360725D01*
X333399Y360723D01*
X333399Y360722D02*
X331311Y360722D01*
X339019Y363855D02*
X339019Y370120D01*
X338758Y372731D02*
X338758Y373253D01*
X339280Y373253D01*
X339280Y372731D01*
X338758Y372731D01*
X341953Y370120D02*
X345086Y370120D01*
X342997Y373253D02*
X342997Y365421D01*
X342998Y365421D02*
X343000Y365344D01*
X343006Y365268D01*
X343015Y365191D01*
X343028Y365115D01*
X343045Y365040D01*
X343065Y364966D01*
X343090Y364893D01*
X343117Y364822D01*
X343148Y364751D01*
X343183Y364683D01*
X343221Y364616D01*
X343262Y364551D01*
X343306Y364488D01*
X343353Y364428D01*
X343404Y364369D01*
X343457Y364314D01*
X343512Y364261D01*
X343571Y364210D01*
X343631Y364163D01*
X343694Y364119D01*
X343759Y364078D01*
X343826Y364040D01*
X343894Y364005D01*
X343965Y363974D01*
X344036Y363947D01*
X344109Y363922D01*
X344183Y363902D01*
X344258Y363885D01*
X344334Y363872D01*
X344411Y363863D01*
X344487Y363857D01*
X344564Y363855D01*
X345086Y363855D01*
X348818Y363855D02*
X348818Y373253D01*
X348818Y370120D02*
X351428Y370120D01*
X351505Y370118D01*
X351581Y370112D01*
X351658Y370103D01*
X351734Y370090D01*
X351809Y370073D01*
X351883Y370053D01*
X351956Y370028D01*
X352027Y370001D01*
X352098Y369970D01*
X352166Y369935D01*
X352233Y369897D01*
X352298Y369856D01*
X352361Y369812D01*
X352421Y369765D01*
X352480Y369714D01*
X352535Y369661D01*
X352588Y369606D01*
X352639Y369547D01*
X352686Y369487D01*
X352730Y369424D01*
X352771Y369359D01*
X352809Y369292D01*
X352844Y369224D01*
X352875Y369153D01*
X352902Y369082D01*
X352927Y369009D01*
X352947Y368935D01*
X352964Y368860D01*
X352977Y368784D01*
X352986Y368708D01*
X352992Y368631D01*
X352994Y368554D01*
X352995Y368554D02*
X352995Y363855D01*
X357352Y365421D02*
X357352Y370120D01*
X357352Y365421D02*
X357354Y365344D01*
X357360Y365268D01*
X357369Y365191D01*
X357382Y365115D01*
X357399Y365040D01*
X357419Y364966D01*
X357444Y364893D01*
X357471Y364822D01*
X357502Y364751D01*
X357537Y364683D01*
X357575Y364616D01*
X357616Y364551D01*
X357660Y364488D01*
X357707Y364428D01*
X357758Y364369D01*
X357811Y364314D01*
X357866Y364261D01*
X357925Y364210D01*
X357985Y364163D01*
X358048Y364119D01*
X358113Y364078D01*
X358180Y364040D01*
X358248Y364005D01*
X358319Y363974D01*
X358390Y363947D01*
X358463Y363922D01*
X358537Y363902D01*
X358612Y363885D01*
X358688Y363872D01*
X358765Y363863D01*
X358841Y363857D01*
X358918Y363855D01*
X361529Y363855D01*
X361529Y370120D01*
X365932Y373253D02*
X365932Y363855D01*
X368543Y363855D01*
X368620Y363857D01*
X368696Y363863D01*
X368773Y363872D01*
X368849Y363885D01*
X368924Y363902D01*
X368998Y363922D01*
X369071Y363947D01*
X369142Y363974D01*
X369213Y364005D01*
X369281Y364040D01*
X369348Y364078D01*
X369413Y364119D01*
X369476Y364163D01*
X369536Y364210D01*
X369595Y364261D01*
X369650Y364314D01*
X369703Y364369D01*
X369754Y364428D01*
X369801Y364488D01*
X369845Y364551D01*
X369886Y364616D01*
X369924Y364683D01*
X369959Y364751D01*
X369990Y364822D01*
X370017Y364893D01*
X370042Y364966D01*
X370062Y365040D01*
X370079Y365115D01*
X370092Y365191D01*
X370101Y365267D01*
X370107Y365344D01*
X370109Y365421D01*
X370109Y368554D01*
X370107Y368631D01*
X370101Y368707D01*
X370092Y368784D01*
X370079Y368860D01*
X370062Y368935D01*
X370042Y369009D01*
X370017Y369082D01*
X369990Y369153D01*
X369959Y369224D01*
X369924Y369292D01*
X369886Y369359D01*
X369845Y369424D01*
X369801Y369487D01*
X369754Y369547D01*
X369703Y369606D01*
X369650Y369661D01*
X369595Y369714D01*
X369536Y369765D01*
X369476Y369812D01*
X369413Y369856D01*
X369348Y369897D01*
X369281Y369935D01*
X369213Y369970D01*
X369142Y370001D01*
X369071Y370028D01*
X368998Y370053D01*
X368924Y370073D01*
X368849Y370090D01*
X368773Y370103D01*
X368696Y370112D01*
X368620Y370118D01*
X368543Y370120D01*
X365932Y370120D01*
X373505Y364377D02*
X373505Y363855D01*
X373505Y364377D02*
X374027Y364377D01*
X374027Y363855D01*
X373505Y363855D01*
X379045Y363855D02*
X381134Y363855D01*
X379045Y363855D02*
X378968Y363857D01*
X378892Y363863D01*
X378815Y363872D01*
X378739Y363885D01*
X378664Y363902D01*
X378590Y363922D01*
X378517Y363947D01*
X378446Y363974D01*
X378375Y364005D01*
X378307Y364040D01*
X378240Y364078D01*
X378175Y364119D01*
X378112Y364163D01*
X378052Y364210D01*
X377993Y364261D01*
X377938Y364314D01*
X377885Y364369D01*
X377834Y364428D01*
X377787Y364488D01*
X377743Y364551D01*
X377702Y364616D01*
X377664Y364683D01*
X377629Y364751D01*
X377598Y364822D01*
X377571Y364893D01*
X377546Y364966D01*
X377526Y365040D01*
X377509Y365115D01*
X377496Y365191D01*
X377487Y365268D01*
X377481Y365344D01*
X377479Y365421D01*
X377479Y368554D01*
X377481Y368631D01*
X377487Y368707D01*
X377496Y368784D01*
X377509Y368860D01*
X377526Y368935D01*
X377546Y369009D01*
X377571Y369082D01*
X377598Y369153D01*
X377629Y369224D01*
X377664Y369292D01*
X377702Y369359D01*
X377743Y369424D01*
X377787Y369487D01*
X377834Y369547D01*
X377885Y369606D01*
X377938Y369661D01*
X377993Y369714D01*
X378052Y369765D01*
X378112Y369812D01*
X378175Y369856D01*
X378240Y369897D01*
X378307Y369935D01*
X378375Y369970D01*
X378446Y370001D01*
X378517Y370028D01*
X378590Y370053D01*
X378664Y370073D01*
X378739Y370090D01*
X378815Y370103D01*
X378892Y370112D01*
X378968Y370118D01*
X379045Y370120D01*
X381134Y370120D01*
X384479Y368032D02*
X384479Y365943D01*
X384480Y368032D02*
X384482Y368122D01*
X384488Y368211D01*
X384497Y368301D01*
X384511Y368390D01*
X384528Y368478D01*
X384549Y368565D01*
X384574Y368652D01*
X384603Y368737D01*
X384635Y368821D01*
X384670Y368903D01*
X384710Y368984D01*
X384752Y369063D01*
X384798Y369140D01*
X384848Y369215D01*
X384900Y369288D01*
X384956Y369359D01*
X385014Y369427D01*
X385076Y369492D01*
X385140Y369555D01*
X385207Y369615D01*
X385276Y369672D01*
X385348Y369726D01*
X385422Y369777D01*
X385498Y369825D01*
X385576Y369869D01*
X385656Y369910D01*
X385738Y369948D01*
X385821Y369982D01*
X385906Y370012D01*
X385992Y370039D01*
X386078Y370062D01*
X386166Y370081D01*
X386255Y370096D01*
X386344Y370108D01*
X386433Y370116D01*
X386523Y370120D01*
X386613Y370120D01*
X386703Y370116D01*
X386792Y370108D01*
X386881Y370096D01*
X386970Y370081D01*
X387058Y370062D01*
X387144Y370039D01*
X387230Y370012D01*
X387315Y369982D01*
X387398Y369948D01*
X387480Y369910D01*
X387560Y369869D01*
X387638Y369825D01*
X387714Y369777D01*
X387788Y369726D01*
X387860Y369672D01*
X387929Y369615D01*
X387996Y369555D01*
X388060Y369492D01*
X388122Y369427D01*
X388180Y369359D01*
X388236Y369288D01*
X388288Y369215D01*
X388338Y369140D01*
X388384Y369063D01*
X388426Y368984D01*
X388466Y368903D01*
X388501Y368821D01*
X388533Y368737D01*
X388562Y368652D01*
X388587Y368565D01*
X388608Y368478D01*
X388625Y368390D01*
X388639Y368301D01*
X388648Y368211D01*
X388654Y368122D01*
X388656Y368032D01*
X388656Y365943D01*
X388654Y365853D01*
X388648Y365764D01*
X388639Y365674D01*
X388625Y365585D01*
X388608Y365497D01*
X388587Y365410D01*
X388562Y365323D01*
X388533Y365238D01*
X388501Y365154D01*
X388466Y365072D01*
X388426Y364991D01*
X388384Y364912D01*
X388338Y364835D01*
X388288Y364760D01*
X388236Y364687D01*
X388180Y364616D01*
X388122Y364548D01*
X388060Y364483D01*
X387996Y364420D01*
X387929Y364360D01*
X387860Y364303D01*
X387788Y364249D01*
X387714Y364198D01*
X387638Y364150D01*
X387560Y364106D01*
X387480Y364065D01*
X387398Y364027D01*
X387315Y363993D01*
X387230Y363963D01*
X387144Y363936D01*
X387058Y363913D01*
X386970Y363894D01*
X386881Y363879D01*
X386792Y363867D01*
X386703Y363859D01*
X386613Y363855D01*
X386523Y363855D01*
X386433Y363859D01*
X386344Y363867D01*
X386255Y363879D01*
X386166Y363894D01*
X386078Y363913D01*
X385992Y363936D01*
X385906Y363963D01*
X385821Y363993D01*
X385738Y364027D01*
X385656Y364065D01*
X385576Y364106D01*
X385498Y364150D01*
X385422Y364198D01*
X385348Y364249D01*
X385276Y364303D01*
X385207Y364360D01*
X385140Y364420D01*
X385076Y364483D01*
X385014Y364548D01*
X384956Y364616D01*
X384900Y364687D01*
X384848Y364760D01*
X384798Y364835D01*
X384752Y364912D01*
X384710Y364991D01*
X384670Y365072D01*
X384635Y365154D01*
X384603Y365238D01*
X384574Y365323D01*
X384549Y365410D01*
X384528Y365497D01*
X384511Y365585D01*
X384497Y365674D01*
X384488Y365764D01*
X384482Y365853D01*
X384480Y365943D01*
X392884Y363855D02*
X392884Y370120D01*
X397583Y370120D01*
X397660Y370118D01*
X397736Y370112D01*
X397813Y370103D01*
X397889Y370090D01*
X397964Y370073D01*
X398038Y370053D01*
X398111Y370028D01*
X398182Y370001D01*
X398253Y369970D01*
X398321Y369935D01*
X398388Y369897D01*
X398453Y369856D01*
X398516Y369812D01*
X398576Y369765D01*
X398635Y369714D01*
X398690Y369661D01*
X398743Y369606D01*
X398794Y369547D01*
X398841Y369487D01*
X398885Y369424D01*
X398926Y369359D01*
X398964Y369292D01*
X398999Y369224D01*
X399030Y369153D01*
X399057Y369082D01*
X399082Y369009D01*
X399102Y368935D01*
X399119Y368860D01*
X399132Y368784D01*
X399141Y368707D01*
X399147Y368631D01*
X399149Y368554D01*
X399149Y363855D01*
X396016Y363855D02*
X396016Y370120D01*
X403072Y362811D02*
X407249Y374297D01*
X411296Y370642D02*
X411296Y366466D01*
X411296Y370642D02*
X411298Y370743D01*
X411304Y370844D01*
X411314Y370945D01*
X411327Y371045D01*
X411345Y371145D01*
X411366Y371244D01*
X411392Y371342D01*
X411421Y371439D01*
X411453Y371535D01*
X411490Y371629D01*
X411530Y371722D01*
X411574Y371814D01*
X411621Y371903D01*
X411672Y371991D01*
X411726Y372077D01*
X411783Y372160D01*
X411843Y372242D01*
X411907Y372320D01*
X411973Y372397D01*
X412043Y372470D01*
X412115Y372541D01*
X412190Y372609D01*
X412268Y372674D01*
X412348Y372736D01*
X412430Y372795D01*
X412515Y372851D01*
X412602Y372903D01*
X412690Y372952D01*
X412781Y372998D01*
X412873Y373039D01*
X412967Y373078D01*
X413062Y373112D01*
X413158Y373143D01*
X413256Y373170D01*
X413354Y373194D01*
X413454Y373213D01*
X413554Y373229D01*
X413654Y373241D01*
X413755Y373249D01*
X413856Y373253D01*
X413958Y373253D01*
X414059Y373249D01*
X414160Y373241D01*
X414260Y373229D01*
X414360Y373213D01*
X414460Y373194D01*
X414558Y373170D01*
X414656Y373143D01*
X414752Y373112D01*
X414847Y373078D01*
X414941Y373039D01*
X415033Y372998D01*
X415124Y372952D01*
X415213Y372903D01*
X415299Y372851D01*
X415384Y372795D01*
X415466Y372736D01*
X415546Y372674D01*
X415624Y372609D01*
X415699Y372541D01*
X415771Y372470D01*
X415841Y372397D01*
X415907Y372320D01*
X415971Y372242D01*
X416031Y372160D01*
X416088Y372077D01*
X416142Y371991D01*
X416193Y371903D01*
X416240Y371814D01*
X416284Y371722D01*
X416324Y371629D01*
X416361Y371535D01*
X416393Y371439D01*
X416422Y371342D01*
X416448Y371244D01*
X416469Y371145D01*
X416487Y371045D01*
X416500Y370945D01*
X416510Y370844D01*
X416516Y370743D01*
X416518Y370642D01*
X416517Y370642D02*
X416517Y366466D01*
X416518Y366466D02*
X416516Y366365D01*
X416510Y366264D01*
X416500Y366163D01*
X416487Y366063D01*
X416469Y365963D01*
X416448Y365864D01*
X416422Y365766D01*
X416393Y365669D01*
X416361Y365573D01*
X416324Y365479D01*
X416284Y365386D01*
X416240Y365294D01*
X416193Y365205D01*
X416142Y365117D01*
X416088Y365031D01*
X416031Y364948D01*
X415971Y364866D01*
X415907Y364788D01*
X415841Y364711D01*
X415771Y364638D01*
X415699Y364567D01*
X415624Y364499D01*
X415546Y364434D01*
X415466Y364372D01*
X415384Y364313D01*
X415299Y364257D01*
X415212Y364205D01*
X415124Y364156D01*
X415033Y364110D01*
X414941Y364069D01*
X414847Y364030D01*
X414752Y363996D01*
X414656Y363965D01*
X414558Y363938D01*
X414460Y363914D01*
X414360Y363895D01*
X414260Y363879D01*
X414160Y363867D01*
X414059Y363859D01*
X413958Y363855D01*
X413856Y363855D01*
X413755Y363859D01*
X413654Y363867D01*
X413554Y363879D01*
X413454Y363895D01*
X413354Y363914D01*
X413256Y363938D01*
X413158Y363965D01*
X413062Y363996D01*
X412967Y364030D01*
X412873Y364069D01*
X412781Y364110D01*
X412690Y364156D01*
X412602Y364205D01*
X412515Y364257D01*
X412430Y364313D01*
X412348Y364372D01*
X412268Y364434D01*
X412190Y364499D01*
X412115Y364567D01*
X412043Y364638D01*
X411973Y364711D01*
X411907Y364788D01*
X411843Y364866D01*
X411783Y364948D01*
X411726Y365031D01*
X411672Y365117D01*
X411621Y365205D01*
X411574Y365294D01*
X411530Y365386D01*
X411490Y365479D01*
X411453Y365573D01*
X411421Y365669D01*
X411392Y365766D01*
X411366Y365864D01*
X411345Y365963D01*
X411327Y366063D01*
X411314Y366163D01*
X411304Y366264D01*
X411298Y366365D01*
X411296Y366466D01*
X415473Y365943D02*
X417562Y363855D01*
X420445Y365421D02*
X420445Y370120D01*
X420446Y365421D02*
X420448Y365344D01*
X420454Y365268D01*
X420463Y365191D01*
X420476Y365115D01*
X420493Y365040D01*
X420513Y364966D01*
X420538Y364893D01*
X420565Y364822D01*
X420596Y364751D01*
X420631Y364683D01*
X420669Y364616D01*
X420710Y364551D01*
X420754Y364488D01*
X420801Y364428D01*
X420852Y364369D01*
X420905Y364314D01*
X420960Y364261D01*
X421019Y364210D01*
X421079Y364163D01*
X421142Y364119D01*
X421207Y364078D01*
X421274Y364040D01*
X421342Y364005D01*
X421413Y363974D01*
X421484Y363947D01*
X421557Y363922D01*
X421631Y363902D01*
X421706Y363885D01*
X421782Y363872D01*
X421859Y363863D01*
X421935Y363857D01*
X422012Y363855D01*
X424622Y363855D01*
X424622Y370120D01*
X428630Y370120D02*
X428630Y363855D01*
X428369Y372731D02*
X428369Y373253D01*
X428891Y373253D01*
X428891Y372731D01*
X428369Y372731D01*
X432637Y370120D02*
X432637Y363855D01*
X432637Y370120D02*
X435248Y370120D01*
X435325Y370118D01*
X435401Y370112D01*
X435478Y370103D01*
X435554Y370090D01*
X435629Y370073D01*
X435703Y370053D01*
X435776Y370028D01*
X435847Y370001D01*
X435918Y369970D01*
X435986Y369935D01*
X436053Y369897D01*
X436118Y369856D01*
X436181Y369812D01*
X436241Y369765D01*
X436300Y369714D01*
X436355Y369661D01*
X436408Y369606D01*
X436459Y369547D01*
X436506Y369487D01*
X436550Y369424D01*
X436591Y369359D01*
X436629Y369292D01*
X436664Y369224D01*
X436695Y369153D01*
X436722Y369082D01*
X436747Y369009D01*
X436767Y368935D01*
X436784Y368860D01*
X436797Y368784D01*
X436806Y368708D01*
X436812Y368631D01*
X436814Y368554D01*
X436814Y363855D01*
X440098Y370120D02*
X443231Y370120D01*
X441142Y373253D02*
X441142Y365421D01*
X441143Y365421D02*
X441145Y365344D01*
X441151Y365268D01*
X441160Y365191D01*
X441173Y365115D01*
X441190Y365040D01*
X441210Y364966D01*
X441235Y364893D01*
X441262Y364822D01*
X441293Y364751D01*
X441328Y364683D01*
X441366Y364616D01*
X441407Y364551D01*
X441451Y364488D01*
X441498Y364428D01*
X441549Y364369D01*
X441602Y364314D01*
X441657Y364261D01*
X441716Y364210D01*
X441776Y364163D01*
X441839Y364119D01*
X441904Y364078D01*
X441971Y364040D01*
X442039Y364005D01*
X442110Y363974D01*
X442181Y363947D01*
X442254Y363922D01*
X442328Y363902D01*
X442403Y363885D01*
X442479Y363872D01*
X442556Y363863D01*
X442632Y363857D01*
X442709Y363855D01*
X443231Y363855D01*
X446613Y363855D02*
X446613Y370120D01*
X446352Y372731D02*
X446352Y373253D01*
X446874Y373253D01*
X446874Y372731D01*
X446352Y372731D01*
X450620Y370120D02*
X450620Y363855D01*
X450620Y370120D02*
X453231Y370120D01*
X453308Y370118D01*
X453384Y370112D01*
X453461Y370103D01*
X453537Y370090D01*
X453612Y370073D01*
X453686Y370053D01*
X453759Y370028D01*
X453830Y370001D01*
X453901Y369970D01*
X453969Y369935D01*
X454036Y369897D01*
X454101Y369856D01*
X454164Y369812D01*
X454224Y369765D01*
X454283Y369714D01*
X454338Y369661D01*
X454391Y369606D01*
X454442Y369547D01*
X454489Y369487D01*
X454533Y369424D01*
X454574Y369359D01*
X454612Y369292D01*
X454647Y369224D01*
X454678Y369153D01*
X454705Y369082D01*
X454730Y369009D01*
X454750Y368935D01*
X454767Y368860D01*
X454780Y368784D01*
X454789Y368708D01*
X454795Y368631D01*
X454797Y368554D01*
X454797Y363855D01*
X461000Y363855D02*
X463089Y363855D01*
X461000Y363855D02*
X460911Y363857D01*
X460823Y363863D01*
X460735Y363872D01*
X460647Y363885D01*
X460560Y363902D01*
X460474Y363922D01*
X460389Y363947D01*
X460304Y363974D01*
X460221Y364006D01*
X460140Y364040D01*
X460060Y364079D01*
X459982Y364120D01*
X459905Y364165D01*
X459831Y364213D01*
X459758Y364264D01*
X459688Y364318D01*
X459621Y364376D01*
X459555Y364436D01*
X459493Y364498D01*
X459433Y364564D01*
X459375Y364631D01*
X459321Y364701D01*
X459270Y364774D01*
X459222Y364848D01*
X459177Y364925D01*
X459136Y365003D01*
X459097Y365083D01*
X459063Y365164D01*
X459031Y365247D01*
X459004Y365332D01*
X458979Y365417D01*
X458959Y365503D01*
X458942Y365590D01*
X458929Y365678D01*
X458920Y365766D01*
X458914Y365854D01*
X458912Y365943D01*
X458912Y371165D01*
X458914Y371256D01*
X458920Y371347D01*
X458930Y371438D01*
X458944Y371528D01*
X458961Y371617D01*
X458983Y371705D01*
X459009Y371793D01*
X459038Y371879D01*
X459071Y371964D01*
X459108Y372047D01*
X459148Y372129D01*
X459192Y372209D01*
X459239Y372287D01*
X459290Y372363D01*
X459343Y372436D01*
X459400Y372507D01*
X459461Y372576D01*
X459524Y372641D01*
X459589Y372704D01*
X459658Y372764D01*
X459729Y372822D01*
X459802Y372875D01*
X459878Y372926D01*
X459956Y372973D01*
X460036Y373017D01*
X460118Y373057D01*
X460201Y373094D01*
X460286Y373127D01*
X460372Y373156D01*
X460460Y373182D01*
X460548Y373204D01*
X460637Y373221D01*
X460727Y373235D01*
X460818Y373245D01*
X460909Y373251D01*
X461000Y373253D01*
X463089Y373253D01*
X468252Y367510D02*
X470601Y367510D01*
X468252Y367509D02*
X468168Y367507D01*
X468083Y367501D01*
X468000Y367491D01*
X467916Y367478D01*
X467834Y367460D01*
X467752Y367439D01*
X467671Y367414D01*
X467592Y367386D01*
X467514Y367353D01*
X467438Y367317D01*
X467363Y367278D01*
X467290Y367235D01*
X467219Y367189D01*
X467151Y367140D01*
X467085Y367088D01*
X467021Y367032D01*
X466960Y366974D01*
X466902Y366913D01*
X466846Y366849D01*
X466794Y366783D01*
X466745Y366715D01*
X466699Y366644D01*
X466656Y366571D01*
X466617Y366496D01*
X466581Y366420D01*
X466548Y366342D01*
X466520Y366263D01*
X466495Y366182D01*
X466474Y366100D01*
X466456Y366018D01*
X466443Y365934D01*
X466433Y365851D01*
X466427Y365766D01*
X466425Y365682D01*
X466427Y365598D01*
X466433Y365513D01*
X466443Y365430D01*
X466456Y365346D01*
X466474Y365264D01*
X466495Y365182D01*
X466520Y365101D01*
X466548Y365022D01*
X466581Y364944D01*
X466617Y364868D01*
X466656Y364793D01*
X466699Y364720D01*
X466745Y364649D01*
X466794Y364581D01*
X466846Y364515D01*
X466902Y364451D01*
X466960Y364390D01*
X467021Y364332D01*
X467085Y364276D01*
X467151Y364224D01*
X467219Y364175D01*
X467290Y364129D01*
X467363Y364086D01*
X467438Y364047D01*
X467514Y364011D01*
X467592Y363978D01*
X467671Y363950D01*
X467752Y363925D01*
X467834Y363904D01*
X467916Y363886D01*
X468000Y363873D01*
X468083Y363863D01*
X468168Y363857D01*
X468252Y363855D01*
X470601Y363855D01*
X470601Y368554D01*
X470599Y368631D01*
X470593Y368707D01*
X470584Y368784D01*
X470571Y368860D01*
X470554Y368935D01*
X470534Y369009D01*
X470509Y369082D01*
X470482Y369153D01*
X470451Y369224D01*
X470416Y369292D01*
X470378Y369359D01*
X470337Y369424D01*
X470293Y369487D01*
X470246Y369547D01*
X470195Y369606D01*
X470142Y369661D01*
X470087Y369714D01*
X470028Y369765D01*
X469968Y369812D01*
X469905Y369856D01*
X469840Y369897D01*
X469773Y369935D01*
X469705Y369970D01*
X469634Y370001D01*
X469563Y370028D01*
X469490Y370053D01*
X469416Y370073D01*
X469341Y370090D01*
X469265Y370103D01*
X469188Y370112D01*
X469112Y370118D01*
X469035Y370120D01*
X466946Y370120D01*
X475056Y370120D02*
X475056Y363855D01*
X475056Y370120D02*
X478188Y370120D01*
X478188Y369076D01*
X480795Y370120D02*
X482884Y363855D01*
X484972Y370120D01*
X490197Y367510D02*
X492547Y367510D01*
X490197Y367509D02*
X490113Y367507D01*
X490028Y367501D01*
X489945Y367491D01*
X489861Y367478D01*
X489779Y367460D01*
X489697Y367439D01*
X489616Y367414D01*
X489537Y367386D01*
X489459Y367353D01*
X489383Y367317D01*
X489308Y367278D01*
X489235Y367235D01*
X489164Y367189D01*
X489096Y367140D01*
X489030Y367088D01*
X488966Y367032D01*
X488905Y366974D01*
X488847Y366913D01*
X488791Y366849D01*
X488739Y366783D01*
X488690Y366715D01*
X488644Y366644D01*
X488601Y366571D01*
X488562Y366496D01*
X488526Y366420D01*
X488493Y366342D01*
X488465Y366263D01*
X488440Y366182D01*
X488419Y366100D01*
X488401Y366018D01*
X488388Y365934D01*
X488378Y365851D01*
X488372Y365766D01*
X488370Y365682D01*
X488372Y365598D01*
X488378Y365513D01*
X488388Y365430D01*
X488401Y365346D01*
X488419Y365264D01*
X488440Y365182D01*
X488465Y365101D01*
X488493Y365022D01*
X488526Y364944D01*
X488562Y364868D01*
X488601Y364793D01*
X488644Y364720D01*
X488690Y364649D01*
X488739Y364581D01*
X488791Y364515D01*
X488847Y364451D01*
X488905Y364390D01*
X488966Y364332D01*
X489030Y364276D01*
X489096Y364224D01*
X489164Y364175D01*
X489235Y364129D01*
X489308Y364086D01*
X489383Y364047D01*
X489459Y364011D01*
X489537Y363978D01*
X489616Y363950D01*
X489697Y363925D01*
X489779Y363904D01*
X489861Y363886D01*
X489945Y363873D01*
X490028Y363863D01*
X490113Y363857D01*
X490197Y363855D01*
X492547Y363855D01*
X492547Y368554D01*
X492546Y368554D02*
X492544Y368631D01*
X492538Y368707D01*
X492529Y368784D01*
X492516Y368860D01*
X492499Y368935D01*
X492479Y369009D01*
X492454Y369082D01*
X492427Y369153D01*
X492396Y369224D01*
X492361Y369292D01*
X492323Y369359D01*
X492282Y369424D01*
X492238Y369487D01*
X492191Y369547D01*
X492140Y369606D01*
X492087Y369661D01*
X492032Y369714D01*
X491973Y369765D01*
X491913Y369812D01*
X491850Y369856D01*
X491785Y369897D01*
X491718Y369935D01*
X491650Y369970D01*
X491579Y370001D01*
X491508Y370028D01*
X491435Y370053D01*
X491361Y370073D01*
X491286Y370090D01*
X491210Y370103D01*
X491133Y370112D01*
X491057Y370118D01*
X490980Y370120D01*
X488892Y370120D01*
X496770Y373253D02*
X496770Y365421D01*
X496771Y365421D02*
X496773Y365344D01*
X496779Y365268D01*
X496788Y365191D01*
X496801Y365115D01*
X496818Y365040D01*
X496838Y364966D01*
X496863Y364893D01*
X496890Y364822D01*
X496921Y364751D01*
X496956Y364683D01*
X496994Y364616D01*
X497035Y364551D01*
X497079Y364488D01*
X497126Y364428D01*
X497177Y364369D01*
X497230Y364314D01*
X497285Y364261D01*
X497344Y364210D01*
X497404Y364163D01*
X497467Y364119D01*
X497532Y364078D01*
X497599Y364040D01*
X497667Y364005D01*
X497738Y363974D01*
X497809Y363947D01*
X497882Y363922D01*
X497956Y363902D01*
X498031Y363885D01*
X498107Y363872D01*
X498184Y363863D01*
X498260Y363857D01*
X498337Y363855D01*
X501826Y363855D02*
X501826Y373253D01*
X501826Y370120D02*
X504437Y370120D01*
X504514Y370118D01*
X504590Y370112D01*
X504667Y370103D01*
X504743Y370090D01*
X504818Y370073D01*
X504892Y370053D01*
X504965Y370028D01*
X505036Y370001D01*
X505107Y369970D01*
X505175Y369935D01*
X505242Y369897D01*
X505307Y369856D01*
X505370Y369812D01*
X505430Y369765D01*
X505489Y369714D01*
X505544Y369661D01*
X505597Y369606D01*
X505648Y369547D01*
X505695Y369487D01*
X505739Y369424D01*
X505780Y369359D01*
X505818Y369292D01*
X505853Y369224D01*
X505884Y369153D01*
X505911Y369082D01*
X505936Y369009D01*
X505956Y368935D01*
X505973Y368860D01*
X505986Y368784D01*
X505995Y368708D01*
X506001Y368631D01*
X506003Y368554D01*
X506003Y363855D01*
X510056Y365943D02*
X510056Y368032D01*
X510058Y368122D01*
X510064Y368211D01*
X510073Y368301D01*
X510087Y368390D01*
X510104Y368478D01*
X510125Y368565D01*
X510150Y368652D01*
X510179Y368737D01*
X510211Y368821D01*
X510246Y368903D01*
X510286Y368984D01*
X510328Y369063D01*
X510374Y369140D01*
X510424Y369215D01*
X510476Y369288D01*
X510532Y369359D01*
X510590Y369427D01*
X510652Y369492D01*
X510716Y369555D01*
X510783Y369615D01*
X510852Y369672D01*
X510924Y369726D01*
X510998Y369777D01*
X511074Y369825D01*
X511152Y369869D01*
X511232Y369910D01*
X511314Y369948D01*
X511397Y369982D01*
X511482Y370012D01*
X511568Y370039D01*
X511654Y370062D01*
X511742Y370081D01*
X511831Y370096D01*
X511920Y370108D01*
X512009Y370116D01*
X512099Y370120D01*
X512189Y370120D01*
X512279Y370116D01*
X512368Y370108D01*
X512457Y370096D01*
X512546Y370081D01*
X512634Y370062D01*
X512720Y370039D01*
X512806Y370012D01*
X512891Y369982D01*
X512974Y369948D01*
X513056Y369910D01*
X513136Y369869D01*
X513214Y369825D01*
X513290Y369777D01*
X513364Y369726D01*
X513436Y369672D01*
X513505Y369615D01*
X513572Y369555D01*
X513636Y369492D01*
X513698Y369427D01*
X513756Y369359D01*
X513812Y369288D01*
X513864Y369215D01*
X513914Y369140D01*
X513960Y369063D01*
X514002Y368984D01*
X514042Y368903D01*
X514077Y368821D01*
X514109Y368737D01*
X514138Y368652D01*
X514163Y368565D01*
X514184Y368478D01*
X514201Y368390D01*
X514215Y368301D01*
X514224Y368211D01*
X514230Y368122D01*
X514232Y368032D01*
X514233Y368032D02*
X514233Y365943D01*
X514232Y365943D02*
X514230Y365853D01*
X514224Y365764D01*
X514215Y365674D01*
X514201Y365585D01*
X514184Y365497D01*
X514163Y365410D01*
X514138Y365323D01*
X514109Y365238D01*
X514077Y365154D01*
X514042Y365072D01*
X514002Y364991D01*
X513960Y364912D01*
X513914Y364835D01*
X513864Y364760D01*
X513812Y364687D01*
X513756Y364616D01*
X513698Y364548D01*
X513636Y364483D01*
X513572Y364420D01*
X513505Y364360D01*
X513436Y364303D01*
X513364Y364249D01*
X513290Y364198D01*
X513214Y364150D01*
X513136Y364106D01*
X513056Y364065D01*
X512974Y364027D01*
X512891Y363993D01*
X512806Y363963D01*
X512720Y363936D01*
X512634Y363913D01*
X512546Y363894D01*
X512457Y363879D01*
X512368Y363867D01*
X512279Y363859D01*
X512189Y363855D01*
X512099Y363855D01*
X512009Y363859D01*
X511920Y363867D01*
X511831Y363879D01*
X511742Y363894D01*
X511654Y363913D01*
X511568Y363936D01*
X511482Y363963D01*
X511397Y363993D01*
X511314Y364027D01*
X511232Y364065D01*
X511152Y364106D01*
X511074Y364150D01*
X510998Y364198D01*
X510924Y364249D01*
X510852Y364303D01*
X510783Y364360D01*
X510716Y364420D01*
X510652Y364483D01*
X510590Y364548D01*
X510532Y364616D01*
X510476Y364687D01*
X510424Y364760D01*
X510374Y364835D01*
X510328Y364912D01*
X510286Y364991D01*
X510246Y365072D01*
X510211Y365154D01*
X510179Y365238D01*
X510150Y365323D01*
X510125Y365410D01*
X510104Y365497D01*
X510087Y365585D01*
X510073Y365674D01*
X510064Y365764D01*
X510058Y365853D01*
X510056Y365943D01*
X517676Y362811D02*
X521853Y374297D01*
X525688Y373253D02*
X525688Y363855D01*
X525688Y373253D02*
X528299Y373253D01*
X528399Y373251D01*
X528499Y373245D01*
X528598Y373236D01*
X528698Y373222D01*
X528796Y373205D01*
X528894Y373184D01*
X528991Y373160D01*
X529087Y373131D01*
X529182Y373099D01*
X529275Y373064D01*
X529367Y373025D01*
X529458Y372982D01*
X529546Y372936D01*
X529633Y372886D01*
X529718Y372834D01*
X529801Y372778D01*
X529882Y372719D01*
X529960Y372656D01*
X530036Y372591D01*
X530110Y372523D01*
X530180Y372453D01*
X530248Y372379D01*
X530313Y372303D01*
X530376Y372225D01*
X530435Y372144D01*
X530491Y372061D01*
X530543Y371976D01*
X530593Y371889D01*
X530639Y371801D01*
X530682Y371710D01*
X530721Y371618D01*
X530756Y371525D01*
X530788Y371430D01*
X530817Y371334D01*
X530841Y371237D01*
X530862Y371139D01*
X530879Y371041D01*
X530893Y370941D01*
X530902Y370842D01*
X530908Y370742D01*
X530910Y370642D01*
X530909Y370642D02*
X530909Y366466D01*
X530910Y366466D02*
X530908Y366366D01*
X530902Y366266D01*
X530893Y366167D01*
X530879Y366067D01*
X530862Y365969D01*
X530841Y365871D01*
X530817Y365774D01*
X530788Y365678D01*
X530756Y365583D01*
X530721Y365490D01*
X530682Y365398D01*
X530639Y365307D01*
X530593Y365219D01*
X530543Y365132D01*
X530491Y365047D01*
X530435Y364964D01*
X530376Y364883D01*
X530313Y364805D01*
X530248Y364729D01*
X530180Y364655D01*
X530110Y364585D01*
X530036Y364517D01*
X529960Y364452D01*
X529882Y364389D01*
X529801Y364330D01*
X529718Y364274D01*
X529633Y364222D01*
X529546Y364172D01*
X529458Y364126D01*
X529367Y364083D01*
X529275Y364044D01*
X529182Y364009D01*
X529087Y363977D01*
X528991Y363948D01*
X528894Y363924D01*
X528796Y363903D01*
X528698Y363886D01*
X528598Y363872D01*
X528499Y363863D01*
X528399Y363857D01*
X528299Y363855D01*
X525688Y363855D01*
X536616Y363855D02*
X539226Y363855D01*
X536616Y363855D02*
X536539Y363857D01*
X536463Y363863D01*
X536386Y363872D01*
X536310Y363885D01*
X536235Y363902D01*
X536161Y363922D01*
X536088Y363947D01*
X536017Y363974D01*
X535946Y364005D01*
X535878Y364040D01*
X535811Y364078D01*
X535746Y364119D01*
X535683Y364163D01*
X535623Y364210D01*
X535564Y364261D01*
X535509Y364314D01*
X535456Y364369D01*
X535405Y364428D01*
X535358Y364488D01*
X535314Y364551D01*
X535273Y364616D01*
X535235Y364683D01*
X535200Y364751D01*
X535169Y364822D01*
X535142Y364893D01*
X535117Y364966D01*
X535097Y365040D01*
X535080Y365115D01*
X535067Y365191D01*
X535058Y365268D01*
X535052Y365344D01*
X535050Y365421D01*
X535049Y365421D02*
X535049Y368032D01*
X535050Y368032D02*
X535052Y368122D01*
X535058Y368211D01*
X535067Y368301D01*
X535081Y368390D01*
X535098Y368478D01*
X535119Y368565D01*
X535144Y368652D01*
X535173Y368737D01*
X535205Y368821D01*
X535240Y368903D01*
X535280Y368984D01*
X535322Y369063D01*
X535368Y369140D01*
X535418Y369215D01*
X535470Y369288D01*
X535526Y369359D01*
X535584Y369427D01*
X535646Y369492D01*
X535710Y369555D01*
X535777Y369615D01*
X535846Y369672D01*
X535918Y369726D01*
X535992Y369777D01*
X536068Y369825D01*
X536146Y369869D01*
X536226Y369910D01*
X536308Y369948D01*
X536391Y369982D01*
X536476Y370012D01*
X536562Y370039D01*
X536648Y370062D01*
X536736Y370081D01*
X536825Y370096D01*
X536914Y370108D01*
X537003Y370116D01*
X537093Y370120D01*
X537183Y370120D01*
X537273Y370116D01*
X537362Y370108D01*
X537451Y370096D01*
X537540Y370081D01*
X537628Y370062D01*
X537714Y370039D01*
X537800Y370012D01*
X537885Y369982D01*
X537968Y369948D01*
X538050Y369910D01*
X538130Y369869D01*
X538208Y369825D01*
X538284Y369777D01*
X538358Y369726D01*
X538430Y369672D01*
X538499Y369615D01*
X538566Y369555D01*
X538630Y369492D01*
X538692Y369427D01*
X538750Y369359D01*
X538806Y369288D01*
X538858Y369215D01*
X538908Y369140D01*
X538954Y369063D01*
X538996Y368984D01*
X539036Y368903D01*
X539071Y368821D01*
X539103Y368737D01*
X539132Y368652D01*
X539157Y368565D01*
X539178Y368478D01*
X539195Y368390D01*
X539209Y368301D01*
X539218Y368211D01*
X539224Y368122D01*
X539226Y368032D01*
X539226Y366988D01*
X535049Y366988D01*
X543757Y367510D02*
X546368Y366466D01*
X543757Y367510D02*
X543691Y367538D01*
X543626Y367571D01*
X543563Y367606D01*
X543502Y367645D01*
X543443Y367687D01*
X543387Y367732D01*
X543333Y367780D01*
X543282Y367831D01*
X543233Y367884D01*
X543188Y367941D01*
X543145Y367999D01*
X543106Y368059D01*
X543069Y368122D01*
X543037Y368187D01*
X543008Y368253D01*
X542982Y368320D01*
X542960Y368389D01*
X542942Y368459D01*
X542927Y368530D01*
X542916Y368601D01*
X542909Y368673D01*
X542906Y368745D01*
X542907Y368817D01*
X542912Y368890D01*
X542920Y368961D01*
X542932Y369033D01*
X542948Y369103D01*
X542968Y369172D01*
X542992Y369241D01*
X543019Y369308D01*
X543049Y369373D01*
X543083Y369437D01*
X543121Y369499D01*
X543161Y369559D01*
X543205Y369616D01*
X543252Y369671D01*
X543302Y369724D01*
X543354Y369773D01*
X543409Y369820D01*
X543466Y369864D01*
X543526Y369905D01*
X543588Y369942D01*
X543652Y369977D01*
X543717Y370007D01*
X543784Y370035D01*
X543852Y370058D01*
X543922Y370078D01*
X543992Y370094D01*
X544063Y370107D01*
X544135Y370115D01*
X544207Y370120D01*
X544279Y370121D01*
X544280Y370120D02*
X544431Y370116D01*
X544582Y370108D01*
X544733Y370097D01*
X544884Y370081D01*
X545034Y370061D01*
X545184Y370038D01*
X545333Y370011D01*
X545481Y369980D01*
X545629Y369945D01*
X545775Y369907D01*
X545921Y369864D01*
X546065Y369818D01*
X546208Y369769D01*
X546350Y369716D01*
X546490Y369659D01*
X546629Y369598D01*
X546368Y366466D02*
X546434Y366438D01*
X546499Y366405D01*
X546562Y366370D01*
X546623Y366331D01*
X546682Y366289D01*
X546738Y366244D01*
X546792Y366196D01*
X546843Y366145D01*
X546892Y366092D01*
X546937Y366035D01*
X546980Y365977D01*
X547019Y365917D01*
X547056Y365854D01*
X547088Y365789D01*
X547117Y365723D01*
X547143Y365656D01*
X547165Y365587D01*
X547183Y365517D01*
X547198Y365446D01*
X547209Y365375D01*
X547216Y365303D01*
X547219Y365231D01*
X547218Y365159D01*
X547213Y365086D01*
X547205Y365015D01*
X547193Y364943D01*
X547177Y364873D01*
X547157Y364804D01*
X547133Y364735D01*
X547106Y364668D01*
X547076Y364603D01*
X547042Y364539D01*
X547004Y364477D01*
X546964Y364417D01*
X546920Y364360D01*
X546873Y364305D01*
X546823Y364252D01*
X546771Y364203D01*
X546716Y364156D01*
X546659Y364112D01*
X546599Y364071D01*
X546537Y364034D01*
X546473Y363999D01*
X546408Y363969D01*
X546341Y363941D01*
X546273Y363918D01*
X546203Y363898D01*
X546133Y363882D01*
X546062Y363869D01*
X545990Y363861D01*
X545918Y363856D01*
X545846Y363855D01*
X545636Y363860D01*
X545427Y363871D01*
X545218Y363886D01*
X545010Y363906D01*
X544802Y363932D01*
X544595Y363962D01*
X544388Y363997D01*
X544183Y364037D01*
X543978Y364081D01*
X543775Y364131D01*
X543572Y364185D01*
X543371Y364245D01*
X543172Y364308D01*
X542974Y364377D01*
X550854Y363855D02*
X550854Y370120D01*
X550593Y372731D02*
X550593Y373253D01*
X551115Y373253D01*
X551115Y372731D01*
X550593Y372731D01*
X556077Y363855D02*
X558688Y363855D01*
X556077Y363855D02*
X556000Y363857D01*
X555924Y363863D01*
X555847Y363872D01*
X555771Y363885D01*
X555696Y363902D01*
X555622Y363922D01*
X555549Y363947D01*
X555478Y363974D01*
X555407Y364005D01*
X555339Y364040D01*
X555272Y364078D01*
X555207Y364119D01*
X555144Y364163D01*
X555084Y364210D01*
X555025Y364261D01*
X554970Y364314D01*
X554917Y364369D01*
X554866Y364428D01*
X554819Y364488D01*
X554775Y364551D01*
X554734Y364616D01*
X554696Y364683D01*
X554661Y364751D01*
X554630Y364822D01*
X554603Y364893D01*
X554578Y364966D01*
X554558Y365040D01*
X554541Y365115D01*
X554528Y365191D01*
X554519Y365268D01*
X554513Y365344D01*
X554511Y365421D01*
X554511Y368554D01*
X554513Y368631D01*
X554519Y368707D01*
X554528Y368784D01*
X554541Y368860D01*
X554558Y368935D01*
X554578Y369009D01*
X554603Y369082D01*
X554630Y369153D01*
X554661Y369224D01*
X554696Y369292D01*
X554734Y369359D01*
X554775Y369424D01*
X554819Y369487D01*
X554866Y369547D01*
X554917Y369606D01*
X554970Y369661D01*
X555025Y369714D01*
X555084Y369765D01*
X555144Y369812D01*
X555207Y369856D01*
X555272Y369897D01*
X555339Y369935D01*
X555407Y369970D01*
X555478Y370001D01*
X555549Y370028D01*
X555622Y370053D01*
X555696Y370073D01*
X555771Y370090D01*
X555847Y370103D01*
X555924Y370112D01*
X556000Y370118D01*
X556077Y370120D01*
X558688Y370120D01*
X558688Y362289D01*
X558687Y362289D02*
X558685Y362212D01*
X558679Y362136D01*
X558670Y362059D01*
X558657Y361983D01*
X558640Y361908D01*
X558620Y361834D01*
X558595Y361761D01*
X558568Y361690D01*
X558537Y361619D01*
X558502Y361551D01*
X558464Y361484D01*
X558423Y361419D01*
X558379Y361356D01*
X558332Y361296D01*
X558281Y361237D01*
X558228Y361182D01*
X558173Y361129D01*
X558114Y361078D01*
X558054Y361031D01*
X557991Y360987D01*
X557926Y360946D01*
X557859Y360908D01*
X557791Y360873D01*
X557720Y360842D01*
X557649Y360815D01*
X557576Y360790D01*
X557502Y360770D01*
X557427Y360753D01*
X557351Y360740D01*
X557275Y360731D01*
X557198Y360725D01*
X557121Y360723D01*
X557121Y360722D02*
X555033Y360722D01*
X563091Y363855D02*
X563091Y370120D01*
X565701Y370120D01*
X565778Y370118D01*
X565854Y370112D01*
X565931Y370103D01*
X566007Y370090D01*
X566082Y370073D01*
X566156Y370053D01*
X566229Y370028D01*
X566300Y370001D01*
X566371Y369970D01*
X566439Y369935D01*
X566506Y369897D01*
X566571Y369856D01*
X566634Y369812D01*
X566694Y369765D01*
X566753Y369714D01*
X566808Y369661D01*
X566861Y369606D01*
X566912Y369547D01*
X566959Y369487D01*
X567003Y369424D01*
X567044Y369359D01*
X567082Y369292D01*
X567117Y369224D01*
X567148Y369153D01*
X567175Y369082D01*
X567200Y369009D01*
X567220Y368935D01*
X567237Y368860D01*
X567250Y368784D01*
X567259Y368708D01*
X567265Y368631D01*
X567267Y368554D01*
X567268Y368554D02*
X567268Y363855D01*
X571016Y362811D02*
X575193Y362811D01*
X579159Y363855D02*
X579159Y373253D01*
X581770Y373253D01*
X581871Y373251D01*
X581972Y373245D01*
X582073Y373235D01*
X582173Y373222D01*
X582273Y373204D01*
X582372Y373183D01*
X582470Y373157D01*
X582567Y373128D01*
X582663Y373096D01*
X582757Y373059D01*
X582850Y373019D01*
X582942Y372975D01*
X583031Y372928D01*
X583119Y372877D01*
X583205Y372823D01*
X583288Y372766D01*
X583370Y372706D01*
X583448Y372642D01*
X583525Y372576D01*
X583598Y372506D01*
X583669Y372434D01*
X583737Y372359D01*
X583802Y372281D01*
X583864Y372201D01*
X583923Y372119D01*
X583979Y372034D01*
X584031Y371947D01*
X584080Y371859D01*
X584126Y371768D01*
X584167Y371676D01*
X584206Y371582D01*
X584240Y371487D01*
X584271Y371391D01*
X584298Y371293D01*
X584322Y371195D01*
X584341Y371095D01*
X584357Y370995D01*
X584369Y370895D01*
X584377Y370794D01*
X584381Y370693D01*
X584381Y370591D01*
X584377Y370490D01*
X584369Y370389D01*
X584357Y370289D01*
X584341Y370189D01*
X584322Y370089D01*
X584298Y369991D01*
X584271Y369893D01*
X584240Y369797D01*
X584206Y369702D01*
X584167Y369608D01*
X584126Y369516D01*
X584080Y369425D01*
X584031Y369337D01*
X583979Y369250D01*
X583923Y369165D01*
X583864Y369083D01*
X583802Y369003D01*
X583737Y368925D01*
X583669Y368850D01*
X583598Y368778D01*
X583525Y368708D01*
X583448Y368642D01*
X583370Y368578D01*
X583288Y368518D01*
X583205Y368461D01*
X583119Y368407D01*
X583031Y368356D01*
X582942Y368309D01*
X582850Y368265D01*
X582757Y368225D01*
X582663Y368188D01*
X582567Y368156D01*
X582470Y368127D01*
X582372Y368101D01*
X582273Y368080D01*
X582173Y368062D01*
X582073Y368049D01*
X581972Y368039D01*
X581871Y368033D01*
X581770Y368031D01*
X581770Y368032D02*
X579159Y368032D01*
X588136Y370120D02*
X588136Y363855D01*
X588136Y370120D02*
X591268Y370120D01*
X591268Y369076D01*
X594180Y368032D02*
X594180Y365943D01*
X594181Y368032D02*
X594183Y368122D01*
X594189Y368211D01*
X594198Y368301D01*
X594212Y368390D01*
X594229Y368478D01*
X594250Y368565D01*
X594275Y368652D01*
X594304Y368737D01*
X594336Y368821D01*
X594371Y368903D01*
X594411Y368984D01*
X594453Y369063D01*
X594499Y369140D01*
X594549Y369215D01*
X594601Y369288D01*
X594657Y369359D01*
X594715Y369427D01*
X594777Y369492D01*
X594841Y369555D01*
X594908Y369615D01*
X594977Y369672D01*
X595049Y369726D01*
X595123Y369777D01*
X595199Y369825D01*
X595277Y369869D01*
X595357Y369910D01*
X595439Y369948D01*
X595522Y369982D01*
X595607Y370012D01*
X595693Y370039D01*
X595779Y370062D01*
X595867Y370081D01*
X595956Y370096D01*
X596045Y370108D01*
X596134Y370116D01*
X596224Y370120D01*
X596314Y370120D01*
X596404Y370116D01*
X596493Y370108D01*
X596582Y370096D01*
X596671Y370081D01*
X596759Y370062D01*
X596845Y370039D01*
X596931Y370012D01*
X597016Y369982D01*
X597099Y369948D01*
X597181Y369910D01*
X597261Y369869D01*
X597339Y369825D01*
X597415Y369777D01*
X597489Y369726D01*
X597561Y369672D01*
X597630Y369615D01*
X597697Y369555D01*
X597761Y369492D01*
X597823Y369427D01*
X597881Y369359D01*
X597937Y369288D01*
X597989Y369215D01*
X598039Y369140D01*
X598085Y369063D01*
X598127Y368984D01*
X598167Y368903D01*
X598202Y368821D01*
X598234Y368737D01*
X598263Y368652D01*
X598288Y368565D01*
X598309Y368478D01*
X598326Y368390D01*
X598340Y368301D01*
X598349Y368211D01*
X598355Y368122D01*
X598357Y368032D01*
X598357Y365943D01*
X598355Y365853D01*
X598349Y365764D01*
X598340Y365674D01*
X598326Y365585D01*
X598309Y365497D01*
X598288Y365410D01*
X598263Y365323D01*
X598234Y365238D01*
X598202Y365154D01*
X598167Y365072D01*
X598127Y364991D01*
X598085Y364912D01*
X598039Y364835D01*
X597989Y364760D01*
X597937Y364687D01*
X597881Y364616D01*
X597823Y364548D01*
X597761Y364483D01*
X597697Y364420D01*
X597630Y364360D01*
X597561Y364303D01*
X597489Y364249D01*
X597415Y364198D01*
X597339Y364150D01*
X597261Y364106D01*
X597181Y364065D01*
X597099Y364027D01*
X597016Y363993D01*
X596931Y363963D01*
X596845Y363936D01*
X596759Y363913D01*
X596671Y363894D01*
X596582Y363879D01*
X596493Y363867D01*
X596404Y363859D01*
X596314Y363855D01*
X596224Y363855D01*
X596134Y363859D01*
X596045Y363867D01*
X595956Y363879D01*
X595867Y363894D01*
X595779Y363913D01*
X595693Y363936D01*
X595607Y363963D01*
X595522Y363993D01*
X595439Y364027D01*
X595357Y364065D01*
X595277Y364106D01*
X595199Y364150D01*
X595123Y364198D01*
X595049Y364249D01*
X594977Y364303D01*
X594908Y364360D01*
X594841Y364420D01*
X594777Y364483D01*
X594715Y364548D01*
X594657Y364616D01*
X594601Y364687D01*
X594549Y364760D01*
X594499Y364835D01*
X594453Y364912D01*
X594411Y364991D01*
X594371Y365072D01*
X594336Y365154D01*
X594304Y365238D01*
X594275Y365323D01*
X594250Y365410D01*
X594229Y365497D01*
X594212Y365585D01*
X594198Y365674D01*
X594189Y365764D01*
X594183Y365853D01*
X594181Y365943D01*
X601907Y362289D02*
X601907Y370120D01*
X601906Y362289D02*
X601904Y362212D01*
X601898Y362136D01*
X601889Y362059D01*
X601876Y361983D01*
X601859Y361908D01*
X601839Y361834D01*
X601814Y361761D01*
X601787Y361690D01*
X601756Y361619D01*
X601721Y361551D01*
X601683Y361484D01*
X601642Y361419D01*
X601598Y361356D01*
X601551Y361296D01*
X601500Y361237D01*
X601447Y361182D01*
X601392Y361129D01*
X601333Y361078D01*
X601273Y361031D01*
X601210Y360987D01*
X601145Y360946D01*
X601078Y360908D01*
X601010Y360873D01*
X600939Y360842D01*
X600868Y360815D01*
X600795Y360790D01*
X600721Y360770D01*
X600646Y360753D01*
X600570Y360740D01*
X600494Y360731D01*
X600417Y360725D01*
X600340Y360723D01*
X600340Y360722D02*
X599818Y360722D01*
X601646Y372731D02*
X601646Y373253D01*
X602168Y373253D01*
X602168Y372731D01*
X601646Y372731D01*
X607329Y363855D02*
X609940Y363855D01*
X607329Y363855D02*
X607252Y363857D01*
X607176Y363863D01*
X607099Y363872D01*
X607023Y363885D01*
X606948Y363902D01*
X606874Y363922D01*
X606801Y363947D01*
X606730Y363974D01*
X606659Y364005D01*
X606591Y364040D01*
X606524Y364078D01*
X606459Y364119D01*
X606396Y364163D01*
X606336Y364210D01*
X606277Y364261D01*
X606222Y364314D01*
X606169Y364369D01*
X606118Y364428D01*
X606071Y364488D01*
X606027Y364551D01*
X605986Y364616D01*
X605948Y364683D01*
X605913Y364751D01*
X605882Y364822D01*
X605855Y364893D01*
X605830Y364966D01*
X605810Y365040D01*
X605793Y365115D01*
X605780Y365191D01*
X605771Y365268D01*
X605765Y365344D01*
X605763Y365421D01*
X605763Y368032D01*
X605765Y368122D01*
X605771Y368211D01*
X605780Y368301D01*
X605794Y368390D01*
X605811Y368478D01*
X605832Y368565D01*
X605857Y368652D01*
X605886Y368737D01*
X605918Y368821D01*
X605953Y368903D01*
X605993Y368984D01*
X606035Y369063D01*
X606081Y369140D01*
X606131Y369215D01*
X606183Y369288D01*
X606239Y369359D01*
X606297Y369427D01*
X606359Y369492D01*
X606423Y369555D01*
X606490Y369615D01*
X606559Y369672D01*
X606631Y369726D01*
X606705Y369777D01*
X606781Y369825D01*
X606859Y369869D01*
X606939Y369910D01*
X607021Y369948D01*
X607104Y369982D01*
X607189Y370012D01*
X607275Y370039D01*
X607361Y370062D01*
X607449Y370081D01*
X607538Y370096D01*
X607627Y370108D01*
X607716Y370116D01*
X607806Y370120D01*
X607896Y370120D01*
X607986Y370116D01*
X608075Y370108D01*
X608164Y370096D01*
X608253Y370081D01*
X608341Y370062D01*
X608427Y370039D01*
X608513Y370012D01*
X608598Y369982D01*
X608681Y369948D01*
X608763Y369910D01*
X608843Y369869D01*
X608921Y369825D01*
X608997Y369777D01*
X609071Y369726D01*
X609143Y369672D01*
X609212Y369615D01*
X609279Y369555D01*
X609343Y369492D01*
X609405Y369427D01*
X609463Y369359D01*
X609519Y369288D01*
X609571Y369215D01*
X609621Y369140D01*
X609667Y369063D01*
X609709Y368984D01*
X609749Y368903D01*
X609784Y368821D01*
X609816Y368737D01*
X609845Y368652D01*
X609870Y368565D01*
X609891Y368478D01*
X609908Y368390D01*
X609922Y368301D01*
X609931Y368211D01*
X609937Y368122D01*
X609939Y368032D01*
X609940Y368032D02*
X609940Y366988D01*
X605763Y366988D01*
X615264Y363855D02*
X617352Y363855D01*
X615264Y363855D02*
X615187Y363857D01*
X615111Y363863D01*
X615034Y363872D01*
X614958Y363885D01*
X614883Y363902D01*
X614809Y363922D01*
X614736Y363947D01*
X614665Y363974D01*
X614594Y364005D01*
X614526Y364040D01*
X614459Y364078D01*
X614394Y364119D01*
X614331Y364163D01*
X614271Y364210D01*
X614212Y364261D01*
X614157Y364314D01*
X614104Y364369D01*
X614053Y364428D01*
X614006Y364488D01*
X613962Y364551D01*
X613921Y364616D01*
X613883Y364683D01*
X613848Y364751D01*
X613817Y364822D01*
X613790Y364893D01*
X613765Y364966D01*
X613745Y365040D01*
X613728Y365115D01*
X613715Y365191D01*
X613706Y365268D01*
X613700Y365344D01*
X613698Y365421D01*
X613698Y368554D01*
X613700Y368631D01*
X613706Y368707D01*
X613715Y368784D01*
X613728Y368860D01*
X613745Y368935D01*
X613765Y369009D01*
X613790Y369082D01*
X613817Y369153D01*
X613848Y369224D01*
X613883Y369292D01*
X613921Y369359D01*
X613962Y369424D01*
X614006Y369487D01*
X614053Y369547D01*
X614104Y369606D01*
X614157Y369661D01*
X614212Y369714D01*
X614271Y369765D01*
X614331Y369812D01*
X614394Y369856D01*
X614459Y369897D01*
X614526Y369935D01*
X614594Y369970D01*
X614665Y370001D01*
X614736Y370028D01*
X614809Y370053D01*
X614883Y370073D01*
X614958Y370090D01*
X615034Y370103D01*
X615111Y370112D01*
X615187Y370118D01*
X615264Y370120D01*
X617352Y370120D01*
X619929Y370120D02*
X623062Y370120D01*
X620973Y373253D02*
X620973Y365421D01*
X620974Y365421D02*
X620976Y365344D01*
X620982Y365268D01*
X620991Y365191D01*
X621004Y365115D01*
X621021Y365040D01*
X621041Y364966D01*
X621066Y364893D01*
X621093Y364822D01*
X621124Y364751D01*
X621159Y364683D01*
X621197Y364616D01*
X621238Y364551D01*
X621282Y364488D01*
X621329Y364428D01*
X621380Y364369D01*
X621433Y364314D01*
X621488Y364261D01*
X621547Y364210D01*
X621607Y364163D01*
X621670Y364119D01*
X621735Y364078D01*
X621802Y364040D01*
X621870Y364005D01*
X621941Y363974D01*
X622012Y363947D01*
X622085Y363922D01*
X622159Y363902D01*
X622234Y363885D01*
X622310Y363872D01*
X622387Y363863D01*
X622463Y363857D01*
X622540Y363855D01*
X623062Y363855D01*
D11*
X217297Y77597D02*
X217297Y68707D01*
X217295Y68607D01*
X217289Y68508D01*
X217279Y68408D01*
X217266Y68310D01*
X217248Y68211D01*
X217227Y68114D01*
X217202Y68018D01*
X217173Y67922D01*
X217140Y67828D01*
X217104Y67735D01*
X217064Y67644D01*
X217020Y67554D01*
X216973Y67466D01*
X216923Y67380D01*
X216869Y67296D01*
X216812Y67214D01*
X216752Y67135D01*
X216688Y67057D01*
X216622Y66983D01*
X216553Y66911D01*
X216481Y66842D01*
X216407Y66776D01*
X216329Y66712D01*
X216250Y66652D01*
X216168Y66595D01*
X216084Y66541D01*
X215998Y66491D01*
X215910Y66444D01*
X215820Y66400D01*
X215729Y66360D01*
X215636Y66324D01*
X215542Y66291D01*
X215446Y66262D01*
X215350Y66237D01*
X215253Y66216D01*
X215154Y66198D01*
X215056Y66185D01*
X214956Y66175D01*
X214857Y66169D01*
X214757Y66167D01*
X213487Y66167D01*
X223277Y66167D02*
X223277Y77597D01*
X226452Y77597D01*
X226563Y77595D01*
X226673Y77589D01*
X226784Y77580D01*
X226894Y77566D01*
X227003Y77549D01*
X227112Y77528D01*
X227220Y77503D01*
X227327Y77474D01*
X227433Y77442D01*
X227538Y77406D01*
X227641Y77366D01*
X227743Y77323D01*
X227844Y77276D01*
X227943Y77225D01*
X228040Y77172D01*
X228134Y77115D01*
X228227Y77054D01*
X228318Y76991D01*
X228407Y76924D01*
X228493Y76854D01*
X228576Y76781D01*
X228658Y76706D01*
X228736Y76628D01*
X228811Y76546D01*
X228884Y76463D01*
X228954Y76377D01*
X229021Y76288D01*
X229084Y76197D01*
X229145Y76104D01*
X229202Y76009D01*
X229255Y75913D01*
X229306Y75814D01*
X229353Y75713D01*
X229396Y75611D01*
X229436Y75508D01*
X229472Y75403D01*
X229504Y75297D01*
X229533Y75190D01*
X229558Y75082D01*
X229579Y74973D01*
X229596Y74864D01*
X229610Y74754D01*
X229619Y74643D01*
X229625Y74533D01*
X229627Y74422D01*
X229625Y74311D01*
X229619Y74201D01*
X229610Y74090D01*
X229596Y73980D01*
X229579Y73871D01*
X229558Y73762D01*
X229533Y73654D01*
X229504Y73547D01*
X229472Y73441D01*
X229436Y73336D01*
X229396Y73233D01*
X229353Y73131D01*
X229306Y73030D01*
X229255Y72931D01*
X229202Y72834D01*
X229145Y72740D01*
X229084Y72647D01*
X229021Y72556D01*
X228954Y72467D01*
X228884Y72381D01*
X228811Y72298D01*
X228736Y72216D01*
X228658Y72138D01*
X228576Y72063D01*
X228493Y71990D01*
X228407Y71920D01*
X228318Y71853D01*
X228227Y71790D01*
X228134Y71729D01*
X228039Y71672D01*
X227943Y71619D01*
X227844Y71568D01*
X227743Y71521D01*
X227641Y71478D01*
X227538Y71438D01*
X227433Y71402D01*
X227327Y71370D01*
X227220Y71341D01*
X227112Y71316D01*
X227003Y71295D01*
X226894Y71278D01*
X226784Y71264D01*
X226673Y71255D01*
X226563Y71249D01*
X226452Y71247D01*
X223277Y71247D01*
X234136Y75057D02*
X237311Y77597D01*
X237311Y66167D01*
X234136Y66167D02*
X240486Y66167D01*
D12*
X47498Y204978D02*
X47498Y217678D01*
X53848Y224028D01*
X66548Y224028D01*
X72898Y217678D01*
X66548Y198628D02*
X53848Y198628D01*
X47498Y204978D01*
X66548Y198628D02*
X72898Y204978D01*
X72898Y217678D01*
X53848Y224028D02*
X47498Y230378D01*
X47498Y243078D01*
X53848Y249428D01*
X66548Y249428D01*
X72898Y243078D01*
X72898Y230378D01*
X66548Y224028D01*
D11*
X38735Y202311D02*
X29845Y202311D01*
X38735Y202311D02*
X38835Y202309D01*
X38934Y202303D01*
X39034Y202293D01*
X39132Y202280D01*
X39231Y202262D01*
X39328Y202241D01*
X39424Y202216D01*
X39520Y202187D01*
X39614Y202154D01*
X39707Y202118D01*
X39798Y202078D01*
X39888Y202034D01*
X39976Y201987D01*
X40062Y201937D01*
X40146Y201883D01*
X40228Y201826D01*
X40307Y201766D01*
X40385Y201702D01*
X40459Y201636D01*
X40531Y201567D01*
X40600Y201495D01*
X40666Y201421D01*
X40730Y201343D01*
X40790Y201264D01*
X40847Y201182D01*
X40901Y201098D01*
X40951Y201012D01*
X40998Y200924D01*
X41042Y200834D01*
X41082Y200743D01*
X41118Y200650D01*
X41151Y200556D01*
X41180Y200460D01*
X41205Y200364D01*
X41226Y200267D01*
X41244Y200168D01*
X41257Y200070D01*
X41267Y199970D01*
X41273Y199871D01*
X41275Y199771D01*
X41275Y198501D01*
X41275Y208291D02*
X29845Y208291D01*
X29845Y211466D01*
X29847Y211577D01*
X29853Y211687D01*
X29862Y211798D01*
X29876Y211908D01*
X29893Y212017D01*
X29914Y212126D01*
X29939Y212234D01*
X29968Y212341D01*
X30000Y212447D01*
X30036Y212552D01*
X30076Y212655D01*
X30119Y212757D01*
X30166Y212858D01*
X30217Y212957D01*
X30270Y213054D01*
X30327Y213148D01*
X30388Y213241D01*
X30451Y213332D01*
X30518Y213421D01*
X30588Y213507D01*
X30661Y213590D01*
X30736Y213672D01*
X30814Y213750D01*
X30896Y213825D01*
X30979Y213898D01*
X31065Y213968D01*
X31154Y214035D01*
X31245Y214098D01*
X31338Y214159D01*
X31432Y214216D01*
X31529Y214269D01*
X31628Y214320D01*
X31729Y214367D01*
X31831Y214410D01*
X31934Y214450D01*
X32039Y214486D01*
X32145Y214518D01*
X32252Y214547D01*
X32360Y214572D01*
X32469Y214593D01*
X32578Y214610D01*
X32688Y214624D01*
X32799Y214633D01*
X32909Y214639D01*
X33020Y214641D01*
X33131Y214639D01*
X33241Y214633D01*
X33352Y214624D01*
X33462Y214610D01*
X33571Y214593D01*
X33680Y214572D01*
X33788Y214547D01*
X33895Y214518D01*
X34001Y214486D01*
X34106Y214450D01*
X34209Y214410D01*
X34311Y214367D01*
X34412Y214320D01*
X34511Y214269D01*
X34608Y214216D01*
X34702Y214159D01*
X34795Y214098D01*
X34886Y214035D01*
X34975Y213968D01*
X35061Y213898D01*
X35144Y213825D01*
X35226Y213750D01*
X35304Y213672D01*
X35379Y213590D01*
X35452Y213507D01*
X35522Y213421D01*
X35589Y213332D01*
X35652Y213241D01*
X35713Y213148D01*
X35770Y213054D01*
X35823Y212957D01*
X35874Y212858D01*
X35921Y212757D01*
X35964Y212655D01*
X36004Y212552D01*
X36040Y212447D01*
X36072Y212341D01*
X36101Y212234D01*
X36126Y212126D01*
X36147Y212017D01*
X36164Y211908D01*
X36178Y211798D01*
X36187Y211687D01*
X36193Y211577D01*
X36195Y211466D01*
X36195Y208291D01*
X29845Y222642D02*
X29847Y222746D01*
X29853Y222851D01*
X29862Y222955D01*
X29875Y223058D01*
X29893Y223161D01*
X29913Y223263D01*
X29938Y223365D01*
X29966Y223465D01*
X29998Y223565D01*
X30034Y223663D01*
X30073Y223760D01*
X30115Y223855D01*
X30161Y223949D01*
X30211Y224041D01*
X30263Y224131D01*
X30319Y224219D01*
X30379Y224305D01*
X30441Y224389D01*
X30506Y224470D01*
X30574Y224549D01*
X30646Y224626D01*
X30719Y224699D01*
X30796Y224771D01*
X30875Y224839D01*
X30956Y224904D01*
X31040Y224966D01*
X31126Y225026D01*
X31214Y225082D01*
X31304Y225134D01*
X31396Y225184D01*
X31490Y225230D01*
X31585Y225272D01*
X31682Y225311D01*
X31780Y225347D01*
X31880Y225379D01*
X31980Y225407D01*
X32082Y225432D01*
X32184Y225452D01*
X32287Y225470D01*
X32390Y225483D01*
X32494Y225492D01*
X32599Y225498D01*
X32703Y225500D01*
X29845Y222642D02*
X29847Y222524D01*
X29853Y222405D01*
X29862Y222287D01*
X29875Y222170D01*
X29893Y222053D01*
X29913Y221936D01*
X29938Y221820D01*
X29966Y221705D01*
X29999Y221592D01*
X30034Y221479D01*
X30074Y221367D01*
X30116Y221257D01*
X30163Y221148D01*
X30213Y221040D01*
X30266Y220935D01*
X30323Y220831D01*
X30383Y220729D01*
X30446Y220629D01*
X30513Y220531D01*
X30582Y220435D01*
X30655Y220342D01*
X30731Y220251D01*
X30809Y220162D01*
X30891Y220076D01*
X30975Y219993D01*
X31061Y219912D01*
X31151Y219835D01*
X31242Y219760D01*
X31336Y219688D01*
X31433Y219619D01*
X31531Y219554D01*
X31632Y219491D01*
X31735Y219432D01*
X31839Y219376D01*
X31945Y219324D01*
X32053Y219275D01*
X32162Y219230D01*
X32273Y219188D01*
X32385Y219150D01*
X34925Y224548D02*
X34850Y224624D01*
X34771Y224699D01*
X34690Y224770D01*
X34606Y224839D01*
X34520Y224904D01*
X34432Y224966D01*
X34342Y225026D01*
X34250Y225082D01*
X34155Y225135D01*
X34059Y225184D01*
X33961Y225230D01*
X33862Y225273D01*
X33761Y225312D01*
X33659Y225347D01*
X33556Y225379D01*
X33452Y225407D01*
X33347Y225432D01*
X33240Y225453D01*
X33134Y225470D01*
X33027Y225483D01*
X32919Y225492D01*
X32811Y225498D01*
X32703Y225500D01*
X34925Y224547D02*
X41275Y219150D01*
X41275Y225500D01*
D12*
X87376Y340868D02*
X100076Y340868D01*
X106426Y334518D01*
X106426Y321818D01*
X100076Y315468D01*
X81026Y321818D02*
X81026Y334518D01*
X87376Y340868D01*
X81026Y321818D02*
X87376Y315468D01*
X100076Y315468D01*
D11*
X84709Y349631D02*
X84709Y358521D01*
X84709Y349631D02*
X84707Y349531D01*
X84701Y349432D01*
X84691Y349332D01*
X84678Y349234D01*
X84660Y349135D01*
X84639Y349038D01*
X84614Y348942D01*
X84585Y348846D01*
X84552Y348752D01*
X84516Y348659D01*
X84476Y348568D01*
X84432Y348478D01*
X84385Y348390D01*
X84335Y348304D01*
X84281Y348220D01*
X84224Y348138D01*
X84164Y348059D01*
X84100Y347981D01*
X84034Y347907D01*
X83965Y347835D01*
X83893Y347766D01*
X83819Y347700D01*
X83741Y347636D01*
X83662Y347576D01*
X83580Y347519D01*
X83496Y347465D01*
X83410Y347415D01*
X83322Y347368D01*
X83232Y347324D01*
X83141Y347284D01*
X83048Y347248D01*
X82954Y347215D01*
X82858Y347186D01*
X82762Y347161D01*
X82665Y347140D01*
X82566Y347122D01*
X82468Y347109D01*
X82368Y347099D01*
X82269Y347093D01*
X82169Y347091D01*
X80899Y347091D01*
X90689Y347091D02*
X90689Y358521D01*
X93864Y358521D01*
X93975Y358519D01*
X94085Y358513D01*
X94196Y358504D01*
X94306Y358490D01*
X94415Y358473D01*
X94524Y358452D01*
X94632Y358427D01*
X94739Y358398D01*
X94845Y358366D01*
X94950Y358330D01*
X95053Y358290D01*
X95155Y358247D01*
X95256Y358200D01*
X95355Y358149D01*
X95452Y358096D01*
X95546Y358039D01*
X95639Y357978D01*
X95730Y357915D01*
X95819Y357848D01*
X95905Y357778D01*
X95988Y357705D01*
X96070Y357630D01*
X96148Y357552D01*
X96223Y357470D01*
X96296Y357387D01*
X96366Y357301D01*
X96433Y357212D01*
X96496Y357121D01*
X96557Y357028D01*
X96614Y356933D01*
X96667Y356837D01*
X96718Y356738D01*
X96765Y356637D01*
X96808Y356535D01*
X96848Y356432D01*
X96884Y356327D01*
X96916Y356221D01*
X96945Y356114D01*
X96970Y356006D01*
X96991Y355897D01*
X97008Y355788D01*
X97022Y355678D01*
X97031Y355567D01*
X97037Y355457D01*
X97039Y355346D01*
X97037Y355235D01*
X97031Y355125D01*
X97022Y355014D01*
X97008Y354904D01*
X96991Y354795D01*
X96970Y354686D01*
X96945Y354578D01*
X96916Y354471D01*
X96884Y354365D01*
X96848Y354260D01*
X96808Y354157D01*
X96765Y354055D01*
X96718Y353954D01*
X96667Y353855D01*
X96614Y353758D01*
X96557Y353664D01*
X96496Y353571D01*
X96433Y353480D01*
X96366Y353391D01*
X96296Y353305D01*
X96223Y353222D01*
X96148Y353140D01*
X96070Y353062D01*
X95988Y352987D01*
X95905Y352914D01*
X95819Y352844D01*
X95730Y352777D01*
X95639Y352714D01*
X95546Y352653D01*
X95451Y352596D01*
X95355Y352543D01*
X95256Y352492D01*
X95155Y352445D01*
X95053Y352402D01*
X94950Y352362D01*
X94845Y352326D01*
X94739Y352294D01*
X94632Y352265D01*
X94524Y352240D01*
X94415Y352219D01*
X94306Y352202D01*
X94196Y352188D01*
X94085Y352179D01*
X93975Y352173D01*
X93864Y352171D01*
X90689Y352171D01*
X101548Y347091D02*
X104723Y347091D01*
X104834Y347093D01*
X104944Y347099D01*
X105055Y347108D01*
X105165Y347122D01*
X105274Y347139D01*
X105383Y347160D01*
X105491Y347185D01*
X105598Y347214D01*
X105704Y347246D01*
X105809Y347282D01*
X105912Y347322D01*
X106014Y347365D01*
X106115Y347412D01*
X106214Y347463D01*
X106310Y347516D01*
X106405Y347573D01*
X106498Y347634D01*
X106589Y347697D01*
X106678Y347764D01*
X106764Y347834D01*
X106847Y347907D01*
X106929Y347982D01*
X107007Y348060D01*
X107082Y348142D01*
X107155Y348225D01*
X107225Y348311D01*
X107292Y348400D01*
X107355Y348491D01*
X107416Y348584D01*
X107473Y348678D01*
X107526Y348775D01*
X107577Y348874D01*
X107624Y348975D01*
X107667Y349077D01*
X107707Y349180D01*
X107743Y349285D01*
X107775Y349391D01*
X107804Y349498D01*
X107829Y349606D01*
X107850Y349715D01*
X107867Y349824D01*
X107881Y349934D01*
X107890Y350045D01*
X107896Y350155D01*
X107898Y350266D01*
X107896Y350377D01*
X107890Y350487D01*
X107881Y350598D01*
X107867Y350708D01*
X107850Y350817D01*
X107829Y350926D01*
X107804Y351034D01*
X107775Y351141D01*
X107743Y351247D01*
X107707Y351352D01*
X107667Y351455D01*
X107624Y351557D01*
X107577Y351658D01*
X107526Y351757D01*
X107473Y351853D01*
X107416Y351948D01*
X107355Y352041D01*
X107292Y352132D01*
X107225Y352221D01*
X107155Y352307D01*
X107082Y352390D01*
X107007Y352472D01*
X106929Y352550D01*
X106847Y352625D01*
X106764Y352698D01*
X106678Y352768D01*
X106589Y352835D01*
X106498Y352898D01*
X106405Y352959D01*
X106311Y353016D01*
X106214Y353069D01*
X106115Y353120D01*
X106014Y353167D01*
X105912Y353210D01*
X105809Y353250D01*
X105704Y353286D01*
X105598Y353318D01*
X105491Y353347D01*
X105383Y353372D01*
X105274Y353393D01*
X105165Y353410D01*
X105055Y353424D01*
X104944Y353433D01*
X104834Y353439D01*
X104723Y353441D01*
X105358Y358521D02*
X101548Y358521D01*
X105358Y358521D02*
X105458Y358519D01*
X105557Y358513D01*
X105657Y358503D01*
X105755Y358490D01*
X105854Y358472D01*
X105951Y358451D01*
X106047Y358426D01*
X106143Y358397D01*
X106237Y358364D01*
X106330Y358328D01*
X106421Y358288D01*
X106511Y358244D01*
X106599Y358197D01*
X106685Y358147D01*
X106769Y358093D01*
X106851Y358036D01*
X106930Y357976D01*
X107008Y357912D01*
X107082Y357846D01*
X107154Y357777D01*
X107223Y357705D01*
X107289Y357631D01*
X107353Y357553D01*
X107413Y357474D01*
X107470Y357392D01*
X107524Y357308D01*
X107574Y357222D01*
X107621Y357134D01*
X107665Y357044D01*
X107705Y356953D01*
X107741Y356860D01*
X107774Y356766D01*
X107803Y356670D01*
X107828Y356574D01*
X107849Y356477D01*
X107867Y356378D01*
X107880Y356280D01*
X107890Y356180D01*
X107896Y356081D01*
X107898Y355981D01*
X107896Y355881D01*
X107890Y355782D01*
X107880Y355682D01*
X107867Y355584D01*
X107849Y355485D01*
X107828Y355388D01*
X107803Y355292D01*
X107774Y355196D01*
X107741Y355102D01*
X107705Y355009D01*
X107665Y354918D01*
X107621Y354828D01*
X107574Y354740D01*
X107524Y354654D01*
X107470Y354570D01*
X107413Y354488D01*
X107353Y354409D01*
X107289Y354331D01*
X107223Y354257D01*
X107154Y354185D01*
X107082Y354116D01*
X107008Y354050D01*
X106930Y353986D01*
X106851Y353926D01*
X106769Y353869D01*
X106685Y353815D01*
X106599Y353765D01*
X106511Y353718D01*
X106421Y353674D01*
X106330Y353634D01*
X106237Y353598D01*
X106143Y353565D01*
X106047Y353536D01*
X105951Y353511D01*
X105854Y353490D01*
X105755Y353472D01*
X105657Y353459D01*
X105557Y353449D01*
X105458Y353443D01*
X105358Y353441D01*
X102818Y353441D01*
D13*
X555498Y306054D03*
X555498Y217154D03*
X555498Y128254D03*
X403098Y306054D03*
X403098Y217154D03*
X403098Y128254D03*
X479298Y217154D03*
D14*
X225354Y277876D02*
X222758Y281122D01*
X234442Y281122D01*
X234442Y284367D02*
X234442Y277876D01*
D15*
X208492Y194878D03*
D12*
X226882Y199378D02*
X226882Y202378D01*
X229882Y202378D01*
X294882Y202378D02*
X297882Y202378D01*
X297882Y199378D01*
X297882Y131378D02*
X294882Y131378D01*
X297882Y131378D02*
X297882Y134378D01*
X226882Y134378D02*
X226882Y131378D01*
X229882Y131378D01*
D10*
X206862Y225731D02*
X206862Y231074D01*
X206862Y225731D02*
X206864Y225641D01*
X206870Y225552D01*
X206880Y225463D01*
X206893Y225374D01*
X206911Y225286D01*
X206932Y225199D01*
X206957Y225113D01*
X206986Y225028D01*
X207018Y224945D01*
X207055Y224863D01*
X207094Y224782D01*
X207137Y224704D01*
X207184Y224627D01*
X207234Y224552D01*
X207287Y224480D01*
X207343Y224410D01*
X207402Y224343D01*
X207464Y224278D01*
X207529Y224216D01*
X207596Y224157D01*
X207666Y224101D01*
X207738Y224048D01*
X207813Y223998D01*
X207890Y223951D01*
X207968Y223908D01*
X208049Y223869D01*
X208131Y223832D01*
X208214Y223800D01*
X208299Y223771D01*
X208385Y223746D01*
X208472Y223725D01*
X208560Y223707D01*
X208649Y223694D01*
X208738Y223684D01*
X208827Y223678D01*
X208917Y223676D01*
X209007Y223678D01*
X209096Y223684D01*
X209185Y223694D01*
X209274Y223707D01*
X209362Y223725D01*
X209449Y223746D01*
X209535Y223771D01*
X209620Y223800D01*
X209703Y223832D01*
X209785Y223869D01*
X209866Y223908D01*
X209945Y223951D01*
X210021Y223998D01*
X210096Y224048D01*
X210168Y224101D01*
X210238Y224157D01*
X210305Y224216D01*
X210370Y224278D01*
X210432Y224343D01*
X210491Y224410D01*
X210547Y224480D01*
X210600Y224552D01*
X210650Y224627D01*
X210697Y224704D01*
X210740Y224782D01*
X210779Y224863D01*
X210816Y224945D01*
X210848Y225028D01*
X210877Y225113D01*
X210902Y225199D01*
X210923Y225286D01*
X210941Y225374D01*
X210954Y225463D01*
X210964Y225552D01*
X210970Y225641D01*
X210972Y225731D01*
X210971Y225731D02*
X210971Y231074D01*
X214450Y229430D02*
X216505Y231074D01*
X216505Y223676D01*
X214450Y223676D02*
X218560Y223676D01*
D14*
X344560Y138049D02*
X347157Y138049D01*
X344560Y138049D02*
X344461Y138051D01*
X344361Y138057D01*
X344262Y138066D01*
X344164Y138079D01*
X344066Y138096D01*
X343968Y138117D01*
X343872Y138142D01*
X343777Y138170D01*
X343683Y138202D01*
X343590Y138237D01*
X343498Y138276D01*
X343408Y138319D01*
X343320Y138364D01*
X343233Y138414D01*
X343149Y138466D01*
X343066Y138522D01*
X342986Y138580D01*
X342908Y138642D01*
X342833Y138707D01*
X342760Y138775D01*
X342690Y138845D01*
X342622Y138918D01*
X342557Y138993D01*
X342495Y139071D01*
X342437Y139151D01*
X342381Y139234D01*
X342329Y139318D01*
X342279Y139405D01*
X342234Y139493D01*
X342191Y139583D01*
X342152Y139675D01*
X342117Y139768D01*
X342085Y139862D01*
X342057Y139957D01*
X342032Y140053D01*
X342011Y140151D01*
X341994Y140249D01*
X341981Y140347D01*
X341972Y140446D01*
X341966Y140546D01*
X341964Y140645D01*
X341964Y147137D01*
X341966Y147236D01*
X341972Y147336D01*
X341981Y147435D01*
X341994Y147533D01*
X342011Y147631D01*
X342032Y147729D01*
X342057Y147825D01*
X342085Y147920D01*
X342117Y148014D01*
X342152Y148107D01*
X342191Y148199D01*
X342234Y148289D01*
X342279Y148377D01*
X342329Y148464D01*
X342381Y148548D01*
X342437Y148631D01*
X342495Y148711D01*
X342557Y148789D01*
X342622Y148864D01*
X342690Y148937D01*
X342760Y149007D01*
X342833Y149075D01*
X342908Y149140D01*
X342986Y149202D01*
X343066Y149260D01*
X343149Y149316D01*
X343233Y149368D01*
X343320Y149418D01*
X343408Y149463D01*
X343498Y149506D01*
X343590Y149545D01*
X343682Y149580D01*
X343777Y149612D01*
X343872Y149640D01*
X343968Y149665D01*
X344066Y149686D01*
X344164Y149703D01*
X344262Y149716D01*
X344361Y149725D01*
X344461Y149731D01*
X344560Y149733D01*
X347157Y149733D01*
X351522Y138049D02*
X354767Y138049D01*
X354880Y138051D01*
X354993Y138057D01*
X355106Y138067D01*
X355219Y138081D01*
X355331Y138098D01*
X355442Y138120D01*
X355552Y138145D01*
X355662Y138175D01*
X355770Y138208D01*
X355877Y138245D01*
X355983Y138285D01*
X356087Y138330D01*
X356190Y138378D01*
X356291Y138429D01*
X356390Y138484D01*
X356487Y138542D01*
X356582Y138604D01*
X356675Y138669D01*
X356765Y138737D01*
X356853Y138808D01*
X356939Y138883D01*
X357022Y138960D01*
X357102Y139040D01*
X357179Y139123D01*
X357254Y139209D01*
X357325Y139297D01*
X357393Y139387D01*
X357458Y139480D01*
X357520Y139575D01*
X357578Y139672D01*
X357633Y139771D01*
X357684Y139872D01*
X357732Y139975D01*
X357777Y140079D01*
X357817Y140185D01*
X357854Y140292D01*
X357887Y140400D01*
X357917Y140510D01*
X357942Y140620D01*
X357964Y140731D01*
X357981Y140843D01*
X357995Y140956D01*
X358005Y141069D01*
X358011Y141182D01*
X358013Y141295D01*
X358011Y141408D01*
X358005Y141521D01*
X357995Y141634D01*
X357981Y141747D01*
X357964Y141859D01*
X357942Y141970D01*
X357917Y142080D01*
X357887Y142190D01*
X357854Y142298D01*
X357817Y142405D01*
X357777Y142511D01*
X357732Y142615D01*
X357684Y142718D01*
X357633Y142819D01*
X357578Y142918D01*
X357520Y143015D01*
X357458Y143110D01*
X357393Y143203D01*
X357325Y143293D01*
X357254Y143381D01*
X357179Y143467D01*
X357102Y143550D01*
X357022Y143630D01*
X356939Y143707D01*
X356853Y143782D01*
X356765Y143853D01*
X356675Y143921D01*
X356582Y143986D01*
X356487Y144048D01*
X356390Y144106D01*
X356291Y144161D01*
X356190Y144212D01*
X356087Y144260D01*
X355983Y144305D01*
X355877Y144345D01*
X355770Y144382D01*
X355662Y144415D01*
X355552Y144445D01*
X355442Y144470D01*
X355331Y144492D01*
X355219Y144509D01*
X355106Y144523D01*
X354993Y144533D01*
X354880Y144539D01*
X354767Y144541D01*
X355417Y149733D02*
X351522Y149733D01*
X355417Y149733D02*
X355518Y149731D01*
X355618Y149725D01*
X355718Y149715D01*
X355818Y149702D01*
X355917Y149684D01*
X356016Y149663D01*
X356113Y149638D01*
X356210Y149609D01*
X356305Y149576D01*
X356399Y149540D01*
X356491Y149500D01*
X356582Y149457D01*
X356671Y149410D01*
X356758Y149360D01*
X356844Y149306D01*
X356927Y149249D01*
X357007Y149189D01*
X357086Y149126D01*
X357162Y149059D01*
X357235Y148990D01*
X357305Y148918D01*
X357373Y148844D01*
X357438Y148767D01*
X357499Y148687D01*
X357558Y148605D01*
X357613Y148521D01*
X357665Y148435D01*
X357714Y148347D01*
X357759Y148257D01*
X357801Y148165D01*
X357839Y148072D01*
X357873Y147977D01*
X357904Y147882D01*
X357931Y147785D01*
X357954Y147687D01*
X357974Y147588D01*
X357989Y147488D01*
X358001Y147388D01*
X358009Y147288D01*
X358013Y147187D01*
X358013Y147087D01*
X358009Y146986D01*
X358001Y146886D01*
X357989Y146786D01*
X357974Y146686D01*
X357954Y146587D01*
X357931Y146489D01*
X357904Y146392D01*
X357873Y146297D01*
X357839Y146202D01*
X357801Y146109D01*
X357759Y146017D01*
X357714Y145927D01*
X357665Y145839D01*
X357613Y145753D01*
X357558Y145669D01*
X357499Y145587D01*
X357438Y145507D01*
X357373Y145430D01*
X357305Y145356D01*
X357235Y145284D01*
X357162Y145215D01*
X357086Y145148D01*
X357007Y145085D01*
X356927Y145025D01*
X356844Y144968D01*
X356758Y144914D01*
X356671Y144864D01*
X356582Y144817D01*
X356491Y144774D01*
X356399Y144734D01*
X356305Y144698D01*
X356210Y144665D01*
X356113Y144636D01*
X356016Y144611D01*
X355917Y144590D01*
X355818Y144572D01*
X355718Y144559D01*
X355618Y144549D01*
X355518Y144543D01*
X355417Y144541D01*
X355417Y144540D02*
X352820Y144540D01*
D16*
X162870Y42040D02*
X42870Y42040D01*
X42870Y90040D02*
X162870Y90040D01*
X182291Y64190D02*
X182293Y64261D01*
X182299Y64331D01*
X182309Y64401D01*
X182323Y64470D01*
X182340Y64539D01*
X182362Y64606D01*
X182387Y64672D01*
X182416Y64736D01*
X182448Y64799D01*
X182484Y64860D01*
X182523Y64919D01*
X182566Y64975D01*
X182611Y65029D01*
X182660Y65080D01*
X182711Y65129D01*
X182765Y65174D01*
X182821Y65217D01*
X182880Y65256D01*
X182941Y65292D01*
X183004Y65324D01*
X183068Y65353D01*
X183134Y65378D01*
X183201Y65400D01*
X183270Y65417D01*
X183339Y65431D01*
X183409Y65441D01*
X183479Y65447D01*
X183550Y65449D01*
X183621Y65447D01*
X183691Y65441D01*
X183761Y65431D01*
X183830Y65417D01*
X183899Y65400D01*
X183966Y65378D01*
X184032Y65353D01*
X184096Y65324D01*
X184159Y65292D01*
X184220Y65256D01*
X184279Y65217D01*
X184335Y65174D01*
X184389Y65129D01*
X184440Y65080D01*
X184489Y65029D01*
X184534Y64975D01*
X184577Y64919D01*
X184616Y64860D01*
X184652Y64799D01*
X184684Y64736D01*
X184713Y64672D01*
X184738Y64606D01*
X184760Y64539D01*
X184777Y64470D01*
X184791Y64401D01*
X184801Y64331D01*
X184807Y64261D01*
X184809Y64190D01*
X184807Y64119D01*
X184801Y64049D01*
X184791Y63979D01*
X184777Y63910D01*
X184760Y63841D01*
X184738Y63774D01*
X184713Y63708D01*
X184684Y63644D01*
X184652Y63581D01*
X184616Y63520D01*
X184577Y63461D01*
X184534Y63405D01*
X184489Y63351D01*
X184440Y63300D01*
X184389Y63251D01*
X184335Y63206D01*
X184279Y63163D01*
X184220Y63124D01*
X184159Y63088D01*
X184096Y63056D01*
X184032Y63027D01*
X183966Y63002D01*
X183899Y62980D01*
X183830Y62963D01*
X183761Y62949D01*
X183691Y62939D01*
X183621Y62933D01*
X183550Y62931D01*
X183479Y62933D01*
X183409Y62939D01*
X183339Y62949D01*
X183270Y62963D01*
X183201Y62980D01*
X183134Y63002D01*
X183068Y63027D01*
X183004Y63056D01*
X182941Y63088D01*
X182880Y63124D01*
X182821Y63163D01*
X182765Y63206D01*
X182711Y63251D01*
X182660Y63300D01*
X182611Y63351D01*
X182566Y63405D01*
X182523Y63461D01*
X182484Y63520D01*
X182448Y63581D01*
X182416Y63644D01*
X182387Y63708D01*
X182362Y63774D01*
X182340Y63841D01*
X182323Y63910D01*
X182309Y63979D01*
X182299Y64049D01*
X182293Y64119D01*
X182291Y64190D01*
X162870Y53800D02*
X162870Y42040D01*
X162870Y78040D02*
X162870Y90040D01*
X42870Y90040D02*
X42870Y77720D01*
X42870Y54360D02*
X42870Y42040D01*
D14*
X92731Y72649D02*
X96626Y67132D01*
X100521Y72649D01*
X96626Y67132D02*
X96626Y60965D01*
X104810Y70053D02*
X108056Y72649D01*
X108056Y60965D01*
X111301Y60965D02*
X104810Y60965D01*
M02*
