G04 EAGLE Gerber RS-274X export*
G75*
%MOMM*%
%FSLAX34Y34*%
%LPD*%
%INTop Copper*%
%IPPOS*%
%AMOC8*
5,1,8,0,0,1.08239X$1,22.5*%
G01*
%ADD10R,1.300000X1.500000*%
%ADD11R,1.500000X1.300000*%
%ADD12P,1.649562X8X202.500000*%
%ADD13C,1.524000*%
%ADD14P,1.649562X8X22.500000*%
%ADD15R,1.200000X1.200000*%
%ADD16R,1.600000X1.300000*%
%ADD17R,2.200000X1.200000*%
%ADD18C,1.000000*%
%ADD19R,1.600000X0.550000*%
%ADD20R,0.550000X1.600000*%
%ADD21R,5.500000X2.000000*%
%ADD22C,0.254000*%
%ADD23C,0.203200*%
%ADD24C,0.406400*%
%ADD25C,0.355600*%
%ADD26C,0.685800*%
%ADD27C,0.304800*%

G36*
X573946Y5081D02*
X573946Y5081D01*
X574064Y5096D01*
X574183Y5103D01*
X574221Y5116D01*
X574262Y5121D01*
X574372Y5164D01*
X574485Y5201D01*
X574520Y5223D01*
X574557Y5238D01*
X574653Y5308D01*
X574754Y5371D01*
X574782Y5401D01*
X574815Y5424D01*
X574891Y5516D01*
X574972Y5603D01*
X574992Y5638D01*
X575017Y5669D01*
X575068Y5777D01*
X575126Y5881D01*
X575136Y5921D01*
X575153Y5957D01*
X575175Y6074D01*
X575205Y6189D01*
X575209Y6250D01*
X575213Y6270D01*
X575211Y6290D01*
X575215Y6350D01*
X575215Y25654D01*
X577596Y28035D01*
X596900Y28035D01*
X597018Y28050D01*
X597137Y28057D01*
X597175Y28070D01*
X597216Y28075D01*
X597326Y28118D01*
X597439Y28155D01*
X597474Y28177D01*
X597511Y28192D01*
X597607Y28261D01*
X597708Y28325D01*
X597736Y28355D01*
X597769Y28378D01*
X597845Y28470D01*
X597926Y28557D01*
X597946Y28592D01*
X597971Y28623D01*
X598022Y28731D01*
X598080Y28835D01*
X598090Y28875D01*
X598107Y28911D01*
X598129Y29028D01*
X598159Y29143D01*
X598163Y29203D01*
X598167Y29223D01*
X598165Y29244D01*
X598169Y29304D01*
X598169Y382270D01*
X598154Y382388D01*
X598147Y382507D01*
X598134Y382545D01*
X598129Y382586D01*
X598086Y382696D01*
X598049Y382809D01*
X598027Y382844D01*
X598012Y382881D01*
X597943Y382977D01*
X597879Y383078D01*
X597849Y383106D01*
X597826Y383139D01*
X597734Y383215D01*
X597647Y383296D01*
X597612Y383316D01*
X597581Y383341D01*
X597473Y383392D01*
X597369Y383450D01*
X597329Y383460D01*
X597293Y383477D01*
X597176Y383499D01*
X597061Y383529D01*
X597001Y383533D01*
X596981Y383537D01*
X596960Y383535D01*
X596900Y383539D01*
X27780Y383539D01*
X27662Y383524D01*
X27543Y383517D01*
X27505Y383504D01*
X27464Y383499D01*
X27354Y383456D01*
X27241Y383419D01*
X27206Y383397D01*
X27169Y383382D01*
X27073Y383313D01*
X26972Y383249D01*
X26944Y383219D01*
X26911Y383196D01*
X26835Y383104D01*
X26754Y383017D01*
X26734Y382982D01*
X26709Y382951D01*
X26658Y382843D01*
X26600Y382739D01*
X26590Y382699D01*
X26573Y382663D01*
X26551Y382546D01*
X26521Y382431D01*
X26517Y382371D01*
X26513Y382351D01*
X26515Y382330D01*
X26511Y382270D01*
X26511Y363982D01*
X24130Y361601D01*
X6350Y361601D01*
X6232Y361586D01*
X6113Y361579D01*
X6075Y361566D01*
X6034Y361561D01*
X5924Y361518D01*
X5811Y361481D01*
X5776Y361459D01*
X5739Y361444D01*
X5643Y361375D01*
X5542Y361311D01*
X5514Y361281D01*
X5481Y361258D01*
X5406Y361166D01*
X5324Y361079D01*
X5304Y361044D01*
X5279Y361013D01*
X5228Y360905D01*
X5170Y360801D01*
X5160Y360761D01*
X5143Y360725D01*
X5121Y360608D01*
X5091Y360493D01*
X5087Y360433D01*
X5083Y360413D01*
X5085Y360392D01*
X5081Y360332D01*
X5081Y29304D01*
X5096Y29186D01*
X5103Y29067D01*
X5116Y29029D01*
X5121Y28988D01*
X5164Y28878D01*
X5201Y28765D01*
X5223Y28730D01*
X5238Y28693D01*
X5307Y28597D01*
X5371Y28496D01*
X5401Y28468D01*
X5424Y28435D01*
X5516Y28359D01*
X5603Y28278D01*
X5638Y28258D01*
X5669Y28233D01*
X5777Y28182D01*
X5881Y28124D01*
X5921Y28114D01*
X5957Y28097D01*
X6074Y28075D01*
X6189Y28045D01*
X6249Y28041D01*
X6269Y28037D01*
X6290Y28039D01*
X6350Y28035D01*
X25400Y28035D01*
X27781Y25654D01*
X27781Y6350D01*
X27796Y6232D01*
X27803Y6113D01*
X27816Y6075D01*
X27821Y6034D01*
X27864Y5924D01*
X27901Y5811D01*
X27923Y5776D01*
X27938Y5739D01*
X28007Y5643D01*
X28071Y5542D01*
X28101Y5514D01*
X28124Y5481D01*
X28216Y5405D01*
X28303Y5324D01*
X28338Y5304D01*
X28369Y5279D01*
X28477Y5228D01*
X28581Y5170D01*
X28621Y5160D01*
X28657Y5143D01*
X28774Y5121D01*
X28889Y5091D01*
X28949Y5087D01*
X28969Y5083D01*
X28990Y5085D01*
X29050Y5081D01*
X573946Y5081D01*
G37*
%LPC*%
G36*
X252462Y34797D02*
X252462Y34797D01*
X246484Y40776D01*
X246406Y40836D01*
X246333Y40904D01*
X246280Y40933D01*
X246233Y40970D01*
X246142Y41010D01*
X246055Y41058D01*
X245996Y41073D01*
X245941Y41097D01*
X245843Y41112D01*
X245747Y41137D01*
X245647Y41143D01*
X245627Y41147D01*
X245614Y41145D01*
X245586Y41147D01*
X233635Y41147D01*
X231674Y41959D01*
X224839Y48794D01*
X224027Y50755D01*
X224027Y54155D01*
X224015Y54253D01*
X224012Y54352D01*
X223995Y54411D01*
X223987Y54471D01*
X223951Y54563D01*
X223923Y54658D01*
X223893Y54710D01*
X223870Y54766D01*
X223812Y54847D01*
X223762Y54932D01*
X223696Y55007D01*
X223684Y55024D01*
X223674Y55032D01*
X223656Y55053D01*
X223009Y55699D01*
X221868Y58453D01*
X221868Y61435D01*
X223009Y64189D01*
X225117Y66297D01*
X227871Y67438D01*
X230853Y67438D01*
X233607Y66297D01*
X235715Y64189D01*
X236856Y61435D01*
X236856Y58453D01*
X235715Y55699D01*
X235267Y55251D01*
X235194Y55157D01*
X235115Y55068D01*
X235096Y55032D01*
X235072Y55000D01*
X235024Y54890D01*
X234970Y54784D01*
X234961Y54745D01*
X234945Y54708D01*
X234927Y54590D01*
X234901Y54474D01*
X234902Y54434D01*
X234895Y54394D01*
X234907Y54275D01*
X234910Y54156D01*
X234921Y54117D01*
X234925Y54077D01*
X234965Y53965D01*
X234999Y53851D01*
X235019Y53816D01*
X235033Y53778D01*
X235100Y53679D01*
X235160Y53577D01*
X235200Y53532D01*
X235211Y53515D01*
X235227Y53501D01*
X235267Y53456D01*
X236534Y52188D01*
X236612Y52128D01*
X236684Y52060D01*
X236737Y52031D01*
X236785Y51994D01*
X236876Y51954D01*
X236963Y51906D01*
X237021Y51891D01*
X237077Y51867D01*
X237175Y51852D01*
X237271Y51827D01*
X237371Y51821D01*
X237391Y51817D01*
X237403Y51819D01*
X237431Y51817D01*
X245586Y51817D01*
X245684Y51829D01*
X245784Y51832D01*
X245842Y51849D01*
X245902Y51857D01*
X245994Y51893D01*
X246089Y51921D01*
X246141Y51951D01*
X246198Y51974D01*
X246278Y52032D01*
X246363Y52082D01*
X246438Y52148D01*
X246455Y52160D01*
X246463Y52170D01*
X246484Y52188D01*
X252462Y58167D01*
X262142Y58167D01*
X262501Y57808D01*
X262610Y57723D01*
X262717Y57634D01*
X262736Y57626D01*
X262752Y57613D01*
X262880Y57558D01*
X263005Y57499D01*
X263025Y57495D01*
X263044Y57487D01*
X263182Y57465D01*
X263318Y57439D01*
X263338Y57440D01*
X263358Y57437D01*
X263497Y57450D01*
X263635Y57459D01*
X263654Y57465D01*
X263674Y57467D01*
X263805Y57514D01*
X263937Y57557D01*
X263955Y57568D01*
X263974Y57574D01*
X264088Y57652D01*
X264206Y57727D01*
X264220Y57742D01*
X264237Y57753D01*
X264329Y57857D01*
X264424Y57959D01*
X264434Y57976D01*
X264447Y57991D01*
X264510Y58115D01*
X264578Y58237D01*
X264583Y58257D01*
X264592Y58275D01*
X264622Y58411D01*
X264657Y58545D01*
X264659Y58573D01*
X264662Y58585D01*
X264661Y58605D01*
X264667Y58706D01*
X264667Y61814D01*
X264650Y61952D01*
X264637Y62090D01*
X264630Y62109D01*
X264627Y62129D01*
X264576Y62258D01*
X264529Y62389D01*
X264518Y62406D01*
X264510Y62425D01*
X264429Y62537D01*
X264351Y62652D01*
X264335Y62666D01*
X264324Y62682D01*
X264216Y62771D01*
X264112Y62863D01*
X264094Y62872D01*
X264079Y62885D01*
X263953Y62944D01*
X263829Y63007D01*
X263809Y63012D01*
X263791Y63021D01*
X263654Y63047D01*
X263519Y63077D01*
X263498Y63076D01*
X263479Y63080D01*
X263340Y63072D01*
X263201Y63067D01*
X263181Y63062D01*
X263161Y63061D01*
X263029Y63018D01*
X262895Y62979D01*
X262878Y62969D01*
X262859Y62963D01*
X262741Y62888D01*
X262621Y62817D01*
X262600Y62799D01*
X262590Y62792D01*
X262576Y62777D01*
X262501Y62711D01*
X261511Y61721D01*
X259841Y61721D01*
X259841Y70612D01*
X259826Y70730D01*
X259819Y70849D01*
X259806Y70887D01*
X259801Y70927D01*
X259758Y71038D01*
X259721Y71151D01*
X259699Y71185D01*
X259684Y71223D01*
X259614Y71319D01*
X259551Y71420D01*
X259521Y71448D01*
X259497Y71480D01*
X259406Y71556D01*
X259319Y71638D01*
X259284Y71657D01*
X259253Y71683D01*
X259145Y71734D01*
X259041Y71791D01*
X259001Y71802D01*
X258965Y71819D01*
X258848Y71841D01*
X258733Y71871D01*
X258672Y71875D01*
X258652Y71879D01*
X258632Y71877D01*
X258572Y71881D01*
X257301Y71881D01*
X257301Y71883D01*
X258572Y71883D01*
X258690Y71898D01*
X258809Y71905D01*
X258847Y71918D01*
X258887Y71923D01*
X258998Y71967D01*
X259111Y72003D01*
X259146Y72025D01*
X259183Y72040D01*
X259279Y72110D01*
X259380Y72173D01*
X259408Y72203D01*
X259441Y72227D01*
X259516Y72318D01*
X259598Y72405D01*
X259618Y72440D01*
X259643Y72472D01*
X259694Y72579D01*
X259752Y72684D01*
X259762Y72723D01*
X259779Y72759D01*
X259801Y72876D01*
X259831Y72991D01*
X259835Y73052D01*
X259839Y73072D01*
X259837Y73092D01*
X259841Y73152D01*
X259841Y82043D01*
X261359Y82043D01*
X261408Y82049D01*
X261458Y82047D01*
X261565Y82069D01*
X261674Y82083D01*
X261721Y82101D01*
X261769Y82111D01*
X261868Y82159D01*
X261970Y82200D01*
X262010Y82229D01*
X262055Y82251D01*
X262138Y82322D01*
X262227Y82386D01*
X262259Y82425D01*
X262297Y82457D01*
X262360Y82547D01*
X262430Y82631D01*
X262451Y82676D01*
X262480Y82717D01*
X262519Y82820D01*
X262566Y82919D01*
X262575Y82968D01*
X262593Y83014D01*
X262605Y83124D01*
X262625Y83231D01*
X262622Y83281D01*
X262628Y83330D01*
X262612Y83439D01*
X262606Y83549D01*
X262590Y83596D01*
X262583Y83645D01*
X262531Y83798D01*
X262508Y83853D01*
X262508Y86835D01*
X263665Y89627D01*
X263672Y89636D01*
X263761Y89743D01*
X263769Y89762D01*
X263782Y89778D01*
X263837Y89906D01*
X263896Y90031D01*
X263900Y90051D01*
X263908Y90069D01*
X263930Y90207D01*
X263956Y90344D01*
X263955Y90364D01*
X263958Y90384D01*
X263945Y90522D01*
X263936Y90661D01*
X263930Y90680D01*
X263928Y90700D01*
X263881Y90831D01*
X263838Y90963D01*
X263827Y90981D01*
X263821Y90999D01*
X263743Y91114D01*
X263668Y91232D01*
X263653Y91246D01*
X263642Y91263D01*
X263538Y91355D01*
X263436Y91450D01*
X263419Y91460D01*
X263404Y91473D01*
X263280Y91536D01*
X263158Y91604D01*
X263138Y91609D01*
X263120Y91618D01*
X262984Y91648D01*
X262850Y91683D01*
X262822Y91685D01*
X262810Y91688D01*
X262790Y91687D01*
X262689Y91693D01*
X261067Y91693D01*
X259106Y92505D01*
X245859Y105752D01*
X245047Y107713D01*
X245047Y111744D01*
X245032Y111862D01*
X245025Y111981D01*
X245012Y112019D01*
X245007Y112060D01*
X244964Y112170D01*
X244927Y112283D01*
X244905Y112318D01*
X244890Y112355D01*
X244821Y112451D01*
X244757Y112552D01*
X244727Y112580D01*
X244704Y112613D01*
X244612Y112689D01*
X244525Y112770D01*
X244490Y112790D01*
X244459Y112815D01*
X244351Y112866D01*
X244247Y112924D01*
X244207Y112934D01*
X244171Y112951D01*
X244054Y112973D01*
X243939Y113003D01*
X243879Y113007D01*
X243859Y113011D01*
X243838Y113009D01*
X243778Y113013D01*
X229948Y113013D01*
X227567Y115394D01*
X227567Y130794D01*
X227552Y130912D01*
X227545Y131031D01*
X227532Y131069D01*
X227527Y131110D01*
X227484Y131220D01*
X227447Y131333D01*
X227425Y131368D01*
X227410Y131405D01*
X227341Y131501D01*
X227277Y131602D01*
X227247Y131630D01*
X227224Y131663D01*
X227132Y131739D01*
X227045Y131820D01*
X227010Y131840D01*
X226979Y131865D01*
X226871Y131916D01*
X226767Y131974D01*
X226727Y131984D01*
X226691Y132001D01*
X226574Y132023D01*
X226459Y132053D01*
X226399Y132057D01*
X226379Y132061D01*
X226358Y132059D01*
X226298Y132063D01*
X210898Y132063D01*
X209790Y133172D01*
X209712Y133232D01*
X209640Y133300D01*
X209587Y133329D01*
X209539Y133366D01*
X209448Y133406D01*
X209361Y133454D01*
X209303Y133469D01*
X209247Y133493D01*
X209149Y133508D01*
X209053Y133533D01*
X208953Y133539D01*
X208933Y133543D01*
X208921Y133541D01*
X208893Y133543D01*
X207399Y133543D01*
X207301Y133531D01*
X207202Y133528D01*
X207144Y133511D01*
X207084Y133503D01*
X206992Y133467D01*
X206897Y133439D01*
X206845Y133409D01*
X206788Y133386D01*
X206708Y133328D01*
X206623Y133278D01*
X206547Y133212D01*
X206531Y133200D01*
X206523Y133190D01*
X206502Y133172D01*
X203064Y129734D01*
X203004Y129656D01*
X202936Y129584D01*
X202907Y129531D01*
X202870Y129483D01*
X202830Y129392D01*
X202782Y129305D01*
X202767Y129247D01*
X202743Y129191D01*
X202728Y129093D01*
X202703Y128997D01*
X202697Y128897D01*
X202693Y128877D01*
X202695Y128865D01*
X202693Y128837D01*
X202693Y126236D01*
X202708Y126118D01*
X202715Y125999D01*
X202728Y125961D01*
X202733Y125920D01*
X202776Y125810D01*
X202813Y125697D01*
X202835Y125662D01*
X202850Y125625D01*
X202919Y125529D01*
X202983Y125428D01*
X203013Y125400D01*
X203036Y125367D01*
X203128Y125291D01*
X203215Y125210D01*
X203250Y125190D01*
X203281Y125165D01*
X203389Y125114D01*
X203493Y125056D01*
X203533Y125046D01*
X203569Y125029D01*
X203686Y125007D01*
X203801Y124977D01*
X203861Y124973D01*
X203881Y124969D01*
X203902Y124971D01*
X203962Y124967D01*
X206542Y124967D01*
X208923Y122586D01*
X208923Y106218D01*
X207315Y104610D01*
X207246Y104521D01*
X207170Y104438D01*
X207149Y104396D01*
X207120Y104359D01*
X207075Y104256D01*
X207023Y104156D01*
X207012Y104110D01*
X206993Y104067D01*
X206976Y103956D01*
X206950Y103847D01*
X206951Y103800D01*
X206943Y103753D01*
X206954Y103641D01*
X206956Y103529D01*
X206969Y103483D01*
X206973Y103436D01*
X207011Y103330D01*
X207041Y103222D01*
X207073Y103157D01*
X207081Y103137D01*
X207091Y103122D01*
X207113Y103078D01*
X207226Y102883D01*
X207399Y102236D01*
X207399Y97941D01*
X198628Y97941D01*
X198510Y97926D01*
X198391Y97919D01*
X198353Y97906D01*
X198313Y97901D01*
X198202Y97857D01*
X198089Y97821D01*
X198054Y97799D01*
X198017Y97784D01*
X197921Y97714D01*
X197820Y97651D01*
X197792Y97621D01*
X197760Y97597D01*
X197684Y97506D01*
X197602Y97419D01*
X197583Y97384D01*
X197557Y97352D01*
X197506Y97245D01*
X197449Y97141D01*
X197438Y97101D01*
X197421Y97065D01*
X197399Y96948D01*
X197369Y96833D01*
X197365Y96772D01*
X197361Y96752D01*
X197363Y96732D01*
X197359Y96672D01*
X197359Y95401D01*
X197357Y95401D01*
X197357Y96672D01*
X197342Y96790D01*
X197335Y96909D01*
X197322Y96947D01*
X197317Y96987D01*
X197273Y97098D01*
X197237Y97211D01*
X197215Y97246D01*
X197200Y97283D01*
X197130Y97379D01*
X197067Y97480D01*
X197037Y97508D01*
X197013Y97540D01*
X196922Y97616D01*
X196835Y97698D01*
X196800Y97717D01*
X196768Y97743D01*
X196661Y97794D01*
X196557Y97851D01*
X196517Y97862D01*
X196481Y97879D01*
X196364Y97901D01*
X196249Y97931D01*
X196188Y97935D01*
X196168Y97939D01*
X196148Y97937D01*
X196088Y97941D01*
X187317Y97941D01*
X187317Y102236D01*
X187490Y102883D01*
X187603Y103078D01*
X187647Y103181D01*
X187698Y103282D01*
X187708Y103328D01*
X187726Y103371D01*
X187743Y103482D01*
X187767Y103592D01*
X187766Y103639D01*
X187773Y103686D01*
X187761Y103797D01*
X187758Y103910D01*
X187745Y103955D01*
X187740Y104002D01*
X187701Y104107D01*
X187669Y104215D01*
X187646Y104256D01*
X187629Y104300D01*
X187565Y104393D01*
X187508Y104489D01*
X187460Y104543D01*
X187448Y104561D01*
X187434Y104573D01*
X187401Y104610D01*
X185474Y106538D01*
X185379Y106611D01*
X185290Y106690D01*
X185254Y106708D01*
X185222Y106733D01*
X185113Y106780D01*
X185007Y106834D01*
X184968Y106843D01*
X184930Y106859D01*
X184813Y106878D01*
X184697Y106904D01*
X184656Y106903D01*
X184616Y106909D01*
X184498Y106898D01*
X184379Y106894D01*
X184340Y106883D01*
X184300Y106879D01*
X184187Y106839D01*
X184073Y106806D01*
X184039Y106786D01*
X184000Y106772D01*
X183902Y106705D01*
X183799Y106645D01*
X183754Y106605D01*
X183737Y106593D01*
X183724Y106578D01*
X183679Y106538D01*
X159412Y82271D01*
X159327Y82162D01*
X159238Y82055D01*
X159229Y82036D01*
X159217Y82020D01*
X159162Y81892D01*
X159102Y81767D01*
X159099Y81747D01*
X159091Y81728D01*
X159069Y81590D01*
X159043Y81454D01*
X159044Y81434D01*
X159041Y81414D01*
X159054Y81275D01*
X159062Y81137D01*
X159069Y81118D01*
X159071Y81098D01*
X159118Y80966D01*
X159160Y80835D01*
X159171Y80817D01*
X159178Y80798D01*
X159256Y80683D01*
X159331Y80566D01*
X159345Y80552D01*
X159357Y80535D01*
X159461Y80443D01*
X159562Y80348D01*
X159580Y80338D01*
X159595Y80325D01*
X159719Y80261D01*
X159841Y80194D01*
X159860Y80189D01*
X159878Y80180D01*
X160014Y80150D01*
X160149Y80115D01*
X160177Y80113D01*
X160189Y80110D01*
X160209Y80111D01*
X160309Y80105D01*
X179554Y80105D01*
X181935Y77724D01*
X181935Y54356D01*
X179554Y51975D01*
X121186Y51975D01*
X118805Y54356D01*
X118805Y77724D01*
X121186Y80105D01*
X143766Y80105D01*
X143884Y80120D01*
X144003Y80127D01*
X144041Y80140D01*
X144082Y80145D01*
X144192Y80188D01*
X144305Y80225D01*
X144340Y80247D01*
X144377Y80262D01*
X144473Y80331D01*
X144574Y80395D01*
X144602Y80425D01*
X144635Y80448D01*
X144711Y80540D01*
X144792Y80627D01*
X144812Y80662D01*
X144837Y80693D01*
X144888Y80801D01*
X144946Y80905D01*
X144956Y80945D01*
X144973Y80981D01*
X144995Y81098D01*
X145025Y81213D01*
X145029Y81273D01*
X145033Y81293D01*
X145031Y81314D01*
X145035Y81374D01*
X145035Y81835D01*
X145847Y83796D01*
X165082Y103030D01*
X165124Y103085D01*
X165174Y103134D01*
X165221Y103210D01*
X165276Y103281D01*
X165304Y103345D01*
X165341Y103405D01*
X165367Y103491D01*
X165403Y103573D01*
X165414Y103642D01*
X165434Y103709D01*
X165439Y103798D01*
X165453Y103887D01*
X165446Y103957D01*
X165449Y104026D01*
X165431Y104114D01*
X165423Y104204D01*
X165399Y104270D01*
X165385Y104338D01*
X165346Y104418D01*
X165315Y104503D01*
X165276Y104561D01*
X165245Y104624D01*
X165187Y104692D01*
X165137Y104766D01*
X165084Y104812D01*
X165039Y104866D01*
X164966Y104917D01*
X164898Y104977D01*
X164836Y105008D01*
X164779Y105049D01*
X164695Y105080D01*
X164615Y105121D01*
X164547Y105137D01*
X164482Y105161D01*
X164392Y105171D01*
X164305Y105191D01*
X164235Y105189D01*
X164166Y105197D01*
X164077Y105184D01*
X163987Y105181D01*
X163920Y105162D01*
X163851Y105152D01*
X163698Y105100D01*
X162605Y104647D01*
X102047Y104647D01*
X101949Y104635D01*
X101850Y104632D01*
X101792Y104615D01*
X101732Y104607D01*
X101640Y104571D01*
X101545Y104543D01*
X101493Y104513D01*
X101436Y104490D01*
X101356Y104432D01*
X101271Y104382D01*
X101195Y104316D01*
X101179Y104304D01*
X101171Y104294D01*
X101150Y104276D01*
X79146Y82271D01*
X79061Y82162D01*
X78972Y82055D01*
X78963Y82036D01*
X78951Y82020D01*
X78896Y81892D01*
X78836Y81767D01*
X78833Y81747D01*
X78825Y81728D01*
X78803Y81590D01*
X78777Y81454D01*
X78778Y81434D01*
X78775Y81414D01*
X78788Y81275D01*
X78796Y81137D01*
X78803Y81118D01*
X78805Y81098D01*
X78852Y80966D01*
X78894Y80835D01*
X78905Y80817D01*
X78912Y80798D01*
X78990Y80683D01*
X79065Y80566D01*
X79079Y80552D01*
X79091Y80535D01*
X79195Y80443D01*
X79296Y80348D01*
X79314Y80338D01*
X79329Y80325D01*
X79453Y80261D01*
X79575Y80194D01*
X79594Y80189D01*
X79612Y80180D01*
X79748Y80150D01*
X79883Y80115D01*
X79911Y80113D01*
X79923Y80110D01*
X79943Y80111D01*
X80043Y80105D01*
X84554Y80105D01*
X86935Y77724D01*
X86935Y54356D01*
X84554Y51975D01*
X26186Y51975D01*
X23805Y54356D01*
X23805Y77724D01*
X26186Y80105D01*
X61365Y80105D01*
X61463Y80117D01*
X61562Y80120D01*
X61620Y80137D01*
X61680Y80145D01*
X61772Y80181D01*
X61867Y80209D01*
X61919Y80239D01*
X61976Y80262D01*
X62056Y80320D01*
X62141Y80370D01*
X62217Y80436D01*
X62233Y80448D01*
X62241Y80458D01*
X62262Y80476D01*
X96290Y114505D01*
X98251Y115317D01*
X158809Y115317D01*
X158907Y115329D01*
X159006Y115332D01*
X159064Y115349D01*
X159124Y115357D01*
X159216Y115393D01*
X159311Y115421D01*
X159363Y115451D01*
X159420Y115474D01*
X159500Y115532D01*
X159585Y115582D01*
X159661Y115648D01*
X159677Y115660D01*
X159685Y115670D01*
X159706Y115688D01*
X177150Y133133D01*
X177223Y133227D01*
X177302Y133316D01*
X177320Y133352D01*
X177345Y133384D01*
X177392Y133493D01*
X177446Y133599D01*
X177455Y133638D01*
X177471Y133676D01*
X177490Y133793D01*
X177516Y133909D01*
X177515Y133950D01*
X177521Y133990D01*
X177510Y134108D01*
X177506Y134227D01*
X177495Y134266D01*
X177491Y134306D01*
X177451Y134419D01*
X177418Y134533D01*
X177398Y134568D01*
X177384Y134606D01*
X177317Y134704D01*
X177257Y134807D01*
X177217Y134852D01*
X177205Y134869D01*
X177190Y134882D01*
X177150Y134928D01*
X175222Y136856D01*
X175133Y136925D01*
X175050Y137000D01*
X175008Y137022D01*
X174971Y137050D01*
X174868Y137095D01*
X174768Y137147D01*
X174722Y137158D01*
X174679Y137177D01*
X174568Y137194D01*
X174458Y137220D01*
X174412Y137219D01*
X174365Y137227D01*
X174253Y137216D01*
X174141Y137214D01*
X174095Y137201D01*
X174048Y137197D01*
X173942Y137159D01*
X173834Y137129D01*
X173769Y137097D01*
X173749Y137089D01*
X173734Y137079D01*
X173690Y137057D01*
X173495Y136944D01*
X172848Y136771D01*
X168553Y136771D01*
X168553Y145542D01*
X168538Y145660D01*
X168531Y145779D01*
X168518Y145817D01*
X168513Y145857D01*
X168469Y145968D01*
X168433Y146081D01*
X168411Y146116D01*
X168396Y146153D01*
X168326Y146249D01*
X168263Y146350D01*
X168233Y146378D01*
X168209Y146410D01*
X168118Y146486D01*
X168031Y146568D01*
X167996Y146587D01*
X167964Y146613D01*
X167857Y146664D01*
X167753Y146721D01*
X167713Y146732D01*
X167677Y146749D01*
X167560Y146771D01*
X167445Y146801D01*
X167384Y146805D01*
X167364Y146809D01*
X167344Y146807D01*
X167284Y146811D01*
X166013Y146811D01*
X166013Y146813D01*
X167284Y146813D01*
X167402Y146828D01*
X167521Y146835D01*
X167559Y146848D01*
X167599Y146853D01*
X167710Y146897D01*
X167823Y146933D01*
X167858Y146955D01*
X167895Y146970D01*
X167991Y147040D01*
X168092Y147103D01*
X168120Y147133D01*
X168152Y147157D01*
X168228Y147248D01*
X168310Y147335D01*
X168329Y147370D01*
X168355Y147402D01*
X168406Y147509D01*
X168463Y147613D01*
X168474Y147653D01*
X168491Y147689D01*
X168513Y147806D01*
X168543Y147921D01*
X168547Y147982D01*
X168551Y148002D01*
X168549Y148022D01*
X168553Y148082D01*
X168553Y156853D01*
X172848Y156853D01*
X173495Y156680D01*
X173690Y156567D01*
X173793Y156523D01*
X173894Y156472D01*
X173940Y156462D01*
X173983Y156444D01*
X174094Y156427D01*
X174204Y156402D01*
X174251Y156404D01*
X174298Y156397D01*
X174409Y156409D01*
X174522Y156412D01*
X174567Y156425D01*
X174614Y156430D01*
X174719Y156469D01*
X174827Y156501D01*
X174868Y156524D01*
X174912Y156541D01*
X175005Y156605D01*
X175101Y156662D01*
X175155Y156710D01*
X175173Y156722D01*
X175185Y156736D01*
X175222Y156768D01*
X176830Y158377D01*
X193198Y158377D01*
X195579Y155996D01*
X195579Y153416D01*
X195594Y153298D01*
X195601Y153179D01*
X195614Y153141D01*
X195619Y153100D01*
X195662Y152990D01*
X195699Y152877D01*
X195721Y152842D01*
X195736Y152805D01*
X195805Y152709D01*
X195869Y152608D01*
X195899Y152580D01*
X195922Y152547D01*
X196014Y152471D01*
X196101Y152390D01*
X196136Y152370D01*
X196167Y152345D01*
X196275Y152294D01*
X196379Y152236D01*
X196419Y152226D01*
X196455Y152209D01*
X196572Y152187D01*
X196687Y152157D01*
X196747Y152153D01*
X196767Y152149D01*
X196788Y152151D01*
X196848Y152147D01*
X207248Y152147D01*
X207366Y152162D01*
X207485Y152169D01*
X207523Y152182D01*
X207564Y152187D01*
X207674Y152230D01*
X207787Y152267D01*
X207822Y152289D01*
X207859Y152304D01*
X207955Y152373D01*
X208056Y152437D01*
X208084Y152467D01*
X208117Y152490D01*
X208193Y152582D01*
X208274Y152669D01*
X208294Y152704D01*
X208319Y152735D01*
X208370Y152843D01*
X208428Y152947D01*
X208438Y152987D01*
X208455Y153023D01*
X208477Y153140D01*
X208507Y153255D01*
X208511Y153315D01*
X208515Y153335D01*
X208513Y153356D01*
X208517Y153416D01*
X208517Y159312D01*
X209670Y160464D01*
X209730Y160542D01*
X209798Y160614D01*
X209827Y160667D01*
X209864Y160715D01*
X209904Y160806D01*
X209952Y160893D01*
X209967Y160951D01*
X209991Y161007D01*
X210006Y161105D01*
X210031Y161201D01*
X210037Y161301D01*
X210041Y161321D01*
X210039Y161333D01*
X210041Y161361D01*
X210041Y161504D01*
X210184Y161504D01*
X210282Y161516D01*
X210381Y161519D01*
X210439Y161536D01*
X210499Y161544D01*
X210591Y161580D01*
X210686Y161608D01*
X210738Y161638D01*
X210795Y161661D01*
X210875Y161719D01*
X210960Y161769D01*
X211036Y161835D01*
X211052Y161847D01*
X211060Y161857D01*
X211081Y161875D01*
X211186Y161981D01*
X211259Y162075D01*
X211338Y162164D01*
X211356Y162200D01*
X211381Y162232D01*
X211428Y162341D01*
X211483Y162447D01*
X211491Y162487D01*
X211507Y162524D01*
X211526Y162641D01*
X211552Y162758D01*
X211551Y162798D01*
X211557Y162838D01*
X211546Y162956D01*
X211542Y163075D01*
X211531Y163114D01*
X211527Y163154D01*
X211487Y163266D01*
X211454Y163381D01*
X211433Y163416D01*
X211420Y163454D01*
X211353Y163552D01*
X211292Y163655D01*
X211253Y163700D01*
X211241Y163717D01*
X211226Y163730D01*
X211186Y163776D01*
X211081Y163881D01*
X211003Y163941D01*
X210931Y164009D01*
X210878Y164038D01*
X210830Y164076D01*
X210739Y164115D01*
X210652Y164163D01*
X210594Y164178D01*
X210538Y164202D01*
X210440Y164217D01*
X210344Y164242D01*
X210244Y164248D01*
X210224Y164252D01*
X210211Y164250D01*
X210184Y164252D01*
X209938Y164252D01*
X209921Y164305D01*
X209899Y164340D01*
X209884Y164377D01*
X209815Y164473D01*
X209751Y164574D01*
X209721Y164602D01*
X209698Y164635D01*
X209606Y164711D01*
X209519Y164792D01*
X209484Y164812D01*
X209453Y164837D01*
X209345Y164888D01*
X209241Y164946D01*
X209201Y164956D01*
X209165Y164973D01*
X209048Y164995D01*
X208933Y165025D01*
X208873Y165029D01*
X208853Y165033D01*
X208832Y165031D01*
X208772Y165035D01*
X148762Y165035D01*
X146614Y165925D01*
X144792Y167747D01*
X82280Y230260D01*
X82201Y230320D01*
X82129Y230388D01*
X82076Y230417D01*
X82028Y230454D01*
X81937Y230494D01*
X81851Y230542D01*
X81792Y230557D01*
X81737Y230581D01*
X81639Y230596D01*
X81543Y230621D01*
X81443Y230627D01*
X81422Y230631D01*
X81410Y230629D01*
X81382Y230631D01*
X78772Y230631D01*
X78674Y230619D01*
X78575Y230616D01*
X78516Y230599D01*
X78456Y230591D01*
X78364Y230555D01*
X78269Y230527D01*
X78217Y230497D01*
X78161Y230474D01*
X78080Y230416D01*
X77995Y230366D01*
X77920Y230300D01*
X77903Y230288D01*
X77895Y230278D01*
X77874Y230260D01*
X74437Y226822D01*
X70142Y225043D01*
X50254Y225043D01*
X45959Y226822D01*
X42672Y230109D01*
X40893Y234404D01*
X40893Y239052D01*
X42672Y243347D01*
X45959Y246634D01*
X50254Y248413D01*
X70142Y248413D01*
X74437Y246634D01*
X77874Y243196D01*
X77953Y243136D01*
X78025Y243068D01*
X78078Y243039D01*
X78126Y243002D01*
X78216Y242962D01*
X78303Y242914D01*
X78362Y242899D01*
X78417Y242875D01*
X78515Y242860D01*
X78611Y242835D01*
X78711Y242829D01*
X78731Y242825D01*
X78744Y242827D01*
X78772Y242825D01*
X81023Y242825D01*
X81121Y242837D01*
X81220Y242840D01*
X81278Y242857D01*
X81338Y242865D01*
X81431Y242901D01*
X81526Y242929D01*
X81578Y242959D01*
X81634Y242982D01*
X81714Y243040D01*
X81800Y243090D01*
X81875Y243156D01*
X81891Y243168D01*
X81899Y243178D01*
X81920Y243196D01*
X121260Y282537D01*
X123501Y283465D01*
X129816Y283465D01*
X129934Y283480D01*
X130053Y283487D01*
X130091Y283500D01*
X130132Y283505D01*
X130242Y283548D01*
X130355Y283585D01*
X130390Y283607D01*
X130427Y283622D01*
X130523Y283691D01*
X130624Y283755D01*
X130652Y283785D01*
X130685Y283808D01*
X130761Y283900D01*
X130842Y283987D01*
X130862Y284022D01*
X130887Y284053D01*
X130938Y284161D01*
X130996Y284265D01*
X131006Y284305D01*
X131023Y284341D01*
X131045Y284458D01*
X131075Y284573D01*
X131079Y284633D01*
X131083Y284653D01*
X131081Y284674D01*
X131085Y284734D01*
X131085Y285052D01*
X133466Y287433D01*
X158834Y287433D01*
X161215Y285052D01*
X161215Y269684D01*
X158834Y267303D01*
X133466Y267303D01*
X131085Y269684D01*
X131085Y270002D01*
X131070Y270120D01*
X131063Y270239D01*
X131050Y270277D01*
X131045Y270318D01*
X131002Y270428D01*
X130965Y270541D01*
X130943Y270576D01*
X130928Y270613D01*
X130859Y270709D01*
X130795Y270810D01*
X130765Y270838D01*
X130742Y270871D01*
X130650Y270947D01*
X130563Y271028D01*
X130528Y271048D01*
X130497Y271073D01*
X130389Y271124D01*
X130285Y271182D01*
X130245Y271192D01*
X130209Y271209D01*
X130092Y271231D01*
X129977Y271261D01*
X129917Y271265D01*
X129897Y271269D01*
X129876Y271267D01*
X129816Y271271D01*
X127765Y271271D01*
X127667Y271259D01*
X127568Y271256D01*
X127510Y271239D01*
X127450Y271231D01*
X127357Y271195D01*
X127262Y271167D01*
X127210Y271137D01*
X127154Y271114D01*
X127074Y271056D01*
X126988Y271006D01*
X126913Y270940D01*
X126897Y270928D01*
X126889Y270918D01*
X126868Y270900D01*
X93414Y237446D01*
X93341Y237352D01*
X93262Y237263D01*
X93244Y237227D01*
X93219Y237195D01*
X93172Y237085D01*
X93118Y236979D01*
X93109Y236940D01*
X93093Y236903D01*
X93074Y236785D01*
X93048Y236669D01*
X93049Y236629D01*
X93043Y236589D01*
X93054Y236470D01*
X93058Y236351D01*
X93069Y236312D01*
X93073Y236272D01*
X93113Y236160D01*
X93146Y236046D01*
X93167Y236011D01*
X93180Y235973D01*
X93247Y235874D01*
X93308Y235772D01*
X93347Y235726D01*
X93359Y235710D01*
X93374Y235696D01*
X93414Y235651D01*
X151972Y177092D01*
X152051Y177032D01*
X152123Y176964D01*
X152176Y176935D01*
X152224Y176898D01*
X152315Y176858D01*
X152401Y176810D01*
X152460Y176795D01*
X152515Y176771D01*
X152613Y176756D01*
X152709Y176731D01*
X152809Y176725D01*
X152830Y176721D01*
X152842Y176723D01*
X152870Y176721D01*
X207248Y176721D01*
X207366Y176736D01*
X207485Y176743D01*
X207523Y176756D01*
X207564Y176761D01*
X207674Y176804D01*
X207787Y176841D01*
X207822Y176863D01*
X207859Y176878D01*
X207955Y176947D01*
X208056Y177011D01*
X208084Y177041D01*
X208117Y177064D01*
X208193Y177156D01*
X208274Y177243D01*
X208294Y177278D01*
X208319Y177309D01*
X208370Y177417D01*
X208428Y177521D01*
X208438Y177561D01*
X208455Y177597D01*
X208477Y177714D01*
X208507Y177829D01*
X208511Y177889D01*
X208515Y177909D01*
X208513Y177930D01*
X208517Y177990D01*
X208517Y188274D01*
X208502Y188392D01*
X208495Y188511D01*
X208482Y188549D01*
X208477Y188590D01*
X208434Y188700D01*
X208397Y188813D01*
X208375Y188848D01*
X208360Y188885D01*
X208291Y188981D01*
X208227Y189082D01*
X208197Y189110D01*
X208174Y189143D01*
X208082Y189219D01*
X207995Y189300D01*
X207960Y189320D01*
X207929Y189345D01*
X207821Y189396D01*
X207717Y189454D01*
X207677Y189464D01*
X207641Y189481D01*
X207524Y189503D01*
X207409Y189533D01*
X207349Y189537D01*
X207329Y189541D01*
X207308Y189539D01*
X207248Y189543D01*
X202819Y189543D01*
X202701Y189528D01*
X202582Y189521D01*
X202544Y189508D01*
X202503Y189503D01*
X202393Y189460D01*
X202280Y189423D01*
X202245Y189401D01*
X202208Y189386D01*
X202112Y189317D01*
X202011Y189253D01*
X201983Y189223D01*
X201950Y189200D01*
X201874Y189108D01*
X201793Y189021D01*
X201773Y188986D01*
X201748Y188955D01*
X201697Y188847D01*
X201639Y188743D01*
X201629Y188703D01*
X201612Y188667D01*
X201590Y188550D01*
X201560Y188435D01*
X201556Y188375D01*
X201552Y188355D01*
X201554Y188334D01*
X201550Y188274D01*
X201550Y187993D01*
X200409Y185239D01*
X198301Y183131D01*
X195547Y181990D01*
X192565Y181990D01*
X189811Y183131D01*
X187703Y185239D01*
X186562Y187993D01*
X186562Y190975D01*
X187703Y193729D01*
X189811Y195837D01*
X192565Y196978D01*
X193480Y196978D01*
X193578Y196990D01*
X193677Y196993D01*
X193735Y197010D01*
X193795Y197018D01*
X193887Y197054D01*
X193982Y197082D01*
X194034Y197112D01*
X194091Y197135D01*
X194171Y197193D01*
X194256Y197243D01*
X194332Y197309D01*
X194348Y197321D01*
X194356Y197331D01*
X194377Y197349D01*
X196428Y199401D01*
X198389Y200213D01*
X208893Y200213D01*
X208991Y200225D01*
X209090Y200228D01*
X209148Y200245D01*
X209208Y200253D01*
X209300Y200289D01*
X209395Y200317D01*
X209448Y200347D01*
X209504Y200370D01*
X209584Y200428D01*
X209669Y200478D01*
X209745Y200544D01*
X209761Y200556D01*
X209769Y200566D01*
X209790Y200584D01*
X210898Y201693D01*
X226298Y201693D01*
X226416Y201708D01*
X226535Y201715D01*
X226573Y201728D01*
X226614Y201733D01*
X226724Y201776D01*
X226837Y201813D01*
X226872Y201835D01*
X226909Y201850D01*
X227005Y201919D01*
X227106Y201983D01*
X227134Y202013D01*
X227167Y202036D01*
X227243Y202128D01*
X227324Y202215D01*
X227344Y202250D01*
X227369Y202281D01*
X227420Y202389D01*
X227478Y202493D01*
X227488Y202533D01*
X227505Y202569D01*
X227527Y202686D01*
X227557Y202801D01*
X227561Y202861D01*
X227565Y202881D01*
X227563Y202902D01*
X227567Y202962D01*
X227567Y218362D01*
X228025Y218819D01*
X228098Y218913D01*
X228177Y219003D01*
X228195Y219039D01*
X228220Y219071D01*
X228267Y219180D01*
X228321Y219286D01*
X228330Y219325D01*
X228346Y219363D01*
X228365Y219480D01*
X228391Y219596D01*
X228390Y219637D01*
X228396Y219677D01*
X228385Y219795D01*
X228381Y219914D01*
X228370Y219953D01*
X228366Y219993D01*
X228326Y220105D01*
X228293Y220220D01*
X228273Y220255D01*
X228259Y220293D01*
X228192Y220391D01*
X228131Y220494D01*
X228092Y220539D01*
X228080Y220556D01*
X228065Y220569D01*
X228025Y220614D01*
X223587Y225053D01*
X223509Y225113D01*
X223437Y225181D01*
X223384Y225210D01*
X223336Y225247D01*
X223245Y225287D01*
X223158Y225335D01*
X223100Y225350D01*
X223044Y225374D01*
X222946Y225389D01*
X222850Y225414D01*
X222750Y225420D01*
X222730Y225424D01*
X222718Y225422D01*
X222690Y225424D01*
X221775Y225424D01*
X219021Y226565D01*
X216913Y228673D01*
X215772Y231427D01*
X215772Y234409D01*
X216913Y237163D01*
X219021Y239271D01*
X221775Y240412D01*
X224757Y240412D01*
X227511Y239271D01*
X229619Y237163D01*
X230760Y234409D01*
X230760Y233494D01*
X230772Y233396D01*
X230775Y233297D01*
X230792Y233239D01*
X230800Y233179D01*
X230836Y233087D01*
X230864Y232992D01*
X230894Y232940D01*
X230917Y232883D01*
X230975Y232803D01*
X231025Y232718D01*
X231091Y232642D01*
X231103Y232626D01*
X231113Y232618D01*
X231131Y232597D01*
X238905Y224824D01*
X239717Y222863D01*
X239717Y222012D01*
X239732Y221894D01*
X239739Y221775D01*
X239752Y221737D01*
X239757Y221696D01*
X239800Y221586D01*
X239837Y221473D01*
X239859Y221438D01*
X239874Y221401D01*
X239943Y221305D01*
X240007Y221204D01*
X240037Y221176D01*
X240060Y221143D01*
X240152Y221067D01*
X240239Y220986D01*
X240274Y220966D01*
X240305Y220941D01*
X240413Y220890D01*
X240517Y220832D01*
X240557Y220822D01*
X240593Y220805D01*
X240710Y220783D01*
X240825Y220753D01*
X240885Y220749D01*
X240905Y220745D01*
X240926Y220747D01*
X240986Y220743D01*
X251778Y220743D01*
X251896Y220758D01*
X252015Y220765D01*
X252053Y220778D01*
X252094Y220783D01*
X252204Y220826D01*
X252317Y220863D01*
X252352Y220885D01*
X252389Y220900D01*
X252485Y220969D01*
X252586Y221033D01*
X252614Y221063D01*
X252647Y221086D01*
X252723Y221178D01*
X252804Y221265D01*
X252824Y221300D01*
X252849Y221331D01*
X252900Y221439D01*
X252958Y221543D01*
X252968Y221583D01*
X252985Y221619D01*
X253007Y221736D01*
X253037Y221851D01*
X253041Y221911D01*
X253045Y221931D01*
X253043Y221952D01*
X253047Y222012D01*
X253047Y222377D01*
X253032Y222495D01*
X253025Y222614D01*
X253012Y222652D01*
X253007Y222693D01*
X252964Y222803D01*
X252927Y222916D01*
X252905Y222951D01*
X252890Y222988D01*
X252821Y223084D01*
X252757Y223185D01*
X252727Y223213D01*
X252704Y223246D01*
X252612Y223322D01*
X252525Y223403D01*
X252490Y223423D01*
X252459Y223448D01*
X252351Y223499D01*
X252247Y223557D01*
X252207Y223567D01*
X252171Y223584D01*
X252054Y223606D01*
X251939Y223636D01*
X251879Y223640D01*
X251859Y223644D01*
X251838Y223642D01*
X251778Y223646D01*
X249461Y223646D01*
X246707Y224787D01*
X244599Y226895D01*
X243458Y229649D01*
X243458Y232631D01*
X244599Y235385D01*
X246707Y237493D01*
X249461Y238634D01*
X252443Y238634D01*
X255197Y237493D01*
X255843Y236846D01*
X255922Y236786D01*
X255994Y236718D01*
X256047Y236689D01*
X256095Y236652D01*
X256185Y236612D01*
X256272Y236564D01*
X256331Y236549D01*
X256386Y236525D01*
X256484Y236510D01*
X256580Y236485D01*
X256680Y236479D01*
X256700Y236475D01*
X256713Y236477D01*
X256741Y236475D01*
X256839Y236475D01*
X258511Y235782D01*
X258645Y235745D01*
X258778Y235705D01*
X258798Y235704D01*
X258818Y235698D01*
X258957Y235696D01*
X259096Y235689D01*
X259115Y235693D01*
X259136Y235693D01*
X259272Y235726D01*
X259407Y235754D01*
X259425Y235763D01*
X259445Y235767D01*
X259568Y235832D01*
X259693Y235893D01*
X259708Y235907D01*
X259726Y235916D01*
X259829Y236010D01*
X259935Y236100D01*
X259947Y236116D01*
X259962Y236130D01*
X260038Y236246D01*
X260118Y236360D01*
X260125Y236379D01*
X260136Y236396D01*
X260181Y236527D01*
X260231Y236657D01*
X260233Y236677D01*
X260240Y236696D01*
X260251Y236835D01*
X260266Y236973D01*
X260263Y236993D01*
X260265Y237013D01*
X260241Y237151D01*
X260222Y237288D01*
X260212Y237315D01*
X260210Y237327D01*
X260202Y237345D01*
X260169Y237441D01*
X259714Y238539D01*
X259714Y241521D01*
X260053Y242338D01*
X260066Y242386D01*
X260087Y242431D01*
X260108Y242539D01*
X260137Y242645D01*
X260138Y242695D01*
X260147Y242744D01*
X260140Y242853D01*
X260142Y242963D01*
X260130Y243011D01*
X260127Y243061D01*
X260093Y243165D01*
X260068Y243272D01*
X260045Y243316D01*
X260029Y243363D01*
X259970Y243456D01*
X259919Y243553D01*
X259886Y243590D01*
X259859Y243632D01*
X259779Y243707D01*
X259705Y243789D01*
X259664Y243816D01*
X259627Y243850D01*
X259531Y243903D01*
X259440Y243963D01*
X259393Y243980D01*
X259349Y244004D01*
X259243Y244031D01*
X259139Y244067D01*
X259089Y244071D01*
X259041Y244083D01*
X258880Y244093D01*
X225507Y244093D01*
X223546Y244905D01*
X171390Y297062D01*
X171312Y297122D01*
X171240Y297190D01*
X171187Y297219D01*
X171139Y297256D01*
X171048Y297296D01*
X170961Y297344D01*
X170903Y297359D01*
X170847Y297383D01*
X170749Y297398D01*
X170653Y297423D01*
X170553Y297429D01*
X170533Y297433D01*
X170521Y297431D01*
X170493Y297433D01*
X162484Y297433D01*
X162366Y297418D01*
X162247Y297411D01*
X162209Y297398D01*
X162168Y297393D01*
X162058Y297350D01*
X161945Y297313D01*
X161910Y297291D01*
X161873Y297276D01*
X161777Y297207D01*
X161676Y297143D01*
X161648Y297113D01*
X161615Y297090D01*
X161539Y296998D01*
X161458Y296911D01*
X161438Y296876D01*
X161413Y296845D01*
X161362Y296737D01*
X161304Y296633D01*
X161294Y296593D01*
X161277Y296557D01*
X161255Y296440D01*
X161225Y296325D01*
X161221Y296265D01*
X161217Y296245D01*
X161219Y296224D01*
X161215Y296164D01*
X161215Y295084D01*
X158834Y292703D01*
X133466Y292703D01*
X131085Y295084D01*
X131085Y310452D01*
X133466Y312833D01*
X158834Y312833D01*
X161215Y310452D01*
X161215Y309372D01*
X161230Y309254D01*
X161237Y309135D01*
X161250Y309097D01*
X161255Y309056D01*
X161298Y308946D01*
X161335Y308833D01*
X161357Y308798D01*
X161372Y308761D01*
X161441Y308665D01*
X161505Y308564D01*
X161535Y308536D01*
X161558Y308503D01*
X161650Y308427D01*
X161737Y308346D01*
X161772Y308326D01*
X161803Y308301D01*
X161911Y308250D01*
X162015Y308192D01*
X162055Y308182D01*
X162091Y308165D01*
X162208Y308143D01*
X162323Y308113D01*
X162383Y308109D01*
X162403Y308105D01*
X162424Y308107D01*
X162484Y308103D01*
X174289Y308103D01*
X176250Y307291D01*
X228406Y255134D01*
X228484Y255074D01*
X228556Y255006D01*
X228609Y254977D01*
X228657Y254940D01*
X228748Y254900D01*
X228835Y254852D01*
X228893Y254837D01*
X228949Y254813D01*
X229047Y254798D01*
X229143Y254773D01*
X229243Y254767D01*
X229263Y254763D01*
X229275Y254765D01*
X229303Y254763D01*
X300273Y254763D01*
X302234Y253951D01*
X350471Y205714D01*
X351283Y203753D01*
X351283Y193503D01*
X350471Y191542D01*
X341284Y182355D01*
X339323Y181543D01*
X317516Y181543D01*
X317398Y181528D01*
X317279Y181521D01*
X317241Y181508D01*
X317200Y181503D01*
X317090Y181460D01*
X316977Y181423D01*
X316942Y181401D01*
X316905Y181386D01*
X316809Y181317D01*
X316708Y181253D01*
X316680Y181223D01*
X316647Y181200D01*
X316571Y181108D01*
X316490Y181021D01*
X316470Y180986D01*
X316445Y180955D01*
X316394Y180847D01*
X316336Y180743D01*
X316326Y180703D01*
X316309Y180667D01*
X316287Y180550D01*
X316257Y180435D01*
X316253Y180375D01*
X316249Y180355D01*
X316251Y180334D01*
X316250Y180319D01*
X316249Y180318D01*
X316249Y180316D01*
X316247Y180274D01*
X316247Y174444D01*
X315094Y173292D01*
X315034Y173214D01*
X314966Y173142D01*
X314937Y173089D01*
X314900Y173041D01*
X314860Y172950D01*
X314812Y172863D01*
X314797Y172805D01*
X314773Y172749D01*
X314758Y172651D01*
X314733Y172555D01*
X314727Y172455D01*
X314723Y172435D01*
X314725Y172423D01*
X314723Y172395D01*
X314723Y172252D01*
X314580Y172252D01*
X314482Y172240D01*
X314383Y172237D01*
X314325Y172220D01*
X314265Y172212D01*
X314173Y172176D01*
X314078Y172148D01*
X314025Y172118D01*
X313969Y172095D01*
X313889Y172037D01*
X313804Y171987D01*
X313728Y171921D01*
X313712Y171909D01*
X313704Y171899D01*
X313683Y171881D01*
X313578Y171776D01*
X313505Y171681D01*
X313426Y171592D01*
X313408Y171556D01*
X313383Y171524D01*
X313336Y171415D01*
X313282Y171309D01*
X313273Y171270D01*
X313257Y171232D01*
X313238Y171115D01*
X313212Y170999D01*
X313213Y170958D01*
X313207Y170918D01*
X313218Y170800D01*
X313222Y170681D01*
X313233Y170642D01*
X313237Y170602D01*
X313277Y170489D01*
X313310Y170375D01*
X313330Y170341D01*
X313344Y170302D01*
X313411Y170204D01*
X313471Y170101D01*
X313511Y170056D01*
X313523Y170039D01*
X313538Y170026D01*
X313578Y169981D01*
X313683Y169875D01*
X313761Y169815D01*
X313833Y169747D01*
X313886Y169718D01*
X313934Y169681D01*
X314025Y169641D01*
X314112Y169593D01*
X314170Y169578D01*
X314226Y169554D01*
X314324Y169539D01*
X314420Y169514D01*
X314520Y169508D01*
X314540Y169504D01*
X314552Y169505D01*
X314580Y169504D01*
X314826Y169504D01*
X314843Y169451D01*
X314865Y169416D01*
X314880Y169379D01*
X314949Y169283D01*
X315013Y169182D01*
X315043Y169154D01*
X315066Y169121D01*
X315158Y169045D01*
X315245Y168964D01*
X315280Y168944D01*
X315311Y168919D01*
X315419Y168868D01*
X315523Y168810D01*
X315563Y168800D01*
X315599Y168783D01*
X315716Y168761D01*
X315831Y168731D01*
X315891Y168727D01*
X315911Y168723D01*
X315932Y168725D01*
X315992Y168721D01*
X324487Y168721D01*
X324605Y168736D01*
X324724Y168743D01*
X324762Y168756D01*
X324803Y168761D01*
X324913Y168804D01*
X325026Y168841D01*
X325061Y168863D01*
X325098Y168878D01*
X325194Y168947D01*
X325295Y169011D01*
X325323Y169041D01*
X325356Y169064D01*
X325432Y169156D01*
X325513Y169243D01*
X325533Y169278D01*
X325558Y169309D01*
X325609Y169417D01*
X325667Y169521D01*
X325677Y169561D01*
X325694Y169597D01*
X325716Y169714D01*
X325746Y169829D01*
X325750Y169889D01*
X325754Y169909D01*
X325752Y169930D01*
X325756Y169990D01*
X325756Y172125D01*
X328137Y174506D01*
X344505Y174506D01*
X346113Y172898D01*
X346202Y172829D01*
X346285Y172753D01*
X346327Y172732D01*
X346364Y172703D01*
X346467Y172658D01*
X346567Y172606D01*
X346613Y172595D01*
X346656Y172576D01*
X346767Y172559D01*
X346876Y172533D01*
X346923Y172534D01*
X346970Y172526D01*
X347082Y172537D01*
X347194Y172539D01*
X347240Y172552D01*
X347287Y172556D01*
X347393Y172594D01*
X347501Y172624D01*
X347566Y172656D01*
X347586Y172664D01*
X347601Y172674D01*
X347645Y172696D01*
X347840Y172809D01*
X348487Y172982D01*
X352782Y172982D01*
X352782Y164211D01*
X352797Y164093D01*
X352804Y163974D01*
X352817Y163936D01*
X352822Y163896D01*
X352865Y163785D01*
X352902Y163672D01*
X352924Y163637D01*
X352939Y163600D01*
X353009Y163504D01*
X353072Y163403D01*
X353102Y163375D01*
X353126Y163343D01*
X353217Y163267D01*
X353304Y163185D01*
X353339Y163166D01*
X353370Y163140D01*
X353478Y163089D01*
X353582Y163032D01*
X353622Y163021D01*
X353658Y163004D01*
X353775Y162982D01*
X353890Y162952D01*
X353951Y162948D01*
X353971Y162944D01*
X353991Y162946D01*
X354051Y162942D01*
X355322Y162942D01*
X355322Y162940D01*
X354051Y162940D01*
X353933Y162925D01*
X353814Y162918D01*
X353776Y162905D01*
X353736Y162900D01*
X353625Y162856D01*
X353512Y162820D01*
X353477Y162798D01*
X353440Y162783D01*
X353344Y162713D01*
X353243Y162650D01*
X353215Y162620D01*
X353182Y162596D01*
X353107Y162505D01*
X353025Y162418D01*
X353005Y162383D01*
X352980Y162351D01*
X352929Y162244D01*
X352871Y162140D01*
X352861Y162100D01*
X352844Y162064D01*
X352822Y161947D01*
X352792Y161832D01*
X352788Y161771D01*
X352784Y161751D01*
X352786Y161731D01*
X352782Y161671D01*
X352782Y152900D01*
X348487Y152900D01*
X347840Y153073D01*
X347645Y153186D01*
X347541Y153230D01*
X347441Y153281D01*
X347395Y153291D01*
X347352Y153309D01*
X347241Y153326D01*
X347131Y153350D01*
X347084Y153349D01*
X347037Y153356D01*
X346926Y153344D01*
X346813Y153341D01*
X346768Y153328D01*
X346721Y153323D01*
X346616Y153284D01*
X346508Y153252D01*
X346467Y153229D01*
X346423Y153212D01*
X346330Y153148D01*
X346234Y153091D01*
X346179Y153043D01*
X346162Y153031D01*
X346150Y153017D01*
X346113Y152984D01*
X344505Y151376D01*
X328137Y151376D01*
X325756Y153757D01*
X325756Y155766D01*
X325741Y155884D01*
X325734Y156003D01*
X325721Y156041D01*
X325716Y156082D01*
X325673Y156192D01*
X325636Y156305D01*
X325614Y156340D01*
X325599Y156377D01*
X325530Y156473D01*
X325466Y156574D01*
X325436Y156602D01*
X325413Y156635D01*
X325321Y156711D01*
X325234Y156792D01*
X325199Y156812D01*
X325168Y156837D01*
X325060Y156888D01*
X324956Y156946D01*
X324916Y156956D01*
X324880Y156973D01*
X324763Y156995D01*
X324648Y157025D01*
X324588Y157029D01*
X324568Y157033D01*
X324547Y157031D01*
X324487Y157035D01*
X317516Y157035D01*
X317398Y157020D01*
X317279Y157013D01*
X317241Y157000D01*
X317200Y156995D01*
X317090Y156952D01*
X316977Y156915D01*
X316942Y156893D01*
X316905Y156878D01*
X316809Y156809D01*
X316708Y156745D01*
X316680Y156715D01*
X316647Y156692D01*
X316571Y156600D01*
X316490Y156513D01*
X316470Y156478D01*
X316445Y156447D01*
X316394Y156339D01*
X316336Y156235D01*
X316326Y156195D01*
X316309Y156159D01*
X316287Y156042D01*
X316257Y155927D01*
X316253Y155867D01*
X316249Y155847D01*
X316251Y155826D01*
X316247Y155766D01*
X316247Y153482D01*
X316262Y153364D01*
X316269Y153245D01*
X316282Y153207D01*
X316287Y153166D01*
X316330Y153056D01*
X316367Y152943D01*
X316389Y152908D01*
X316404Y152871D01*
X316473Y152775D01*
X316537Y152674D01*
X316567Y152646D01*
X316590Y152613D01*
X316682Y152537D01*
X316769Y152456D01*
X316804Y152436D01*
X316835Y152411D01*
X316943Y152360D01*
X317047Y152302D01*
X317087Y152292D01*
X317123Y152275D01*
X317240Y152253D01*
X317355Y152223D01*
X317415Y152219D01*
X317435Y152215D01*
X317456Y152217D01*
X317516Y152213D01*
X321543Y152213D01*
X323504Y151401D01*
X332945Y141960D01*
X333757Y139999D01*
X333757Y123145D01*
X332945Y121184D01*
X317320Y105560D01*
X317278Y105505D01*
X317228Y105456D01*
X317181Y105380D01*
X317126Y105309D01*
X317098Y105245D01*
X317061Y105185D01*
X317035Y105100D01*
X316999Y105017D01*
X316988Y104948D01*
X316968Y104881D01*
X316963Y104792D01*
X316949Y104703D01*
X316956Y104633D01*
X316953Y104564D01*
X316971Y104476D01*
X316979Y104386D01*
X317003Y104320D01*
X317017Y104252D01*
X317056Y104172D01*
X317087Y104087D01*
X317126Y104029D01*
X317157Y103967D01*
X317215Y103898D01*
X317265Y103824D01*
X317318Y103778D01*
X317363Y103725D01*
X317436Y103673D01*
X317504Y103613D01*
X317566Y103582D01*
X317623Y103541D01*
X317707Y103510D01*
X317787Y103469D01*
X317855Y103453D01*
X317920Y103429D01*
X318010Y103419D01*
X318097Y103399D01*
X318167Y103401D01*
X318236Y103393D01*
X318325Y103406D01*
X318415Y103409D01*
X318482Y103428D01*
X318551Y103438D01*
X318704Y103490D01*
X320581Y104268D01*
X323563Y104268D01*
X326317Y103127D01*
X328425Y101019D01*
X329566Y98265D01*
X329566Y97350D01*
X329578Y97252D01*
X329581Y97153D01*
X329598Y97095D01*
X329606Y97035D01*
X329642Y96943D01*
X329670Y96848D01*
X329700Y96796D01*
X329723Y96739D01*
X329781Y96659D01*
X329831Y96574D01*
X329897Y96498D01*
X329909Y96482D01*
X329919Y96474D01*
X329937Y96453D01*
X347380Y79010D01*
X347458Y78950D01*
X347530Y78882D01*
X347583Y78853D01*
X347631Y78816D01*
X347722Y78776D01*
X347809Y78728D01*
X347867Y78713D01*
X347923Y78689D01*
X348021Y78674D01*
X348117Y78649D01*
X348217Y78643D01*
X348237Y78639D01*
X348249Y78641D01*
X348277Y78639D01*
X389764Y78639D01*
X389882Y78654D01*
X390001Y78661D01*
X390039Y78674D01*
X390080Y78679D01*
X390190Y78722D01*
X390303Y78759D01*
X390338Y78781D01*
X390375Y78796D01*
X390471Y78865D01*
X390572Y78929D01*
X390600Y78959D01*
X390633Y78982D01*
X390709Y79074D01*
X390790Y79161D01*
X390810Y79196D01*
X390835Y79227D01*
X390886Y79335D01*
X390944Y79439D01*
X390954Y79479D01*
X390971Y79515D01*
X390993Y79632D01*
X391023Y79747D01*
X391027Y79807D01*
X391031Y79827D01*
X391029Y79848D01*
X391033Y79908D01*
X391033Y81488D01*
X391452Y81907D01*
X391525Y82001D01*
X391604Y82090D01*
X391622Y82126D01*
X391647Y82158D01*
X391694Y82267D01*
X391748Y82373D01*
X391757Y82412D01*
X391773Y82450D01*
X391792Y82567D01*
X391818Y82683D01*
X391817Y82724D01*
X391823Y82764D01*
X391812Y82882D01*
X391808Y83001D01*
X391797Y83040D01*
X391793Y83080D01*
X391753Y83192D01*
X391720Y83307D01*
X391700Y83342D01*
X391686Y83380D01*
X391619Y83478D01*
X391558Y83581D01*
X391519Y83626D01*
X391507Y83643D01*
X391492Y83656D01*
X391452Y83702D01*
X391033Y84120D01*
X391033Y100488D01*
X393414Y102869D01*
X396240Y102869D01*
X396358Y102884D01*
X396477Y102891D01*
X396515Y102904D01*
X396556Y102909D01*
X396666Y102952D01*
X396779Y102989D01*
X396814Y103011D01*
X396851Y103026D01*
X396947Y103095D01*
X397048Y103159D01*
X397076Y103189D01*
X397109Y103212D01*
X397185Y103304D01*
X397266Y103391D01*
X397286Y103426D01*
X397311Y103457D01*
X397362Y103565D01*
X397420Y103669D01*
X397430Y103709D01*
X397447Y103745D01*
X397469Y103862D01*
X397499Y103977D01*
X397503Y104037D01*
X397507Y104057D01*
X397505Y104078D01*
X397509Y104138D01*
X397509Y105420D01*
X397494Y105538D01*
X397487Y105657D01*
X397474Y105695D01*
X397469Y105736D01*
X397426Y105846D01*
X397389Y105959D01*
X397367Y105994D01*
X397352Y106031D01*
X397283Y106127D01*
X397219Y106228D01*
X397189Y106256D01*
X397166Y106289D01*
X397074Y106365D01*
X396987Y106446D01*
X396952Y106466D01*
X396921Y106491D01*
X396813Y106542D01*
X396709Y106600D01*
X396669Y106610D01*
X396633Y106627D01*
X396516Y106649D01*
X396401Y106679D01*
X396341Y106683D01*
X396321Y106687D01*
X396300Y106685D01*
X396240Y106689D01*
X395414Y106689D01*
X393033Y109070D01*
X393033Y124438D01*
X395414Y126819D01*
X396059Y126819D01*
X396211Y126838D01*
X396362Y126855D01*
X396368Y126858D01*
X396375Y126859D01*
X396516Y126915D01*
X396659Y126969D01*
X396664Y126973D01*
X396670Y126976D01*
X396794Y127065D01*
X396918Y127153D01*
X396922Y127158D01*
X396928Y127162D01*
X397025Y127280D01*
X397123Y127396D01*
X397126Y127402D01*
X397131Y127407D01*
X397195Y127544D01*
X397262Y127682D01*
X397263Y127689D01*
X397266Y127695D01*
X397294Y127843D01*
X397325Y127994D01*
X397325Y128001D01*
X397326Y128007D01*
X397316Y128158D01*
X397309Y128312D01*
X397307Y128318D01*
X397306Y128325D01*
X397259Y128470D01*
X397214Y128615D01*
X397210Y128621D01*
X397208Y128627D01*
X397126Y128756D01*
X397046Y128886D01*
X397042Y128890D01*
X397038Y128896D01*
X396927Y129001D01*
X396817Y129106D01*
X396811Y129109D01*
X396806Y129114D01*
X396672Y129188D01*
X396540Y129263D01*
X396532Y129265D01*
X396528Y129268D01*
X396517Y129270D01*
X396388Y129314D01*
X396117Y129386D01*
X395538Y129721D01*
X395065Y130194D01*
X394730Y130773D01*
X394557Y131420D01*
X394557Y135215D01*
X401828Y135215D01*
X401946Y135230D01*
X402065Y135237D01*
X402103Y135250D01*
X402143Y135255D01*
X402254Y135298D01*
X402367Y135335D01*
X402402Y135357D01*
X402439Y135372D01*
X402535Y135442D01*
X402636Y135505D01*
X402664Y135535D01*
X402696Y135559D01*
X402772Y135650D01*
X402854Y135737D01*
X402873Y135772D01*
X402899Y135803D01*
X402950Y135911D01*
X403007Y136015D01*
X403018Y136055D01*
X403035Y136091D01*
X403057Y136208D01*
X403087Y136323D01*
X403091Y136384D01*
X403095Y136404D01*
X403093Y136424D01*
X403097Y136484D01*
X403097Y137755D01*
X403099Y137755D01*
X403099Y136484D01*
X403114Y136366D01*
X403121Y136247D01*
X403134Y136209D01*
X403139Y136169D01*
X403183Y136058D01*
X403219Y135945D01*
X403241Y135910D01*
X403256Y135873D01*
X403326Y135777D01*
X403389Y135676D01*
X403419Y135648D01*
X403443Y135615D01*
X403534Y135540D01*
X403621Y135458D01*
X403656Y135438D01*
X403688Y135413D01*
X403795Y135362D01*
X403899Y135304D01*
X403939Y135294D01*
X403975Y135277D01*
X404092Y135255D01*
X404207Y135225D01*
X404268Y135221D01*
X404288Y135217D01*
X404308Y135219D01*
X404368Y135215D01*
X411639Y135215D01*
X411639Y131420D01*
X411466Y130773D01*
X411131Y130194D01*
X410658Y129721D01*
X410079Y129386D01*
X409808Y129314D01*
X409667Y129256D01*
X409526Y129200D01*
X409520Y129196D01*
X409514Y129194D01*
X409392Y129103D01*
X409268Y129014D01*
X409264Y129008D01*
X409259Y129004D01*
X409164Y128887D01*
X409065Y128769D01*
X409063Y128762D01*
X409058Y128757D01*
X408995Y128618D01*
X408930Y128481D01*
X408929Y128474D01*
X408926Y128468D01*
X408899Y128317D01*
X408870Y128168D01*
X408871Y128162D01*
X408869Y128155D01*
X408880Y128003D01*
X408890Y127851D01*
X408892Y127845D01*
X408892Y127838D01*
X408941Y127692D01*
X408988Y127549D01*
X408991Y127543D01*
X408994Y127536D01*
X409077Y127407D01*
X409158Y127280D01*
X409163Y127275D01*
X409167Y127270D01*
X409278Y127167D01*
X409390Y127062D01*
X409396Y127059D01*
X409401Y127054D01*
X409535Y126982D01*
X409668Y126908D01*
X409675Y126907D01*
X409681Y126904D01*
X409829Y126867D01*
X409976Y126829D01*
X409985Y126828D01*
X409989Y126827D01*
X410000Y126827D01*
X410137Y126819D01*
X410782Y126819D01*
X413163Y124438D01*
X413163Y109070D01*
X410782Y106689D01*
X409956Y106689D01*
X409838Y106674D01*
X409719Y106667D01*
X409681Y106654D01*
X409640Y106649D01*
X409530Y106606D01*
X409417Y106569D01*
X409382Y106547D01*
X409345Y106532D01*
X409249Y106463D01*
X409148Y106399D01*
X409120Y106369D01*
X409087Y106346D01*
X409011Y106254D01*
X408930Y106167D01*
X408910Y106132D01*
X408885Y106101D01*
X408834Y105993D01*
X408776Y105889D01*
X408766Y105849D01*
X408749Y105813D01*
X408727Y105696D01*
X408697Y105581D01*
X408693Y105521D01*
X408689Y105501D01*
X408691Y105480D01*
X408687Y105420D01*
X408687Y104138D01*
X408702Y104020D01*
X408709Y103901D01*
X408722Y103863D01*
X408727Y103822D01*
X408770Y103712D01*
X408807Y103599D01*
X408829Y103564D01*
X408844Y103527D01*
X408913Y103431D01*
X408977Y103330D01*
X409007Y103302D01*
X409030Y103269D01*
X409122Y103193D01*
X409209Y103112D01*
X409244Y103092D01*
X409275Y103067D01*
X409383Y103016D01*
X409487Y102958D01*
X409527Y102948D01*
X409563Y102931D01*
X409680Y102909D01*
X409795Y102879D01*
X409855Y102875D01*
X409875Y102871D01*
X409896Y102873D01*
X409956Y102869D01*
X412782Y102869D01*
X415163Y100488D01*
X415163Y84120D01*
X414744Y83702D01*
X414671Y83608D01*
X414592Y83518D01*
X414574Y83482D01*
X414549Y83450D01*
X414502Y83341D01*
X414448Y83235D01*
X414439Y83196D01*
X414423Y83158D01*
X414404Y83041D01*
X414378Y82925D01*
X414379Y82884D01*
X414373Y82844D01*
X414384Y82726D01*
X414388Y82607D01*
X414399Y82568D01*
X414403Y82528D01*
X414443Y82416D01*
X414476Y82301D01*
X414496Y82266D01*
X414510Y82228D01*
X414577Y82130D01*
X414637Y82027D01*
X414677Y81982D01*
X414689Y81965D01*
X414704Y81952D01*
X414744Y81907D01*
X415163Y81488D01*
X415163Y65120D01*
X412782Y62739D01*
X393414Y62739D01*
X391033Y65120D01*
X391033Y66700D01*
X391018Y66818D01*
X391011Y66937D01*
X390998Y66975D01*
X390993Y67016D01*
X390950Y67126D01*
X390913Y67239D01*
X390891Y67274D01*
X390876Y67311D01*
X390807Y67407D01*
X390743Y67508D01*
X390713Y67536D01*
X390690Y67569D01*
X390598Y67645D01*
X390511Y67726D01*
X390476Y67746D01*
X390445Y67771D01*
X390337Y67822D01*
X390233Y67880D01*
X390193Y67890D01*
X390157Y67907D01*
X390040Y67929D01*
X389925Y67959D01*
X389865Y67963D01*
X389845Y67967D01*
X389824Y67965D01*
X389764Y67969D01*
X344481Y67969D01*
X342520Y68781D01*
X322393Y88909D01*
X322315Y88969D01*
X322243Y89037D01*
X322190Y89066D01*
X322142Y89103D01*
X322051Y89143D01*
X321964Y89191D01*
X321906Y89206D01*
X321850Y89230D01*
X321752Y89245D01*
X321656Y89270D01*
X321556Y89276D01*
X321536Y89280D01*
X321524Y89278D01*
X321496Y89280D01*
X320581Y89280D01*
X317827Y90421D01*
X315603Y92645D01*
X315494Y92730D01*
X315387Y92819D01*
X315368Y92827D01*
X315352Y92840D01*
X315224Y92895D01*
X315099Y92954D01*
X315079Y92958D01*
X315060Y92966D01*
X314922Y92988D01*
X314786Y93014D01*
X314766Y93013D01*
X314746Y93016D01*
X314607Y93003D01*
X314469Y92994D01*
X314450Y92988D01*
X314430Y92986D01*
X314298Y92939D01*
X314167Y92896D01*
X314149Y92885D01*
X314130Y92879D01*
X314015Y92800D01*
X313898Y92726D01*
X313884Y92711D01*
X313867Y92700D01*
X313775Y92596D01*
X313680Y92494D01*
X313670Y92477D01*
X313657Y92462D01*
X313593Y92337D01*
X313526Y92216D01*
X313521Y92196D01*
X313512Y92178D01*
X313482Y92042D01*
X313447Y91908D01*
X313445Y91880D01*
X313442Y91868D01*
X313443Y91848D01*
X313437Y91747D01*
X313437Y83598D01*
X313449Y83500D01*
X313452Y83400D01*
X313469Y83342D01*
X313477Y83282D01*
X313513Y83190D01*
X313541Y83095D01*
X313571Y83043D01*
X313594Y82986D01*
X313652Y82906D01*
X313702Y82821D01*
X313768Y82746D01*
X313780Y82729D01*
X313790Y82721D01*
X313808Y82700D01*
X319787Y76722D01*
X319787Y67042D01*
X312824Y60079D01*
X312751Y59985D01*
X312672Y59896D01*
X312654Y59860D01*
X312629Y59828D01*
X312582Y59719D01*
X312528Y59613D01*
X312519Y59574D01*
X312503Y59536D01*
X312484Y59419D01*
X312458Y59303D01*
X312459Y59262D01*
X312453Y59222D01*
X312464Y59104D01*
X312468Y58985D01*
X312479Y58946D01*
X312483Y58906D01*
X312523Y58793D01*
X312556Y58679D01*
X312577Y58644D01*
X312590Y58606D01*
X312657Y58508D01*
X312718Y58405D01*
X312758Y58360D01*
X312769Y58343D01*
X312784Y58330D01*
X312824Y58284D01*
X319787Y51322D01*
X319787Y41642D01*
X312942Y34797D01*
X303262Y34797D01*
X296300Y41760D01*
X296205Y41833D01*
X296116Y41912D01*
X296080Y41930D01*
X296048Y41955D01*
X295939Y42002D01*
X295833Y42056D01*
X295794Y42065D01*
X295756Y42081D01*
X295639Y42100D01*
X295523Y42126D01*
X295482Y42125D01*
X295442Y42131D01*
X295324Y42120D01*
X295205Y42116D01*
X295166Y42105D01*
X295126Y42101D01*
X295013Y42061D01*
X294899Y42028D01*
X294865Y42007D01*
X294826Y41994D01*
X294728Y41927D01*
X294625Y41866D01*
X294580Y41826D01*
X294563Y41815D01*
X294550Y41800D01*
X294505Y41760D01*
X287542Y34797D01*
X277862Y34797D01*
X270900Y41760D01*
X270805Y41833D01*
X270716Y41912D01*
X270680Y41930D01*
X270648Y41955D01*
X270539Y42002D01*
X270433Y42056D01*
X270394Y42065D01*
X270356Y42081D01*
X270239Y42100D01*
X270123Y42126D01*
X270082Y42125D01*
X270042Y42131D01*
X269924Y42120D01*
X269805Y42116D01*
X269766Y42105D01*
X269726Y42101D01*
X269613Y42061D01*
X269499Y42028D01*
X269465Y42007D01*
X269426Y41994D01*
X269328Y41927D01*
X269225Y41866D01*
X269180Y41826D01*
X269163Y41815D01*
X269150Y41800D01*
X269105Y41760D01*
X262142Y34797D01*
X252462Y34797D01*
G37*
%LPD*%
%LPC*%
G36*
X545814Y240539D02*
X545814Y240539D01*
X543433Y242920D01*
X543433Y244500D01*
X543418Y244618D01*
X543411Y244737D01*
X543398Y244775D01*
X543393Y244816D01*
X543350Y244926D01*
X543313Y245039D01*
X543291Y245074D01*
X543276Y245111D01*
X543207Y245207D01*
X543143Y245308D01*
X543113Y245336D01*
X543090Y245369D01*
X542998Y245445D01*
X542911Y245526D01*
X542876Y245546D01*
X542845Y245571D01*
X542737Y245622D01*
X542633Y245680D01*
X542593Y245690D01*
X542557Y245707D01*
X542440Y245729D01*
X542325Y245759D01*
X542265Y245763D01*
X542245Y245767D01*
X542224Y245765D01*
X542164Y245769D01*
X509581Y245769D01*
X507620Y246581D01*
X411928Y342274D01*
X411850Y342334D01*
X411778Y342402D01*
X411725Y342431D01*
X411677Y342468D01*
X411586Y342508D01*
X411499Y342556D01*
X411441Y342571D01*
X411385Y342595D01*
X411287Y342610D01*
X411191Y342635D01*
X411091Y342641D01*
X411071Y342645D01*
X411059Y342643D01*
X411031Y342645D01*
X354785Y342645D01*
X354686Y342633D01*
X354587Y342630D01*
X354529Y342613D01*
X354469Y342605D01*
X354377Y342569D01*
X354282Y342541D01*
X354230Y342511D01*
X354173Y342488D01*
X354093Y342430D01*
X354008Y342380D01*
X353933Y342314D01*
X353916Y342302D01*
X353908Y342292D01*
X353887Y342273D01*
X353749Y342135D01*
X350995Y340994D01*
X348013Y340994D01*
X345259Y342135D01*
X343151Y344243D01*
X342010Y346997D01*
X342010Y349979D01*
X343151Y352733D01*
X345259Y354841D01*
X348013Y355982D01*
X350995Y355982D01*
X353749Y354841D01*
X354903Y353686D01*
X354981Y353626D01*
X355054Y353558D01*
X355107Y353529D01*
X355154Y353492D01*
X355245Y353452D01*
X355332Y353404D01*
X355391Y353389D01*
X355446Y353365D01*
X355544Y353350D01*
X355640Y353325D01*
X355740Y353319D01*
X355760Y353315D01*
X355773Y353317D01*
X355801Y353315D01*
X414827Y353315D01*
X416788Y352503D01*
X512480Y256810D01*
X512558Y256750D01*
X512630Y256682D01*
X512683Y256653D01*
X512731Y256616D01*
X512822Y256576D01*
X512909Y256528D01*
X512967Y256513D01*
X513023Y256489D01*
X513121Y256474D01*
X513217Y256449D01*
X513317Y256443D01*
X513337Y256439D01*
X513349Y256441D01*
X513377Y256439D01*
X542164Y256439D01*
X542282Y256454D01*
X542401Y256461D01*
X542439Y256474D01*
X542480Y256479D01*
X542590Y256522D01*
X542703Y256559D01*
X542738Y256581D01*
X542775Y256596D01*
X542871Y256665D01*
X542972Y256729D01*
X543000Y256759D01*
X543033Y256782D01*
X543109Y256874D01*
X543190Y256961D01*
X543210Y256996D01*
X543235Y257027D01*
X543286Y257135D01*
X543344Y257239D01*
X543354Y257279D01*
X543371Y257315D01*
X543393Y257432D01*
X543423Y257547D01*
X543427Y257607D01*
X543431Y257627D01*
X543429Y257648D01*
X543433Y257708D01*
X543433Y259288D01*
X543852Y259707D01*
X543925Y259801D01*
X544004Y259890D01*
X544022Y259926D01*
X544047Y259958D01*
X544094Y260067D01*
X544148Y260173D01*
X544157Y260212D01*
X544173Y260250D01*
X544192Y260367D01*
X544218Y260483D01*
X544217Y260524D01*
X544223Y260564D01*
X544212Y260682D01*
X544208Y260801D01*
X544197Y260840D01*
X544193Y260880D01*
X544153Y260992D01*
X544120Y261107D01*
X544100Y261142D01*
X544086Y261180D01*
X544019Y261278D01*
X543958Y261381D01*
X543919Y261426D01*
X543907Y261443D01*
X543892Y261456D01*
X543852Y261502D01*
X543433Y261920D01*
X543433Y278288D01*
X545814Y280669D01*
X548640Y280669D01*
X548758Y280684D01*
X548877Y280691D01*
X548915Y280704D01*
X548956Y280709D01*
X549066Y280752D01*
X549179Y280789D01*
X549214Y280811D01*
X549251Y280826D01*
X549347Y280895D01*
X549448Y280959D01*
X549476Y280989D01*
X549509Y281012D01*
X549585Y281104D01*
X549666Y281191D01*
X549686Y281226D01*
X549711Y281257D01*
X549762Y281365D01*
X549820Y281469D01*
X549830Y281509D01*
X549847Y281545D01*
X549869Y281662D01*
X549899Y281777D01*
X549903Y281837D01*
X549907Y281857D01*
X549905Y281878D01*
X549909Y281938D01*
X549909Y283220D01*
X549894Y283338D01*
X549887Y283457D01*
X549874Y283495D01*
X549869Y283536D01*
X549826Y283646D01*
X549789Y283759D01*
X549767Y283794D01*
X549752Y283831D01*
X549683Y283927D01*
X549619Y284028D01*
X549589Y284056D01*
X549566Y284089D01*
X549474Y284165D01*
X549387Y284246D01*
X549352Y284266D01*
X549321Y284291D01*
X549213Y284342D01*
X549109Y284400D01*
X549069Y284410D01*
X549033Y284427D01*
X548916Y284449D01*
X548801Y284479D01*
X548741Y284483D01*
X548721Y284487D01*
X548700Y284485D01*
X548640Y284489D01*
X547814Y284489D01*
X545433Y286870D01*
X545433Y302238D01*
X547814Y304619D01*
X548459Y304619D01*
X548611Y304638D01*
X548762Y304655D01*
X548768Y304658D01*
X548775Y304659D01*
X548917Y304715D01*
X549059Y304769D01*
X549064Y304773D01*
X549070Y304776D01*
X549194Y304865D01*
X549318Y304953D01*
X549322Y304958D01*
X549328Y304962D01*
X549425Y305080D01*
X549523Y305196D01*
X549526Y305202D01*
X549531Y305207D01*
X549595Y305344D01*
X549662Y305482D01*
X549663Y305489D01*
X549666Y305495D01*
X549694Y305643D01*
X549725Y305794D01*
X549725Y305801D01*
X549726Y305807D01*
X549716Y305959D01*
X549709Y306112D01*
X549707Y306118D01*
X549706Y306125D01*
X549660Y306268D01*
X549614Y306415D01*
X549610Y306421D01*
X549608Y306427D01*
X549527Y306555D01*
X549446Y306686D01*
X549442Y306690D01*
X549438Y306696D01*
X549327Y306801D01*
X549217Y306906D01*
X549211Y306909D01*
X549206Y306914D01*
X549073Y306988D01*
X548940Y307063D01*
X548932Y307065D01*
X548928Y307068D01*
X548917Y307070D01*
X548788Y307114D01*
X548517Y307186D01*
X547938Y307521D01*
X547465Y307994D01*
X547130Y308573D01*
X546957Y309220D01*
X546957Y313015D01*
X554228Y313015D01*
X554346Y313030D01*
X554465Y313037D01*
X554503Y313050D01*
X554543Y313055D01*
X554654Y313098D01*
X554767Y313135D01*
X554802Y313157D01*
X554839Y313172D01*
X554935Y313242D01*
X555036Y313305D01*
X555064Y313335D01*
X555096Y313359D01*
X555172Y313450D01*
X555254Y313537D01*
X555273Y313572D01*
X555299Y313603D01*
X555350Y313711D01*
X555407Y313815D01*
X555418Y313855D01*
X555435Y313891D01*
X555457Y314008D01*
X555487Y314123D01*
X555491Y314184D01*
X555495Y314204D01*
X555493Y314224D01*
X555497Y314284D01*
X555497Y315555D01*
X555499Y315555D01*
X555499Y314284D01*
X555514Y314166D01*
X555521Y314047D01*
X555534Y314009D01*
X555539Y313969D01*
X555583Y313858D01*
X555619Y313745D01*
X555641Y313710D01*
X555656Y313673D01*
X555726Y313577D01*
X555789Y313476D01*
X555819Y313448D01*
X555843Y313415D01*
X555934Y313340D01*
X556021Y313258D01*
X556056Y313238D01*
X556088Y313213D01*
X556195Y313162D01*
X556299Y313104D01*
X556339Y313094D01*
X556375Y313077D01*
X556492Y313055D01*
X556607Y313025D01*
X556668Y313021D01*
X556688Y313017D01*
X556708Y313019D01*
X556768Y313015D01*
X564039Y313015D01*
X564039Y309220D01*
X563866Y308573D01*
X563531Y307994D01*
X563058Y307521D01*
X562479Y307186D01*
X562208Y307114D01*
X562067Y307056D01*
X561926Y307000D01*
X561920Y306996D01*
X561914Y306994D01*
X561791Y306903D01*
X561668Y306814D01*
X561664Y306808D01*
X561659Y306804D01*
X561562Y306686D01*
X561465Y306569D01*
X561463Y306562D01*
X561458Y306557D01*
X561394Y306417D01*
X561330Y306281D01*
X561329Y306274D01*
X561326Y306268D01*
X561298Y306117D01*
X561270Y305968D01*
X561271Y305962D01*
X561269Y305955D01*
X561280Y305803D01*
X561290Y305651D01*
X561292Y305645D01*
X561292Y305638D01*
X561341Y305493D01*
X561388Y305349D01*
X561391Y305343D01*
X561394Y305336D01*
X561476Y305209D01*
X561558Y305080D01*
X561563Y305075D01*
X561567Y305070D01*
X561679Y304966D01*
X561790Y304862D01*
X561796Y304859D01*
X561801Y304854D01*
X561935Y304782D01*
X562068Y304708D01*
X562075Y304707D01*
X562081Y304704D01*
X562229Y304667D01*
X562376Y304629D01*
X562385Y304628D01*
X562389Y304627D01*
X562400Y304627D01*
X562537Y304619D01*
X563182Y304619D01*
X565563Y302238D01*
X565563Y286870D01*
X563182Y284489D01*
X562356Y284489D01*
X562238Y284474D01*
X562119Y284467D01*
X562081Y284454D01*
X562040Y284449D01*
X561930Y284406D01*
X561817Y284369D01*
X561782Y284347D01*
X561745Y284332D01*
X561649Y284263D01*
X561548Y284199D01*
X561520Y284169D01*
X561487Y284146D01*
X561411Y284054D01*
X561330Y283967D01*
X561310Y283932D01*
X561285Y283901D01*
X561234Y283793D01*
X561176Y283689D01*
X561166Y283649D01*
X561149Y283613D01*
X561127Y283496D01*
X561097Y283381D01*
X561093Y283321D01*
X561089Y283301D01*
X561091Y283280D01*
X561087Y283220D01*
X561087Y281938D01*
X561102Y281820D01*
X561109Y281701D01*
X561122Y281663D01*
X561127Y281622D01*
X561170Y281512D01*
X561207Y281399D01*
X561229Y281364D01*
X561244Y281327D01*
X561313Y281231D01*
X561377Y281130D01*
X561407Y281102D01*
X561430Y281069D01*
X561522Y280993D01*
X561609Y280912D01*
X561644Y280892D01*
X561675Y280867D01*
X561783Y280816D01*
X561887Y280758D01*
X561927Y280748D01*
X561963Y280731D01*
X562080Y280709D01*
X562195Y280679D01*
X562255Y280675D01*
X562275Y280671D01*
X562296Y280673D01*
X562356Y280669D01*
X565182Y280669D01*
X567563Y278288D01*
X567563Y261920D01*
X567144Y261502D01*
X567071Y261408D01*
X566992Y261318D01*
X566974Y261282D01*
X566949Y261250D01*
X566902Y261141D01*
X566848Y261035D01*
X566839Y260996D01*
X566823Y260958D01*
X566804Y260841D01*
X566778Y260725D01*
X566779Y260684D01*
X566773Y260644D01*
X566784Y260526D01*
X566788Y260407D01*
X566799Y260368D01*
X566803Y260328D01*
X566843Y260216D01*
X566876Y260101D01*
X566896Y260066D01*
X566910Y260028D01*
X566977Y259930D01*
X567037Y259827D01*
X567077Y259782D01*
X567089Y259765D01*
X567104Y259752D01*
X567144Y259707D01*
X567563Y259288D01*
X567563Y242920D01*
X565182Y240539D01*
X545814Y240539D01*
G37*
%LPD*%
%LPC*%
G36*
X545814Y151639D02*
X545814Y151639D01*
X543433Y154020D01*
X543433Y155600D01*
X543418Y155718D01*
X543411Y155837D01*
X543398Y155875D01*
X543393Y155916D01*
X543350Y156026D01*
X543313Y156139D01*
X543291Y156174D01*
X543276Y156211D01*
X543207Y156307D01*
X543143Y156408D01*
X543113Y156436D01*
X543090Y156469D01*
X542998Y156545D01*
X542911Y156626D01*
X542876Y156646D01*
X542845Y156671D01*
X542737Y156722D01*
X542633Y156780D01*
X542593Y156790D01*
X542557Y156807D01*
X542440Y156829D01*
X542325Y156859D01*
X542265Y156863D01*
X542245Y156867D01*
X542224Y156865D01*
X542164Y156869D01*
X516947Y156869D01*
X514986Y157681D01*
X504239Y168428D01*
X503427Y170389D01*
X503427Y184711D01*
X503415Y184809D01*
X503412Y184908D01*
X503395Y184967D01*
X503387Y185027D01*
X503351Y185119D01*
X503323Y185214D01*
X503293Y185266D01*
X503270Y185322D01*
X503212Y185403D01*
X503162Y185488D01*
X503096Y185563D01*
X503084Y185580D01*
X503074Y185588D01*
X503056Y185609D01*
X502409Y186255D01*
X501268Y189009D01*
X501268Y191991D01*
X502409Y194745D01*
X504517Y196853D01*
X507271Y197994D01*
X510253Y197994D01*
X513007Y196853D01*
X515115Y194745D01*
X516256Y191991D01*
X516256Y189009D01*
X515115Y186255D01*
X514468Y185609D01*
X514408Y185530D01*
X514340Y185458D01*
X514311Y185405D01*
X514274Y185357D01*
X514234Y185267D01*
X514186Y185180D01*
X514171Y185121D01*
X514147Y185066D01*
X514132Y184968D01*
X514107Y184872D01*
X514101Y184772D01*
X514097Y184752D01*
X514099Y184739D01*
X514097Y184711D01*
X514097Y174185D01*
X514109Y174087D01*
X514112Y173988D01*
X514129Y173930D01*
X514137Y173870D01*
X514173Y173778D01*
X514201Y173683D01*
X514231Y173631D01*
X514254Y173574D01*
X514312Y173494D01*
X514362Y173409D01*
X514429Y173333D01*
X514440Y173317D01*
X514450Y173309D01*
X514468Y173288D01*
X519846Y167910D01*
X519924Y167850D01*
X519996Y167782D01*
X520049Y167753D01*
X520097Y167716D01*
X520188Y167676D01*
X520275Y167628D01*
X520333Y167613D01*
X520389Y167589D01*
X520487Y167574D01*
X520583Y167549D01*
X520683Y167543D01*
X520703Y167539D01*
X520715Y167541D01*
X520743Y167539D01*
X542164Y167539D01*
X542282Y167554D01*
X542401Y167561D01*
X542439Y167574D01*
X542480Y167579D01*
X542590Y167622D01*
X542703Y167659D01*
X542738Y167681D01*
X542775Y167696D01*
X542871Y167765D01*
X542972Y167829D01*
X543000Y167859D01*
X543033Y167882D01*
X543109Y167974D01*
X543190Y168061D01*
X543210Y168096D01*
X543235Y168127D01*
X543286Y168235D01*
X543344Y168339D01*
X543354Y168379D01*
X543371Y168415D01*
X543393Y168532D01*
X543423Y168647D01*
X543427Y168707D01*
X543431Y168727D01*
X543430Y168732D01*
X543431Y168733D01*
X543430Y168751D01*
X543433Y168808D01*
X543433Y170388D01*
X543852Y170807D01*
X543925Y170901D01*
X544004Y170990D01*
X544022Y171026D01*
X544047Y171058D01*
X544094Y171167D01*
X544148Y171273D01*
X544157Y171312D01*
X544173Y171350D01*
X544192Y171467D01*
X544218Y171583D01*
X544217Y171624D01*
X544223Y171664D01*
X544212Y171782D01*
X544208Y171901D01*
X544197Y171940D01*
X544193Y171980D01*
X544153Y172092D01*
X544120Y172207D01*
X544100Y172242D01*
X544086Y172280D01*
X544019Y172378D01*
X543958Y172481D01*
X543919Y172526D01*
X543907Y172543D01*
X543892Y172556D01*
X543852Y172602D01*
X543433Y173020D01*
X543433Y189388D01*
X545814Y191769D01*
X548640Y191769D01*
X548758Y191784D01*
X548877Y191791D01*
X548915Y191804D01*
X548956Y191809D01*
X549066Y191852D01*
X549179Y191889D01*
X549214Y191911D01*
X549251Y191926D01*
X549347Y191995D01*
X549448Y192059D01*
X549476Y192089D01*
X549509Y192112D01*
X549585Y192204D01*
X549666Y192291D01*
X549686Y192326D01*
X549711Y192357D01*
X549762Y192465D01*
X549820Y192569D01*
X549830Y192609D01*
X549847Y192645D01*
X549869Y192762D01*
X549899Y192877D01*
X549903Y192937D01*
X549907Y192957D01*
X549905Y192978D01*
X549909Y193038D01*
X549909Y194320D01*
X549894Y194438D01*
X549887Y194557D01*
X549874Y194595D01*
X549869Y194636D01*
X549826Y194746D01*
X549789Y194859D01*
X549767Y194894D01*
X549752Y194931D01*
X549683Y195027D01*
X549619Y195128D01*
X549589Y195156D01*
X549566Y195189D01*
X549474Y195265D01*
X549387Y195346D01*
X549352Y195366D01*
X549321Y195391D01*
X549213Y195442D01*
X549109Y195500D01*
X549069Y195510D01*
X549033Y195527D01*
X548916Y195549D01*
X548801Y195579D01*
X548741Y195583D01*
X548721Y195587D01*
X548700Y195585D01*
X548640Y195589D01*
X547814Y195589D01*
X545433Y197970D01*
X545433Y213338D01*
X547814Y215719D01*
X548459Y215719D01*
X548610Y215738D01*
X548762Y215755D01*
X548768Y215758D01*
X548775Y215759D01*
X548916Y215815D01*
X549059Y215869D01*
X549064Y215873D01*
X549070Y215876D01*
X549194Y215965D01*
X549318Y216053D01*
X549322Y216058D01*
X549328Y216062D01*
X549425Y216180D01*
X549523Y216296D01*
X549526Y216302D01*
X549531Y216307D01*
X549595Y216445D01*
X549662Y216582D01*
X549663Y216589D01*
X549666Y216595D01*
X549694Y216743D01*
X549725Y216894D01*
X549725Y216901D01*
X549726Y216907D01*
X549717Y217058D01*
X549709Y217212D01*
X549707Y217218D01*
X549706Y217225D01*
X549660Y217368D01*
X549614Y217515D01*
X549610Y217521D01*
X549608Y217527D01*
X549527Y217655D01*
X549446Y217786D01*
X549442Y217790D01*
X549438Y217796D01*
X549326Y217901D01*
X549217Y218006D01*
X549211Y218009D01*
X549206Y218014D01*
X549072Y218088D01*
X548940Y218163D01*
X548932Y218165D01*
X548928Y218168D01*
X548917Y218170D01*
X548788Y218214D01*
X548517Y218286D01*
X547938Y218621D01*
X547465Y219094D01*
X547130Y219673D01*
X546957Y220320D01*
X546957Y224115D01*
X554228Y224115D01*
X554346Y224130D01*
X554465Y224137D01*
X554503Y224150D01*
X554543Y224155D01*
X554654Y224198D01*
X554767Y224235D01*
X554802Y224257D01*
X554839Y224272D01*
X554935Y224342D01*
X555036Y224405D01*
X555064Y224435D01*
X555096Y224459D01*
X555172Y224550D01*
X555254Y224637D01*
X555273Y224672D01*
X555299Y224703D01*
X555350Y224811D01*
X555407Y224915D01*
X555418Y224955D01*
X555435Y224991D01*
X555457Y225108D01*
X555487Y225223D01*
X555491Y225284D01*
X555495Y225304D01*
X555493Y225324D01*
X555497Y225384D01*
X555497Y226655D01*
X555499Y226655D01*
X555499Y225384D01*
X555514Y225266D01*
X555521Y225147D01*
X555534Y225109D01*
X555539Y225069D01*
X555583Y224958D01*
X555619Y224845D01*
X555641Y224810D01*
X555656Y224773D01*
X555726Y224677D01*
X555789Y224576D01*
X555819Y224548D01*
X555843Y224515D01*
X555934Y224440D01*
X556021Y224358D01*
X556056Y224338D01*
X556088Y224313D01*
X556195Y224262D01*
X556299Y224204D01*
X556339Y224194D01*
X556375Y224177D01*
X556492Y224155D01*
X556607Y224125D01*
X556668Y224121D01*
X556688Y224117D01*
X556708Y224119D01*
X556768Y224115D01*
X564039Y224115D01*
X564039Y220320D01*
X563866Y219673D01*
X563531Y219094D01*
X563058Y218621D01*
X562479Y218286D01*
X562208Y218214D01*
X562067Y218156D01*
X561926Y218100D01*
X561920Y218096D01*
X561914Y218094D01*
X561792Y218004D01*
X561668Y217914D01*
X561664Y217908D01*
X561659Y217904D01*
X561563Y217787D01*
X561465Y217669D01*
X561463Y217662D01*
X561458Y217657D01*
X561394Y217518D01*
X561330Y217381D01*
X561329Y217374D01*
X561326Y217368D01*
X561298Y217217D01*
X561270Y217068D01*
X561270Y217062D01*
X561269Y217055D01*
X561280Y216903D01*
X561290Y216751D01*
X561292Y216745D01*
X561292Y216738D01*
X561341Y216594D01*
X561388Y216449D01*
X561391Y216443D01*
X561394Y216436D01*
X561476Y216309D01*
X561558Y216180D01*
X561563Y216175D01*
X561567Y216170D01*
X561679Y216066D01*
X561790Y215962D01*
X561796Y215959D01*
X561800Y215954D01*
X561935Y215882D01*
X562068Y215808D01*
X562075Y215807D01*
X562081Y215804D01*
X562229Y215767D01*
X562376Y215729D01*
X562385Y215728D01*
X562389Y215727D01*
X562400Y215727D01*
X562537Y215719D01*
X563182Y215719D01*
X565563Y213338D01*
X565563Y197970D01*
X563182Y195589D01*
X562356Y195589D01*
X562238Y195574D01*
X562119Y195567D01*
X562081Y195554D01*
X562040Y195549D01*
X561930Y195506D01*
X561817Y195469D01*
X561782Y195447D01*
X561745Y195432D01*
X561649Y195363D01*
X561548Y195299D01*
X561520Y195269D01*
X561487Y195246D01*
X561411Y195154D01*
X561330Y195067D01*
X561310Y195032D01*
X561285Y195001D01*
X561234Y194893D01*
X561176Y194789D01*
X561166Y194749D01*
X561149Y194713D01*
X561127Y194596D01*
X561097Y194481D01*
X561093Y194421D01*
X561089Y194401D01*
X561091Y194380D01*
X561087Y194320D01*
X561087Y193038D01*
X561102Y192920D01*
X561109Y192801D01*
X561122Y192763D01*
X561127Y192722D01*
X561170Y192612D01*
X561207Y192499D01*
X561229Y192464D01*
X561244Y192427D01*
X561313Y192331D01*
X561377Y192230D01*
X561407Y192202D01*
X561430Y192169D01*
X561522Y192093D01*
X561609Y192012D01*
X561644Y191992D01*
X561675Y191967D01*
X561783Y191916D01*
X561887Y191858D01*
X561927Y191848D01*
X561963Y191831D01*
X562080Y191809D01*
X562195Y191779D01*
X562255Y191775D01*
X562275Y191771D01*
X562296Y191773D01*
X562356Y191769D01*
X565182Y191769D01*
X567563Y189388D01*
X567563Y173020D01*
X567144Y172602D01*
X567071Y172508D01*
X566992Y172418D01*
X566974Y172382D01*
X566949Y172350D01*
X566902Y172241D01*
X566848Y172135D01*
X566839Y172096D01*
X566823Y172058D01*
X566804Y171941D01*
X566778Y171825D01*
X566779Y171784D01*
X566773Y171744D01*
X566784Y171626D01*
X566788Y171507D01*
X566799Y171468D01*
X566803Y171428D01*
X566843Y171316D01*
X566876Y171201D01*
X566896Y171166D01*
X566910Y171128D01*
X566977Y171030D01*
X567037Y170927D01*
X567077Y170882D01*
X567089Y170865D01*
X567104Y170852D01*
X567144Y170807D01*
X567563Y170388D01*
X567563Y154020D01*
X565182Y151639D01*
X545814Y151639D01*
G37*
%LPD*%
%LPC*%
G36*
X460789Y111886D02*
X460789Y111886D01*
X458035Y113027D01*
X455927Y115135D01*
X454786Y117889D01*
X454786Y120871D01*
X455927Y123625D01*
X458035Y125733D01*
X460789Y126874D01*
X461704Y126874D01*
X461802Y126886D01*
X461901Y126889D01*
X461959Y126906D01*
X462019Y126914D01*
X462111Y126950D01*
X462206Y126978D01*
X462258Y127008D01*
X462315Y127031D01*
X462395Y127089D01*
X462480Y127139D01*
X462556Y127205D01*
X462572Y127217D01*
X462580Y127227D01*
X462601Y127245D01*
X473592Y138236D01*
X473652Y138314D01*
X473720Y138386D01*
X473749Y138439D01*
X473786Y138487D01*
X473826Y138578D01*
X473874Y138665D01*
X473889Y138723D01*
X473913Y138779D01*
X473928Y138877D01*
X473953Y138973D01*
X473959Y139073D01*
X473963Y139093D01*
X473961Y139105D01*
X473963Y139133D01*
X473963Y150370D01*
X473948Y150488D01*
X473941Y150607D01*
X473928Y150645D01*
X473923Y150686D01*
X473880Y150796D01*
X473843Y150909D01*
X473821Y150944D01*
X473806Y150981D01*
X473737Y151077D01*
X473673Y151178D01*
X473643Y151206D01*
X473620Y151239D01*
X473528Y151315D01*
X473441Y151396D01*
X473406Y151416D01*
X473375Y151441D01*
X473267Y151492D01*
X473163Y151550D01*
X473123Y151560D01*
X473087Y151577D01*
X472970Y151599D01*
X472855Y151629D01*
X472795Y151633D01*
X472775Y151637D01*
X472754Y151635D01*
X472694Y151639D01*
X469614Y151639D01*
X467233Y154020D01*
X467233Y170388D01*
X467652Y170807D01*
X467725Y170901D01*
X467804Y170990D01*
X467822Y171026D01*
X467847Y171058D01*
X467894Y171167D01*
X467948Y171273D01*
X467957Y171312D01*
X467973Y171350D01*
X467992Y171467D01*
X468018Y171583D01*
X468017Y171624D01*
X468023Y171664D01*
X468012Y171782D01*
X468008Y171901D01*
X467997Y171940D01*
X467993Y171980D01*
X467953Y172092D01*
X467920Y172207D01*
X467900Y172242D01*
X467886Y172280D01*
X467819Y172378D01*
X467758Y172481D01*
X467719Y172526D01*
X467707Y172543D01*
X467692Y172556D01*
X467652Y172602D01*
X467233Y173020D01*
X467233Y189388D01*
X469614Y191769D01*
X472440Y191769D01*
X472558Y191784D01*
X472677Y191791D01*
X472715Y191804D01*
X472756Y191809D01*
X472866Y191852D01*
X472979Y191889D01*
X473014Y191911D01*
X473051Y191926D01*
X473147Y191995D01*
X473248Y192059D01*
X473276Y192089D01*
X473309Y192112D01*
X473385Y192204D01*
X473466Y192291D01*
X473486Y192326D01*
X473511Y192357D01*
X473562Y192465D01*
X473620Y192569D01*
X473630Y192609D01*
X473647Y192645D01*
X473669Y192762D01*
X473699Y192877D01*
X473703Y192937D01*
X473707Y192957D01*
X473705Y192978D01*
X473709Y193038D01*
X473709Y194320D01*
X473694Y194438D01*
X473687Y194557D01*
X473674Y194595D01*
X473669Y194636D01*
X473626Y194746D01*
X473589Y194859D01*
X473567Y194894D01*
X473552Y194931D01*
X473483Y195027D01*
X473419Y195128D01*
X473389Y195156D01*
X473366Y195189D01*
X473274Y195265D01*
X473187Y195346D01*
X473152Y195366D01*
X473121Y195391D01*
X473013Y195442D01*
X472909Y195500D01*
X472869Y195510D01*
X472833Y195527D01*
X472716Y195549D01*
X472601Y195579D01*
X472541Y195583D01*
X472521Y195587D01*
X472500Y195585D01*
X472440Y195589D01*
X471614Y195589D01*
X469233Y197970D01*
X469233Y213338D01*
X471614Y215719D01*
X472259Y215719D01*
X472411Y215738D01*
X472562Y215755D01*
X472568Y215758D01*
X472575Y215759D01*
X472717Y215815D01*
X472859Y215869D01*
X472864Y215873D01*
X472870Y215876D01*
X472994Y215965D01*
X473118Y216053D01*
X473122Y216058D01*
X473128Y216062D01*
X473225Y216180D01*
X473323Y216296D01*
X473326Y216302D01*
X473331Y216307D01*
X473395Y216444D01*
X473462Y216582D01*
X473463Y216589D01*
X473466Y216595D01*
X473494Y216742D01*
X473525Y216894D01*
X473525Y216901D01*
X473526Y216907D01*
X473516Y217059D01*
X473509Y217212D01*
X473507Y217218D01*
X473506Y217225D01*
X473460Y217368D01*
X473414Y217515D01*
X473410Y217521D01*
X473408Y217527D01*
X473327Y217655D01*
X473246Y217786D01*
X473242Y217790D01*
X473238Y217796D01*
X473127Y217901D01*
X473017Y218006D01*
X473011Y218009D01*
X473006Y218014D01*
X472873Y218088D01*
X472740Y218163D01*
X472732Y218165D01*
X472728Y218168D01*
X472717Y218170D01*
X472588Y218214D01*
X472317Y218286D01*
X471738Y218621D01*
X471265Y219094D01*
X470930Y219673D01*
X470757Y220320D01*
X470757Y224115D01*
X478028Y224115D01*
X478146Y224130D01*
X478265Y224137D01*
X478303Y224150D01*
X478343Y224155D01*
X478454Y224198D01*
X478567Y224235D01*
X478602Y224257D01*
X478639Y224272D01*
X478735Y224342D01*
X478836Y224405D01*
X478864Y224435D01*
X478896Y224459D01*
X478972Y224550D01*
X479054Y224637D01*
X479073Y224672D01*
X479099Y224703D01*
X479150Y224811D01*
X479207Y224915D01*
X479218Y224955D01*
X479235Y224991D01*
X479257Y225108D01*
X479287Y225223D01*
X479291Y225284D01*
X479295Y225304D01*
X479293Y225324D01*
X479297Y225384D01*
X479297Y226655D01*
X479299Y226655D01*
X479299Y225384D01*
X479314Y225266D01*
X479321Y225147D01*
X479334Y225109D01*
X479339Y225069D01*
X479383Y224958D01*
X479419Y224845D01*
X479441Y224810D01*
X479456Y224773D01*
X479526Y224677D01*
X479589Y224576D01*
X479619Y224548D01*
X479643Y224515D01*
X479734Y224440D01*
X479821Y224358D01*
X479856Y224338D01*
X479888Y224313D01*
X479995Y224262D01*
X480099Y224204D01*
X480139Y224194D01*
X480175Y224177D01*
X480292Y224155D01*
X480407Y224125D01*
X480468Y224121D01*
X480488Y224117D01*
X480508Y224119D01*
X480568Y224115D01*
X487839Y224115D01*
X487839Y220320D01*
X487666Y219673D01*
X487331Y219094D01*
X486858Y218621D01*
X486279Y218286D01*
X486008Y218214D01*
X485867Y218156D01*
X485726Y218100D01*
X485720Y218096D01*
X485714Y218094D01*
X485591Y218003D01*
X485468Y217914D01*
X485464Y217908D01*
X485459Y217904D01*
X485363Y217786D01*
X485265Y217669D01*
X485263Y217662D01*
X485258Y217657D01*
X485194Y217517D01*
X485130Y217381D01*
X485129Y217374D01*
X485126Y217368D01*
X485098Y217217D01*
X485070Y217068D01*
X485071Y217062D01*
X485069Y217055D01*
X485080Y216903D01*
X485090Y216751D01*
X485092Y216745D01*
X485092Y216738D01*
X485141Y216593D01*
X485188Y216449D01*
X485191Y216443D01*
X485194Y216436D01*
X485276Y216309D01*
X485358Y216180D01*
X485363Y216175D01*
X485367Y216170D01*
X485479Y216066D01*
X485590Y215962D01*
X485596Y215959D01*
X485601Y215954D01*
X485735Y215882D01*
X485868Y215808D01*
X485875Y215807D01*
X485881Y215804D01*
X486029Y215767D01*
X486176Y215729D01*
X486185Y215728D01*
X486189Y215727D01*
X486200Y215727D01*
X486337Y215719D01*
X486982Y215719D01*
X489363Y213338D01*
X489363Y197970D01*
X486982Y195589D01*
X486156Y195589D01*
X486038Y195574D01*
X485919Y195567D01*
X485881Y195554D01*
X485840Y195549D01*
X485730Y195506D01*
X485617Y195469D01*
X485582Y195447D01*
X485545Y195432D01*
X485449Y195363D01*
X485348Y195299D01*
X485320Y195269D01*
X485287Y195246D01*
X485211Y195154D01*
X485130Y195067D01*
X485110Y195032D01*
X485085Y195001D01*
X485034Y194893D01*
X484976Y194789D01*
X484966Y194749D01*
X484949Y194713D01*
X484927Y194596D01*
X484897Y194481D01*
X484893Y194421D01*
X484889Y194401D01*
X484891Y194380D01*
X484887Y194320D01*
X484887Y193038D01*
X484902Y192920D01*
X484909Y192801D01*
X484922Y192763D01*
X484927Y192722D01*
X484970Y192612D01*
X485007Y192499D01*
X485029Y192464D01*
X485044Y192427D01*
X485113Y192331D01*
X485177Y192230D01*
X485207Y192202D01*
X485230Y192169D01*
X485322Y192093D01*
X485409Y192012D01*
X485444Y191992D01*
X485475Y191967D01*
X485583Y191916D01*
X485687Y191858D01*
X485727Y191848D01*
X485763Y191831D01*
X485880Y191809D01*
X485995Y191779D01*
X486055Y191775D01*
X486075Y191771D01*
X486096Y191773D01*
X486156Y191769D01*
X488982Y191769D01*
X491363Y189388D01*
X491363Y173020D01*
X490944Y172602D01*
X490871Y172508D01*
X490792Y172418D01*
X490774Y172382D01*
X490749Y172350D01*
X490702Y172241D01*
X490648Y172135D01*
X490639Y172096D01*
X490623Y172058D01*
X490604Y171941D01*
X490578Y171825D01*
X490579Y171784D01*
X490573Y171744D01*
X490584Y171626D01*
X490588Y171507D01*
X490599Y171468D01*
X490603Y171428D01*
X490643Y171316D01*
X490676Y171201D01*
X490696Y171166D01*
X490710Y171128D01*
X490777Y171030D01*
X490837Y170927D01*
X490877Y170882D01*
X490889Y170865D01*
X490904Y170852D01*
X490944Y170807D01*
X491363Y170388D01*
X491363Y154020D01*
X488982Y151639D01*
X485902Y151639D01*
X485784Y151624D01*
X485665Y151617D01*
X485627Y151604D01*
X485586Y151599D01*
X485476Y151556D01*
X485363Y151519D01*
X485328Y151497D01*
X485291Y151482D01*
X485195Y151413D01*
X485094Y151349D01*
X485066Y151319D01*
X485033Y151296D01*
X484957Y151204D01*
X484876Y151117D01*
X484856Y151082D01*
X484831Y151051D01*
X484780Y150943D01*
X484722Y150839D01*
X484712Y150799D01*
X484695Y150763D01*
X484673Y150646D01*
X484643Y150531D01*
X484639Y150471D01*
X484635Y150451D01*
X484637Y150430D01*
X484633Y150370D01*
X484633Y135337D01*
X483821Y133376D01*
X470145Y119701D01*
X470085Y119623D01*
X470017Y119551D01*
X469988Y119498D01*
X469951Y119450D01*
X469911Y119359D01*
X469863Y119272D01*
X469848Y119214D01*
X469824Y119158D01*
X469809Y119060D01*
X469784Y118964D01*
X469778Y118864D01*
X469774Y118844D01*
X469776Y118832D01*
X469774Y118804D01*
X469774Y117889D01*
X468633Y115135D01*
X466525Y113027D01*
X463771Y111886D01*
X460789Y111886D01*
G37*
%LPD*%
%LPC*%
G36*
X393414Y240539D02*
X393414Y240539D01*
X391033Y242920D01*
X391033Y244602D01*
X391018Y244720D01*
X391011Y244839D01*
X390998Y244877D01*
X390993Y244918D01*
X390950Y245028D01*
X390913Y245141D01*
X390891Y245176D01*
X390876Y245213D01*
X390807Y245309D01*
X390743Y245410D01*
X390713Y245438D01*
X390690Y245471D01*
X390598Y245547D01*
X390511Y245628D01*
X390476Y245648D01*
X390445Y245673D01*
X390337Y245724D01*
X390233Y245782D01*
X390193Y245792D01*
X390157Y245809D01*
X390040Y245831D01*
X389925Y245861D01*
X389865Y245865D01*
X389845Y245869D01*
X389824Y245867D01*
X389764Y245871D01*
X361389Y245871D01*
X361291Y245859D01*
X361192Y245856D01*
X361133Y245839D01*
X361073Y245831D01*
X360981Y245795D01*
X360886Y245767D01*
X360834Y245737D01*
X360778Y245714D01*
X360697Y245656D01*
X360612Y245606D01*
X360537Y245540D01*
X360520Y245528D01*
X360512Y245518D01*
X360491Y245500D01*
X359845Y244853D01*
X357091Y243712D01*
X354109Y243712D01*
X351355Y244853D01*
X349247Y246961D01*
X348106Y249715D01*
X348106Y252697D01*
X349247Y255451D01*
X351355Y257559D01*
X354109Y258700D01*
X357091Y258700D01*
X359845Y257559D01*
X360491Y256912D01*
X360570Y256852D01*
X360642Y256784D01*
X360695Y256755D01*
X360743Y256718D01*
X360833Y256678D01*
X360920Y256630D01*
X360979Y256615D01*
X361034Y256591D01*
X361132Y256576D01*
X361228Y256551D01*
X361328Y256545D01*
X361348Y256541D01*
X361361Y256543D01*
X361389Y256541D01*
X389764Y256541D01*
X389882Y256556D01*
X390001Y256563D01*
X390039Y256576D01*
X390080Y256581D01*
X390190Y256624D01*
X390303Y256661D01*
X390338Y256683D01*
X390375Y256698D01*
X390471Y256767D01*
X390572Y256831D01*
X390600Y256861D01*
X390633Y256884D01*
X390709Y256976D01*
X390790Y257063D01*
X390810Y257098D01*
X390835Y257129D01*
X390886Y257237D01*
X390944Y257341D01*
X390954Y257381D01*
X390971Y257417D01*
X390993Y257534D01*
X391023Y257649D01*
X391027Y257709D01*
X391031Y257729D01*
X391029Y257750D01*
X391033Y257810D01*
X391033Y259288D01*
X391452Y259707D01*
X391525Y259801D01*
X391604Y259890D01*
X391622Y259926D01*
X391647Y259958D01*
X391694Y260067D01*
X391748Y260173D01*
X391757Y260212D01*
X391773Y260250D01*
X391792Y260367D01*
X391818Y260483D01*
X391817Y260524D01*
X391823Y260564D01*
X391812Y260682D01*
X391808Y260801D01*
X391797Y260840D01*
X391793Y260880D01*
X391753Y260992D01*
X391720Y261107D01*
X391700Y261142D01*
X391686Y261180D01*
X391619Y261278D01*
X391558Y261381D01*
X391519Y261426D01*
X391507Y261443D01*
X391492Y261456D01*
X391452Y261502D01*
X391033Y261920D01*
X391033Y278288D01*
X393414Y280669D01*
X396240Y280669D01*
X396358Y280684D01*
X396477Y280691D01*
X396515Y280704D01*
X396556Y280709D01*
X396666Y280752D01*
X396779Y280789D01*
X396814Y280811D01*
X396851Y280826D01*
X396947Y280895D01*
X397048Y280959D01*
X397076Y280989D01*
X397109Y281012D01*
X397185Y281104D01*
X397266Y281191D01*
X397286Y281226D01*
X397311Y281257D01*
X397362Y281365D01*
X397420Y281469D01*
X397430Y281509D01*
X397447Y281545D01*
X397469Y281662D01*
X397499Y281777D01*
X397503Y281837D01*
X397507Y281857D01*
X397505Y281878D01*
X397509Y281938D01*
X397509Y283220D01*
X397494Y283338D01*
X397487Y283457D01*
X397474Y283495D01*
X397469Y283536D01*
X397426Y283646D01*
X397389Y283759D01*
X397367Y283794D01*
X397352Y283831D01*
X397283Y283927D01*
X397219Y284028D01*
X397189Y284056D01*
X397166Y284089D01*
X397074Y284165D01*
X396987Y284246D01*
X396952Y284266D01*
X396921Y284291D01*
X396813Y284342D01*
X396709Y284400D01*
X396669Y284410D01*
X396633Y284427D01*
X396516Y284449D01*
X396401Y284479D01*
X396341Y284483D01*
X396321Y284487D01*
X396300Y284485D01*
X396240Y284489D01*
X395414Y284489D01*
X393033Y286870D01*
X393033Y302238D01*
X395414Y304619D01*
X396059Y304619D01*
X396211Y304638D01*
X396362Y304655D01*
X396368Y304658D01*
X396375Y304659D01*
X396517Y304715D01*
X396659Y304769D01*
X396664Y304773D01*
X396670Y304776D01*
X396794Y304865D01*
X396918Y304953D01*
X396922Y304958D01*
X396928Y304962D01*
X397025Y305080D01*
X397123Y305196D01*
X397126Y305202D01*
X397131Y305207D01*
X397195Y305344D01*
X397262Y305482D01*
X397263Y305489D01*
X397266Y305495D01*
X397294Y305643D01*
X397325Y305794D01*
X397325Y305801D01*
X397326Y305807D01*
X397316Y305959D01*
X397309Y306112D01*
X397307Y306118D01*
X397306Y306125D01*
X397260Y306268D01*
X397214Y306415D01*
X397210Y306421D01*
X397208Y306427D01*
X397127Y306555D01*
X397046Y306686D01*
X397042Y306690D01*
X397038Y306696D01*
X396927Y306801D01*
X396817Y306906D01*
X396811Y306909D01*
X396806Y306914D01*
X396673Y306988D01*
X396540Y307063D01*
X396532Y307065D01*
X396528Y307068D01*
X396517Y307070D01*
X396388Y307114D01*
X396117Y307186D01*
X395538Y307521D01*
X395065Y307994D01*
X394730Y308573D01*
X394557Y309220D01*
X394557Y313015D01*
X401828Y313015D01*
X401946Y313030D01*
X402065Y313037D01*
X402103Y313050D01*
X402143Y313055D01*
X402254Y313098D01*
X402367Y313135D01*
X402402Y313157D01*
X402439Y313172D01*
X402535Y313242D01*
X402636Y313305D01*
X402664Y313335D01*
X402696Y313359D01*
X402772Y313450D01*
X402854Y313537D01*
X402873Y313572D01*
X402899Y313603D01*
X402950Y313711D01*
X403007Y313815D01*
X403018Y313855D01*
X403035Y313891D01*
X403057Y314008D01*
X403087Y314123D01*
X403091Y314184D01*
X403095Y314204D01*
X403093Y314224D01*
X403097Y314284D01*
X403097Y315555D01*
X403099Y315555D01*
X403099Y314284D01*
X403114Y314166D01*
X403121Y314047D01*
X403134Y314009D01*
X403139Y313969D01*
X403183Y313858D01*
X403219Y313745D01*
X403241Y313710D01*
X403256Y313673D01*
X403326Y313577D01*
X403389Y313476D01*
X403419Y313448D01*
X403443Y313415D01*
X403534Y313340D01*
X403621Y313258D01*
X403656Y313238D01*
X403688Y313213D01*
X403795Y313162D01*
X403899Y313104D01*
X403939Y313094D01*
X403975Y313077D01*
X404092Y313055D01*
X404207Y313025D01*
X404268Y313021D01*
X404288Y313017D01*
X404308Y313019D01*
X404368Y313015D01*
X411639Y313015D01*
X411639Y309220D01*
X411466Y308573D01*
X411131Y307994D01*
X410658Y307521D01*
X410079Y307186D01*
X409808Y307114D01*
X409667Y307056D01*
X409526Y307000D01*
X409520Y306996D01*
X409514Y306994D01*
X409391Y306903D01*
X409268Y306814D01*
X409264Y306808D01*
X409259Y306804D01*
X409162Y306686D01*
X409065Y306569D01*
X409063Y306562D01*
X409058Y306557D01*
X408994Y306417D01*
X408930Y306281D01*
X408929Y306274D01*
X408926Y306268D01*
X408898Y306117D01*
X408870Y305968D01*
X408871Y305962D01*
X408869Y305955D01*
X408880Y305803D01*
X408890Y305651D01*
X408892Y305645D01*
X408892Y305638D01*
X408941Y305493D01*
X408988Y305349D01*
X408991Y305343D01*
X408994Y305336D01*
X409076Y305209D01*
X409158Y305080D01*
X409163Y305075D01*
X409167Y305070D01*
X409279Y304966D01*
X409390Y304862D01*
X409396Y304859D01*
X409401Y304854D01*
X409535Y304782D01*
X409668Y304708D01*
X409675Y304707D01*
X409681Y304704D01*
X409829Y304667D01*
X409976Y304629D01*
X409985Y304628D01*
X409989Y304627D01*
X410000Y304627D01*
X410137Y304619D01*
X410782Y304619D01*
X413163Y302238D01*
X413163Y286870D01*
X410782Y284489D01*
X409956Y284489D01*
X409838Y284474D01*
X409719Y284467D01*
X409681Y284454D01*
X409640Y284449D01*
X409530Y284406D01*
X409417Y284369D01*
X409382Y284347D01*
X409345Y284332D01*
X409249Y284263D01*
X409148Y284199D01*
X409120Y284169D01*
X409087Y284146D01*
X409011Y284054D01*
X408930Y283967D01*
X408910Y283932D01*
X408885Y283901D01*
X408834Y283793D01*
X408776Y283689D01*
X408766Y283649D01*
X408749Y283613D01*
X408727Y283496D01*
X408697Y283381D01*
X408693Y283321D01*
X408689Y283301D01*
X408691Y283280D01*
X408687Y283220D01*
X408687Y281938D01*
X408702Y281820D01*
X408709Y281701D01*
X408722Y281663D01*
X408727Y281622D01*
X408770Y281512D01*
X408807Y281399D01*
X408829Y281364D01*
X408844Y281327D01*
X408913Y281231D01*
X408977Y281130D01*
X409007Y281102D01*
X409030Y281069D01*
X409122Y280993D01*
X409209Y280912D01*
X409244Y280892D01*
X409275Y280867D01*
X409383Y280816D01*
X409487Y280758D01*
X409527Y280748D01*
X409563Y280731D01*
X409680Y280709D01*
X409795Y280679D01*
X409855Y280675D01*
X409875Y280671D01*
X409896Y280673D01*
X409956Y280669D01*
X412782Y280669D01*
X415163Y278288D01*
X415163Y261920D01*
X414744Y261502D01*
X414671Y261408D01*
X414592Y261318D01*
X414574Y261282D01*
X414549Y261250D01*
X414502Y261141D01*
X414448Y261035D01*
X414439Y260996D01*
X414423Y260958D01*
X414404Y260841D01*
X414378Y260725D01*
X414379Y260684D01*
X414373Y260644D01*
X414384Y260526D01*
X414388Y260407D01*
X414399Y260368D01*
X414403Y260328D01*
X414443Y260216D01*
X414476Y260101D01*
X414496Y260066D01*
X414510Y260028D01*
X414577Y259930D01*
X414637Y259827D01*
X414677Y259782D01*
X414689Y259765D01*
X414704Y259752D01*
X414744Y259707D01*
X415163Y259288D01*
X415163Y242920D01*
X412782Y240539D01*
X393414Y240539D01*
G37*
%LPD*%
%LPC*%
G36*
X544101Y36956D02*
X544101Y36956D01*
X541347Y38097D01*
X539239Y40205D01*
X538098Y42959D01*
X538098Y45941D01*
X539239Y48695D01*
X541347Y50803D01*
X544101Y51944D01*
X545016Y51944D01*
X545114Y51956D01*
X545213Y51959D01*
X545271Y51976D01*
X545331Y51984D01*
X545423Y52020D01*
X545518Y52048D01*
X545570Y52078D01*
X545627Y52101D01*
X545707Y52159D01*
X545792Y52209D01*
X545868Y52275D01*
X545884Y52287D01*
X545892Y52297D01*
X545913Y52315D01*
X549792Y56194D01*
X549852Y56272D01*
X549920Y56344D01*
X549949Y56397D01*
X549986Y56445D01*
X550026Y56536D01*
X550074Y56623D01*
X550089Y56681D01*
X550113Y56737D01*
X550128Y56835D01*
X550153Y56931D01*
X550159Y57031D01*
X550163Y57051D01*
X550161Y57063D01*
X550163Y57091D01*
X550163Y61470D01*
X550148Y61588D01*
X550141Y61707D01*
X550128Y61745D01*
X550123Y61786D01*
X550080Y61896D01*
X550043Y62009D01*
X550021Y62044D01*
X550006Y62081D01*
X549937Y62177D01*
X549873Y62278D01*
X549843Y62306D01*
X549820Y62339D01*
X549728Y62415D01*
X549641Y62496D01*
X549606Y62516D01*
X549575Y62541D01*
X549467Y62592D01*
X549363Y62650D01*
X549323Y62660D01*
X549287Y62677D01*
X549170Y62699D01*
X549055Y62729D01*
X548995Y62733D01*
X548975Y62737D01*
X548954Y62735D01*
X548894Y62739D01*
X545814Y62739D01*
X543433Y65120D01*
X543433Y81488D01*
X543852Y81907D01*
X543925Y82001D01*
X544004Y82090D01*
X544022Y82126D01*
X544047Y82158D01*
X544094Y82267D01*
X544148Y82373D01*
X544157Y82412D01*
X544173Y82450D01*
X544192Y82567D01*
X544218Y82683D01*
X544217Y82724D01*
X544223Y82764D01*
X544212Y82882D01*
X544208Y83001D01*
X544197Y83040D01*
X544193Y83080D01*
X544153Y83192D01*
X544120Y83307D01*
X544100Y83342D01*
X544086Y83380D01*
X544019Y83478D01*
X543958Y83581D01*
X543919Y83626D01*
X543907Y83643D01*
X543892Y83656D01*
X543852Y83702D01*
X543433Y84120D01*
X543433Y100488D01*
X545814Y102869D01*
X548640Y102869D01*
X548758Y102884D01*
X548877Y102891D01*
X548915Y102904D01*
X548956Y102909D01*
X549066Y102952D01*
X549179Y102989D01*
X549214Y103011D01*
X549251Y103026D01*
X549347Y103095D01*
X549448Y103159D01*
X549476Y103189D01*
X549509Y103212D01*
X549585Y103304D01*
X549666Y103391D01*
X549686Y103426D01*
X549711Y103457D01*
X549762Y103565D01*
X549820Y103669D01*
X549830Y103709D01*
X549847Y103745D01*
X549869Y103862D01*
X549899Y103977D01*
X549903Y104037D01*
X549907Y104057D01*
X549905Y104078D01*
X549909Y104138D01*
X549909Y105420D01*
X549894Y105538D01*
X549887Y105657D01*
X549874Y105695D01*
X549869Y105736D01*
X549826Y105846D01*
X549789Y105959D01*
X549767Y105994D01*
X549752Y106031D01*
X549683Y106127D01*
X549619Y106228D01*
X549589Y106256D01*
X549566Y106289D01*
X549474Y106365D01*
X549387Y106446D01*
X549352Y106466D01*
X549321Y106491D01*
X549213Y106542D01*
X549109Y106600D01*
X549069Y106610D01*
X549033Y106627D01*
X548916Y106649D01*
X548801Y106679D01*
X548741Y106683D01*
X548721Y106687D01*
X548700Y106685D01*
X548640Y106689D01*
X547814Y106689D01*
X545433Y109070D01*
X545433Y124438D01*
X547814Y126819D01*
X548459Y126819D01*
X548610Y126838D01*
X548762Y126855D01*
X548768Y126858D01*
X548775Y126859D01*
X548916Y126915D01*
X549059Y126969D01*
X549064Y126973D01*
X549070Y126976D01*
X549194Y127065D01*
X549318Y127153D01*
X549322Y127158D01*
X549328Y127162D01*
X549425Y127280D01*
X549523Y127396D01*
X549526Y127402D01*
X549531Y127407D01*
X549595Y127545D01*
X549662Y127682D01*
X549663Y127689D01*
X549666Y127695D01*
X549695Y127844D01*
X549725Y127994D01*
X549725Y128001D01*
X549726Y128007D01*
X549717Y128158D01*
X549709Y128312D01*
X549707Y128318D01*
X549706Y128325D01*
X549660Y128468D01*
X549614Y128615D01*
X549610Y128621D01*
X549608Y128627D01*
X549527Y128756D01*
X549446Y128886D01*
X549442Y128890D01*
X549438Y128896D01*
X549326Y129001D01*
X549217Y129106D01*
X549211Y129109D01*
X549206Y129114D01*
X549072Y129188D01*
X548940Y129263D01*
X548932Y129265D01*
X548928Y129268D01*
X548917Y129270D01*
X548788Y129314D01*
X548517Y129386D01*
X547938Y129721D01*
X547465Y130194D01*
X547130Y130773D01*
X546957Y131420D01*
X546957Y135215D01*
X554228Y135215D01*
X554346Y135230D01*
X554465Y135237D01*
X554503Y135250D01*
X554543Y135255D01*
X554654Y135298D01*
X554767Y135335D01*
X554802Y135357D01*
X554839Y135372D01*
X554935Y135442D01*
X555036Y135505D01*
X555064Y135535D01*
X555096Y135559D01*
X555172Y135650D01*
X555254Y135737D01*
X555273Y135772D01*
X555299Y135803D01*
X555350Y135911D01*
X555407Y136015D01*
X555418Y136055D01*
X555435Y136091D01*
X555457Y136208D01*
X555487Y136323D01*
X555491Y136384D01*
X555495Y136404D01*
X555493Y136424D01*
X555497Y136484D01*
X555497Y137755D01*
X555499Y137755D01*
X555499Y136484D01*
X555514Y136366D01*
X555521Y136247D01*
X555534Y136209D01*
X555539Y136169D01*
X555583Y136058D01*
X555619Y135945D01*
X555641Y135910D01*
X555656Y135873D01*
X555726Y135777D01*
X555789Y135676D01*
X555819Y135648D01*
X555843Y135615D01*
X555934Y135540D01*
X556021Y135458D01*
X556056Y135438D01*
X556088Y135413D01*
X556195Y135362D01*
X556299Y135304D01*
X556339Y135294D01*
X556375Y135277D01*
X556492Y135255D01*
X556607Y135225D01*
X556668Y135221D01*
X556688Y135217D01*
X556708Y135219D01*
X556768Y135215D01*
X564039Y135215D01*
X564039Y131420D01*
X563866Y130773D01*
X563531Y130194D01*
X563058Y129721D01*
X562479Y129386D01*
X562208Y129314D01*
X562067Y129256D01*
X561926Y129200D01*
X561920Y129196D01*
X561914Y129194D01*
X561792Y129104D01*
X561668Y129014D01*
X561664Y129008D01*
X561659Y129004D01*
X561563Y128887D01*
X561465Y128769D01*
X561463Y128762D01*
X561458Y128757D01*
X561394Y128618D01*
X561330Y128481D01*
X561329Y128474D01*
X561326Y128468D01*
X561298Y128317D01*
X561270Y128168D01*
X561270Y128162D01*
X561269Y128155D01*
X561280Y128003D01*
X561290Y127851D01*
X561292Y127845D01*
X561292Y127838D01*
X561341Y127694D01*
X561388Y127549D01*
X561391Y127543D01*
X561394Y127536D01*
X561476Y127409D01*
X561558Y127280D01*
X561563Y127275D01*
X561567Y127270D01*
X561679Y127166D01*
X561790Y127062D01*
X561796Y127059D01*
X561800Y127054D01*
X561935Y126982D01*
X562068Y126908D01*
X562075Y126907D01*
X562081Y126904D01*
X562229Y126867D01*
X562376Y126829D01*
X562385Y126828D01*
X562389Y126827D01*
X562400Y126827D01*
X562537Y126819D01*
X563182Y126819D01*
X565563Y124438D01*
X565563Y109070D01*
X563182Y106689D01*
X562356Y106689D01*
X562238Y106674D01*
X562119Y106667D01*
X562081Y106654D01*
X562040Y106649D01*
X561930Y106606D01*
X561817Y106569D01*
X561782Y106547D01*
X561745Y106532D01*
X561649Y106463D01*
X561548Y106399D01*
X561520Y106369D01*
X561487Y106346D01*
X561411Y106254D01*
X561330Y106167D01*
X561310Y106132D01*
X561285Y106101D01*
X561234Y105993D01*
X561176Y105889D01*
X561166Y105849D01*
X561149Y105813D01*
X561127Y105696D01*
X561097Y105581D01*
X561093Y105521D01*
X561089Y105501D01*
X561091Y105480D01*
X561087Y105420D01*
X561087Y104138D01*
X561102Y104020D01*
X561109Y103901D01*
X561122Y103863D01*
X561127Y103822D01*
X561170Y103712D01*
X561207Y103599D01*
X561229Y103564D01*
X561244Y103527D01*
X561313Y103431D01*
X561377Y103330D01*
X561407Y103302D01*
X561430Y103269D01*
X561522Y103193D01*
X561609Y103112D01*
X561644Y103092D01*
X561675Y103067D01*
X561783Y103016D01*
X561887Y102958D01*
X561927Y102948D01*
X561963Y102931D01*
X562080Y102909D01*
X562195Y102879D01*
X562255Y102875D01*
X562275Y102871D01*
X562296Y102873D01*
X562356Y102869D01*
X565182Y102869D01*
X567563Y100488D01*
X567563Y84120D01*
X567144Y83702D01*
X567071Y83608D01*
X566992Y83518D01*
X566974Y83482D01*
X566949Y83450D01*
X566902Y83341D01*
X566848Y83235D01*
X566839Y83196D01*
X566823Y83158D01*
X566804Y83041D01*
X566778Y82925D01*
X566779Y82884D01*
X566773Y82844D01*
X566784Y82726D01*
X566788Y82607D01*
X566799Y82568D01*
X566803Y82528D01*
X566843Y82416D01*
X566876Y82301D01*
X566896Y82266D01*
X566910Y82228D01*
X566977Y82130D01*
X567037Y82027D01*
X567077Y81982D01*
X567089Y81965D01*
X567104Y81952D01*
X567144Y81907D01*
X567563Y81488D01*
X567563Y65120D01*
X565182Y62739D01*
X562102Y62739D01*
X561984Y62724D01*
X561865Y62717D01*
X561827Y62704D01*
X561786Y62699D01*
X561676Y62656D01*
X561563Y62619D01*
X561528Y62597D01*
X561491Y62582D01*
X561395Y62513D01*
X561294Y62449D01*
X561266Y62419D01*
X561233Y62396D01*
X561157Y62304D01*
X561076Y62217D01*
X561056Y62182D01*
X561031Y62151D01*
X560980Y62043D01*
X560922Y61939D01*
X560912Y61899D01*
X560895Y61863D01*
X560873Y61746D01*
X560843Y61631D01*
X560839Y61571D01*
X560835Y61551D01*
X560837Y61530D01*
X560833Y61470D01*
X560833Y53295D01*
X560021Y51334D01*
X553457Y44771D01*
X553397Y44693D01*
X553329Y44621D01*
X553300Y44568D01*
X553263Y44520D01*
X553223Y44429D01*
X553175Y44342D01*
X553160Y44284D01*
X553136Y44228D01*
X553121Y44130D01*
X553096Y44034D01*
X553090Y43934D01*
X553086Y43914D01*
X553088Y43902D01*
X553086Y43874D01*
X553086Y42959D01*
X551945Y40205D01*
X549837Y38097D01*
X547083Y36956D01*
X544101Y36956D01*
G37*
%LPD*%
%LPC*%
G36*
X424721Y142366D02*
X424721Y142366D01*
X421967Y143507D01*
X419859Y145615D01*
X418718Y148369D01*
X418718Y151351D01*
X419802Y153967D01*
X419810Y153996D01*
X419823Y154022D01*
X419852Y154149D01*
X419886Y154274D01*
X419887Y154304D01*
X419893Y154332D01*
X419889Y154462D01*
X419891Y154592D01*
X419884Y154621D01*
X419883Y154650D01*
X419847Y154775D01*
X419817Y154901D01*
X419803Y154927D01*
X419795Y154956D01*
X419729Y155068D01*
X419668Y155182D01*
X419648Y155204D01*
X419633Y155230D01*
X419527Y155351D01*
X418380Y156498D01*
X418302Y156558D01*
X418230Y156626D01*
X418177Y156655D01*
X418129Y156692D01*
X418038Y156732D01*
X417951Y156780D01*
X417893Y156795D01*
X417837Y156819D01*
X417739Y156834D01*
X417643Y156859D01*
X417543Y156865D01*
X417523Y156869D01*
X417511Y156867D01*
X417483Y156869D01*
X416432Y156869D01*
X416314Y156854D01*
X416195Y156847D01*
X416157Y156834D01*
X416116Y156829D01*
X416006Y156786D01*
X415893Y156749D01*
X415858Y156727D01*
X415821Y156712D01*
X415725Y156643D01*
X415624Y156579D01*
X415596Y156549D01*
X415563Y156526D01*
X415487Y156434D01*
X415406Y156347D01*
X415386Y156312D01*
X415361Y156281D01*
X415310Y156173D01*
X415252Y156069D01*
X415242Y156029D01*
X415225Y155993D01*
X415203Y155876D01*
X415173Y155761D01*
X415169Y155701D01*
X415165Y155681D01*
X415167Y155660D01*
X415163Y155600D01*
X415163Y154020D01*
X412782Y151639D01*
X393414Y151639D01*
X391033Y154020D01*
X391033Y170388D01*
X391452Y170807D01*
X391525Y170901D01*
X391604Y170990D01*
X391622Y171026D01*
X391647Y171058D01*
X391694Y171167D01*
X391748Y171273D01*
X391757Y171312D01*
X391773Y171350D01*
X391792Y171467D01*
X391818Y171583D01*
X391817Y171624D01*
X391823Y171664D01*
X391812Y171782D01*
X391808Y171901D01*
X391797Y171940D01*
X391793Y171980D01*
X391753Y172092D01*
X391720Y172207D01*
X391700Y172242D01*
X391686Y172280D01*
X391619Y172378D01*
X391558Y172481D01*
X391519Y172526D01*
X391507Y172543D01*
X391492Y172556D01*
X391452Y172602D01*
X391033Y173020D01*
X391033Y189388D01*
X393414Y191769D01*
X396240Y191769D01*
X396358Y191784D01*
X396477Y191791D01*
X396515Y191804D01*
X396556Y191809D01*
X396666Y191852D01*
X396779Y191889D01*
X396814Y191911D01*
X396851Y191926D01*
X396947Y191995D01*
X397048Y192059D01*
X397076Y192089D01*
X397109Y192112D01*
X397185Y192204D01*
X397266Y192291D01*
X397286Y192326D01*
X397311Y192357D01*
X397362Y192465D01*
X397420Y192569D01*
X397430Y192609D01*
X397447Y192645D01*
X397469Y192762D01*
X397499Y192877D01*
X397503Y192937D01*
X397507Y192957D01*
X397505Y192978D01*
X397509Y193038D01*
X397509Y194320D01*
X397494Y194438D01*
X397487Y194557D01*
X397474Y194595D01*
X397469Y194636D01*
X397426Y194746D01*
X397389Y194859D01*
X397367Y194894D01*
X397352Y194931D01*
X397283Y195027D01*
X397219Y195128D01*
X397189Y195156D01*
X397166Y195189D01*
X397074Y195265D01*
X396987Y195346D01*
X396952Y195366D01*
X396921Y195391D01*
X396813Y195442D01*
X396709Y195500D01*
X396669Y195510D01*
X396633Y195527D01*
X396516Y195549D01*
X396401Y195579D01*
X396341Y195583D01*
X396321Y195587D01*
X396300Y195585D01*
X396240Y195589D01*
X395414Y195589D01*
X393033Y197970D01*
X393033Y213338D01*
X395414Y215719D01*
X396059Y215719D01*
X396211Y215738D01*
X396362Y215755D01*
X396368Y215758D01*
X396375Y215759D01*
X396517Y215815D01*
X396659Y215869D01*
X396664Y215873D01*
X396670Y215876D01*
X396794Y215965D01*
X396918Y216053D01*
X396922Y216058D01*
X396928Y216062D01*
X397025Y216180D01*
X397123Y216296D01*
X397126Y216302D01*
X397131Y216307D01*
X397195Y216444D01*
X397262Y216582D01*
X397263Y216589D01*
X397266Y216595D01*
X397294Y216742D01*
X397325Y216894D01*
X397325Y216901D01*
X397326Y216907D01*
X397316Y217059D01*
X397309Y217212D01*
X397307Y217218D01*
X397306Y217225D01*
X397260Y217368D01*
X397214Y217515D01*
X397210Y217521D01*
X397208Y217527D01*
X397127Y217655D01*
X397046Y217786D01*
X397042Y217790D01*
X397038Y217796D01*
X396927Y217901D01*
X396817Y218006D01*
X396811Y218009D01*
X396806Y218014D01*
X396673Y218088D01*
X396540Y218163D01*
X396532Y218165D01*
X396528Y218168D01*
X396517Y218170D01*
X396388Y218214D01*
X396117Y218286D01*
X395538Y218621D01*
X395065Y219094D01*
X394730Y219673D01*
X394557Y220320D01*
X394557Y224115D01*
X401828Y224115D01*
X401946Y224130D01*
X402065Y224137D01*
X402103Y224150D01*
X402143Y224155D01*
X402254Y224198D01*
X402367Y224235D01*
X402402Y224257D01*
X402439Y224272D01*
X402535Y224342D01*
X402636Y224405D01*
X402664Y224435D01*
X402696Y224459D01*
X402772Y224550D01*
X402854Y224637D01*
X402873Y224672D01*
X402899Y224703D01*
X402950Y224811D01*
X403007Y224915D01*
X403018Y224955D01*
X403035Y224991D01*
X403057Y225108D01*
X403087Y225223D01*
X403091Y225284D01*
X403095Y225304D01*
X403093Y225324D01*
X403097Y225384D01*
X403097Y226655D01*
X403099Y226655D01*
X403099Y225384D01*
X403114Y225266D01*
X403121Y225147D01*
X403134Y225109D01*
X403139Y225069D01*
X403183Y224958D01*
X403219Y224845D01*
X403241Y224810D01*
X403256Y224773D01*
X403326Y224677D01*
X403389Y224576D01*
X403419Y224548D01*
X403443Y224515D01*
X403534Y224440D01*
X403621Y224358D01*
X403656Y224338D01*
X403688Y224313D01*
X403795Y224262D01*
X403899Y224204D01*
X403939Y224194D01*
X403975Y224177D01*
X404092Y224155D01*
X404207Y224125D01*
X404268Y224121D01*
X404288Y224117D01*
X404308Y224119D01*
X404368Y224115D01*
X411639Y224115D01*
X411639Y220320D01*
X411466Y219673D01*
X411131Y219094D01*
X410658Y218621D01*
X410079Y218286D01*
X409808Y218214D01*
X409667Y218156D01*
X409526Y218100D01*
X409520Y218096D01*
X409514Y218094D01*
X409391Y218003D01*
X409268Y217914D01*
X409264Y217908D01*
X409259Y217904D01*
X409163Y217786D01*
X409065Y217669D01*
X409063Y217662D01*
X409058Y217657D01*
X408994Y217517D01*
X408930Y217381D01*
X408929Y217374D01*
X408926Y217368D01*
X408898Y217217D01*
X408870Y217068D01*
X408871Y217062D01*
X408869Y217055D01*
X408880Y216903D01*
X408890Y216751D01*
X408892Y216745D01*
X408892Y216738D01*
X408941Y216593D01*
X408988Y216449D01*
X408991Y216443D01*
X408994Y216436D01*
X409076Y216309D01*
X409158Y216180D01*
X409163Y216175D01*
X409167Y216170D01*
X409279Y216066D01*
X409390Y215962D01*
X409396Y215959D01*
X409401Y215954D01*
X409535Y215882D01*
X409668Y215808D01*
X409675Y215807D01*
X409681Y215804D01*
X409829Y215767D01*
X409976Y215729D01*
X409985Y215728D01*
X409989Y215727D01*
X410000Y215727D01*
X410137Y215719D01*
X410782Y215719D01*
X413163Y213338D01*
X413163Y197970D01*
X410782Y195589D01*
X409956Y195589D01*
X409838Y195574D01*
X409719Y195567D01*
X409681Y195554D01*
X409640Y195549D01*
X409530Y195506D01*
X409417Y195469D01*
X409382Y195447D01*
X409345Y195432D01*
X409249Y195363D01*
X409148Y195299D01*
X409120Y195269D01*
X409087Y195246D01*
X409011Y195154D01*
X408930Y195067D01*
X408910Y195032D01*
X408885Y195001D01*
X408834Y194893D01*
X408776Y194789D01*
X408766Y194749D01*
X408749Y194713D01*
X408727Y194596D01*
X408697Y194481D01*
X408693Y194421D01*
X408689Y194401D01*
X408691Y194380D01*
X408687Y194320D01*
X408687Y193038D01*
X408702Y192920D01*
X408709Y192801D01*
X408722Y192763D01*
X408727Y192722D01*
X408770Y192612D01*
X408807Y192499D01*
X408829Y192464D01*
X408844Y192427D01*
X408913Y192331D01*
X408977Y192230D01*
X409007Y192202D01*
X409030Y192169D01*
X409122Y192093D01*
X409209Y192012D01*
X409244Y191992D01*
X409275Y191967D01*
X409383Y191916D01*
X409487Y191858D01*
X409527Y191848D01*
X409563Y191831D01*
X409680Y191809D01*
X409795Y191779D01*
X409855Y191775D01*
X409875Y191771D01*
X409896Y191773D01*
X409956Y191769D01*
X412782Y191769D01*
X415163Y189388D01*
X415163Y173020D01*
X414744Y172602D01*
X414671Y172508D01*
X414592Y172418D01*
X414574Y172382D01*
X414549Y172350D01*
X414502Y172241D01*
X414448Y172135D01*
X414439Y172096D01*
X414423Y172058D01*
X414404Y171941D01*
X414378Y171825D01*
X414379Y171784D01*
X414373Y171744D01*
X414384Y171626D01*
X414388Y171507D01*
X414399Y171468D01*
X414403Y171428D01*
X414443Y171316D01*
X414476Y171201D01*
X414496Y171166D01*
X414510Y171128D01*
X414577Y171030D01*
X414637Y170927D01*
X414677Y170882D01*
X414689Y170865D01*
X414704Y170852D01*
X414744Y170807D01*
X415163Y170388D01*
X415163Y168808D01*
X415178Y168690D01*
X415185Y168571D01*
X415198Y168533D01*
X415203Y168492D01*
X415246Y168382D01*
X415283Y168269D01*
X415305Y168234D01*
X415320Y168197D01*
X415389Y168101D01*
X415453Y168000D01*
X415483Y167972D01*
X415506Y167939D01*
X415598Y167863D01*
X415685Y167782D01*
X415720Y167762D01*
X415751Y167737D01*
X415859Y167686D01*
X415963Y167628D01*
X416003Y167618D01*
X416039Y167601D01*
X416156Y167579D01*
X416271Y167549D01*
X416331Y167545D01*
X416351Y167541D01*
X416372Y167543D01*
X416432Y167539D01*
X421279Y167539D01*
X423240Y166727D01*
X430735Y159232D01*
X431547Y157271D01*
X431547Y155649D01*
X431559Y155551D01*
X431562Y155452D01*
X431579Y155393D01*
X431587Y155333D01*
X431623Y155241D01*
X431651Y155146D01*
X431681Y155094D01*
X431704Y155038D01*
X431762Y154957D01*
X431812Y154872D01*
X431878Y154797D01*
X431890Y154780D01*
X431900Y154772D01*
X431918Y154751D01*
X432565Y154105D01*
X433706Y151351D01*
X433706Y148369D01*
X432565Y145615D01*
X430457Y143507D01*
X427703Y142366D01*
X424721Y142366D01*
G37*
%LPD*%
%LPC*%
G36*
X88886Y316483D02*
X88886Y316483D01*
X82041Y323328D01*
X82041Y333008D01*
X88886Y339853D01*
X98566Y339853D01*
X103782Y334636D01*
X103860Y334576D01*
X103933Y334508D01*
X103986Y334479D01*
X104033Y334442D01*
X104124Y334402D01*
X104211Y334354D01*
X104270Y334339D01*
X104325Y334315D01*
X104423Y334300D01*
X104519Y334275D01*
X104619Y334269D01*
X104639Y334265D01*
X104652Y334267D01*
X104680Y334265D01*
X129816Y334265D01*
X129934Y334280D01*
X130053Y334287D01*
X130091Y334300D01*
X130132Y334305D01*
X130242Y334348D01*
X130355Y334385D01*
X130390Y334407D01*
X130427Y334422D01*
X130523Y334491D01*
X130624Y334555D01*
X130652Y334585D01*
X130685Y334608D01*
X130761Y334700D01*
X130842Y334787D01*
X130862Y334822D01*
X130887Y334853D01*
X130938Y334961D01*
X130996Y335065D01*
X131006Y335105D01*
X131023Y335141D01*
X131045Y335258D01*
X131075Y335373D01*
X131079Y335433D01*
X131083Y335453D01*
X131081Y335474D01*
X131085Y335534D01*
X131085Y335852D01*
X133466Y338233D01*
X158834Y338233D01*
X161215Y335852D01*
X161215Y320484D01*
X158834Y318103D01*
X133466Y318103D01*
X131085Y320484D01*
X131085Y320802D01*
X131070Y320920D01*
X131063Y321039D01*
X131050Y321077D01*
X131045Y321118D01*
X131002Y321228D01*
X130965Y321341D01*
X130943Y321376D01*
X130928Y321413D01*
X130859Y321509D01*
X130795Y321610D01*
X130765Y321638D01*
X130742Y321671D01*
X130650Y321747D01*
X130563Y321828D01*
X130528Y321848D01*
X130497Y321873D01*
X130389Y321924D01*
X130285Y321982D01*
X130245Y321992D01*
X130209Y322009D01*
X130092Y322031D01*
X129977Y322061D01*
X129917Y322065D01*
X129897Y322069D01*
X129876Y322067D01*
X129816Y322071D01*
X104680Y322071D01*
X104582Y322059D01*
X104482Y322056D01*
X104424Y322039D01*
X104364Y322031D01*
X104272Y321995D01*
X104177Y321967D01*
X104125Y321937D01*
X104068Y321914D01*
X103988Y321856D01*
X103903Y321806D01*
X103828Y321740D01*
X103811Y321728D01*
X103803Y321718D01*
X103782Y321700D01*
X98566Y316483D01*
X88886Y316483D01*
G37*
%LPD*%
%LPC*%
G36*
X133466Y343503D02*
X133466Y343503D01*
X131085Y345884D01*
X131085Y361252D01*
X133466Y363633D01*
X158834Y363633D01*
X161215Y361252D01*
X161215Y345884D01*
X158834Y343503D01*
X133466Y343503D01*
G37*
%LPD*%
%LPC*%
G36*
X242486Y318103D02*
X242486Y318103D01*
X240105Y320484D01*
X240105Y335852D01*
X242486Y338233D01*
X267854Y338233D01*
X270235Y335852D01*
X270235Y320484D01*
X267854Y318103D01*
X242486Y318103D01*
G37*
%LPD*%
%LPC*%
G36*
X242486Y292703D02*
X242486Y292703D01*
X240105Y295084D01*
X240105Y310452D01*
X242486Y312833D01*
X267854Y312833D01*
X270235Y310452D01*
X270235Y295084D01*
X267854Y292703D01*
X242486Y292703D01*
G37*
%LPD*%
%LPC*%
G36*
X242486Y267303D02*
X242486Y267303D01*
X240105Y269684D01*
X240105Y285052D01*
X242486Y287433D01*
X267854Y287433D01*
X270235Y285052D01*
X270235Y269684D01*
X267854Y267303D01*
X242486Y267303D01*
G37*
%LPD*%
%LPC*%
G36*
X62737Y213867D02*
X62737Y213867D01*
X62737Y221489D01*
X68618Y221489D01*
X70197Y221239D01*
X71718Y220744D01*
X73143Y220018D01*
X74437Y219078D01*
X75568Y217947D01*
X76508Y216653D01*
X77234Y215228D01*
X77677Y213867D01*
X62737Y213867D01*
G37*
%LPD*%
%LPC*%
G36*
X42719Y213867D02*
X42719Y213867D01*
X43162Y215228D01*
X43888Y216653D01*
X44828Y217947D01*
X45959Y219078D01*
X47253Y220018D01*
X48678Y220744D01*
X50199Y221239D01*
X51778Y221489D01*
X57659Y221489D01*
X57659Y213867D01*
X42719Y213867D01*
G37*
%LPD*%
%LPC*%
G36*
X62737Y201167D02*
X62737Y201167D01*
X62737Y208789D01*
X77677Y208789D01*
X77234Y207428D01*
X76508Y206003D01*
X75568Y204709D01*
X74437Y203578D01*
X73143Y202638D01*
X71718Y201912D01*
X70197Y201417D01*
X68618Y201167D01*
X62737Y201167D01*
G37*
%LPD*%
%LPC*%
G36*
X51778Y201167D02*
X51778Y201167D01*
X50199Y201417D01*
X48678Y201912D01*
X47253Y202638D01*
X45959Y203578D01*
X44828Y204709D01*
X43888Y206003D01*
X43162Y207428D01*
X42719Y208789D01*
X57659Y208789D01*
X57659Y201167D01*
X51778Y201167D01*
G37*
%LPD*%
%LPC*%
G36*
X257709Y356107D02*
X257709Y356107D01*
X257709Y362109D01*
X266504Y362109D01*
X267151Y361936D01*
X267730Y361601D01*
X268203Y361128D01*
X268538Y360549D01*
X268711Y359902D01*
X268711Y356107D01*
X257709Y356107D01*
G37*
%LPD*%
%LPC*%
G36*
X241629Y356107D02*
X241629Y356107D01*
X241629Y359902D01*
X241802Y360549D01*
X242137Y361128D01*
X242610Y361601D01*
X243189Y361936D01*
X243836Y362109D01*
X252631Y362109D01*
X252631Y356107D01*
X241629Y356107D01*
G37*
%LPD*%
%LPC*%
G36*
X257709Y345027D02*
X257709Y345027D01*
X257709Y351029D01*
X268711Y351029D01*
X268711Y347234D01*
X268538Y346587D01*
X268203Y346008D01*
X267730Y345535D01*
X267151Y345200D01*
X266504Y345027D01*
X257709Y345027D01*
G37*
%LPD*%
%LPC*%
G36*
X243836Y345027D02*
X243836Y345027D01*
X243189Y345200D01*
X242610Y345535D01*
X242137Y346008D01*
X241802Y346587D01*
X241629Y347234D01*
X241629Y351029D01*
X252631Y351029D01*
X252631Y345027D01*
X243836Y345027D01*
G37*
%LPD*%
%LPC*%
G36*
X357860Y165480D02*
X357860Y165480D01*
X357860Y172982D01*
X362155Y172982D01*
X362802Y172809D01*
X363381Y172474D01*
X363854Y172001D01*
X364189Y171422D01*
X364362Y170775D01*
X364362Y165480D01*
X357860Y165480D01*
G37*
%LPD*%
%LPC*%
G36*
X357860Y152900D02*
X357860Y152900D01*
X357860Y160402D01*
X364362Y160402D01*
X364362Y155107D01*
X364189Y154460D01*
X363854Y153881D01*
X363381Y153408D01*
X362802Y153073D01*
X362155Y152900D01*
X357860Y152900D01*
G37*
%LPD*%
%LPC*%
G36*
X156973Y149351D02*
X156973Y149351D01*
X156973Y154646D01*
X157146Y155293D01*
X157481Y155872D01*
X157954Y156345D01*
X158533Y156680D01*
X159180Y156853D01*
X163475Y156853D01*
X163475Y149351D01*
X156973Y149351D01*
G37*
%LPD*%
%LPC*%
G36*
X199897Y86361D02*
X199897Y86361D01*
X199897Y92863D01*
X207399Y92863D01*
X207399Y88568D01*
X207226Y87921D01*
X206891Y87342D01*
X206418Y86869D01*
X205839Y86534D01*
X205192Y86361D01*
X199897Y86361D01*
G37*
%LPD*%
%LPC*%
G36*
X159180Y136771D02*
X159180Y136771D01*
X158533Y136944D01*
X157954Y137279D01*
X157481Y137752D01*
X157146Y138331D01*
X156973Y138978D01*
X156973Y144273D01*
X163475Y144273D01*
X163475Y136771D01*
X159180Y136771D01*
G37*
%LPD*%
%LPC*%
G36*
X189524Y86361D02*
X189524Y86361D01*
X188877Y86534D01*
X188298Y86869D01*
X187825Y87342D01*
X187490Y87921D01*
X187317Y88568D01*
X187317Y92863D01*
X194819Y92863D01*
X194819Y86361D01*
X189524Y86361D01*
G37*
%LPD*%
%LPC*%
G36*
X247141Y74421D02*
X247141Y74421D01*
X247141Y76091D01*
X253093Y82043D01*
X254763Y82043D01*
X254763Y74421D01*
X247141Y74421D01*
G37*
%LPD*%
%LPC*%
G36*
X253093Y61721D02*
X253093Y61721D01*
X247141Y67673D01*
X247141Y69343D01*
X254763Y69343D01*
X254763Y61721D01*
X253093Y61721D01*
G37*
%LPD*%
%LPC*%
G36*
X405637Y229193D02*
X405637Y229193D01*
X405637Y235195D01*
X409432Y235195D01*
X410079Y235022D01*
X410658Y234687D01*
X411131Y234214D01*
X411466Y233635D01*
X411639Y232988D01*
X411639Y229193D01*
X405637Y229193D01*
G37*
%LPD*%
%LPC*%
G36*
X558037Y318093D02*
X558037Y318093D01*
X558037Y324095D01*
X561832Y324095D01*
X562479Y323922D01*
X563058Y323587D01*
X563531Y323114D01*
X563866Y322535D01*
X564039Y321888D01*
X564039Y318093D01*
X558037Y318093D01*
G37*
%LPD*%
%LPC*%
G36*
X405637Y318093D02*
X405637Y318093D01*
X405637Y324095D01*
X409432Y324095D01*
X410079Y323922D01*
X410658Y323587D01*
X411131Y323114D01*
X411466Y322535D01*
X411639Y321888D01*
X411639Y318093D01*
X405637Y318093D01*
G37*
%LPD*%
%LPC*%
G36*
X481837Y229193D02*
X481837Y229193D01*
X481837Y235195D01*
X485632Y235195D01*
X486279Y235022D01*
X486858Y234687D01*
X487331Y234214D01*
X487666Y233635D01*
X487839Y232988D01*
X487839Y229193D01*
X481837Y229193D01*
G37*
%LPD*%
%LPC*%
G36*
X558037Y140293D02*
X558037Y140293D01*
X558037Y146295D01*
X561832Y146295D01*
X562479Y146122D01*
X563058Y145787D01*
X563531Y145314D01*
X563866Y144735D01*
X564039Y144088D01*
X564039Y140293D01*
X558037Y140293D01*
G37*
%LPD*%
%LPC*%
G36*
X405637Y140293D02*
X405637Y140293D01*
X405637Y146295D01*
X409432Y146295D01*
X410079Y146122D01*
X410658Y145787D01*
X411131Y145314D01*
X411466Y144735D01*
X411639Y144088D01*
X411639Y140293D01*
X405637Y140293D01*
G37*
%LPD*%
%LPC*%
G36*
X558037Y229193D02*
X558037Y229193D01*
X558037Y235195D01*
X561832Y235195D01*
X562479Y235022D01*
X563058Y234687D01*
X563531Y234214D01*
X563866Y233635D01*
X564039Y232988D01*
X564039Y229193D01*
X558037Y229193D01*
G37*
%LPD*%
%LPC*%
G36*
X394557Y229193D02*
X394557Y229193D01*
X394557Y232988D01*
X394730Y233635D01*
X395065Y234214D01*
X395538Y234687D01*
X396117Y235022D01*
X396764Y235195D01*
X400559Y235195D01*
X400559Y229193D01*
X394557Y229193D01*
G37*
%LPD*%
%LPC*%
G36*
X546957Y229193D02*
X546957Y229193D01*
X546957Y232988D01*
X547130Y233635D01*
X547465Y234214D01*
X547938Y234687D01*
X548517Y235022D01*
X549164Y235195D01*
X552959Y235195D01*
X552959Y229193D01*
X546957Y229193D01*
G37*
%LPD*%
%LPC*%
G36*
X394557Y318093D02*
X394557Y318093D01*
X394557Y321888D01*
X394730Y322535D01*
X395065Y323114D01*
X395538Y323587D01*
X396117Y323922D01*
X396764Y324095D01*
X400559Y324095D01*
X400559Y318093D01*
X394557Y318093D01*
G37*
%LPD*%
%LPC*%
G36*
X546957Y140293D02*
X546957Y140293D01*
X546957Y144088D01*
X547130Y144735D01*
X547465Y145314D01*
X547938Y145787D01*
X548517Y146122D01*
X549164Y146295D01*
X552959Y146295D01*
X552959Y140293D01*
X546957Y140293D01*
G37*
%LPD*%
%LPC*%
G36*
X394557Y140293D02*
X394557Y140293D01*
X394557Y144088D01*
X394730Y144735D01*
X395065Y145314D01*
X395538Y145787D01*
X396117Y146122D01*
X396764Y146295D01*
X400559Y146295D01*
X400559Y140293D01*
X394557Y140293D01*
G37*
%LPD*%
%LPC*%
G36*
X546957Y318093D02*
X546957Y318093D01*
X546957Y321888D01*
X547130Y322535D01*
X547465Y323114D01*
X547938Y323587D01*
X548517Y323922D01*
X549164Y324095D01*
X552959Y324095D01*
X552959Y318093D01*
X546957Y318093D01*
G37*
%LPD*%
%LPC*%
G36*
X470757Y229193D02*
X470757Y229193D01*
X470757Y232988D01*
X470930Y233635D01*
X471265Y234214D01*
X471738Y234687D01*
X472317Y235022D01*
X472964Y235195D01*
X476759Y235195D01*
X476759Y229193D01*
X470757Y229193D01*
G37*
%LPD*%
%LPC*%
G36*
X60197Y211327D02*
X60197Y211327D01*
X60197Y211329D01*
X60199Y211329D01*
X60199Y211327D01*
X60197Y211327D01*
G37*
%LPD*%
%LPC*%
G36*
X255169Y353567D02*
X255169Y353567D01*
X255169Y353569D01*
X255171Y353569D01*
X255171Y353567D01*
X255169Y353567D01*
G37*
%LPD*%
D10*
X166014Y146812D03*
X185014Y146812D03*
D11*
X197358Y95402D03*
X197358Y114402D03*
D12*
X308102Y46482D03*
X308102Y71882D03*
X282702Y46482D03*
X282702Y71882D03*
X257302Y46482D03*
X257302Y71882D03*
D13*
X67818Y211328D02*
X52578Y211328D01*
X52578Y236728D02*
X67818Y236728D01*
D14*
X93726Y328168D03*
D15*
X555498Y315554D03*
X555498Y294554D03*
X555498Y226654D03*
X555498Y205654D03*
X555498Y137754D03*
X555498Y116754D03*
X403098Y315554D03*
X403098Y294554D03*
X403098Y226654D03*
X403098Y205654D03*
X403098Y137754D03*
X403098Y116754D03*
X479298Y226654D03*
X479298Y205654D03*
D16*
X555498Y270104D03*
X555498Y251104D03*
X555498Y181204D03*
X555498Y162204D03*
X555498Y92304D03*
X555498Y73304D03*
X403098Y270104D03*
X403098Y251104D03*
X403098Y181204D03*
X403098Y162204D03*
X403098Y92304D03*
X403098Y73304D03*
X479298Y181204D03*
X479298Y162204D03*
D17*
X255170Y277368D03*
X255170Y302768D03*
X255170Y328168D03*
X255170Y353568D03*
X146150Y353568D03*
X146150Y328168D03*
X146150Y302768D03*
X146150Y277368D03*
D18*
X12446Y375666D03*
X13716Y13970D03*
X589280Y13970D03*
D19*
X220582Y194878D03*
X220582Y186878D03*
X220582Y178878D03*
X220582Y170878D03*
X220582Y162878D03*
X220582Y154878D03*
X220582Y146878D03*
X220582Y138878D03*
D20*
X234382Y125078D03*
X242382Y125078D03*
X250382Y125078D03*
X258382Y125078D03*
X266382Y125078D03*
X274382Y125078D03*
X282382Y125078D03*
X290382Y125078D03*
D19*
X304182Y138878D03*
X304182Y146878D03*
X304182Y154878D03*
X304182Y162878D03*
X304182Y170878D03*
X304182Y178878D03*
X304182Y186878D03*
X304182Y194878D03*
D20*
X290382Y208678D03*
X282382Y208678D03*
X274382Y208678D03*
X266382Y208678D03*
X258382Y208678D03*
X250382Y208678D03*
X242382Y208678D03*
X234382Y208678D03*
D10*
X355321Y162941D03*
X336321Y162941D03*
D21*
X150370Y66040D03*
X55370Y66040D03*
D22*
X185014Y146812D02*
X220516Y146812D01*
X220582Y146878D01*
X185014Y146812D02*
X185014Y133452D01*
X161544Y109982D01*
X99312Y109982D02*
X55370Y66040D01*
X99312Y109982D02*
X161544Y109982D01*
X197358Y114402D02*
X197358Y131572D01*
X204664Y138878D02*
X220582Y138878D01*
X204664Y138878D02*
X197358Y131572D01*
X197358Y114402D02*
X197256Y114300D01*
X150370Y80774D02*
X150370Y66040D01*
X183896Y114300D02*
X197256Y114300D01*
X183896Y114300D02*
X150370Y80774D01*
D23*
X166014Y162878D02*
X220582Y162878D01*
X166014Y162878D02*
X166014Y146812D01*
X304182Y170878D02*
X318706Y170878D01*
X326390Y178562D02*
X347472Y178562D01*
X355321Y170713D01*
X355321Y162941D01*
X326390Y178562D02*
X318706Y170878D01*
D24*
X84074Y236728D02*
X60198Y236728D01*
X124714Y277368D02*
X146150Y277368D01*
X124714Y277368D02*
X84074Y236728D01*
D25*
X149924Y170878D02*
X220582Y170878D01*
X149924Y170878D02*
X84074Y236728D01*
D22*
X308102Y103886D02*
X308102Y71882D01*
X328422Y124206D02*
X328422Y138938D01*
X320482Y146878D01*
X304182Y146878D01*
X328422Y124206D02*
X308102Y103886D01*
X254572Y170878D02*
X220582Y170878D01*
X254572Y170878D02*
X278638Y146812D01*
X304116Y146812D01*
X304182Y146878D01*
X510642Y251104D02*
X555498Y251104D01*
X350012Y347980D02*
X349504Y348488D01*
D26*
X349504Y348488D03*
X280162Y189738D03*
D22*
X271780Y181356D01*
X249936Y181356D01*
X242382Y188910D01*
X242382Y208678D01*
X413766Y347980D02*
X510642Y251104D01*
X413766Y347980D02*
X350012Y347980D01*
X234382Y221802D02*
X234382Y208678D01*
X234382Y221802D02*
X223266Y232918D01*
D26*
X223266Y232918D03*
X267208Y240030D03*
D22*
X274066Y233172D01*
X290322Y233172D01*
D26*
X290322Y233172D03*
X508762Y190500D03*
D22*
X508762Y171450D01*
X518008Y162204D02*
X555498Y162204D01*
X518008Y162204D02*
X508762Y171450D01*
X220582Y194878D02*
X199450Y194878D01*
X194056Y189484D01*
D26*
X194056Y189484D03*
X545592Y44450D03*
D22*
X555498Y54356D01*
X555498Y73304D01*
X479298Y136398D02*
X479298Y162204D01*
D26*
X462280Y119380D03*
X237236Y181610D03*
D22*
X231968Y186878D01*
X220582Y186878D01*
X462280Y119380D02*
X479298Y136398D01*
X234382Y143196D02*
X234382Y125078D01*
X234382Y143196D02*
X243586Y152400D01*
D26*
X243586Y152400D03*
X355600Y251206D03*
D22*
X402996Y251206D01*
X403098Y251104D01*
X242382Y139766D02*
X242382Y125078D01*
X244348Y141732D02*
X259334Y141732D01*
D26*
X259334Y141732D03*
X426212Y149860D03*
D22*
X426212Y156210D01*
X420218Y162204D02*
X403098Y162204D01*
X244348Y141732D02*
X242382Y139766D01*
X420218Y162204D02*
X426212Y156210D01*
D27*
X555498Y270104D02*
X555498Y294554D01*
X555498Y205654D02*
X555498Y181204D01*
X555498Y116754D02*
X555498Y92304D01*
X403098Y270104D02*
X403098Y294554D01*
X403098Y205654D02*
X403098Y181204D01*
X403098Y116754D02*
X403098Y92304D01*
X479298Y181204D02*
X479298Y205654D01*
D22*
X308102Y46482D02*
X295148Y59436D01*
X295148Y101346D02*
X290322Y106172D01*
X290322Y125018D01*
X290382Y125078D01*
X295148Y101346D02*
X295148Y59436D01*
X282702Y46482D02*
X270002Y59182D01*
X270002Y85344D01*
D26*
X270002Y85344D03*
X300482Y108204D03*
D22*
X320802Y128524D01*
X320802Y134620D01*
X316544Y138878D01*
X304182Y138878D01*
X282702Y124758D02*
X282702Y71882D01*
X282702Y124758D02*
X282382Y125078D01*
X257302Y46482D02*
X234696Y46482D01*
X229362Y51816D01*
X229362Y59944D01*
D26*
X229362Y59944D03*
X250952Y231140D03*
D22*
X255778Y231140D01*
X258382Y228536D02*
X258382Y208678D01*
X258382Y228536D02*
X255778Y231140D01*
X250382Y125078D02*
X250382Y108774D01*
X262128Y97028D02*
X271018Y97028D01*
D26*
X271018Y97028D03*
X322072Y96774D03*
D22*
X345542Y73304D01*
X403098Y73304D01*
X262128Y97028D02*
X250382Y108774D01*
X173228Y302768D02*
X146150Y302768D01*
X173228Y302768D02*
X226568Y249428D01*
X299212Y249428D01*
X345948Y202692D02*
X345948Y194564D01*
X338262Y186878D01*
X304182Y186878D01*
X345948Y202692D02*
X299212Y249428D01*
D24*
X146150Y328168D02*
X93726Y328168D01*
D25*
X304182Y162878D02*
X336258Y162878D01*
X336321Y162941D01*
M02*
